<svg xmlns="http://www.w3.org/2000/svg" id="icon-card" viewBox="0 0 57 57"><path class="hst0" d="M55.5 24.8c0-1-.4-1.9-1.1-2.6l-18.9-19c-1.4-1.4-3.8-1.4-5.2 0L2.6 30.9c-.7.7-1.1 1.6-1.1 2.6s.4 1.9 1.1 2.6l18.3 18.3h-5c-.5 0-.9.4-.9.9s.4.9.9.9h24.3c.5 0 .9-.4.9-.9s-.4-.9-.9-.9H27.4l27-27c.7-.7 1.1-1.6 1.1-2.6zM39.8 10.1L9.5 40.5l-2.7-2.7L37.2 7.5l2.6 2.6zM3.3 33.5c0-.5.2-1 .6-1.3L31.5 4.5c.4-.3.9-.5 1.4-.5s1 .2 1.3.6l1.7 1.7L5.5 36.5l-1.7-1.7c-.3-.3-.5-.8-.5-1.3zm49.8-7.4L25.5 53.8c-.7.7-1.9.7-2.7 0l-12-12 30.3-30.3 12 12c.8.7.8 1.9 0 2.6z"></path><path class="hst0" d="M44.3 18.3c-.8-.8-2.2-.8-3 0L36 23.6c-.4.4-.6.9-.6 1.5s.2 1.1.6 1.5l3.1 3.1c.4.4 1 .6 1.5.6s1.1-.2 1.5-.6l5.3-5.3c.8-.8.8-2.2 0-3l-3.1-3.1zm1.8 4.8l-5.3 5.3c-.1.1-.3.1-.4 0l-3.1-3.1c-.1-.1-.1-.2-.1-.2s0-.1.1-.2l5.3-5.3c.1-.1.1-.1.2-.1s.2 0 .2.1l3.1 3.1c.2.1.2.3 0 .4zM27 35c-.4-.4-.9-.4-1.3 0l-8.3 8.3c-.4.4-.4.9 0 1.3.2.2.4.3.6.3.2 0 .5-.1.6-.3l8.3-8.3c.5-.4.5-1 .1-1.3zm-.3 6.5l-5.6 5.6c-.4.4-.4.9 0 1.3.2.2.4.3.6.3s.5-.1.6-.3l5.6-5.6c.4-.4.4-.9 0-1.3s-.9-.4-1.2 0zm2.7-2.8l-.9.9c-.4.4-.4.9 0 1.3.2.2.4.3.6.3.2 0 .5-.1.6-.3l.9-.9c.4-.4.4-.9 0-1.3-.2-.3-.8-.3-1.2 0z"></path></svg>