<svg xmlns="http://www.w3.org/2000/svg" viewBox="0 0 25 36" id="height"><path d="M17.935.01c-2.4 0-4.335 1.888-4.335 4.207 0 2.32 1.945 4.217 4.344 4.217s4.345-1.888 4.345-4.217C22.279 1.898 20.324.01 17.935.01zm0 6.417c-1.256 0-2.276-.99-2.276-2.21 0-1.219 1.02-2.209 2.276-2.209 1.256 0 2.276.99 2.276 2.21 0 1.219-1.02 2.209-2.276 2.209zm3.609 2.988h-1.2a1.02 1.02 0 0 0-.944.614l-1.455 3.41-1.454-3.41a1.017 1.017 0 0 0-.945-.614h-1.209c-1.908 0-3.466 1.512-3.466 3.364v11.927c0 .55.453 1 1.03 1h.576V35c0 .55.453.999 1.03.999h8.868c.566 0 1.03-.44 1.03-1v-9.304h.566c.566 0 1.03-.44 1.03-1V12.78c.009-1.86-1.55-3.364-3.457-3.364zm-.199 24.577h-2.37v-4.648c0-.55-.454-.999-1.03-.999-.567 0-1.03.44-1.03 1v4.647h-2.37v-8.296h6.81l-.01 8.296zM12.93 23.697V12.78c0-.752.633-1.366 1.407-1.366h.52l2.134 5.042c.35.798 1.54.844 1.908 0l2.135-5.033h.519c.774 0 1.407.615 1.407 1.366v10.919l-10.03-.01zM6.517 2.008c.566 0 1.03-.44 1.03-1A1.022 1.022 0 0 0 6.516 0H1.029C.463 0 0 .44 0 1v33.982c0 .55.453 1 1.03 1h5.487c.566 0 1.03-.44 1.03-1 0-.55-.454-.999-1.03-.999H2.068v-2.805h4.449c.566 0 1.03-.44 1.03-1 0-.558-.454-.998-1.03-.998H2.068v-2.943h2.125c.567 0 1.03-.44 1.03-1 0-.559-.453-.999-1.03-.999H2.068v-2.787h4.449c.566 0 1.03-.44 1.03-.999 0-.55-.454-.999-1.03-.999H2.068V16.51h2.125c.567 0 1.03-.44 1.03-.999 0-.55-.453-1-1.03-1H2.068v-2.777h4.449c.566 0 1.03-.44 1.03-1 0-.55-.454-.998-1.03-.998H2.068V6.784h2.125c.567 0 1.03-.44 1.03-1 0-.559-.453-.999-1.03-.999H2.068V1.962h4.449v.046z"></path></svg>