<svg xmlns="http://www.w3.org/2000/svg" id="icon-paypal" viewBox="0 0 95 26.5"><path class="ist0" d="M17 5.4c1.3 1 2 2.3 2.1 4 .1 1.4-.1 2.7-.7 3.7-.6 1.1-1.5 1.9-2.7 2.5-1.2.6-2.7.9-4.3.9H8L7.5 21H2.7l2-17h7.2c2.1 0 3.8.5 5.1 1.4zM13.6 12c.5-.5.8-1.2.7-2.1-.1-.7-.3-1.2-.8-1.6-.5-.3-1.2-.5-2-.5H9l-.6 5h2.9c1 0 1.8-.3 2.3-.8zm21.8-4.2L33.9 21h-4.4l.2-1.2c-1 1-2.2 1.5-3.7 1.5-1 0-1.9-.2-2.8-.7-.9-.5-1.6-1.2-2.2-2.1-.6-.9-.9-2-1-3.2-.1-1.4.1-2.7.6-3.9.5-1.2 1.3-2.1 2.4-2.7 1-.7 2.2-1 3.5-1 1.9 0 3.3.6 4.2 1.8l.2-1.6h4.5zm-5.9 8.7c.5-.7.7-1.6.6-2.6-.1-.8-.3-1.4-.8-1.8-.5-.5-1.1-.7-1.9-.7-.9 0-1.6.3-2.2 1-.5.7-.7 1.6-.6 2.7.1.8.3 1.4.8 1.8.5.4 1.1.7 1.9.7.9-.1 1.7-.5 2.2-1.1zm22.7-8.7L45 21.6c-.6 1.1-1.2 2-1.8 2.6-.6.6-1.2 1.1-1.9 1.3-.7.3-3.2.4-3.2.4l.9-3.6s.7-.1 1-.3c.3-.2.5-.5.8-.9L36.6 7.8h4.6l2.3 8.1 4.2-8.1h4.5zm14.2-2.4c1.3 1 2 2.3 2.1 4 .1 1.4-.1 2.7-.7 3.7-.6 1.1-1.5 1.9-2.7 2.5-1.2.6-2.7.9-4.3.9h-3.4l-.5 4.5h-4.8l2-17h7.2c2.1 0 3.9.5 5.1 1.4zM63.1 12c.5-.5.8-1.2.7-2.1-.1-.7-.3-1.2-.8-1.6-.5-.3-1.2-.5-2-.5h-2.5l-.6 5h2.9c.9 0 1.7-.3 2.3-.8zm21.7-4.2L83.3 21H79l.2-1.2c-1 1-2.2 1.5-3.7 1.5-1 0-1.9-.2-2.8-.7-.9-.5-1.6-1.2-2.2-2.1-.6-.9-.9-2-1-3.2-.1-1.4.1-2.7.6-3.9.5-1.2 1.3-2.1 2.4-2.7 1-.7 2.2-1 3.5-1 1.9 0 3.3.6 4.2 1.8l.2-1.6h4.4zm-5.9 8.7c.5-.7.7-1.6.6-2.6-.1-.8-.3-1.4-.8-1.8-.5-.5-1.1-.7-1.9-.7-.9 0-1.6.3-2.2 1-.4.6-.6 1.5-.6 2.6.1.8.3 1.4.8 1.8.5.4 1.1.7 1.9.7 1 0 1.7-.4 2.2-1zM88.4 3H93l-2.1 18h-4.6l2.1-18z"></path></svg>