<svg xmlns="http://www.w3.org/2000/svg" viewBox="0 0 35 35" id="weight"><path d="M29.531 0H5.47A5.475 5.475 0 0 0 0 5.469V29.53A5.475 5.475 0 0 0 5.469 35H29.53A5.475 5.475 0 0 0 35 29.531V5.47A5.475 5.475 0 0 0 29.531 0zm3.282 29.531a3.281 3.281 0 0 1-3.282 3.282H18.594V26.25h-2.188v6.563H5.47a3.281 3.281 0 0 1-3.282-3.282V5.47A3.281 3.281 0 0 1 5.47 2.187h24.06a3.281 3.281 0 0 1 3.282 3.282V29.53z"></path><path d="M17.5 6.563h.131l.024-2.188H17.5c-.735 0-1.468.052-2.195.158l.316 2.164c.622-.09 1.25-.135 1.879-.134zm-3.828.585l-.668-2.078c-.754.24-1.485.546-2.188.91l1.009 1.942a11.86 11.86 0 0 1 1.847-.774z"></path><path d="M19.998 4.58l-.361 2.158a11.679 11.679 0 0 1 6.398 3.28l-2.649 5.295h-3.843l3.242-4.862-1.82-1.214-4.05 6.076h-5.302l-2.645-5.298c.365-.37.755-.714 1.17-1.028l-1.33-1.74a11.158 11.158 0 0 0-2.027 1.94l-.406.547 3.886 7.766h14.477l3.888-7.783-.418-.547a13.49 13.49 0 0 0-8.21-4.59z"></path></svg>