<svg xmlns="http://www.w3.org/2000/svg" viewBox="0 0 36 36" id="calendar"><path d="M33 3.375h-4.875v-2.25a1.124 1.124 0 1 0-2.25 0v2.25h-6.75v-2.25a1.125 1.125 0 1 0-2.25 0v2.25h-6.75v-2.25a1.125 1.125 0 1 0-2.25 0v2.25H3a3 3 0 0 0-3 3V33a3 3 0 0 0 3 3h30a3 3 0 0 0 3-3V6.374a2.998 2.998 0 0 0-3-2.999zM33.75 33a.75.75 0 0 1-.75.75H3a.75.75 0 0 1-.75-.75V6.374A.75.75 0 0 1 3 5.625h4.875v2.25a1.125 1.125 0 1 0 2.25 0v-2.25h6.75v2.25a1.125 1.125 0 1 0 2.25 0v-2.25h6.75v2.25a1.124 1.124 0 1 0 2.25 0v-2.25h4.876a.75.75 0 0 1 .749.75V33z"></path><path d="M12.375 13.5h-4.5v3.375h4.5V13.5zm0 5.625h-4.5V22.5h4.5v-3.375zm0 5.625h-4.5v3.375h4.5V24.75zm7.875 0h-4.5v3.375h4.5V24.75zm0-5.625h-4.5V22.5h4.5v-3.375zm0-5.625h-4.5v3.375h4.5V13.5zm7.875 11.25h-4.5v3.375h4.5V24.75zm0-5.625h-4.5V22.5h4.5v-3.375zm0-5.625h-4.5v3.375h4.5V13.5z"></path></svg>