<?xml version="1.0" encoding="utf-8"?>
<!-- Generator: Adobe Illustrator 22.0.1, SVG Export Plug-In . SVG Version: 6.00 Build 0)  -->
<svg version="1.1" id="Layer_2_1_" xmlns="http://www.w3.org/2000/svg" xmlns:xlink="http://www.w3.org/1999/xlink" x="0px" y="0px"
	 viewBox="0 0 525 579" style="enable-background:new 0 0 525 579;" xml:space="preserve">
<style type="text/css">
	.st0{fill:#51062A;}
	.st1{fill:#961E4C;}
	.st2{fill:#502870;}
	.st3{fill:#F8AD84;}
	.st4{fill:url(#SVGID_1_);}
	.st5{opacity:0.79;}
	.st6{fill:url(#SVGID_2_);}
	.st7{fill:url(#SVGID_3_);}
	.st8{fill:url(#SVGID_4_);}
	.st9{fill:url(#SVGID_5_);}
	.st10{fill:#4F0E4F;}
	.st11{opacity:0.66;fill:url(#SVGID_6_);enable-background:new    ;}
	.st12{opacity:0.62;fill:url(#SVGID_7_);enable-background:new    ;}
	.st13{fill:#ED9B72;}
	.st14{opacity:0.62;}
	.st15{fill:url(#SVGID_8_);}
	.st16{fill:url(#SVGID_9_);}
	.st17{opacity:0.62;fill:url(#SVGID_10_);enable-background:new    ;}
	.st18{fill:url(#SVGID_11_);}
	.st19{fill:url(#SVGID_12_);}
	.st20{fill:url(#SVGID_13_);}
	.st21{fill:#368084;}
	.st22{fill:#3F8E8E;}
	.st23{fill:url(#SVGID_14_);}
	.st24{fill:url(#SVGID_15_);}
	.st25{fill:url(#SVGID_16_);}
	.st26{fill:url(#SVGID_17_);}
	.st27{opacity:0.62;fill:url(#SVGID_18_);enable-background:new    ;}
	.st28{fill:none;stroke:#72CECE;stroke-width:0.75;stroke-linecap:round;stroke-miterlimit:10;}
	.st29{opacity:0.75;fill:#E89972;enable-background:new    ;}
	.st30{opacity:0.8;fill:url(#SVGID_19_);enable-background:new    ;}
	.st31{fill:url(#SVGID_20_);}
	.st32{fill:none;stroke:#D6805F;stroke-width:0.5;stroke-linecap:round;stroke-linejoin:round;stroke-miterlimit:10;}
	.st33{opacity:0.43;fill:url(#SVGID_21_);enable-background:new    ;}
	.st34{opacity:0.43;fill:url(#SVGID_22_);enable-background:new    ;}
	.st35{opacity:0.46;fill:url(#SVGID_23_);enable-background:new    ;}
	.st36{opacity:0.65;fill:url(#SVGID_24_);enable-background:new    ;}
	.st37{opacity:0.65;fill:url(#SVGID_25_);enable-background:new    ;}
	.st38{fill:url(#SVGID_26_);}
	.st39{fill:url(#SVGID_27_);}
	.st40{fill:#6E0001;}
	.st41{fill:#E89972;}
	.st42{fill:#DD8C68;}
	.st43{fill:#BD3624;}
	.st44{fill:#FFFFFF;}
	.st45{fill:#DB7556;}
	.st46{fill:#BA3175;}
	.st47{fill:#A01C64;}
	.st48{fill:url(#SVGID_28_);}
	.st49{fill:#C43784;}
	.st50{fill:#FFC2B6;}
	.st51{fill:url(#SVGID_29_);}
	.st52{fill:url(#SVGID_30_);}
	.st53{opacity:0.55;fill:url(#SVGID_31_);enable-background:new    ;}
	.st54{opacity:0.71;fill:url(#SVGID_32_);enable-background:new    ;}
	.st55{fill:#E2946D;}
	.st56{fill:url(#SVGID_33_);}
	.st57{opacity:0.33;fill:url(#SVGID_34_);enable-background:new    ;}
	.st58{fill:url(#SVGID_35_);}
	.st59{fill:url(#SVGID_36_);}
	.st60{fill:#71D3C0;}
	.st61{fill:#DFE8E6;}
	.st62{fill:#99AAA6;}
	.st63{fill:#D6D8E4;}
	.st64{fill:#929AA5;}
	.st65{fill:none;}
	.st66{fill:#767F84;}
	.st67{fill:#548E83;}
	.st68{fill:url(#SVGID_37_);}
	.st69{fill:none;stroke:url(#SVGID_38_);stroke-miterlimit:10;}
	.st70{fill:#D8D8D8;}
	.st71{fill:#AFAFAF;}
	.st72{fill:url(#SVGID_39_);}
	.st73{fill:none;stroke:url(#SVGID_40_);stroke-miterlimit:10;}
	.st74{fill:url(#SVGID_41_);}
	.st75{fill:url(#SVGID_42_);}
	.st76{fill:#E1E1EA;}
	.st77{fill:#9E0481;}
	.st78{fill:#2B3A44;}
	.st79{fill:#B735A4;}
	.st80{fill:url(#SVGID_43_);}
	.st81{fill:url(#SVGID_44_);}
	.st82{fill:url(#SVGID_45_);}
	.st83{fill:#F7C1F0;}
	.st84{fill:url(#SVGID_46_);}
	.st85{fill:url(#SVGID_47_);}
	.st86{fill:url(#SVGID_48_);}
</style>
<g id="woman">
	<g>
		<g id="XMLID_23_">
			<g>
				<g>
					<path class="st0" d="M319.5,67.4c7.4,15.7-4.2,30.1-4.7,37.9c-0.4,7.7,15.9,21.7,2.8,39.5c-12.9,17.7-50.9,8-50.9,8
						s-3.3,10.2-48.8-3c-45.7-13.4-17.5-73.2-17.5-73.2s-10.4-17.5-0.3-44.4c10.3-27,30.9-20.3,30.9-20.3c3.7-2.3,7.2-8.4,21.9-6.3
						C265.1,7.2,290,36.9,290,36.9S309.2,45.5,319.5,67.4z"/>
				</g>
			</g>
			<g>
				<g>
					<path class="st1" d="M254.9,158.2c-7.5,0-19.1-1.7-37.2-7c-11.4-3.4-19.4-9.8-23.6-19.2c-9.6-21.2,2.5-50.2,4.8-55.5
						c-2-3.7-9.2-20.6,0-44.9c9.4-25,27.7-22.4,31.9-21.5c0.4-0.3,0.9-0.7,1.3-1.1c3.4-2.7,8.4-7,21.1-5.2
						c12.1,1.7,35.3,28.3,38.1,31.4c2.7,1.3,20.1,10.3,30,31.2c5.4,11.5,1.2,22.5-2,30.4c-1.3,3.4-2.4,6.2-2.5,8.3
						c-0.1,2,1.2,4.8,2.8,8c3.9,8.2,9.4,19.2-0.2,32.3c-12.4,16.7-44.7,10.4-51.4,8.9C266.6,156.1,263.2,158.2,254.9,158.2z
						 M225.3,12.8c-6.3,0-17,2.8-23.4,19.9c-9.7,25.9,0.1,42.7,0.2,42.9l0.4,0.8l-0.3,0.8c-0.1,0.3-14.8,32.1-5.1,53.5
						c3.8,8.5,11.1,14.4,21.5,17.4c40.6,11.9,46.4,4.8,46.9,4.1l0.3-1.7l1.6,0.7c0.3,0.1,36.9,9.1,49.1-7.5
						c8.4-11.5,3.7-21.2-0.1-29c-1.7-3.7-3.3-6.9-3.2-9.6c0.1-2.6,1.4-5.7,2.7-9.2c3-7.8,6.9-17.5,2.1-27.8
						c-10-21.2-28.5-29.8-28.7-29.8l-0.3-0.1l-0.2-0.3c-7-8-26.9-29.2-36.2-30.6c-11.3-1.6-15.5,1.8-18.6,4.5
						c-0.8,0.7-1.4,1.2-2.2,1.7l-0.7,0.3l-0.8-0.2C230.2,13.4,228.3,12.8,225.3,12.8z M265.6,152.2L265.6,152.2L265.6,152.2z"/>
				</g>
			</g>
		</g>
		<g>
			<g id="XMLID_20_">
				<g>
					<path class="st2" d="M240.6,278.1c1.7,0.9,3.2,1.2,3.2,1.2c5.9,18,32.2,77.7,42.2,100.8c10,23.1,9.2,18.4,11.2,40.4
						c0.9,9.9,3,14.6,6.7,24.1c1.1,2.7,2.1,5.7,3.2,8.5c10.7,3.9,20.8,0.1,24.1-1.8c-3.9-17.7-8.2-36.5-11-44.1
						c-3.2-8.8-6.1-16.9-6.1-16.9c-1.5-6.7-0.7-13.2-3.3-37.7c-6.3-57.5-17.8-93.9-21.5-105.9c-2-6.1-3.6-11.1-5.2-15.9
						c-11.3,7-53.3,20.6-83.4-5c-3.6,5.1-6.5,9.9-7.9,13.2c-6.2,14.8-11.9,17.6,1.5,98.5c2,14.8,5.2,27.9,7.2,37.9
						c3.3,15,7.9,30.3,7.9,30.3s-1,22.1,1.8,51.1c0.1,1.6,0.3,3.6,0.7,5.7c9.1,4,19.5,1,22.7-0.2c0-0.2,0-0.3,0.1-0.5
						c2.2-15.4,3.3-35.2-1.2-46.6c-2.6-6.7-2-12.4-2-12.4S238.6,328.4,240.6,278.1z"/>
					<path class="st3" d="M236,551.4c0.1,5.1-2,6.4-6.1,7.5c-2.4,0.7-4.5,1.4-5.9,2.3c0,0-0.1,0-0.1,0.1c-2.6,1.7-3.8,3.8-4.3,5.5
						c-0.9,2.6-8.7,3.8-18.4,2.7c-9.1-1-3.9-5.7-1.2-7.2c0.8-0.4,1.6-1,2.3-1.5l0,0l0.1-0.1c6.5-5.1,10.5-13.8,14.1-19.2
						c2.1-3,2.9-11.5,3.2-13.7v0.1c0.3,0.1,8,2.9,11.7,0.4c-0.1,2.4-0.2,5.8-0.2,6.4c0,1,0.5,4,1,5.2
						C233.1,541.8,236,550.3,236,551.4z"/>
					<path class="st3" d="M216.4,204.3c-3,4.2-10.2,13.4-15.9,21.7c30.1,25.6,72.3,12,83.4,5c-2.3-6.7-4.8-13.2-8.3-22.2
						c-1.4-3.6-2.2-5.4-1.5-12.9c0.1-6.3-8-9.2-11.2-10.4c-3-1.1-18-3.2-29.7-0.7c-11.6,2.5-13.6,12.1-13.6,12.1
						C219,199.6,218.1,202.2,216.4,204.3z"/>
					<path class="st3" d="M231.7,528.3L231.7,528.3c-3.7,2.5-11.4-0.2-11.7-0.3v-0.1C220.3,528.1,228.1,530.8,231.7,528.3z"/>
					<path class="st3" d="M234.7,462.3c-1.8,14-2.7,53.8-2.9,63.9v0.3c0,0.3,0,0.8-0.1,1.3c0,0.1,0,0.2,0,0.3l0,0l0,0v0.3
						c-3.7,2.4-11.4-0.3-11.7-0.4v-0.1c-0.4-12.1-5.9-46.4-7.9-65.5c7,3.2,14.7,2.1,19.4,0.9C232.7,463,233.9,462.5,234.7,462.3z"/>
					<path class="st3" d="M231.7,528.4L231.7,528.4c0,0,0-0.8,0.1-2C231.7,526.8,231.7,527.8,231.7,528.4z"/>
					<path class="st3" d="M331.1,451.3c-3.3,2-13.5,5.8-24.1,1.8c7.7,20.6,16.3,43.3,20.8,52.5c7.2,14.7,7.1,19.5,7.7,22.7
						c1.6,7.7,15,2.7,14.4,0.7c-0.7-2.1-8.7-31.3-12.6-49.1C335.8,473.1,333.6,462.5,331.1,451.3z"/>
				</g>
			</g>
			<path class="st3" d="M370.1,569.4c-1-2.7-2.9-3.5-5.1-6.9c-2.2-3.5-10.1-16.6-11.1-19.9c-1-3.5-3.9-13.6-3.8-13.7
				c-1-3.7-3-3.8-7-3.8c-3.9,0-7.8,1.7-6.9,4c0.9,2.2,1.3,5.8,1,9.2c-0.2,1.8-2.4,7.1-2.9,8.5c-1.2,2.9-0.8,7.5,2.3,9
				c2.8,1.4,6.4,2.3,7.8,4.2l0,0c0,0.1,0.1,0.2,0.2,0.3c1.3,2.2,2.1,6.4,4.7,9.9c2.5,3.6,11.9,5.2,15.7,4.6
				C370.4,574.2,371,572.1,370.1,569.4z"/>
		</g>
		<g>
			<g id="XMLID_18_">
				
					<linearGradient id="SVGID_1_" gradientUnits="userSpaceOnUse" x1="265.5143" y1="-1256.2283" x2="247.8729" y2="-1037.0471" gradientTransform="matrix(1 0 0 -1 0 -808.675)">
					<stop  offset="0" style="stop-color:#851C73"/>
					<stop  offset="1" style="stop-color:#582978"/>
				</linearGradient>
				<path class="st4" d="M331.1,451.1c-3.3,2-13.5,5.8-24.1,1.8c-1.1-2.8-2.2-5.8-3.2-8.5c-3.7-9.5-5.9-14.1-6.7-24.1
					c-1.8-22.1-1.1-17.4-11.2-40.4c-10-23.1-36.3-82.6-42.2-100.8c0,0-1.5-0.2-3.2-1.2c-2,50.1-9,124.6-9,124.6s-0.7,5.8,2,12.4
					c4.6,11.4,3.3,31.1,1.2,46.6c0,0.2,0,0.3-0.1,0.5c-3.3,1.2-13.7,4.3-22.7,0.3c-0.2-2.1-0.4-4-0.7-5.7
					c-2.8-28.9-1.8-51.1-1.8-51.1s-4.6-15.2-7.8-30.3c-1.8-9.8-5.2-23.1-7.2-37.9c-13.4-80.9-7.7-83.6-1.5-98.5
					c1.3-3.2,4.5-8,7.9-13.3c30.1,25.6,72.3,12,83.4,5c1.6,4.9,3.3,9.7,5.2,15.9c3.8,11.9,15.2,48.4,21.5,105.9
					c2.6,24.6,1.8,31,3.3,37.7c0,0,2.8,7.8,6.1,16.9C323,414.6,327.3,433.5,331.1,451.1z"/>
			</g>
		</g>
		<g class="st5">
			<g id="XMLID_17_">
				
					<linearGradient id="SVGID_2_" gradientUnits="userSpaceOnUse" x1="220.8315" y1="-1376.028" x2="214.4568" y2="-1238.7242" gradientTransform="matrix(1 0 0 -1 0 -808.675)">
					<stop  offset="0" style="stop-color:#E68D6C"/>
					<stop  offset="1" style="stop-color:#F8AD84;stop-opacity:0"/>
				</linearGradient>
				<path class="st6" d="M235.1,547.2c-0.7,2-2.6,6.7-8.9,10.7c-1.2,0.8-2.4,1.6-3.7,2.5c-2.5,1.8-5,3.7-6.9,3.7
					c-2.6,0-9.9-0.2-13.4-3c6.6-5.1,10.8-13.9,14.2-19.2c2.1-3,2.9-11.6,3.2-13.7l0,0c-0.4-12-5.9-46.4-8-65.5
					c9.1,4,19.5,1,22.7-0.2c-2.1,16.1-2.9,66.2-2.9,66.2l0,0c-0.1,2.4-0.2,5.9-0.2,6.4c0,1,0.5,4,1,5.2
					C233.1,541.8,234.2,544.9,235.1,547.2z"/>
			</g>
			<g id="XMLID_16_">
				
					<linearGradient id="SVGID_3_" gradientUnits="userSpaceOnUse" x1="338.5715" y1="-1370.7324" x2="332.1868" y2="-1233.2174" gradientTransform="matrix(1 0 0 -1 0 -808.675)">
					<stop  offset="0" style="stop-color:#E68D6C"/>
					<stop  offset="1" style="stop-color:#F8AD84;stop-opacity:0"/>
				</linearGradient>
				<path class="st7" d="M365,562.7c-1.4,4.5-11.5,3.9-14.9,1.4c-0.9-0.7-1.8-2-3.8-4.2c-1.1-1.2-2.5-2.7-4.3-4.7
					c-4.8-4.8-6-12.2-6-12.2c0.5-1.3,1-2.7,1.2-4.7c0.3-3,0-6-0.7-8.2c-0.4-0.5-0.7-1.2-0.9-2c-0.7-3.3-0.5-8-7.7-22.7
					c-4.5-9.1-13-31.9-20.8-52.5c10.7,3.9,20.8,0.1,24.1-1.8c2.4,11.2,4.7,21.7,6.2,28.6c3.8,17.4,11.4,45,12.5,48.8
					c0,0.1,0.1,0.2,0.1,0.3c0,0,2.8,10.2,3.9,13.5C354.8,545.9,362.8,559.3,365,562.7z"/>
			</g>
		</g>
		
			<linearGradient id="SVGID_4_" gradientUnits="userSpaceOnUse" x1="205.9438" y1="-1222.725" x2="232.4304" y2="-1222.725" gradientTransform="matrix(1 0 0 -1 0 -808.675)">
			<stop  offset="0" style="stop-color:#571B57"/>
			<stop  offset="1" style="stop-color:#701862;stop-opacity:0"/>
		</linearGradient>
		<path class="st8" d="M232.4,389.3c0,0-2.4,13.4-5.2,18.6c-2.7,5.3-13.6,10.8-18.7-9c0,0-3-9.7-2.5-4.5c0.2,1.7,3.2,11.4,3.2,11.5
			c0,3.2-0.1,7.8-0.1,8.4c-0.2,4.1,0.7,24.6,0.7,24.6s16.5-5.5,19.9-13.4c1.7-4.2,3.3-8.7,2.2-16.1
			C230.9,403.3,232.4,389.3,232.4,389.3z"/>
		
			<linearGradient id="SVGID_5_" gradientUnits="userSpaceOnUse" x1="249.6788" y1="-1081.2159" x2="248.966" y2="-1151.4252" gradientTransform="matrix(1 0 0 -1 0 -808.675)">
			<stop  offset="0" style="stop-color:#4D2469"/>
			<stop  offset="1" style="stop-color:#701862;stop-opacity:0"/>
		</linearGradient>
		<path class="st9" d="M233.8,358.1c0,0-1.1-41.1-4.5-64.4c-1.7-11.9-11.5-32.8-8.5-32.8s12.6,12.4,20.9,12.4s17.1-8,20.7-8
			c3.7,0-1.4,12,12.1,53.4c9.1,28.2,0,34.7,0,34.7s-19.9-46.3-21.4-50.1s-9.1-23.8-9.1-23.8l-3.2-1.2
			C240.6,278.1,238.4,335.4,233.8,358.1z"/>
		<g id="XMLID_15_">
			<g>
				<path class="st10" d="M283.9,230.8l1.2,3.5c0,0-24.6,10.3-48.3,8.2c-23.7-2.2-38.5-13.2-38.5-13.2l2.3-3.2
					c0,0,16.1,10.8,36.5,12.9C257.6,241.3,283.9,230.8,283.9,230.8z"/>
			</g>
		</g>
		<g id="XMLID_14_">
			<g>
				<path class="st10" d="M235.1,458.1l-0.5,4.9c0,0-11.3,5.2-22.6,0.3l-0.5-4.2C211.4,459.3,225.5,463.8,235.1,458.1z"/>
			</g>
		</g>
		<g id="XMLID_13_">
			<g>
				<path class="st10" d="M330.5,448.1l1.1,4.8c0,0-10.9,6.5-23.7,2.3l-1.9-5.3C306.5,450.1,320.3,454.3,330.5,448.1z"/>
			</g>
		</g>
		<g>
			
				<linearGradient id="SVGID_6_" gradientUnits="userSpaceOnUse" x1="288.2927" y1="-1215.9347" x2="323.6073" y2="-1215.9347" gradientTransform="matrix(1 0 0 -1 0 -808.675)">
				<stop  offset="0" style="stop-color:#571B57"/>
				<stop  offset="1" style="stop-color:#701862;stop-opacity:0"/>
			</linearGradient>
			<path class="st11" d="M314.8,391.6c0,0,1.8,5.3-1.7,7.7c-3.7,2.4-11.1-2.5-15.1-8.2c-4.1-5.7-8.9-7.3-9.7-6.5
				c-0.2,0.2,3.8,7.8,6,14.9c4.2,13.3,2.5,19.7,5.7,25.4c4.1,7.5,14.4,5.2,17.6,4.1C328.9,425.4,322.1,411,314.8,391.6z"/>
		</g>
		<g id="XMLID_10_">
			<g>
				<path class="st3" d="M279.1,105c4.6,1.7,5.3,8.7,3.2,19.7c-2.2,11-0.3,14.1-0.3,14.1l-0.8,35.4c0,0-5,13.9-6.4,22.5
					c-1.5,8.6,0.2,9.5,2.7,16.2c2.5,6.6,5.7,15.2,5.7,15.2s-52.5,22.6-80.4-5.2c0,0,9.6-13.3,13.7-18.7c3.6-4.8,2.5-10.2,2.4-12.8
					c-0.5-11.3-0.9-16.6-0.9-16.6s-0.7-1.1-1.6-5.2c-1.3-5.3-2.2-19.7-2.2-19.7l-4.2-5.4c0,0-13.2-12.9-3.9-27.9
					c0,0,20.4-7.2,22.9-8.8c2.5-1.6,2.8-3.9,2.8-6.7s-0.3-14.2-0.3-14.2s-0.8-6.3,5-7.8s13-0.3,13.8,2.1s1.8,14.2,2.1,18
					c0.2,3.9,0.7,5.1,4.8,6.1C261.2,106.3,274.4,103.1,279.1,105z"/>
			</g>
		</g>
		<path class="st3" d="M189.6,190.8c0,0,4-19.2,4-32.2c0-12.9,3.5-38.1,12.2-42c6.2-2.7,15.2-5.5,15.2-5.5s12,11.7,5.8,21.7
			s-12.2,16.9-12.2,16.9s-7.5,34.1-11.5,42.4C199,200.4,189.6,199.6,189.6,190.8z"/>
		
			<linearGradient id="SVGID_7_" gradientUnits="userSpaceOnUse" x1="201.1208" y1="-992.8884" x2="214.2094" y2="-931.6607" gradientTransform="matrix(1 0 0 -1 0 -808.675)">
			<stop  offset="0" style="stop-color:#D48864"/>
			<stop  offset="1" style="stop-color:#F8AD84;stop-opacity:0"/>
		</linearGradient>
		<path class="st12" d="M189.6,190.8c0,0,4-19.2,4-32.2c0-12.9,3.5-38.1,12.2-42c6.2-2.7,15.2-5.5,15.2-5.5s12,11.7,5.8,21.7
			s-12.2,16.9-12.2,16.9s-7.5,34.1-11.5,42.4C199,200.4,189.6,199.6,189.6,190.8z"/>
		<g id="XMLID_9_">
			<g>
				<path class="st3" d="M190.7,285.1l-0.3-1.2c0-0.1,0-0.1-0.1-0.2c-0.3-1.2-0.5-2.5-0.9-4.3c-1.1-5-0.5-8.5-1.8-9.6
					c-0.7-0.5-1.8,0.4-2.7,2l0,0l0,0c-0.3,0.5-2.7,4.5-2.7,7c0,2.7,1.4,2.8,3.7,4.2c2.3,1.4,2.6,2.5,3.6,2.2c0.9-0.3,1.7,0,1.7,0
					L190.7,285.1L190.7,285.1z M194.8,282.1c0.2,1.5,0.2,3.3,0,4.5c-0.2,1-0.7,1.6-1.5,1.3c-0.5-0.1-0.9-0.3-1.3-0.7l-3.7,0.7
					c-2.2,0.1-8.6-1.5-11-4.8c-2.3-3.2-1.6-3.7-1-13.2s4.2-15.7,4.2-15.7s1-26.7,2.9-45.4s7.1-23.4,7.1-23.4
					c5.8-4,12.5-1.5,13.2,0.9c0.7,2.5,0.3,17-4.7,30.3c-5.2,14.1-12.1,38.1-12.1,38.1s3.3,4.3,5.1,8c1.7,3.7,1.8,13.6,2,15.4
					C194.5,279.1,194.7,280.6,194.8,282.1z"/>
				<path class="st13" d="M196.3,281.1c0.8-0.1,1.3,1.5,0.5,2.5c-0.9,1-2,2.5-2,2.5l0,0c0.2-1.1,0-2.8-0.1-4.5
					C195,281.5,195.8,281.1,196.3,281.1z"/>
				<path class="st13" d="M190.7,285.1v0.1c0,0-0.9-0.3-1.7,0c-0.9,0.3-1.3-0.9-3.6-2.2c-2.2-1.3-3.7-1.5-3.7-4.2
					c0-2.5,2.4-6.4,2.7-7c-0.8,1.3-1.3,3-1.2,4.7c0.2,2.9,6,6.1,6.9,7.2C190.3,284.1,190.4,284.6,190.7,285.1z"/>
			</g>
		</g>
		<g id="XMLID_8_" class="st14">
			<g>
				
					<linearGradient id="SVGID_8_" gradientUnits="userSpaceOnUse" x1="198.1376" y1="-995.6513" x2="183.0526" y2="-1095.0354" gradientTransform="matrix(1 0 0 -1 0 -808.675)">
					<stop  offset="0" style="stop-color:#D48864"/>
					<stop  offset="1" style="stop-color:#F8AD84;stop-opacity:0"/>
				</linearGradient>
				<path class="st15" d="M192.1,287.3l-3.7,0.7c-2.2,0.1-8.6-1.5-11-4.8c-2.3-3.2-1.6-3.7-1-13.2c0.7-9.5,4.2-15.7,4.2-15.7
					s1-26.7,2.9-45.4s7.1-23.4,7.1-23.4c5.8-4,12.5-1.5,13.2,0.9c0.7,2.5,0.3,17-4.7,30.3c-5.2,14.1-12.1,38.1-12.1,38.1
					s3.3,4.3,5.1,8c1.7,3.7,1.8,13.6,2,15.4c0,0.7,0.3,2.1,0.4,3.7c0.2,1.5,0.2,3.3,0,4.5c-0.2,1-0.7,1.6-1.5,1.3
					C192.8,287.6,192.4,287.5,192.1,287.3z M190.6,285.1c-0.5-1.4-0.8-3.3-1.3-5.8c-1.1-5-0.5-8.5-1.8-9.6c-0.7-0.5-1.8,0.4-2.7,2
					l0,0l0,0c-0.3,0.5-2.7,4.5-2.7,7c0,2.7,1.4,2.8,3.7,4.2c2.2,1.3,2.6,2.5,3.6,2.2C189.7,284.9,190.6,285.1,190.6,285.1
					L190.6,285.1L190.6,285.1z"/>
				
					<linearGradient id="SVGID_9_" gradientUnits="userSpaceOnUse" x1="210.2169" y1="-997.158" x2="195.1358" y2="-1096.5155" gradientTransform="matrix(1 0 0 -1 0 -808.675)">
					<stop  offset="0" style="stop-color:#D48864"/>
					<stop  offset="1" style="stop-color:#F8AD84;stop-opacity:0"/>
				</linearGradient>
				<path class="st16" d="M196.3,281.1c0.8-0.1,1.3,1.5,0.5,2.5c-0.9,1-2,2.5-2,2.5l0,0c0.2-1.1,0.1-2.8,0-4.5
					C195.1,281.5,195.8,281.1,196.3,281.1z"/>
			</g>
		</g>
		<path class="st3" d="M322.2,134.8c0,0-12.4-12-20-17.2c-3.9-2.6-14.2-9.7-21.9-12.3c-3-1-5-2.1-7.1-2.3c-3.2-0.3-6.4,0.9-9.9,2.3
			c0,0-9.1,15.1-2.1,22.9c7.1,7.8,12.5,12.9,15.9,11.5c3.6-1.4,5-3.5,5-3.5s-1.2-6.1,0.1-7.4c2.3-2.3,5.7,0.5,10.4,3.3
			c3.2,1.8,22.1,16.3,33.2,20.9c10.5,4.3,11.2,1.3,12.2-0.5C339,150.7,336.8,143.6,322.2,134.8z"/>
		
			<linearGradient id="SVGID_10_" gradientUnits="userSpaceOnUse" x1="297.0897" y1="-913.1866" x2="301.7483" y2="-943.3568" gradientTransform="matrix(1 0 0 -1 0 -808.675)">
			<stop  offset="0" style="stop-color:#D48864"/>
			<stop  offset="1" style="stop-color:#F8AD84;stop-opacity:0"/>
		</linearGradient>
		<path class="st17" d="M322.2,134.8c0,0-12.4-12-20-17.2c-3.9-2.6-14.2-9.7-21.9-12.3c-3-1-5-2.1-7.1-2.3c-3.2-0.3-6.4,0.9-9.9,2.3
			c0,0,4.6,14,11.6,21.9c7.1,7.8,6,3,7.3,1.7c2.3-2.3,5.7,0.5,10.4,3.3c3.2,1.8,22.1,16.3,33.2,20.9c10.5,4.3,11.2,1.3,12.2-0.5
			C339,150.7,336.8,143.6,322.2,134.8z"/>
		<g id="XMLID_7_">
			<g>
				<path class="st3" d="M309.4,91.2c0.5-0.5,1.2-1.5,5,0.2c4,1.7,4.7,6.3,4.7,6.3s5.9,9.8,10.2,17.8c6,11,10,21.4,9.9,29.8
					c-0.1,8.4-2.5,9.9-6.4,9.8c-5.4-0.2-6.4-8.5-9.6-17.8c-3.2-9.5-5.8-33.5-12.1-36.1c-2.5-1.1-8.3-2.8-12.3-4.1
					c-0.3-0.5-0.8-1.2-1.1-1.8c-0.4-0.9-0.9-1.6-1.2-2.1c-0.8-1-4.1-3.9-4.8-4.8c-0.7-0.8,0.1-2.7-1-4.5c-1.5-2.4-1.3-4.8,1.5-3.7
					c2.8,1.1,4.5,6.3,4.5,6.3l1.5,1.2c0,0,4.9,1.8,8,2.2C307.7,90.4,308.6,90.8,309.4,91.2z"/>
				<path class="st3" d="M297.8,95.4c0.3,0.7,0.7,1.3,1.1,1.8c-2.3-0.7-4-1.2-4-1.2L297.8,95.4z"/>
			</g>
		</g>
		<g id="XMLID_6_" class="st14">
			<g>
				
					<linearGradient id="SVGID_11_" gradientUnits="userSpaceOnUse" x1="312.1714" y1="-912.0247" x2="326.1475" y2="-959.7201" gradientTransform="matrix(1 0 0 -1 0 -808.675)">
					<stop  offset="0" style="stop-color:#D48864"/>
					<stop  offset="1" style="stop-color:#F8AD84;stop-opacity:0"/>
				</linearGradient>
				<path class="st18" d="M297.8,95.4c-0.4-0.9-0.9-1.6-1.2-2.1c-0.8-1-4.1-3.9-4.8-4.8c-0.7-0.8,0.1-2.7-1-4.5
					c-1.5-2.4-1.3-4.8,1.5-3.7c2.8,1.1,4.5,6.3,4.5,6.3l1.5,1.2c0,0,4.9,1.8,8,2.2c1.1,0.1,2.1,0.5,2.9,1c0.5-0.5,1.2-1.5,5,0.2
					c4,1.7,4.7,6.3,4.7,6.3s5.9,9.8,10.2,17.8c6,11,10,21.4,9.9,29.8c-0.1,8.4-2.5,9.9-6.4,9.8c-5.4-0.2-6.4-8.5-9.6-17.8
					c-3.2-9.5-5.8-33.5-12.1-36.1c-2.5-1.1-8.3-2.8-12.3-4.1C298.5,96.7,298.1,96,297.8,95.4z"/>
				
					<linearGradient id="SVGID_12_" gradientUnits="userSpaceOnUse" x1="299.9425" y1="-915.6081" x2="313.9185" y2="-963.3035" gradientTransform="matrix(1 0 0 -1 0 -808.675)">
					<stop  offset="0" style="stop-color:#D48864"/>
					<stop  offset="1" style="stop-color:#F8AD84;stop-opacity:0"/>
				</linearGradient>
				<path class="st19" d="M297.8,95.4c0.3,0.7,0.7,1.3,1.1,1.8c-2.3-0.7-4-1.2-4-1.2L297.8,95.4z"/>
			</g>
		</g>
		<g id="XMLID_5_">
			<g>
				
					<linearGradient id="SVGID_13_" gradientUnits="userSpaceOnUse" x1="315.9979" y1="-890.9892" x2="368.1635" y2="-897.1906" gradientTransform="matrix(1 0 0 -1 0 -808.675)">
					<stop  offset="6.216216e-02" style="stop-color:#429B9B"/>
					<stop  offset="1" style="stop-color:#59BAC2"/>
				</linearGradient>
				<path class="st20" d="M363.5,83.3c0.3,2,1.2,4.3,4.6,5.8c0,0-20.2,8.2-49.7,3.2l-3.5-0.7c3-0.8,6.4-1.6,9.7-2.5
					c6.6-1.7,13.3-3.6,18.7-5c6.7-1.7,19.5-5.4,20.9-5.8C363.8,80.4,363.2,81.9,363.5,83.3z"/>
				<path class="st21" d="M364.6,75.6c-0.1,1.1-0.3,2-0.4,2.8c-1.4,0.4-14.1,4-20.9,5.8c-5.4,1.4-12.2,3.2-18.7,5v-0.8l36.8-11.7
					c0.2,0,0.4-0.1,0.7-0.2c2.6-1.3-0.8-14.2-5.4-16.5c-0.3-0.1-0.5-0.2-0.8-0.2s-0.3,0-0.4,0.2l-2.5,0.9c0.1-0.1,1-2.1,2.4-2.2
					c1.5,0,3.9,1,6.3,5C363.4,66.7,364.5,72,364.6,75.6z"/>
				<path class="st22" d="M364,67.8c0.7,3.2,0.8,5.7,0.5,7.6c0-3.7-1.2-8.9-2.9-12.1c-2.4-3.5-4.3-5-6.1-4.9c-1.5,0-2.5,2.1-2.5,2.3
					l-0.2-0.2l-0.2,0.1c-0.1-3,1.2-4,1.3-4.1l0,0C356.7,55.7,362.5,60.7,364,67.8z"/>
				
					<linearGradient id="SVGID_14_" gradientUnits="userSpaceOnUse" x1="354.2797" y1="-876.4668" x2="363.7079" y2="-877.5875" gradientTransform="matrix(1 0 0 -1 0 -808.675)">
					<stop  offset="6.216216e-02" style="stop-color:#429B9B"/>
					<stop  offset="1" style="stop-color:#59BAC2"/>
				</linearGradient>
				<path class="st23" d="M361.5,76.7c-1.3,0.3-2.6-0.4-4.1-2.5l0.8-0.3c1.3,0.9,3.7,1,3.6-1.2c-0.1-2.4-3.5-8.7-4.8-10
					c-1-1-1.2-0.1-1.3,0.4c-0.4-1.5-0.5-2.7-0.1-3l0.4-0.2c0.2,0,0.4,0.1,0.8,0.2c4.7,2.3,8,15.2,5.4,16.5
					C361.9,76.5,361.7,76.7,361.5,76.7z"/>
				<path class="st21" d="M352.7,60.8c0,1.4,0.4,3.3,1.3,5.9c1.2,3.5,2.3,5.9,3.5,7.5l0,0c1.4,2.1,2.7,2.8,4.1,2.5l-36.9,11.6v0.8
					c-3.3,0.9-6.6,1.7-9.7,2.5c-9.4,2.4-16.6,4.3-16.6,4.3s-13.2,2.3-21.6,5c-8.5,2.6-54.3,13.9-54.3,13.9s-5.4-5.4-5-12.3
					c0.4-7.4,1.6-7.1,7.2-8.5c5.5-1.4,64.6-16,69.9-17.4s56.2-18.7,59.7-20C353.9,56.8,352.6,57.6,352.7,60.8z"/>
				<path class="st21" d="M361.7,72.6c0.1,2.2-2.2,2.2-3.7,1.3l2.2-0.9c-0.8-0.1-3.9-6.1-4.9-10c0.1-0.5,0.4-1.5,1.5-0.7
					C358.4,63.8,361.6,70.2,361.7,72.6z"/>
				
					<linearGradient id="SVGID_15_" gradientUnits="userSpaceOnUse" x1="351.9727" y1="-875.1165" x2="361.0474" y2="-876.1953" gradientTransform="matrix(1 0 0 -1 0 -808.675)">
					<stop  offset="6.216216e-02" style="stop-color:#429B9B"/>
					<stop  offset="1" style="stop-color:#59BAC2"/>
				</linearGradient>
				<path class="st24" d="M358.1,73.9l-0.8,0.3l0,0c-1.1-1.6-2.2-4.1-3.5-7.5c-0.9-2.5-1.2-4.5-1.3-5.9l0.2-0.1l0,0l2.5-0.9
					c-0.4,0.4-0.3,1.6,0.1,3c1.1,3.9,4.1,9.9,4.9,10L358.1,73.9z"/>
			</g>
		</g>
		
			<linearGradient id="SVGID_16_" gradientUnits="userSpaceOnUse" x1="357.1731" y1="-877.5223" x2="360.4453" y2="-876.1635" gradientTransform="matrix(1 0 0 -1 0 -808.675)">
			<stop  offset="1.351351e-02" style="stop-color:#246366"/>
			<stop  offset="1" style="stop-color:#59BAC2;stop-opacity:0"/>
		</linearGradient>
		<path class="st25" d="M360.4,73.1c-0.8-0.1-3.9-6.1-4.9-9.9c0.1-0.5,0.3-1.4,1.3-0.4c1.4,1.3,4.7,7.6,4.8,10
			c0.1,2.2-2.1,2.1-3.6,1.2L360.4,73.1z"/>
		
			<linearGradient id="SVGID_17_" gradientUnits="userSpaceOnUse" x1="421.9299" y1="-670.1042" x2="414.3065" y2="-653.251" gradientTransform="matrix(0.993 0.118 0.118 -0.993 -49.0844 -617.7089)">
			<stop  offset="1.351351e-02" style="stop-color:#348C8C"/>
			<stop  offset="1" style="stop-color:#59BAC2;stop-opacity:0"/>
		</linearGradient>
		<path class="st26" d="M222.2,115.3l102.3-25.6l35.7-12.6c0,0-2.5-1.2-4.5-5.8c-1.8-4.7-2.6-7.2-2.6-7.2s-87.2,27-102.3,29.7
			c-14.9,2.5-32.7,7.1-32.7,7.1S215.7,107,222.2,115.3z"/>
		<path class="st3" d="M309.4,93.3c0,0-1.8-2.2-4.7-2.5c-2.7-0.3-7.1-1.8-7.1-1.8l-1.3-1.1c0,0-1.3-4.6-3.9-5.5s-2.7,1-1.3,3.2
			c1,1.4,0.3,3,0.9,3.9c0.5,0.8,3.5,3.2,4.2,4.1s2.6,3.8,3.7,4.2C299.9,97.4,312.3,99.1,309.4,93.3z"/>
		
			<linearGradient id="SVGID_18_" gradientUnits="userSpaceOnUse" x1="300.3516" y1="-897.3245" x2="296.4139" y2="-902.8149" gradientTransform="matrix(1 0 0 -1 0 -808.675)">
			<stop  offset="0" style="stop-color:#C47958"/>
			<stop  offset="1" style="stop-color:#F8AD84;stop-opacity:0"/>
		</linearGradient>
		<path class="st27" d="M309.4,93.3c0,0-1.8-2.2-4.7-2.5c-2.7-0.3-7.1-1.8-7.1-1.8l-1.3-1.1c0,0-1.3-4.6-3.9-5.5s-2.7,1-1.3,3.2
			c1,1.4,0.3,3,0.9,3.9c0.5,0.8,3.5,3.2,4.2,4.1s2.6,3.8,3.7,4.2C299.9,97.4,312.3,99.1,309.4,93.3z"/>
		<path class="st28" d="M368,88.9c0,0-3-1.5-4-4.2c-0.8-2.7,0-5.7,0-5.7s1.2-3.6,0.8-7c-0.3-3.5-1.1-8.4-4.9-12.5
			c-3.3-3.8-5.4-3.5-6.2-2.7c-0.8,0.7-2.3,3.8,0.3,10.4c2.6,6.6,3.5,7.7,4.6,8.6c1,0.9,2.4,1.2,3.7,0.5c1.2-0.7,0.8-3.9,0.4-6.2
			c-0.4-2.3-2.9-8.9-5.3-10c-2.1-1-2.2,0.3-2.2,0.4c-0.1,2.1,0.8,5.2,3.2,9.6c2.7,5.2,2,1.3,2,1.3"/>
		<path class="st29" d="M247.2,222.9c0,0-1.1,0.8-0.8,2.1c0.2,1.3,2,3.7,0.8,4.3c-1.1,0.7-2.4,0.4-2.8-0.2
			C243.8,228.4,244.8,224.4,247.2,222.9z"/>
		
			<linearGradient id="SVGID_19_" gradientUnits="userSpaceOnUse" x1="212.2495" y1="-1017.1677" x2="227.468" y2="-1025.7808" gradientTransform="matrix(1 0 0 -1 0 -808.675)">
			<stop  offset="0" style="stop-color:#D48864"/>
			<stop  offset="1" style="stop-color:#F8AD84;stop-opacity:0"/>
		</linearGradient>
		<path class="st30" d="M200.4,226.3l7.4,4.1c0,0,4-9.4,11.6-13.5c6.5-3.5,8.5-12.6,10.8-13.4c2.2-0.9,7-5.3,7-5.3s-9-0.5-18-3
			c0,0,0.3,2.8-0.4,5.3c-1.1,3.3-3.5,5.8-4.9,7.6C212.4,209.9,202.5,223.2,200.4,226.3z"/>
		
			<linearGradient id="SVGID_20_" gradientUnits="userSpaceOnUse" x1="279.0221" y1="-1019.7908" x2="267.9412" y2="-1024.522" gradientTransform="matrix(1 0 0 -1 0 -808.675)">
			<stop  offset="0" style="stop-color:#D48864"/>
			<stop  offset="1" style="stop-color:#F8AD84;stop-opacity:0"/>
		</linearGradient>
		<path class="st31" d="M275,194.4c0,0-9.9,2.6-12.8,2.6c-2.8,0-6.3,4.2-1.1,6.4c5.2,2.2,11.5,14.1,12.8,16.9c1.3,2.6,0,8.2-1.6,9.8
			c-2.4,2.4-16.2,5.2-19.4,5.8c0,0,13-0.9,19.2-2.3c7.3-1.6,11.6-2.8,11.6-2.8s-4.7-12.8-5.2-14c-0.3-0.8-3.8-9.6-4.1-10.8
			C274.1,204.7,273.6,201,275,194.4z"/>
		<path class="st32" d="M246.5,223.3c0,0-4.7,5.3-1.4,6.2s1.8-4.1,1-2.8s-0.7,1.7-0.7,1.7"/>
		
			<linearGradient id="SVGID_21_" gradientUnits="userSpaceOnUse" x1="259.9544" y1="-1026.5879" x2="277.6086" y2="-1025.9834" gradientTransform="matrix(1 0 0 -1 0 -808.675)">
			<stop  offset="0" style="stop-color:#E68D6C"/>
			<stop  offset="1" style="stop-color:#F8AD84;stop-opacity:0"/>
		</linearGradient>
		<path class="st33" d="M262.6,198c0,0-4.5,10.2-3.7,14.9c0.8,4.8,0.7,10.9,0.7,14.6c0,4.9-2.5,10.8-2.5,10.8s6.7-1.3,12.6-2.7
			c5.7-1.4-2.5-2.5-2.2-8c0.4-7.8-3.8-17.6-3.8-21.5c0-4,1.3-7.9,5.7-8.7L262.6,198z"/>
		
			<linearGradient id="SVGID_22_" gradientUnits="userSpaceOnUse" x1="233.6596" y1="-1029.3016" x2="217.8574" y2="-1023.9645" gradientTransform="matrix(1 0 0 -1 0 -808.675)">
			<stop  offset="0" style="stop-color:#E68D6C"/>
			<stop  offset="1" style="stop-color:#F8AD84;stop-opacity:0"/>
		</linearGradient>
		<path class="st34" d="M235.2,212c0,0-3.6,11.1-3.6,14.2c0,8.3,2.2,12.4,2.2,12.4s-9.5-1.4-14.9-3.7c0,0-1.4-1.1,0-1.4
			s3.9-1.1,4.8-3.6c0.9-2.4,3.5-6.3,4.6-8.7s4.5-8.2,4-11.7c-0.4-3.6-1.8-7.3-0.9-8.7C232.3,199.6,235.8,209.4,235.2,212z"/>
		
			<linearGradient id="SVGID_23_" gradientUnits="userSpaceOnUse" x1="245.8872" y1="-1046.8329" x2="245.5141" y2="-1036.9113" gradientTransform="matrix(1 0 0 -1 0 -808.675)">
			<stop  offset="0" style="stop-color:#E68D6C"/>
			<stop  offset="1" style="stop-color:#F8AD84;stop-opacity:0"/>
		</linearGradient>
		<path class="st35" d="M232.4,230.5c0,0,2.3,3.2,6.6,1.6c4.3-1.5,5.4-2.1,7.4-1.6s4.5,3.7,7.3,4s5.2-1.2,5.2-1.2s-0.7,4-2.5,5
			c-1.8,1-18.7,2.1-21.9,0.4C232.7,237.6,232.4,230.5,232.4,230.5z"/>
		<path class="st3" d="M239.2,137.3c19.6-1.2,27.2-19.2,29.8-32.6c-5,0.4-9.5,1.1-11.9,0.5c-4-1.1-4.5-2.3-4.8-6.1
			c-0.2-3.9-1.4-15.5-2.1-18c-0.8-2.4-7.9-3.8-13.8-2.1c-5.8,1.5-5,7.8-5,7.8s0.2,11.2,0.2,14.1c0,2.8-0.2,5.1-2.8,6.7
			c-1.8,1.2-12.8,5.2-18.9,7.4C213.5,124,222,138.3,239.2,137.3z"/>
		
			<linearGradient id="SVGID_24_" gradientUnits="userSpaceOnUse" x1="-277.807" y1="-1267.2123" x2="-273.6976" y2="-1259.6782" gradientTransform="matrix(1.1438 -0.182 -0.1769 -0.985 321.9861 -1175.4675)">
			<stop  offset="0" style="stop-color:#E89166"/>
			<stop  offset="1" style="stop-color:#F8AD84;stop-opacity:0"/>
		</linearGradient>
		<path class="st36" d="M221.6,122c0,0,5.8,1.5,16.2,2.1c7.4,0.4,2.2-2.9-0.7-3.3c-3.7-0.3-11.1-3.6-16.1-5c-1.8-0.5-3.9,1-3.5,3
			C217.6,119.5,218.7,121.1,221.6,122z"/>
		
			<linearGradient id="SVGID_25_" gradientUnits="userSpaceOnUse" x1="-4430.0757" y1="-1081.6631" x2="-4425.792" y2="-1073.8096" gradientTransform="matrix(-0.9021 9.830704e-02 -0.1214 -0.9922 -3866.3198 -518.9869)">
			<stop  offset="0" style="stop-color:#E89166"/>
			<stop  offset="1" style="stop-color:#F8AD84;stop-opacity:0"/>
		</linearGradient>
		<path class="st37" d="M266.1,115.5c0,0-3,4.1-11.6,6.6c-5.7,1.6-2.4-2.3-0.3-3.3c2.6-1.2,7.5-6.7,11-9.2c1.3-1,3,0.1,3.3,2.1
			C268.5,112.1,267.7,113.4,266.1,115.5z"/>
		
			<linearGradient id="SVGID_26_" gradientUnits="userSpaceOnUse" x1="250.9193" y1="-958.4578" x2="250.7637" y2="-945.2445" gradientTransform="matrix(1 0 0 -1 0 -808.675)">
			<stop  offset="0" style="stop-color:#C7754E"/>
			<stop  offset="1" style="stop-color:#F8AD84;stop-opacity:0"/>
		</linearGradient>
		<path class="st38" d="M226.3,141.4c0,0,7.6,1.3,12.8,3c1.8,0.7,5.7,1.6,8.4,2.9c4.1,1.8,7.5,3.6,7.5,3.6s5.5-5.1,10.4-7.9
			c4.2-2.4,9.9-5,9.9-5l-0.2-2.2c0,0-12.8,5.2-14,6.3c-5.5,5.2-5.4-6-9.2-4.2c-4.5,2.2,1.5,9.4-8.3,4.5
			C236.1,138.6,226.3,141.4,226.3,141.4z"/>
		
			<linearGradient id="SVGID_27_" gradientUnits="userSpaceOnUse" x1="241.1306" y1="-896.6544" x2="243.0692" y2="-915.6533" gradientTransform="matrix(1 0 0 -1 0 -808.675)">
			<stop  offset="0" style="stop-color:#C47958"/>
			<stop  offset="1" style="stop-color:#F8AD84;stop-opacity:0"/>
		</linearGradient>
		<path class="st39" d="M251.1,83.3c0,0-3.8,2.8-7,3.6c-3.2,0.5-5.4,0.2-7.2-0.5c-2.9-1.2-5.8-3.2-5.8-3.2l0.3,11.9
			c0,0,3.2,6.6,12.1,7.1c6.7,0.3,8.3-7.4,8.3-7.4S250.9,84.8,251.1,83.3z"/>
		<path class="st3" d="M214.8,46.9c0,0-2.1-3.5-5-1.2s-0.9,9.6,1.7,12.5c2.6,2.8,4.7,4.5,4.7,4.5s1,14.7,9.7,20.3
			c8.6,5.7,10.8,6.1,15.1,6.5c4.5,0.4,12.6-5.9,15.1-8.7c2.5-2.8,7.3-9.5,7.7-15.8c0.4-6.3-2.3-26.7-2.6-28.4
			c-0.3-1.6-23.3-18-32.5-11.5C219.6,31.8,214.5,41.4,214.8,46.9z"/>
		<path class="st40" d="M221.6,48.7c-0.2,0.2,2-4.8,6.1-5.8c3.5-0.8,5.1,0.4,5.1,1.1c0,0.7,0.2,1.5-1.4,1.3s-2.9-0.3-4.5-0.1
			C224.6,45.9,222.4,48,221.6,48.7z"/>
		<path class="st40" d="M222.1,53.8c0,0,2.1-3.3,5-3.8c2.8-0.4,5.7,1.5,6.3,2.2c0.7,0.7-3.5-0.8-5.9-0.3
			C225,52.4,221.5,54.6,222.1,53.8z"/>
		<path class="st40" d="M225.8,51.6c0,0-0.9,4.2,1,5.4c1.8,1.2,2.8-0.5,3.5-1.6c0.5-1.2,0-3.9-0.5-4.5S225.8,51.6,225.8,51.6z"/>
		<path class="st41" d="M224,28.4c0,0,0.9,7,7.6,10.9s10,4.2,10,4.2s1.1,10.4,8.8,14.2c7.7,3.9,13.5,6.6,13.4,5.1
			c-0.3-5-0.1-17.3-3.7-24C256.8,32.1,229.6,19.9,224,28.4z"/>
		<path class="st40" d="M258.3,53.6c0,0-2.2-3.3-5.1-3.7s-5.7,1.7-6.2,2.3c-0.5,0.5,3.5-0.9,5.9-0.4
			C255.2,52.4,258.7,54.5,258.3,53.6z"/>
		<path class="st40" d="M254.5,51.5c0,0,1,4.2-0.8,5.4c-1.7,1.3-2.8-0.4-3.5-1.5s-0.1-3.9,0.3-4.5C251,50.3,254.5,51.5,254.5,51.5z"
			/>
		<path class="st42" d="M237.6,65.9c0,0,0.8,1,2.2,1.1s2.8-1,3.3-1.4s0.5,2.6-1.7,3.6c-2.3,0.9-3.7-1.2-3.8-2.3
			C237.4,65.8,237.6,65.9,237.6,65.9z"/>
		<g id="XMLID_4_">
			<g>
				<path class="st43" d="M232.7,73.9c0,0,1.4,2,2,2.8c1.2,1.8,3.3,3.9,6.5,3.5s5-2.2,5.9-3.8c0.4-0.7,0.9-1.2,1.3-1.6h-0.8
					c0,0-2.7,1.6-4.8,2.6c-1.1,0.5-3.5,0.5-4.5,0s-3.6-2.2-3.9-2.4l0,0l-0.1-1C233.7,74,233.2,74,232.7,73.9z"/>
				<path class="st43" d="M234.5,73.9l0.1,1l0,0c0.7,0.3,4.5,0.4,4.5,0.4s0.8,0.7,2.2,0.7c1.5-0.1,1.8-0.8,2.6-0.8
					c1-0.1,2.7-0.2,2.7-0.2l1.1-0.2h0.8c0.5-0.5,0.9-0.9,0.9-0.9s-1.8-0.1-3.6-0.3c-1.6-0.2-3.2-0.7-4.3,0.1L241,74
					c0,0-0.8-0.8-2.1-0.8C238.4,73.3,236.1,73.7,234.5,73.9z"/>
				<path class="st44" d="M234.6,74.9c0.3,0.2,2.8,2,3.9,2.4c1,0.5,3.3,0.4,4.5,0c2-0.9,4.8-2.6,4.8-2.6l-1.1,0.2
					c0,0-1.7,0.1-2.7,0.2c-0.8,0.1-1.1,0.7-2.6,0.8c-1.5,0.1-2.2-0.7-2.2-0.7S235.2,75.2,234.6,74.9z"/>
			</g>
		</g>
		<g id="XMLID_3_">
			<g>
				<path class="st0" d="M287.1,43.4c0,0,0.4,8.6-18.6,11.4c-19.1,2.7-25.2-13.2-25.2-13.2c-19.8-1.7-20.6-18.8-20.6-18.8
					s1.4-9.7,22.1-4.3C265.6,24,286.7,36.8,287.1,43.4z"/>
			</g>
		</g>
		<ellipse class="st45" cx="223.5" cy="60" rx="0.9" ry="0.9"/>
		<ellipse class="st45" cx="227" cy="62.5" rx="0.5" ry="0.5"/>
		<ellipse class="st45" cx="230.8" cy="60.8" rx="0.7" ry="0.7"/>
		<ellipse class="st45" cx="234.9" cy="58.9" rx="0.7" ry="0.7"/>
		<ellipse class="st45" cx="243.4" cy="56.8" rx="0.4" ry="0.4"/>
		<ellipse class="st45" cx="245.7" cy="60.2" rx="0.7" ry="0.7"/>
		<ellipse class="st45" cx="252.2" cy="60.6" rx="0.7" ry="0.7"/>
		<ellipse class="st45" cx="257" cy="64.8" rx="0.7" ry="0.7"/>
		<path class="st41" d="M214.3,49.5c0,0-1.4-3.5-3-2.7c-1.6,0.7-1.3,3.5-1.3,3.5s0,1,1.6,1.1c2.3,0.3,3.8,5.7,3.9,7.2
			C215.3,60,214.9,51.2,214.3,49.5z"/>
		<path class="st1" d="M277.8,59c-0.9-0.9-1.6-2-2.1-3c-0.2-0.4-0.3-0.9-0.4-1.3c1-0.3,2-0.7,2.8-1.1c0.3-0.1,0.9-0.4,1.2-0.9
			c0.3-0.4,0.5-1.1,0.4-1.6c-0.1-1.3-1.3-2.1-2.3-2c-0.5,0-1,0.2-1.3,0.3c-0.2,0-0.3,0.1-0.5,0.2c-0.2,0.1-0.3,0.1-0.5,0.3
			c-0.8,0.5-1.1,1.4-1.2,2.2c0,0.2-0.1,0.4-0.1,0.5c-1.3,0.3-2.6,0.5-4,0.8c-2.6,0.3-5.2,0.4-7.7,0.1c-2.5-0.3-5.1-0.9-7.3-1.8
			s-4.2-2.5-5.9-4.5c-1.6-1.7-3-4.1-4.1-6.2l-0.4-0.9l-1-0.2c-2.7-0.3-5.7-1.1-8.2-2.1c-1.3-0.5-2.5-1.1-3.7-1.8
			c-1.1-0.8-2.1-1.7-2.9-2.7c-1.2-1.4-2.3-3-3.2-4.9c0.2-0.4,0.4-0.8,0.7-1.2c0.8-1.4,1.3-2.8,1.6-4.6c0.1-0.8,0.2-1.6,0-2.6
			c0-0.2-0.1-0.5-0.2-0.8s-0.2-0.4-0.3-0.7c-0.2-0.4-0.5-0.8-0.9-1.1c-0.7-0.5-1.4-1.1-2.4-1.4c-0.2,0-0.4-0.1-0.8-0.1s-0.7,0-1,0.1
			c-0.3,0-0.7,0.2-1,0.4c-0.2,0.2-0.5,0.4-0.7,0.8c-0.1,0.1-0.1,0.3-0.2,0.4l-0.1,0.4c0,0.2-0.1,0.5-0.1,0.8s0,0.5,0,0.8l0.1,0.7
			c0,0.9,0.2,1.6,0.4,2.4c0.4,1.5,0.9,2.9,1.4,4.5c0.2,0.5,0.4,1.2,0.8,1.7c-0.2,0.4-0.5,0.9-0.9,1.3c-0.4,0.5-0.9,1.1-1.3,1.6
			c-0.5,0.5-1,1.1-1.4,1.7c-0.9,1.2-1.6,2.5-2.2,4c-1.1,2.7-1.8,5.8-2,8.7c0.2-1.4,0.7-2.8,1.4-4.6c0.4-1.3,1.1-2.6,1.7-4
			c0.7-1.3,1.5-2.5,2.4-3.7c0.4-0.5,0.9-1,1.4-1.5c0.4-0.4,1.1-1.1,1.5-1.6l0.1-0.1c0.9,1.5,1.7,3,2.9,4.5c1,1.2,2.2,2.3,3.6,3.3
			c1.3,0.9,2.7,1.5,4.2,2.2c2.6,1.1,5.2,1.8,8,2.2c0.5,1.1,1.1,2,1.6,2.9c0.8,1.1,1.6,2.2,2.6,3.3c2,2.1,4.3,4,7,5.1
			c1.3,0.5,2.7,1.1,4.1,1.3c0.7,0.1,1.4,0.2,2.1,0.3s1.4,0.2,2.1,0.2c2.7,0.2,5.5,0,8.3-0.4c1.3-0.2,2.6-0.5,3.8-0.9
			c0.1,0.5,0.3,1,0.5,1.4c0.7,1.3,1.6,2.4,2.6,3.3c2.1,1.7,4.7,2.8,7.3,3.5C282,62.2,279.6,60.9,277.8,59z M222.7,22
			c-0.2-0.8-0.3-1.3-0.4-2c-0.1-0.5-0.1-1.2,0-1.3c0.1,0,0.2-0.1,0.4,0c0.4,0.1,1,0.4,1.4,0.8c0.2,0.2,0.4,0.4,0.5,0.7
			c0.1,0.1,0.2,0.2,0.2,0.3c0,0.1,0.1,0.2,0.1,0.3c0.1,0.4,0.1,1.1,0,1.7c-0.2,1.1-0.5,2.3-1,3.4C223.6,24.6,223.2,23.3,222.7,22z
			 M276,51.3c0.4-0.2,1-0.4,1.3-0.4s0.4,0.2,0.4,0.3s0,0.1-0.1,0.2c-0.1,0.1-0.2,0.1-0.4,0.2c-0.7,0.2-1.2,0.4-1.8,0.7
			C275.6,51.8,275.8,51.4,276,51.3z"/>
		<g id="XMLID_2_">
			<g>
				<path class="st46" d="M277.6,139.8c0.2-0.1,0.4-0.1,0.7-0.2c0,0-2.5-15.2-13.6-34.8c0.2-0.1,0.4-0.2,0.5-0.2
					c0.8-0.2,3-0.8,3-0.8c8.2,17.4,11.1,23.7,14.4,32.2c0.8,2,3.2,6.3,6.2,13.4c2.5,6.1,2.5,14.4,0,18.3c-2.8,4.6-6.6,7.2-6.6,7.2
					c-2.8,4.2-7.2,19.6-7.2,19.6s-7.2,3.8-26.1,3.9c-18.5,0.1-29.9-3.3-29.9-3.3c-0.5-8-1.2-20.3-1.2-20.3c-1.8-3-5-18.9-4.3-21
					s0.5-5.2,0.5-11.7s-7.1-25.9-7.1-25.9l4.9-1.8c1.1,2.4,9,19.2,12.6,29.7c0,0,14.8,0.4,30.8,9.9
					C255.2,154,267.1,142.9,277.6,139.8z"/>
				<path class="st47" d="M278.4,139.6c-0.2,0-0.4,0.1-0.7,0.2c-0.7-2.6-5.2-19.4-13.2-34.9l0,0c0.1,0,0.1-0.1,0.2-0.1
					C275.8,124.3,278.4,139.6,278.4,139.6z"/>
				<path class="st47" d="M264.5,104.9c7.9,15.5,12.5,32.3,13.2,34.9c-10.7,3-22.4,14.1-22.4,14.1c-15.9-9.5-30.8-9.9-30.8-9.9
					c-3.6-10.5-11.5-27.3-12.6-29.7l1.4-0.5c2.6,4.3,12.9,27.6,12.9,27.6c16,2.6,28.7,9.4,28.7,9.4c8.5-8.2,20.3-12.8,20.3-12.8
					c-1.2-9.2-12-32.6-12-32.6S263.9,105.1,264.5,104.9L264.5,104.9z"/>
			</g>
		</g>
		
			<linearGradient id="SVGID_28_" gradientUnits="userSpaceOnUse" x1="247.6809" y1="-983.6794" x2="247.203" y2="-1002.9532" gradientTransform="matrix(1 0 0 -1 0 -808.675)">
			<stop  offset="4.594595e-02" style="stop-color:#AB2466"/>
			<stop  offset="1" style="stop-color:#BA3175;stop-opacity:0"/>
		</linearGradient>
		<path class="st48" d="M282.3,174.8c0,0-2.9,2-21.5,1.3c-6.6-0.2-13.4,2.8-28.9,1.1c-18.2-2-17.6-26.6-17.6-26.6l-0.7,3
			c0,0,1.6,11.4,2.5,14.7c0.8,3,1.8,6.3,1.8,6.3l1.1,19c0,0,14.7-0.7,21.7-3.3c7.2-2.7,18.5-4.5,21.7-4.5c3.3,0,14.9-0.1,16-3
			C279.4,180.1,281.2,175.9,282.3,174.8z"/>
		<path class="st47" d="M275.9,191.4c-0.3,1.4-0.8,2.5-1,3.9c-26,6.6-48,1.7-55.8,0.8c-0.1-1.2,0-2.3-0.2-3.9
			C226.2,193.2,253,197.9,275.9,191.4z"/>
		<path class="st49" d="M209,117.8c0,0,5.9,13.5,7.3,19.7c2.1,9.2,3.2,15.9,4.2,24c0.8,6.1,5.9,10.7,14.6,11.5
			c6.9,0.7,15.7-2.3,15.1-0.9s-11.3,5.2-21.1,3.2S217,164.5,217,159.8c0-4.8-1.4-10.9-1.5-14.5C215.3,140.6,212.4,126.1,209,117.8z"
			/>
		<path class="st50" d="M290.1,82.9c0,0,0,0.5,0.3,1.2s1.1,0,1.4-0.1c0.3-0.2-0.3-1.5-0.4-1.7C291.2,82,290,82.2,290.1,82.9z"/>
		
			<linearGradient id="SVGID_29_" gradientUnits="userSpaceOnUse" x1="339.1535" y1="-892.0018" x2="345.3616" y2="-907.9955" gradientTransform="matrix(1 0 0 -1 0 -808.675)">
			<stop  offset="1.351351e-02" style="stop-color:#317F85"/>
			<stop  offset="1" style="stop-color:#59BAC2;stop-opacity:0"/>
		</linearGradient>
		<path class="st51" d="M363.8,78.6l-32.4,8.8L316,92c0,0,9.5,2.1,19.2,2.1s18.8-1,23.3-2.1s9.1-2.5,9.1-2.5S361.4,87,363.8,78.6z"
			/>
		
			<linearGradient id="SVGID_30_" gradientUnits="userSpaceOnUse" x1="231.5205" y1="-911.8006" x2="210.8153" y2="-907.5856" gradientTransform="matrix(1 0 0 -1 0 -808.675)">
			<stop  offset="1.351351e-02" style="stop-color:#246366"/>
			<stop  offset="1" style="stop-color:#267980;stop-opacity:0"/>
		</linearGradient>
		<path class="st52" d="M231.5,92.4c0,0-10,2.3-11.9,3.2c-1.7,0.9-2.7,3.8-2.5,8.2c0.2,4.5,2.4,7.7,2.4,7.7s7.9-2.9,9.2-3.8
			c1.3-0.8,2.5-2.5,2.7-4.7C232,101.1,231.5,92.4,231.5,92.4z"/>
		
			<linearGradient id="SVGID_31_" gradientUnits="userSpaceOnUse" x1="251.1945" y1="-902.4157" x2="263.6915" y2="-903.8947" gradientTransform="matrix(1 0 0 -1 0 -808.675)">
			<stop  offset="1.351351e-02" style="stop-color:#246366"/>
			<stop  offset="1" style="stop-color:#267980;stop-opacity:0"/>
		</linearGradient>
		<path class="st53" d="M255.7,104.9c0,0-1.3-11.9,2-15.1c3.3-3.3,5.2-5.2,5.2-5.2l-11.6,2.8l1.3,13.6
			C252.6,101,252.9,104.2,255.7,104.9z"/>
		
			<linearGradient id="SVGID_32_" gradientUnits="userSpaceOnUse" x1="318.3981" y1="-940.9828" x2="310.0416" y2="-946.4552" gradientTransform="matrix(1 0 0 -1 0 -808.675)">
			<stop  offset="0" style="stop-color:#D48864"/>
			<stop  offset="1" style="stop-color:#F8AD84;stop-opacity:0"/>
		</linearGradient>
		<path class="st54" d="M322.4,134.9c0,0,0.5,4.3,2,8.4c1.4,3.9-9.7,1-13.5-6c-4.5-8-2.2-14.7-2.2-14.7L322.4,134.9z"/>
		<path class="st55" d="M184.4,272.3c0,0-2.2,4-2.3,5.4c-0.2,1.4-0.5,3.2,1,3.9c1.4,0.7,4.7,2.9,5.1,3.5c0.4,0.5,0.3,0.4,0.3,0.4
			s1-0.5,2.3-0.2l-0.4-1.6c0,0-1.8-1.6-2.7-2.3c-0.9-0.7-2.5-1.8-2.5-1.8S182.9,277.5,184.4,272.3z"/>
		<path class="st50" d="M192.7,285.4c0.2-0.4,0.9-0.7,1.7-0.4c0.5,0.1,0.4,2.5,0.4,2.7c-0.1,0.2-1.7,0.7-1.8,0.1
			C192.7,287.1,192.4,286,192.7,285.4z"/>
		
			<linearGradient id="SVGID_33_" gradientUnits="userSpaceOnUse" x1="191.08" y1="-1094.7251" x2="188.8064" y2="-1095.252" gradientTransform="matrix(1 0 0 -1 0 -808.675)">
			<stop  offset="0" style="stop-color:#D48864"/>
			<stop  offset="1" style="stop-color:#F8AD84;stop-opacity:0"/>
		</linearGradient>
		<path class="st56" d="M190.7,285.1c0,0,0.5,1.5,1.3,2l-3.7,0.7c0,0-0.7-1.5-0.1-2.1C188.9,285.1,189.6,285,190.7,285.1z"/>
		
			<linearGradient id="SVGID_34_" gradientUnits="userSpaceOnUse" x1="182.8067" y1="-1084.4449" x2="180.9579" y2="-1083.9274" gradientTransform="matrix(1 0 0 -1 0 -808.675)">
			<stop  offset="0" style="stop-color:#D48864"/>
			<stop  offset="1" style="stop-color:#F8AD84;stop-opacity:0"/>
		</linearGradient>
		<path class="st57" d="M187.2,269.6c0,0-3,0.2-4.3,2.3c-1.2,2.1-2.4,7.5-3.2,8.3s0,2,0,2s1.6,0.1,2.1-0.5c0.4-0.8-0.3-2,0-2.9
			C182.1,277.5,183.8,270.1,187.2,269.6z"/>
		<g>
			
				<linearGradient id="SVGID_35_" gradientUnits="userSpaceOnUse" x1="560.525" y1="-411.6554" x2="562.301" y2="-411.6554" gradientTransform="matrix(0.9237 0.383 0.383 -0.9237 -149.8988 -369.5576)">
				<stop  offset="5.675676e-02" style="stop-color:#8E9493"/>
				<stop  offset="0.173" style="stop-color:#A9B0AF"/>
				<stop  offset="1" style="stop-color:#DBE3E2"/>
			</linearGradient>
			<polygon class="st58" points="211.1,226.5 210,226.1 210.6,224.9 211.5,225.2 			"/>
			
				<linearGradient id="SVGID_36_" gradientUnits="userSpaceOnUse" x1="559.7012" y1="-429.3965" x2="573.2717" y2="-415.7065" gradientTransform="matrix(0.9237 0.383 0.383 -0.9237 -149.8988 -369.5576)">
				<stop  offset="6.216216e-02" style="stop-color:#429B90"/>
				<stop  offset="1" style="stop-color:#59C2B7"/>
			</linearGradient>
			<polygon class="st59" points="215.1,246.6 202.6,241.4 207.8,229 220.3,234.1 			"/>
			<path class="st60" d="M219.8,234.3l-11.9-4.9c-0.2-0.1-0.3-0.3-0.2-0.4l0,0c0.1-0.2,0.3-0.3,0.4-0.2l11.9,4.9
				c0.2,0.1,0.3,0.3,0.2,0.4l0,0C220.2,234.3,220,234.4,219.8,234.3z"/>
			<g id="XMLID_1_">
				<g>
					<path class="st61" d="M213.6,232.7c2.8,1.2,4.3,4.6,3,7.4c-1.2,2.8-4.6,4.3-7.4,3c-2.8-1.2-4.3-4.6-3-7.4
						C207.4,232.9,210.7,231.4,213.6,232.7z M214.6,239.3c0.7-1.7-0.1-3.7-1.7-4.5c-1.7-0.7-3.7,0.1-4.5,1.7
						c-0.7,1.7,0.1,3.7,1.7,4.5C211.9,241.8,213.8,240.9,214.6,239.3z"/>
				</g>
			</g>
			<g>
				<g>
					<path class="st62" d="M207.6,236.8c-0.1,0-0.1-0.1-0.1-0.2l0.2-0.5c0-0.1,0.1-0.1,0.2-0.1s0.1,0.1,0.1,0.2l-0.2,0.5
						C207.8,236.8,207.7,236.8,207.6,236.8z"/>
				</g>
				<g>
					<path class="st62" d="M207.1,236.6c-0.1,0-0.1-0.1-0.1-0.2l0.2-0.5c0-0.1,0.1-0.1,0.2-0.1c0.1,0,0.1,0.1,0.1,0.2l-0.2,0.5
						C207.3,236.6,207.2,236.6,207.1,236.6z"/>
				</g>
				<g>
					<path class="st62" d="M206.5,236.4c-0.1,0-0.1-0.1-0.1-0.2l0.2-0.5c0-0.1,0.1-0.1,0.2-0.1c0.1,0,0.1,0.1,0.1,0.2l-0.2,0.5
						C206.8,236.4,206.6,236.4,206.5,236.4z"/>
				</g>
			</g>
			<g>
				<g>
					<path class="st62" d="M216,240.3c-0.1,0-0.1-0.1-0.1-0.2l0.2-0.5c0-0.1,0.1-0.1,0.2-0.1s0.1,0.1,0.1,0.2l-0.2,0.5
						C216.2,240.3,216.1,240.4,216,240.3z"/>
				</g>
				<g>
					<path class="st62" d="M215.4,240.1c-0.1,0-0.1-0.1-0.1-0.2l0.2-0.5c0-0.1,0.1-0.1,0.2-0.1s0.1,0.1,0.1,0.2l-0.2,0.5
						C215.7,240.1,215.6,240.2,215.4,240.1z"/>
				</g>
				<g>
					<path class="st62" d="M214.9,239.9c-0.1,0-0.1-0.1-0.1-0.2l0.2-0.7c0-0.1,0.1-0.1,0.2-0.1s0.1,0.1,0.1,0.2l-0.2,0.5
						C215,239.9,215,239.9,214.9,239.9z"/>
				</g>
			</g>
			<g>
				<path class="st62" d="M213.7,234.2l-1.1-0.4c-0.1,0-0.1-0.1-0.1-0.2c0-0.1,0.1-0.1,0.2-0.1l1.1,0.4c0.1,0,0.1,0.1,0.1,0.2
					S213.7,234.3,213.7,234.2z"/>
			</g>
			<g>
				<path class="st62" d="M212.9,234.5c-0.1,0-0.1-0.1-0.1-0.2l0.4-1.1c0-0.1,0.1-0.1,0.2-0.1c0.1,0,0.1,0.1,0.1,0.2l-0.4,1.1
					C213.1,234.5,212.9,234.6,212.9,234.5z"/>
			</g>
			<g>
				<path class="st62" d="M210.2,242.6l-1.1-0.4c-0.1,0-0.1-0.1-0.1-0.2c0-0.1,0.1-0.1,0.2-0.1l1.1,0.4c0.1,0,0.1,0.1,0.1,0.2
					C210.3,242.6,210.3,242.6,210.2,242.6z"/>
			</g>
			<g>
				<g>
					
						<ellipse transform="matrix(0.383 -0.9237 0.9237 0.383 -80.4376 345.6303)" class="st63" cx="218.5" cy="233" rx="0.1" ry="0.5"/>
					<path class="st64" d="M219.1,233.2l-0.1,0.3c0,0-0.2,0-0.5-0.1c-0.2-0.1-0.4-0.2-0.4-0.3l0.1-0.3c0,0.1,0.2,0.2,0.4,0.3
						S219.1,233.3,219.1,233.2z"/>
					<line class="st65" x1="219.1" y1="233.2" x2="219.1" y2="233.2"/>
				</g>
				<polygon class="st66" points="218.2,233.3 218.1,233.2 218.3,232.9 218.3,233 				"/>
				<path class="st66" d="M218.7,233.6c0.1,0,0.2,0,0.2,0l0.1-0.3c-0.1,0-0.2-0.1-0.2-0.1L218.7,233.6L218.7,233.6z"/>
			</g>
			<g>
				<g>
					
						<ellipse transform="matrix(0.383 -0.9237 0.9237 0.383 -80.8273 343.3382)" class="st63" cx="216.6" cy="232.2" rx="0.1" ry="0.5"/>
					<path class="st64" d="M217.1,232.5l-0.1,0.3c0,0-0.2,0-0.5-0.1c-0.2-0.1-0.4-0.2-0.4-0.3l0.1-0.3c0,0.1,0.2,0.2,0.4,0.3
						S217.1,232.5,217.1,232.5z"/>
					<line class="st65" x1="217.1" y1="232.5" x2="217.1" y2="232.5"/>
				</g>
				<polygon class="st66" points="216.1,232.5 216.1,232.5 216.2,232 216.2,232 				"/>
				<path class="st66" d="M216.6,232.7c0.1,0,0.2,0,0.2,0l0.1-0.3c-0.1,0-0.2-0.1-0.2-0.1L216.6,232.7L216.6,232.7z"/>
			</g>
			
				<ellipse transform="matrix(0.383 -0.9237 0.9237 0.383 -82.8696 334.8237)" class="st67" cx="209.2" cy="229.4" rx="0.3" ry="0.8"/>
			
				<linearGradient id="SVGID_37_" gradientUnits="userSpaceOnUse" x1="560.423" y1="-414.0708" x2="562.1464" y2="-414.0708" gradientTransform="matrix(0.9237 0.383 0.383 -0.9237 -149.8988 -369.5576)">
				<stop  offset="0" style="stop-color:#A9B0AF"/>
				<stop  offset="1" style="stop-color:#DBE3E2"/>
			</linearGradient>
			<path class="st68" d="M209.1,229.7L209.1,229.7c-0.4-0.2-0.7-0.7-0.4-1l1.1-2.7c0-0.1,0.1-0.1,0.2-0.1l1.1,0.4
				c0.1,0,0.1,0.1,0.1,0.2l-1.1,2.7C209.9,229.6,209.6,229.9,209.1,229.7z"/>
		</g>
		
			<linearGradient id="SVGID_38_" gradientUnits="userSpaceOnUse" x1="223.2611" y1="-936.239" x2="245.178" y2="-936.239" gradientTransform="matrix(0.9998 -1.733569e-02 -1.733569e-02 -0.9998 4.2569 -835.9282)">
			<stop  offset="2.972973e-02" style="stop-color:#CECFCF"/>
			<stop  offset="0.1451" style="stop-color:#C4C7C6"/>
			<stop  offset="0.4304" style="stop-color:#B0B6B5"/>
			<stop  offset="0.6243" style="stop-color:#A9B0AF"/>
			<stop  offset="1" style="stop-color:#D1D1D1"/>
		</linearGradient>
		<path class="st69" d="M246.1,135.9c-1.6-7.2-3.6-14,6.7-25.9c11.3-13.2,12.8-44.8,11.1-53.7"/>
		<path class="st70" d="M214.8,52.3c0,0-2.2-0.4-2.8,1.1c-0.7,1.5,1.2,5.1,1.2,5.1l0.1,3c0,0.4,0.1,0.9,0.5,0.9h0.5
			c0.4,0,0.9-0.4,0.9-0.9l-0.1-4.1C215.2,56.8,214.8,52.3,214.8,52.3z"/>
		<path class="st71" d="M214.3,52.2c0,0-0.3,1.2,0,2.9c0.3,1.6,0.9,2.4,0.9,2.4l-0.1-1.7l-0.3-3.5L214.3,52.2z"/>
		
			<linearGradient id="SVGID_39_" gradientUnits="userSpaceOnUse" x1="193.38" y1="-900.4734" x2="195.3813" y2="-900.4734" gradientTransform="matrix(0.9998 -1.733569e-02 -1.733569e-02 -0.9998 4.2569 -835.9282)">
			<stop  offset="0.2459" style="stop-color:#AFAFAF"/>
			<stop  offset="1" style="stop-color:#828786"/>
		</linearGradient>
		<path class="st72" d="M214.6,62.5h-0.7c-0.3,0-0.7-0.3-0.7-0.7v-2.1c0,0,0-0.1,0.1-0.1h1.8c0,0,0.1,0,0.1,0.1v2.2
			C215.2,62.2,214.9,62.4,214.6,62.5z"/>
		<path class="st47" d="M253,164.3c0,5.9-0.3,9-1.4,12.2c-0.5,1.4-3.6,22.2-3.6,22.2h1.5c0,0,3-17.8,3.7-25.4
			c0.4-7.6,2-7.7-0.3-20.3c-0.7-3.6-2-4.1-2-4.1l-1.5-0.8C249.3,148.1,253,158.4,253,164.3z"/>
		
			<linearGradient id="SVGID_40_" gradientUnits="userSpaceOnUse" x1="187.7658" y1="-983.5931" x2="232.9595" y2="-983.5931" gradientTransform="matrix(0.9998 -1.733569e-02 -1.733569e-02 -0.9998 4.2569 -835.9282)">
			<stop  offset="2.972973e-02" style="stop-color:#CECFCF"/>
			<stop  offset="0.1451" style="stop-color:#C4C7C6"/>
			<stop  offset="0.4304" style="stop-color:#B0B6B5"/>
			<stop  offset="0.6243" style="stop-color:#A9B0AF"/>
			<stop  offset="1" style="stop-color:#D1D1D1"/>
		</linearGradient>
		<path class="st73" d="M210.9,225c0,0,2.8-7.3,9-0.1c6.2,7.3,21.2,1.6,24.1-7.2c2.2-6.9,7.6-23.1,8.8-42.1c0.3-5.8,2-9.2,0.7-18.4
			c-3-21.4-18.4-38.2-31.3-53.9c-9.4-11.4-8.2-43.9-8.2-43.9"/>
		
			<linearGradient id="SVGID_41_" gradientUnits="userSpaceOnUse" x1="-331.1372" y1="-1414.8683" x2="-328.6578" y2="-1414.8683" gradientTransform="matrix(0.9271 -0.3747 -0.3747 -0.9271 21.4941 -1300.8051)">
			<stop  offset="5.675676e-02" style="stop-color:#C5DDD9"/>
			<stop  offset="1" style="stop-color:#DBE3E2"/>
		</linearGradient>
		<path class="st74" d="M247.2,137.4l-0.2,0.1c-0.5,0.2-1.2,0-1.4-0.7l-1.5-3.8c-0.2-0.5,0-1.2,0.7-1.4l0.2-0.1
			c0.5-0.2,1.2,0,1.4,0.7l1.5,3.8C248,136.6,247.7,137.2,247.2,137.4z"/>
		
			<linearGradient id="SVGID_42_" gradientUnits="userSpaceOnUse" x1="26.0004" y1="-1255.9725" x2="28.2196" y2="-1255.9725" gradientTransform="matrix(0.9063 -0.1989 -0.2144 -0.9768 -77.1759 -1131.715)">
			<stop  offset="5.675676e-02" style="stop-color:#C5DDD9"/>
			<stop  offset="1" style="stop-color:#DBE3E2"/>
		</linearGradient>
		<path class="st75" d="M217.8,94.4h-0.1c-0.5,0.1-1-0.2-1.1-0.8l-1.6-7.4c-0.1-0.5,0.2-1,0.8-1.1h0.1c0.5-0.1,1,0.2,1.1,0.8
			l1.6,7.4C218.6,93.7,218.3,94.3,217.8,94.4z"/>
	</g>
</g>
<g>
	<g id="XMLID_170_">
		<g>
			<path class="st76" d="M372.9,573.8L372.9,573.8c-0.1,0.1-0.2,0.1-0.3,0.1C372.8,573.8,372.9,573.8,372.9,573.8z"/>
			<path class="st76" d="M372.9,573.8L372.9,573.8c-0.1,0.1-0.2,0.1-0.3,0.1C372.8,573.8,372.9,573.8,372.9,573.8z"/>
			<g>
				<path class="st76" d="M373,571.6c-0.3-1-0.9-2.2-0.9-2.8c0-1.2,2-2.8,2.9-1.6c0.4,0.4,1,1.2,1.2,1.8
					C375.8,569.9,374.7,570.8,373,571.6z"/>
				<path class="st76" d="M377.1,570.6c-0.1,0.2-1.2,2.4-5,3.6c-2.1,0.8-6.9,1.6-11.2,1.6c-5.4,0-12.1-2.8-14.7-5.3
					s-4.9-5.9-7.5-7.2c-2.6-1.3-4.5-1.3-6.1-2.3s-2.2-2.3-2.2-3.4c0.1-0.3,0.1-0.4,0.2-0.8c0.5-2,1.7-3.2,2-3.9
					c0.1,1.5,0.7,2.8,2,3.5c2.1,1,6.1,3.8,9.4,6.5c1.8,1.6,3.6,2.9,4.3,4c2.5,2.8,7.5,4.9,10.2,5.3c6.9,1.2,15.4-0.1,17.8-3.4
					C376.8,569.8,377.1,570.6,377.1,570.6z"/>
			</g>
			<path class="st76" d="M376.8,566.7c0.1,0.2,0.1,0.3,0.1,0.3c0.1,0.5,0,1.2-0.4,2c0.4,0.9,0.8,1.6,0.8,1.6
				C377.8,567.9,376.8,566.7,376.8,566.7L376.8,566.7z"/>
			<path class="st77" d="M348.3,566.9c2.4,2.8,7.4,4.9,10.2,5.3c6.9,1.2,11.5,0.5,14.5-0.8c-0.3-1-0.9-2.2-0.9-2.8
				c0-1.2,2-2.9,2.9-1.6c0.4,0.4,0.9,1.2,1.2,1.8c0.4-0.8,0.7-1.4,0.4-2c0-0.1-0.1-0.3-0.1-0.3c-0.4-1.1-2.3-2.9-4.6-4.9
				c0.2,0.2,2.1,2.7-0.3,3.8c-2.4,1.2-11.9,1.6-15.3-0.3c-1.5-0.9-3.2-2-5-2.7c-2.4-1-4.9-1.5-7,0.1c-0.2,0.1-0.3,0.2-0.4,0.3
				C345.9,564.4,347.4,566.1,348.3,566.9z"/>
			<path class="st78" d="M344.2,569.3c2.8,3.2,9.5,7.4,17.8,7.1c8.6-0.3,14.6-3.3,15.2-5.9c-0.1,0.2-0.9,2.1-4.5,3.5
				c-2.8,1.1-7.3,1.7-11.6,1.7c-5.5,0-12.1-2.8-14.7-5.3c-2.7-2.5-4.9-5.9-7.5-7.2c-2.6-1.3-4.5-1.3-6.1-2.3s-2.2-2.3-2.2-3.4
				c-0.3,2.7,2.3,4.5,5.2,5.1C339.2,563.7,342.7,567.7,344.2,569.3z"/>
			<path class="st76" d="M372.8,573.9C372.7,573.9,372.7,573.9,372.8,573.9C372.7,573.9,372.7,573.9,372.8,573.9z"/>
			<path class="st79" d="M334.4,544.1c0,0-0.3,3.3,3.9,7.1c4.6,4,7.4,7.5,6.2,11.5c2.1-1.6,4.6-1.1,7-0.1c0,0-1.3-5.8-4.9-8.8
				s-11.4-7.5-11.4-12.1C334.8,542.7,334.5,543.3,334.4,544.1z"/>
			<path class="st79" d="M336.5,538.8c-0.3,1.1-0.4,3.5,0.2,4.2c1,1.2,2.3,1.5,3.6,1c1.8-1,3.7-2.3,5.3-1.5c1.3,0.7,3.2,3.2,3.2,3.2
				c-0.3-0.7-0.8-1.4-1-2c-0.2-0.4-0.4-0.8-0.8-1.1c-1.2-1.5-2.7-2-4.5-1c-2.4,1.2-3.4,2-4.2,1.2c-1.3-1-0.8-2.5-0.3-3.6
				C338.2,538.1,336.7,537.3,336.5,538.8z"/>
			<path class="st77" d="M346.9,542.2l-0.2,0.1c0.3,0.3,0.4,0.7,0.8,1.1c0.3,0.5,0.7,1.2,1,2c2.4,4.5,5.7,10.7,5.7,10.9
				c0,0.3-0.3,1.8-0.3,1.8s4.8-1.1,8-2.9c-2.7-3.6-8-14.1-8-14.1s-0.5-0.8-0.1-1.1c-0.2-0.5-0.4-1.2-0.9-1.6
				c-0.7-0.5-2.3-0.4-4.1,0.5c-1.7,1-2.3,1.6-2.3,2.3C346.6,541.7,346.9,542.2,346.9,542.2z M348,541.6c-0.2-0.3,0-0.9,0.3-1l3.6-2
				c0.3-0.2,0.8,0,1,0.3l1.3,3c0.2,0.3,0,0.9-0.3,1l-3.6,2c-0.3,0.2-0.7-0.1-0.9-0.3L348,541.6z"/>
			<path class="st79" d="M348.2,540.6c-0.3,0.2-0.4,0.8-0.3,1.1l1.4,2.9c0.2,0.3,0.5,0.5,0.9,0.3l3.6-2c0.3-0.2,0.4-0.7,0.3-1
				l-1.3-3c-0.2-0.3-0.5-0.5-1-0.3L348.2,540.6z"/>
			<path class="st79" d="M353.9,539.9c-0.4,0.3,0.1,1.1,0.1,1.1s5.3,10.7,8,14.1c0.3-0.2,0.8-0.4,1.1-0.7
				c-3.2-3.2-7.8-14.2-7.8-14.2s-0.3-0.9-1.1-0.5C354,539.7,354,539.8,353.9,539.9z"/>
		</g>
	</g>
	
		<linearGradient id="SVGID_43_" gradientUnits="userSpaceOnUse" x1="-8723.1426" y1="1496.344" x2="-8683.4082" y2="1471.9585" gradientTransform="matrix(-1 0 0 1 -8361.2031 -929)">
		<stop  offset="0" style="stop-color:#851C73"/>
		<stop  offset="1" style="stop-color:#582978"/>
	</linearGradient>
	<path class="st80" d="M344.1,562.9c0,0-7-5.5-8.2-6c-1.1-0.4-2.3-1.1-2.6-2c-0.3-0.9-1-2.4-0.4-4.7c0.4-2.3,1.6-6.3,1.6-6.3
		s0,1.6,1,3.6c1,1.8,3.8,4,5.3,5.8c1.6,1.6,2.6,2.8,3.3,4.2c0.7,1.4,0.9,2.7,0.8,3.8c-0.1,1-0.2,1.3-0.2,1.3L344.1,562.9z"/>
	
		<linearGradient id="SVGID_44_" gradientUnits="userSpaceOnUse" x1="-8693.6689" y1="1488.2401" x2="-8737.292" y2="1505.9872" gradientTransform="matrix(-1 0 0 1 -8361.2031 -929)">
		<stop  offset="0.1108" style="stop-color:#BFC4CC"/>
		<stop  offset="1" style="stop-color:#FFFFFF;stop-opacity:0"/>
	</linearGradient>
	<path class="st81" d="M330.7,556.9c-0.1,0.3-0.1,0.4-0.2,0.8c0,1.1,0.5,2.3,2.2,3.4c1.6,1.1,3.5,1,6.1,2.3c2.6,1.3,4.8,4.7,7.5,7.2
		s9.4,5.3,14.7,5.3c4.3,0,9.1-1,11.2-1.6l0,0c0.4-0.2,0.8-0.3,1-0.4c0.3-0.3,0.1-1.1-0.2-2.1c-2.8,1-7.4,2-14.5,0.7
		c-2.8-0.5-7.7-2.5-10.1-5.3c-0.9-1-2.4-2.5-4.2-4.1c-3.3-2.7-7.4-5.8-9.5-6.7c-1.3-0.7-1.8-2.5-2-3.9
		C332.6,553.1,331.4,555.1,330.7,556.9z"/>
	
		<linearGradient id="SVGID_45_" gradientUnits="userSpaceOnUse" x1="-8724.8438" y1="1490.7577" x2="-8686.5508" y2="1467.2566" gradientTransform="matrix(-1 0 0 1 -8361.2031 -929)">
		<stop  offset="0" style="stop-color:#851C73"/>
		<stop  offset="1" style="stop-color:#582978"/>
	</linearGradient>
	<path class="st82" d="M361.9,555.3c-3.3,1.7-8,2.9-8,2.9s0.3-1.4,0.3-1.8c0-0.3-3.2-6.2-5.5-10.7l-0.3-0.8c-0.2-0.3-1.6-2-2.9-2.6
		c-1.5-0.8-3.5,0.7-5.3,1.5c-1.1,0.5-2.5,0.3-3.6-1c-0.5-0.8-0.5-2.9-0.2-4.2c-0.4,1-1,2.1-1.3,3.2l0,0c0,4.6,7.8,9,11.4,12.1
		c3.6,2.9,4.9,8.8,4.9,8.8c1.8,0.8,3.6,1.8,5,2.7c3.5,2.1,12.9,1.6,15.3,0.3c2.3-1.1,0.4-3.6,0.3-3.8l0,0c-3-2.6-6.9-5.4-8.6-6.7
		c-0.2-0.1-0.3-0.3-0.5-0.4C362.7,554.8,362.3,555.1,361.9,555.3z"/>
	<g>
		<path class="st83" d="M354.3,557.3c-0.3,0-0.5,0-0.9,0c-0.2,0-0.3-0.2-0.3-0.3s0.1-0.3,0.3-0.4c0.8-0.3,1.8-1,3.2-1.6
			c-2.2-0.1-4.1-0.3-4.2-0.3c-0.2,0-0.3-0.2-0.4-0.3c0-0.2,0.1-0.4,0.3-0.4c1-0.3,1.8-0.9,2.6-1.4c-1.2,0-2.4-0.1-3.6-0.3
			c-0.2,0-0.3-0.2-0.3-0.3s0.1-0.3,0.3-0.4c0.5-0.3,1.4-0.9,2.3-1.5c-2,0.1-3.6,0-3.7,0c-0.2,0-0.3-0.2-0.4-0.3
			c0-0.2,0.1-0.4,0.3-0.4c1.3-0.7,2.3-1.4,3.2-2.3c-1.4,0.2-2.9,0.3-4.1,0.3c-0.3,0-0.4-0.2-0.4-0.4c0-0.3,0.2-0.4,0.4-0.4
			c1.5,0,3.5-0.3,5.1-0.4c1.4-1.7,1.8-3.4,2-3.4c0.1-0.3,0.3-0.3,0.5-0.3c0.2,0.1,0.3,0.3,0.3,0.5c0,0.1-0.4,1.4-1.5,2.9
			c1.3-0.3,2.3-0.4,2.3-0.4c0.2,0,0.3,0,0.3,0.1s0.2,0.3,0.2,0.3c-0.1,1.1-0.8,2.2-1.6,3.2c1-0.1,2-0.3,2.7-0.7
			c0.2-0.1,0.3,0,0.4,0.1s0.2,0.3,0.1,0.4c0,0.1-0.7,1.4-2.1,2.9c2.2-0.1,3.8-0.3,3.8-0.3c0.2,0,0.3,0.1,0.4,0.2
			c0.1,0.2,0.1,0.3,0,0.4c-0.3,0.8-1.3,1.6-2.3,2.4c1.5,0.1,2.8,0.1,3.4,0c0.2,0,0.4,0.1,0.4,0.3c0.1,0.2,0,0.4-0.2,0.5
			C362.9,554.9,358.4,557.3,354.3,557.3z M358.1,554.8c-1,0.5-1.7,1.1-2.5,1.5c1.8-0.2,3.7-0.9,5-1.4
			C359.8,554.9,359,554.8,358.1,554.8z M354.1,553.7c1,0.1,2.4,0.2,3.7,0.2c1-0.7,1.8-1.3,2.4-2c-1,0.1-2.3,0.2-3.9,0.3
			C355.7,552.7,355,553.1,354.1,553.7z M352.7,551.2c1,0.1,2.3,0.2,3.3,0.2c1-0.9,1.6-1.7,2.1-2.3c-1,0.2-2,0.3-2.9,0.4
			C354.2,550.1,353.3,550.6,352.7,551.2z M354.1,546.2c-0.8,0.9-1.6,1.6-2.7,2.4c1,0,2.1,0,3.3-0.1c1-0.9,1.7-1.8,2.2-2.8
			C356.1,545.8,355.3,545.8,354.1,546.2z"/>
	</g>
</g>
<g>
	<g id="XMLID_11_">
		<g>
			<path class="st76" d="M195.9,570.4L195.9,570.4c0.1,0.1,0.2,0.1,0.3,0.1C196.1,570.6,196,570.4,195.9,570.4z"/>
			<path class="st76" d="M195.9,570.4L195.9,570.4c0.1,0.1,0.2,0.1,0.3,0.1C196.1,570.6,196,570.4,195.9,570.4z"/>
			<g>
				<path class="st76" d="M195.8,568.2c0.3-1,0.9-2.2,0.9-2.8c0-1.2-2-2.8-2.9-1.6c-0.4,0.4-1,1.2-1.2,1.8
					C192.9,566.4,194.1,567.4,195.8,568.2z"/>
				<path class="st76" d="M191.6,567.1c0.1,0.2,1.2,2.4,5,3.6c2.1,0.8,6.9,1.6,11.2,1.6c5.4,0,12.1-2.8,14.7-5.3
					c2.7-2.5,4.9-5.9,7.5-7.2c2.6-1.3,4.5-1.3,6.1-2.3s2.2-2.3,2.2-3.4c-0.1-0.3-0.1-0.4-0.2-0.8c-0.5-2-1.7-3.2-2-3.9
					c-0.1,1.5-0.7,2.8-2,3.5c-2.1,1-6.1,3.8-9.4,6.5c-1.8,1.6-3.6,2.9-4.3,4c-2.5,2.8-7.5,4.9-10.2,5.3c-6.9,1.2-15.4-0.1-17.8-3.4
					C192,566.3,191.6,567.1,191.6,567.1z"/>
			</g>
			<path class="st76" d="M192.1,563.2c0,0-1,1.3-0.3,3.9c0,0,0.3-0.8,0.8-1.6c-0.4-0.8-0.5-1.4-0.4-2
				C192,563.6,192,563.3,192.1,563.2L192.1,563.2z"/>
			<path class="st77" d="M224.8,559.6c-0.2-0.2-0.3-0.3-0.4-0.3c-2.1-1.6-4.6-1.1-7-0.1c-1.8,0.8-3.6,1.8-5,2.7
				c-3.6,2.1-12.9,1.6-15.3,0.3c-2.4-1.1-0.5-3.6-0.3-3.8c-2.3,1.8-4.1,3.7-4.6,4.9c0,0.1-0.1,0.3-0.1,0.3c-0.2,0.5,0,1.2,0.4,2
				c0.3-0.7,0.8-1.4,1.2-1.8c1-1.2,2.9,0.4,2.9,1.6c0,0.7-0.4,1.7-0.9,2.8c2.9,1.3,7.5,2,14.5,0.8c2.9-0.4,7.8-2.5,10.2-5.3
				C221.3,562.6,222.8,561.2,224.8,559.6z"/>
			<path class="st78" d="M233,559.3c2.9-0.7,5.5-2.4,5.2-5.1c0,1.1-0.5,2.3-2.2,3.4c-1.6,1.1-3.5,1-6.1,2.3
				c-2.5,1.3-4.8,4.7-7.5,7.2s-9.2,5.3-14.7,5.3c-4.3,0-8.8-0.7-11.6-1.7c-3.6-1.4-4.3-3.3-4.5-3.5c0.7,2.6,6.6,5.5,15.2,5.9
				c8.4,0.3,15-3.9,17.8-7.1C226.1,564.3,229.6,560.3,233,559.3z"/>
			<path class="st76" d="M196.1,570.6C196.2,570.6,196.2,570.6,196.1,570.6C196.2,570.6,196.2,570.6,196.1,570.6z"/>
			<path class="st79" d="M233.7,538.3c0,4.6-7.8,9-11.4,12.1c-3.6,2.9-4.9,8.8-4.9,8.8c2.4-1,4.9-1.5,7,0.1c-1.1-4,1.6-7.5,6.2-11.5
				c4.2-3.8,3.9-7.1,3.9-7.1C234.3,539.9,233.9,539.2,233.7,538.3z"/>
			<path class="st79" d="M231,535.7c0.4,1.1,1,2.6-0.3,3.6c-1,0.8-1.8,0-4.2-1.2c-1.7-1-3.3-0.4-4.5,1c-0.3,0.3-0.5,0.7-0.8,1.1
				c-0.3,0.5-0.7,1.3-1,2c0,0,1.8-2.5,3.2-3.2c1.6-0.8,3.5,0.5,5.3,1.5c1.2,0.5,2.5,0.3,3.6-1c0.7-0.8,0.5-3,0.2-4.2
				C232.1,533.9,230.7,534.7,231,535.7z"/>
			<path class="st77" d="M222.2,537.7c0-0.7-0.5-1.3-2.3-2.3c-1.7-1-3.5-1.1-4.1-0.5c-0.3,0.3-0.7,1-0.9,1.6
				c0.4,0.3-0.1,1.1-0.1,1.1s-5.3,10.7-8,14.1c3.3,1.8,8,2.9,8,2.9s-0.3-1.5-0.3-1.8c0-0.3,3.3-6.4,5.7-10.9c0.3-0.8,0.8-1.4,1-2
				c0.3-0.4,0.4-0.8,0.8-1.1l-0.2-0.1C221.9,538.8,222.2,538.3,222.2,537.7z M219.5,541.3c-0.2,0.3-0.4,0.5-0.9,0.3l-3.6-2
				c-0.3-0.2-0.4-0.7-0.3-1l1.3-3c0.2-0.3,0.5-0.5,1-0.3l3.6,2c0.3,0.2,0.4,0.7,0.3,1L219.5,541.3z"/>
			<path class="st79" d="M217.1,535.2c-0.3-0.2-0.8,0-1,0.3l-1.3,3c-0.2,0.3-0.1,0.9,0.3,1l3.6,2c0.3,0.2,0.7,0,0.9-0.3l1.4-2.9
				c0.2-0.3,0.1-1-0.3-1.1L217.1,535.2z"/>
			<path class="st79" d="M214.7,536.3c-0.9-0.3-1.1,0.5-1.1,0.5s-4.7,11.1-7.8,14.2c0.3,0.2,0.8,0.4,1.1,0.7c2.7-3.6,8-14.1,8-14.1
				s0.5-0.8,0.1-1.1C214.9,536.3,214.8,536.3,214.7,536.3z"/>
		</g>
	</g>
	
		<linearGradient id="SVGID_46_" gradientUnits="userSpaceOnUse" x1="-4912.7168" y1="1493.031" x2="-4872.9824" y2="1468.6454" gradientTransform="matrix(1 0 0 1 5119.6362 -929)">
		<stop  offset="0" style="stop-color:#851C73"/>
		<stop  offset="1" style="stop-color:#582978"/>
	</linearGradient>
	<path class="st84" d="M224.3,559.3c0,0-0.2-0.3-0.2-1.3c-0.1-1.1,0.1-2.4,0.8-3.8c0.7-1.4,1.6-2.5,3.3-4.2c1.5-1.7,4.2-3.9,5.3-5.8
		c1-2,1-3.6,1-3.6s1.1,4.1,1.6,6.3c0.5,2.2-0.1,3.8-0.4,4.7c-0.3,0.9-1.5,1.5-2.6,2c-1.2,0.4-8.2,6-8.2,6L224.3,559.3z"/>
	
		<linearGradient id="SVGID_47_" gradientUnits="userSpaceOnUse" x1="-4883.3452" y1="1484.7135" x2="-4926.9673" y2="1502.4604" gradientTransform="matrix(1 0 0 1 5119.6362 -929)">
		<stop  offset="0.1108" style="stop-color:#BFC4CC"/>
		<stop  offset="1" style="stop-color:#FFFFFF;stop-opacity:0"/>
	</linearGradient>
	<path class="st85" d="M236.2,548.9c-0.1,1.4-0.7,3.3-2,3.9c-2.1,1-6.2,4-9.5,6.7c-1.8,1.6-3.5,3-4.2,4.1c-2.4,2.8-7.4,4.8-10.1,5.3
		c-7.1,1.3-11.6,0.3-14.5-0.7c-0.3,1-0.4,1.6-0.2,2.1c0.2,0.1,0.4,0.3,1,0.4l0,0c2.1,0.8,6.9,1.6,11.2,1.6c5.4,0,12.1-2.8,14.7-5.3
		c2.7-2.5,4.9-5.9,7.5-7.2c2.6-1.3,4.5-1.3,6.1-2.3s2.2-2.3,2.2-3.4c-0.1-0.3-0.1-0.4-0.2-0.8C237.4,551.6,236.3,549.6,236.2,548.9z
		"/>
	
		<linearGradient id="SVGID_48_" gradientUnits="userSpaceOnUse" x1="-4914.5215" y1="1487.2769" x2="-4876.2285" y2="1463.7755" gradientTransform="matrix(1 0 0 1 5119.6362 -929)">
		<stop  offset="0" style="stop-color:#851C73"/>
		<stop  offset="1" style="stop-color:#582978"/>
	</linearGradient>
	<path class="st86" d="M205.7,551.3c-0.2,0.2-0.3,0.3-0.5,0.4c-1.6,1.3-5.5,4.1-8.6,6.7l0,0c-0.1,0.2-2,2.7,0.3,3.8
		c2.4,1.2,12,1.6,15.3-0.3c1.5-0.9,3.2-2,5-2.7c0,0,1.3-5.8,4.9-8.8c3.6-2.9,11.4-7.5,11.4-12.1l0,0c-0.3-1.1-0.9-2.3-1.3-3.2
		c0.3,1.2,0.3,3.5-0.2,4.2c-1,1.2-2.4,1.5-3.6,1c-1.8-0.9-3.8-2.3-5.3-1.5c-1.2,0.7-2.7,2.3-2.9,2.6l-0.3,0.8
		c-2.3,4.3-5.5,10.2-5.5,10.7c0,0.4,0.3,1.8,0.3,1.8s-4.8-1.1-8-2.9C206.5,551.6,206.1,551.3,205.7,551.3z"/>
	<g>
		<path class="st83" d="M205.8,551.4c-0.2-0.1-0.3-0.3-0.2-0.5c0-0.2,0.3-0.3,0.4-0.3c0.5,0.1,1.8,0.1,3.4,0c-1-0.9-2-1.6-2.3-2.4
			c-0.1-0.2-0.1-0.3,0-0.4c0.1-0.1,0.3-0.2,0.4-0.2c0,0,1.6,0.2,3.8,0.3c-1.4-1.5-2.1-2.8-2.1-2.9c-0.1-0.1,0-0.3,0.1-0.4
			s0.3-0.2,0.4-0.1c0.8,0.3,1.6,0.5,2.7,0.7c-1-1-1.6-2.1-1.6-3.2c0-0.1,0.1-0.3,0.2-0.3c0.1-0.1,0.2-0.1,0.3-0.1c0,0,1,0.2,2.3,0.4
			c-1-1.5-1.5-2.8-1.5-2.9c-0.1-0.2,0.1-0.4,0.3-0.5s0.4,0,0.5,0.3c0.1,0,0.5,1.6,2,3.4c1.6,0.2,3.6,0.4,5.1,0.4
			c0.3,0,0.4,0.2,0.4,0.4c0,0.2-0.2,0.4-0.4,0.4c-1.2,0-2.7-0.2-4.1-0.3c0.9,0.9,1.8,1.6,3.2,2.3c0.2,0,0.3,0.3,0.3,0.4
			c-0.1,0.2-0.3,0.3-0.4,0.3c-0.1,0-1.7,0.1-3.7,0c1,0.7,1.7,1.2,2.3,1.5c0.2,0.1,0.3,0.3,0.3,0.4c0,0.1-0.2,0.3-0.3,0.3
			c-1.1,0.3-2.3,0.3-3.6,0.3c0.8,0.5,1.6,1,2.6,1.4c0.2,0,0.3,0.3,0.3,0.4c-0.1,0.2-0.3,0.3-0.4,0.3c-0.1,0-2.1,0.2-4.2,0.3
			c1.3,0.8,2.4,1.3,3.2,1.6c0.2,0.1,0.3,0.3,0.3,0.4c0,0.1-0.2,0.3-0.3,0.3c-0.3,0-0.5,0-0.9,0C210.4,553.9,206,551.4,205.8,551.4z
			 M208.2,551.4c1.3,0.5,3.2,1.2,5,1.4c-0.8-0.3-1.6-1-2.5-1.5C209.9,551.3,208.9,551.4,208.2,551.4z M212.5,548.8
			c-1.6-0.1-2.9-0.2-3.9-0.3c0.5,0.7,1.5,1.3,2.4,2c1.3,0,2.7-0.1,3.7-0.2C213.8,549.7,213.2,549.3,212.5,548.8z M213.8,545.9
			c-1-0.1-2.1-0.3-2.9-0.4c0.3,0.5,1.1,1.5,2.1,2.3c1,0,2.3-0.1,3.3-0.2C215.6,547.2,214.6,546.7,213.8,545.9z M212,542.2
			c0.3,1,1.2,2,2.2,2.8c1.2,0.1,2.3,0.1,3.3,0.1c-1.1-0.8-2-1.6-2.7-2.4C213.6,542.6,212.6,542.3,212,542.2z"/>
	</g>
</g>
<circle class="st65" cx="262.6" cy="288" r="262.4"/>
<rect class="st65" width="525" height="579"/>
</svg>
