<?xml version="1.0" encoding="utf-8"?>
<!-- Generator: Adobe Illustrator 22.0.1, SVG Export Plug-In . SVG Version: 6.00 Build 0)  -->
<svg version="1.1" id="Layer_1" xmlns="http://www.w3.org/2000/svg" xmlns:xlink="http://www.w3.org/1999/xlink" x="0px" y="0px"
	 viewBox="0 0 525 542" style="enable-background:new 0 0 525 542;" xml:space="preserve">
<style type="text/css">
	.st0{fill:#F5E1ED;}
	.st1{fill:none;stroke:#E0BDD4;stroke-width:2;stroke-linecap:round;stroke-linejoin:round;stroke-miterlimit:10;}
	.st2{fill:#E0BDD4;}
	.st3{fill:none;}
</style>
<g id="Layer_1_1_">
	<circle class="st0" cx="262.4" cy="273.6" r="261.7"/>
	<rect x="37.6" y="245.6" class="st1" width="467.3" height="14.8"/>
	<rect x="37.6" y="145.4" class="st1" width="446.8" height="14.6"/>
	<g>
		<g>
			<path class="st2" d="M81.5,146.5H57.4c-1.3,0-2.3-1-2.3-2.3v-30.4l2.3-2.9v33.2h24.1V84.5l2.3-2.1v61.8
				C83.7,145.5,82.7,146.5,81.5,146.5z"/>
		</g>
		<g>
			<path class="st2" d="M78.7,103.7H63.4l2-2.3h13.3v-7.5h-6.4l2.1-2.3h4.3c1.3,0,2.3,1,2.3,2.3v7.5
				C80.9,102.7,79.9,103.7,78.7,103.7z"/>
		</g>
		<g>
			<path class="st2" d="M60.9,126.5c-0.6,0-1.1-0.5-1.1-1.1v-14.8c0-0.6,0.5-1.1,1.1-1.1s1.1,0.5,1.1,1.1v14.8
				C62.1,126,61.6,126.5,60.9,126.5z"/>
		</g>
		<g>
			<path class="st2" d="M60.9,136.8c-0.6,0-1.1-0.5-1.1-1.1v-6.1c0-0.6,0.5-1.1,1.1-1.1s1.1,0.5,1.1,1.1v6.1
				C62.1,136.3,61.6,136.8,60.9,136.8z"/>
		</g>
	</g>
	<g>
		<path class="st1" d="M113.7,145.4H89.3c-0.6,0-1-0.4-1-1V81.6c0-0.6,0.4-1,1-1h24.4c0.6,0,1,0.4,1,1v62.7
			C114.7,144.9,114.2,145.4,113.7,145.4z"/>
		<path class="st1" d="M110.9,102.5H92.1c-0.5,0-1-0.4-1-1v-7.8c0-0.6,0.5-1,1-1h18.8c0.6,0,1,0.4,1,1v7.8
			C111.9,102.1,111.4,102.5,110.9,102.5z"/>
		<line class="st1" x1="93" y1="110.6" x2="93" y2="125.4"/>
		<line class="st1" x1="93" y1="129.5" x2="93" y2="135.7"/>
	</g>
	<g>
		<path class="st1" d="M145.7,145.4h-24.4c-0.6,0-1-0.4-1-1V81.6c0-0.6,0.4-1,1-1h24.4c0.5,0,1,0.4,1,1v62.7
			C146.7,144.9,146.3,145.4,145.7,145.4z"/>
		<path class="st1" d="M142.9,102.5h-18.8c-0.6,0-1-0.4-1-1v-7.8c0-0.6,0.4-1,1-1h18.8c0.6,0,1,0.4,1,1v7.8
			C143.9,102.1,143.4,102.5,142.9,102.5z"/>
		<line class="st1" x1="125" y1="110.6" x2="125" y2="125.4"/>
		<line class="st1" x1="125" y1="129.5" x2="125" y2="135.7"/>
	</g>
	<g>
		<path class="st1" d="M177.8,145.4h-24.4c-0.5,0-1-0.4-1-1V81.6c0-0.6,0.5-1,1-1h24.4c0.6,0,1,0.4,1,1v62.7
			C178.8,144.9,178.3,145.4,177.8,145.4z"/>
		<path class="st1" d="M175,102.5h-18.8c-0.6,0-1-0.4-1-1v-7.8c0-0.6,0.4-1,1-1H175c0.5,0,1,0.4,1,1v7.8
			C176,102.1,175.5,102.5,175,102.5z"/>
		<line class="st1" x1="157.1" y1="110.6" x2="157.1" y2="125.4"/>
		<line class="st1" x1="157.1" y1="129.5" x2="157.1" y2="135.7"/>
	</g>
	<g>
		<path class="st1" d="M209.8,145.4h-24.4c-0.5,0-1-0.4-1-1V81.6c0-0.6,0.5-1,1-1h24.4c0.5,0,1,0.4,1,1v62.7
			C210.8,144.9,210.4,145.4,209.8,145.4z"/>
		<path class="st1" d="M207,102.5h-18.8c-0.6,0-1-0.4-1-1v-7.8c0-0.6,0.4-1,1-1H207c0.6,0,1,0.4,1,1v7.8
			C208,102.1,207.6,102.5,207,102.5z"/>
		<line class="st1" x1="189.2" y1="110.6" x2="189.2" y2="125.4"/>
		<line class="st1" x1="189.2" y1="129.5" x2="189.2" y2="135.7"/>
	</g>
	<g>
		<path class="st1" d="M241.9,145.4h-24.4c-0.6,0-1-0.4-1-1V81.6c0-0.6,0.4-1,1-1h24.4c0.6,0,1,0.4,1,1v62.7
			C242.9,144.9,242.5,145.4,241.9,145.4z"/>
		<path class="st1" d="M239.1,102.5h-18.8c-0.6,0-1-0.4-1-1v-7.8c0-0.6,0.4-1,1-1h18.8c0.5,0,1,0.4,1,1v7.8
			C240.1,102.1,239.7,102.5,239.1,102.5z"/>
		<line class="st1" x1="221.3" y1="110.6" x2="221.3" y2="125.4"/>
		<line class="st1" x1="221.3" y1="129.5" x2="221.3" y2="135.7"/>
	</g>
	<g>
		<path class="st1" d="M273.9,145.4h-24.4c-0.6,0-1-0.4-1-1V81.6c0-0.6,0.4-1,1-1h24.4c0.6,0,1,0.4,1,1v62.7
			C274.9,144.9,274.5,145.4,273.9,145.4z"/>
		<path class="st1" d="M271.1,102.5h-18.8c-0.6,0-1-0.4-1-1v-7.8c0-0.6,0.4-1,1-1h18.8c0.5,0,1,0.4,1,1v7.8
			C272.1,102.1,271.7,102.5,271.1,102.5z"/>
		<line class="st1" x1="253.3" y1="110.6" x2="253.3" y2="125.4"/>
		<line class="st1" x1="253.3" y1="129.5" x2="253.3" y2="135.7"/>
	</g>
	<g>
		<path class="st1" d="M306,145.4h-24.4c-0.5,0-1-0.4-1-1V81.6c0-0.6,0.5-1,1-1H306c0.5,0,1,0.4,1,1v62.7
			C307,144.9,306.6,145.4,306,145.4z"/>
		<path class="st1" d="M303.2,102.5h-18.8c-0.6,0-1-0.4-1-1v-7.8c0-0.6,0.4-1,1-1h18.8c0.5,0,1,0.4,1,1v7.8
			C304.2,102.1,303.8,102.5,303.2,102.5z"/>
		<line class="st1" x1="285.4" y1="110.6" x2="285.4" y2="125.4"/>
		<line class="st1" x1="285.4" y1="129.5" x2="285.4" y2="135.7"/>
	</g>
	<g>
		<path class="st1" d="M337.9,145.4h-24.4c-0.6,0-1-0.4-1-1V81.6c0-0.6,0.4-1,1-1h24.4c0.6,0,1,0.4,1,1v62.7
			C338.9,144.9,338.4,145.4,337.9,145.4z"/>
		<path class="st1" d="M335.1,102.5h-18.8c-0.5,0-1-0.4-1-1v-7.8c0-0.6,0.5-1,1-1h18.8c0.5,0,1,0.4,1,1v7.8
			C336.1,102.1,335.6,102.5,335.1,102.5z"/>
		<line class="st1" x1="317.2" y1="110.6" x2="317.2" y2="125.4"/>
		<line class="st1" x1="317.2" y1="129.5" x2="317.2" y2="135.7"/>
	</g>
	<g>
		<path class="st1" d="M370,145.4h-24.4c-0.5,0-1-0.4-1-1V81.6c0-0.6,0.5-1,1-1H370c0.5,0,1,0.4,1,1v62.7
			C371,144.9,370.5,145.4,370,145.4z"/>
		<path class="st1" d="M367.2,102.5h-18.8c-0.5,0-1-0.4-1-1v-7.8c0-0.6,0.5-1,1-1h18.8c0.6,0,1,0.4,1,1v7.8
			C368.2,102.1,367.7,102.5,367.2,102.5z"/>
		<line class="st1" x1="349.3" y1="110.6" x2="349.3" y2="125.4"/>
		<line class="st1" x1="349.3" y1="129.5" x2="349.3" y2="135.7"/>
	</g>
	<g>
		<path class="st1" d="M402,145.4h-24.4c-0.5,0-1-0.4-1-1V81.6c0-0.6,0.5-1,1-1H402c0.5,0,1,0.4,1,1v62.7
			C403,144.9,402.5,145.4,402,145.4z"/>
		<path class="st1" d="M399.2,102.5h-18.8c-0.6,0-1-0.4-1-1v-7.8c0-0.6,0.4-1,1-1h18.8c0.5,0,1,0.4,1,1v7.8
			C400.2,102.1,399.7,102.5,399.2,102.5z"/>
		<line class="st1" x1="381.3" y1="110.6" x2="381.3" y2="125.4"/>
		<line class="st1" x1="381.3" y1="129.5" x2="381.3" y2="135.7"/>
	</g>
	<g>
		<path class="st1" d="M434.1,145.4h-24.4c-0.6,0-1-0.4-1-1V81.6c0-0.6,0.4-1,1-1h24.4c0.6,0,1,0.4,1,1v62.7
			C435.1,144.9,434.6,145.4,434.1,145.4z"/>
		<path class="st1" d="M431.3,102.5h-18.8c-0.5,0-1-0.4-1-1v-7.8c0-0.6,0.5-1,1-1h18.8c0.5,0,1,0.4,1,1v7.8
			C432.3,102.1,431.8,102.5,431.3,102.5z"/>
		<line class="st1" x1="413.4" y1="110.6" x2="413.4" y2="125.4"/>
		<line class="st1" x1="413.4" y1="129.5" x2="413.4" y2="135.7"/>
	</g>
	<g>
		<path class="st2" d="M465.4,146.5h-24.1c-1.3,0-2.3-1-2.3-2.3V80.5l2.3,2.1v61.6h24.1v-35.8l2.3,2.8v33
			C467.6,145.5,466.6,146.5,465.4,146.5z"/>
	</g>
	<g>
		<path class="st2" d="M461.4,103.7h-17.3c-1.3,0-2.3-1-2.3-2.3v-7.5c0-1.3,1-2.3,2.3-2.3h6.4l2.2,2.3h-8.5v7.5h15.4L461.4,103.7z"
			/>
	</g>
	<line class="st1" x1="444.8" y1="110.6" x2="444.8" y2="125.4"/>
	<line class="st1" x1="444.8" y1="129.5" x2="444.8" y2="135.7"/>
	<g>
		<path class="st1" d="M160.7,427.9H53c-0.5,0-1-0.4-1-1V302.5c0-0.6,0.5-1,1-1h107.8c0.6,0,1,0.4,1,1v124.4
			C161.7,427.5,161.3,427.9,160.7,427.9z"/>
		<path class="st1" d="M140.8,330.1H64.1c-0.6,0-1-0.4-1-1v-13.5c0-0.6,0.5-1,1-1h76.7c0.6,0,1,0.4,1,1v13.5
			C141.8,329.7,141.3,330.1,140.8,330.1z"/>
		<line class="st1" x1="66.4" y1="346.3" x2="66.4" y2="395"/>
		<line class="st1" x1="66.4" y1="400.3" x2="66.4" y2="414"/>
	</g>
	<g>
		<path class="st1" d="M311,427.9H203.2c-0.5,0-1-0.4-1-1V302.5c0-0.6,0.5-1,1-1H311c0.5,0,1,0.4,1,1v124.4
			C312,427.5,311.5,427.9,311,427.9z"/>
		<path class="st1" d="M291,330.1h-76.7c-0.6,0-1-0.4-1-1v-13.5c0-0.6,0.4-1,1-1H291c0.6,0,1,0.4,1,1v13.5
			C292,329.7,291.6,330.1,291,330.1z"/>
		<line class="st1" x1="216.6" y1="346.3" x2="216.6" y2="395"/>
		<line class="st1" x1="216.6" y1="400.3" x2="216.6" y2="414"/>
	</g>
	<g>
		<path class="st1" d="M49.3,200.7l0.1-0.1L49.3,200.7L49.3,200.7z"/>
		<path class="st1" d="M79.3,202l-0.5-1.2C79,201.1,79.2,201.5,79.3,202z"/>
		<path class="st1" d="M79.3,202.4v40.3c0,1.6-1.3,2.8-2.8,2.8H51.6c-1.6,0-2.8-1.3-2.8-2.8v-40.3c0-0.4,0.1-0.8,0.3-1.1
			c0.1-0.2,7.8-13.8,7.8-13.8v-5.2h14.5v5.2l7.5,13.2l0.6,1.3c0,0,0,0,0,0.1C79.3,202.1,79.3,202.3,79.3,202.4z"/>
		<path class="st1" d="M79.3,202L79.3,202L79.3,202L79.3,202z"/>
		<path class="st1" d="M72.8,182.2H55.3c-0.6,0-1-0.5-1-1v-4.7c0-0.6,0.4-1,1-1h17.5c0.5,0,1,0.4,1,1v4.7
			C73.8,181.7,73.3,182.2,72.8,182.2z"/>
		<path class="st1" d="M52.2,195.6c0,0,2.6-0.6,3.9,1.4s3.6,2,4.7,1.3c1-0.7,0.9-2.6,3.2-2.9c2.3-0.2,3.2,0.1,4.4,1.9
			c1.1,1.7,3.4,1.9,4.6,0.7s0.9-3.1,2.6-3.4"/>
		<line class="st1" x1="53.1" y1="203.7" x2="53.1" y2="231.1"/>
		<line class="st1" x1="53.1" y1="236.2" x2="53.1" y2="241"/>
	</g>
	<g>
		<path class="st1" d="M84.4,200.7l0.1-0.1L84.4,200.7L84.4,200.7z"/>
		<path class="st1" d="M114.4,202l-0.5-1.2C114.2,201.1,114.4,201.5,114.4,202z"/>
		<path class="st1" d="M114.5,202.4v40.3c0,1.6-1.3,2.8-2.8,2.8h-25c-1.6,0-2.8-1.3-2.8-2.8v-40.3c0-0.4,0.1-0.8,0.3-1.1
			c0.1-0.2,7.8-13.8,7.8-13.8v-5.2h14.5v5.2l7.5,13.2l0.6,1.3c0,0,0,0,0,0.1C114.4,202.1,114.5,202.3,114.5,202.4z"/>
		<path class="st1" d="M114.5,202L114.5,202C114.4,202,114.4,202,114.5,202L114.5,202z"/>
		<path class="st1" d="M107.9,182.2H90.4c-0.5,0-1-0.5-1-1v-4.7c0-0.6,0.5-1,1-1h17.5c0.5,0,1,0.4,1,1v4.7
			C108.9,181.7,108.5,182.2,107.9,182.2z"/>
		<path class="st1" d="M87.3,195.6c0,0,2.6-0.6,3.9,1.4s3.6,2,4.7,1.3c1-0.7,0.9-2.6,3.2-2.9s3.2,0.1,4.4,1.9
			c1.1,1.7,3.4,1.9,4.6,0.7s0.9-3.1,2.6-3.4"/>
		<line class="st1" x1="88.2" y1="203.7" x2="88.2" y2="231.1"/>
		<line class="st1" x1="88.2" y1="236.2" x2="88.2" y2="241"/>
	</g>
	<g>
		<path class="st1" d="M119.4,200.7l0.1-0.1L119.4,200.7L119.4,200.7z"/>
		<path class="st1" d="M149.4,202l-0.5-1.2C149.2,201.1,149.3,201.5,149.4,202z"/>
		<path class="st1" d="M149.4,202.4v40.3c0,1.6-1.3,2.8-2.8,2.8h-24.9c-1.6,0-2.8-1.3-2.8-2.8v-40.3c0-0.4,0.1-0.8,0.3-1.1
			c0.1-0.2,7.8-13.8,7.8-13.8v-5.2h14.5v5.2l7.5,13.2l0.6,1.3c0,0,0,0,0,0.1C149.4,202.1,149.4,202.3,149.4,202.4z"/>
		<path class="st1" d="M149.4,202L149.4,202L149.4,202L149.4,202z"/>
		<path class="st1" d="M142.9,182.2h-17.5c-0.6,0-1-0.5-1-1v-4.7c0-0.6,0.4-1,1-1h17.5c0.5,0,1,0.4,1,1v4.7
			C143.9,181.7,143.4,182.2,142.9,182.2z"/>
		<path class="st1" d="M122.3,195.6c0,0,2.6-0.6,3.9,1.4s3.6,2,4.7,1.3c1-0.7,0.9-2.6,3.2-2.9s3.2,0.1,4.4,1.9
			c1.1,1.7,3.4,1.9,4.6,0.7c1.2-1.2,0.9-3.1,2.6-3.4"/>
		<line class="st1" x1="123.2" y1="203.7" x2="123.2" y2="231.1"/>
		<line class="st1" x1="123.2" y1="236.2" x2="123.2" y2="241"/>
	</g>
	<g>
		<path class="st1" d="M154.5,200.7l0.1-0.1L154.5,200.7L154.5,200.7z"/>
		<path class="st1" d="M184.5,202l-0.5-1.2C184.3,201.1,184.5,201.5,184.5,202z"/>
		<path class="st1" d="M184.6,202.4v40.3c0,1.6-1.3,2.8-2.8,2.8h-24.9c-1.6,0-2.8-1.3-2.8-2.8v-40.3c0-0.4,0.1-0.8,0.3-1.1
			c0.1-0.2,7.8-13.8,7.8-13.8v-5.2h14.5v5.2l7.5,13.2l0.6,1.3c0,0,0,0,0,0.1C184.6,202.1,184.6,202.3,184.6,202.4z"/>
		<path class="st1" d="M184.6,202L184.6,202C184.6,202,184.5,202,184.6,202L184.6,202z"/>
		<path class="st1" d="M178,182.2h-17.5c-0.5,0-1-0.5-1-1v-4.7c0-0.6,0.5-1,1-1H178c0.5,0,1,0.4,1,1v4.7
			C179,181.7,178.6,182.2,178,182.2z"/>
		<path class="st1" d="M157.4,195.6c0,0,2.6-0.6,3.9,1.4s3.6,2,4.7,1.3c1-0.7,0.9-2.6,3.2-2.9s3.2,0.1,4.4,1.9
			c1.1,1.7,3.4,1.9,4.6,0.7c1.2-1.2,0.9-3.1,2.6-3.4"/>
		<line class="st1" x1="158.3" y1="203.7" x2="158.3" y2="231.1"/>
		<line class="st1" x1="158.3" y1="236.2" x2="158.3" y2="241"/>
	</g>
	<g>
		<path class="st1" d="M213.2,200.7l0.1-0.1L213.2,200.7L213.2,200.7z"/>
		<path class="st1" d="M243.2,202l-0.5-1.2C243,201.1,243.1,201.5,243.2,202z"/>
		<path class="st1" d="M243.3,202.4v40.3c0,1.6-1.3,2.8-2.8,2.8h-24.9c-1.6,0-2.8-1.3-2.8-2.8v-40.3c0-0.4,0.1-0.8,0.3-1.1
			c0.1-0.2,7.8-13.8,7.8-13.8v-5.2h14.5v5.2l7.5,13.2l0.6,1.3c0,0,0,0,0,0.1C243.2,202.1,243.3,202.3,243.3,202.4z"/>
		<path class="st1" d="M243.3,202L243.3,202C243.2,202,243.2,202,243.3,202L243.3,202z"/>
		<path class="st1" d="M236.7,182.2h-17.5c-0.6,0-1-0.5-1-1v-4.7c0-0.6,0.4-1,1-1h17.5c0.6,0,1,0.4,1,1v4.7
			C237.7,181.7,237.3,182.2,236.7,182.2z"/>
		<path class="st1" d="M216.1,195.6c0,0,2.6-0.6,3.9,1.4s3.6,2,4.7,1.3c1-0.7,0.9-2.6,3.2-2.9s3.2,0.1,4.4,1.9
			c1.1,1.7,3.4,1.9,4.6,0.7c1.2-1.2,0.9-3.1,2.6-3.4"/>
		<line class="st1" x1="217" y1="203.7" x2="217" y2="231.1"/>
		<line class="st1" x1="217" y1="236.2" x2="217" y2="241"/>
	</g>
	<g>
		<path class="st1" d="M248.4,200.7l0.1-0.1L248.4,200.7L248.4,200.7z"/>
		<path class="st1" d="M278.4,202l-0.5-1.2C278.1,201.1,278.3,201.5,278.4,202z"/>
		<path class="st1" d="M278.4,202.4v40.3c0,1.6-1.3,2.8-2.8,2.8h-24.9c-1.6,0-2.8-1.3-2.8-2.8v-40.3c0-0.4,0.1-0.8,0.3-1.1
			c0.1-0.2,7.8-13.8,7.8-13.8v-5.2h14.5v5.2l7.5,13.2l0.6,1.3c0,0,0,0,0,0.1C278.4,202.1,278.4,202.3,278.4,202.4z"/>
		<path class="st1" d="M278.4,202L278.4,202L278.4,202L278.4,202z"/>
		<path class="st1" d="M271.8,182.2h-17.5c-0.6,0-1-0.5-1-1v-4.7c0-0.6,0.4-1,1-1h17.5c0.6,0,1,0.4,1,1v4.7
			C272.8,181.7,272.4,182.2,271.8,182.2z"/>
		<path class="st1" d="M251.2,195.6c0,0,2.6-0.6,3.9,1.4c1.3,2,3.6,2,4.7,1.3c1-0.7,0.9-2.6,3.2-2.9s3.2,0.1,4.4,1.9
			c1.1,1.7,3.4,1.9,4.6,0.7s0.9-3.1,2.6-3.4"/>
		<line class="st1" x1="252.1" y1="203.7" x2="252.1" y2="231.1"/>
		<line class="st1" x1="252.1" y1="236.2" x2="252.1" y2="241"/>
	</g>
	<g>
		<path class="st1" d="M283.3,200.7l0.1-0.1L283.3,200.7L283.3,200.7z"/>
		<path class="st1" d="M313.3,202l-0.5-1.2C313.1,201.1,313.3,201.5,313.3,202z"/>
		<path class="st1" d="M313.4,202.4v40.3c0,1.6-1.3,2.8-2.8,2.8h-24.9c-1.6,0-2.8-1.3-2.8-2.8v-40.3c0-0.4,0.1-0.8,0.3-1.1
			c0.1-0.2,7.8-13.8,7.8-13.8v-5.2h14.5v5.2l7.5,13.2l0.6,1.3c0,0,0,0,0,0.1C313.4,202.1,313.4,202.3,313.4,202.4z"/>
		<path class="st1" d="M313.4,202L313.4,202C313.4,202,313.3,202,313.4,202L313.4,202z"/>
		<path class="st1" d="M306.8,182.2h-17.5c-0.6,0-1-0.5-1-1v-4.7c0-0.6,0.4-1,1-1h17.5c0.6,0,1,0.4,1,1v4.7
			C307.8,181.7,307.4,182.2,306.8,182.2z"/>
		<path class="st1" d="M286.2,195.6c0,0,2.6-0.6,3.9,1.4s3.6,2,4.7,1.3c1-0.7,0.9-2.6,3.2-2.9s3.2,0.1,4.4,1.9
			c1.1,1.7,3.4,1.9,4.6,0.7s0.9-3.1,2.6-3.4"/>
		<line class="st1" x1="287.1" y1="203.7" x2="287.1" y2="231.1"/>
		<line class="st1" x1="287.1" y1="236.2" x2="287.1" y2="241"/>
	</g>
	<g>
		<path class="st1" d="M318.5,200.7l0.1-0.1L318.5,200.7L318.5,200.7z"/>
		<path class="st1" d="M348.5,202l-0.5-1.2C348.2,201.1,348.4,201.5,348.5,202z"/>
		<path class="st1" d="M348.5,202.4v40.3c0,1.6-1.3,2.8-2.8,2.8h-24.9c-1.6,0-2.8-1.3-2.8-2.8v-40.3c0-0.4,0.1-0.8,0.3-1.1
			c0.1-0.2,7.8-13.8,7.8-13.8v-5.2h14.5v5.2l7.5,13.2l0.6,1.3c0,0,0,0,0,0.1C348.5,202.1,348.5,202.3,348.5,202.4z"/>
		<path class="st1" d="M348.5,202L348.5,202L348.5,202L348.5,202z"/>
		<path class="st1" d="M342,182.2h-17.5c-0.6,0-1-0.5-1-1v-4.7c0-0.6,0.4-1,1-1H342c0.6,0,1,0.4,1,1v4.7
			C343,181.7,342.5,182.2,342,182.2z"/>
		<path class="st1" d="M321.3,195.6c0,0,2.6-0.6,3.9,1.4s3.6,2,4.7,1.3c1-0.7,0.9-2.6,3.2-2.9s3.2,0.1,4.4,1.9
			c1.1,1.7,3.4,1.9,4.6,0.7s0.9-3.1,2.6-3.4"/>
		<line class="st1" x1="322.3" y1="203.7" x2="322.3" y2="231.1"/>
		<line class="st1" x1="322.3" y1="236.2" x2="322.3" y2="241"/>
	</g>
	<g>
		<path class="st1" d="M358.4,200.7l0.1-0.1L358.4,200.7L358.4,200.7z"/>
		<path class="st1" d="M388.4,202l-0.5-1.2C388.1,201.1,388.3,201.5,388.4,202z"/>
		<path class="st1" d="M388.4,202.4v40.3c0,1.6-1.3,2.8-2.8,2.8h-24.9c-1.6,0-2.8-1.3-2.8-2.8v-40.3c0-0.4,0.1-0.8,0.3-1.1
			c0.1-0.2,7.8-13.8,7.8-13.8v-5.2h14.5v5.2l7.5,13.2l0.6,1.3c0,0,0,0,0,0.1C388.4,202.1,388.4,202.3,388.4,202.4z"/>
		<path class="st1" d="M388.4,202L388.4,202L388.4,202L388.4,202z"/>
		<path class="st1" d="M381.9,182.2h-17.5c-0.6,0-1-0.5-1-1v-4.7c0-0.6,0.4-1,1-1h17.5c0.5,0,1,0.4,1,1v4.7
			C382.9,181.7,382.4,182.2,381.9,182.2z"/>
		<path class="st1" d="M361.2,195.6c0,0,2.6-0.6,3.9,1.4s3.6,2,4.7,1.3c1-0.7,0.9-2.6,3.2-2.9s3.2,0.1,4.4,1.9
			c1.1,1.7,3.4,1.9,4.6,0.7s0.9-3.1,2.6-3.4"/>
		<line class="st1" x1="362.2" y1="203.7" x2="362.2" y2="231.1"/>
		<line class="st1" x1="362.2" y1="236.2" x2="362.2" y2="241"/>
	</g>
	<g>
		<path class="st1" d="M393.5,200.7l0.1-0.1L393.5,200.7L393.5,200.7z"/>
		<path class="st1" d="M423.5,202l-0.5-1.2C423.3,201.1,423.4,201.5,423.5,202z"/>
		<path class="st1" d="M423.5,202.4v40.3c0,1.6-1.3,2.8-2.8,2.8h-24.9c-1.6,0-2.8-1.3-2.8-2.8v-40.3c0-0.4,0.1-0.8,0.3-1.1
			c0.1-0.2,7.8-13.8,7.8-13.8v-5.2h14.5v5.2l7.5,13.2l0.6,1.3c0,0,0,0,0,0.1C423.5,202.1,423.5,202.3,423.5,202.4z"/>
		<path class="st1" d="M423.5,202L423.5,202L423.5,202L423.5,202z"/>
		<path class="st1" d="M417,182.2h-17.5c-0.6,0-1-0.5-1-1v-4.7c0-0.6,0.4-1,1-1H417c0.5,0,1,0.4,1,1v4.7
			C418,181.7,417.5,182.2,417,182.2z"/>
		<path class="st1" d="M396.4,195.6c0,0,2.6-0.6,3.9,1.4s3.6,2,4.7,1.3c1-0.7,0.9-2.6,3.2-2.9s3.2,0.1,4.4,1.9
			c1.1,1.7,3.4,1.9,4.6,0.7s0.9-3.1,2.6-3.4"/>
		<line class="st1" x1="397.3" y1="203.7" x2="397.3" y2="231.1"/>
		<line class="st1" x1="397.3" y1="236.2" x2="397.3" y2="241"/>
	</g>
	<g>
		<path class="st1" d="M428.5,200.7l0.1-0.1L428.5,200.7L428.5,200.7z"/>
		<path class="st1" d="M458.5,202l-0.5-1.2C458.2,201.1,458.4,201.5,458.5,202z"/>
		<path class="st1" d="M458.5,202.4v40.3c0,1.6-1.3,2.8-2.8,2.8h-24.9c-1.6,0-2.8-1.3-2.8-2.8v-40.3c0-0.4,0.1-0.8,0.3-1.1
			c0.1-0.2,7.8-13.8,7.8-13.8v-5.2h14.5v5.2l7.5,13.2l0.6,1.3c0,0,0,0,0,0.1C458.5,202.1,458.5,202.3,458.5,202.4z"/>
		<path class="st1" d="M458.5,202L458.5,202L458.5,202L458.5,202z"/>
		<path class="st1" d="M452,182.2h-17.5c-0.5,0-1-0.5-1-1v-4.7c0-0.6,0.5-1,1-1H452c0.5,0,1,0.4,1,1v4.7
			C453,181.7,452.5,182.2,452,182.2z"/>
		<path class="st1" d="M431.4,195.6c0,0,2.6-0.6,3.9,1.4s3.6,2,4.7,1.3c1-0.7,0.9-2.6,3.2-2.9s3.2,0.1,4.4,1.9
			c1.1,1.7,3.4,1.9,4.6,0.7s0.9-3.1,2.6-3.4"/>
		<line class="st1" x1="432.3" y1="203.7" x2="432.3" y2="231.1"/>
		<line class="st1" x1="432.3" y1="236.2" x2="432.3" y2="241"/>
	</g>
	<g>
		<path class="st1" d="M463.6,200.7l0.1-0.1L463.6,200.7L463.6,200.7z"/>
		<path class="st1" d="M493.6,202l-0.5-1.2C493.4,201.1,493.6,201.5,493.6,202z"/>
		<path class="st1" d="M493.7,202.4v40.3c0,1.6-1.3,2.8-2.8,2.8H466c-1.6,0-2.8-1.3-2.8-2.8v-40.3c0-0.4,0.1-0.8,0.3-1.1
			c0.1-0.2,7.8-13.8,7.8-13.8v-5.2h14.5v5.2l7.5,13.2l0.6,1.3c0,0,0,0,0,0.1C493.7,202.1,493.7,202.3,493.7,202.4z"/>
		<path class="st1" d="M493.7,202L493.7,202C493.6,202,493.6,202,493.7,202L493.7,202z"/>
		<path class="st1" d="M487.1,182.2h-17.5c-0.5,0-1-0.5-1-1v-4.7c0-0.6,0.5-1,1-1h17.5c0.5,0,1,0.4,1,1v4.7
			C488.1,181.7,487.7,182.2,487.1,182.2z"/>
		<path class="st1" d="M466.5,195.6c0,0,2.6-0.6,3.9,1.4s3.6,2,4.7,1.3c1-0.7,0.9-2.6,3.2-2.9s3.2,0.1,4.4,1.9
			c1.1,1.7,3.4,1.9,4.6,0.7s0.9-3.1,2.6-3.4"/>
		<line class="st1" x1="467.4" y1="203.7" x2="467.4" y2="231.1"/>
		<line class="st1" x1="467.4" y1="236.2" x2="467.4" y2="241"/>
	</g>
	<line class="st1" x1="52.2" y1="428" x2="471.2" y2="428"/>
</g>
<rect class="st3" width="525" height="542"/>
<circle class="st3" cx="261.4" cy="276.7" r="261.7"/>
<rect x="-0.3" class="st3" width="524.3" height="542"/>
</svg>
