<?xml version="1.0" encoding="utf-8"?>
<!-- Generator: Adobe Illustrator 22.0.1, SVG Export Plug-In . SVG Version: 6.00 Build 0)  -->
<svg version="1.1" id="Layer_1" xmlns="http://www.w3.org/2000/svg" xmlns:xlink="http://www.w3.org/1999/xlink" x="0px" y="0px"
	 viewBox="0 0 525 525" style="enable-background:new 0 0 525 525;" xml:space="preserve">
<style type="text/css">
	.st0{fill:#F5E1ED;}
	.st1{fill:none;stroke:#E0BDD4;stroke-width:2;stroke-linecap:round;stroke-linejoin:round;stroke-miterlimit:10;}
	.st2{fill:none;}
</style>
<circle class="st0" cx="262.4" cy="262.6" r="260.8"/>
<path class="st1" d="M461.7,112.8H63.4c-1.8,0-3.4-1.5-3.4-3.4v-4.5c0-1.8,1.5-3.4,3.4-3.4h398.3c1.8,0,3.4,1.5,3.4,3.4v4.5
	C465,111.2,463.5,112.8,461.7,112.8z"/>
<g>
	<path class="st1" d="M319.2,102.2c0,0,14.7-5.4,11,13.7c0,0-2.3,4.5-5.2,4.5l-27.9,22.9c0,0-12.7,8.5-15.6,11.4
		s-17.8,125.2-17.8,125.2s12.8,4.2,18.6,1.8L297,178.3"/>
	<path class="st1" d="M303.8,137.9c0,0,5,14.2,19.9,15.4s25.2-15.4,25.2-15.4"/>
	<path class="st1" d="M290.6,223.5c0,0,0.7,99.5,0.7,102.9s8.3,6.7,13.2,1.2c4.9-5.5,11.8-2.7,12.9,0.2s12.5,4.6,14.9-0.5
		s12.4-4.3,15.1,0.9c2.7,5.1,13,3.4,14.9-1.4"/>
	<path class="st1" d="M356.3,178.3L371,281.8c5.8,2.4,18.6-1.8,18.6-1.8s-14.9-122.3-17.8-125.2S325,120.4,325,120.4"/>
	<path class="st1" d="M362.7,223.5c0,0-0.3,58.7-0.6,103.2"/>
	<polyline class="st1" points="307.5,144.4 325,129.8 344.7,143.2 	"/>
</g>
<g>
	<g id="XMLID_187_">
		<g>
			<path class="st0" d="M397.7,144.4c2.7-3.4,3.8-6.5,3.8-6.5l3.3,2.7l17.9,11.9l13.4,30.7c0,0-11.4,12.5-25.5,9l5.9,118.7
				c0,0-52.3,16.5-85.3,0L345,189.7c0,0-13.7,3.7-22.1-4.7l18.1-38.1l9.5-5c1.9-1.4,3.9-2.8,5.8-4.2l0.1,0.2c0,0,1.5,2.4,4.2,5.4
				c4.3,4.7,11.8,10.8,21,10C389.5,152.6,394.6,148.3,397.7,144.4z"/>
		</g>
		<g>
			<path class="st1" d="M356.2,137.7c-2,1.4-3.9,2.9-5.8,4.2l-9.5,5L322.8,185c8.4,8.4,22.1,4.7,22.1,4.7L331,310.8
				c33,16.5,85.3,0,85.3,0l-5.9-118.7c14.1,3.5,25.5-9,25.5-9l-13.4-30.7l-17.9-11.9l-3.3-2.7L380,120.3
				C380.2,120.4,368.1,129.1,356.2,137.7z"/>
			<path class="st1" d="M397.7,144.4c-3,3.9-8.2,8.3-16.2,8.9c-9.2,0.7-16.6-5.3-21-10l19.6-13.4L397.7,144.4z"/>
			<path class="st1" d="M380.2,120.4c-2.9,0-5.2-4.4-5.2-4.4c-3.7-19.1,11-13.8,11-13.8"/>
			<path class="st1" d="M360.5,143.2c-2.7-2.9-4.2-5.4-4.2-5.4"/>
			<path class="st1" d="M401.4,137.9c0,0-1.1,3.1-3.8,6.5"/>
		</g>
	</g>
</g>
<g>
	<g id="XMLID_198_">
		<g>
			<path class="st0" d="M126.2,120.4l-21.3,17.5c0,0,1.1,3.1,3.8,6.5l17.5-14.5l19.6,13.4c2.7-2.9,4.2-5.4,4.2-5.4l0.1-0.2
				C138.2,129.1,126.2,120.4,126.2,120.4z"/>
		</g>
		<g>
			<path class="st1" d="M104.9,137.9l-3.3,2.7l-17.9,11.9l-13.4,30.7c0,0,11.4,12.5,25.5,9L90,310.8c0,0,52.3,16.5,85.3,0
				l-13.8-121.2c0,0,13.7,3.7,22.1-4.7l-18.1-38.1l-9.5-5c-1.9-1.4-3.9-2.8-5.8-4.2c-11.9-8.6-23.9-17.3-23.9-17.3L104.9,137.9z"/>
			<path class="st1" d="M108.6,144.4l17.5-14.5l19.6,13.4c-4.3,4.7-11.8,10.8-21,10C116.8,152.6,111.7,148.3,108.6,144.4z"/>
			<path class="st1" d="M120.4,102.2c0,0,14.7-5.4,11,13.8c0,0-2.3,4.4-5.2,4.4"/>
			<path class="st1" d="M150,137.9c0,0-1.5,2.4-4.2,5.4"/>
			<path class="st1" d="M108.6,144.4c-2.7-3.4-3.8-6.5-3.8-6.5"/>
		</g>
	</g>
</g>
<g>
	<g id="XMLID_199_">
		<g>
			<path class="st0" d="M149.1,223.5l-8.3,58.2c-5.8,2.4-18.6-1.8-18.6-1.8s14.9-122.3,17.8-125.2s15.6-11.4,15.6-11.4l6.7-5.5
				c0,0,1.1,3.1,3.8,6.5c3.1,3.9,8.2,8.3,16.2,8.9c9.2,0.7,16.6-5.3,21-10c2.7-2.9,4.2-5.4,4.2-5.4l0.1-0.2
				c10.8,7.8,21.4,15.7,22.8,17.1c2.9,2.9,17.8,125.2,17.8,125.2s-12.8,4.2-18.6,1.8l-8.2-58.2c0,2.1-0.9,147-0.9,152
				c0,4.5-8.2,9.1-14.1,3.7c-0.2-0.3-0.3-0.7-0.5-1.1c-2.3-6.5-10-8.4-13.6-4l0,0c-0.6,0.7-1.1,1.6-1.4,2.7
				c-2.4,7.6-13.8,5-14.9,0.8c-1.1-4.2-7.9-8.4-12.9-0.3c-4.9,8.1-13.2,3.2-13.2-1.8C149.8,370.6,149.1,223.5,149.1,223.5z"/>
		</g>
		<g>
			<path class="st1" d="M177.7,102.2c0,0,14.7-5.4,11,13.8c0,0-2.3,4.4-5.2,4.4l-21.3,17.5l-6.7,5.5c0,0-12.7,8.5-15.6,11.4
				C137,157.7,122.1,280,122.1,280s12.8,4.2,18.6,1.8l8.3-58.2l6.4-45.2"/>
			<path class="st1" d="M162.2,137.9c0,0,1.1,3.1,3.8,6.5c3.1,3.9,8.2,8.3,16.2,8.9c9.2,0.7,16.6-5.3,21-10c2.7-2.9,4.2-5.4,4.2-5.4
				"/>
			<path class="st1" d="M192.2,374.1c3.6-4.4,11.3-2.5,13.6,4c0.1,0.4,0.3,0.7,0.5,1.1c3.2,6.3,12.7,3.6,14.5-3.2"/>
			<path class="st1" d="M149.1,223.5c0,0,0.7,147,0.7,152s8.2,10,13.2,1.8c4.9-8.1,11.8-3.9,12.9,0.3c1.1,4.2,12.5,6.8,14.9-0.8
				c0.3-1.1,0.8-2,1.4-2.7"/>
			<path class="st1" d="M221.2,223.6l8.2,58.2c5.8,2.4,18.6-1.8,18.6-1.8s-14.9-122.3-17.8-125.2c-1.4-1.4-12-9.2-22.8-17.1
				c-11.9-8.6-23.9-17.3-23.9-17.3"/>
			<line class="st1" x1="214.8" y1="178.3" x2="221.2" y2="223.5"/>
			<path class="st1" d="M221.2,223.5L221.2,223.5c0,2.1-0.9,147.1-0.9,152c0,4.5-8.2,9.1-14.1,3.7c-0.6-0.5-1.1-1.1-1.6-1.8
				c-4.1-5.6-9.2-5.3-12.5-3.2l0,0c-1.4,0.9-2.5,2.2-2.9,3.5"/>
			<polyline class="st1" points="166,144.4 183.5,129.8 203.2,143.2 			"/>
		</g>
	</g>
</g>
<g id="XMLID_197_">
	<g>
		<path class="st0" d="M465.7,155.8c-0.9,25.6,8.2,39.2,8.2,39.2l4.3,88.5c-12.6-5.4-25.8-6-38.9,1.1c-13.1,7-35.4-1.9-35.4-1.9
			c0-11.3,0.5-85.3,0.5-85.3s2.1-3.7,3.2-13.6c0.7-6.3-2-18.8-4.1-27.2c-1.2-5-2.3-8.5-2.3-8.5c0.9-0.6,1.5-1,1.5-1l4.6-3.8l2.4,8.4
			l8.5,29.4c0,0,17.8,9.9,19.7,16.3c0,0,10-11.2,18.6-16.6c0,0-1.7-14.4,3.2-30.2c0.7-2.3,1.6-4.7,2.6-7.1l0.1-0.1
			c1.4,1,2.8,2,4.1,3C466,149.7,465.8,152.8,465.7,155.8z"/>
		<path class="st0" d="M473.8,151.8c0,0,3.7,3.6,1.3,6c-2.5,2.5-6.3,0-6.3,0l-3.1-2c0.1-3,0.3-6.2,0.8-9.5
			C469.1,148.3,471.6,150.1,473.8,151.8z"/>
		<path class="st0" d="M462.3,143.3l-0.1,0.1c-1,2.4-1.9,4.7-2.6,7.1l-26.7-18.2l-23.3,19.3l-2.4-8.4l25.8-21.1
			C432.9,122,448.4,133.2,462.3,143.3z"/>
		<path class="st0" d="M401,148c0,0,1,3.5,2.3,8.5l0,0c0,0-3.7,4.4-7.9,1.4c-4.3-3.1,1.6-7,1.6-7C398.6,149.6,400,148.6,401,148z"/>
	</g>
	<g>
		<path class="st1" d="M426.6,102.3c0,0,15.9-5.8,12,14.9c0,0-2.5,4.8-5.7,4.8l-25.8,21.1l-4.6,3.8c0,0-0.6,0.4-1.5,1
			c-1,0.7-2.5,1.7-4.1,2.8c0,0-5.8,4-1.6,7c4.3,3,7.9-1.4,7.9-1.4"/>
		<path class="st1" d="M465.7,155.8L465.7,155.8l3.1,2c0,0,3.8,2.5,6.3,0s-1.3-6-1.3-6c-2.3-1.7-4.8-3.5-7.4-5.4c-1.3-1-2.7-2-4.1-3
			c-13.9-10.1-29.4-21.3-29.4-21.3"/>
		<polyline class="st1" points="409.6,151.6 432.9,132.3 459.6,150.5 		"/>
		<path class="st1" d="M401,148c0,0,1,3.5,2.3,8.5c2.1,8.4,4.8,21,4.1,27.2c-1.1,9.9-3.2,13.6-3.2,13.6s-0.5,74-0.5,85.3
			c0,0,22.3,9,35.4,1.9s26.3-6.5,38.9-1.1l-4.3-88.5c0,0-9.1-13.6-8.2-39.2c0.1-3,0.3-6.2,0.8-9.5l0,0"/>
		<path class="st1" d="M407.1,143.2l2.4,8.4L418,181c0,0,17.8,9.9,19.7,16.3c0,0,10-11.2,18.6-16.6c0,0-1.7-14.4,3.2-30.2
			c0.7-2.3,1.6-4.7,2.6-7.1"/>
	</g>
</g>
<line class="st1" x1="78.6" y1="181.5" x2="86.4" y2="161.4"/>
<line class="st1" x1="146.5" y1="158.5" x2="159.2" y2="150.2"/>
<line class="st1" x1="442.7" y1="202.8" x2="454.4" y2="192"/>
<line class="st1" x1="432.9" y1="201.4" x2="421.6" y2="193.1"/>
<rect class="st2" width="525" height="525"/>
<circle class="st2" cx="262.4" cy="263.6" r="260.8"/>
<rect y="1" class="st2" width="525" height="525"/>
</svg>
