<?xml version="1.0" encoding="utf-8"?>
<!-- Generator: Adobe Illustrator 22.0.1, SVG Export Plug-In . SVG Version: 6.00 Build 0)  -->
<svg version="1.1" id="Layer_1" xmlns="http://www.w3.org/2000/svg" xmlns:xlink="http://www.w3.org/1999/xlink" x="0px" y="0px"
	 viewBox="0 0 525 525" style="enable-background:new 0 0 525 525;" xml:space="preserve">
<style type="text/css">
	.st0{fill:#F5E1ED;}
	.st1{fill:#E0BDD4;}
	.st2{fill:none;stroke:#E0BDD4;stroke-width:2;stroke-miterlimit:10;}
	.st3{fill:none;stroke:#E0BDD4;stroke-width:2;stroke-linecap:round;stroke-linejoin:round;stroke-miterlimit:10;}
	.st4{fill:none;stroke:#E0BDD4;stroke-width:2;stroke-linejoin:round;stroke-miterlimit:10;}
	.st5{fill:none;}
</style>
<g>
	<path class="st0" d="M96.7,61.5C142,24,200.1,1.4,263.4,1.4c144.1,0,260.9,116.8,260.9,260.9s-116.8,261-260.9,261
		S2.5,406.4,2.5,262.3C2.5,181.6,39.2,109.4,96.7,61.5"/>
	<g>
		<path class="st1" d="M512,342.1l-2.7,8c6.7-58.1-5.1-84.6-15.8-96.4c-10-11.1-20.9-11.2-21.2-11.2l0,0H6.5v-2.3h465.6
			c0.5,0,12.1-0.1,22.9,11.9C506.1,264.2,518.4,291.7,512,342.1z"/>
	</g>
	<g>
		<path class="st1" d="M120.7,160.6H47.8c-1.3,0-2.3-1-2.3-2.3v-39.4l2.3-3.5v42.9h72.9V55.1h-15.9l3.1-2.3h12.8
			c1.3,0,2.3,1,2.3,2.3v103.2C123,159.6,122,160.6,120.7,160.6z"/>
	</g>
	<path class="st2" d="M276.8,129.1H154.6c-0.6,0-1-0.4-1-1v-73c0-0.5,0.4-1,1-1h122.1c0.5,0,1,0.5,1,1v73
		C277.8,128.6,277.3,129.1,276.8,129.1z"/>
	<path class="st2" d="M270.2,122.5H161.3c-0.6,0-1-0.5-1-1V61.1c0-0.5,0.4-1,1-1h108.8c0.6,0,1,0.5,1,1v60.3
		C271.2,122,270.7,122.5,270.2,122.5z"/>
	<g>
		<path class="st1" d="M114.4,153.2H54c-1.3,0-2.3-1-2.3-2.3v-41.1l2.3-3.2v44.3h60.4V62.5H95.6l2.8-2.3h16c1.3,0,2.3,1,2.3,2.3
			v88.4C116.8,152.1,115.7,153.2,114.4,153.2z"/>
	</g>
	<g>
		<path class="st1" d="M428.4,194.5h-97c-1.3,0-2.3-1-2.3-2.3v-137c0-1.3,1-2.3,2.3-2.3h87.7l3,2.3h-90.7v136.9h97v-132l2.3,2v130.1
			C430.7,193.4,429.7,194.5,428.4,194.5z"/>
	</g>
	<path class="st2" d="M421.8,185.1h-83.5c-0.5,0-1-0.5-1-1V62.5c0-0.6,0.5-1,1-1h83.5c0.5,0,1,0.4,1,1v121.6
		C422.8,184.6,422.3,185.1,421.8,185.1z"/>
	<path class="st3" d="M97.9,305.8c0,0,16.6,16.2,20.6,42.6c4.1,26.3-0.3,63.8,2,73.6c2.4,9.8-10.8,3-18.2-26.4
		S95.9,311.5,97.9,305.8z"/>
	<path class="st4" d="M97.9,305.8c0,0,42.8-7.7,74.6-2.2s46.3,2.2,46.3,2.2s30.8,73.6,15.8,112.9c-2.1,5.6-25.3,10.8-69.4,10.8
		c-43.4,0-45.6-3.4-45.6-3.4"/>
	<line class="st2" x1="108" y1="143.6" x2="108" y2="115.8"/>
	<line class="st2" x1="108" y1="110.5" x2="108" y2="100.6"/>
	<line class="st2" x1="166.3" y1="66.8" x2="194.3" y2="66.8"/>
	<line class="st2" x1="201.5" y1="66.8" x2="212.1" y2="66.8"/>
	<line class="st2" x1="415.1" y1="68.3" x2="415.1" y2="106.3"/>
	<line class="st2" x1="415.1" y1="111.5" x2="415.1" y2="123.7"/>
	<g>
		<path class="st1" d="M466.6,426.1l-2.3,2.8v-50.1c0-0.2-0.9-27.9,23.4-30c18.7-1.6,19.5,0.2,21.8,0.8l-0.8,2.2
			c-0.9,0.2-2.1-2.5-20.8-0.7c-22,2.1-21.3,26.6-21.2,27.6L466.6,426.1z"/>
	</g>
	<g>
		<path class="st1" d="M472.3,418.7l-2.3,3.1v-39.3c0-0.2-0.7-26.2,20.3-28.3c8.8-0.9,17.3,0.4,17.3,0.4l-0.8,2.2
			c0,0-8.7-0.9-16.3-0.2c-18.9,1.7-18.2,25.7-18.2,25.9V418.7z"/>
	</g>
	<path class="st2" d="M467.7,365.5c0,0,3.4-14.6,8.1-19.3s28.3-8.5,35.1-5.5"/>
	<line class="st2" x1="389.1" y1="276.7" x2="446.9" y2="276.7"/>
	<line class="st2" x1="455" y1="276.7" x2="478.6" y2="276.7"/>
	<line class="st2" x1="121.9" y1="275.2" x2="63.3" y2="275.2"/>
	<line class="st2" x1="52.9" y1="275.2" x2="31.4" y2="275.2"/>
	<line class="st2" x1="24.3" y1="275.2" x2="2.6" y2="275.2"/>
	<path class="st2" d="M475.5,145.2c-3.6,4.2-8.9,6.8-14.8,6.8c-10.8,0-19.5-8.7-19.5-19.5c0-5.3,2.1-10,5.4-13.5"/>
	<polyline class="st2" points="463,94.7 440,113 482.3,151.4 492.3,137.8 	"/>
	<circle class="st5" cx="262.8" cy="261.8" r="260.9"/>
</g>
<g>
	<polygon class="st1" points="105.6,436.8 69.5,436.8 67.4,434.5 104.3,434.5 	"/>
</g>
<g>
	<polygon class="st1" points="457.4,436.8 423.2,436.8 424.8,434.5 459.5,434.5 	"/>
</g>
<line class="st2" x1="69.3" y1="435.7" x2="450.3" y2="435.7"/>
<rect class="st5" width="525" height="525"/>
</svg>
