<?xml version="1.0" encoding="utf-8"?>
<!-- Generator: Adobe Illustrator 22.0.1, SVG Export Plug-In . SVG Version: 6.00 Build 0)  -->
<svg version="1.1" id="Layer_2_1_" xmlns="http://www.w3.org/2000/svg" xmlns:xlink="http://www.w3.org/1999/xlink" x="0px" y="0px"
	 viewBox="0 0 525 550" style="enable-background:new 0 0 525 550;" xml:space="preserve">
<style type="text/css">
	.st0{fill:url(#SVGID_1_);}
	.st1{fill:url(#SVGID_2_);}
	.st2{fill:#51062A;}
	.st3{fill:none;stroke:#961E4C;stroke-width:3;stroke-miterlimit:10;}
	.st4{fill:#F8AD84;}
	.st5{opacity:0.79;fill:url(#SVGID_3_);enable-background:new    ;}
	.st6{fill:#81C9BD;}
	.st7{fill:#67B2AC;}
	.st8{opacity:0.65;fill:url(#SVGID_4_);enable-background:new    ;}
	.st9{opacity:0.65;fill:url(#SVGID_5_);enable-background:new    ;}
	.st10{fill:url(#SVGID_6_);}
	.st11{fill:#E89972;}
	.st12{fill:#DD8C68;}
	.st13{fill:#BD3624;}
	.st14{fill:#FFFFFF;}
	.st15{fill:#DB7556;}
	.st16{fill:url(#SVGID_7_);}
	.st17{fill:#6E0001;}
	.st18{fill:#961E4C;}
	.st19{opacity:0.47;fill:url(#SVGID_8_);enable-background:new    ;}
	.st20{opacity:0.79;fill:url(#SVGID_9_);enable-background:new    ;}
	.st21{fill:#F7E2EA;}
	.st22{fill:url(#SVGID_10_);}
	.st23{fill:#E5CAD5;}
	.st24{fill:#F5E1ED;}
	.st25{fill:none;stroke:#E0BDD4;stroke-width:2;stroke-linecap:round;stroke-linejoin:round;stroke-miterlimit:10;}
	.st26{fill:#E2C3D7;}
	.st27{fill:none;stroke:#E0BDD4;stroke-linecap:round;stroke-linejoin:round;stroke-miterlimit:10;}
	.st28{opacity:0.96;fill:url(#SVGID_11_);enable-background:new    ;}
	.st29{fill:#8ED6C8;}
	.st30{opacity:0.48;fill:url(#SVGID_12_);enable-background:new    ;}
	.st31{fill:#663B4F;}
	.st32{fill:#84596E;}
	.st33{fill:#492E39;}
	.st34{opacity:0.99;fill:url(#SVGID_13_);enable-background:new    ;}
	.st35{opacity:0.99;fill:url(#SVGID_14_);enable-background:new    ;}
	.st36{fill:none;stroke:#F8AD84;stroke-miterlimit:10;}
	.st37{opacity:0.76;fill:url(#SVGID_15_);enable-background:new    ;}
	.st38{opacity:0.49;fill:url(#SVGID_16_);enable-background:new    ;}
	.st39{opacity:0.99;fill:url(#SVGID_17_);enable-background:new    ;}
	.st40{fill:#EDDDD6;}
	.st41{fill:#D6E7E8;}
	.st42{opacity:0.79;fill:url(#SVGID_18_);enable-background:new    ;}
	.st43{fill:url(#SVGID_19_);}
	.st44{fill:url(#SVGID_20_);}
	.st45{fill:url(#SVGID_21_);}
	.st46{fill:url(#SVGID_22_);}
	.st47{fill:url(#SVGID_23_);}
	.st48{fill:url(#SVGID_24_);}
	.st49{fill:url(#SVGID_25_);}
	.st50{fill:url(#SVGID_26_);}
	.st51{opacity:0.53;fill:url(#SVGID_27_);enable-background:new    ;}
	.st52{fill:#FFC2B6;}
	.st53{opacity:0.61;fill:#FFFFFF;enable-background:new    ;}
	.st54{opacity:0.61;fill:url(#SVGID_28_);enable-background:new    ;}
	.st55{fill:#DEA3E2;}
	.st56{fill:#C581CC;}
	.st57{fill:url(#SVGID_29_);}
	.st58{fill:#80D680;}
	.st59{fill:#67B77E;}
	.st60{fill:#4C9363;}
	.st61{fill:#A7EAA7;}
	.st62{opacity:0.38;fill:#B3FFFF;enable-background:new    ;}
	.st63{opacity:0.99;fill:url(#SVGID_30_);enable-background:new    ;}
	.st64{fill:#57A074;}
	.st65{fill:#90D6B1;}
	.st66{fill:#3E8C5A;}
	.st67{fill:#98E2C2;}
	.st68{fill:#61B57E;}
	.st69{fill:#DD7F3E;}
	.st70{fill:#D16C28;}
	.st71{fill:#AF561B;}
	.st72{fill:#FFF899;}
	.st73{opacity:0.28;}
	.st74{fill:#FFE8D9;}
	.st75{fill:#FFCEB3;}
	.st76{opacity:0.38;fill:url(#SVGID_31_);enable-background:new    ;}
	.st77{fill:url(#SVGID_32_);}
	.st78{fill:url(#SVGID_33_);}
	.st79{opacity:0.32;fill:url(#SVGID_34_);enable-background:new    ;}
	.st80{fill:url(#SVGID_35_);}
	.st81{fill:url(#SVGID_36_);}
	.st82{opacity:0.32;fill:url(#SVGID_37_);enable-background:new    ;}
	.st83{fill:#628F99;}
	.st84{fill:#4C7984;}
	.st85{fill:url(#SVGID_38_);}
	.st86{fill:#AD519C;}
	.st87{fill:url(#SVGID_39_);}
	.st88{fill:#92439B;}
	.st89{fill:#F4F4F4;}
	.st90{fill:url(#SVGID_40_);}
	.st91{fill:url(#SVGID_41_);}
	.st92{opacity:0.54;fill:url(#SVGID_42_);enable-background:new    ;}
	.st93{fill:url(#SVGID_43_);}
	.st94{opacity:0.54;fill:url(#SVGID_44_);enable-background:new    ;}
	.st95{fill:url(#SVGID_45_);}
	.st96{fill:url(#SVGID_46_);}
	.st97{fill:url(#SVGID_47_);}
	.st98{fill:url(#SVGID_48_);}
	.st99{fill:url(#SVGID_49_);}
	.st100{fill:url(#SVGID_50_);}
	.st101{fill:url(#SVGID_51_);}
	.st102{fill:url(#SVGID_52_);}
	.st103{fill:url(#SVGID_53_);}
	.st104{fill:url(#SVGID_54_);}
	.st105{fill:url(#SVGID_55_);}
	.st106{fill:url(#SVGID_56_);}
	.st107{fill:url(#SVGID_57_);}
	.st108{fill:url(#SVGID_58_);}
	.st109{fill:url(#SVGID_59_);}
	.st110{fill:url(#SVGID_60_);}
	.st111{fill:url(#SVGID_61_);}
	.st112{fill:none;}
</style>
<g id="Layer_2_2_">
	<g>
		<g id="XMLID_114_">
			
				<linearGradient id="SVGID_1_" gradientUnits="userSpaceOnUse" x1="273.5706" y1="935.5608" x2="260.651" y2="775.0447" gradientTransform="matrix(1 0 0 1 0 -472)">
				<stop  offset="0" style="stop-color:#992183"/>
				<stop  offset="1" style="stop-color:#582978"/>
			</linearGradient>
			<path class="st0" d="M263.9,371.5c0,0-1.8-0.3-4-1.4c-2.5,61.8-54.8,91.6-57.2,73.4c-16.5-99.7-9.5-103.1-1.9-121.3
				c1.7-4,7.8-13.5,12.1-19.8c34.6,23.2,86.7,18.3,100.5,9.7c2.1,5.9,4,12,6.4,19.6c4.7,14.6,18.8,59.6,26.6,130.5
				C349.9,492.3,271.2,393.8,263.9,371.5z"/>
		</g>
	</g>
	
		<linearGradient id="SVGID_2_" gradientUnits="userSpaceOnUse" x1="270.8784" y1="835.3137" x2="269.9997" y2="921.8524" gradientTransform="matrix(1 0 0 1 0 -472)">
		<stop  offset="0" style="stop-color:#582469"/>
		<stop  offset="1" style="stop-color:#701862;stop-opacity:0"/>
	</linearGradient>
	<path class="st1" d="M251.4,468.7c0,0-1.3-50.7-5.5-79.3c-2.1-14.6-14.2-40.4-10.5-40.4s15.5,15.2,25.7,15.2s21-9.9,25.4-9.9
		c4.5,0-1.7,14.7,14.8,65.8c11.2,34.7,0,42.7,0,42.7s-24.5-57.3-26.4-61.9s-11.3-29.3-11.3-29.3l-4-1.5
		C259.7,370.2,256.9,440.8,251.4,468.7z"/>
	<g id="XMLID_113_">
		<g>
			<path class="st2" d="M364.5,96.9c8.7,21.7-8.1,40.3-9.2,50.7s19.7,30.6,0.8,53.4c-18.9,22.8-69.1,6.8-69.1,6.8
				s-5.2,13.5-65.6-8.1s-17.6-100-17.6-100s-12.6-24.4,3.1-59.8s42.9-24.8,42.9-24.8c5.1-2.8,10.4-10.7,30-6.8
				c16.2,3.3,47.5,45.1,47.5,45.1S352.3,66.5,364.5,96.9z"/>
		</g>
		<g>
			<path class="st3" d="M249.8,15.2c0,0-27.1-10.5-42.9,24.8s-3.1,59.8-3.1,59.8s-42.7,78.4,17.6,100c60.4,21.6,65.6,8.1,65.6,8.1
				s50.2,16,69.1-6.8s-2-43-0.8-53.4s17.9-29,9.2-50.7c-12.2-30.4-37.4-43.6-37.4-43.6s-31.1-41.8-47.3-45
				C260.2,4.5,254.9,12.4,249.8,15.2z"/>
		</g>
	</g>
	<path class="st4" d="M208.6,157.5c0,0-9.2,0.5-13.3,5.9c-3.2,4.2-49.3,87.7-51,93.9s-6.9,16.1,0.6,21.1s17.7-5.6,23.1-13
		c5.5-7.4,39.7-64,42.5-69.5s11.5-18.7,9.6-27.1S212.4,156.9,208.6,157.5z"/>
	<path class="st4" d="M311.3,155c0,0,9,1.7,12.4,7.6c2.6,4.6,37.1,93.5,38,99.8s4.7,16.9-3.4,20.9s-16.8-7.9-21.2-16
		c-4.4-8.1-30.8-68.8-32.8-74.6s-8.9-20-5.9-28.1C301.3,156.6,307.6,153.9,311.3,155z"/>
	
		<linearGradient id="SVGID_3_" gradientUnits="userSpaceOnUse" x1="-3538.1873" y1="677.0757" x2="-3596.8799" y2="765.1144" gradientTransform="matrix(-1 0 0 1 -3231.7761 -472)">
		<stop  offset="0" style="stop-color:#D48864"/>
		<stop  offset="1" style="stop-color:#F8AD84;stop-opacity:0"/>
	</linearGradient>
	<path class="st5" d="M302.1,207.1c0,0-0.7-2.8-0.9-5c-0.1-1.1-0.2-4.3-0.2-4.3s1.4-11.6,6.6-6.4c3.7,3.7,7.9,12.6,13.7,25.4
		c15.2,33.9,24.4,62.6,24.4,62.6s-5.3-5.7-12.1-19.1c-3.9-7.7-8.6-18.8-14.2-31.9c-7.3-16.7-13-30.5-13.9-32.2
		C304.6,194.3,302.1,207.1,302.1,207.1z"/>
	<g id="XMLID_111_">
		<g id="XMLID_112_">
			<g>
				<path class="st4" d="M323.5,165.5c2.7,6.5-6.4,25.2-8.3,29.4c-1.8,4-3.5,5-2.5,7.9c-1.9-4.5-3.4-10-4.7-12.5
					c-2.1-4.1-1.9-37.9-1.9-37.9C315.8,155.1,320.8,159,323.5,165.5z"/>
				<path class="st6" d="M213.4,154.9c2.2,4.8,12.9,28,15.4,36l1,3.1c0,0,11.9,2.4,24.6,9c9.9,5.1,12.7,7,12.7,7s9-5.5,18.6-11.8
					c9.3-6.1,13.5-7.7,13.5-7.7s-0.4-29.1,2.2-39.2c1.8,0.4,3.4,0.8,4.8,1.1c0,0-0.5,33.7,1.6,37.8c1.3,2.5,2.7,8,4.7,12.5
					c0,0.1,0.1,0.3,0.1,0.4c1.1,3.3,2.6,5.3,3.6,14.2c0.9,7.7-0.1,16.7-8.7,21.4c-0.7,2.3-4.7,20.2-4.7,23.9c0,4-1.7,12.6,0.1,15.7
					c2.8,8,2.1,9.3,2.6,10.7c1.2,3.5,2.6,4.5,1.8,6.9c-0.3,1,3.4,4.3-3.8,7.2c-2.7,1.1-6.1,1.7-9.9,2c3.6-2.1,6.7-5.3,7.2-9.2
					c-10.5,4.2-27,8.6-46,7.5c-15.3-0.8-24.9-3.6-30.5-6.4c1.8,2.2,4.5,4.5,8.1,6.9c-9.7,0.4-18.2,0.7-19.7-1.2
					c-0.3-0.4,1.2-1.8,1.5-2.3c1.8-3.2,11.1-17.7,11.3-30.6c0-3.4-1.8-19.5-2.9-28.5c-0.1-0.8-0.3-1.6-0.7-2.4
					c-0.7-1.7-1.8-3.2-3.1-5.3c-5.6-8.5-3.8-16.5-3.8-22.8c0-0.3,0-0.6,0-0.9c0.7-2.6,1.9-8.5,0.4-17.4c-1.9-11.6-5.7-30.1-9.4-35.2
					C208.2,156.7,210.7,155.8,213.4,154.9z"/>
				<path class="st4" d="M298.7,150.8c-0.1,0.4-1.2,10.8-1.2,10.7c-0.1,0.7-1.2,22.5-1.2,23c0,2.4-0.1,4-0.1,4
					c-1.2,0.6-6.5,3.4-7.3,3.8c-11.1,6.1-21.1,13.6-21.5,13.9l-0.5-0.2c-0.1-0.1-0.3-0.2-0.5-0.3l0,0c-1.7-1.3-7.8-4.6-8.2-4.8l0,0
					c-0.7-0.3-1.4-0.7-2.1-1l0,0c-0.9-0.4-1.9-0.9-2.9-1.3c-0.5-0.2-1-0.4-1.4-0.6l0,0c-1-0.4-1.9-0.8-2.9-1.2
					c-2.2-0.9-7.9-2.8-8.6-3.1c-1.3-0.5-7.7-2.6-7.7-2.6c-7.6-17.8-17.7-36.3-17.8-36.5c9.5-2.9,20.3-6.4,22.7-7.5
					c4.1-1.7,6.1-4.7,6.5-7.1c0.7-3.4,0.3-28.8,0.3-28.8s-0.3-10.4,6-14.1c6.4-3.7,13.9-0.9,17.3,4.4c1.9,3,2.9,6.5,2.9,13.5
					c0,5.3,0.8,17.3,2.4,24.2c0.5,2.1,1.3,5,3.3,6.2C279.9,147.3,290.2,149.1,298.7,150.8z"/>
				<path class="st4" d="M298.4,152.2c0,0.2-0.1,0.4-0.1,0.5C298.3,152.6,298.4,152.4,298.4,152.2z"/>
				<path class="st6" d="M300.9,296c-0.5,3.9-3.6,7.1-7.2,9.2c-10.7,0.8-24.8-0.9-38.8-1.7C273.9,304.5,290.4,300.2,300.9,296z"/>
				<path class="st4" d="M296.5,172c0-0.4,0-0.8,0.1-1.3C296.5,171.2,296.5,171.6,296.5,172z"/>
				<path class="st4" d="M267.2,206.2L267.2,206.2L267.2,206.2c-0.2-0.1-0.3-0.2-0.5-0.3C266.9,205.9,267,206.1,267.2,206.2z"/>
				<path class="st4" d="M260.5,202.1c2.4,1.2,4.5,2.5,6.2,3.8C265,204.6,262.8,203.3,260.5,202.1z"/>
				<path class="st4" d="M258.5,201.1c0.5,0.2,0.9,0.4,1.3,0.7C259.4,201.5,258.9,201.3,258.5,201.1z"/>
				<path class="st4" d="M256.4,200.1c0.7,0.3,1.4,0.6,2.1,1C257.8,200.7,257.1,200.4,256.4,200.1z"/>
				<path class="st4" d="M253.5,198.8c1,0.4,1.9,0.8,2.9,1.3C255.4,199.6,254.5,199.2,253.5,198.8z"/>
				<path class="st4" d="M252.1,198.2c0.5,0.2,1,0.4,1.4,0.6C253.1,198.6,252.6,198.4,252.1,198.2z"/>
				<path class="st6" d="M254.9,303.5c-6.1-0.3-14.6,0.2-22.4,0.5c-3.6-2.4-6.3-4.7-8.1-6.9C230,299.9,239.5,302.7,254.9,303.5z"/>
				<path class="st4" d="M249.2,197c1,0.4,1.9,0.8,2.9,1.2C251.1,197.8,250.2,197.3,249.2,197z"/>
				<path class="st4" d="M240.6,193.7c0.7,0.3,1.4,0.5,2.2,0.8C242.1,194.2,241.3,193.9,240.6,193.7z"/>
				<path class="st4" d="M236.3,192.1c0.3,0.1,0.5,0.2,0.8,0.3C236.8,192.3,236.5,192.2,236.3,192.1z"/>
				<path class="st4" d="M235.1,191.8c0.2,0.1,0.5,0.2,0.7,0.2C235.6,191.9,235.4,191.8,235.1,191.8z"/>
				<path class="st6" d="M224.7,266c0,0.2,0,0.5,0,0.7C224.8,266.5,224.7,266.3,224.7,266L224.7,266L224.7,266z"/>
				<path class="st4" d="M215.5,192.5c1.5,8.9,0.3,14.9-0.4,17.4c-0.2-7.3-2.2-11-2.2-11s-2.4-2.4-4.4,0.8
					c-3.3,5.3-14.7-12.5-16.4-21.2c-2.4-11.7,3.4-16.7,8.9-19.3c1-0.5,2.9-1.2,5.1-1.9C209.8,162.4,213.5,180.9,215.5,192.5z"/>
				<path class="st7" d="M301.6,151.3c-2.6,10.1-2.2,39.3-2.2,39.3s-4.2,1.7-13.5,7.7c-9.6,6.3-18.6,11.8-18.6,11.8s-2.8-1.9-12.7-7
					c-12.8-6.6-24.8-9-24.8-9l-1-3c-2.5-8-13.2-31.4-15.4-36.2c0.5-0.2,1.2-0.3,1.7-0.4l0,0c0.1,0.2,10.1,18.8,17.7,36.5
					c0,0,0.9,0.3,2.5,0.8c0.2,0.1,6.9,2.4,7.7,2.7c2,0.8,4.2,1.6,6.4,2.5c1,0.4,1.9,0.8,2.9,1.2l0,0c0.5,0.2,1,0.4,1.4,0.6
					c1,0.4,1.9,0.9,2.9,1.3l0,0c0.7,0.3,1.4,0.7,2.1,1l0,0c0.5,0.2,0.9,0.4,1.3,0.7c0.2,0.1,0.4,0.2,0.7,0.3
					c2.4,1.2,4.5,2.5,6.2,3.8l0,0c0.2,0.1,0.3,0.2,0.5,0.3l0,0c0.4-0.3,11.6-8.5,22.7-14.6c0.8-0.5,1.7-0.9,2.5-1.3
					c1.2-0.6,2.5-1.3,3.7-1.8c0,0,0-1.4,0-3.8c0-0.5,0.5-14,0.5-14.2c0-0.4,0.4-4.7,0.4-5.2c0,0,0.9-10.5,1-11.2
					c0-0.2,0.3-2.9,0.5-3.3C298.7,150.8,300.7,151.1,301.6,151.3z"/>
			</g>
		</g>
	</g>
	
		<linearGradient id="SVGID_4_" gradientUnits="userSpaceOnUse" x1="87.9802" y1="760.9626" x2="93.5276" y2="750.7924" gradientTransform="matrix(1.0484 -5.840858e-02 6.224136e-02 0.9983 97.5848 -584.4798)">
		<stop  offset="0" style="stop-color:#E89166"/>
		<stop  offset="1" style="stop-color:#F8AD84;stop-opacity:0"/>
	</linearGradient>
	<path class="st8" d="M229,167.2c0,0,6.8,2.8,19.5,5.2c9,1.7,3.1-3.7-0.4-4.6c-4.4-1-13-6.4-19-9c-2.3-1-4.8,0.8-4.6,3.6
		C224.4,163.2,225.5,165.5,229,167.2z"/>
	
		<linearGradient id="SVGID_5_" gradientUnits="userSpaceOnUse" x1="-3316.6855" y1="428.8939" x2="-3310.9031" y2="418.2927" gradientTransform="matrix(-0.9739 -0.1156 -0.1152 0.9932 -2897.7571 -639.649)">
		<stop  offset="0" style="stop-color:#E89166"/>
		<stop  offset="1" style="stop-color:#F8AD84;stop-opacity:0"/>
	</linearGradient>
	<path class="st9" d="M290.7,166.9c0,0-5.8,4.4-18.7,5c-8.6,0.4-2.7-3.9,0.7-4.5c4.1-0.8,12.8-6.5,18.6-8.7c2.2-0.8,4.4,1.1,4.1,3.9
		C295.3,163.2,293.8,164.6,290.7,166.9z"/>
	
		<linearGradient id="SVGID_6_" gradientUnits="userSpaceOnUse" x1="257.6394" y1="599.2098" x2="260.0413" y2="622.7509" gradientTransform="matrix(1 0 0 1 0 -472)">
		<stop  offset="0" style="stop-color:#C47958"/>
		<stop  offset="1" style="stop-color:#F8AD84;stop-opacity:0"/>
	</linearGradient>
	<path class="st10" d="M271.1,120.8c0,0-5.1,3.9-9.4,4.8c-4.3,0.8-7.3,0.2-9.6-0.7c-4.1-1.6-7.6-4.1-7.6-4.1l-0.1,15.6
		c0,0,4.8,9,16.7,9.7c9.2,0.5,11.3-10.2,11.3-10.2S270.7,122.6,271.1,120.8z"/>
	<path class="st4" d="M225.2,67.3c0,0-2.6-4.8-6.6-2.1c-4,2.7-2,12.9,1.4,17s5.8,6.3,5.8,6.3s0.2,20.1,11.3,28.4s14,9,19.9,10
		c6,1,17.4-6.9,21.1-10.6s10.6-12.2,11.7-20.7s-1-36.2-1.3-38.4s-29.9-26.1-42.9-18C232.6,47.3,225.2,59.9,225.2,67.3z"/>
	<path class="st11" d="M239.1,43c0,0,0.6,9.5,9.5,15.2c8.8,5.7,13.2,6.5,13.2,6.5s0.6,14.1,10.8,19.9s17.7,10,17.7,7.9
		c0-6.8,1.2-23.2-3.1-32.6C282.9,50.6,247.3,32.1,239.1,43z"/>
	<path class="st12" d="M254.4,94.7c0,0,1,1.5,2.9,1.7s4-1.1,4.6-1.7s0.5,3.6-2.6,4.6s-4.9-2-4.9-3.4S254.4,94.7,254.4,94.7z"/>
	<g id="XMLID_88_">
		<g>
			<path class="st13" d="M249.6,106.7C249.5,106.7,249.5,106.6,249.6,106.7l-0.1-1.4c-1,0.1-1.8,0-2.3-0.1c0,0,1.8,2.9,2.5,4
				c1.5,2.6,4.1,5.4,8.5,5.2c4.4-0.3,6.8-2.6,8.2-4.6c0.6-0.9,1.3-1.6,1.9-2.2l-1.1-0.1c0,0-3.9,2-6.7,3.1c-1.5,0.6-4.6,0.4-6-0.3
				C253.2,109.5,250.1,107.1,249.6,106.7z"/>
			<path class="st14" d="M260.6,110.6c2.8-1.1,6.7-3.1,6.7-3.1l-1.5,0.3c0,0-2.4,0-3.7,0c-1,0-1.5,0.9-3.6,0.9c-2,0-3-1-3-1
				s-5-0.5-5.9-1c0.5,0.4,3.7,2.8,5,3.6C256,111.1,259.1,111.2,260.6,110.6z"/>
			<path class="st13" d="M267.3,107.5l1.1,0.1c0.8-0.7,1.3-1.1,1.3-1.1s-2.6-0.3-4.8-0.7c-2.2-0.4-4.3-1.1-5.9-0.1l-0.8,0.3
				c0,0-1-1.1-2.8-1.3c-0.7,0-3.7,0.4-6,0.6l0.1,1.4c0,0,0,0,0.1,0c0.8,0.5,5.9,1,5.9,1s0.9,1,3,1s2.7-0.8,3.6-0.9
				c1.3-0.1,3.7,0,3.7,0L267.3,107.5z"/>
		</g>
	</g>
	<ellipse class="st15" cx="236" cy="85.6" rx="1.2" ry="1.2"/>
	<circle class="st15" cx="240.3" cy="89.4" r="0.7"/>
	<circle class="st15" cx="245.4" cy="87.2" r="0.9"/>
	<circle class="st15" cx="251.2" cy="85" r="0.9"/>
	<circle class="st15" cx="262.9" cy="82.9" r="0.5"/>
	<circle class="st15" cx="265.6" cy="87.7" r="0.9"/>
	<circle class="st15" cx="274.4" cy="88.6" r="0.9"/>
	<circle class="st15" cx="280.7" cy="94.7" r="0.9"/>
	<path class="st11" d="M224.2,70.7c0,0-1.7-4.8-3.9-4s-2.1,4.5-2.1,4.5s0,1.3,2.1,1.7c3.1,0.6,4.6,7.8,4.6,10
		C224.8,85,224.9,73.1,224.2,70.7z"/>
	
		<linearGradient id="SVGID_7_" gradientUnits="userSpaceOnUse" x1="264.7201" y1="676.9503" x2="264.5213" y2="660.0563" gradientTransform="matrix(1 0 0 1 0 -472)">
		<stop  offset="0" style="stop-color:#C7754E"/>
		<stop  offset="1" style="stop-color:#F8AD84;stop-opacity:0"/>
	</linearGradient>
	<path class="st16" d="M232.8,191c0,0,13.3,5,19.2,7.2c6,2.3,15.4,8,15.4,8s10.8-7.4,14.5-9.8c4.4-2.9,14.3-7.8,14.3-7.8v-1.8
		c0,0-20.4,6.2-21.8,7.9c-7.1,8.4-3.7-3.7-9.2-5.1s-1.9,12.3-9.9,6.2C247.8,190.4,232.8,191,232.8,191z"/>
	<path class="st17" d="M234.8,74.8c0,0,3,4.3,6.9,4.7s7.4-2.5,8.2-3.4s-4.5,1.3-7.8,0.8C238.8,76.4,234.2,73.7,234.8,74.8z"/>
	<path class="st17" d="M282.9,74.2c0,0-2.9,4.4-6.8,4.8s-7.5-2.3-8.3-3.1c-0.8-0.8,4.5,1.2,7.8,0.6C279,76,283.6,73.1,282.9,74.2z"
		/>
	<path class="st17" d="M240.3,77.3c0,0-1.3,2.6,0.9,3.9s3.6-0.3,4.3-1.4s0.3-1.8-0.3-2.4C244.5,76.9,240.3,77.3,240.3,77.3z"/>
	<path class="st17" d="M277.8,77.1c0,0,0.7,3-1.4,4.2c-2.1,1.1-3.3-0.6-3.9-1.8c-0.6-1.2-0.5-1.8,0.1-2.3
		C273.3,76.8,277.8,77.1,277.8,77.1z"/>
	<g id="XMLID_87_">
		<g>
			<path class="st2" d="M322.8,68.3c0,0-0.2,11.6-26,13.9c-25.8,2.2-32.9-19.8-32.9-19.8c-26.4-3.8-26.1-26.8-26.1-26.8
				s2.7-12.9,30.2-4S322.8,59.4,322.8,68.3z"/>
		</g>
	</g>
	<g>
		<path class="st18" d="M225.2,66.6c0.5-4,1.7-7.9,3.6-11.5c0.9-1.8,2.1-3.5,3.4-5.1c0.6-0.8,1.4-1.5,2.1-2.3l1-1l1-1.1
			c1.2-1.5,2.3-3.2,3.2-4.9s1.7-3.5,2-5.4c0.2-0.9,0.3-1.8,0.1-2.6v-0.3l-0.1-0.2c-0.1-0.2-0.1-0.3-0.2-0.5c-0.2-0.3-0.5-0.7-0.8-1
			c-0.6-0.6-1.3-1.1-2-1.4c-0.4-0.1-0.7-0.1-0.9-0.1s-0.3,0.1-0.4,0.3c-0.3,0.4-0.3,1.3-0.2,2.2s0.3,1.8,0.5,2.8
			c0.4,1.9,1,3.8,1.6,5.7c1.3,3.7,3,7.2,5.3,10.3c1.1,1.5,2.4,2.9,3.9,4c1.4,1.1,3.2,2.1,4.9,2.9c1.7,0.8,3.6,1.5,5.4,2.1
			s3.8,1.1,5.6,1.4l0.9,0.1l0.3,0.9c2.4,6.3,6.9,12.2,12.9,15.5c3,1.6,6.4,2.5,9.8,3.1c3.5,0.6,7,0.7,10.5,0.5
			c3.5-0.3,7-0.9,10.4-1.9c0.2-0.1,0.3-0.1,0.5-0.2c0.1-0.1,0.2-0.1,0.3-0.2c0.2-0.2,0.3-0.4,0.2-0.6c0-0.4-0.4-0.8-1-0.9
			s-1.4,0.2-2,0.6s-1,1-1.2,1.8c-0.5,1.5-0.2,3.3,0.3,4.9c0.6,1.6,1.5,3.1,2.7,4.4s2.6,2.5,4.1,3.4c1.5,1,3.1,1.8,4.8,2.4
			c-3.4-1-6.8-2.7-9.4-5.3c-1.3-1.3-2.4-2.8-3.2-4.6c-0.7-1.7-1.1-3.7-0.7-5.7c0.2-1,0.7-2,1.7-2.7c0.2-0.2,0.5-0.3,0.7-0.4
			s0.5-0.2,0.7-0.3c0.3-0.1,0.5-0.2,0.8-0.2l0.4-0.1h0.4c1.2,0,2.6,1,2.6,2.4c0.1,0.7-0.2,1.4-0.6,1.9c-0.2,0.3-0.5,0.4-0.7,0.6
			c-0.3,0.1-0.6,0.3-0.8,0.4c-3.5,1.3-7.1,2-10.8,2.4c-3.7,0.4-7.4,0.4-11.1-0.2c-0.9-0.1-1.8-0.3-2.7-0.5c-0.5-0.1-0.9-0.2-1.4-0.3
			l-1.3-0.4c-0.9-0.2-1.8-0.6-2.7-0.9c-0.9-0.3-1.7-0.8-2.6-1.2c-3.4-1.7-6.3-4.3-8.7-7.2c-1.2-1.5-2.3-3-3.2-4.6
			c-0.9-1.6-1.8-3.3-2.5-5.1l1.2,1c-4.2-0.7-8.1-2-11.9-3.8c-1.9-0.9-3.7-1.9-5.4-3.3c-1.7-1.3-3.2-2.9-4.4-4.6
			c-2.5-3.4-4.3-7.2-5.5-11.1c-0.6-2-1.2-4-1.6-6c-0.2-1-0.4-2-0.5-3.2c0-0.6,0-1.1,0-1.7c0.1-0.6,0.2-1.3,0.6-1.9
			c0.4-0.7,1.2-1.3,2-1.4s1.5,0,2.1,0.2c1.2,0.5,2.1,1.2,2.9,2c0.4,0.4,0.7,0.9,1,1.4c0.1,0.3,0.3,0.5,0.4,0.9
			c0.1,0.2,0.1,0.3,0.2,0.5l0.1,0.5c0.2,1.2,0,2.3-0.2,3.4c-0.5,2.1-1.4,4-2.4,5.8s-2.2,3.5-3.6,5c-0.3,0.4-0.7,0.7-1.1,1.1l-1.1,1
			c-0.7,0.7-1.5,1.3-2.1,2.1c-1.3,1.4-2.5,3-3.5,4.7s-1.9,3.5-2.6,5.4C226.2,62.7,225.6,64.7,225.2,66.6z"/>
	</g>
	
		<linearGradient id="SVGID_8_" gradientUnits="userSpaceOnUse" x1="590.0409" y1="-36.381" x2="570.1422" y2="-31.7975" gradientTransform="matrix(0.8743 0.4853 -0.4853 0.8743 -286.0629 -184.879)">
		<stop  offset="0" style="stop-color:#D48864"/>
		<stop  offset="1" style="stop-color:#F8AD84;stop-opacity:0"/>
	</linearGradient>
	<path class="st19" d="M234.4,70.7c-0.6,0.3,2.6-4,5.1-5.3c3.2-1.7,9.7-0.6,10,0.4s0.6,3.8,0.1,4.2
		C248.7,70.9,242.5,66.9,234.4,70.7z"/>
	<path class="st17" d="M234.3,70.4c-0.3,0.3,3.1-6.3,8.6-7.3c4.6-0.8,6.8,1,6.8,1.9s0.2,2-2.1,1.7c-2.2-0.4-4-0.7-5.9-0.5
		C238.3,66.6,235.4,69.4,234.3,70.4z"/>
	
		<linearGradient id="SVGID_9_" gradientUnits="userSpaceOnUse" x1="54.7577" y1="444.4337" x2="-4.6234" y2="533.5054" gradientTransform="matrix(0.9911 0.1335 -0.1335 0.9911 212.8409 -241.0352)">
		<stop  offset="0" style="stop-color:#D48864"/>
		<stop  offset="1" style="stop-color:#F8AD84;stop-opacity:0"/>
	</linearGradient>
	<path class="st20" d="M215,209.9c0,0,0.6-2.1,1-5.4c0.1-1.1,0.2-6.4,0.2-6.4s-2.6-8.8-8.5-4.3c-4.1,3.1-9.5,11.4-17,23.3
		c-19.6,31.5-32.5,58.8-32.5,58.8s6-4.9,14.6-17.4c4.9-7.1,11-17.5,18.4-29.7c9.4-15.6,16.6-28.8,18-30.1
		C214.4,194.3,215,209.9,215,209.9z"/>
	<path class="st21" d="M305.9,289.2C258.1,304.7,218,292,218,292s-13.9,26.2-13.9,63.9s1.5,53.2,1.5,53.2l127.4-2.4
		c0,0-11.6-71.9-17.4-88S305.9,289.2,305.9,289.2z"/>
	
		<linearGradient id="SVGID_10_" gradientUnits="userSpaceOnUse" x1="269.0146" y1="767.2836" x2="269.6039" y2="878.076" gradientTransform="matrix(1 0 0 1 0 -472)">
		<stop  offset="4.594595e-02" style="stop-color:#F7E2EA"/>
		<stop  offset="1" style="stop-color:#C79BAD"/>
	</linearGradient>
	<path class="st22" d="M306.8,289.1c-47.8,15.5-87.9,2.8-87.9,2.8S205,318.1,205,355.8s1.5,53.2,1.5,53.2l127.4-2.4
		c0,0-11.6-71.9-17.4-88C310.7,302.6,306.8,289.1,306.8,289.1z"/>
	<path class="st23" d="M216.1,296.1c0,0,10.1,9.7,28,12.8c0,0-18.6-2.6-24.6-5.7s-4.1-5.2-4.1-5.2L216.1,296.1z"/>
	<path class="st23" d="M307.1,293c0,0-17.8,10.8-42,10.2c0,0,11.8,1.3,25.1-1.9c13.3-3.1,17.6-6.3,17.6-6.3L307.1,293z"/>
	<path class="st24" d="M501.9,389.7C462.5,483.3,370,549,262.1,549S61.6,483.3,22.3,389.7H501.9L501.9,389.7z"/>
	<line class="st25" x1="24.7" y1="389" x2="500.6" y2="389"/>
	<line class="st25" x1="60.4" y1="452.2" x2="463.6" y2="452.2"/>
	<path class="st26" d="M78.7,433.5c0,0,52.1-0.3,59.5-2.9s4.6-4.7,9.1-5.7c4.4-1,7.5-0.5,9.2-2.2s-0.2-9.9-7.7-8.8
		s-10.5,0.3-10.5-0.6s10.5-2.2,10.5-3.5s1.7-2.2,0.2-5.6c-1.7-3.8-6-6.9-20.2-5.3c-14.1,1.6-60.6,16.6-60.6,16.6s2.7,2.9,11.5,3.9
		s13.2,1.7,13.2,1.7l-16,8.7l12.5-0.1L78.7,433.5"/>
	<line class="st25" x1="87.1" y1="480.2" x2="437.4" y2="480.2"/>
	<path class="st27" d="M71.2,452.2c0,0,31.5,4.5,60.5,21.7s81.5-20.5,105.2-14.3s40.2,18,64,15.8s59-18.3,76.6-14.3
		s57,15.8,72.1,8.2"/>
	<path class="st27" d="M65,458.6c0,0,24.9,2.9,34.7,7.8s4.8,8.1-0.8,8.1s-19.4,0-19.4,0"/>
	<path class="st27" d="M114.1,453c0,0,12,9.2,27.4,13.5s50.6-12.7,53.9-13.5s66.7,0,66.7,0s14.8,15.9,28.9,18
		c14.1,2,38.8-17.9,40.9-18.3"/>
	<path class="st27" d="M216.7,480.2c0,0-12.1-1.7-8.1-5.7s15-7.6,26.2-5.7s21.6,4.5,24.6,7.6s0,3.9,0,3.9"/>
	<path class="st27" d="M314,480.2c0,0,16.6-9.5,30.5-10.8s14.3,4.2,12.3,6.2s-7,4.6-7,4.6"/>
	<path class="st27" d="M368.7,480.2c0,0,3.8-2.8,5.1-7.3s7.5-0.9,14.5,3.7s10.4,3.7,10.4,3.7"/>
	<line class="st27" x1="105.6" y1="496.6" x2="418.2" y2="496.6"/>
	<line class="st27" x1="256.3" y1="496.6" x2="256.3" y2="548.6"/>
	<line class="st27" x1="270.6" y1="496.6" x2="270.6" y2="548.6"/>
	<path class="st27" d="M340.4,452.2c0,0-12.3,7.9-10.5,9.7c1.8,1.8,27.5-8.8,48.1-6.6s42.3-3.1,42.3-3.1"/>
	<path class="st27" d="M428.4,452.2c0,0-22.8,5.6-18.7,9.7c4.1,4.1,38.2-0.2,49.8-3.5"/>
	<path class="st27" d="M139.8,451.5c0,0,1.5,6.7,8.7,8.2s13.1-7.1,13.1-7.1"/>
	
		<linearGradient id="SVGID_11_" gradientUnits="userSpaceOnUse" x1="262.8724" y1="729.5394" x2="265.1188" y2="694.0466" gradientTransform="matrix(1 0 0 1 0 -472)">
		<stop  offset="0" style="stop-color:#59BAC2;stop-opacity:0"/>
		<stop  offset="1" style="stop-color:#387E85"/>
	</linearGradient>
	<path class="st28" d="M307.5,238.9c0,0-12.2,5.8-24.3,1.7c-13-4.4-16.2-3.1-25.9,0.6c-9.3,3.5-27.5,5.6-36.6-4.8
		c0,0,1.7,2.9,1.9,4.8c0.3,1.9,1.1,8.5,1.1,8.5s9.7,5.4,20.2,6.2c10.5,0.7,20.3-1.1,26.6,3.3s26.9,9.3,31.9,6.7L307.5,238.9z"/>
	<path class="st29" d="M218.3,196c0,0,0.4,9.5-0.7,13.1s-2.7,26.4,15.3,30.8s29.1-3.4,29.1-3.4s-17.5,6-29.8-0.6s-12.6-20.2-12.6-25
		C219.6,206.1,218.7,197.8,218.3,196z"/>
	<path class="st21" d="M216.6,297c0,0-2.8-3.2,1.9-4.2L216.6,297z"/>
	<path class="st21" d="M306,290.1l1.5,3.8c0,0,1.3-1.1,1-1.9C308.3,291.1,307.1,289.6,306,290.1z"/>
	<g>
		<path class="st14" d="M267.3,371c0,0-9.4-2.3-11.6-6.6c-2.2-4.3,8.2-18,15.1-19.6s17.3-1.8,20.5,1.4c3.2,3.2,3.8,3.5,2.9,7.4
			C293.3,357.6,279.8,372.1,267.3,371z"/>
		
			<linearGradient id="SVGID_12_" gradientUnits="userSpaceOnUse" x1="292.5413" y1="828.4433" x2="262.9279" y2="832.366" gradientTransform="matrix(1 0 0 1 0 -472)">
			<stop  offset="0" style="stop-color:#BFA2AC"/>
			<stop  offset="1" style="stop-color:#FFFFFF;stop-opacity:0.1"/>
		</linearGradient>
		<path class="st30" d="M269.2,372.3c0,0-9.4-2.3-11.6-6.6c-2.2-4.3,8.2-18,15.1-19.6s17.3-1.8,20.5,1.4c3.2,3.2,3.8,3.5,2.9,7.4
			C295.2,358.9,281.6,373.4,269.2,372.3z"/>
		<path class="st31" d="M295.4,349.1c0,0.2-0.1,0.7-0.2,1.3v0.1c-0.2,0.7-0.4,1.3-0.7,2c0,0-1.8-2.8-6.4-4.2
			c-4.6-1.4-2.2,1.5-2.2,1.5s0.5,1.8-2.6,0.7c-3.1-1-4,3.7-4,3.7c-0.3-0.5-0.9-1.4-2.4-1.8s-1.9,1.5-2,2.3c-0.2-1.2-0.9-2.9-3.4-3.6
			c-2.9-0.8-1.6,2.4-1.6,2.4s-0.7,1-2.2,0.6c-1.2-0.3-0.4,1.7-0.1,2.4c-0.3-0.6-1.3-2-2.8-1.7c-1.9,0.4-0.4,4.8-0.3,5.2
			c-0.2-0.2-1.2-0.2-2,0.7c-1.7,1.7,0.3,3.3,0.3,3.3s-1.3,0.9-2.3,0.9s0,3,0,3c-1.9-0.6-3.5-1.6-4.6-2.9l-0.1-0.1
			c-0.3-0.4-0.6-0.9-0.8-1.3c-2.8-6,3.9-15,14.9-20.1s22.2-4.3,24.9,1.7C295.4,346.4,295.4,349,295.4,349.1z"/>
		<g>
			<path class="st32" d="M255.7,364.7c-2.8-6,3.9-15,14.9-20.1c10.1-4.7,20.4-4.4,24.1,0.4c-3-5.7-14-6.4-24.8-1.4
				c-11,5.1-17.7,14.1-14.9,20.1c0.2,0.5,0.5,0.9,0.8,1.3l0,0C255.8,364.9,255.8,364.8,255.7,364.7z"/>
		</g>
		<path class="st33" d="M295.2,350.5c-0.8,4.6-3.3,18.2-5.2,20.1c-2.2,2.2-12.9,5.1-20.7,3.4c-7.3-1.5-12.7-8.1-13.4-9
			c1.1,1.3,2.6,2.3,4.5,2.9c4.9,1.6,12.3,0.8,19.5-2.6c7.1-3.3,12.4-8.2,14.5-12.9C294.8,351.8,295.1,351.2,295.2,350.5z"/>
		<path class="st4" d="M287.9,367.1c0,0-9.1,4.2-10.2,7.5c-0.2,0.7,0.2,1.5,2.6,1.3c2.7-0.3,6.3-3.2,8.5-3.8s6.3-2.9,6.9-4.1
			c0.5-1.3,3-8.7,5.8-11.5s3.4-7.4,3.8-10.8l-17.1,21.1L287.9,367.1z"/>
		<path class="st4" d="M284.8,374.1c0,0,3.1-0.1,6.4-0.5s8.5-3,8.5-3s3.2-9.1,5.2-11c2-2,3.2-10.9,4.1-11.8c0.8-0.8,0.8-6.9,0.4-9.5
			s0.7-7.6,5.1-11.9s39.3-34.5,44.3-39.4s8.7-17.5,0.7-23.1c-4-2.8-11.5-4.3-19.4,1s-34.4,49.1-36.9,51.6s-8.8,4.3-11.5,5.5
			c-1.6,0.7-6.1,0.6-11,5.5s-14.2,11.5-16.6,11.8c-4.3,0.5-4.8,4.8,1,5.2c5.8,0.4,14.5-4.9,14.5-4.9s4.7-2.1,6.7-2.1
			s0.7,3.9,1.2,5.9c0.4,2,1.1,7.7,2.3,10c0,0-2.4,4.8-2.8,8.8c0,0-10,3.9-10.6,6.7c0,0,0.1,1.8,2.1,1.8c2.1,0,10.1-4.2,12-4.2
			s4.5-9.8,6.4-11.7c1.9-1.9,0.7-9.3,1.7-14"/>
		
			<linearGradient id="SVGID_13_" gradientUnits="userSpaceOnUse" x1="279.8729" y1="826.5115" x2="293.0774" y2="823.6386" gradientTransform="matrix(1 0 0 1 0 -472)">
			<stop  offset="0" style="stop-color:#D48864"/>
			<stop  offset="1" style="stop-color:#F8AD84;stop-opacity:0"/>
		</linearGradient>
		<path class="st34" d="M298.3,340.8c-1,4.7,0.2,12.1-1.7,14c-1.9,1.9-4.5,11.7-6.4,11.7s-10,4.2-12,4.2c-2.1,0-2.1-1.8-2.1-1.8
			c0.7-2.7,10.6-6.7,10.6-6.7c0.4-4,2.8-8.8,2.8-8.8c-1.2-2.4-1.8-8-2.3-10c-0.4-1.8,0.6-5.3-0.8-5.8
			C291.2,334.3,298.3,340.8,298.3,340.8z"/>
		
			<linearGradient id="SVGID_14_" gradientUnits="userSpaceOnUse" x1="292.1473" y1="832.8156" x2="298.0038" y2="832.8156" gradientTransform="matrix(1 0 0 1 0 -472)">
			<stop  offset="0" style="stop-color:#D48864"/>
			<stop  offset="1" style="stop-color:#F8AD84;stop-opacity:0"/>
		</linearGradient>
		<path class="st35" d="M287.9,367.1c0,0-9.1,4.2-10.2,7.5c-0.2,0.7,0.2,1.5,2.6,1.3c2.7-0.3,6.3-3.2,8.5-3.8s6.3-2.9,6.9-4.1
			c0.5-1.3,3-8.7,5.8-11.5s3.4-7.4,3.8-10.8c0,0-7.4,0.7-7.2,2.7c0.3,3.6-2.6,9.2-2.6,9.2s-2.6,7.2-4.3,8.6
			C290.4,366.7,287.9,367.1,287.9,367.1z"/>
		<path class="st36" d="M295.5,349.1c0,0.4-0.1,0.9-0.2,1.3C295.4,349.8,295.5,349.3,295.5,349.1z"/>
		
			<linearGradient id="SVGID_15_" gradientUnits="userSpaceOnUse" x1="296.6693" y1="838.0204" x2="300.592" y2="839.457" gradientTransform="matrix(1 0 0 1 0 -472)">
			<stop  offset="0" style="stop-color:#D48864"/>
			<stop  offset="1" style="stop-color:#F8AD84;stop-opacity:0"/>
		</linearGradient>
		<path class="st37" d="M303.4,361.5c0.8-1.6,1.4-2.1,2.2-3.3s-3.3-2.7-3.8-2.2s-1,1.1-2.2,2.9c-1.3,1.8-3.8,8.6-4,9
			s-0.9,0.9-1.9,1.7c-1,0.8-4.6,2.3-5.7,2.7c-1.1,0.4-3.3,1.7-3.3,1.7s3.6-0.1,7.6-0.7c4-0.7,7-2.6,7.3-2.8S303.4,361.5,303.4,361.5
			z"/>
		
			<linearGradient id="SVGID_16_" gradientUnits="userSpaceOnUse" x1="263.8941" y1="810.6503" x2="296.4909" y2="799.269" gradientTransform="matrix(1 0 0 1 0 -472)">
			<stop  offset="0" style="stop-color:#D48864"/>
			<stop  offset="1" style="stop-color:#F8AD84;stop-opacity:0"/>
		</linearGradient>
		<path class="st38" d="M286.7,337.7c-0.1-0.1-0.3-0.2-0.5-0.2h-0.1c-2,0-6.7,2.1-6.7,2.1s-8.7,5.3-14.5,4.9s-5.3-4.8-1-5.2
			c2.5-0.3,11.8-7,16.6-11.8c1.9-1.9,3.7-3,5.4-3.8c0.3-0.2,0.6-0.3,1-0.4C295.1,329.1,288.7,335.7,286.7,337.7z"/>
		
			<linearGradient id="SVGID_17_" gradientUnits="userSpaceOnUse" x1="266.0215" y1="816.7435" x2="298.6184" y2="805.3622" gradientTransform="matrix(1 0 0 1 0 -472)">
			<stop  offset="0" style="stop-color:#D48864"/>
			<stop  offset="1" style="stop-color:#F8AD84;stop-opacity:0"/>
		</linearGradient>
		<path class="st39" d="M286.7,337.7c-0.1-0.1-0.3-0.2-0.5-0.2"/>
		<path class="st40" d="M267.3,359.5c-0.3-0.1-0.6-0.2-0.9-0.2c0,0,0-0.1-0.1-0.1c-0.2-0.5-1.2-1.2-1.6-0.5
			c-0.6,0.9-0.3,2.2,0.6,2.8c0.1,0.1,0.3,0.2,0.4,0.2c-0.1,0-0.3,0-0.4,0.1c-0.2,0-0.3,0.1-0.5,0.1h-0.1c-0.1,0-0.2-0.1-0.3-0.1
			c-0.2-0.1-0.4-0.1-0.6,0.1c0,0,0,0-0.1,0c-0.2,0.1-0.3,0.4-0.2,0.5c0.2,0.8,0.8,1.3,1.6,1.4c0.6,0,1.1-0.3,1.7-0.6
			c0.2-0.1,0.3-0.3,0.2-0.5c0-0.4-0.2-0.6-0.5-0.8c-0.1,0-0.1,0-0.2-0.1c0.2,0,0.4,0,0.7-0.1c0.5-0.2,1-0.4,1-0.9
			C268.2,360.2,267.8,359.7,267.3,359.5z"/>
		<path class="st40" d="M269.3,357.4c-0.3-0.1-0.5-0.1-0.8-0.2s-0.2,0.3,0,0.4c0.1,0,0.2,0.1,0.2,0.2c0.1,0.2,0.4,0.5,0.6,0.4
			c0.1,0,0.2,0,0.3-0.1C269.9,357.9,269.6,357.5,269.3,357.4z"/>
		<path class="st40" d="M273.6,359.9c-0.1-0.2-0.2-0.4-0.3-0.5c-0.2-0.1-0.4-0.3-0.6-0.1c-0.3,0.2-0.4,0.5-0.7,0.7
			c-1,0.7,0.7,2.2,1.5,1.6c0.1-0.1,0.2-0.2,0.4-0.3C274.4,360.8,274.1,360.2,273.6,359.9z"/>
		<path class="st40" d="M274.6,354.7c-0.5-0.8-1.3-1.3-2.2-1.5c-0.7-0.1-1.4,0.2-1.4,1c0,0.7,0.8,1.5,1.5,1.6
			c0.1,0.1,0.1,0.1,0.2,0.1c0.3,0.3,0.5,0.4,0.8,0.7c0.3,0.3,1.2,0.6,1.4-0.1C274.9,356,275.1,355.4,274.6,354.7z"/>
		<path class="st40" d="M272.1,363.9c-0.2,0-0.4,0.1-0.7,0.1c0,0-0.1,0-0.2,0c-0.4-0.3-1.1-0.6-1.3,0c-0.3,1.3,2.1,2.3,2.6,0.9
			C272.7,364.6,272.6,363.9,272.1,363.9z"/>
		<path class="st40" d="M269.4,363.9c-0.2-0.2-0.5-0.3-0.8-0.3l0,0l0,0c-0.5,0.2-1.1,0.8-0.5,1.2c0.5,0.3,1.1,0.2,1.5-0.2
			C269.7,364.4,269.5,364,269.4,363.9z"/>
		<path class="st40" d="M265.4,364.5c-0.2,0-0.3,0-0.4,0.2c0,0.1,0,0.2,0.1,0.2c0.2,0,0.3,0,0.5-0.2
			C265.6,364.7,265.5,364.5,265.4,364.5z"/>
		<path class="st40" d="M264.9,366.9c-0.2-0.2-0.5-0.3-0.7-0.5c-0.1-0.1-0.1-0.1-0.2-0.2c0-0.2-0.2-0.3-0.4-0.4
			c-0.1,0-0.2-0.1-0.2-0.1c-0.5-0.2-0.9,0.1-0.8,0.6c0.2,0.7,1.1,1.5,1.9,1.6C265,367.9,265.3,367.3,264.9,366.9z"/>
		<path class="st40" d="M280.2,359.7c-0.3,0.3-0.4,0.6-0.7,1c-0.1,0.1-0.1,0.2-0.2,0.3c0-0.5-0.7-1-1.2-0.8c-0.3,0.1-0.6,0.2-1,0.3
			c-0.3,0.1-0.5,0.3-0.7,0.5l0,0c-0.3,0.2-0.4,0.6-0.2,0.9c0.2,0.4,0.7,0.8,1.2,0.8c0.4,0,0.9-0.1,1.3-0.4c0.1,0,0.1-0.1,0.1-0.1
			c0.2,0.3,0.5,0.6,0.9,0.7c0.6,0.1,1.2,0,1.7-0.4c0.4-0.4,0.8-1,0.7-1.6C282,360,281,359.1,280.2,359.7z"/>
		<path class="st40" d="M278.9,355.2c-0.8,0-1.6,0.6-1.9,1.4c-0.2,0.4,0.2,0.8,0.4,1c0.3,0.2,0.8,0.5,1.2,0.3c0.7-0.3,1.4-1,1.3-1.8
			C280,355.6,279.4,355.2,278.9,355.2z"/>
		<path class="st40" d="M284.7,355.3c-0.2-0.6-0.9-1-1.5-0.8c-0.5,0.1-0.8,0.6-1.1,0.9c0.1,0,0.2-0.1,0.3-0.1
			c-0.3,0.3-0.4,0.7-0.2,0.9c0,0.1,0.1,0.1,0.2,0.2s0.3,0.2,0.4,0.2c0.3,0.1,0.7,0.1,1,0C284.5,356.5,284.9,356,284.7,355.3z"/>
		<path class="st40" d="M288.3,352c-0.3-0.6-0.8-1.1-1.5-1.2c-0.4-0.1-0.9,0.1-0.8,0.6c0,0.1,0,0.2,0.1,0.3H286
			c-0.4,0-0.9,0-1.2,0.3c-0.1,0.1-0.2,0.3-0.2,0.5c0,0.1,0,0.2,0.1,0.3c0-0.1-0.1-0.1,0,0c0,0.3,0.4,0.5,0.6,0.4
			c-0.1-0.1-0.2-0.1,0,0c0.1,0,0.2,0,0.3,0c0.1,0,0.3,0,0.4-0.1c0.2-0.1,0.4-0.2,0.6-0.3l0,0c0.1,0.2,0.2,0.3,0.2,0.5
			c0.2,0.5,1.1,0.8,1.5,0.3c0.2-0.2,0.3-0.4,0.3-0.7C288.6,352.7,288.5,352.3,288.3,352z"/>
		<path class="st40" d="M286.5,360.1c-0.1-0.3-0.4-0.5-0.7-0.5c-0.7,0-1.4,0.6-1.3,1.3c0.1,0.4,0.5,0.9,1,0.8
			c0.4-0.1,0.7-0.2,0.9-0.6C286.6,360.9,286.6,360.5,286.5,360.1z"/>
		<path class="st40" d="M288,356.3c0-0.1,0-0.1,0-0.2c-0.1-0.6-0.9-1.1-1.4-0.8l0,0c-0.5,0.1-0.8,0.5-1,1c-0.2,0.6,0.1,1.3,0.7,1.5
			s1.1,0.1,1.5-0.4C288.1,357.1,288.1,356.7,288,356.3z"/>
		<path class="st40" d="M269.1,354.2c0,0-0.1,0-0.1-0.1c-0.3-0.1-0.6-0.1-0.8,0.1l0,0c-0.1,0.1-0.1,0.4,0,0.5
			c0.1,0.3,0.4,0.4,0.6,0.5c0.3,0.1,0.7,0.1,0.8-0.3C269.8,354.7,269.5,354.4,269.1,354.2z"/>
		<path class="st40" d="M266.7,357.2c-0.1-0.2-0.2-0.3-0.3-0.5c-0.1-0.2-0.2-0.3-0.3-0.4c-0.3-0.2-0.6-0.3-1-0.4
			c-0.3-0.1-0.6,0.1-0.6,0.5s0.4,0.6,0.7,0.7c0.2,0,0.3,0.1,0.4,0.2c0.1,0,0.2,0.1,0.3,0.1c0.1,0.1,0.2,0.1,0.3,0.2
			C266.5,357.6,266.8,357.5,266.7,357.2z"/>
		<path class="st40" d="M267.5,366.3c-0.6-0.1-1.3,0-1.8,0.3c-0.7,0.3-0.1,1,0.4,1.1c0.7,0.2,1.7-0.2,1.8-1
			C267.9,366.5,267.7,366.3,267.5,366.3z"/>
		<path class="st40" d="M277.4,364.3c-0.7-0.3-1.4-0.2-2.2-0.1c-0.4,0.1-1.3,0.4-0.9,1s1.2,0.7,1.9,0.6c0.7-0.1,1.3-0.2,1.6-0.9
			C277.8,364.6,277.6,364.4,277.4,364.3z"/>
		<path class="st40" d="M273.1,367c-0.5-0.4-1.2-0.3-1.8,0c-0.6,0.4,0.4,1.4,0.9,1c0.2-0.1,0.4-0.3,0.6-0.4s0.3-0.1,0.4-0.3
			C273.2,367.2,273.2,367,273.1,367z"/>
		<path class="st41" d="M264.3,361.6c0-0.1-0.1-0.1-0.2-0.2c-0.3-0.3-1-0.5-1.3-0.1c-0.1,0.1-0.1,0.2-0.1,0.3l0,0
			c0.1,0.5,0.6,1,1.1,0.9c0.1,0,0.2,0,0.4-0.1C264.7,362.4,264.5,361.9,264.3,361.6z"/>
		<path class="st41" d="M265.6,364.9c-0.9-0.2-1.7,0.1-2.5,0.6c-0.4,0.2,0.2,0.8,0.5,0.8c0.8-0.1,1.7-0.2,2.3-0.9
			C266,365.1,265.7,364.9,265.6,364.9z"/>
		<path class="st41" d="M271.5,366c-0.2-0.1-0.4-0.1-0.7-0.1c-0.5,0-0.7,0.5-0.5,0.9s0.7,0.8,1.2,0.6c0.2-0.1,0.3-0.1,0.4-0.3
			C272.2,366.6,271.8,366.2,271.5,366z"/>
		<path class="st41" d="M271.6,361h-0.1c-0.2,0-0.4,0-0.5,0.1c-0.3-0.2-0.7-0.2-1-0.3c-0.5-0.1-0.9-0.3-1.4-0.2
			c-0.7,0.2-0.4,0.9-0.1,1.3c0.4,0.5,1.2,0.7,1.9,0.6c0.3-0.1,0.8-0.2,1-0.5c0.1,0.1,0.3,0.1,0.5,0.1h0.1
			C272.7,362.1,272.2,361.1,271.6,361z"/>
		<path class="st41" d="M276,358.3c-0.2-0.5-0.7-0.8-1.2-0.8s-0.7,0.4-0.6,0.9c0.2,0.5,0.7,0.8,1.2,0.8
			C275.8,359.2,276.1,358.7,276,358.3z"/>
		<path class="st41" d="M271.8,357.1c-0.5-0.2-0.9,0-1.2,0.4c-0.4,0.5,0.7,1.2,1,0.5c0.1-0.2,0.3-0.2,0.4-0.4
			C272.2,357.4,271.9,357.1,271.8,357.1z"/>
		<path class="st41" d="M276,362.3c-0.3-0.1-0.8-0.1-0.9,0.3s0.3,0.9,0.6,1c0.4,0.1,1.2,0.2,1.2-0.4
			C276.9,362.7,276.4,362.4,276,362.3z"/>
		<path class="st41" d="M280.4,363.8c-0.3,0-0.4,0-0.7,0.1c-0.3,0.1-0.1,0.4,0.1,0.5c0.3,0.1,0.6,0.2,0.9,0S280.6,363.8,280.4,363.8
			z"/>
		<path class="st41" d="M282.7,357.9c-0.2,0.1-0.3,0.2-0.5,0.4c-0.2,0.3,0,0.7,0.2,0.9c0.2,0.3,0.7,0.5,1,0.3
			c0.4-0.1,0.5-0.3,0.6-0.7C284.3,358.2,283.2,357.5,282.7,357.9z"/>
		<path class="st41" d="M276.4,354c-0.6,0-0.2,0.8,0.3,0.8C277.3,354.8,276.9,354,276.4,354z"/>
		<path class="st41" d="M282.5,353c-0.2-0.1-0.4-0.3-0.6-0.3c-0.8-0.1-0.8,0.7-0.3,1.1c0,0,0.1,0,0.1,0.1c0.3,0.2,1,0.3,1.1-0.2
			v-0.1C283,353.3,282.7,353.1,282.5,353z"/>
		<path class="st41" d="M285.4,352.1L285.4,352.1c-0.7-0.5-1.9-0.4-1.7,0.6c0.2,0.8,1.2,1.3,1.9,0.9c0,0,0,0,0.1,0
			C286.4,353.2,285.8,352.4,285.4,352.1z"/>
		<path class="st41" d="M287.8,350.4c-0.1-0.4-0.5-0.6-0.9-0.6s-0.6,0.3-0.5,0.7c0.1,0.4,0.5,0.6,0.9,0.6S287.9,350.8,287.8,350.4z"
			/>
		<path class="st41" d="M287.2,355.5c-1.1,0-0.3,1.5,0.5,1.5C288.8,357,288.1,355.5,287.2,355.5z"/>
		<path class="st41" d="M284.9,359.1c-0.6-0.3-1.3,0.2-0.9,0.9c0,0,0,0.1,0.1,0.1c0.2,0.3,0.6,0.5,1,0.4h0.1
			C286,360.3,285.4,359.3,284.9,359.1z"/>
		<path class="st41" d="M283.3,362.6c-0.1-0.4-0.5-0.6-0.9-0.6s-0.6,0.3-0.5,0.7c0.1,0.4,0.5,0.6,0.9,0.6
			C283.2,363.2,283.4,362.9,283.3,362.6z"/>
		<path class="st41" d="M271.5,351.7c-1.6,0-0.5,2.2,0.8,2.2C273.9,353.9,272.8,351.7,271.5,351.7z"/>
	</g>
	<g>
		<path class="st4" d="M158.2,260.2c0,0-6.1-3.1-12,1.8c-6,4.9-9,12.9,3.1,26.5c12,13.6,25.1,28.1,27.6,30.6s2.2,12.2,2.2,12.2
			s-1.9,9.6-1.1,10.4c0.8,0.8,6.2,2.5,15.3-1.7s14.5-10.6,14.5-13.6s-2.6-4.7-7.8-7.8c-5.2-3.1-3.9-3.3-8.4-7.9
			c-4.5-4.5-18.1-34.1-22.7-40.8C164.4,263.2,158.2,260.2,158.2,260.2z"/>
		
			<linearGradient id="SVGID_18_" gradientUnits="userSpaceOnUse" x1="187.1652" y1="794.3487" x2="145.397" y2="743.5198" gradientTransform="matrix(1 0 0 1 0 -472)">
			<stop  offset="0" style="stop-color:#F0A37F"/>
			<stop  offset="1" style="stop-color:#F8AD84;stop-opacity:0"/>
		</linearGradient>
		<path class="st42" d="M158.2,260.2c0,0-6.1-3.1-12,1.8c-6,4.9-9,12.9,3.1,26.5c12,13.6,25.1,28.1,27.6,30.6s2.2,12.2,2.2,12.2
			s-1.9,9.6-1.1,10.4c0.8,0.8,6.2,2.5,15.3-1.7s14.5-10.6,14.5-13.6s-2.6-4.7-7.8-7.8c-5.2-3.1-3.9-3.3-8.4-7.9
			c-4.5-4.5-18.1-34.1-22.7-40.8C164.4,263.2,158.2,260.2,158.2,260.2z"/>
		<path class="st4" d="M180.6,338.3c0,0-1.9-0.2-2.5,2s1.3,7.8,1.3,9.4s3.8,3.9,10.8,6.9L180.6,338.3z"/>
		
			<linearGradient id="SVGID_19_" gradientUnits="userSpaceOnUse" x1="186.3211" y1="819.2314" x2="179.2493" y2="820.0417" gradientTransform="matrix(1 0 0 1 0 -472)">
			<stop  offset="0" style="stop-color:#E89166"/>
			<stop  offset="1" style="stop-color:#F8AD84;stop-opacity:0"/>
		</linearGradient>
		<path class="st43" d="M180.6,338.2c0,0-1.9-0.2-2.5,2c-0.6,2.3,1.3,7.8,1.3,9.4s3.8,3.9,10.8,6.9L180.6,338.2z"/>
		<path class="st4" d="M207.8,325.4c0,0,2.1,7.6,0,13.5c0,0-3.2,0.9-4.6-3.9C201.7,330.1,204.6,323.8,207.8,325.4z"/>
		<path class="st4" d="M183.4,345.9c0,0-4.8-8.7-2.3-12.5s6.1-2.2,7.6,2.2c1.5,4.4,4.2,7.9,4.8,11.8s9,10.4,10.9,12.4
			c2,2,2.4,5.4,1.4,6.4s-7.2-5.9-11.6-7.3C189.8,357.5,187.8,355.1,183.4,345.9z"/>
		
			<linearGradient id="SVGID_20_" gradientUnits="userSpaceOnUse" x1="199.231" y1="829.1077" x2="187.9602" y2="815.9952" gradientTransform="matrix(1 0 0 1 0 -472)">
			<stop  offset="0" style="stop-color:#E89166"/>
			<stop  offset="1" style="stop-color:#F8B38D;stop-opacity:0"/>
		</linearGradient>
		<path class="st44" d="M183.4,345.9c0,0-4.8-8.7-2.3-12.5s6.1-2.2,7.6,2.2c1.5,4.4,4.2,7.9,4.8,11.8s9,10.4,10.9,12.4
			c2,2,2.4,5.4,1.4,6.4s-7.2-5.9-11.6-7.3C189.8,357.5,187.8,355.1,183.4,345.9z"/>
		<path class="st4" d="M186.5,330.3c0,0,6.6,20.3,9.3,23s8.6,6.5,8.6,6.5s6.4,5.1,8,5.1s1-2.1,0.4-3.6c-0.7-1.5-4.6-5.1-6.1-5.8
			c0,0-2.5-5.9-4.6-7c0,0-5.1-17.2-7-20.3C193.1,325.1,186.5,324.6,186.5,330.3z"/>
		
			<linearGradient id="SVGID_21_" gradientUnits="userSpaceOnUse" x1="204.8759" y1="817.5189" x2="193.5316" y2="817.1505" gradientTransform="matrix(1 0 0 1 0 -472)">
			<stop  offset="0" style="stop-color:#E89166"/>
			<stop  offset="1" style="stop-color:#F8B38D;stop-opacity:0.2"/>
		</linearGradient>
		<path class="st45" d="M186.5,330.3c0,0,6.6,20.3,9.3,23s8.6,6.5,8.6,6.5s6.4,5.1,8,5.1s1-2.1,0.4-3.6c-0.7-1.5-4.6-5.1-6.1-5.8
			c0,0-2.5-5.9-4.6-7c0,0-5.1-17.2-7-20.3C193.1,325.1,186.5,324.6,186.5,330.3z"/>
		
			<linearGradient id="SVGID_22_" gradientUnits="userSpaceOnUse" x1="208.5222" y1="828.1691" x2="203.4946" y2="831.2078" gradientTransform="matrix(1 0 0 1 0 -472)">
			<stop  offset="0" style="stop-color:#D6835A"/>
			<stop  offset="1" style="stop-color:#F8B38D;stop-opacity:0"/>
		</linearGradient>
		<path class="st46" d="M212.8,361.3c-0.7-1.5-4.6-5.1-6.1-5.8c0,0-2.4-5.7-4.5-6.9c-1,2.6-2.4,4.8-4.2,6.6c2.9,2.3,6.5,4.6,6.5,4.6
			s6.4,5.1,8,5.1C214.1,364.9,213.5,362.8,212.8,361.3z"/>
		<path class="st4" d="M211.4,353.1c-2.5-2.5-3.5-7.1-3.5-7.1s0,0,0-6.5s-1.8-14.8-5.8-14.8s-5.6,3-4.9,7.8
			c0.7,4.8,4.4,13.9,5.6,16.1c1.2,2.1,5.1,9.4,5.1,9.4l5.6,4.3C213.5,362.2,216.6,358.3,211.4,353.1z"/>
		
			<linearGradient id="SVGID_23_" gradientUnits="userSpaceOnUse" x1="213.295" y1="824.6397" x2="194.3961" y2="795.2789" gradientTransform="matrix(1 0 0 1 0 -472)">
			<stop  offset="0" style="stop-color:#E89166"/>
			<stop  offset="1" style="stop-color:#F8AD84;stop-opacity:0"/>
		</linearGradient>
		<path class="st47" d="M211.6,353.3c-2.5-2.5-3.5-7.1-3.5-7.1s0,0,0-6.5s-1.8-14.8-5.8-14.8s-5.7,3.3-4.9,8.1
			c0.7,4.8,4.5,13.6,5.7,15.8c1.2,2.1,5.1,9.4,5.1,9.4s4.9,3.9,5.6,4.3C215.8,363.6,216.8,358.5,211.6,353.3z"/>
		
			<linearGradient id="SVGID_24_" gradientUnits="userSpaceOnUse" x1="190.8622" y1="822.1983" x2="184.8067" y2="816.9877" gradientTransform="matrix(1 0 0 1 0 -472)">
			<stop  offset="0" style="stop-color:#FFB691"/>
			<stop  offset="1" style="stop-color:#F8B895;stop-opacity:0.2"/>
		</linearGradient>
		<path class="st48" d="M184.7,348.3c0,0,3.1,6,4.4,7.2c1.3,1.3,3.5,0.6,3.5-2.1s-5.2-12.4-6.2-13.8
			C185.3,338.3,179.2,339.2,184.7,348.3z"/>
		
			<linearGradient id="SVGID_25_" gradientUnits="userSpaceOnUse" x1="157.0699" y1="737.7481" x2="151.0143" y2="732.5375" gradientTransform="matrix(0.9994 3.533643e-02 -3.533643e-02 0.9994 66.456 -395.5092)">
			<stop  offset="0" style="stop-color:#FFB691"/>
			<stop  offset="1" style="stop-color:#F8B895;stop-opacity:0.2"/>
		</linearGradient>
		<path class="st49" d="M191.3,345.2c0,0,2.9,6.1,4.1,7.4s3.5,0.7,3.6-2s-4.7-12.6-5.7-14S186.1,335.9,191.3,345.2z"/>
		
			<linearGradient id="SVGID_26_" gradientUnits="userSpaceOnUse" x1="140.6494" y1="368.6735" x2="134.594" y2="363.463" gradientTransform="matrix(0.8917 0.1828 -0.2008 0.9796 153.884 -44.7498)">
			<stop  offset="0" style="stop-color:#FFB691"/>
			<stop  offset="1" style="stop-color:#F8B895;stop-opacity:0.2"/>
		</linearGradient>
		<path class="st50" d="M200.2,339.1c0,0,1.6,6.4,2.5,7.9s3,1.2,3.5-1.4s-2.1-13.1-2.8-14.6C202.7,329.4,197.1,329.2,200.2,339.1z"
			/>
		
			<linearGradient id="SVGID_27_" gradientUnits="userSpaceOnUse" x1="208.3047" y1="827.5599" x2="203.6638" y2="817.2838" gradientTransform="matrix(1 0 0 1 0 -472)">
			<stop  offset="0" style="stop-color:#FFB089"/>
			<stop  offset="1" style="stop-color:#F8B38D;stop-opacity:0"/>
		</linearGradient>
		<path class="st51" d="M203,348.8c0,0,2,0.3,2.8-0.5s2.5,2.7,3.3,4.2s1.2,4.2-0.4,4.4C207.2,357.1,203,348.8,203,348.8z"/>
		<path class="st52" d="M214,362.7l-1.8-1.3c0,0,0.2-1.2,1.3-0.9s1.8,1.2,1.8,1.4C215.3,362.3,214.6,363.2,214,362.7z"/>
		<path class="st52" d="M210.8,364.1c-0.2-0.3-0.1-1,0.7-1.2c0.7-0.2,2.3,1.4,2.3,1.4s-0.2,0.6-0.8,0.9
			C212.6,365.4,211.3,364.7,210.8,364.1z"/>
		<path class="st52" d="M203.6,365.3c0.1,0.1,2,1.3,2.3,1.5c0.3,0.1,0.9-0.7,0.8-1.1c-0.1-0.4-1.7-1.4-2-1.4
			C204.2,364.3,203.4,365.1,203.6,365.3z"/>
	</g>
	<path class="st52" d="M260.7,340.6c0,0,1.4-0.6,2.4,0.6c0,0,2.7-0.7,2.9-1.1c0.3-0.4-1.2-1.2-2-1.2S260.9,339.8,260.7,340.6z"/>
	<path class="st52" d="M275.8,369.3c0,0,1.6-1,2.5-1s1.3,1.3,1.3,1.7s-2.7,1.3-2.9,1.3S275.6,369.7,275.8,369.3z"/>
	<path class="st52" d="M277.7,374.7c0,0,1.4-1,2-1.2c0.6-0.1,1.1,1.1,1.2,1.4s-2,1.4-2.3,1.5C278,376.6,277.2,375,277.7,374.7z"/>
	<polygon class="st25" points="359.4,437.5 197.6,438 197.6,432 359.4,431.4 	"/>
	<g>
		<path class="st53" d="M131.9,414.7v0.1l-0.1,0.1l0,0c-1.3,2-15,3.5-31.8,3.5c-17,0-31-1.6-31.8-3.6c0-0.1,0-0.1,0-0.2
			c0-2.1,14.3-3.8,31.9-3.8C117.6,410.9,131.9,412.6,131.9,414.7z"/>
		
			<linearGradient id="SVGID_28_" gradientUnits="userSpaceOnUse" x1="99.6417" y1="824.2177" x2="100.3098" y2="849.4413" gradientTransform="matrix(1 0 0 1 0 -472)">
			<stop  offset="2.702703e-03" style="stop-color:#B3FFFF"/>
			<stop  offset="1" style="stop-color:#7DC4C4"/>
		</linearGradient>
		<path class="st54" d="M155.5,363.1c0,0.2-0.1,0.5-0.2,0.7v0.1c-2.4,4.6-26.3,8.3-55.4,8.3c-28.8,0-52.4-3.6-55.3-8.1
			c-0.2-0.3-0.3-0.6-0.3-0.9c0-5,24.9-9,55.6-9S155.5,358.1,155.5,363.1z"/>
		<path class="st55" d="M54.8,376.2c0,0-3.2-12.5-4.6-16.8c-1.4-4.3-11.3-30.1-28.3-40.5c0,0-2.9-1.9,2.9-5s25,22.6,31.5,35.4
			s15,12.5,20.2,27.7C81.8,392.1,58.2,382,54.8,376.2z"/>
		<path class="st56" d="M56.1,376.2c0,0-3.2-12.5-4.6-16.8s-11.3-30.1-28.3-40.5c0,0-2.9-1.9,2.9-5s25,22.6,31.5,35.4
			s15,12.5,20.2,27.7C83.1,392.1,59.5,382,56.1,376.2z"/>
		
			<linearGradient id="SVGID_29_" gradientUnits="userSpaceOnUse" x1="45.0872" y1="807.1573" x2="62.6268" y2="849.0857" gradientTransform="matrix(1 0 0 1 0 -472)">
			<stop  offset="0.1162" style="stop-color:#C581CC"/>
			<stop  offset="1" style="stop-color:#873C8F"/>
		</linearGradient>
		<path class="st57" d="M56.1,376.2c0,0-3.2-12.5-4.6-16.8c-1.4-4.3-11.3-30.1-28.3-40.5c0,0-2.9-1.9,2.9-5s25,22.6,31.5,35.4
			s15,12.5,20.2,27.7C83.2,392.1,59.5,382,56.1,376.2z"/>
		<path class="st58" d="M135.5,376.1c-0.6-0.1-1.1-0.1-1.7-0.1c-0.4-0.4-0.9-0.7-1.4-1c-2.2-1.2-6.3-2.6-8.7-1.3
			c-1.4,0.8-2,1.9-2.1,3.3c-0.2,0.2-0.5,0.4-0.7,0.5c-2.6,2.4-2.9,5.5-2,8.4c-0.6,0-1.3,0.1-2,0.4c-1-1-2.1-1.8-3.6-2.3
			c-2-0.6-4.1-0.2-5.4,1.4c-0.1-1-0.3-2-0.6-2.9c-0.6-1.8-1.8-3.6-3.4-4.7c-1.9-1.9-4.8-3.1-7-3.6c-4.8-1.2-10.5-0.1-8.8,6.3
			c0.3,1.3,0.8,2.6,1.4,3.8c-0.3,0.3-0.6,0.6-0.9,1c-0.2-3.4-2.1-7.8-5.8-8c-0.3,0-0.7,0-0.9,0c-2.9-1.6-6.7-1.7-8.7,1
			c-0.4,0.5-0.6,1.1-0.8,1.8c-0.8-0.2-1.6-0.3-2.4-0.3c-0.8-1.1-1.6-2-2.3-2.8c-2.6-2.8-7.8-7.6-11.4-3.4c-0.5,0.6-0.9,1.3-1.1,2.2
			c-1.6,0-3.2,1.1-2.4,3.1c0.5,1.2,1.1,2.1,1.9,2.7c0,0.9-0.5,0.7-0.4,1.3c0.2,1.2,1.3,3.1,2.2,3.9c0.4,0.4,0.6,1.2,1.1,1.4
			c1.1,3.5,2.7,6.7,4.6,10c0.1,0.2,0.3,0.5,0.4,0.7c0.2,0.4,0.4,0.7,0.5,1.1s0.2,0.8,0.3,1.1c0.1,0.2,0.2,0.4,0.3,0.5
			c1.1,3.1,2.4,6.1,4,9c0.3,0.6,0.7,1,1.2,1.2c1.2,2.2,3,3.9,5.6,4.3c0.8,0.1,1.4,0,2-0.1c3.5,1.8,8.1,2.4,11.1,1.1
			c0.1-0.1,0.2-0.1,0.3-0.1c0.4,0.2,0.8,0.4,1.2,0.5c1.1,0.4,2.3,0.4,3.5,0.3c1.2-0.2,2.3-0.6,3.2-1.1c1.5,1.1,3.3,1.7,5.1,1.2
			c1-0.2,1.8-0.7,2.5-1.4c2.5,0.8,5.2,0.4,7.3-1.1c2.7,2.1,6.6,1.9,9.4-0.4c1.6,0.4,3.3,0.2,5-0.4c1.2,1,2.7,1.3,4.4,0.5
			c3-1.4,2.5-4.9,3.5-7.6c0.3-0.3,0.6-0.7,0.9-1c0.9-0.2,1.7-0.8,2-1.9c0.7-2,1.2-4.1,1.7-6.1c0.1-0.2,0.1-0.5,0.1-0.7
			c1.1-0.6,1.5-2,1-3.1c0.4-0.7,0.8-1.3,1.1-1.9c1-1.7,2.4-3.8,2.8-5.9c0.1-0.1,0.1-0.3,0.2-0.4C144.3,381.9,139.9,377,135.5,376.1z
			"/>
		<path class="st59" d="M74.6,391.4c0.2-0.7,0.3-1.4,0.1-2.2c-0.3-1.6-1.4-2.4-2.6-3.3c-0.2-1.1-0.7-2.6-1.3-3.7h0.1l0,0
			c0.1,0.2,0.2,0.4,0.3,0.6c0.4,0.5,1.2,0.2,1.4-0.3c0,0,0,0,0.1,0c0.1-0.1,0.3-0.2,0.4-0.3c0.1-0.1,0.1-0.2,0.1-0.2
			c0.1-0.1,0.3-0.2,0.4-0.4c0.1-0.2,0.2-0.5,0.3-0.7c0.1-0.4,0-0.8-0.1-1.2c-0.8-2.5-3.8-2.3-5.7-1.4c-0.9,0.4-1.2,1.5-0.9,2.4
			c-1.3,0.6-0.7,2.8,0.8,2.3c0.1,0,0.6,3.5,0.7,4.1c0.3,1.2,1.5,1.9,1.3,3c-1.5,0.6-2,3-0.9,4.3c0.3,0.4,0.7,0.7,1.1,0.9
			c-0.3,0.7-0.3,1.6,0.2,2.3c1.9,2.5,6.8,3.6,7.6-0.5C78.8,394.4,76.8,392.6,74.6,391.4z"/>
		<path class="st59" d="M65.1,386.9c-0.5-0.4-1-0.5-1.6-0.7c-0.3-0.1-0.7-0.1-1,0c-1.1-0.2-1.8,0.2-2.8,0.8c-0.7,0.5-0.7,1.4,0,1.8
			c0.2,0.1,0.4,0.3,0.7,0.4c0.2,0.1,0.4,0.2,0.6,0.2c0.3,1,1.1,1.9,2.1,2.3c1.6,0.5,2.7-1.1,2.4-2.4C66,388.6,66,387.6,65.1,386.9z"
			/>
		<path class="st59" d="M89.4,392.7l-0.1-0.1c-0.3-1.7-0.8-3.4-2.6-4.1c-1-0.4-1.8,0.3-2,1.2c0,0,0,0-0.1,0c-0.1,0.6-0.1,1.2,0,1.9
			c-0.2,0.3-0.3,0.8-0.1,1.2c0.2,0.3,0.3,0.6,0.5,0.9c0.1,0.3,0.1,0.6,0.2,1c0.2,1.8,0.7,3.9,2.9,3.9c1,0,1.8-0.7,2.1-1.6
			C90.8,395.5,90.4,393.9,89.4,392.7z"/>
		<path class="st59" d="M84.4,383.9c-0.6-0.6-1.3-1-2.1-1.2c-1.6-0.5-3.4-0.2-4.8,0.6c-1,0.5-1.4,1.8-1.1,2.8
			c0.3,1.1,1.3,1.7,2.4,1.8c1.2,0.1,2.3-0.2,3.4-0.6c0.4,0.3,0.7,0.4,1.2,0.5c1,0.3,2-0.3,2-1.4C85.3,385.3,85.1,384.6,84.4,383.9z"
			/>
		<path class="st59" d="M105.3,404.3c-1-1.3-1.9-2.7-3-4c-1.9-2.2-5.1-0.7-5.7,1.6c-0.8,0.4-1.4,1-1.8,1.9c-0.2,0.4-0.7,0.4-1.4,0.3
			c0.4-1.1,0.3-2.1-0.4-3.1c-0.9-1.3-2.6-1.2-3.8-0.3c-1.4,1.1-1.8,2.9-1.4,4.5c-0.4,0.3-0.8,0.4-1,0.5c-1.2,0.3-3,0.1-3.6-1.1
			c0.3-0.4,0.3-1,0.1-1.5c-0.1-0.3-0.3-0.6-0.4-0.9c-0.4-1-2-1.1-2.7-0.3c-3.2,3.7,1.7,8.2,5.6,8c1.1-0.1,2.7-0.7,4-1.6
			c1.8,1.3,4.3,1.4,6.6,0.7c0.4,0.4,0.9,0.8,1.5,1c0.8,0.3,1.8,0.4,2.6,0.3c0.4,0,0.9-0.2,1.2-0.4c0.2-0.1,0.3-0.2,0.4-0.2
			C104.8,409.9,106.9,406.4,105.3,404.3z"/>
		<path class="st59" d="M107.6,380c-2.3-1.1-4.9,0-6.2,2c-0.4,0.6-0.6,1.2-0.7,1.8c-3.4-1.2-8.5-0.6-8.6,3.6c0,0.2,0,0.3,0,0.5
			c-0.5,1.1-0.3,2.4,1,3c0.3,0.1,0.6,0.3,0.9,0.4c1.3,1.1,3.1,1.6,4.7,1.3c0.9,0,1.7-0.2,2.4-0.8c0.4-0.1,0.8-0.3,1.1-0.7
			c0.3-0.1,0.6-0.3,0.9-0.5c0.7-0.6,1.1-1.3,1.2-2c1.2,0.1,2.4-0.3,3.2-1.1c0.1-0.1,0.2-0.3,0.3-0.5c0.4-0.2,0.7-0.4,1-0.7
			C110.7,384.5,109.8,381.1,107.6,380z"/>
		<path class="st59" d="M120.5,398.7c-0.1-0.1-0.2-0.2-0.3-0.4c0.1-0.3,0.1-0.6,0-1c-0.4-2.3-3.1-3.3-5.1-4
			c-2.2-0.7-4.7-0.6-6.4,1.1c-1.7,1.6-2,4.2-0.8,6.1c2.3,3.6,8.6,4.9,12.1,2.5C121.5,402,121.8,400.1,120.5,398.7z"/>
		<path class="st59" d="M127.2,384.6c-0.9-0.8-2.1-1.3-3.4-1.4c0-1.3-0.7-2.5-2.1-2.8c-2.3-0.6-4.7,0.7-5.4,2.9
			c-0.6,1.9,0.2,4.1,1.2,5.7c0.3,0.5,0.8,1,1.2,1.5c0.5,0.7,1.3,1.2,2.1,1.4c2.2,1,4.7,0.8,6.5-1.3
			C128.9,388.8,128.9,386.2,127.2,384.6z"/>
		<path class="st59" d="M138.6,383c-0.5,0.5-0.8,1-1.1,1.7c-0.8-0.1-1.6,0-2.2,0.5c-1.1,0.9-1.7,2.6-1.6,3.9
			c0.1,1.3,1.3,1.9,2.4,1.4c0.5-0.3,0.9-0.5,1.3-1c0.1,0,0.2,0.1,0.2,0.1c0.7,0.2,1.4,0.1,2.1-0.2c1.8,0.2,2.2-2.1,2.9-3.3
			C144.2,383.5,140.7,381.1,138.6,383z"/>
		<path class="st59" d="M133.5,399.7C133.4,399.7,133.4,399.7,133.5,399.7c-0.6-1-1.5-1.9-2.6-2.1c-0.8-0.1-1.6,0-2.2,0.5
			c-0.1,0-0.1,0-0.2,0c-0.6-0.5-1.6-0.3-2.2,0.2c-1,0.9-1.8,2.1-1.8,3.4c0,1.1,0.2,2.5,0.7,3.5c1.5,2.8,5.2,3.6,7.7,1.7
			C135.2,405.2,135.6,401.8,133.5,399.7z"/>
		<path class="st59" d="M138,375.8c-1.3-0.8-2.7-1.2-4.2-0.9c-1.3,0.3-2,1.2-2.9,2.1c-0.9,1-1.6,2.3-1.4,3.7
			c0.3,1.4,1.3,2.3,2.7,2.4c0.9,0,1.5-0.7,1.7-1.5c0.1-0.3,0.2-0.6,0.3-1c0,0,0-0.1,0.1-0.1s0.2,0,0.4,0c0.8,0.1,1.7,0.9,2.7,0.9
			c1.1,0,2.1-0.7,2.4-1.7C140.3,378.1,139.2,376.6,138,375.8z"/>
		<path class="st59" d="M77.6,407.2c0-0.1,0-0.3-0.1-0.4c-0.3-1-1.1-1.8-2-2.1c-0.6-0.2-1.2-0.3-1.7-0.2l0,0c-1.7-1-3.7,0-4.3,1.7
			c-1.1,3.4,3.5,6.6,6.5,4.9c0.4-0.3,0.8-0.6,1.1-1c0.5-0.2,0.9-0.6,1.1-1.2C78.3,408.1,78,407.6,77.6,407.2z"/>
		<path class="st59" d="M120.3,406.8c-1.1-0.4-2.2-0.3-3.3-0.1c-0.4,0.1-0.6,0.1-0.8,0.1c-0.4-0.3-0.8-0.4-1.3-0.2
			c-0.1,0-0.2,0-0.3,0.1c-1.6,0.1-2.4,1.6-1.8,3.1c0.6,1.3,2.2,1.8,3.5,1.7c0.5,0,1-0.1,1.5-0.1c0.3,0,0.5,0,0.8-0.1
			c0.1,0,0.8,0,0.4-0.1C122,411.6,123.1,407.9,120.3,406.8z"/>
		<path class="st59" d="M108.3,412.5c-1.3-1.3-2.9-1.6-4.7-1.2c-1,0.2-1.9,0.9-2.9,1.1c-2.3,0.4-2.4-0.8-4.2-0.9
			c-1.7-0.1-2.1,1.1-3.5,1.5c-2,0.6-3.5-0.7-5.5,0.2c-0.9,0.4-0.9,1.7-0.3,2.3c2.3,2.2,6.2,2.2,8.8,0.5c0.3-0.2,0.4-0.4,0.4-0.5
			c0.1,0.1,0.3,0.3,0.7,0.5c0.7,0.5,1.7,0.9,2.5,1c2.2,0.3,4.1-1,6.3-0.5C108.2,416.9,110,414.3,108.3,412.5z"/>
		<path class="st60" d="M88.8,412.1c-1.3-0.2-2.8,0-4.1,0.3c-0.1,0-0.3-0.1-0.4-0.1c-0.9-1.6-3.9-1.3-4.4-3.4
			c-0.4-1.6-2.7-1.9-3.5-0.5c-0.3,0.6-1.2,1.6-1.3,0.5c-0.2-1.4-2.4-2.5-3.1-0.8s0.1,3.9,1.7,4.9c1.1,0.7,2.2,0.7,3.2,0.2l0.1,0.1
			c0.6,0.7,1.5,1.2,2.4,1.3c0.4,0.1,0.9,0.1,1.4,0c0.1,0.2,0.2,0.3,0.3,0.5c2.6,2.8,7.9,3.5,9.3-0.8
			C90.9,413.2,89.9,412.2,88.8,412.1z"/>
		<path class="st60" d="M120.5,395.8c-1.9-1.2-3.6-1.3-5.8-0.8c-0.6,0.1-1.1,0.6-1.5,1.1c-0.5-1.3-2.2-2.2-3.4-1.3
			c-0.5,0.3-1,0.6-1.5,0.9c-0.2,0.1-0.3,0.2-0.5,0.2c0,0,0,0-0.1-0.1c-0.8-1.7-1.5-3.5-2.1-5.3l0,0c-0.5-1.8-3.8-1.5-3.3,0.9
			c0.5,2.3,1.2,6.6,3.2,8.2c1.4,1.1,2.9,0.6,4.4,0c0.7,0.8,1.6,1.3,2.7,1.5c0.9,0.2,1.8,0,2.7-0.4c1.5-0.6,2.5-1,4.2-1.2
			C121.4,399.3,122.4,396.9,120.5,395.8z"/>
		<path class="st60" d="M133.6,390.1c-2.1,0.2-3.6-1.6-5.7-1c-0.2,0-0.9,0.4-1.5,0.8c0-0.1,0-0.1-0.1-0.2c-0.1-0.5-0.2-1.1,0-1.6
			c1.2-2.6-2.6-5-3.9-2.3c-1.5,2.9-1,10.5,3.9,9.3c0.8-0.2,1.5-0.7,2.2-1.3c0.8-0.7,0.9-0.3,2.1-0.4c1.6-0.1,3-1.1,3.6-2.6
			C134.4,390.5,134,390,133.6,390.1z"/>
		<path class="st60" d="M141.2,381c-0.2-0.3-0.5-0.5-0.8-0.7c0,0,0,0,0-0.1h-0.1c-0.2-0.1-0.5-0.2-0.7-0.3c-2-0.7-4.8,0-5.3,2.1
			c-0.2,1.1,0.5,2.1,1.6,2.1c0.1,0,0.2,0.1,0.3,0.2c0,0,0,0,0,0.1c0.1,0.3,0.1,0.6,0.3,0.8c0,0.3-0.2,0.6-0.5,0.9
			c-0.5,0.5,0.2,1.5,0.8,1.1c0.5-0.3,0.8-0.8,1.1-1.3c0.2,0,0.5-0.1,0.7-0.2c1.2-0.4,1.8-1.4,2.4-2.5
			C141.5,382.6,141.6,381.6,141.2,381z"/>
		<path class="st60" d="M133.2,399.7c-0.7-1.1-2.6-1.7-3.5-0.5c-1,1.3-1.4,2.9-1.6,4.5c-0.4,0.2-0.7,0.6-0.9,1
			c-0.5,0.9-0.8,1.7-0.8,2.7c-0.1,0.4,0,0.7,0,1.1c-0.6,0.1-1.1,0.3-1.5,0.7c-0.6,0.7-2.9-0.1-4,0.4c-0.6,0.3-1,0.6-1.5,1.1
			c-0.2,0.2-0.4,0.5-0.5,0.7l0,0c-2-0.1-4,0.3-6,0.1c-1.5-0.2-2.9-0.6-4.3-0.6c0.2-0.3,0.3-0.6,0.3-1c0.1-1.9-0.9-2.9-2-4.4
			c-0.8-1.2-2.8-1.5-3.5,0c-0.5,0.9-0.6-0.1-1.4-0.6c-0.4-0.3-1-0.5-1.5-0.5c-0.4,0-0.8,0.1-1.1,0.2c-1.2-2.4-3-4.8-5.5-4.1
			c-3.1,0.8-1.7,4.4,1,4.4c0.2,0,0.4-0.1,0.5-0.1c0.3,0.7,0.6,1.3,0.5,1.2c0.4,0.9,0.7,1.8,0.8,2.8c0.2,1.5,2.5,2,3.4,0.9
			c0.1-0.1,0.2-0.3,0.3-0.4c0.2,0.2,0.4,0.3,0.6,0.4c0.6,0.4,1.3,0.7,2,0.7c0.6,0,1.1-0.2,1.6-0.4c0.4,0.5,0.9,1,1.6,1.3
			c0.1,0,0.2,0.1,0.2,0.1c0,0.1,0,0.3,0.1,0.4c1.8,1.9,5.9,3.2,8.5,3.5c0.6,0.1,1.1-0.1,1.7-0.1c0,0,0.1,0,0.1,0.1
			c1,0.7,1.4,1.5,2.7,1.6c1,0,1.9-0.5,2.6-1.1c0.1-0.1,0.4-0.4,0.7-0.7c1.3,0.5,2.7,0.1,3.9-0.6c0.7,0.2,1.5,0.2,2.2,0
			c1-0.3,1.8-1.1,2.3-2c0.3-0.6,0.4-1.3,0.4-2c1.1-0.4,2-1.4,2.1-2.8C134,405,134.8,402,133.2,399.7z"/>
		<path class="st60" d="M77.8,392.9c-0.8-0.6-1.7-1.3-2.6-1.8c-1.6-0.8-3,0.9-2.3,2.2l0,0c-1,1-1.4,2.2-1,3.7
			c0.1,0.4,0.3,0.8,0.5,1.2c-0.2,0.2-0.4,0.5-0.5,0.8c-0.2,0-0.3-0.1-0.5-0.1c0-1.1-1-2.1-2.1-2.1c-2.8-0.1-3.8-2-4.2-4.5
			c-0.1-1-0.1-2.6-1.4-2.8h-0.1c-1-0.2-2.1,0.3-2.4,1.4c-0.6,2.4,0.1,5.3,1.6,7.4c1.2,1.7,2.9,2.2,4.7,2.5c0.4,1.1,1.2,1.9,2.4,2.4
			c1.4,0.5,2.7,0.1,3.9-0.7c1.5,1,3.4,1.3,4.6-0.7c1.2-1.9,0.1-4-0.9-5.9c0.3-0.1,0.7-0.2,1-0.3c0.3-0.1,0.6-0.3,0.7-0.7
			C79.3,394.1,78.4,393.3,77.8,392.9z"/>
		<path class="st60" d="M100.2,381.1c-0.3-0.4-0.8-0.8-1.2-1.1c-0.2-0.1-0.4-0.2-0.7-0.2c-0.1-0.1-0.2-0.2-0.3-0.2
			c-0.7-0.4-1.6-0.1-1.9,0.6c-0.5,0.1-1,0-1.5,0.1c-1,0.2-1.6,0.8-2.2,1.6c-0.1,0.1-0.1,0.2-0.1,0.3l-0.1-0.1
			c-0.7-0.8-2.1-0.6-2.6,0.3c-1,1.8-0.2,3.7,1.2,5.2c-0.2,0.1-0.4,0.3-0.7,0.5c-0.4,0.4-0.8,0.8-1.1,1.3c-1.1-0.4-2.5,0.1-3,1.4
			c-1.3,3.2,2.9,7.8,5.5,4.3c0.9-1.2,0.3-4.2,1.7-4.6c0.6-0.2,1.3,0.2,1.9,0c0.7-0.2,1.2-0.7,1.6-1.2c0.4-0.6,0.3-1.3,0-1.9
			c-0.5-1-1.5-1.6-2.3-2.4c0.3,0,0.5-0.1,0.8-0.2c0.5-0.2,1.4-0.3,2.1-0.6c0.1-0.1,0.3-0.1,0.5-0.2c0.2,0.1,0.5,0.2,0.8,0.2
			C100,384.2,101,382.4,100.2,381.1z"/>
		<path class="st60" d="M70.1,380.5c-0.6,1.2-1,2.3-1.1,3.6c0,0,0,0,0,0.1c-0.1-0.1-0.1-0.2-0.2-0.3c-0.4-0.8-0.6-1.7-0.9-2.5
			c-0.6-1.2-1.7-2.2-2.9-2.1c-0.4-0.2-0.9-0.4-1.4-0.5c0.5-0.5,0.6-1.4-0.2-1.8c-1.1-0.5-1.9-1-3.1-0.3c-0.9,0.5-1.4,1.5-1.2,2.6
			c0.4,2.1,2.7,2,4.3,2.6c0.1,0.2,0.2,0.4,0.3,0.6c0.4,0.7,0.6,1.3,0.9,2.1c0.3,0.8,0.8,1.4,1.6,1.7c0.4,0.2,1.5,0.2,1.6,0.4
			c0.5,0.4,1.1,0.4,1.5,0.1c0.1,0.3,0.3,0.6,0.6,0.9c0.6,0.5,1.5,0.4,1.9-0.2c0.5-0.8,0.4-1.8,0.5-2.7c0.1-1,0.3-1.9,0.6-2.8
			C73.6,380,71,378.9,70.1,380.5z"/>
		<path class="st61" d="M61.2,373.5c-1-0.1-1.9,0.2-2.4,0.9c-0.8,0.2-1.4,0.7-1.9,1.6c-0.3,0.6-0.4,1.3-0.4,1.9
			c-0.2,0.1-0.5,0.3-0.7,0.5c-1.2,1.2-1.4,3-0.5,4.4s2.5,1.4,3.7,0.5l0.2-0.2c0.4-0.3,0.6-0.8,0.6-1.3c0.9,0.1,1.9-0.4,2.4-1.1
			c0.3-0.4,0.3-0.9,0.3-1.4c0.4-0.3,0.7-0.6,0.9-1.1c0.4-0.1,0.7-0.3,0.9-0.8C65.1,375.3,63,373.8,61.2,373.5z"/>
		<path class="st61" d="M84.7,394.3c-0.5-0.6-1.2-0.8-2-0.9c0.3-0.3,0.5-0.7,0.6-0.9c0.3-1,0-2.2-0.6-3c-0.9-1.2-2.1-1.7-3.4-1.9
			c-0.2-0.7-0.8-1.2-1.5-1.4c-0.9-0.2-3.2-0.4-4.3-1c0.2-0.4,0.4-0.8,0.6-1.2c0,0,0,0,0-0.1s0.1-0.1,0.1-0.2l0,0
			c0.4-1.4-1-2.9-2.7-2.1c-2.1,1.1-3.8,3.6-2.2,5.9c1.2,1.7,3,1.6,4.7,1.9c-0.1,1.4,0.8,3,2.4,2.8c0.2,0,1,0,1.7-0.1
			c-1.1,1.4-1.6,2.7-0.5,4.9c0.4,0.7,1.1,1,1.8,1.1c0.1,0.5,0.4,0.9,0.8,1.3c1.3,1.6,3.5,0.8,4.5-0.6
			C85.5,397.6,85.9,395.6,84.7,394.3z"/>
		<path class="st61" d="M86.5,383.1c-0.1-0.6-0.4-1.1-0.7-1.6c-0.3-1.5-1.1-2.9-2.7-3.2c-1.8-0.4-3.4,0.9-3.6,2.7
			c-0.1,1.1,1.1,1.7,2,1.5l0,0c0,0.6,0.2,1.3,0.6,1.6c0.3,0.2,0.4,0.3,0.5,0.6c0.3,0.5,0.8,0.9,1.4,1c0.5,0.2,1.1,0.1,1.5-0.3
			c0,0,0,0,0,0.1C86.4,385.1,86.7,384,86.5,383.1z"/>
		<path class="st61" d="M96.5,375.6c-1.5-0.7-3.6-0.9-4.7,0.1c-1.1,1.1-0.5,2.9,0.9,3.3h0.1c0.1,0,0.1,0,0.2,0c0,0.1,0,0.1,0,0.2
			c-0.3,2,2.3,3,3.8,2.2c0.4-0.3,0.8-0.6,1.1-0.9c0.3,0.4,0.7,0.9,1.1,1.3c1.2,1,2.7,0.6,3.2-0.8C103.5,377.6,99.7,375.2,96.5,375.6
			z"/>
		<path class="st61" d="M103.7,395.5c-1.2-1.3-2.9-1.6-4.6-1.4c-1.9,0.3-3.7,1.5-4.7,3.1c-0.8,0.2-1.5,0.4-2,0.9
			c-1.7,1.3-0.5,3.8,1.4,3.3l0,0c0.1,0,0.1,0,0.2,0c0.1,0.3,0.2,0.5,0.4,0.8c1,1.8,3.2,2.8,5.1,1.8c0.8-0.5,1.4-1.2,1.7-2.1
			c0.9,0,1.7-0.3,2.5-0.9C105.3,399.6,105.1,396.9,103.7,395.5z"/>
		<path class="st61" d="M118.2,387.6c-1.7-1.4-4.2-2.4-6-1c-2.4,1.8-0.8,6.2,1.8,6.9c0.7,0.2,1.4,0,2-0.3c0.4,0.2,0.8,0.4,1.2,0.4
			c-0.1,1.2,0.9,2.4,2,2.7c0.1,0,0.1,0,0.2,0.1c1.2,0.3,2.6-0.2,3.2-1.3C124.5,391.9,121.6,387.4,118.2,387.6z"/>
		<path class="st61" d="M133,377.9c-0.4-0.3-0.8-0.6-1.2-0.8c-0.3-0.2-0.6-0.3-0.9-0.3c-2-0.6-4.6,0.1-5.9,1.5
			c-2.3-0.2-4.6,0.4-4.9,3.1c-0.3,3.4,4,4.7,5.5,1.6l0,0c1.2,0.5,2.7-0.3,3.1-1.6c0.5,0.6,1.3,1,2.3,1.1c0.4,0,0.8-0.1,1.1-0.3
			C134.1,381.8,135,379.3,133,377.9z"/>
		<path class="st61" d="M135,398.1c-0.2-0.3-0.4-0.6-0.6-0.8c-0.8-2.2-3.8-3.2-5.8-2.1c-1.4-0.6-2.8-0.7-4.3,0.2
			c-1.6,1-2.1,2.7-1.9,4.3c-0.3,0.3-0.5,0.6-0.8,0.9c-0.6,0.7-1.2,1.1-1.2,2c0,0.3,0.4,0.4,0.6,0.2c0.3-0.4,0.1,0.2,0.6,0.4
			c0.4,0.1,0.7,0.2,1.1,0.2c0.5,0,1.1-0.4,1.5-0.6c1.4,0.5,3.1-0.2,3.1-2.1c0-0.1,0-0.3,0-0.4c0.1,0,0.2,0.1,0.3,0.1
			c0.3,0.3,0.7,0.5,1.1,0.6c-0.2,1.2,0.2,2.1,1,3c1.5,1.8,4.9,0.4,4.7-2c0.1,0.8,0.9-1.2,0.9-1.6C135.6,399.6,135.5,398.9,135,398.1
			z"/>
		<path class="st61" d="M138.6,391.9c-0.1-0.7-0.4-1.2-0.9-1.7c-0.1-0.2-0.3-0.5-0.5-0.7c-0.7-0.7-1.9-0.6-2.6,0l0,0
			c-0.1,0.1-0.1,0.1-0.1,0.2c-0.1,0.1-0.1,0.1-0.1,0.1c-0.1,0.1-0.1,0.1-0.2,0.2c0,0,0,0.1-0.1,0.1c-0.2,0.1-0.3,0.1-0.5,0.2
			c-1.7,0.9-2,3.2-0.9,4.7c1.2,1.5,3.3,1.6,4.7,0.3c0.4-0.4,0.8-1,0.9-1.5c0-0.2,0.1-0.5,0.1-0.7l0,0
			C138.7,392.7,138.6,392.3,138.6,391.9z"/>
		<path class="st62" d="M131.8,414.8c0,0,0.1-0.2,0-0.1c-1.6,2.4-14.3,3.8-31.9,3.8s-30.7-1.6-31.9-3.8c0-0.1,0,0.1,0,0.2L44.7,364
			c2.8,4.5,26.5,8.1,55.3,8.1c29.1,0,53-3.6,55.4-8.3L131.8,414.8z"/>
		
			<linearGradient id="SVGID_30_" gradientUnits="userSpaceOnUse" x1="121.2486" y1="880.75" x2="121.6438" y2="880.75" gradientTransform="matrix(1 0 0 1 0 -472)">
			<stop  offset="0" style="stop-color:#D48864"/>
			<stop  offset="1" style="stop-color:#F8AD84;stop-opacity:0"/>
		</linearGradient>
		<path class="st63" d="M121.6,408.8c-0.1-0.1-0.2-0.1-0.4-0.1"/>
	</g>
	<g>
		<g>
			<g>
				<path class="st64" d="M148.2,400c-1.1,0.6-6.1,3.3-6.7,3.7l-1.2,1.5l-2.6,3.2l11.3-7l-0.5-1.5
					C148.4,399.9,148.3,399.9,148.2,400z"/>
			</g>
		</g>
		<g>
			<g>
				<path class="st65" d="M140.3,405.2l-0.6,1.2l1.3-0.3c0.1-0.1,5.3-4.5,7.2-6.1c-1.1,0.6-6.1,3.3-6.7,3.7L140.3,405.2z"/>
			</g>
		</g>
		<g>
			<g>
				<path class="st66" d="M150.5,402.2c-3.9,2.2-10.6,3.8-11,3.8c0,0-0.4,0.7-2.5,3.1c0.8,0.1,1.5,0,2.3-0.1l0.4-0.1
					c0.8-0.1,1.7-0.4,2.5-0.6c4.2-1.4,7.9-4.2,8.7-4.8c-0.1-0.4-0.2-0.7-0.3-1.1C150.6,402.4,150.6,402.3,150.5,402.2z"/>
			</g>
		</g>
		<g>
			<g>
				<path class="st64" d="M152,405.1c-8.4,4.7-14,3.7-14.4,3.3c0.1,0.1,0.4,0.8,1.3,2c0.1,0.2,0.2,0.3,0.4,0.5
					c6.5-0.4,12.8-4.2,12.8-4.2s0,0,0-0.1C152.2,406.4,152.1,406,152,405.1z"/>
			</g>
		</g>
		<g>
			<g>
				<path class="st67" d="M137.4,407.6l1.4,2.5c0.3-0.5,5.1-7.5,6.6-9.3C146.9,399.1,137.4,407.6,137.4,407.6z"/>
			</g>
		</g>
		<g>
			<g>
				<path class="st64" d="M146.5,398.3c-2.9,1.9-9.6,7.7-9.6,7.7s0.7,2.1,1.3,4.2c0-0.1,0.1-0.2,0.1-0.2c1.6-4.6,9.5-11,9.5-11
					s-0.2-0.2-0.5-0.3C147.1,398.5,146.8,398.3,146.5,398.3z"/>
			</g>
		</g>
		<g>
			<g>
				<path class="st68" d="M135.1,406.5l3.2,5.5l1-1c-0.3-2.8-2.4-5.4-2.4-5.4S135.3,406,135.1,406.5z"/>
			</g>
		</g>
		<g>
			<g>
				<path class="st67" d="M144.8,400c-2.5,1.3-5.2,3.8-6.3,6.4c0,0,0,0.1,0.1,0c0.9-1.1,1.8-2.3,2.8-3.3c1.1-1.1,2.3-2,3.6-2.9
					C145.1,400.2,145,400,144.8,400z"/>
			</g>
		</g>
		<g>
			<g>
				<path class="st67" d="M151.6,406.2c-2.9,1.4-5.7,2.6-8.9,3.2c-0.1,0-0.1,0.1,0,0.1c3.1-0.4,6.3-1.4,9-3.1
					C151.8,406.3,151.7,406.1,151.6,406.2z"/>
			</g>
		</g>
		<g>
			<g>
				<path class="st67" d="M148.8,403.8c-2,0.8-3.9,1.9-5.9,2.6l0,0c2-0.7,4.1-1.4,6-2.5C149,403.8,148.9,403.7,148.8,403.8z"/>
			</g>
		</g>
		<g>
			<g>
				<path class="st64" d="M159.2,412c-1.5,0.3-7.8,1.6-8.6,1.7l-1.9,1.2l-4,2.6l14.8-3.8l-0.1-1.8
					C159.5,411.9,159.4,411.9,159.2,412z"/>
			</g>
		</g>
		<g>
			<g>
				<path class="st65" d="M148.7,414.9l-1.1,1.1l1.5,0.2c0.1-0.1,7.4-3.1,10-4.2c-1.5,0.3-7.8,1.6-8.6,1.7L148.7,414.9z"/>
			</g>
		</g>
		<g>
			<g>
				<path class="st66" d="M161,415.2c-5.1,1-12.9,0.5-13.4,0.4c0,0-0.7,0.6-3.8,2.5c0.8,0.3,1.7,0.6,2.5,0.7l0.4,0.1
					c1,0.1,2,0.2,3,0.2c5-0.1,10.1-1.9,11.2-2.3c0-0.4,0-0.8,0-1.3C161,415.4,161,415.3,161,415.2z"/>
			</g>
		</g>
		<g>
			<g>
				<path class="st64" d="M161.7,418.9c-10.9,2.3-16.6-0.8-16.9-1.4c0,0.2,0.2,1,0.8,2.7c0.1,0.2,0.2,0.4,0.2,0.7
					c7.2,1.9,15.5-0.2,15.5-0.2s0,0,0-0.1C161.4,420.3,161.5,419.9,161.7,418.9z"/>
			</g>
		</g>
		<g>
			<g>
				<path class="st67" d="M144.8,416.6l0.6,3.2c0.4-0.4,8.2-6.5,10.4-7.9C158.1,410.5,144.8,416.6,144.8,416.6z"/>
			</g>
		</g>
		<g>
			<g>
				<path class="st64" d="M158,409.5c-3.9,1-13.2,5.1-13.2,5.1s0.1,2.5,0,5.1c0.1-0.1,0.1-0.2,0.2-0.2c3.4-4.5,14.2-8.7,14.2-8.7
					s-0.2-0.2-0.4-0.5C158.5,409.9,158.2,409.7,158,409.5z"/>
			</g>
		</g>
		<g>
			<g>
				<path class="st68" d="M142.7,414.5l1.6,7.2l1.5-0.7c0.6-3.2-0.8-6.8-0.8-6.8S142.9,414.1,142.7,414.5z"/>
			</g>
		</g>
		<g>
			<g>
				<path class="st69" d="M139.3,412.9c-0.2-1-0.5-1.8-0.7-2.6c-0.3-0.7-0.5-1.3-0.9-1.9c-2.3-4-5.8-4.1-8.8-3.3
					c-3.6,1-32.3,14.4-32.3,14.4s-15.9,8.1-15.8,9.4c0,0.1,3.8-0.4,9.6-1.2c6.8-1,16.3-2.6,25.1-4.5c12.9-2.8,24.4-6.4,23.9-10.1
					C139.3,413,139.3,413,139.3,412.9z"/>
			</g>
		</g>
		<g>
			<g>
				<path class="st70" d="M138.6,410.3c-0.3-0.7-0.5-1.3-0.9-1.9c-0.5,0.6-1.2,1.1-1.9,1.5c-1.1,0.6-2.3,0.9-3.5,1.2
					c-2.7,0.7-5.7,1-8.3,2c-1.7,0.7-3.4,1.4-5.2,2.2c-9.5,4-19.1,8-28.5,12.4c6.8-1,16.3-2.6,25.1-4.5c10.9-3.3,21.2-7.4,23.9-10.1
					c0,0,0-0.1,0-0.2C139.1,412,138.9,411.1,138.6,410.3z"/>
			</g>
		</g>
		<g>
			<g>
				<g>
					<path class="st71" d="M90.8,424.2L90.8,424.2c-0.2,0.3,0.1,0.7,0.2,1s0.1,0.9,0.3,1.1c0,0,0.1,0.1,0.2,0c0.2-0.3,0-0.8-0.1-1.2
						C91.3,424.8,91.2,424.3,90.8,424.2z"/>
				</g>
			</g>
			<g>
				<g>
					<path class="st71" d="M96.8,420.9c0-0.1-0.2-0.1-0.2,0.1c0.1,0.7,0.2,1.5,0.5,2.1c0.1,0.1,0.2,0,0.2-0.1
						C97.4,422.3,97,421.5,96.8,420.9z"/>
				</g>
			</g>
			<g>
				<g>
					<path class="st71" d="M101.4,421.6c-0.1-0.1-0.3,0.1-0.2,0.2c0.1,0.3,0.2,0.6,0.3,0.9c0.1,0.3,0,0.6,0.1,0.8
						c0.1,0.1,0.2,0.1,0.2,0c0.3-0.2,0.2-0.7,0.1-1C101.9,422.2,101.8,421.8,101.4,421.6z"/>
				</g>
			</g>
			<g>
				<g>
					<path class="st71" d="M108.4,414.8c0-0.2-0.3-0.1-0.3,0c0,0.5,0.1,1,0.1,1.6c0,0.4,0.1,0.8,0.3,1.2c0.1,0.1,0.2,0.1,0.3,0
						c0.1-0.4,0-0.9-0.1-1.4C108.6,415.7,108.5,415.3,108.4,414.8z"/>
				</g>
			</g>
			<g>
				<g>
					<path class="st71" d="M116.5,415.4c-0.2-0.2-0.2-0.2-0.5-0.3l0,0c0,0.2,0,0.3,0.1,0.4c0.1,0.2,0.2,0.4,0.2,0.5
						c0.1,0.3,0,0.8,0.3,1c0.1,0,0.2,0.1,0.2,0c0.3-0.3,0.1-0.8,0-1.2C116.7,415.8,116.6,415.6,116.5,415.4z"/>
				</g>
			</g>
			<g>
				<g>
					<path class="st71" d="M123,409.2c-0.1-0.1-0.3,0-0.3,0.2c0.1,0.4,0.3,0.7,0.5,1.1c0.1,0.3,0.2,0.6,0.5,0.9
						c0.1,0.1,0.3,0,0.3-0.1C124,410.5,123.5,409.7,123,409.2z"/>
				</g>
			</g>
			<g>
				<g>
					<path class="st71" d="M132.2,410L132.2,410c0,0.4,0.2,0.8,0.3,1.1c0.1,0.4,0.2,0.8,0.4,1.2c0.1,0.1,0.2,0.1,0.2,0
						c0.1-0.5,0-0.9-0.2-1.3C132.8,410.6,132.6,410.2,132.2,410z"/>
				</g>
			</g>
		</g>
		<g>
			<g>
				<path class="st69" d="M145.1,421.9c0.2-1.4,0.1-3-0.7-4.8c-0.2-0.6-0.5-1.2-0.9-1.8c-0.4-0.8-1-1.4-1.7-1.9
					c-7-5.3-24.7,3.7-24.7,3.7S92.5,428.4,89,429.8c-0.6,0.3-1.2,0.5-1.8,0.8c-1.4,0.7-2.6,1.3-3.3,1.6c-0.4,0.2-0.7,0.4-0.8,0.5
					l0,0l0,0c1.1-0.1,51.1-3.3,53.1-3.7c0.2,0,0.4-0.1,0.6-0.1c1.6-0.4,3.6-1.1,5.2-2.3C143.6,425.5,144.8,423.9,145.1,421.9
					L145.1,421.9z"/>
			</g>
		</g>
		<g>
			<g>
				<g>
					<path class="st71" d="M99.9,426.2c0-0.1-0.2-0.1-0.2,0.1c0.3,1.2,0.5,2.5,1,3.6c0,0.1,0.2,0,0.2-0.1
						C100.8,428.5,100.3,427.3,99.9,426.2z"/>
				</g>
			</g>
			<g>
				<g>
					<path class="st71" d="M108.1,426.3c0-0.1-0.2,0-0.1,0.1c0.1,0.4,0.3,0.9,0.3,1.3c0.1,0.4,0.1,0.8,0.2,1.2c0,0.1,0.1,0.1,0.2,0
						C108.9,428.1,108.6,427,108.1,426.3z"/>
				</g>
			</g>
			<g>
				<g>
					<path class="st71" d="M115.2,420.3c0-0.1-0.2-0.1-0.2,0.1c0.2,0.7,0.4,1.4,0.7,2.1c0,0.1,0.2,0,0.2,0
						C115.8,421.7,115.5,421,115.2,420.3z"/>
				</g>
			</g>
			<g>
				<g>
					<path class="st71" d="M121.2,424.7c-0.1-0.2-0.4,0-0.3,0.2c0,0.2,0.1,0.3,0.1,0.5l0,0c0.1,0.4,0.2,0.7,0.2,1.1
						c0.1,0.5,0.1,1,0.4,1.5c0.1,0.1,0.3,0.1,0.3-0.1c0.1-0.5-0.1-1.1-0.2-1.6S121.5,425.2,121.2,424.7z"/>
				</g>
			</g>
			<g>
				<g>
					<path class="st71" d="M126.2,418.3c-0.2-0.5-0.3-0.9-0.5-1.3c-0.1-0.2-0.3,0-0.3,0.1c0.1,0.5,0.3,1,0.4,1.4s0.2,0.9,0.5,1.2
						c0.1,0.1,0.3,0.1,0.3-0.1C126.5,419.2,126.3,418.7,126.2,418.3z"/>
				</g>
			</g>
			<g>
				<g>
					<path class="st71" d="M131.2,419.1c-0.1-0.2-0.4-0.1-0.3,0.1c0.3,0.9,0.5,2,0.9,2.8c0.1,0.1,0.2,0,0.2-0.1
						C132,421,131.5,420,131.2,419.1z"/>
				</g>
			</g>
			<g>
				<g>
					<path class="st71" d="M136.4,416.2c0.4,1,0.8,2.1,1,3.2c0.3,1.1,0.3,2.2,0.5,3.3c0,0.1,0.3,0.1,0.3,0c0.2-2.2-0.7-4.7-1.7-6.6
						C136.6,416,136.4,416.1,136.4,416.2z"/>
				</g>
			</g>
			<g>
				<g>
					<path class="st71" d="M134.9,425.9c0-0.2-0.3-0.2-0.3,0c0,0.3,0,0.5,0,0.8c0,0.2,0,0.5,0.1,0.7c0,0.1,0.2,0.1,0.2,0
						c0.1-0.2,0-0.5,0-0.7C135,426.5,135,426.2,134.9,425.9z"/>
				</g>
			</g>
		</g>
		<g>
			<g>
				<path class="st72" d="M139.3,411.1L139.3,411.1L139.3,411.1z"/>
			</g>
		</g>
		<g>
			<g>
				<path class="st67" d="M155.5,410.8c-3.2,0.5-7,2.4-9.1,4.9c0,0,0,0.1,0.1,0.1c1.4-0.9,2.7-1.9,4.2-2.7c1.6-0.8,3.2-1.4,4.9-2
					C155.7,411.1,155.7,410.8,155.5,410.8z"/>
			</g>
		</g>
		<g>
			<g>
				<path class="st67" d="M160.8,419.9c-3.6,0.5-7.2,0.8-10.9,0.4c-0.1,0-0.1,0.1,0,0.1c3.6,0.6,7.4,0.7,10.9-0.3
					C161,420.1,161,419.9,160.8,419.9z"/>
			</g>
		</g>
		<g>
			<g>
				<path class="st67" d="M158.6,416.3c-2.5,0.2-4.9,0.7-7.4,0.8l0,0C153.7,417.1,156.2,417,158.6,416.3
					C158.7,416.4,158.7,416.3,158.6,416.3z"/>
			</g>
		</g>
		<g class="st73">
			<g>
				<path class="st74" d="M121.3,418c0,0-35.9,14-35,13.9c14.1-2.9,58.7-11.9,56.5-15.5C139,410,121.3,418,121.3,418z"/>
			</g>
		</g>
		<g class="st73">
			<g>
				<path class="st74" d="M131.4,405.9c-4.9,0.1-7,2.2-11.4,4c-5.3,2.1-36.8,17.9-36.8,17.9c19.1-7.3,41-16.2,48.7-20
					C132.8,407.4,132.5,405.9,131.4,405.9z"/>
			</g>
		</g>
		<g>
			<g>
				<path class="st70" d="M142.2,422.2c-3.2,3.8-8.6,3.4-13.1,4.3c-6,1.1-12,1.9-18.1,2.7c-5.3,0.7-10.5,1.3-15.8,1.8
					c-1.7,0.2-3.3,0.3-5,0.5c-0.6,0.1-1.4,0-2,0.2c-0.6,0.3-2.3,0.4-4.3,0.5c-0.4,0.2-0.7,0.4-0.8,0.5l0,0l0,0
					c1.1-0.1,51.1-3.3,53.1-3.7c0.2,0,0.4-0.1,0.6-0.1c1.8-0.4,3.8-1.1,5.2-2.3c0.5-0.4,0.9-0.9,1.3-1.5c0.6-1,1.3-2.1,1.8-3.2l0,0
					c0.2-1.4,0.1-3-0.7-4.8C144.1,419,143.4,420.8,142.2,422.2z"/>
			</g>
		</g>
		<g>
			<g>
				<path class="st75" d="M135.4,407.1c-0.7-0.9-1.7-1.6-2.7-1.9c-0.8-0.2-2.4-0.2-2.8,0.8c0,0.1,0,0.3,0.1,0.3
					c0.4,0.2,0.8,0.1,1.3,0.2c0.7,0.1,1.3,0.3,1.8,0.7c0.7,0.5,1.5,1.1,2.3,0.3C135.5,407.4,135.5,407.2,135.4,407.1z"/>
			</g>
		</g>
	</g>
	
		<linearGradient id="SVGID_31_" gradientUnits="userSpaceOnUse" x1="100.0812" y1="869.1139" x2="100.0812" y2="835.2486" gradientTransform="matrix(1 0 0 1 0 -472)">
		<stop  offset="0.2297" style="stop-color:#B3FFFF"/>
		<stop  offset="1" style="stop-color:#FFFFFF"/>
	</linearGradient>
	<path class="st76" d="M143.1,390.9c-1.8,3.6-6.1,5.1-9.5,5.1c-11.6-0.1-7.3-14.7-24.9-13.7c-7.7,0.4-14,10.2-20.4,16.2
		c-11.8,11-28.7-0.4-30.9-7.3l-12.7-27.5c2.8,4.5,26.5,8.1,55.3,8.1c29.1,0,53-3.6,55.4-8.3L143.1,390.9z"/>
	<circle class="st14" cx="215.5" cy="364.3" r="1"/>
	<circle class="st14" cx="214.2" cy="366.8" r="0.5"/>
	<circle class="st14" cx="218.6" cy="369.9" r="0.8"/>
	<circle class="st14" cx="220.2" cy="367.3" r="0.7"/>
	<circle class="st14" cx="219.6" cy="378" r="0.8"/>
	<circle class="st14" cx="227.1" cy="375.8" r="0.9"/>
	<ellipse class="st14" cx="222.5" cy="372.1" rx="1" ry="0.8"/>
	<circle class="st14" cx="224.4" cy="382.3" r="0.9"/>
	<circle class="st14" cx="233.2" cy="383.1" r="1"/>
	<circle class="st14" cx="241" cy="384.7" r="0.8"/>
	<circle class="st14" cx="213.2" cy="371.2" r="0.3"/>
	<ellipse class="st14" cx="229.4" cy="400.5" rx="0.2" ry="0.4"/>
	<polyline class="st25" points="197.6,432 216.5,416 346.6,416 359.4,431.4 	"/>
	<g>
		
			<linearGradient id="SVGID_32_" gradientUnits="userSpaceOnUse" x1="182.3312" y1="873.2741" x2="353.1627" y2="873.2741" gradientTransform="matrix(1 0 0 1 0 -472)">
			<stop  offset="0" style="stop-color:#ACCED4"/>
			<stop  offset="0.9946" style="stop-color:#E3F3FA"/>
		</linearGradient>
		<path class="st77" d="M217.2,410.5c1.2-0.5,19.7,16.1,62.6,16.8c42.9,0.7,68.1-6.4,71.3-9.6c3.3-3.3,3.2-7.9-5-16
			c-8.1-8.1-28.3-30-76.1-20.7c0,0-15.3,5-28.7,14s-19.6,3.3-19.6,3.3s-10.1-12.5-10.1-23.1c0,0-13,7.5-6.7,24.3
			c0,0-10.3-1.3-22.6,8.2C182.3,407.8,197.3,418.8,217.2,410.5z"/>
		
			<linearGradient id="SVGID_33_" gradientUnits="userSpaceOnUse" x1="200.4412" y1="881.1003" x2="207.1281" y2="858.8105" gradientTransform="matrix(1 0 0 1 0 -472)">
			<stop  offset="0" style="stop-color:#76BBC7"/>
			<stop  offset="1" style="stop-color:#83C1CC"/>
		</linearGradient>
		<path class="st78" d="M217.1,410.5c-19.9,8.3-34.9-2.7-34.9-2.7c12.3-9.5,22.6-8.2,22.6-8.2c-6.4-16.8,6.7-24.3,6.7-24.3
			c0,10.6,10.1,23.1,10.1,23.1s0.2,0.2,0.5,0.4C215.1,401.5,215.7,406.8,217.1,410.5z"/>
		
			<linearGradient id="SVGID_34_" gradientUnits="userSpaceOnUse" x1="284.0278" y1="897.651" x2="284.3108" y2="883.2156" gradientTransform="matrix(1 0 0 1 0 -472)">
			<stop  offset="0" style="stop-color:#6296A5"/>
			<stop  offset="1" style="stop-color:#9AD1D6"/>
		</linearGradient>
		<path class="st79" d="M219.6,406.5c0,0,31.8,12.6,75.4,8.5s46.4-8.5,49.4-8.5s6.7,3.1,3.3,8.2S258.5,440.2,219.6,406.5z"/>
		
			<linearGradient id="SVGID_35_" gradientUnits="userSpaceOnUse" x1="309.7861" y1="877.6" x2="319.1769" y2="877.6" gradientTransform="matrix(1 0 0 1 0 -472)">
			<stop  offset="0" style="stop-color:#76BBC7"/>
			<stop  offset="1" style="stop-color:#83C1CC"/>
		</linearGradient>
		<path class="st80" d="M316.6,391.2c0,0-5.9,2.3-6.8,13.3c-0.8,10.9,9.3,15.5,9.3,15.5S304.7,410,316.6,391.2z"/>
		
			<linearGradient id="SVGID_36_" gradientUnits="userSpaceOnUse" x1="311.617" y1="877.45" x2="319.7408" y2="877.45" gradientTransform="matrix(1 0 0 1 0 -472)">
			<stop  offset="0" style="stop-color:#E0FFFF"/>
			<stop  offset="0.9946" style="stop-color:#E3F3FA"/>
		</linearGradient>
		<path class="st81" d="M317.5,390.3c0,0-5.1,3.2-5.9,14.2c-0.8,10.9,8.1,16.1,8.1,16.1S305.6,409.2,317.5,390.3z"/>
		
			<linearGradient id="SVGID_37_" gradientUnits="userSpaceOnUse" x1="328.6215" y1="874" x2="334.5124" y2="874" gradientTransform="matrix(1 0 0 1 0 -472)">
			<stop  offset="0" style="stop-color:#6296A5"/>
			<stop  offset="1" style="stop-color:#9AD1D6"/>
		</linearGradient>
		<ellipse class="st82" cx="331.5" cy="402" rx="2.9" ry="2.5"/>
		<path class="st83" d="M216.4,397.7c-1.2-1-2.3-2.3-3.2-3.6c-0.9-1.4-1.6-2.8-2.2-4.4c-0.6-1.5-0.9-3.2-0.9-4.8
			c-0.1-1.6,0.2-3.3,0.7-4.8c0,0.8-0.2,1.6-0.1,2.4v1.2l0.1,1.2c0.2,1.6,0.5,3.1,1.1,4.6c0.5,1.5,1.2,2.9,2,4.3
			C214.6,395.1,215.5,396.5,216.4,397.7z"/>
		<path class="st83" d="M214.8,399.6c-1.3-0.7-2.5-1.6-3.4-2.7c-1-1.1-1.8-2.3-2.5-3.7c-0.6-1.3-1.1-2.8-1.3-4.2
			c-0.1-0.7-0.1-1.5-0.2-2.2c0-0.7,0.1-1.5,0.2-2.2c0.2,1.4,0.3,2.9,0.7,4.2c0.3,1.4,0.8,2.7,1.4,4c0.6,1.3,1.4,2.5,2.2,3.6
			C212.8,397.6,213.7,398.7,214.8,399.6z"/>
		<path class="st83" d="M213.8,401.3c-1-0.1-2-0.4-2.9-0.8s-1.8-0.9-2.6-1.6s-1.5-1.5-2-2.4s-0.7-2-0.7-3c0.3,1,0.7,1.9,1.3,2.6
			c0.6,0.8,1.2,1.5,2,2.1C210.3,399.5,212,400.4,213.8,401.3z"/>
		<path class="st84" d="M212.9,403c-1.7-0.1-3.5-0.1-5.2-0.1s-3.4,0-5.1,0.1c-1.7,0.1-3.4,0.3-5.1,0.6c-1.7,0.3-3.3,0.8-5,1.4
			c1.5-0.9,3.1-1.6,4.8-2s3.4-0.7,5.2-0.8C206.1,402,209.6,402.2,212.9,403z"/>
		<path class="st84" d="M213.2,405.6c-1.1,0-2.2,0-3.3,0.1c-1.1,0-2.2,0.1-3.3,0.1c-2.2,0.1-4.4,0.3-6.5,0.5
			c-2.2,0.2-4.3,0.5-6.5,0.8c-1.1,0.1-2.2,0.3-3.2,0.5c-1.1,0.1-2.1,0.4-3.2,0.6c2.1-0.7,4.2-1.3,6.4-1.7c2.2-0.5,4.3-0.8,6.5-1
			s4.4-0.3,6.6-0.3C208.8,405.2,211,405.3,213.2,405.6z"/>
		<path class="st84" d="M213.9,408.3c-0.8,0.5-1.6,0.8-2.5,1.2c-0.9,0.3-1.7,0.6-2.6,0.8c-1.8,0.5-3.6,0.8-5.4,1
			c-1.8,0.2-3.7,0.2-5.5,0.1c-0.5,0-0.9-0.1-1.4-0.1c-0.5-0.1-0.9-0.1-1.4-0.2c-0.9-0.2-1.8-0.4-2.6-0.7c0.9,0.1,1.8,0.2,2.7,0.2
			c0.4,0,0.9,0.1,1.3,0.1c0.4,0,0.9,0,1.3,0c1.8,0,3.6-0.1,5.4-0.3c1.8-0.2,3.6-0.4,5.3-0.8C210.4,409.4,212.2,408.9,213.9,408.3z"
			/>
	</g>
	<path class="st26" d="M426.1,416h-19.6c-0.5,0-1-0.5-1-1v-1.4c0-0.6,0.5-1,1-1h19.6c0.6,0,1,0.4,1,1v1.4
		C427.1,415.5,426.6,416,426.1,416z"/>
	<path class="st26" d="M458.6,416h-20c-0.6,0-1-0.5-1-1v-1.6c0-0.5,0.4-1,1-1h20c0.5,0,1,0.5,1,1v1.6
		C459.6,415.5,459.1,416,458.6,416z"/>
	<g>
		
			<linearGradient id="SVGID_38_" gradientUnits="userSpaceOnUse" x1="407.3907" y1="868.1" x2="425.2448" y2="868.1" gradientTransform="matrix(1 0 0 1 0 -472)">
			<stop  offset="0" style="stop-color:#DE78A7"/>
			<stop  offset="0.9378" style="stop-color:#EDB4CE"/>
		</linearGradient>
		<path class="st85" d="M424.2,414.7h-15.9c-0.5,0-1-0.5-1-1v-35.2c0-0.5,0.5-1,1-1h15.9c0.6,0,1,0.5,1,1v35.2
			C425.2,414.3,424.7,414.7,424.2,414.7z"/>
		<path class="st86" d="M424.2,374.6h-15.9c-0.5,0-1,0.5-1,1v0.9c0,0.6,0.5,1,1,1h15.9c0.6,0,1-0.4,1-1v-0.9
			C425.2,375.1,424.7,374.6,424.2,374.6z"/>
		
			<linearGradient id="SVGID_39_" gradientUnits="userSpaceOnUse" x1="416.2813" y1="846.6416" x2="416.2813" y2="849.9567" gradientTransform="matrix(1 0 0 1 0 -472)">
			<stop  offset="7.297298e-02" style="stop-color:#78386C"/>
			<stop  offset="1" style="stop-color:#AD519C"/>
		</linearGradient>
		<path class="st87" d="M424.2,374.6h-15.9c-0.5,0-1,0.5-1,1v0.9c0,0.6,0.5,1,1,1h15.9c0.6,0,1-0.4,1-1v-0.9
			C425.2,375.1,424.7,374.6,424.2,374.6z"/>
		<path class="st88" d="M424.9,374.6h-17.3c-1.9,0-3.5-1.6-3.5-3.5v-0.7c0-1.9,1.6-3.5,3.5-3.5h17.3c1.9,0,3.5,1.6,3.5,3.5v0.7
			C428.4,373,426.8,374.6,424.9,374.6z"/>
		<path class="st89" d="M421.2,392.7h-9.9c-0.5,0-1-0.5-1-1V387c0-0.6,0.5-1,1-1h9.9c0.5,0,1,0.4,1,1v4.7
			C422.2,392.2,421.7,392.7,421.2,392.7z"/>
		
			<linearGradient id="SVGID_40_" gradientUnits="userSpaceOnUse" x1="448.0335" y1="888.0099" x2="448.8859" y2="853.9139" gradientTransform="matrix(1 0 0 1 0 -472)">
			<stop  offset="0" style="stop-color:#AADAE3"/>
			<stop  offset="0.2753" style="stop-color:#AEDCE4"/>
			<stop  offset="0.5301" style="stop-color:#B9E1E9"/>
			<stop  offset="0.7759" style="stop-color:#CCE9F1"/>
			<stop  offset="0.9946" style="stop-color:#E3F3FA"/>
		</linearGradient>
		<path class="st90" d="M461.7,396.1c0,3-1.2,5.8-3.1,7.9v10.4c0,0.3-0.2,0.5-0.5,0.5h-19.2c-0.3,0-0.5-0.2-0.5-0.5V404
			c-1.9-2.1-3.1-4.8-3.1-7.9c0-3,1.2-5.8,3.1-7.9v-7.8c0-0.3,0.2-0.5,0.5-0.5h19.2c0.3,0,0.5,0.2,0.5,0.5v7.8
			C460.5,390.3,461.7,393.1,461.7,396.1z"/>
		
			<linearGradient id="SVGID_41_" gradientUnits="userSpaceOnUse" x1="448.0491" y1="857.6606" x2="448.8127" y2="878.7227" gradientTransform="matrix(1 0 0 1 0 -472)">
			<stop  offset="0" style="stop-color:#FFFFFF;stop-opacity:0.2"/>
			<stop  offset="0.9946" style="stop-color:#CCF3FA"/>
		</linearGradient>
		<ellipse class="st91" cx="448.4" cy="396.2" rx="12.9" ry="11.2"/>
		
			<linearGradient id="SVGID_42_" gradientUnits="userSpaceOnUse" x1="440.0313" y1="868.15" x2="456.7313" y2="868.15" gradientTransform="matrix(1 0 0 1 0 -472)">
			<stop  offset="0" style="stop-color:#DEA9C2"/>
			<stop  offset="0.9378" style="stop-color:#EDCEDC"/>
		</linearGradient>
		<path class="st92" d="M455.7,399.8H441c-0.5,0-1-0.4-1-1v-5.3c0-0.5,0.5-1,1-1h14.7c0.5,0,1,0.5,1,1v5.3
			C456.7,399.4,456.2,399.8,455.7,399.8z"/>
		
			<linearGradient id="SVGID_43_" gradientUnits="userSpaceOnUse" x1="448.3738" y1="850.9292" x2="448.5641" y2="855.9245" gradientTransform="matrix(1 0 0 1 0 -472)">
			<stop  offset="0" style="stop-color:#AADAE3"/>
			<stop  offset="0.9946" style="stop-color:#E3F3FA"/>
		</linearGradient>
		<path class="st93" d="M457.8,383.6h-18.7c-0.4,0-0.8-0.3-0.8-0.8v-2.1c0-0.4,0.3-0.8,0.8-0.8h18.7c0.4,0,0.8,0.3,0.8,0.8v2.1
			C458.6,383.2,458.2,383.6,457.8,383.6z"/>
		<path class="st24" d="M459,380.6h-21.2c-0.5,0-1-0.5-1-1v-2.1c0-0.6,0.5-1,1-1H459c0.5,0,1,0.4,1,1v2.1
			C460,380.1,459.6,380.6,459,380.6z"/>
		
			<linearGradient id="SVGID_44_" gradientUnits="userSpaceOnUse" x1="448.3517" y1="851.8998" x2="448.5733" y2="848.133" gradientTransform="matrix(1 0 0 1 0 -472)">
			<stop  offset="0" style="stop-color:#DE78A7"/>
			<stop  offset="0.9378" style="stop-color:#EDB4CE"/>
		</linearGradient>
		<path class="st94" d="M459,380.6h-21.2c-0.5,0-1-0.5-1-1v-2.1c0-0.6,0.5-1,1-1H459c0.5,0,1,0.4,1,1v2.1
			C460,380.1,459.6,380.6,459,380.6z"/>
		
			<linearGradient id="SVGID_45_" gradientUnits="userSpaceOnUse" x1="448.4813" y1="847.675" x2="448.4813" y2="836.9697" gradientTransform="matrix(1 0 0 1 0 -472)">
			<stop  offset="0" style="stop-color:#AADAE3"/>
			<stop  offset="0.2753" style="stop-color:#AEDCE4"/>
			<stop  offset="0.5301" style="stop-color:#B9E1E9"/>
			<stop  offset="0.7759" style="stop-color:#CCE9F1"/>
			<stop  offset="0.9946" style="stop-color:#E3F3FA"/>
		</linearGradient>
		<path class="st95" d="M450.7,358.9h-4.5c-4.2,0-7.6,3.4-7.6,7.6v2.4c0,4.2,3.4,7.6,7.6,7.6h4.5c4.2,0,7.6-3.4,7.6-7.6v-2.4
			C458.3,362.3,454.9,358.9,450.7,358.9z"/>
	</g>
	<circle class="st14" cx="224.5" cy="389.1" r="0.5"/>
	<circle class="st14" cx="227.3" cy="394.4" r="0.2"/>
	<circle class="st14" cx="225.3" cy="392.8" r="0.2"/>
	<circle class="st14" cx="226.7" cy="398" r="0.4"/>
	<circle class="st14" cx="233.8" cy="391.7" r="0.6"/>
	<circle class="st14" cx="230.7" cy="387.9" r="0.6"/>
	<ellipse class="st14" cx="239.2" cy="391.3" rx="0.9" ry="0.7"/>
	<circle class="st14" cx="231" cy="399.8" r="0.6"/>
	<ellipse class="st14" cx="236.4" cy="400.1" rx="0.6" ry="0.5"/>
	<circle class="st14" cx="240.5" cy="397" r="0.4"/>
	<circle class="st14" cx="245.2" cy="393.2" r="0.4"/>
</g>
<linearGradient id="SVGID_46_" gradientUnits="userSpaceOnUse" x1="680.7489" y1="-138.3955" x2="675.5643" y2="-142.8568" gradientTransform="matrix(0.6841 0.65 -0.6858 0.7277 -267.4425 19.6696)">
	<stop  offset="0" style="stop-color:#FFB691"/>
	<stop  offset="1" style="stop-color:#F8B895;stop-opacity:0.2"/>
</linearGradient>
<path class="st96" d="M290.6,356.9c0,0-1.6,4.8-1.6,6.3s1.7,3.1,3.3,1.4c1.6-1.7,4.3-10.7,4.5-12.2
	C296.9,351,292.7,348.1,290.6,356.9z"/>
<linearGradient id="SVGID_47_" gradientUnits="userSpaceOnUse" x1="281.1024" y1="-1152.7456" x2="275.7" y2="-1157.3943" gradientTransform="matrix(1 0 0 -1 0 -824)">
	<stop  offset="0" style="stop-color:#FFB691"/>
	<stop  offset="1" style="stop-color:#F8B895;stop-opacity:0.2"/>
</linearGradient>
<path class="st97" d="M271.7,334.8c0,0,1,0,1.3,1s9.5-6,10.7-7.3s0.3-3.3-0.8-2.8S272.7,334.4,271.7,334.8z"/>
<g>
	
		<linearGradient id="SVGID_48_" gradientUnits="userSpaceOnUse" x1="498.7204" y1="-1083.9047" x2="502.8933" y2="-1083.9047" gradientTransform="matrix(0.976 0.2177 0.2177 -0.976 41.5958 -774.3201)">
		<stop  offset="0" style="stop-color:#76BBC7"/>
		<stop  offset="1" style="stop-color:#83C1CC"/>
	</linearGradient>
	<path class="st98" d="M293.7,392.4c0.4-1.6,1.8-2.8,3.6-3.2c-2.5,0.1-4.5,1.2-4.9,2.9c-0.4,1.8,1,3.6,3.2,4.8
		C294.1,395.7,293.3,394,293.7,392.4z"/>
	
		<linearGradient id="SVGID_49_" gradientUnits="userSpaceOnUse" x1="249.4263" y1="-1244.0875" x2="253.5993" y2="-1244.0875" gradientTransform="matrix(0.9992 -4.054751e-02 -4.054751e-02 -0.9992 -9.1709 -832.1603)">
		<stop  offset="0" style="stop-color:#76BBC7"/>
		<stop  offset="1" style="stop-color:#83C1CC"/>
	</linearGradient>
	<path class="st99" d="M291.8,400.8c-0.1-1.6,1-3.1,2.7-4.1c-2.4,0.7-4.1,2.3-4,4.1c0.1,1.8,1.9,3.3,4.3,3.8
		C293.1,403.8,291.9,402.4,291.8,400.8z"/>
	
		<linearGradient id="SVGID_50_" gradientUnits="userSpaceOnUse" x1="156.5115" y1="-1289.4971" x2="160.6844" y2="-1289.4971" gradientTransform="matrix(0.9914 -0.1311 -0.1311 -0.9914 -31.9318 -848.7882)">
		<stop  offset="0" style="stop-color:#76BBC7"/>
		<stop  offset="1" style="stop-color:#83C1CC"/>
	</linearGradient>
	<path class="st100" d="M293.6,408.9c-0.2-1.6,0.7-3.2,2.3-4.3c-2.3,0.9-3.9,2.7-3.6,4.5c0.2,1.8,2.2,3.1,4.7,3.4
		C295.1,411.8,293.8,410.5,293.6,408.9z"/>
	
		<linearGradient id="SVGID_51_" gradientUnits="userSpaceOnUse" x1="515.9312" y1="-1067.9933" x2="518.2559" y2="-1067.9933" gradientTransform="matrix(0.9726 0.2323 0.2323 -0.9726 42.7339 -771.5485)">
		<stop  offset="0" style="stop-color:#76BBC7"/>
		<stop  offset="1" style="stop-color:#83C1CC"/>
	</linearGradient>
	<path class="st101" d="M297.1,387.2c0.2-0.9,1-1.5,2-1.8c-1.4,0-2.5,0.6-2.8,1.6c-0.2,1,0.5,2,1.8,2.7
		C297.3,389,296.9,388.1,297.1,387.2z"/>
	
		<linearGradient id="SVGID_52_" gradientUnits="userSpaceOnUse" x1="126.2381" y1="-1306.9454" x2="129.4568" y2="-1306.9454" gradientTransform="matrix(0.9868 -0.1617 -0.1617 -0.9868 -41.08 -853.5443)">
		<stop  offset="0" style="stop-color:#76BBC7"/>
		<stop  offset="1" style="stop-color:#83C1CC"/>
	</linearGradient>
	<path class="st102" d="M295.9,415.6c-0.2-1.2,0.5-2.5,1.7-3.4c-1.8,0.8-2.9,2.1-2.7,3.5c0.2,1.4,1.7,2.3,3.7,2.5
		C297.1,417.8,296.1,416.8,295.9,415.6z"/>
	
		<linearGradient id="SVGID_53_" gradientUnits="userSpaceOnUse" x1="488.1409" y1="-1086.3754" x2="492.3138" y2="-1086.3754" gradientTransform="matrix(0.976 0.2177 0.2177 -0.976 41.5958 -774.3201)">
		<stop  offset="0" style="stop-color:#76BBC7"/>
		<stop  offset="1" style="stop-color:#83C1CC"/>
	</linearGradient>
	<path class="st103" d="M282.8,392.5c0.4-1.6,1.8-2.8,3.6-3.2c-2.5,0.1-4.5,1.2-4.9,2.9c-0.4,1.8,1,3.6,3.2,4.8
		C283.2,395.8,282.5,394.1,282.8,392.5z"/>
	
		<linearGradient id="SVGID_54_" gradientUnits="userSpaceOnUse" x1="238.5601" y1="-1243.7495" x2="242.7331" y2="-1243.7495" gradientTransform="matrix(0.9992 -4.054751e-02 -4.054751e-02 -0.9992 -9.1709 -832.1603)">
		<stop  offset="0" style="stop-color:#76BBC7"/>
		<stop  offset="1" style="stop-color:#83C1CC"/>
	</linearGradient>
	<path class="st104" d="M281,400.9c-0.1-1.6,1-3.1,2.7-4.1c-2.4,0.7-4.1,2.3-4,4.1c0.1,1.8,1.9,3.3,4.3,3.8
		C282.2,404,281,402.6,281,400.9z"/>
	
		<linearGradient id="SVGID_55_" gradientUnits="userSpaceOnUse" x1="145.7218" y1="-1288.1674" x2="149.8949" y2="-1288.1674" gradientTransform="matrix(0.9914 -0.1311 -0.1311 -0.9914 -31.9318 -848.7882)">
		<stop  offset="0" style="stop-color:#76BBC7"/>
		<stop  offset="1" style="stop-color:#83C1CC"/>
	</linearGradient>
	<path class="st105" d="M282.7,409c-0.2-1.6,0.7-3.2,2.3-4.3c-2.3,0.9-3.9,2.7-3.6,4.5c0.2,1.8,2.2,3.1,4.7,3.4
		C284.2,411.9,282.9,410.7,282.7,409z"/>
	
		<linearGradient id="SVGID_56_" gradientUnits="userSpaceOnUse" x1="505.3916" y1="-1070.5996" x2="507.7163" y2="-1070.5996" gradientTransform="matrix(0.9726 0.2323 0.2323 -0.9726 42.7339 -771.5485)">
		<stop  offset="0" style="stop-color:#76BBC7"/>
		<stop  offset="1" style="stop-color:#83C1CC"/>
	</linearGradient>
	<path class="st106" d="M286.3,387.3c0.2-0.9,1-1.5,2-1.8c-1.4,0-2.5,0.6-2.8,1.6c-0.2,1,0.5,2,1.8,2.7
		C286.5,389.2,286.1,388.2,286.3,387.3z"/>
	
		<linearGradient id="SVGID_57_" gradientUnits="userSpaceOnUse" x1="115.4938" y1="-1305.2814" x2="118.7124" y2="-1305.2814" gradientTransform="matrix(0.9868 -0.1617 -0.1617 -0.9868 -41.08 -853.5443)">
		<stop  offset="0" style="stop-color:#76BBC7"/>
		<stop  offset="1" style="stop-color:#83C1CC"/>
	</linearGradient>
	<path class="st107" d="M285,415.7c-0.2-1.2,0.5-2.5,1.7-3.4c-1.8,0.8-2.9,2.1-2.7,3.5c0.2,1.4,1.7,2.3,3.7,2.5
		C286.2,417.9,285.2,417,285,415.7z"/>
	
		<linearGradient id="SVGID_58_" gradientUnits="userSpaceOnUse" x1="225.9752" y1="-1242.835" x2="230.1482" y2="-1242.835" gradientTransform="matrix(0.9992 -4.054751e-02 -4.054751e-02 -0.9992 -9.1709 -832.1603)">
		<stop  offset="0" style="stop-color:#76BBC7"/>
		<stop  offset="1" style="stop-color:#83C1CC"/>
	</linearGradient>
	<path class="st108" d="M268.3,400.5c-0.1-1.6,1-3.1,2.7-4.1c-2.4,0.7-4.1,2.3-4,4.1c0.1,1.8,1.9,3.3,4.3,3.8
		C269.6,403.5,268.4,402.1,268.3,400.5z"/>
	
		<linearGradient id="SVGID_59_" gradientUnits="userSpaceOnUse" x1="133.2731" y1="-1286.119" x2="137.4462" y2="-1286.119" gradientTransform="matrix(0.9914 -0.1311 -0.1311 -0.9914 -31.9318 -848.7882)">
		<stop  offset="0" style="stop-color:#76BBC7"/>
		<stop  offset="1" style="stop-color:#83C1CC"/>
	</linearGradient>
	<path class="st109" d="M270.1,408.6c-0.2-1.6,0.7-3.2,2.3-4.3c-2.3,0.9-3.9,2.7-3.6,4.5c0.2,1.8,2.2,3.1,4.7,3.4
		C271.6,411.5,270.3,410.2,270.1,408.6z"/>
	
		<linearGradient id="SVGID_60_" gradientUnits="userSpaceOnUse" x1="491.4282" y1="-1079.2817" x2="493.7528" y2="-1079.2817" gradientTransform="matrix(0.9726 0.2323 0.2323 -0.9726 42.7339 -771.5485)">
		<stop  offset="0" style="stop-color:#76BBC7"/>
		<stop  offset="1" style="stop-color:#83C1CC"/>
	</linearGradient>
	<path class="st110" d="M270.7,392.5c0.2-0.9,1-1.5,2-1.8c-1.4,0-2.5,0.6-2.8,1.6c-0.2,1,0.5,2,1.8,2.7
		C270.9,394.3,270.5,393.4,270.7,392.5z"/>
	
		<linearGradient id="SVGID_61_" gradientUnits="userSpaceOnUse" x1="104.5506" y1="-1303.0754" x2="107.7693" y2="-1303.0754" gradientTransform="matrix(0.9868 -0.1617 -0.1617 -0.9868 -41.08 -853.5443)">
		<stop  offset="0" style="stop-color:#76BBC7"/>
		<stop  offset="1" style="stop-color:#83C1CC"/>
	</linearGradient>
	<path class="st111" d="M273.8,415.3c-0.2-1.2,0.5-2.5,1.7-3.4c-1.8,0.8-2.9,2.1-2.7,3.5c0.2,1.4,1.7,2.3,3.7,2.5
		C275.1,417.5,274,416.5,273.8,415.3z"/>
</g>
<circle class="st112" cx="262.6" cy="288.2" r="260.8"/>
<rect class="st112" width="525" height="550"/>
</svg>
