<?xml version="1.0" encoding="utf-8"?>
<!-- Generator: Adobe Illustrator 22.0.1, SVG Export Plug-In . SVG Version: 6.00 Build 0)  -->
<svg version="1.1" id="Layer_2_1_" xmlns="http://www.w3.org/2000/svg" xmlns:xlink="http://www.w3.org/1999/xlink" x="0px" y="0px"
	 viewBox="0 0 525 553" style="enable-background:new 0 0 525 553;" xml:space="preserve">
<style type="text/css">
	.st0{fill:none;}
	.st1{fill:#51062A;}
	.st2{fill:none;stroke:#961E4C;stroke-width:3;stroke-miterlimit:10;}
	.st3{fill:#F8AD84;}
	.st4{opacity:0.74;fill:url(#SVGID_1_);enable-background:new    ;}
	.st5{fill:#ED9B72;}
	.st6{opacity:0.66;}
	.st7{fill:url(#SVGID_2_);}
	.st8{fill:url(#SVGID_3_);}
	.st9{fill:url(#SVGID_4_);}
	.st10{fill:url(#SVGID_5_);}
	.st11{fill:url(#SVGID_6_);}
	.st12{fill:url(#SVGID_7_);}
	.st13{fill:url(#SVGID_8_);}
	.st14{opacity:0.45;fill:url(#SVGID_9_);enable-background:new    ;}
	.st15{opacity:0.83;fill:url(#SVGID_10_);enable-background:new    ;}
	.st16{opacity:0.49;fill:url(#SVGID_11_);enable-background:new    ;}
	.st17{opacity:0.6;fill:url(#SVGID_12_);enable-background:new    ;}
	.st18{opacity:0.75;fill:#E89972;enable-background:new    ;}
	.st19{fill:none;stroke:#D6805F;stroke-width:0.5;stroke-linecap:round;stroke-linejoin:round;stroke-miterlimit:10;}
	.st20{opacity:0.59;fill:url(#SVGID_13_);enable-background:new    ;}
	.st21{opacity:0.46;fill:url(#SVGID_14_);enable-background:new    ;}
	.st22{opacity:0.66;fill:url(#SVGID_15_);enable-background:new    ;}
	.st23{opacity:0.65;fill:url(#SVGID_16_);enable-background:new    ;}
	.st24{opacity:0.65;fill:url(#SVGID_17_);enable-background:new    ;}
	.st25{fill:#BA3175;}
	.st26{fill:url(#SVGID_18_);}
	.st27{opacity:0.71;fill:url(#SVGID_19_);enable-background:new    ;}
	.st28{fill:url(#SVGID_20_);}
	.st29{fill:#F29D72;}
	.st30{fill:#BD3624;}
	.st31{fill:#4C0D06;}
	.st32{fill:#8DBECC;}
	.st33{fill:#B0DBEA;}
	.st34{fill:#FFC2B6;}
	.st35{fill:url(#SVGID_21_);}
	.st36{opacity:0.76;fill:url(#SVGID_22_);enable-background:new    ;}
	.st37{opacity:0.33;fill:url(#SVGID_23_);enable-background:new    ;}
	.st38{opacity:0.55;fill:url(#SVGID_24_);enable-background:new    ;}
	.st39{fill:url(#SVGID_25_);}
	.st40{fill:url(#SVGID_26_);}
	.st41{opacity:0.19;fill:url(#SVGID_27_);enable-background:new    ;}
	.st42{opacity:0.5;fill:url(#SVGID_28_);enable-background:new    ;}
	.st43{fill:url(#SVGID_29_);}
	.st44{opacity:0.58;fill:url(#SVGID_30_);enable-background:new    ;}
	.st45{opacity:0.58;fill:url(#SVGID_31_);enable-background:new    ;}
	.st46{opacity:0.58;fill:url(#SVGID_32_);enable-background:new    ;}
	.st47{fill:url(#SVGID_33_);}
	.st48{fill:#961E4C;}
	.st49{fill:#6E0001;}
	.st50{fill:#DD8C68;}
	.st51{fill:#DB7556;}
	.st52{fill:#C43784;}
	.st53{fill:#A01C64;}
	.st54{fill:#E89972;}
	.st55{opacity:0.47;fill:url(#SVGID_34_);enable-background:new    ;}
	.st56{fill:#4F0E4F;}
	.st57{fill:none;stroke:#961E4C;stroke-width:3;stroke-linecap:round;stroke-miterlimit:10;}
	.st58{opacity:0.48;fill:url(#SVGID_35_);enable-background:new    ;}
	.st59{opacity:0.78;fill:url(#SVGID_36_);enable-background:new    ;}
	.st60{fill:#69A4CC;}
	.st61{fill:url(#SVGID_37_);}
	.st62{fill:url(#SVGID_38_);}
	.st63{fill:url(#SVGID_39_);}
	.st64{fill:#B735A4;}
	.st65{fill:#9E0481;}
	.st66{fill:url(#SVGID_40_);}
	.st67{fill:#E8E3E8;}
	.st68{fill:#2B3A44;}
	.st69{fill:none;stroke:#F7C1F0;stroke-linecap:round;stroke-linejoin:round;stroke-miterlimit:10;}
	.st70{fill:#E1E1EA;}
	.st71{fill:url(#SVGID_41_);}
	.st72{fill:url(#SVGID_42_);}
	.st73{fill:url(#SVGID_43_);}
</style>
<circle class="st0" cx="262.8" cy="274.3" r="259.3"/>
<g id="Layer_1_1_">
	<g>
		<path class="st1" d="M231.3,15.9c0,0-19.6-3.5-23.9,34.5c-1.9,16.8,2.9,26.8,2.9,26.8s-13.2,13.4-8.4,39.2
			c2.5,13.6,24.2,24.5,41,27.1s29.9-5.7,41.5-10.2c7.7-3,21.3-3.8,19.9-28.8c-0.5-9.1-8.9-17.2-8.9-17.2s15.7-22,4.7-36.2
			s-17.3-22.3-17.4-23.5S265-4.5,231.3,15.9z"/>
		<path class="st2" d="M231.3,15.9c0,0-19.6-3.5-23.9,34.5c-1.9,16.8,2.9,26.8,2.9,26.8s-13.2,13.4-8.4,39.2
			c2.5,13.6,24.2,24.5,41,27.1s29.9-5.7,41.5-10.2c7.7-3,21.3-3.8,19.9-28.8c-0.5-9.1-8.9-17.2-8.9-17.2s15.7-22,4.7-36.2
			s-17.3-22.3-17.4-23.5S265-4.5,231.3,15.9z"/>
		<path class="st3" d="M316.4,134.3c-3.4-3.8-11.6-14.1-18.4-19.8c-2.7-2.3-4.2-4.1-6.3-5.2c-3.2-1.5-6.9-1.6-11.1-1.5
			c0,0-15.6,12.1-11.6,22.9s7.5,18.2,11.7,18.1c4.2-0.1,6.4-1.6,6.4-1.6s0.1-4.1,2-4.9c3.4-1.5,6.7,0,10.5,4.8
			c2.5,3.1,16.6,15.8,28.2,21.7c15.8,8,15.6-4.5,15.4-10.4C343.1,156.1,323.3,142.1,316.4,134.3z"/>
		<path class="st3" d="M228.4,114.6c-7.8,1.7-6.4,1.4-15.4,5.2c-1.9,0.8,1.9,4,2,6.9c0.6,12.4,3.7,16.8,5.3,20.2s1.2,17.2,10.4,33.6
			c3.7,6.6,5.6,25.4,2.6,29.6c-5,7-10.5,12.7-17.7,29.5c-4.5,10.4,48.5,11.5,56.9,6.6s33.1-1.4,33.1-1.4s-4-14.7-6.8-22
			c-3.2-8.2-6.6-11.2-8.3-25.9c-0.7-6.2-0.4-21.1,1.5-22.9c1.9-1.8,5-6.9,5.1-10.9s-4.6-18.9-7.1-23s0.7-11.2,1.9-12.4
			s0.1-11.6-4.1-15.7s-12-4.3-17.4-4.3s-8.4-10.7-9-16.6c-0.5-5.8,1.3-17.2-4.1-19.5s-17.7-3.4-17.8,2.9s5,30.2,0,34.9
			C234.4,114.1,231.6,113.8,228.4,114.6z"/>
		<path class="st3" d="M194.6,199.2c0,0,4.6-20.7,4.9-34.5c0.2-13.8,4.4-41.4,13.8-45.6c6.7-3,17-4.9,17-4.9s12,12,5.2,22.8
			c-6.9,10.8-13.4,18-13.4,18s-8.7,36.6-13.2,45.5S194.4,208.6,194.6,199.2z"/>
		
			<linearGradient id="SVGID_1_" gradientUnits="userSpaceOnUse" x1="233.8063" y1="-960.1267" x2="247.79" y2="-894.7117" gradientTransform="matrix(1 0 1.776987e-02 -1 -9.7468 -767.9)">
			<stop  offset="0" style="stop-color:#D48864"/>
			<stop  offset="1" style="stop-color:#F8AD84;stop-opacity:0"/>
		</linearGradient>
		<path class="st4" d="M194.6,199.2c0,0,4.6-20.7,4.9-34.5c0.2-13.8,4.4-41.2,13.8-45.4c6.7-3,17-5.1,17-5.1s12,12,5.2,22.8
			c-6.9,10.8-13.4,18-13.4,18s-8.7,36.6-13.2,45.5S194.4,208.6,194.6,199.2z"/>
		<g id="XMLID_220_">
			<g>
				<path class="st5" d="M198.4,301.9c0.3-1.2,0.2-3.1,0-4.8c0.4-0.2,1.1-0.6,1.7-0.7c0.9-0.1,1.4,1.7,0.5,2.7
					C199.8,300.3,198.4,301.9,198.4,301.9L198.4,301.9z"/>
				<path class="st3" d="M193.9,300.3l-0.3-1l0,0c-0.3-1.3-0.6-3-1-5c-1.1-5.3-0.5-9.1-1.8-10.4c-0.7-0.7-2,0.5-3,2.2c0,0,0,0,0,0.1
					l0,0c-0.4,0.6-3,4.8-3.1,7.5c-0.1,2.9,1.5,3.1,3.8,4.6s2.8,2.7,3.7,2.3c0.9-0.3,1.9,0,1.9,0L193.9,300.3z M198.4,297.1
					c0.2,1.7,0.2,3.5,0,4.8c-0.2,1.1-0.7,1.7-1.6,1.5c-0.5-0.2-1-0.4-1.4-0.7l-3.9,0.7c-2.4,0.2-9.2-1.6-11.7-5.1s-1.7-3.9-0.8-14.1
					s4.8-16.8,4.8-16.8s1.5-28.7,4-48.7s8.1-25.1,8.1-25.1c6.3-4.2,13.4-1.7,14.1,1s0.1,18.1-5.5,32.6
					c-5.9,15.2-13.6,40.8-13.6,40.8s3.5,4.7,5.3,8.6c1.8,4,1.7,14.6,1.8,16.6C198.1,293.9,198.4,295.5,198.4,297.1z"/>
				<path class="st5" d="M186.4,291c0.2,3.4,7.3,7.1,7.3,8v0.1l0,0c0.1,0.4,0.2,0.7,0.3,1l0.1,0.3c0,0-0.9-0.3-1.9,0
					c-0.9,0.3-1.4-0.9-3.7-2.3s-3.9-1.6-3.8-4.6c0.1-2.7,2.7-6.9,3.1-7.5C186.9,287.5,186.3,289.4,186.4,291z"/>
			</g>
		</g>
		<g id="XMLID_219_" class="st6">
			<g>
				
					<linearGradient id="SVGID_2_" gradientUnits="userSpaceOnUse" x1="216.7834" y1="-964.9555" x2="198.679" y2="-1071.731" gradientTransform="matrix(1 0 0 -1 0 -767.9)">
					<stop  offset="0" style="stop-color:#D48864"/>
					<stop  offset="1" style="stop-color:#F8AD84;stop-opacity:0"/>
				</linearGradient>
				<path class="st7" d="M198.4,301.9c0.3-1.2,0.2-3.1,0-4.8c0.4-0.2,1.1-0.6,1.7-0.7c0.9-0.1,1.4,1.7,0.5,2.7
					C199.8,300.3,198.4,301.9,198.4,301.9L198.4,301.9z"/>
				
					<linearGradient id="SVGID_3_" gradientUnits="userSpaceOnUse" x1="204.0992" y1="-963.1595" x2="186.0291" y2="-1069.7327" gradientTransform="matrix(1 0 0 -1 0 -767.9)">
					<stop  offset="0" style="stop-color:#D48864"/>
					<stop  offset="1" style="stop-color:#F8AD84;stop-opacity:0"/>
				</linearGradient>
				<path class="st8" d="M193.9,300.4L193.9,300.4c-0.5-1.5-0.8-3.6-1.3-6.2c-1.1-5.3-0.5-9.1-1.8-10.4c-0.7-0.7-2,0.5-3,2.2
					c0,0,0,0,0,0.1l0,0c-0.4,0.6-3,4.8-3.1,7.5c-0.1,2.9,1.5,3.1,3.8,4.6s2.8,2.7,3.7,2.3C193.1,300.1,194.1,300.5,193.9,300.4
					L193.9,300.4z M198.4,301.9c-0.2,1.1-0.7,1.7-1.6,1.5c-0.5-0.2-1-0.4-1.4-0.7l-3.9,0.7c-2.4,0.2-9.2-1.6-11.7-5.1
					s-1.7-3.9-0.8-14.1s4.8-16.8,4.8-16.8s1.5-28.7,4-48.7s8.1-25.1,8.1-25.1c6.3-4.2,13.4-1.7,14.1,1s0.1,18.1-5.5,32.6
					c-5.9,15.2-13.6,40.8-13.6,40.8s3.5,4.7,5.3,8.6c1.8,4,1.7,14.6,1.8,16.6c0,0.7,0.3,2.2,0.4,3.9
					C198.6,298.8,198.8,300.6,198.4,301.9z"/>
			</g>
		</g>
		
			<linearGradient id="SVGID_4_" gradientUnits="userSpaceOnUse" x1="379.7187" y1="-1199.5511" x2="338.9058" y2="-1031.9271" gradientTransform="matrix(1 0 1.776987e-02 -1 -9.7468 -767.9)">
			<stop  offset="0" style="stop-color:#851C73"/>
			<stop  offset="1" style="stop-color:#582978"/>
		</linearGradient>
		<path class="st9" d="M307,243.3c-0.5,0.1-1.1,0.3-1.6,0.4"/>
		
			<linearGradient id="SVGID_5_" gradientUnits="userSpaceOnUse" x1="295.5147" y1="-1220.0531" x2="245.3322" y2="-1013.947" gradientTransform="matrix(1 0 1.776987e-02 -1 -9.7468 -767.9)">
			<stop  offset="0" style="stop-color:#851C73"/>
			<stop  offset="1" style="stop-color:#582978"/>
		</linearGradient>
		<path class="st10" d="M216.1,236.4c-1.1-0.6-1.6-0.9-1.6-0.9"/>
		
			<linearGradient id="SVGID_6_" gradientUnits="userSpaceOnUse" x1="295.4977" y1="-1078.2499" x2="301.8992" y2="-1211.2072" gradientTransform="matrix(1 0 1.776987e-02 -1 -9.7468 -767.9)">
			<stop  offset="0" style="stop-color:#F8AD84"/>
			<stop  offset="1" style="stop-color:#D69370"/>
		</linearGradient>
		<path class="st11" d="M265.4,276.1c9,29.1,10.7,43.9,21.6,74.7c0,0,7.9,19.8,9.4,24.6c1.4,4.8,0.9,21,0.7,30.6
			c-0.2,9.6,6.3,54.1,10.1,74.7c2.3,12.3,4,22.2,4.7,26.8c0.1,0.8-0.5,1.8-0.4,2.4c0.2,1.9,1.3,3.5,1.3,4.2c0,2.6,6.2,4.9,7.7,3.4
			s3.4-3.1,2.6-12.8c-0.7-9.8-0.5-104.6-0.5-104.6s-1.4-18.4-1.4-19.7c0-1.4,1.2-5,0.6-8.9c-0.5-3.9-2.3-10.9-2.8-18.2
			c-0.5-7.4-8.4-92.7-16.4-118.7l-3.4-10.3c0,0-37.6,9.7-73.3-3.2c0,0,0.3-0.8-3.2,4.6c-3.6,5.4-10.6,16.2-10.9,30.8
			c-0.3,15.2,1.1,58.8,10.8,98.1c5.1,20.7,4.7,27.3,2.9,33.1c-1.9,5.9-4.4,33.2,0.4,58.3c4.8,25.1,8,62.8,7.9,66.6s1,6.9,4,7.8
			c3,0.8,6.8-0.3,7.2-4.6s3.1-80.7,4-88.7c0.8-8,0.2-33.4,0.8-36.1c0.7-2.7,2.1-12.3,3-19.1c1-7.5,7.6-54.7,9.5-68.3
			c2.1-15.2,2.4-18.3,3.1-24.3"/>
		
			<linearGradient id="SVGID_7_" gradientUnits="userSpaceOnUse" x1="321.1357" y1="-1220.6992" x2="265.3332" y2="-991.5104" gradientTransform="matrix(1 0 1.776987e-02 -1 -9.7468 -767.9)">
			<stop  offset="0" style="stop-color:#851C73"/>
			<stop  offset="1" style="stop-color:#582978"/>
		</linearGradient>
		<path class="st12" d="M322.3,444.8c-4.8,1.4-13.5,2.9-21.1,1.4c-3-14.4-4.9-28.1-4.6-42.8c0.2-9.6,1.2-23-0.2-27.8
			c-1.5-4.8-6.5-16.4-9.1-22.3c-17.8-39.8-20.3-59.1-22.7-67.7c0.2,4.2,0.3,6.3-0.8,15.6c-3.3,27.3-10.1,63.4-11.1,70.9
			c-0.9,7-2.2,16.5-2.9,19.2s1.1,27.1,0.3,35.1c-0.3,2.5-0.9,11.2-2.6,23.8c-4.4,1.2-11.1,2.8-20.6,2.4c-0.4-2.1-0.7-4.2-1.1-6.2
			c-4.8-25.2-2.1-52.3-1.7-58.4c0.9-11.5-0.1-16.9-3.7-35.3c-7.8-39.8-11.8-78.1-10.4-93.3c1.3-13.8,6.1-23.4,11.3-31.5
			c7.3,3.9,35.1,15.7,80.4,3.6c11.5,32.2,16.8,115.1,17.3,122.1c0.5,7.4,2.3,14.4,2.8,18.3s-0.6,7.4-0.6,8.7
			c0,1.3,1.4,19.9,1.4,19.9S322.5,422.9,322.3,444.8z"/>
		
			<linearGradient id="SVGID_8_" gradientUnits="userSpaceOnUse" x1="233.9728" y1="-1014.8849" x2="273.2464" y2="-1136.3667" gradientTransform="matrix(1 0 1.776987e-02 -1 -9.7468 -767.9)">
			<stop  offset="0" style="stop-color:#4D2469"/>
			<stop  offset="1" style="stop-color:#701862;stop-opacity:0"/>
		</linearGradient>
		<path class="st13" d="M220.4,228.5c0,0-9.6,34.2-1.5,75c7.3,36.9,13.4,62,9.6,65.7s-4,2.6-4,2.6s-13.1-58.6-14.2-91.6
			C209.4,256,210.4,246.2,220.4,228.5z"/>
		
			<linearGradient id="SVGID_9_" gradientUnits="userSpaceOnUse" x1="341.2708" y1="-1152.4897" x2="333.3642" y2="-1182.032" gradientTransform="matrix(1 0 1.776987e-02 -1 -9.7468 -767.9)">
			<stop  offset="0" style="stop-color:#571B57"/>
			<stop  offset="1" style="stop-color:#701862;stop-opacity:0"/>
		</linearGradient>
		<path class="st14" d="M321.3,380c0,0-0.9,6.3-7.3,6.3c-9.7,0-11.8-14.3-16-10.2c-1.3,1.2,0.2,17.4,0.2,17.4s-1.6,16.5-0.9,18.9
			c0.7,2.3,17.9,7.2,20.7,0.8c2.8-6.4,4.2-14.9,4.2-14.9S321.1,385.3,321.3,380z"/>
		
			<linearGradient id="SVGID_10_" gradientUnits="userSpaceOnUse" x1="255.5651" y1="-976.9642" x2="278.8972" y2="-990.1694" gradientTransform="matrix(1 0 1.776987e-02 -1 -9.7468 -767.9)">
			<stop  offset="0" style="stop-color:#B56D53"/>
			<stop  offset="1" style="stop-color:#F8AD84;stop-opacity:0"/>
		</linearGradient>
		<path class="st15" d="M242.3,234.6c2.7,0.4-0.3-16.1,0.3-19.3c0.6-3.3,15.8-16.9,3.7-18c-10.1-0.9-12-2.6-12-2.6
			c1,3.4,0.3,14-0.9,15.4c-5.2,6-12.1,17.7-12.1,17.7S233.1,233.2,242.3,234.6z"/>
		
			<linearGradient id="SVGID_11_" gradientUnits="userSpaceOnUse" x1="-104.0329" y1="-1594.9019" x2="-119.7478" y2="-1589.5942" gradientTransform="matrix(0.9799 -0.2177 -0.2004 -0.976 43.1458 -1361.8047)">
			<stop  offset="0" style="stop-color:#E68D6C"/>
			<stop  offset="1" style="stop-color:#F8AD84;stop-opacity:0"/>
		</linearGradient>
		<path class="st16" d="M261.8,207.6c0,0-1,12.6-0.6,16.1c1,9.9,3.4,12.8,3.4,12.8s-8.8,0.7-15.2-0.3c0,0-1.7-0.8-0.3-1.5
			s3.9-2.1,4.3-4.9c0.4-2.8,2.3-7.6,3-10.5c0.7-2.9,2.4-8.8,1.1-12.5s-3.3-8.1-2.6-9.8C255.4,195.2,261.9,204.5,261.8,207.6z"/>
		
			<linearGradient id="SVGID_12_" gradientUnits="userSpaceOnUse" x1="301.0244" y1="-968.5971" x2="298.0905" y2="-962.6479" gradientTransform="matrix(1 0 1.776987e-02 -1 -9.7468 -767.9)">
			<stop  offset="0" style="stop-color:#E68D6C"/>
			<stop  offset="1" style="stop-color:#F8AD84;stop-opacity:0"/>
		</linearGradient>
		<path class="st17" d="M272.5,195.4c0,0,0.2,3.2,0.7,5.4s-0.6,4.1,1,4.5s1.3-4.5,0.9-6.5s-1.1-3.7-1.1-3.7L272.5,195.4z"/>
		<path class="st18" d="M276,214.4c0,0-0.9,1-0.3,2.5c0.5,1.4,2.7,3.4,1.8,4.5s-2.3,1-2.9,0.4C274,221,274,216.5,276,214.4z"/>
		<path class="st19" d="M275.6,215c0,0-3.2,6.7,0.1,7c3.3,0.2,0.8-4.9,0.3-3.2c-0.6,1.6-0.3,2-0.3,2"/>
		
			<linearGradient id="SVGID_13_" gradientUnits="userSpaceOnUse" x1="313.7608" y1="-981.5297" x2="329.2829" y2="-977.4449" gradientTransform="matrix(1 0 1.776987e-02 -1 -9.7468 -767.9)">
			<stop  offset="0" style="stop-color:#E68D6C"/>
			<stop  offset="1" style="stop-color:#F8AD84;stop-opacity:0"/>
		</linearGradient>
		<path class="st20" d="M283,193.5c0,0-0.6,6.1-0.7,7.8c0,1.7,1.8,8,2.6,10.8c1.5,5.6,2.4,15.3,0.9,22.9l15.7-3.5c0,0-4.8-14.7-8-20
			c-3.1-5.3-3.6-18.6-3.6-20.6C290,190.7,285.4,192.8,283,193.5z"/>
		
			<linearGradient id="SVGID_14_" gradientUnits="userSpaceOnUse" x1="226.2527" y1="-1280.0468" x2="225.776" y2="-1267.3687" gradientTransform="matrix(0.9705 -9.356229e-02 -7.843793e-02 -0.9954 -42.6873 -1018.1876)">
			<stop  offset="0" style="stop-color:#E68D6C"/>
			<stop  offset="1" style="stop-color:#F8AD84;stop-opacity:0"/>
		</linearGradient>
		<path class="st21" d="M263.9,225.9c0,0,3.6,5.8,7.3,4.1c3.7-1.7,4.3-2.6,6.2-2.4c1.9,0.2,3.7,2.5,6.3,2.6s4.8-5.5,4.8-5.5
			s0.5,8.8-1.1,9.8c-1.7,1-17.4,2-20.3,2C265.3,236.4,263.9,225.9,263.9,225.9z"/>
		
			<linearGradient id="SVGID_15_" gradientUnits="userSpaceOnUse" x1="289.0952" y1="-920.5946" x2="285.7539" y2="-904.0509" gradientTransform="matrix(1 0 1.776987e-02 -1 -9.7468 -767.9)">
			<stop  offset="0" style="stop-color:#C7754E"/>
			<stop  offset="1" style="stop-color:#F8AD84;stop-opacity:0"/>
		</linearGradient>
		<path class="st22" d="M285.3,139c-8.6,4.3-17.3,12.3-17.3,12.3c-18.8-6.1-30-5.1-30-5.1l-2.2-6.4c0,0,2.1,4.1,4,4.4
			c1.9,0.3,13.8-0.9,18.2,1s5.4,2.6,5.8,1.1s-4.1-5.4-1.4-6.5s5.3,2.1,5.7,4.3c0.4,2.2,1.3,2.1,3.4,0c2.2-2.1,12.7-5.8,12.7-5.8
			s-1.2-8.3-0.7-7.5C283.9,131.7,285.3,139,285.3,139z"/>
		
			<linearGradient id="SVGID_16_" gradientUnits="userSpaceOnUse" x1="-328.7188" y1="-1257.3893" x2="-324.5359" y2="-1249.7206" gradientTransform="matrix(1.1471 -0.182 -0.1594 -0.985 414.9442 -1169.5253)">
			<stop  offset="0" style="stop-color:#E89166"/>
			<stop  offset="1" style="stop-color:#F8AD84;stop-opacity:0"/>
		</linearGradient>
		<path class="st23" d="M231.4,127.3c0,0,5.9,1.5,16.5,2.2c7.6,0.5,2.3-3.1-0.7-3.4c-3.7-0.4-11.2-3.6-16.4-5
			c-1.9-0.5-3.9,1-3.6,3.1C227.3,124.7,228.4,126.4,231.4,127.3z"/>
		
			<linearGradient id="SVGID_17_" gradientUnits="userSpaceOnUse" x1="-4749.0874" y1="-1065.2839" x2="-4744.7271" y2="-1057.2904" gradientTransform="matrix(-0.9038 9.830704e-02 -0.1037 -0.9922 -4130.9971 -465.9405)">
			<stop  offset="0" style="stop-color:#E89166"/>
			<stop  offset="1" style="stop-color:#F8AD84;stop-opacity:0"/>
		</linearGradient>
		<path class="st24" d="M276.6,120.7c0,0-3.3,4.2-12,6.7c-5.8,1.7-2.5-2.4-0.3-3.4c2.7-1.3,7.7-6.8,11.3-9.4c1.3-1,3.2,0.1,3.4,2.2
			C279.3,117.3,278.5,118.5,276.6,120.7z"/>
		<g>
			<g id="XMLID_218_">
				<path class="st25" d="M298.1,167.5c-2.9,4.9-6.6,8-6.6,8c-1.8,3.4-1.6,15.2-1.6,15.2s-8.5,5.1-29.6,6.4
					c-20.7,1.3-26.2-2.5-26.2-2.5c-2.4-8.9-4.8-13.4-6.4-16.8c-1.1-2.4-7-19.8-5.5-21.1c1.7-1.5,4.1-1.5,4.3-8.2
					c0.1-6.6-5.7-32.1-5.7-32.1l3.4-1l2.1-0.4c2.5,4.1,12,31.8,12,31.8c14.6-0.5,30,5.1,30,5.1c8.4-9.1,17.3-12.3,17.3-12.3
					c-1-9.3-10.9-32-10.9-32l6.3,0.3c7.6,16.8,6.3,19.6,11.3,28.7c1,1.8,3.4,5.7,6.2,12.5C300.9,154.9,300.6,163.3,298.1,167.5z"/>
			</g>
		</g>
		
			<linearGradient id="SVGID_18_" gradientUnits="userSpaceOnUse" x1="283.3176" y1="-945.082" x2="282.6657" y2="-968.8787" gradientTransform="matrix(1 0 1.776987e-02 -1 -9.7468 -767.9)">
			<stop  offset="0" style="stop-color:#9B2466"/>
			<stop  offset="1" style="stop-color:#BA3175;stop-opacity:0"/>
		</linearGradient>
		<path class="st26" d="M222.9,126.2c0,0,5.9,29.3,7.1,35.7c1.3,6.8,4.4,17.8,15,19c15.6,1.9,19.3-5.5,26.1-5.5
			c5.8,0,16.6,1.7,22-1.5c0,0-2.4,3.5-2.8,6.7s-0.3,9.3-0.3,9.3s-9,0.3-14.8-1.7s-21.9,6.8-28.7,6.8s-13.1-3.1-13.1-3.1
			s-2.2-6.9-3.9-10.5s-8.3-18.1-7.4-24.4c0,0,3.8-2.6,3.9-5.6C226.1,148.4,222.9,126.2,222.9,126.2z"/>
		
			<linearGradient id="SVGID_19_" gradientUnits="userSpaceOnUse" x1="276.3367" y1="-1041.1312" x2="260.6116" y2="-1047.7769" gradientTransform="matrix(0.9998 -4.568664e-02 -2.793533e-02 -0.999 15.4297 -887.9154)">
			<stop  offset="0" style="stop-color:#D48864"/>
			<stop  offset="1" style="stop-color:#F8AD84;stop-opacity:0"/>
		</linearGradient>
		<path class="st27" d="M318.9,137c0,0,1.5,16.3,5.3,22.1c2.5,3.7-11.8-7.5-16.3-15c-5.1-8.6-0.7-20.2-0.7-20.2s4.2,4.8,5.5,6.3
			C314.3,131.9,318.9,137,318.9,137z"/>
		
			<linearGradient id="SVGID_20_" gradientUnits="userSpaceOnUse" x1="275.9613" y1="-854.5445" x2="278.0519" y2="-875.0318" gradientTransform="matrix(1 0 1.776987e-02 -1 -9.7468 -767.9)">
			<stop  offset="0" style="stop-color:#C47958"/>
			<stop  offset="1" style="stop-color:#F8AD84;stop-opacity:0"/>
		</linearGradient>
		<path class="st28" d="M261.1,81.6c0,0-2.4,3.2-5.9,3.8c-3.5,0.7-6,0.2-7.9-0.5c-3.3-1.3-7.2-3.5-7.2-3.5l1.5,14.4
			c0,0-0.4,5.6,9.3,6.2c7.5,0.4,11.1-6.5,11.1-6.5S260.8,89.4,261.1,81.6z"/>
		<path class="st3" d="M279.9,63.2c0.9,0.7,1,6.3,0.4,12.4c-0.5,5-4.6,9-9.7,10.6c-8.6,2.8-21.5,1.8-29.3-2.6
			c-6.9-3.8-8.8-13.2-8.8-13.2s-0.3,0.6-4.3-0.5c-4.1-1.2-6.5-9.6-5.3-12.2c2.1-4.7,6.3-1.5,6.7-1.4c-8.5-17.9,4.9-32,19.8-33.8
			c0.3,0,0.7-0.1,1-0.1c14.1-0.8,18.6,18.5,18.6,18.5s3,8,8.5,12.4c0.5,0.4,1,0.8,1.3,1.1c4,3.5,3.3,5,2.5,6
			C280.4,61.6,279,62.5,279.9,63.2z"/>
		<path class="st29" d="M278.9,54.4c-0.4-0.4-0.8-0.7-1.3-1.1c-5.5-4.4-8.5-12.4-8.5-12.4s-4.5-19.3-18.6-18.5
			c3.2-0.8,8.1-1.3,12.3,1.1c7.2,4,11.4,15.2,13.6,20.5C277.5,47,278.4,51.3,278.9,54.4z"/>
		<g id="XMLID_217_">
			<g>
				<path class="st30" d="M271.4,74.8c-3.9-0.6-5.9-1.5-5.9-1.5l0.1-0.1l0.1-0.1c1.3-0.2,4.7-0.4,6.7-1.3c1.5-0.7,1.5-1.2,1.8-1.5
					c0.1-0.1,0.2-0.2,0.4-0.2c0.9-0.2,1.1,1.6,1.1,1.9C275.5,72.3,275.3,75.4,271.4,74.8z"/>
				<path class="st31" d="M270.9,68.6c1-0.4,1.6-0.2,2.1-0.6c0.2,0.2,0.4,1.6,1.1,2.3c-0.3,0.3-0.3,0.8-1.8,1.5
					c-2,0.9-5.4,1.2-6.7,1.3C266.5,72.3,269.6,69,270.9,68.6z"/>
				<path class="st30" d="M265.5,73.4c0.8-3,1-4.2,2.7-6.3c1.7-2.1,3.7-1.4,3.7-1.4c0.4-1.1,1.7-0.8,2-0.4c0.4,0.4,0.1,1.2-0.5,2.2
					c-0.1,0.3-0.3,0.4-0.4,0.5c-0.5,0.3-1.1,0.2-2.1,0.6c-1.2,0.4-4.4,3.8-5.2,4.6C265.5,73.2,265.5,73.3,265.5,73.4L265.5,73.4z"/>
			</g>
		</g>
		<g id="XMLID_216_">
			<g>
				<path class="st32" d="M309.5,71.5l-0.9-0.6c0.1,0,0.2,0.1,0.4,0.2c0.1,0.1,0.2,0.2,0.3,0.3l0,0l0,0
					C309.4,71.4,309.4,71.4,309.5,71.5z"/>
				<path class="st32" d="M302.5,76.3c1.7-3.5,4.3-5.8,6-5.4h0.1l0.9,0.6c1.2,1.4,0.9,4.9-0.8,8.3c-1.7,3.5-4.2,5.7-5.9,5.4l0,0
					l-0.6-0.3C300.5,83.9,300.5,80.1,302.5,76.3z"/>
				<path class="st3" d="M312.1,73.6c0.9,1.9,2.9,15.3,2.9,15.3s14.2,24.7,21.6,42.2s7.8,33.4,4.8,37.5c-3.9,5.3-10.9,1.4-13.7-1
					c-5.3-4.6-8.2-27.1-10.7-41.4c-2.4-13.9-11.1-32.3-11.1-32.3s-2.8-0.9-4.9-1.1s-6.8-4-9.7-4.8s-2.3-1.9-2.5-4.8
					c-0.1-1.1-0.5-2.6-1-4.1l8.3,3.4l0,0l6,2.5c0,0,0.1,0,0.1,0.1c0.2,0.1,0.3,0.2,0.5,0.2l0,0c1.7,0.3,4.3-1.9,5.9-5.4
					c1.7-3.4,2-6.9,0.8-8.3c0-0.1-0.1-0.1-0.1-0.2l0,0l0,0c-0.1-0.1-0.2-0.2-0.3-0.3c-0.1-0.1-0.2-0.1-0.4-0.2l-3.3-2.3l4.2,1.2
					C309.5,69.8,311.5,71.7,312.1,73.6z"/>
				<path class="st3" d="M305.9,64.7c-1.6-0.3-3.4-0.2-4.7,0.4l0,0l0,0c-0.5,0.1-4.2,1-5.9-0.2c-1.8-1.4-0.7-3.3,0.4-3.6
					c0.2-0.1,0.5-0.1,0.9-0.2c0.3-0.1,0.6-0.2,0.9-0.3l0,0c0.9-0.3,2.1-0.6,3-1c0.7-0.2,1.3-0.4,1.8-0.6c1.6-0.6,4.4,1.1,4.6,2.7
					C307,63.4,306,64.6,305.9,64.7z"/>
				<path class="st3" d="M301.1,65.1c1.3-0.6,3.1-0.7,4.7-0.4c0.9,0.2,1.7,0.4,2.4,0.8c2.4,1.4,1.2,4.3,1.2,4.3l-4.2-1.2l-0.2-0.1
					c0,0-1.8,0.7-3.2,0.6c-1.3-0.1-3.6-1.1-2-3C300,65.7,300.5,65.4,301.1,65.1C301,65.1,301,65.1,301.1,65.1L301.1,65.1L301.1,65.1
					z"/>
				<path class="st32" d="M302,85l0.6,0.3C302.5,85.2,302.3,85.1,302,85L302,85z"/>
				<path class="st33" d="M295.5,61.4c-1.1,0.3-2.2,2.2-0.4,3.6c1.7,1.3,5.4,0.4,5.9,0.2c-0.5,0.2-1,0.6-1.3,1c-1.5,1.9,0.7,2.9,2,3
					s3.2-0.6,3.2-0.6l0.2,0.1l3.3,2.3h-0.1c-1.7-0.4-4.3,1.9-6,5.4c-1.8,3.8-2,7.7-0.4,8.7l-6-2.5l0,0c-1.5-0.8-2.6-1.2-2.6-1.2
					s0-0.1-0.1-0.4c-0.2-0.9-0.7-3.3-1.4-5c-0.8-2.2-3.4-4.4-5.1-4c-1.7,0.3-1.2,1.9-1.2,1.9s1.1,2.4,1.9,4.9c0,0.1,0.1,0.2,0.1,0.3
					L275.1,74l0,0c3.3,1.3,8-2.7,10.6-8.9c2.2-5.4,2.1-10.7-0.2-12.9l5.3,4.5c-0.2,0.1-0.3,0.3-0.4,0.4c-0.7,1.3-0.3,3.1,1.7,3.3
					l3.5,0.3l0.5,0.4C296,61.2,295.8,61.3,295.5,61.4z"/>
				<path class="st3" d="M295.9,60.7l-3.5-0.3c-2.1-0.2-2.5-2-1.7-3.3c0.1-0.2,0.2-0.3,0.4-0.4c1.4-0.9,5-0.9,6.3-0.8
					c1.5,0.1,2.8,0.9,3.2,1.9c0.4,1-0.2,2.2-0.2,2.2c-1,0.3-2.1,0.7-3,1l0,0L295.9,60.7z"/>
				<path class="st3" d="M296,82.5l-8.3-3.4c0-0.1-0.1-0.2-0.1-0.3c-0.9-2.5-1.9-4.9-1.9-4.9s-0.5-1.6,1.2-1.9s4.3,1.9,5.1,4
					c0.6,1.7,1.2,4.1,1.4,5c0,0.2,0.1,0.4,0.1,0.4S294.5,81.8,296,82.5z"/>
				<path class="st33" d="M285.8,52.1c2.2,2.2,2.4,7.5,0.2,12.9c-2.6,6.2-7.3,10.2-10.6,8.9c-3.3-1.3-3.9-7.4-1.3-13.6
					s7.3-10.2,10.6-8.9c0.3,0.1,0.6,0.3,0.8,0.5L285.8,52.1L285.8,52.1z"/>
			</g>
		</g>
		<path class="st34" d="M196.1,300.6c0.2-0.5,1-0.7,2-0.5c0.6,0.2,0.5,2.8,0.4,3s-1.9,0.7-2.1,0.1
			C196.1,302.4,195.9,301.3,196.1,300.6z"/>
		
			<linearGradient id="SVGID_21_" gradientUnits="userSpaceOnUse" x1="223.1344" y1="-1069.3813" x2="220.6284" y2="-1069.9622" gradientTransform="matrix(1 0 1.776987e-02 -1 -9.7468 -767.9)">
			<stop  offset="0" style="stop-color:#D48864"/>
			<stop  offset="1" style="stop-color:#F8AD84;stop-opacity:0"/>
		</linearGradient>
		<path class="st35" d="M194.1,300.4c0,0,0.6,1.7,1.5,2.2l-4,0.8c0,0-0.7-1.7-0.1-2.4C192.1,300.4,192.9,300.3,194.1,300.4z"/>
		
			<linearGradient id="SVGID_22_" gradientUnits="userSpaceOnUse" x1="227.4119" y1="-1067.1698" x2="230.3803" y2="-1066.8591" gradientTransform="matrix(1 0 1.776987e-02 -1 -9.7468 -767.9)">
			<stop  offset="0" style="stop-color:#D48864"/>
			<stop  offset="1" style="stop-color:#F8AD84;stop-opacity:0"/>
		</linearGradient>
		<path class="st36" d="M198.6,301.8c0,0,0-3.6-0.1-4.6c0,0,1-0.7,1.7-0.7s0.9,0.8,0.9,0.8s0.3,1-0.5,2
			C199.8,300.3,198.6,301.8,198.6,301.8z"/>
		
			<linearGradient id="SVGID_23_" gradientUnits="userSpaceOnUse" x1="214.0943" y1="-1058.4177" x2="212.0407" y2="-1057.8427" gradientTransform="matrix(1 0 1.776987e-02 -1 -9.7468 -767.9)">
			<stop  offset="0" style="stop-color:#D48864"/>
			<stop  offset="1" style="stop-color:#F8AD84;stop-opacity:0"/>
		</linearGradient>
		<path class="st37" d="M190.6,283.8c0,0-2.2-0.9-4.5,1.9c-1.6,2-2.8,8.1-3.7,9c-0.9,0.8-1,2.9-1,2.9s2.8-0.6,3.3-1.4
			s-0.3-1.4,0-3.1C184.9,291.3,188.3,283.3,190.6,283.8z"/>
		
			<linearGradient id="SVGID_24_" gradientUnits="userSpaceOnUse" x1="220.6493" y1="-1069.3969" x2="219.6183" y2="-1069.1252" gradientTransform="matrix(1 0 1.776987e-02 -1 -9.7468 -767.9)">
			<stop  offset="0" style="stop-color:#D48864"/>
			<stop  offset="1" style="stop-color:#F8AD84;stop-opacity:0"/>
		</linearGradient>
		<path class="st38" d="M190.8,299.9c0,0,0.3,1.7-0.8,2.3c0,0,1.4-0.3,1.9-0.6c0.6-0.3,0.1-1.1,0.1-1.1S191.4,300.5,190.8,299.9z"/>
		
			<linearGradient id="SVGID_25_" gradientUnits="userSpaceOnUse" x1="252.0959" y1="-912.7447" x2="248.6909" y2="-912.5899" gradientTransform="matrix(1 0 1.776987e-02 -1 -9.7468 -767.9)">
			<stop  offset="0" style="stop-color:#D48864"/>
			<stop  offset="1" style="stop-color:#F8AD84;stop-opacity:0"/>
		</linearGradient>
		<path class="st39" d="M222.3,156.7c3.1-1.7,3.7-4.4,3.7-6c0-1.7-2.4-18.1-2.4-18.1c-0.1,8.3-1.5,22.8-1.5,22.8L222.3,156.7z"/>
		
			<linearGradient id="SVGID_26_" gradientUnits="userSpaceOnUse" x1="220.584" y1="-1058.8512" x2="222.4481" y2="-1060.3486" gradientTransform="matrix(0.9987 -7.206588e-02 -5.434222e-02 -0.9974 29.7138 -958.8009)">
			<stop  offset="0" style="stop-color:#C47958"/>
			<stop  offset="1" style="stop-color:#F8AD84;stop-opacity:0"/>
		</linearGradient>
		<path class="st40" d="M304.5,84.8c0,0,3.1-0.3,4,0.3c0,0,0.1-4,1.1-7.9C309.6,77.2,307.8,83.1,304.5,84.8z"/>
		
			<linearGradient id="SVGID_27_" gradientUnits="userSpaceOnUse" x1="243.7274" y1="-1139.8542" x2="229.8498" y2="-1085.7968" gradientTransform="matrix(0.9987 -7.206588e-02 -5.434222e-02 -0.9974 29.7138 -958.8009)">
			<stop  offset="0" style="stop-color:#C47958"/>
			<stop  offset="1" style="stop-color:#F8AD84;stop-opacity:0"/>
		</linearGradient>
		<path class="st41" d="M315,88.9c0,0,21.5,40.8,23.5,56.9s-3.1,24.8-12.2,22.3c0,0,6,3.3,9.3,3.3c3.4,0,5.5-0.9,6.8-4.8
			c1.3-3.9,1.1-17.7-4.7-32.5C330.5,115.3,315,88.9,315,88.9z"/>
		
			<linearGradient id="SVGID_28_" gradientUnits="userSpaceOnUse" x1="206.5634" y1="-1055.3981" x2="203.8333" y2="-1056.8242" gradientTransform="matrix(0.9987 -7.206588e-02 -5.434222e-02 -0.9974 29.7138 -958.8009)">
			<stop  offset="0" style="stop-color:#C47958"/>
			<stop  offset="1" style="stop-color:#F8AD84;stop-opacity:0"/>
		</linearGradient>
		<path class="st42" d="M285.6,73.3c0,0,1.2-1.2,2.4-0.2c1.2,1,4,8.1,4,8.9s9.6,2.8,9.6,2.8l-8.3-3.5c0,0-0.8-5.4-2.7-7.4
			C289.3,72.4,286.8,70.7,285.6,73.3z"/>
		
			<linearGradient id="SVGID_29_" gradientUnits="userSpaceOnUse" x1="220.8655" y1="-1047.7084" x2="223.0659" y2="-1047.0563" gradientTransform="matrix(0.9987 -7.206588e-02 -5.434222e-02 -0.9974 29.7138 -958.8009)">
			<stop  offset="0" style="stop-color:#C47958"/>
			<stop  offset="1" style="stop-color:#F8AD84;stop-opacity:0"/>
		</linearGradient>
		<path class="st43" d="M304.9,68.5c0,0,2-0.6,2.5-0.9s1.5,2,1.9,2.2s1.5,1.5,1.6,1.6s-1.2,0.2-1.2,0.2L304.9,68.5z"/>
		
			<linearGradient id="SVGID_30_" gradientUnits="userSpaceOnUse" x1="457.0278" y1="-545.2857" x2="465.3403" y2="-540.5488" gradientTransform="matrix(0.9935 9.722666e-02 0.1149 -0.9953 -92.9468 -516.4936)">
			<stop  offset="0" style="stop-color:#C47958"/>
			<stop  offset="1" style="stop-color:#F8AD84;stop-opacity:0"/>
		</linearGradient>
		<path class="st44" d="M305.9,64.8c0.9,0.2,1.7,0.5,2.3,0.9c2.4,1.5,1.2,4.3,1.2,4.3l-4.2-1.3l-0.2-0.1c0,0-1.8,0.7-3.2,0.6
			c-1.3-0.1-3.6-1.1-2-3c0.3-0.4,0.8-0.7,1.3-1l0,0h0.1l0,0C302.5,64.6,304.3,64.5,305.9,64.8z"/>
		
			<linearGradient id="SVGID_31_" gradientUnits="userSpaceOnUse" x1="454.0517" y1="-540.0631" x2="462.3644" y2="-535.3262" gradientTransform="matrix(0.9935 9.722666e-02 0.1149 -0.9953 -92.9468 -516.4936)">
			<stop  offset="0" style="stop-color:#C47958"/>
			<stop  offset="1" style="stop-color:#F8AD84;stop-opacity:0"/>
		</linearGradient>
		<path class="st45" d="M306.9,62c0.2,1.5-0.9,2.6-1,2.8c-1.6-0.3-3.4-0.2-4.7,0.4l0,0l0,0c-0.5,0.1-4.2,1-5.9-0.3
			c-1.8-1.4-0.7-3.3,0.4-3.6c0.2-0.1,0.5-0.1,0.9-0.2c0.3-0.1,0.6-0.2,0.9-0.3l0,0c0.9-0.3,2.1-0.6,3-0.9c0.7-0.2,1.3-0.4,1.8-0.6
			C303.9,58.7,306.6,60.4,306.9,62z"/>
		
			<linearGradient id="SVGID_32_" gradientUnits="userSpaceOnUse" x1="450.8036" y1="-534.4791" x2="459.1162" y2="-529.742" gradientTransform="matrix(0.9935 9.722666e-02 0.1149 -0.9953 -92.9468 -516.4936)">
			<stop  offset="0" style="stop-color:#C47958"/>
			<stop  offset="1" style="stop-color:#F8AD84;stop-opacity:0"/>
		</linearGradient>
		<path class="st46" d="M300.6,57.7c0.4,1-0.3,2.2-0.3,2.2c-1,0.3-2.1,0.7-3,0.9l0,0l-1.4-0.1l-3.5-0.3c-2.1-0.2-2.5-2-1.7-3.3
			c0.1-0.2,0.2-0.3,0.4-0.4c1.4-0.9,5-0.9,6.4-0.8C299,56,300.3,56.8,300.6,57.7z"/>
		<path class="st34" d="M288.4,74.5c0,0.5-0.7,1-1.6,1.1c-0.5,0.1-1.3-2.2-1.4-2.5c0-0.2,1.5-1.2,1.8-0.8
			C287.6,72.9,288.4,73.9,288.4,74.5z"/>
		<path class="st34" d="M294.3,62c0,0,1.8-0.5,2.7-0.7c0.9-0.2,1.5,1.2,1.5,1.6s-2.8,1.2-3.2,1.1C294.8,63.9,293.6,62.3,294.3,62z"
			/>
		<path class="st34" d="M301.6,65.7c0,0-2,0.3-2.5,0.9s0.3,1.8,0.7,2s2.7-0.6,3.2-0.9S302.6,65.4,301.6,65.7z"/>
		<path class="st34" d="M290.3,57.1c0.3,0,1.5-0.3,2.7-0.2s1.2,1.9,0.8,2.2c-0.5,0.3-3.4,0.5-3.5,0.4
			C290.1,59.3,290,57.4,290.3,57.1z"/>
		
			<linearGradient id="SVGID_33_" gradientUnits="userSpaceOnUse" x1="298.3084" y1="-802.9313" x2="267.6319" y2="-815.8956" gradientTransform="matrix(1 0 1.776987e-02 -1 -9.7468 -767.9)">
			<stop  offset="0" style="stop-color:#D48864"/>
			<stop  offset="1" style="stop-color:#F8AD84;stop-opacity:0"/>
		</linearGradient>
		<path class="st47" d="M242,26.4c0,0,2,6.7,8.1,8.8c6.1,2.1,1.8,5.4,12.1,9.2c0,0,3.3,2.2,4.5,3.3c4.9,4.4,6.7,7.8,9,9.1l2.9-3.5
			c0,0-1.8-9.7-3.2-11.6l-18.8-11C256.8,30.8,242.4,23.9,242,26.4z"/>
		<path class="st1" d="M229.6,56.1c0,0-2.2-13.6,2.5-21.2c3.6-5.9,10.2-10.7,10.2-10.7s2.4,9.8,16,8.7c0,0,4.3,10.7,22.5,7.3
			c21.1-4,6.6-22.4,3.1-25.9c-7.6-7.8-26.5-16.3-40.4-8.4s-12.2,10.6-12.2,10.6s-15.8,1.3-19.8,18.9S229.6,56.1,229.6,56.1z"/>
		<g>
			<path class="st48" d="M229.1,54.4c-0.4-3-0.5-6.1-0.2-9.2c0.2-3.1,0.8-6.1,2-9.1c0.6-1.5,1.3-2.9,2.3-4.1c0.5-0.6,1-1.2,1.6-1.8
				c0.3-0.3,0.6-0.5,0.9-0.8l0.8-0.7c2.2-2,4.2-4.3,5.2-7c0.2-0.6,0.4-1.3,0.5-1.9c0-0.3,0-0.6-0.1-0.8c0-0.1-0.1-0.2-0.1-0.3
				c0,0,0-0.1-0.1-0.1l-0.1-0.1c-0.4-0.4-0.9-0.7-1.4-0.8c-0.2-0.1-0.4,0-0.4,0s0.1-0.1,0.1,0c-0.1,0.7,0.7,2.3,1.3,3.6
				c0.7,1.3,1.4,2.6,2.3,3.7c1.7,2.3,3.8,4.3,6.3,5.2c2.6,1,5.6,1.3,8.4,1.3h0.9l0.5,0.8c0.4,0.7,1,1.6,1.7,2.3
				c0.6,0.7,1.3,1.4,2.1,2c1.5,1.2,3.1,2.2,4.9,2.7c0.9,0.3,1.8,0.5,2.8,0.5c0.5,0.1,1,0.1,1.5,0.1s1,0,1.5,0c2-0.1,4-0.4,5.9-0.9
				s3.8-1.3,5.6-2.2c0.1-0.2,0.1-0.3,0.1-0.3s0-0.1-0.3-0.1c-0.2,0-0.7,0.2-0.9,0.4c-0.2,0.2-0.4,0.5-0.5,0.9
				c-0.1,0.8,0.1,1.8,0.6,2.6s1.1,1.6,1.9,2.2c1.6,1.3,3.6,2,5.6,2.4c-2.1-0.1-4.2-0.6-6.1-1.8c-0.9-0.6-1.8-1.3-2.4-2.3
				c-0.6-0.9-1.1-2-1.1-3.3c0-0.6,0.2-1.3,0.8-1.9c0.5-0.5,1-0.8,1.8-1c0.4-0.1,0.9,0,1.3,0.2s0.8,0.7,0.9,1.2s0,1-0.2,1.4
				s-0.6,0.7-0.9,0.9c-1.9,1.2-3.8,2-5.9,2.7s-4.2,1.2-6.4,1.3c-0.5,0-1.1,0.1-1.6,0.1c-0.6,0-1.1,0-1.7,0c-1.1,0-2.3-0.2-3.4-0.5
				c-2.2-0.6-4.3-1.7-6-3.2c-0.9-0.7-1.7-1.5-2.4-2.3c-0.8-0.9-1.4-1.7-2-2.8l1.4,0.8c-1.7,0.1-3.3,0-4.9-0.3
				c-1.6-0.2-3.2-0.6-4.7-1.2c-1.6-0.6-3.1-1.6-4.3-2.7c-1.3-1.1-2.3-2.4-3.2-3.7c-0.9-1.3-1.7-2.7-2.4-4.2
				c-0.3-0.7-0.6-1.4-0.9-2.2c-0.1-0.4-0.3-0.8-0.4-1.3c-0.1-0.5-0.1-1,0-1.6c0.1-0.3,0.2-0.7,0.4-1c0.2-0.3,0.6-0.6,1-0.8
				c0.7-0.3,1.3-0.2,1.9-0.1c1,0.3,1.8,0.8,2.5,1.5c0.1,0.1,0.2,0.2,0.2,0.3c0.1,0.1,0.2,0.3,0.2,0.4c0.1,0.3,0.2,0.5,0.3,0.8
				c0.1,0.5,0.1,1,0.1,1.5c-0.1,0.9-0.4,1.7-0.7,2.5c-1.4,3-3.6,5.3-6.1,7.3l-0.9,0.9c-0.3,0.2-0.6,0.5-0.8,0.7
				c-0.5,0.5-1,1-1.5,1.6c-0.9,1.1-1.7,2.4-2.3,3.8c-1.2,2.7-2,5.7-2.4,8.7C229.1,48.3,228.9,51.3,229.1,54.4z"/>
		</g>
		<path class="st49" d="M241.5,51c-0.2,0.4,0.2-6,4.3-9.1c3.5-2.6,6-2.2,6.3-1.5s0.9,1.5-1.1,2.1c-2,0.7-3.6,1.2-5.1,2.2
			C243.4,46.5,242,49.8,241.5,51z"/>
		<path class="st49" d="M255.9,51.1c0,0-1.7,3.8-4.7,4.7c-3,1-6.3-0.5-7.1-1s3.8,0.2,6.4-0.8S256.4,50.2,255.9,51.1z"/>
		<path class="st49" d="M266.8,47c0,0,2.5,2,4.7,1.1s3.6-3.9,3.8-4.7c0.3-0.8-2.2,2.2-4.1,2.9C269.3,46.9,266.3,46.5,266.8,47z"/>
		<path class="st50" d="M267.3,59.6c0,0,1.3,0.7,2.7,0.1c1.5-0.6,2.5-2.3,2.7-3c0.3-0.6,1.7,2.4-0.2,4.3c-1.9,1.9-4.3,0.4-4.8-0.6
			S267.3,59.6,267.3,59.6z"/>
		<path class="st51" d="M247.3,60.3c0.3,0.5,0.2,1.2-0.3,1.6c-0.5,0.3-1.2,0.2-1.5-0.4c-0.3-0.5-0.2-1.2,0.3-1.6
			C246.3,59.6,246.9,59.8,247.3,60.3z"/>
		<path class="st51" d="M251.8,62.3c0.1,0.4,0,0.8-0.4,0.9s-0.8,0-0.9-0.4s0-0.8,0.4-0.9C251.3,61.8,251.6,62,251.8,62.3z"/>
		<path class="st51" d="M255.6,58.5c0.2,0.4,0,0.9-0.5,1.1c-0.4,0.2-0.9,0-1-0.4c-0.2-0.4,0-0.9,0.5-1.1S255.5,58.1,255.6,58.5z"/>
		<path class="st51" d="M260,54.5c0.2,0.4,0,0.9-0.5,1.1s-0.9,0-1-0.4c-0.2-0.4,0-0.9,0.5-1.1S259.9,54.1,260,54.5z"/>
		<path class="st52" d="M220.8,116.4c0,0,6.5,16.3,8.3,22.6c2.7,9.5,4.3,16.3,5.8,24.5c1.1,6.3,6,11.9,15.1,12.2
			c7.2,0.2,17.7-4.2,17.1-2.7c-0.5,1.5-10.9,6.8-21.2,5.5s-13.6-9.5-14.7-16.5c-0.7-5-1.6-10.3-2.5-13.9
			C226.9,140,223.4,125.2,220.8,116.4z"/>
		<path class="st53" d="M227.4,114.8c3.5,5.9,12.2,31.5,12.2,31.5c9-1.1,28.5,4.2,28.5,4.2c4.7-6.5,16.5-11.6,16.5-11.6v-1.1
			c-2-11-10.3-29.9-10.3-29.9l2-0.3c4.4,5.8,11.6,32.9,11.6,32.9c-9.3,2.9-19.2,13.1-19.2,13.1c-17.9-5.7-31.3-4.5-31.3-4.5
			c-2.2-11.2-12-34-12-34L227.4,114.8z"/>
		<path class="st53" d="M233.8,193.1l0.6,2.6c0,0,8.6,3,21.9,2.7c14.5-0.3,28.6-2.6,33.8-6.7v-3c0,0-11,5.7-29.1,6.5
			C249.9,195.6,243.6,195.1,233.8,193.1z"/>
		<path class="st54" d="M227.9,57c-2.1-0.6-3.8-0.4-4.3,1.9c-0.6,2.8,1.2,3.6,2,3.1s0.8-3,3.1-1.6s2.8,4.7,2.8,4.7
			S230.4,57.8,227.9,57z"/>
		
			<linearGradient id="SVGID_34_" gradientUnits="userSpaceOnUse" x1="276.5419" y1="-814.509" x2="258.5668" y2="-818.6494" gradientTransform="matrix(1 0 1.776987e-02 -1 -9.7468 -767.9)">
			<stop  offset="0" style="stop-color:#D48864"/>
			<stop  offset="1" style="stop-color:#F8AD84;stop-opacity:0"/>
		</linearGradient>
		<path class="st55" d="M242.4,53.3c-0.3,0.4,0.2-4.6,1.6-6.8c1.8-2.7,7.3-4.7,8-4s2.9,2.7,2,3.5C253.1,46.9,247.3,46.9,242.4,53.3z
			"/>
		<ellipse class="st51" cx="268.3" cy="50.5" rx="0.3" ry="0.3"/>
		<path class="st51" d="M271.3,52.3c0.1,0.3,0,0.6-0.2,0.7c-0.2,0.1-0.6,0-0.7-0.3s0-0.6,0.2-0.7C270.8,51.9,271.1,52,271.3,52.3z"
			/>
		<path class="st51" d="M274.9,51.2c0.1,0.3,0,0.6-0.2,0.7c-0.3,0.1-0.6,0-0.7-0.3s0-0.6,0.2-0.7S274.6,51,274.9,51.2z"/>
		
			<ellipse transform="matrix(0.9046 -0.4263 0.4263 0.9046 4.0097 123.1882)" class="st51" cx="277.2" cy="52.6" rx="0.4" ry="0.5"/>
		<path class="st56" d="M221.8,226.2c0,0,14.2,10.3,45.3,9c28.2-1.1,33.8-6.4,33.8-6.4l1.6,4.3c0,0-10.5,5.7-35.4,6.8
			s-39.7-4.1-47.8-9.2"/>
		<path class="st0" d="M280.3,75.5c0,0,1.1-11.4-1.6-22.1"/>
		<path class="st57" d="M231.3,15.9c0,0,11.4-17,32.4-12.3s34.1,24.7,26,32.7"/>
		
			<linearGradient id="SVGID_35_" gradientUnits="userSpaceOnUse" x1="270.2054" y1="-1153.5087" x2="261.0936" y2="-1187.5535" gradientTransform="matrix(1 0 1.776987e-02 -1 -9.7468 -767.9)">
			<stop  offset="0" style="stop-color:#571B57"/>
			<stop  offset="1" style="stop-color:#701862;stop-opacity:0"/>
		</linearGradient>
		<path class="st58" d="M224.1,374.3c0,0,6,20.2,16.8,18.7c8.2-1.1,8.3-7.1,10.5-12.7c0,0-1.2,9.9-1.5,10.8s0.6,21.1,0.6,24.2
			s-15.2,14.8-22.3,0.2C222.4,403.6,225.4,377.9,224.1,374.3z"/>
		
			<linearGradient id="SVGID_36_" gradientUnits="userSpaceOnUse" x1="297.2773" y1="-1040.422" x2="324.2829" y2="-1123.9563" gradientTransform="matrix(1 0 1.776987e-02 -1 -9.7468 -767.9)">
			<stop  offset="0" style="stop-color:#4D2469"/>
			<stop  offset="1" style="stop-color:#701862;stop-opacity:0"/>
		</linearGradient>
		<path class="st59" d="M290.1,338.3c-6.8-16.6-11.4-39.6-11.3-47.6s4.2-28.7,2.3-26.9c-6.6,6.4-13.9,11.1-13.9,11.1
			s-4.6-3.5-11.5-6s0,2.4,1.4,3.8c1.5,1.5,4.4,3.3,5.5,12.9c0.4,3.4,1,13.3,1.2,12.7l0.5-12.8c6.9,30.3,23.7,69.5,24.2,70.4
			C289.3,356.8,297,354.8,290.1,338.3z"/>
		<path class="st60" d="M272.6,70.3c0,0,1.5-1.1,3.4-0.2s4.8,2.2,6.1,2c1.3-0.3,6.5-1.2,9.6,0.8s4.1,0.8,7.6,1.2h2.9
			c0,0-4.1,7.1-1.9,10.3l-7-3c0,0-0.9-5.6-2.7-7.4c-1.8-1.8-2.7-1.9-3.5-2c-0.7-0.1-1.2,0.4-1.3,0.5s-0.6,0.5-0.6,0.5
			s0.4,1.5,0.8,2.1l0.5,1.2l1.1,2.9l-12.9-5.4C275,73.8,273.1,72.8,272.6,70.3z"/>
		
			<linearGradient id="SVGID_37_" gradientUnits="userSpaceOnUse" x1="311.6168" y1="-822.9459" x2="307.2904" y2="-837.2512" gradientTransform="matrix(1 0 1.776987e-02 -1 -9.7468 -767.9)">
			<stop  offset="0" style="stop-color:#DEF5FC"/>
			<stop  offset="1" style="stop-color:#B0DBEA;stop-opacity:0"/>
		</linearGradient>
		<path class="st61" d="M273,67.6c0,0,1-7.2,4.1-11s5.6-5,7.3-4.5c1.7,0.5,5.5,4.3,5.5,4.3s-0.5,7,3.2,10.8
			C296.9,71,279.4,71,273,67.6z"/>
		
			<linearGradient id="SVGID_38_" gradientUnits="userSpaceOnUse" x1="305.3023" y1="-843.9218" x2="306.5578" y2="-840.417" gradientTransform="matrix(1 0 1.776987e-02 -1 -9.7468 -767.9)">
			<stop  offset="0.2135" style="stop-color:#4A8CB8"/>
			<stop  offset="1" style="stop-color:#B0DBEA;stop-opacity:0"/>
		</linearGradient>
		<path class="st62" d="M287.4,78.4c0,0-12.3-5.2-12.7-5.7c-0.4-0.4-0.8-1.9,0.5-1.5c1.4,0.4,5.4,2.9,6.5,2.4s3.7-0.4,3.7-0.4
			s0.7,1.7,1,2.1c0.2,0.4,1.2,3,1.2,3L287.4,78.4L287.4,78.4z"/>
		
			<linearGradient id="SVGID_39_" gradientUnits="userSpaceOnUse" x1="319.0945" y1="-849.3299" x2="320.1407" y2="-842.0067" gradientTransform="matrix(1 0 1.776987e-02 -1 -9.7468 -767.9)">
			<stop  offset="0.2135" style="stop-color:#4A8CB8"/>
			<stop  offset="1" style="stop-color:#B0DBEA;stop-opacity:0"/>
		</linearGradient>
		<path class="st63" d="M289.9,73.2c0,0,1.8,0.1,3,1.1c1.2,0.9,6,1.1,7.2,0.8c1.2-0.3,0.7,1.2,0,2.7s-1,4.8-0.5,5.6l-6.2-2.6
			C293.4,80.8,292.5,75,289.9,73.2z"/>
		<g id="XMLID_222_">
			<g>
				<path class="st56" d="M247.8,447.9l-0.4,4.6c0,0-10.4,4.9-20.8,0.3l-0.4-3.9C226.1,448.9,238.6,453.3,247.8,447.9z"/>
			</g>
		</g>
		<g id="XMLID_221_">
			<g>
				<path class="st56" d="M322.4,442.1l-0.1,4.7c0,0-8.5,5.5-20.6,1.5l-1-4.7C300.6,443.6,312.5,448,322.4,442.1z"/>
			</g>
		</g>
		<g id="XMLID_11_">
			<g>
				<path class="st64" d="M245.6,522c0,1.9,1.7,5.2,3.1,8.8c0,0,0.4,5.1-1.2,6.8c0.6-2.4-0.2-7.4-1-9S245.6,522.8,245.6,522z"/>
				<path class="st64" d="M246,510.9v-0.3c0,0,0.8-0.8,1.5,0.2c0.7,1.1-1.8,11.2-1.8,11.2c0.2-4.2,0.3-8.9,0.3-10.8
					C245.9,511.1,246,511,246,510.9z"/>
				<path class="st64" d="M242.4,516l-6.2-0.2c-0.6,0-1-0.5-1-1l0.2-4c0-0.6,0.5-1,1-1l6.2,0.2c0.9,0,1,0.5,1,1l-0.2,4
					C243.4,515.6,242.9,516,242.4,516z"/>
				<path class="st65" d="M246,510.9c-0.2-1-1.1-1.8-2.5-2.5h-0.1c-3.5-1.4-9.3-1.3-10.4,2.5c0,0,0.5,14.3,0.9,15.8
					c0.5,1.4,4.6,1.9,7.2,1.7s3-1.7,3-1.7l1.4-11.3h-0.1L246,510.9z M242.4,516l-6.2-0.2c-0.6,0-1-0.4-1-1l0.2-4c0-0.6,0.4-1,1-1
					l6.2,0.2h0.2c0.6,0,0.8,0.3,0.8,0.9l-0.3,4.2l0,0C243.3,515.8,242.9,516,242.4,516z"/>
				
					<linearGradient id="SVGID_40_" gradientUnits="userSpaceOnUse" x1="239.6279" y1="2435.7117" x2="238.5924" y2="2419.8406" gradientTransform="matrix(1 0 0 1 0 -1895.375)">
					<stop  offset="0" style="stop-color:#851C73"/>
					<stop  offset="1" style="stop-color:#582978"/>
				</linearGradient>
				<path class="st66" d="M231.1,528.8c1-3.2,0.4-7.5,0.4-7.9c0.8-4.8,1.3-8.6,1.3-8.6c0-0.5,0.1-1,0.2-1.5l0,0c0,0,0.6,14.3,1,15.8
					s4.3,2,7,1.7c2.6-0.2,3-1.7,3-1.7l1.4-11.3l0.6-4.3c0,0.1,0,0.2,0,0.3c0.1,1.9-0.1,6.7-0.3,10.8c0,0,0,0,0,0.1
					c0,0.7-0.1,4.8,0.8,6.5c0.8,1.7,1.7,6.2,1,9l-0.1,0.1c-1.9,2.2-3.9,3.5-7.5,3.5c-0.8,0-1.9-0.1-2.9-0.2c-3.1-0.4-4.8-2.3-6-4.2
					l-0.1-0.2C230.9,534.8,230.4,531,231.1,528.8z"/>
				<path class="st64" d="M231.6,520.8c0.1,0.4,0.6,4.7-0.4,7.9c-0.7,2.3-0.3,5.9,0,8.1c-1.3-2.2-1.7-4.5-1.7-4.8l0,0
					c0.7-3.2,1.4-6.8,1.9-10.1C231.4,521.6,231.4,521.3,231.6,520.8z"/>
				<path class="st65" d="M248.8,531c0,0,0.3,5-1.2,6.7c-1.9,2.1-4,3.6-7.6,3.6c-0.8,0-1.7-0.1-2.6-0.2c-3.1-0.5-5-2.3-6.2-4.2
					c-1.3-2.2-1.7-4.5-1.7-4.8c-0.3,1.7-0.7,3.3-1.1,4.7c0,1.1,0.3,6.4,4.6,8.3c4.4,2,4.3,1.2,4.4-0.9c0-1.2,1.3-1.6,2.7-1.6
					c1.2,0,2.6,0.4,2.9,1.1c0.7,1.6-0.1,2.3,0.5,2.6s7.1-0.9,7.5-8.7C250.4,535.3,249.5,533,248.8,531z"/>
				<path class="st64" d="M232.9,512.3c0,0-0.5,3.8-1.3,8.6c-0.1,0.4-0.1,0.7-0.2,1.1c0,0-0.6-8.4-0.5-10.5c0.1-2.1,1.9-1.8,2.2-0.6
					C232.9,511.3,232.9,511.8,232.9,512.3z"/>
				<path class="st67" d="M227.8,539.5c0-0.6,0.2-1.2,0.3-1.8c0.1-0.3,0.2-0.6,0.3-0.9c0,1.1,0.3,6.3,4.6,8.3c4.4,2,4.3,1.3,4.4-0.9
					c0-1.1,1.4-1.6,2.7-1.6c1.2,0,2.6,0.4,2.9,1.1c0.7,1.6-0.1,2.3,0.5,2.6c0.6,0.2,7-0.8,7.4-8.6c0.2,0.6,0.3,1.3,0.4,1.9
					c0.2,5.9-2.7,8.7-5.9,9.9s-8.7,0.8-13-1.9C228.4,544.8,227.8,539.8,227.8,539.5L227.8,539.5z"/>
				<path class="st68" d="M240.4,550.6c-6.3,0-13.1-5-12.6-11.2c0,0.3,0.6,5.4,4.7,8c4.2,2.7,9.8,3.1,13,1.9c3.2-1.2,6-3.9,5.8-9.8
					c0.2,1.6,0.4,3,0.1,4.5C250.5,547.5,246.9,550.6,240.4,550.6z"/>
			</g>
		</g>
		<path class="st69" d="M245.6,514c-3.3,3.1-14.1,2.1-14.1,2.1s3.8,4.4,13.7,4.8c0,0-7,3.6-13.7,3.3c0,0,8.5,4.2,14,3.9
			c0,0-7.5,2.4-13.5-0.1c0,0,10.8-1,13.1-3.7c0,0-8.7-0.7-13.5-3.7c0,0,12.6-1.2,14.2-3.9c0,0-8.8-0.6-13.4-2.8"/>
	</g>
	<g>
		<g id="XMLID_10_">
			<g>
				<path class="st68" d="M305,524.8c-0.4,2.5,2,4.2,4.8,5c3.1,0.8,6.3,4.8,7.6,6.5c2.5,3.1,8.7,7.4,16.7,7.4c8.2,0.1,14-2.5,14.7-5
					c-0.1,0.2-0.9,2-4.8,3.3l0,0c-1.9,0.7-6.5,1.4-10.7,1.2c-5.2-0.2-11.3-3.1-13.8-5.6s-4.5-5.8-6.9-7.1c-2.4-1.4-4.2-1.4-5.7-2.4
					C305.5,527,305,525.8,305,524.8z"/>
				<path class="st70" d="M305.1,524.1c-0.1,0.3-0.2,0.5-0.2,0.7c0,1,0.4,2.2,1.9,3.2s3.3,1.1,5.7,2.4c2.4,1.3,4.4,4.6,6.9,7.1
					s8.6,5.4,13.8,5.6c4.2,0.2,8.8-0.5,10.7-1.2l0,0c0.5-0.2,0.8-0.3,0.9-0.4c0.3-0.3,0.2-1.1-0.1-1.9c-2.7,0.9-7,1.2-13.8,0.1
					c0,0-7.3-2.7-9.5-5.5c-0.8-1-2.3-2.4-4-4c-3-2.7-6.7-5.6-8.6-6.6c-1.3-0.6-1.7-2-1.7-3.3C307,521.1,305.8,522.3,305.1,524.1z"/>
				<path class="st64" d="M309,511.9L309,511.9c0,0-0.5,3.1,3.5,6.9c3.9,3.9,6.5,7.4,5.3,11.2c2-1.4,4.6-0.9,6.9,0.2
					c-0.1-0.3-1.1-5.6-4.4-8.5c-3.3-3-10.6-7.5-10.5-11.9l0,0C309.5,510.5,309.3,511.3,309,511.9z"/>
				<path class="st25" d="M334.9,523.5c-3.1,1.6-7.7,2.4-7.7,2.4s0.3-1.4,0.3-1.7s-2.9-6.2-5-10.5c0,0-1.7-2.5-2.9-3.1
					c-1.4-0.8-3.3,0.4-5.1,1.2c-1.1,0.5-2.4,0.2-3.3-1c-0.5-0.6-0.4-2.4-0.1-3.5c-0.5,0.8-0.9,1.6-1.2,2.5l0,0
					c-0.2,4.4,7.1,8.9,10.5,11.9c3.2,2.9,4.3,8.2,4.4,8.5l0,0c1.7,0.8,3.3,1.9,4.7,2.8c3.2,2,12.2,2,14.6,0.9s0.4-3.6,0.4-3.6
					c-2.8-2.6-6.3-5.4-7.9-6.7c-0.2-0.1-0.4-0.3-0.5-0.5C335.5,523.3,335.3,523.3,334.9,523.5z"/>
				<path class="st64" d="M311,507.4c-0.3,1.1-0.3,2.9,0.1,3.5c0.9,1.2,2.2,1.5,3.3,1c1.8-0.8,3.7-2,5.1-1.2
					c1.2,0.6,2.9,3.1,2.9,3.1c-0.3-0.7-0.6-1.3-0.9-1.9c-0.2-0.4-0.4-0.8-0.6-1.1c-1.1-1.5-2.5-2-4.3-1.2c-2.3,1.1-3.3,1.7-4.2,1
					c-1.2-1.1-0.4-2-0.6-3.1C311.9,506.8,311.4,506.8,311,507.4z"/>
				<path class="st65" d="M318,530c-0.2,0.1-0.5,0.2-0.6,0.3c1.7,1.5,3.5,3.3,4.3,4.3c2.2,2.7,9.4,5.2,9.4,5.2
					c6.8,1,11.1,0.8,13.8-0.1c-0.3-1-0.7-2.1-0.7-2.7c0-1.2,2-2.7,2.9-1.5c0.4,0.5,0.9,1.3,1.2,2c0.5-0.7,0.6-1.4,0.5-2
					c0-0.1,0-0.2-0.1-0.3l0,0c-0.4-1.1-2.1-2.9-4.2-4.8c0,0,1.9,2.6-0.4,3.6c-2.4,1.1-11.3,1.1-14.6-0.9c-1.3-0.9-3-2-4.7-2.8l0,0
					C322.5,529,320,528.5,318,530z"/>
				<path class="st65" d="M321,510.6l-0.2,0.1c0.2,0.3,0.4,0.7,0.6,1.1c0.3,0.6,0.6,1.2,0.9,1.9c2.1,4.3,5,10.2,5,10.5
					c0,0.4-0.3,1.7-0.3,1.7s4.6-0.8,7.7-2.4c-2.5-3.4-7.1-13.8-7.1-13.8s-0.5-0.8,0-1.1c-0.2-0.5-0.4-1.2-0.7-1.5
					c-0.6-0.5-2.2-0.5-4,0.4c-1.7,0.8-2.3,1.5-2.3,2C320.8,510,321,510.6,321,510.6z M322.1,510c-0.1-0.4,0.1-0.7,0.4-0.9l3.3-1.7
					c0.3-0.2,0.7,0,0.8,0.4l1.1,3c0.1,0.4,0,0.7-0.3,0.9l-3.4,1.7c-0.3,0.2-0.7,0-0.8-0.4L322.1,510z"/>
				<path class="st64" d="M322.5,509.1c-0.3,0.2-0.5,0.6-0.3,1l1.1,3c0.1,0.4,0.5,0.5,0.8,0.4l3.4-1.7c0.3-0.2,0.5-0.6,0.3-1l-1.1-3
					c-0.1-0.4-0.4-0.6-0.8-0.4L322.5,509.1z"/>
				<path class="st64" d="M327.5,508.6c-0.4,0.3,0,1.1,0,1.1s4.7,10.4,7.1,13.8c0.4-0.2,0.7-0.4,1-0.6c-2.9-3.2-6.9-13.9-6.9-13.9
					s-0.2-0.8-1-0.6C327.6,508.5,327.5,508.6,327.5,508.6z"/>
				<path class="st70" d="M344.1,537c0,0.6,0.4,1.7,0.7,2.7c1.8-0.6,2.8-1.4,3.4-2.3c-0.3-0.7-0.7-1.5-1.2-2
					C346,534.3,344.1,535.8,344.1,537z"/>
				<path class="st70" d="M344.9,541.5c-0.1,0.1-0.4,0.3-0.9,0.4c3.9-1.3,4.7-3,4.8-3.3l0,0c0,0-0.2-0.6-0.6-1.4
					c-0.5,0.9-1.6,1.7-3.4,2.3C345,540.5,345.1,541.3,344.9,541.5z"/>
				<path class="st70" d="M348.1,537.3c0.4,0.8,0.6,1.4,0.6,1.4c0.6-2.3-0.1-3.5-0.2-3.7c0.1,0.1,0.1,0.2,0.1,0.3
					C348.8,536,348.6,536.6,348.1,537.3z"/>
			</g>
		</g>
		
			<linearGradient id="SVGID_41_" gradientUnits="userSpaceOnUse" x1="-6312.397" y1="2344.875" x2="-6274.814" y2="2321.8096" gradientTransform="matrix(-0.9992 -3.971336e-02 -3.971336e-02 0.9992 -5880.062 -2058.7456)">
			<stop  offset="0" style="stop-color:#851C73"/>
			<stop  offset="1" style="stop-color:#582978"/>
		</linearGradient>
		<path class="st71" d="M317.5,530.3c0,0-6.4-5.4-7.5-5.9s-2.1-1.1-2.4-1.9c-0.3-0.8-0.8-2.4-0.3-4.5s1.9-6.2,1.9-6.2
			s-0.1,1.8,0.8,3.7c0.9,1.8,3.5,4,4.8,5.7c1.4,1.7,2.2,2.7,2.8,4c0.6,1.4,0.8,2.5,0.6,3.6c-0.2,1-0.3,1.3-0.3,1.3L317.5,530.3z"/>
		
			<linearGradient id="SVGID_42_" gradientUnits="userSpaceOnUse" x1="-6284.4849" y1="2337.4531" x2="-6326.0137" y2="2354.3484" gradientTransform="matrix(-0.9992 -3.971336e-02 -3.971336e-02 0.9992 -5880.062 -2058.7456)">
			<stop  offset="0.1108" style="stop-color:#BFC4CC"/>
			<stop  offset="1" style="stop-color:#FFFFFF;stop-opacity:0"/>
		</linearGradient>
		<path class="st72" d="M305.1,524c-0.1,0.2-0.1,0.5-0.2,0.7c0,1.1,0.4,2.2,1.9,3.3c1.5,1,3.3,1.1,5.7,2.4c2.4,1.3,4.4,4.6,6.9,7.1
			s8.6,5.4,13.8,5.6c4.2,0.2,8.7-0.5,10.7-1.2l0,0c0.4-0.2,0.8-0.3,0.9-0.4c0.3-0.3,0.2-1.1-0.1-1.9c-2.7,0.9-7,1.1-13.8,0.1
			c0,0-7.3-2.7-9.5-5.5c-0.8-1-2.3-2.4-4-4c-3-2.7-6.7-5.6-8.6-6.6c-1.2-0.6-1.7-1.9-1.7-3.3C306.9,521.1,305.8,522.3,305.1,524z"/>
		
			<linearGradient id="SVGID_43_" gradientUnits="userSpaceOnUse" x1="-6314.313" y1="2339.6167" x2="-6277.9355" y2="2317.2913" gradientTransform="matrix(-0.9992 -3.971336e-02 -3.971336e-02 0.9992 -5880.062 -2058.7456)">
			<stop  offset="0" style="stop-color:#851C73"/>
			<stop  offset="1" style="stop-color:#582978"/>
		</linearGradient>
		<path class="st73" d="M334.9,523.5c-3.1,1.6-7.7,2.4-7.7,2.4s0.3-1.4,0.3-1.7s-2.9-6.2-5-10.5l0,0c-0.2-0.3-1.7-2.5-2.8-3.1
			c-1.4-0.7-3.3,0.4-5.1,1.2c-1.1,0.5-2.4,0.2-3.3-1c-0.5-0.7-0.5-2.5-0.1-3.6c-0.5,0.9-0.8,1.6-1.2,2.6l0,0
			c-0.2,4.4,7.1,8.9,10.5,11.8c3.3,3,4.4,8.5,4.4,8.5c1.7,0.8,3.3,1.9,4.7,2.8c3.2,2,12.2,2,14.6,0.9c2.3-1,0.6-3.4,0.5-3.6l0,0
			c-2.8-2.6-6.3-5.4-7.9-6.7c-0.2-0.1-0.4-0.3-0.5-0.5C335.5,523.3,335.3,523.5,334.9,523.5z"/>
		<path class="st69" d="M329.6,510.8c0,0-1.5,4.4-6.2,6.4c0,0,5.8,0.5,8.9-0.5c0,0-1.8,3.8-6.6,5.4c0,0,8.3,1,10,0.8
			c0,0-5,2.5-8.9,2c0,0,6.3-2.6,7.5-4.9c0,0-5.6,0.5-9.4-0.4c0,0,5.7-2.8,6-5.7c0,0-5.2,0.9-8.5,0.8"/>
	</g>
</g>
<rect class="st0" width="525" height="553"/>
</svg>
