<?xml version="1.0" encoding="utf-8"?>
<!-- Generator: Adobe Illustrator 22.0.1, SVG Export Plug-In . SVG Version: 6.00 Build 0)  -->
<svg version="1.1" id="Layer_2_1_" xmlns="http://www.w3.org/2000/svg" xmlns:xlink="http://www.w3.org/1999/xlink" x="0px" y="0px"
	 viewBox="0 0 525 542" style="enable-background:new 0 0 525 542;" xml:space="preserve">
<style type="text/css">
	.st0{fill:#EAAE57;}
	.st1{fill:#D39037;}
	.st2{fill:#B2C472;}
	.st3{fill:#DAF291;}
	.st4{opacity:0.74;fill:url(#SVGID_1_);enable-background:new    ;}
	.st5{fill:#62CCAB;}
	.st6{fill:#FFFFFF;}
	.st7{fill:url(#SVGID_2_);}
	.st8{fill:#44A589;}
	.st9{opacity:0.62;fill:#FFFFFF;enable-background:new    ;}
	.st10{opacity:0.53;fill:url(#SVGID_3_);enable-background:new    ;}
	.st11{fill:#B0B0D6;}
	.st12{fill:#7B7BB7;}
	.st13{fill:#2B3A44;}
	.st14{fill:#F8AD84;}
	.st15{fill:#51062A;}
	.st16{fill:none;stroke:#961E4C;stroke-width:2;stroke-miterlimit:10;}
	.st17{opacity:0.78;fill:url(#SVGID_4_);enable-background:new    ;}
	.st18{fill:#EF9D73;}
	.st19{opacity:0.8;fill:url(#SVGID_5_);enable-background:new    ;}
	.st20{fill:url(#SVGID_6_);}
	.st21{fill:url(#SVGID_7_);}
	.st22{fill:none;stroke:#12124C;stroke-miterlimit:10;}
	.st23{fill:url(#SVGID_8_);}
	.st24{fill:url(#SVGID_9_);}
	.st25{fill:url(#SVGID_10_);}
	.st26{opacity:0.74;fill:url(#SVGID_11_);enable-background:new    ;}
	.st27{fill:#8FC9C6;}
	.st28{fill:url(#SVGID_12_);}
	.st29{opacity:0.76;fill:url(#SVGID_13_);enable-background:new    ;}
	.st30{opacity:0.36;fill:url(#SVGID_14_);enable-background:new    ;}
	.st31{opacity:0.76;fill:url(#SVGID_15_);enable-background:new    ;}
	.st32{fill:url(#SVGID_16_);}
	.st33{fill:#F29D72;}
	.st34{fill:url(#SVGID_17_);}
	.st35{fill:#6E0001;}
	.st36{fill:#DD8C68;}
	.st37{fill:#DB7556;}
	.st38{fill:#E89972;}
	.st39{opacity:0.47;fill:url(#SVGID_18_);enable-background:new    ;}
	.st40{fill:none;stroke:#961E4C;stroke-width:2;stroke-linecap:round;stroke-miterlimit:10;}
	.st41{fill:#BD3624;}
	.st42{fill:#961E4C;}
	.st43{opacity:0.31;fill:url(#SVGID_19_);enable-background:new    ;}
	.st44{opacity:0.74;fill:url(#SVGID_20_);enable-background:new    ;}
	.st45{opacity:0.74;fill:url(#SVGID_21_);enable-background:new    ;}
	.st46{opacity:0.8;fill:url(#SVGID_22_);enable-background:new    ;}
	.st47{fill:#F4F4F4;}
	.st48{fill:none;stroke:#51062A;stroke-miterlimit:10;}
	.st49{fill:#E1E1EA;}
	.st50{fill:url(#SVGID_23_);}
	.st51{fill:url(#SVGID_24_);}
	.st52{fill:#B735A4;}
	.st53{fill:#9E0481;}
	.st54{fill:none;stroke:#F7C1F0;stroke-linecap:round;stroke-linejoin:round;stroke-miterlimit:10;}
	.st55{fill:url(#SVGID_25_);}
	.st56{fill:url(#SVGID_26_);}
	.st57{fill:#E0BDD4;}
	.st58{fill:none;stroke:#E0BDD4;stroke-width:4;stroke-linecap:round;stroke-linejoin:round;stroke-miterlimit:10;}
	.st59{fill:none;stroke:#E0BDD4;stroke-width:3;stroke-linecap:round;stroke-linejoin:round;stroke-miterlimit:10;}
	.st60{fill:url(#SVGID_27_);}
	.st61{fill:none;}
</style>
<g id="Layer_2_2_">
	<g>
		<g>
			<g id="XMLID_1_">
				<g>
					<path class="st0" d="M445.3,395.5c0.3,1.3,0.5,2.8,0.3,3.8c0,0.2,0,0.5,0,0.7c0,0.1,0,0.1,0,0.2c0,0.6,0,1.3,0,1.9
						c-0.1,3.8-1.3,7.1-3.2,9.9c-1.8,2.7-4.3,4.8-7,6.3c-1.3,0.7-2.6,1.2-3.9,1.6c0,0,0,0-0.1,0c16.8-23.3-2-41.8-2-41.8V378
						c0.1,0,0.2,0.1,0.3,0.1c0.1,0,0.3,0.1,0.5,0.1c0.1,0,0.3,0.1,0.4,0.1s0.1,0,0.2,0c0.3,0.1,0.6,0.2,0.9,0.3
						c0.1,0,0.3,0.1,0.4,0.1c0.2,0.1,0.3,0.1,0.5,0.2s0.3,0.1,0.5,0.2c0.1,0,0.2,0.1,0.3,0.1c0.1,0,0.2,0.1,0.3,0.1
						c0.1,0.1,0.3,0.1,0.4,0.2c0.9,0.5,1.8,1,2.6,1.6c0.1,0.1,0.3,0.2,0.4,0.3c0.2,0.1,0.3,0.2,0.4,0.3c0.1,0,0.2,0.1,0.3,0.2
						c0.7,0.6,1.4,1.2,2,1.9c0.1,0.2,0.2,0.3,0.3,0.4c0.1,0.2,0.2,0.3,0.3,0.4l0.1,0.1c0.2,0.2,0.3,0.4,0.5,0.6
						c0.1,0.1,0.2,0.3,0.3,0.4s0.2,0.3,0.3,0.4s0.2,0.3,0.3,0.4c0.1,0.1,0.2,0.3,0.3,0.4c0.2,0.3,0.3,0.6,0.5,0.9
						c0,0.1,0.1,0.2,0.2,0.4c0,0.2,0.1,0.3,0.2,0.5c0.3,0.5,0.5,1,0.7,1.5c0.1,0.1,0.1,0.3,0.2,0.4c0.1,0.2,0.1,0.3,0.2,0.5
						s0.1,0.3,0.2,0.5s0.1,0.5,0.2,0.7c0,0.2,0.1,0.3,0.1,0.4c0.1,0.3,0.1,0.5,0.2,0.8c0,0.1,0.1,0.3,0.1,0.4c0,0.4,0.1,0.7,0.2,1.1
						C445.3,395.2,445.3,395.3,445.3,395.5z"/>
					<path class="st1" d="M429.5,378.1c0,0,18.9,18.5,2,41.8c-0.3,0.1-0.5,0.1-0.7,0.2c-2.6,1.9-5.2,2.9-7.1,3.1
						c14.2-23.9-1.8-47.1-1.8-47.1v-0.2c2.1-0.4,4.3-0.4,6,0.9c0.3,0.3,0.6,0.5,0.9,0.7c0.2,0.2,0.4,0.3,0.6,0.5
						C429.3,378,429.3,378,429.5,378.1L429.5,378.1z"/>
					<path class="st0" d="M421.8,376.1c0,0,16,23.2,1.8,47.1c-0.2,0-0.3,0-0.5,0c0,0-0.1,0-0.2,0c-0.8,0.3-1.7,0.5-2.7,0.5
						c-0.1,0-0.1,0-0.2,0c-0.2,0-0.5,0-0.8,0c-0.1,0-0.2-0.1-0.2-0.1c4-22.5-3.9-45-3.9-45s-0.5-2.3,1.7-3.5v-0.2
						c1.4-0.2,2.9,0,4.2,0.6c0.3,0.1,0.5,0.2,0.7,0.4c0,0,0,0,0.1,0V376.1z"/>
					<path class="st2" d="M412.5,378.6h-1.6c0,0,0.4-13.9,8.3-18.1l0.5,1.8c0,0-6.3,3.9-3.4,12l0.3,0.5c0.1,0,0.1,0,0.2,0v0.2
						c-2.2,1.2-1.7,3.5-1.7,3.5L412.5,378.6z"/>
					<path class="st3" d="M419.3,360.5v0.1c-7.9,4.1-8.3,18.1-8.3,18.1l-2-2.2l-0.2-0.1c0.5-0.9,1-1.9,1.2-3.1
						c0.9-4.5,1.8-11,7.5-12.9L419.3,360.5z"/>
					<path class="st1" d="M415.2,378.6c0,0,7.9,22.5,3.9,45c-0.1,0-0.2,0-0.3,0c-0.3,0.2-0.6,0.4-0.9,0.5c-0.2,0-0.3,0.1-0.5,0.1
						s-0.3,0-0.5,0c-0.3,0-0.6-0.1-0.8-0.1H416c0,0-0.1,0-0.2,0c0,0.1,0.1,0.1,0.1,0.1c-0.3,0.1-0.6,0.1-0.9,0.1
						c-9.9-19.6-2.9-44.3-2.5-45.6L415.2,378.6z"/>
					<path class="st0" d="M415,424.3L415,424.3c-0.5,0.1-1,0-1.4,0c0,0,0,0-0.1,0s-0.3,0-0.4,0s-0.1,0-0.2,0
						c-0.2-0.1-0.3-0.1-0.5-0.1c-0.1,0-0.1,0-0.2,0c-0.2,0-0.4-0.1-0.6-0.1c-0.3,0-0.5-0.1-0.7-0.1c-0.1,0.1-0.3,0.1-0.5,0.2
						c-2-2.7-22.4-30.5,0.5-45.5h1.6C412.1,380,405.1,404.7,415,424.3z"/>
					<path class="st1" d="M405,377L405,377c0.2-0.3,0.4-0.5,0.8-0.6c1.3-0.5,2.3-0.4,3,0l0.2,0.1l2,2.2c-22.8,15-2.5,42.8-0.5,45.5
						l0,0c-0.4,0.1-0.9,0.2-1.6,0.2c-1,0-2.3-0.2-4-0.8c0,0-15.4-8.3-14.3-24C391.3,388.7,393.2,382.1,405,377z"/>
					<path class="st0" d="M405,376.9L405,376.9c-11.7,5.2-13.6,11.8-14.4,22.7c-1.1,15.7,14.3,24,14.3,24c-0.1,0-0.2-0.1-0.3-0.1
						c-1.1,0-2-0.1-3-0.3c-1.9-0.3-3.6-0.8-5.3-1.5c-5.1-2.2-9.1-6-11.6-10.7c-1.7-3.2-2.7-6.7-2.9-10.4c-0.1-1.8,0-3.8,0.3-5.7
						c0.1-0.5,0.2-1,0.3-1.5c0.3-1.6,0.9-3.2,1.6-4.7c1.4-3,3.3-5.7,5.2-7.1c3.1-2.4,6.3-3.4,9-3.6c0.2,0,0.3,0,0.5,0
						c0.4-0.1,0.8-0.3,1.3-0.5c1-0.3,2.3-0.6,3.7-0.7C404.2,376.8,404.6,376.8,405,376.9z"/>
				</g>
			</g>
		</g>
		
			<linearGradient id="SVGID_1_" gradientUnits="userSpaceOnUse" x1="412.5944" y1="-1261.8242" x2="414.5944" y2="-1214.491" gradientTransform="matrix(1 0 0 -1 0 -838.1)">
			<stop  offset="0" style="stop-color:#D36F1C"/>
			<stop  offset="0.9838" style="stop-color:#FFFFFF;stop-opacity:0"/>
		</linearGradient>
		<path class="st4" d="M445.3,395.5c0-0.2-0.1-0.3-0.1-0.5c-0.1-0.4-0.2-0.7-0.2-1.1c0-0.1-0.1-0.3-0.1-0.4
			c-0.1-0.3-0.1-0.5-0.2-0.8c0-0.1-0.1-0.2-0.1-0.4c-0.1-0.2-0.1-0.5-0.2-0.7s-0.1-0.3-0.2-0.5s-0.1-0.3-0.2-0.5
			c-0.1-0.1-0.1-0.3-0.2-0.4c-0.2-0.5-0.4-1-0.7-1.5c-0.1-0.2-0.2-0.3-0.2-0.5c-0.1-0.2-0.2-0.3-0.2-0.4c-0.2-0.3-0.3-0.6-0.5-0.9
			c-0.1-0.1-0.2-0.3-0.3-0.4c-0.1-0.1-0.2-0.3-0.3-0.4c-0.1-0.1-0.2-0.3-0.3-0.4c-0.1-0.1-0.2-0.3-0.3-0.4c-0.2-0.2-0.3-0.4-0.5-0.6
			l-0.1-0.1c-0.1-0.1-0.2-0.2-0.3-0.4c-0.1-0.1-0.2-0.2-0.3-0.4c-0.6-0.7-1.3-1.3-2-1.9c-0.1-0.1-0.2-0.2-0.3-0.2
			c-0.1-0.1-0.2-0.2-0.4-0.3c-0.1-0.1-0.3-0.2-0.4-0.3c-0.8-0.6-1.7-1.1-2.6-1.6c-0.1-0.1-0.3-0.1-0.4-0.2c-0.1,0-0.2-0.1-0.3-0.1
			c-0.1,0-0.2-0.1-0.3-0.1c-0.2-0.1-0.3-0.1-0.5-0.2s-0.3-0.1-0.5-0.2c-0.1,0-0.3-0.1-0.4-0.1c-0.3-0.1-0.6-0.2-0.9-0.3
			c-0.1,0-0.1,0-0.2,0s-0.3-0.1-0.4-0.1c-0.2,0-0.4-0.1-0.5-0.1s-0.2,0-0.3-0.1h-0.1c-0.2-0.2-0.4-0.3-0.6-0.5
			c-0.3-0.2-0.6-0.4-0.9-0.7c-1.8-1.3-4-1.3-6-0.9c0,0,0,0-0.1,0c-0.2-0.2-0.4-0.3-0.7-0.4c-1.3-0.7-2.9-0.8-4.2-0.6
			c-0.1,0-0.1,0-0.2,0l-0.3-0.5c-2.9-8.1,3.4-12,3.4-12l-0.5-1.8v-0.1l-1.8-0.1c-5.7,1.9-6.6,8.4-7.5,12.9c-0.2,1.2-0.7,2.2-1.2,3.1
			c-0.7-0.4-1.7-0.5-3,0c-0.4,0.1-0.6,0.3-0.8,0.5c-0.4-0.1-0.8-0.1-1.3-0.1c-1.4,0.1-2.7,0.4-3.7,0.7c-0.5,0.2-0.9,0.4-1.3,0.5
			c-0.2,0-0.3,0-0.5,0c-2.7,0.2-5.9,1.2-9,3.6c-1.9,1.4-3.8,4.1-5.2,7.1c-0.7,1.5-1.3,3.1-1.6,4.7c-0.1,0.5-0.2,1-0.3,1.5
			c-0.3,1.9-0.4,3.9-0.3,5.7c0.2,3.7,1.2,7.2,2.9,10.4c2.5,4.7,6.5,8.5,11.6,10.7c1.7,0.7,3.4,1.2,5.3,1.5c1,0.2,1.9,0.3,3,0.3
			c0.1,0,0.2,0.1,0.3,0.1c1.8,0.6,3,0.8,4,0.8c0.7,0,1.2-0.1,1.6-0.2l0,0c0.2-0.1,0.4-0.1,0.5-0.2c0.2,0,0.4,0.1,0.7,0.1
			c0.2,0,0.4,0.1,0.6,0.1c0.1,0,0.1,0,0.2,0c0.2,0,0.3,0,0.5,0.1c0.1,0,0.1,0,0.2,0s0.3,0,0.4,0s0.1,0,0.1,0c0.4,0,0.9,0.1,1.3,0
			l0,0c0.3,0,0.6,0,0.8-0.1c0,0-0.1,0-0.1-0.1c0.1,0,0.2,0,0.2,0h0.1c0.2,0,0.5,0.1,0.8,0.1c0.2,0,0.3,0,0.5,0s0.3-0.1,0.5-0.1
			c0.3-0.1,0.6-0.3,0.9-0.5c0.1,0,0.2,0,0.3,0c0.1,0,0.1,0,0.2,0.1c0.3,0,0.6,0,0.8,0c0.1,0,0.1,0,0.2,0c1,0,1.9-0.2,2.7-0.5
			c0.1,0,0.2,0,0.2,0c0.2,0,0.3,0,0.5,0c2-0.2,4.5-1.2,7.1-3.1c0.3-0.1,0.5-0.1,0.7-0.2c0,0,0,0,0.1,0c1.3-0.4,2.6-0.9,3.9-1.6
			c2.7-1.5,5.2-3.6,7-6.3c1.9-2.8,3.1-6.1,3.2-9.9c0-0.6,0-1.3,0-1.9c0-0.1,0-0.1,0-0.2c0-0.2,0-0.5,0-0.7
			C445.8,398.3,445.7,396.8,445.3,395.5z"/>
	</g>
	<g>
		<g>
			<g id="XMLID_2_">
				<g>
					<path class="st5" d="M462.3,399.1v1.3c0,0.5-0.5,1-1,1h-1.2h-23.8h-1.5c-0.5,0-1-0.5-1-1v-1.3c0-0.5,0.5-1,1-1h26.5
						C461.8,398.1,462.3,398.5,462.3,399.1z"/>
					<path class="st6" d="M460.1,401.4l-3.9,22.7h-15.6l-4.3-22.7H460.1z M454.8,413.5l0.8-4.8c0-0.5-0.4-0.9-0.9-0.9h-12.9
						c-0.5,0-0.9,0.4-0.9,0.9l0.8,4.8c0,0.5,0.4,0.9,0.9,0.9h11.3C454.5,414.4,454.8,414,454.8,413.5z"/>
					<path class="st5" d="M455.7,408.7l-0.8,4.8c0,0.5-0.4,0.9-0.9,0.9h-11.3c-0.5,0-0.9-0.4-0.9-0.9l-0.8-4.8
						c0-0.5,0.4-0.9,0.9-0.9h12.9C455.3,407.8,455.7,408.2,455.7,408.7z"/>
				</g>
			</g>
		</g>
		
			<linearGradient id="SVGID_2_" gradientUnits="userSpaceOnUse" x1="436.2233" y1="-1250.8" x2="460.0233" y2="-1250.8" gradientTransform="matrix(1 0 0 -1 0 -838.1)">
			<stop  offset="0" style="stop-color:#A1BDCF"/>
			<stop  offset="0.9838" style="stop-color:#FFFFFF;stop-opacity:0"/>
		</linearGradient>
		<path class="st7" d="M460.1,401.4l-3.9,22.7h-15.6l-4.3-22.7H460.1z M454.8,413.5l0.8-4.8c0-0.5-0.4-0.9-0.9-0.9h-12.9
			c-0.5,0-0.9,0.4-0.9,0.9l0.8,4.8c0,0.5,0.4,0.9,0.9,0.9h11.3C454.5,414.4,454.8,414,454.8,413.5z"/>
		<path class="st8" d="M461.5,401.4h-27.3c-0.2,0-0.4-0.2-0.4-0.4l0,0c0-0.2,0.2-0.4,0.4-0.4h27.3c0.2,0,0.4,0.2,0.4,0.4l0,0
			C461.8,401.2,461.7,401.4,461.5,401.4z"/>
	</g>
	<g>
		<path class="st9" d="M391.3,372.5c-1.6,0.3-1.7,2.3-2.9,3.5s-3.7,1.1-4.9-0.8c-1.2-1.9-2.2-2.2-4.7-2c-2.4,0.2-2.2,2.2-3.3,3
			c-1.1,0.7-3.7,0.7-5-1.4s-3.9-1.6-4.1-1.6c2.3-4.1,5-8.8,5-8.8v-5.6h15.5v5.6L391.3,372.5z"/>
		<path class="st6" d="M395.3,380c0,0,0,0,0,0.1c0,0,0,0.1,0,0.2v42.9c0,1.7-1.3,3-3,3h-26.5c-1.7,0-3-1.3-3-3v-42.9
			c0-0.4,0.1-0.9,0.2-1.2c0-0.1,1.6-2.8,3.3-5.9l0,0c0.2,0,2.8-0.6,4.1,1.6c1.3,2.1,3.9,2.1,5,1.4c1.1-0.8,0.9-2.8,3.3-3
			s3.4,0.1,4.7,2c1.2,1.9,3.7,2,4.9,0.8c1.2-1.2,1.3-3.2,2.9-3.5l3.4,6.1L395.3,380z"/>
		
			<linearGradient id="SVGID_3_" gradientUnits="userSpaceOnUse" x1="373.8752" y1="-1242.0378" x2="362.295" y2="-1249.4491" gradientTransform="matrix(1 0 0 -1 0 -838.1)">
			<stop  offset="0" style="stop-color:#FFFFFF"/>
			<stop  offset="1" style="stop-color:#CCDFFF"/>
		</linearGradient>
		<path class="st10" d="M364.8,379.7V422c0,0,0.1,2.3,9.3,2.3c9.2,0,16-0.6,16-0.6s-19.4-3.1-21.5-17
			C366.5,392.9,364.8,379.7,364.8,379.7z"/>
		<g>
			<path class="st11" d="M388.3,358.9h-18.6c-0.7,0-1.1-0.6-1.1-1.1v-4.9c0-0.6,0.4-1.1,1.1-1.1h18.6c0.6,0,1.1,0.6,1.1,1.1v4.9
				C389.3,358.3,388.8,358.9,388.3,358.9z"/>
			<path class="st12" d="M371.3,357.7H371c-0.3,0-0.6-0.3-0.6-0.6v-3.6c0-0.3,0.3-0.6,0.6-0.6h0.3c0.3,0,0.6,0.3,0.6,0.6v3.5
				C372,357.4,371.7,357.7,371.3,357.7z"/>
			<path class="st12" d="M375.2,357.7h-0.3c-0.3,0-0.6-0.3-0.6-0.6v-3.6c0-0.3,0.3-0.6,0.6-0.6h0.3c0.3,0,0.6,0.3,0.6,0.6v3.5
				C375.8,357.4,375.6,357.7,375.2,357.7z"/>
			<path class="st12" d="M379,357.7h-0.3c-0.3,0-0.6-0.3-0.6-0.6v-3.6c0-0.3,0.3-0.6,0.6-0.6h0.3c0.3,0,0.6,0.3,0.6,0.6v3.5
				C379.6,357.4,379.3,357.7,379,357.7z"/>
			<path class="st12" d="M382.8,357.7h-0.3c-0.3,0-0.6-0.3-0.6-0.6v-3.6c0-0.3,0.3-0.6,0.6-0.6h0.3c0.3,0,0.6,0.3,0.6,0.6v3.5
				C383.3,357.4,383.2,357.7,382.8,357.7z"/>
			<path class="st12" d="M386.6,357.7h-0.3c-0.3,0-0.6-0.3-0.6-0.6v-3.6c0-0.3,0.3-0.6,0.6-0.6h0.3c0.3,0,0.6,0.3,0.6,0.6v3.5
				C387.2,357.4,387,357.7,386.6,357.7z"/>
		</g>
	</g>
	<path class="st13" d="M147.1,477c0,0-1.8,0.3-3.1,1.5s-0.4,4.6,0.2,5.9c0.6,1.3,3.4,7.5,5.2,11c1.7,3.6,3.4,7.2,5.2,12.3
		c1.7,5.1,7.2,10.3,12.4,12.1c6.2,2.2,9.9-3.2,9.9-3.2s-5.6,3-8.9,1.8s-10.6-6.6-12.4-12.5C153.9,500,147.1,477,147.1,477z"/>
	<path class="st13" d="M187.9,532.5c0,0-0.5,1-0.3,2.2s1.1,2,2.6,2.8c1.3,0.6,6.1,1.2,9.2,1c3-0.2,15.2-0.2,21.4,0.5
		c6.1,0.8,10.9,0.3,12.5-0.4c1.7-0.8,4.3-2.3,3.9-4.8c0,0-2.3,4.3-6.9,4.3c-4.6,0-23.8-1.4-27.2-1.2
		C199.8,537.2,187.9,533,187.9,532.5z"/>
	<path class="st14" d="M204.3,508c4.1,13.4,5.4,15.6,2.3,21c-3.1,5.4-13.9,6.9-15.4,2.3c-1.5-4.6,0-10.2,1.2-14.2s1.2-13.2,1.2-13.2
		s-0.8-2.2,2.6-4.6c3.4-2.4,5.9,0.5,6.5,1C203.3,500.8,204.3,508,204.3,508z"/>
	<path class="st15" d="M195.9,8.2c0,0-17.5-10.3-34.3,24.7c-7.4,15.4-6.2,26.7-6.2,26.7s-17,8.2-21,34.6
		c-2.1,14,12.2,37.2,27.3,45.6s33.1-0.1,45.6-0.4c8.3-0.2,21.5,3.8,28.5-20.7c2.5-8.9-2.7-19.6-2.7-19.6s22.3-15.5,16.6-33
		s-9-27.4-8.7-28.6C241.2,36.4,234.9,0.6,195.9,8.2z"/>
	<path class="st16" d="M195.9,8.2c0,0-17.5-10.3-34.3,24.7c-7.4,15.4-6.2,26.7-6.2,26.7s-18.1,8-21,34.6c-2,17.5,12.9,36.8,28,45.2
		s32.4,0.3,44.9,0c8.3-0.2,21.5,3.8,28.5-20.7c2.5-8.9-2.7-19.6-2.7-19.6s22.3-15.5,16.6-33s-9-27.4-8.7-28.6
		C241.2,36.4,234.9,0.6,195.9,8.2z"/>
	
		<linearGradient id="SVGID_4_" gradientUnits="userSpaceOnUse" x1="197.4561" y1="-1725.2429" x2="188.083" y2="-1634.4409" gradientTransform="matrix(1 0 0 -1 0 -1378.1)">
		<stop  offset="0" style="stop-color:#4D2469"/>
		<stop  offset="1" style="stop-color:#701862;stop-opacity:0"/>
	</linearGradient>
	<path class="st17" d="M211.4,347.5c-6.9-0.3-15.6-2.6-26.9-7.7c-4.3-2-8.3-4.7-11.9-8.2c-4.6-25.2-6.4-54.1-6.4-54.1
		s-2.6-30.6,12.9-32.6s32.4-0.5,34,17.4C214.4,275.5,214,316.6,211.4,347.5z"/>
	<path class="st18" d="M226.3,191.3c0,0,19.2,5.1,37.2,14.8c10.4,5.6,23.8,12.1,31.3,13s10.7-2.2,14.7-1.7s14.8,6.4,14.6,8.3
		c-0.2,1.9-0.4,3-0.4,3s1.2,6.6-28.4-0.5s-72-18.6-77.5-23.3C212.2,200.2,212.6,188,226.3,191.3z"/>
	
		<linearGradient id="SVGID_5_" gradientUnits="userSpaceOnUse" x1="251.3561" y1="-1586.7413" x2="329.1061" y2="-1597.9913" gradientTransform="matrix(1 0 0 -1 0 -1378.1)">
		<stop  offset="0.2676" style="stop-color:#D18062"/>
		<stop  offset="1" style="stop-color:#F8AD84;stop-opacity:0"/>
	</linearGradient>
	<path class="st19" d="M226.3,191.3c0,0,19.2,5.1,37.2,14.8c10.4,5.6,23.8,12.1,31.3,13s10.7-2.2,14.7-1.7s14.8,6.4,14.6,8.3
		c-0.2,1.9-0.4,3-0.4,3s1.2,6.6-28.4-0.5s-72-18.6-77.5-23.3C212.2,200.2,212.6,188,226.3,191.3z"/>
	
		<linearGradient id="SVGID_6_" gradientUnits="userSpaceOnUse" x1="211.4634" y1="-1880.9524" x2="187.8688" y2="-1652.3806" gradientTransform="matrix(1 0 0 -1 0 -1378.1)">
		<stop  offset="0" style="stop-color:#731A7A"/>
		<stop  offset="0.5863" style="stop-color:#602074"/>
		<stop  offset="1" style="stop-color:#50256E"/>
	</linearGradient>
	<path class="st20" d="M192.9,508c0-10-9.6-29.7-13.3-57.9s-3.2-40.5,1.3-55.9c1.4-4.9,3.4-18.8-5.3-43.2
		c-9.6-27.3-11.8-84.5-11.8-84.5s-0.3-20.7,15.3-22.7s32.4-0.5,34,17.4c1.7,17.9,0.7,84.7-4.6,111.9c0,0,1.3,6,0.6,9.3
		c-0.6,3.3-2.6,7.7-3.4,11.3c-0.8,3.6-0.9,114.3-0.9,114.3H192.9z"/>
	
		<linearGradient id="SVGID_7_" gradientUnits="userSpaceOnUse" x1="191.4235" y1="-1676.3938" x2="163.132" y2="-1710.5676" gradientTransform="matrix(1 0 0 -1 0 -1378.1)">
		<stop  offset="0" style="stop-color:#41185C"/>
		<stop  offset="1" style="stop-color:#691870;stop-opacity:0"/>
	</linearGradient>
	<path class="st21" d="M211.4,347.5c-6.9-0.3-15.6-2.6-26.9-7.7c-4.3-2-10.2-4.7-13.8-8.2c-4.6-25.2-6.3-54.3-6.3-54.3
		s-0.9-30.4,14.7-32.4c15.5-2,32.4-0.5,34,17.4C214.4,275.5,214,316.6,211.4,347.5z"/>
	<path class="st22" d="M176.9,149c-0.1,0-0.2,0-0.2,0"/>
	
		<linearGradient id="SVGID_8_" gradientUnits="userSpaceOnUse" x1="201.6383" y1="-1848.875" x2="191.9609" y2="-1799.1052" gradientTransform="matrix(1 0 0 -1 0 -1378.1)">
		<stop  offset="0" style="stop-color:#641C6B"/>
		<stop  offset="1" style="stop-color:#701862;stop-opacity:0"/>
	</linearGradient>
	<path class="st23" d="M178.6,428.6c-0.2,6.7,0.1,13.9,1.1,21.5C183.4,478.3,193,498,193,508h11.8c0,0,0.1-92.7,0.7-111.2
		C197,407.2,186.6,419.3,178.6,428.6z"/>
	
		<linearGradient id="SVGID_9_" gradientUnits="userSpaceOnUse" x1="191.4209" y1="-1827.8395" x2="206.7205" y2="-1855.8583" gradientTransform="matrix(1 0 0 -1 0 -1378.1)">
		<stop  offset="0" style="stop-color:#481B66"/>
		<stop  offset="3.513514e-02" style="stop-color:#501E70;stop-opacity:0.96"/>
		<stop  offset="1" style="stop-color:#691870;stop-opacity:0"/>
	</linearGradient>
	<path class="st24" d="M205,432.1c-0.1,14.8-0.2,31.5-0.2,45.5c-4.6,3.6-9.9,5.9-17.5,7.2c-2.8-9.5-4.5-12.1-6.3-25.7
		C180.6,455.9,198,432.9,205,432.1z"/>
	<path class="st14" d="M180.1,473.8c-8.7,12-13.3,17.3-19.8,18.1c-6.5,0.8-14.7-7.4-11.7-11.5c2.9-4.1,8.6-6.5,12.7-8
		c4.1-1.6,9.5-7.7,9.5-7.7s1.3-2.1,5.4-0.7s5.2,5.5,5.2,6.4S180.1,473.8,180.1,473.8z"/>
	
		<linearGradient id="SVGID_10_" gradientUnits="userSpaceOnUse" x1="197.4098" y1="-1825.73" x2="223.9537" y2="-1605.2686" gradientTransform="matrix(1 0 0 -1 0 -1378.1)">
		<stop  offset="0" style="stop-color:#851C73"/>
		<stop  offset="1" style="stop-color:#582978"/>
	</linearGradient>
	<path class="st25" d="M174.5,225.4c0,0-2.1,3.5-5.8,7.1c-10.5,10.5-15.4,33.1-4.4,46.4c8.9,10.8,21.8,14.1,27.7,21.6
		s26.8,35.9,50.2,59.3c0,0-10.5,3.6-21.7,14.8s-13.6,24.5-19.1,39s-31,49.8-31,49.8c3.2,8.8,10.7,10.6,10.7,10.6
		s76.7-93.2,80.7-97.2s5.9-6.1,7.5-10.5c1.5-4.4-2.6-11.6-2.6-11.6s-8.7-35.7-19.9-61.2c-11.2-25.6-18.8-48.6-18.8-48.6l2.2-6.4
		c0,0-27,4.8-50.5-9.1L174.5,225.4z"/>
	<path class="st14" d="M232.6,132.4c-1,0.5-9.1,5.3-21.3-7.8c0,0-1.6-4.6-3.1-9.4c-1.6-4.8-9.9-19-22.1-11.9
		c-13.4,7.8-1.4,36.9-1.4,36.9c-1.2,6.7-9.1,8.2-10.3,8.4c-0.9-5.7-1.3-11.6-0.8-17.4c1.5-19.2,5.2-26.7,9.4-31
		c3.9-3.9,8.7-12,8.7-18.1s-1.4-13.7,2-17.1s13.3-6.1,15.1,1.5s-4.8,32.2,10.6,50.3C225.9,124.4,229.9,129.2,232.6,132.4z"/>
	
		<linearGradient id="SVGID_11_" gradientUnits="userSpaceOnUse" x1="173.3822" y1="-1483.1564" x2="232.6" y2="-1483.1564" gradientTransform="matrix(1 0 0 -1 0 -1378.1)">
		<stop  offset="0" style="stop-color:#D48864"/>
		<stop  offset="1" style="stop-color:#F8AD84;stop-opacity:0"/>
	</linearGradient>
	<path class="st26" d="M232.6,132.4c-1,0.5-9.1,5.3-21.3-7.8c0,0-1.6-4.6-3.1-9.4c-1.6-4.8-9.9-19-22.1-11.9
		c-13.4,7.8-1.4,36.9-1.4,36.9c-1.2,6.7-9.1,8.2-10.3,8.4c-0.9-5.7-1.3-11.6-0.8-17.4c1.5-19.2,5.2-26.7,9.4-31
		c3.9-3.9,8.7-12,8.7-18.1s-1.4-13.7,2-17.1s13.3-6.1,15.1,1.5s-4.8,32.2,10.6,50.3C225.9,124.4,229.9,129.2,232.6,132.4z"/>
	<path class="st27" d="M234,166.6c0,0,1.4,16.8-0.2,25.7c-1,5.8-4,18.4-4,21.8c0,3.5,2.1,16.8,0.6,25.2c-1.3,7.3-44,5.2-59.2-10
		c0,0,7.8-12.3,11.6-20.2c3.7-7.9,4.9-23.9,1.1-30.6c-2.7-4.7-7.4-16.7-9.5-30c1.2-0.2,7.5-1.4,9.4-6.8c0,0-11.1-30.7,2.3-38.5
		c12.3-7.1,20.6,7.1,22.1,11.9c1.6,4.8,3.1,9.4,3.1,9.4c12.2,13.1,20.3,8.3,21.3,7.8c3.7,4.5,5.1,6.1,7.3,8.3
		c3.9,3.9,5.6,5.2,5.6,7.6C245.6,150.4,246.8,161.5,234,166.6z"/>
	
		<linearGradient id="SVGID_12_" gradientUnits="userSpaceOnUse" x1="244.1991" y1="-1742.7216" x2="198.0307" y2="-1790.5004" gradientTransform="matrix(1 0 0 -1 0 -1378.1)">
		<stop  offset="0" style="stop-color:#641C6B"/>
		<stop  offset="1" style="stop-color:#701862;stop-opacity:0"/>
	</linearGradient>
	<path class="st28" d="M242.1,359.9c0,0,1.8,1.7,5.7,4.5c2.9,2-6.4,4.1-16.1,11.5s-16.5,15.2-22,25.5s-13.5,27.7-15.9,30.1
		s0-3.2,0-3.2s8.3-12.4,13.2-30.4C211.7,379.8,227.6,365.3,242.1,359.9z"/>
	
		<linearGradient id="SVGID_13_" gradientUnits="userSpaceOnUse" x1="200.0703" y1="-1557.6921" x2="208.237" y2="-1534.0256" gradientTransform="matrix(1 0 0 -1 0 -1378.1)">
		<stop  offset="0" style="stop-color:#59BAC2;stop-opacity:0"/>
		<stop  offset="1" style="stop-color:#519696"/>
	</linearGradient>
	<path class="st29" d="M234,166.6c0,0-8.5,0.3-14.8-3.6c-6.4-3.9-9.2-22.8-10.6-29.6c-1.4-6.8-23.7-8.4-24.8,8.4
		c0,0-1.2,5.3-9.4,6.8c0,0,2.6,13,4.4,18c1.9,5.1,3,7.9,3.3,8.5c0.2,0.5,22.4,8.8,35.9,8.8s16.5,1.4,16.5,1.4v-9L234,166.6z"/>
	
		<linearGradient id="SVGID_14_" gradientUnits="userSpaceOnUse" x1="187.4253" y1="-1579.6514" x2="197.7479" y2="-1570.0662" gradientTransform="matrix(1 0 0 -1 0 -1378.1)">
		<stop  offset="0" style="stop-color:#59BAC2;stop-opacity:0"/>
		<stop  offset="1" style="stop-color:#519696"/>
	</linearGradient>
	<path class="st30" d="M189.9,175.1c0,0,7.8,32.3,12.5,39.1s16.5,13.4,28.4,12.1l-1.5-14.5l-44-73.2
		C185.4,138.6,187.3,164.9,189.9,175.1z"/>
	
		<linearGradient id="SVGID_15_" gradientUnits="userSpaceOnUse" x1="186.1357" y1="-1484.4152" x2="185.3062" y2="-1518.9774" gradientTransform="matrix(1 0 0 -1 0 -1378.1)">
		<stop  offset="0" style="stop-color:#59BAC2;stop-opacity:0"/>
		<stop  offset="1" style="stop-color:#519696"/>
	</linearGradient>
	<path class="st31" d="M183.8,141.8c0,0-4.5-11.3-4.3-25.2c0.3-13.9,11.1-15.5,12.5-15s0,2,0,2s-9,2.2-9,8.8s1.6,26,1.6,26
		L183.8,141.8z"/>
	
		<linearGradient id="SVGID_16_" gradientUnits="userSpaceOnUse" x1="202.2008" y1="-1462.8196" x2="195.0118" y2="-1475.0547" gradientTransform="matrix(1 0 0 -1 0 -1378.1)">
		<stop  offset="0" style="stop-color:#C47958"/>
		<stop  offset="1" style="stop-color:#F8AD84;stop-opacity:0"/>
	</linearGradient>
	<path class="st32" d="M191.3,77.5c0,0,0.9,5.3-0.3,8.9s9.2,10.8,12.8,12c3.7,1.2,6.7,0.6,6.7,0.6s-1.4-6.2-1.5-10.7
		c-0.1-4.4,0.7-5.5-0.4-6.6C207.6,80.7,188.8,68.3,191.3,77.5z"/>
	<path class="st14" d="M221.5,80.2c-2.7,4.3-5.9,8.4-13.1,7.6c-9-1.1-14.1-3.4-20.1-10.3c-5.2-6.2-8.8-17.3-8.8-17.3s-1.5,1-4.4-1.5
		c-3.3-2.8-3-11.4-1-13.5c3.6-3.8,6.5,0.8,6.9,1.1c-2.3-20,15.2-28.8,30-25.3c0.3,0.1,0.7,0.2,1,0.3c13.7,4.2,11.5,24.2,11.5,24.2
		s1.2,9.1,5,15.2C228.9,61.1,227.2,71.2,221.5,80.2z"/>
	<path class="st33" d="M228.4,61.8c-0.3-0.5-0.6-1-0.9-1.6c-3.8-6.1-4-14.8-4-14.8s2.2-20.1-11.5-24.2c3.3,0.3,8.1,1.5,11.4,5.3
		c5.5,6.4,5.8,18.6,6.1,24.4C229.6,54.3,229,58.7,228.4,61.8z"/>
	
		<linearGradient id="SVGID_17_" gradientUnits="userSpaceOnUse" x1="667.9272" y1="-460.1113" x2="636.7958" y2="-473.2675" gradientTransform="matrix(0.9383 0.3458 0.3458 -0.9383 -236.9854 -619.7865)">
		<stop  offset="0" style="stop-color:#D48864"/>
		<stop  offset="1" style="stop-color:#F8AD84;stop-opacity:0"/>
	</linearGradient>
	<path class="st34" d="M202.7,22c0,0-0.4,7.1,4.8,11.3s-0.1,5.8,8.4,13.1c0,0,2.4,3.2,3.2,4.8c3.1,5.9,6.8,12.4,8.7,14.4l0.8-4.9
		c0,0,1.5-9.9,0.8-12.2l-14.2-17C215.2,31.5,204,19.8,202.7,22z"/>
	<path class="st15" d="M181,46.2c0,0,4.8-15.8,13.2-19.2c9.6-3.9,9.5-7,9.5-7s-1,10.3,12.4,13.9c0,0,0.6,11.8,19,14.9
		c21.4,3.6,13.7-19.2,11.6-23.7C242,15,226.8,0.3,211,2.9s-15.4,5.8-15.4,5.8s-16.7-5-25.2,11.2C165.3,29.8,181,46.2,181,46.2z"/>
	<path class="st35" d="M194.9,45c-0.3,0.3,2.7-5.5,7.8-6.6c4.3-0.9,6.4,0.5,6.4,1.3s0.2,1.7-1.9,1.5c-2.1-0.2-3.8-0.5-5.6-0.1
		C198.5,41.6,195.9,44.1,194.9,45z"/>
	<path class="st36" d="M213.4,64.1c0,0,0.9,1.2,2.5,1.3c1.6,0.1,3.2-1.1,3.7-1.6s0.6,3-2,3.9c-2.6,1-4.1-1.5-4.2-2.6
		C213.4,63.8,213.4,64.1,213.4,64.1z"/>
	<ellipse transform="matrix(0.9911 -0.1332 0.1332 0.9911 -5.741 26.4869)" class="st37" cx="195.1" cy="56.2" rx="1.1" ry="1.2"/>
	<ellipse class="st37" cx="198.8" cy="60" rx="0.7" ry="0.7"/>
	<ellipse class="st37" cx="203.8" cy="58.1" rx="0.8" ry="0.8"/>
	<ellipse class="st37" cx="209.4" cy="56.2" rx="0.8" ry="0.8"/>
	<path class="st38" d="M178.9,46.4c-1.8-1.3-3.5-1.7-4.7,0.3c-1.5,2.5,0,3.9,0.9,3.7s1.7-2.6,3.4-0.5s1.1,5.4,1.1,5.4
		S181.2,48.1,178.9,46.4z"/>
	
		<linearGradient id="SVGID_18_" gradientUnits="userSpaceOnUse" x1="684.4781" y1="-212.5746" x2="666.2365" y2="-216.7764" gradientTransform="matrix(0.9047 0.4261 0.4261 -0.9047 -322.0305 -438.4751)">
		<stop  offset="0" style="stop-color:#D48864"/>
		<stop  offset="1" style="stop-color:#F8AD84;stop-opacity:0"/>
	</linearGradient>
	<path class="st39" d="M194.7,47.5c-0.5,0.3,2.1-4.2,4.3-5.6c2.8-1.7,8.7-1.2,9-0.3s1.5,3.7,0.4,4.1
		C207.3,46.2,201.8,43.6,194.7,47.5z"/>
	<ellipse class="st37" cx="219.6" cy="56" rx="0.3" ry="0.3"/>
	<ellipse transform="matrix(1 -3.543209e-03 3.543209e-03 1 -0.2075 0.7838)" class="st37" cx="221.1" cy="59" rx="0.5" ry="0.6"/>
	
		<ellipse transform="matrix(1 -3.543209e-03 3.543209e-03 1 -0.2096 0.7969)" class="st37" cx="224.8" cy="59.6" rx="0.5" ry="0.6"/>
	
		<ellipse transform="matrix(1 -3.543209e-03 3.543209e-03 1 -0.2177 0.8043)" class="st37" cx="226.9" cy="61.9" rx="0.4" ry="0.5"/>
	<path class="st40" d="M195.9,8.2c0,0,16.5-12.3,35-0.4s24.3,35.6,13.8,40.5"/>
	<path class="st41" d="M205.2,70.5c0,0,2.9,3.9,3.7,5.2c1,1.7,3.4,3.4,6.6,3.2s3.8-2,4.1-3.1c0.4-1.4,0.9-2,0.9-2s-11.9-0.4-13-1.2
		C206.5,71.8,205.2,70.5,205.2,70.5z"/>
	<path class="st6" d="M220,73.5c0,0-1.4,1.8-3.2,2.3c-3.5,0.8-6.6-1-7.7-1.9c-1-0.9-1.1-1.7-1.1-1.7L220,73.5z"/>
	<path class="st41" d="M220.7,73.8c-0.9,0.3-1.6-0.3-3.1,0.6c-1.3,0.8-3.2-0.2-3.2-0.2s-1.3,0.4-4-0.3s-5.1-3.4-5.1-3.4
		c0.2,0.2,3.2,2.2,6.6,1.1c3.3-1.1,4.5,0.8,4.5,0.8s0.6-1.4,2.7-1.2c2.1,0.2,2.3,1,2.3,1S221.2,73.6,220.7,73.8z"/>
	<path class="st35" d="M197.5,49.1c0,0,2.3-3.4,5.4-3.6c3-0.3,5.8,1.9,6.4,2.6c0.6,0.7-3.5-1.1-6.1-0.7
		C200.6,47.8,196.9,49.9,197.5,49.1z"/>
	<path class="st35" d="M201.4,47c0,0-1.1,4.3,0.7,5.7s3-0.4,3.6-1.6c0.6-1.2,0.3-4.1-0.3-4.6C205,45.9,201.4,47,201.4,47z"/>
	<path class="st35" d="M228.2,50.9c0,0-1.6-3.2-4-3.7s-4.8,1.4-5.3,1.9c-0.5,0.6,2.9-0.7,4.9-0.2C225.8,49.6,228.6,51.7,228.2,50.9z
		"/>
	<path class="st35" d="M225.2,48.8c0,0,0.6,4-1,5.1s-2.4-0.6-2.8-1.7c-0.4-1.1,0.1-3.7,0.5-4.2C222.4,47.5,225.2,48.8,225.2,48.8z"
		/>
	<g>
		<path class="st42" d="M181.1,45.8c0.9-3,2-6,3.5-8.8s3.3-5.5,5.6-7.7c1.2-1.1,2.4-2.1,3.9-2.9c0.7-0.4,1.5-0.8,2.2-1.1
			c0.8-0.3,1.4-0.6,2.1-0.9c2.6-1.4,4.8-3.6,6-6.2c0.3-0.7,0.5-1.3,0.7-2c0.1-0.7,0.2-1.4,0-1.7c-0.2-0.5-0.6-1-1-1.3
			c-0.2-0.2-0.4-0.2-0.5-0.2c0,0,0.2-0.1,0.1,0c-0.1,0.2-0.2,0.9-0.2,1.6s0.1,1.5,0.2,2.2c0.2,1.5,0.5,3,0.9,4.4
			c0.8,2.8,2.2,5.5,4.3,7.3c2.2,1.9,5,3.3,7.7,4.2l0.9,0.3l0.2,0.9c0.2,0.8,0.5,1.9,0.8,2.8c0.4,0.9,0.8,1.8,1.3,2.7
			c1,1.7,2.3,3.2,3.8,4.4c0.8,0.6,1.6,1.1,2.5,1.5c0.5,0.2,0.9,0.4,1.4,0.6c0.5,0.2,0.9,0.4,1.4,0.5c1.9,0.6,3.9,1,5.9,1.2
			s4.1,0.1,6.1-0.1c0.4-0.1,0.3-0.1,0.4-0.1c0,0,0-0.2-0.2-0.2c-0.2-0.1-0.7,0-1,0.1s-0.5,0.4-0.7,0.8c-0.4,0.8-0.4,1.8-0.3,2.7
			c0.2,1,0.6,1.9,1.1,2.8c1.1,1.7,2.7,3.2,4.5,4.3c-1.9-0.8-3.8-2.1-5.2-3.8c-0.7-0.9-1.2-1.9-1.5-3s-0.4-2.3,0.1-3.5
			c0.2-0.6,0.7-1.2,1.3-1.6c0.4-0.2,0.6-0.2,1-0.3c0.3-0.1,0.7-0.1,1.1,0c0.4,0.1,0.8,0.3,1.1,0.6c0.3,0.4,0.5,0.9,0.5,1.4
			s-0.3,1-0.7,1.3c-0.3,0.3-0.8,0.5-1.1,0.5c-2.2,0.5-4.4,0.6-6.6,0.5s-4.4-0.4-6.6-1c-0.5-0.2-1.1-0.3-1.6-0.5s-1-0.4-1.6-0.6
			c-1-0.4-2.1-1-3-1.7c-1.9-1.4-3.5-3.1-4.6-5.1c-0.6-1-1.1-2-1.5-3.1s-0.8-2.1-1-3.3l1,1.2c-1.7-0.5-3.1-1.2-4.6-2
			s-2.8-1.7-4.1-2.9c-2.7-2.3-4.2-5.6-5-8.8c-0.4-1.6-0.7-3.2-0.8-4.9c-0.1-0.8-0.1-1.6-0.1-2.5c0-0.4,0-0.9,0.1-1.4s0.2-1,0.6-1.6
			c0.2-0.3,0.5-0.6,0.9-0.8s0.8-0.2,1.2-0.2c0.7,0.1,1.2,0.4,1.6,0.7c0.8,0.7,1.4,1.4,1.7,2.4c0.3,1.2,0.1,2-0.1,2.9
			c-0.2,0.9-0.5,1.7-0.9,2.4c-1.5,3-4.1,5.4-7.1,6.7c-0.7,0.4-1.6,0.6-2.3,0.8c-0.7,0.2-1.4,0.5-2.1,0.9c-1.3,0.7-2.6,1.6-3.7,2.6
			c-2.3,2-4.2,4.5-5.8,7.2C183.6,40,182.2,42.8,181.1,45.8z"/>
	</g>
	
		<linearGradient id="SVGID_19_" gradientUnits="userSpaceOnUse" x1="242.9028" y1="-1540.0992" x2="210.728" y2="-1519.5599" gradientTransform="matrix(1 0 0 -1 0 -1378.1)">
		<stop  offset="0" style="stop-color:#59BAC2;stop-opacity:0"/>
		<stop  offset="1" style="stop-color:#519696"/>
	</linearGradient>
	<path class="st43" d="M206.3,123.4c0,0,8.1,8.2,9.9,15.2s8.3,15.4,13.6,17.6c5.3,2.2,11.5-1.4,12.8-2.7s2,7.1-6.1,9.9
		c-8.1,2.8-18.4,0.5-21.2-5.1C212.6,152.6,206.3,123.4,206.3,123.4z"/>
	<path class="st14" d="M182.1,123.5c0,0-2.1-14.9,5.8-19.1s19.7,3.4,22.9,23.8c3.2,20.3,13.6,69.4,12,77c-1.5,7.6-9.6,10.4-14.4,5.7
		C203.6,206.1,183.5,147,182.1,123.5z"/>
	
		<linearGradient id="SVGID_20_" gradientUnits="userSpaceOnUse" x1="225.2359" y1="-1593.0516" x2="181.5492" y2="-1469.1805" gradientTransform="matrix(1 0 0 -1 0 -1378.1)">
		<stop  offset="0" style="stop-color:#E38C63"/>
		<stop  offset="0.4459" style="stop-color:#EC9B72;stop-opacity:0.5541"/>
		<stop  offset="1" style="stop-color:#F8AD84;stop-opacity:0"/>
	</linearGradient>
	<path class="st44" d="M182.1,123.5c0,0-2.1-14.9,5.8-19.1s19.7,3.4,22.9,23.8c3.2,20.3,13.6,69.4,12,77c-1.5,7.6-9.6,10.4-14.4,5.7
		C203.6,206.1,183.5,147,182.1,123.5z"/>
	<path class="st14" d="M316,241.7c0.6-0.5,1.8,1.4,0.4,2.5s-8.8,0.7-8.8,0.7c-3-1-9-9-9.8-10s-11.8-2.6-28.9-5.4
		c-17-2.8-49.3-10.2-55.1-13.6c-5.7-3.3-7.9-9.8-7.9-9.8s4.3-7.3,11.3-7.1s31.3,10.9,43.2,15.1s30.1,9.2,34.6,9.8s9.9-3.2,15.4-1.9
		c0,0,12.3,3.8,14.3,6.5c2,2.6,3.5,15.5,2.3,16.4s-11.7,5.2-12.8,5.1s-2.8-2.1-0.3-3.9l1.6-2"/>
	
		<linearGradient id="SVGID_21_" gradientUnits="userSpaceOnUse" x1="388.5046" y1="-1217.1929" x2="500.9473" y2="-1243.7366" gradientTransform="matrix(0.9923 0.1236 0.1236 -0.9923 -3.3174 -1048.1864)">
		<stop  offset="0" style="stop-color:#E38C63"/>
		<stop  offset="0.4459" style="stop-color:#EC9B72;stop-opacity:0.5541"/>
		<stop  offset="1" style="stop-color:#F8AD84;stop-opacity:0"/>
	</linearGradient>
	<path class="st45" d="M316,241.7c0.6-0.5,1.8,1.4,0.4,2.5s-8.8,0.7-8.8,0.7c-3-1-9-9-9.8-10s-11.8-2.6-28.9-5.4
		c-17-2.8-49.3-10.2-55.1-13.6c-5.7-3.3-7.9-9.8-7.9-9.8s4.3-7.3,11.3-7.1s31.3,10.9,43.2,15.1s30.1,9.2,34.6,9.8s9.9-3.2,15.4-1.9
		c0,0,12.3,3.8,14.3,6.5c2,2.6,3.5,15.5,2.3,16.4s-11.7,5.2-12.8,5.1s-2.8-2.1-0.3-3.9l1.6-2"/>
	
		<linearGradient id="SVGID_22_" gradientUnits="userSpaceOnUse" x1="479.4326" y1="-1241.2336" x2="459.4326" y2="-1228.6068" gradientTransform="matrix(0.9923 0.1236 0.1236 -0.9923 -3.3174 -1048.1864)">
		<stop  offset="0.2676" style="stop-color:#E68D6C"/>
		<stop  offset="1" style="stop-color:#F8AD84;stop-opacity:0"/>
	</linearGradient>
	<path class="st46" d="M305.5,235.8c0,0-2.2-3.1-0.2-4.6s5.8-2.8,10.9-0.9c5.1,1.9,5.4,6.2,6.2,8.4c0.8,2.3,1.5,2.9-0.6,4.5
		s-9.1,5.3-9.1,5.3s1.3-3,2.2-3.7s3.1-1.2,3.3-2.6c0.2-1.4-0.3-3.2-1-3.3C316.5,238.9,309.1,234.4,305.5,235.8z"/>
	<ellipse class="st47" cx="311.5" cy="237.5" rx="6.2" ry="6.2"/>
	<path class="st48" d="M181.6,516.5"/>
	<g>
		<path class="st49" d="M150.4,476.6c0,0-5.1-0.6-6.1,2.6c-0.9,2.6,1.3,6.5,3.6,11c2.3,4.4,5.1,10.3,7.2,16.8
			c2,6.5,11.4,13.8,17.3,12.4c5.9-1.5,5.3-4.7,5.3-8.8c0-4.1-7.3,8.6-13.9-3.4C157.1,494.9,150.4,476.6,150.4,476.6z"/>
		
			<linearGradient id="SVGID_23_" gradientUnits="userSpaceOnUse" x1="144.0303" y1="-1876.0723" x2="177.6316" y2="-1876.0723" gradientTransform="matrix(1 0 0 -1 0 -1378.1)">
			<stop  offset="0.1108" style="stop-color:#BFC4CC"/>
			<stop  offset="1" style="stop-color:#FFFFFF;stop-opacity:0"/>
		</linearGradient>
		<path class="st50" d="M150.4,476.6c0,0-4.8-0.5-6.1,2.6c-1.1,2.5,2,8,4.3,12.4s4.3,8.8,6.4,15.3c2,6.5,11.4,13.8,17.3,12.4
			c5.9-1.5,5.3-4.7,5.3-8.8c0-4.1-7.3,8.6-13.9-3.4C157.1,495.1,150.4,476.6,150.4,476.6z"/>
		<path class="st48" d="M157.1,477.4"/>
		
			<linearGradient id="SVGID_24_" gradientUnits="userSpaceOnUse" x1="175.9098" y1="-1887.8438" x2="157.7816" y2="-1858.8997" gradientTransform="matrix(1 0 0 -1 0 -1378.1)">
			<stop  offset="0" style="stop-color:#851C73"/>
			<stop  offset="1" style="stop-color:#582978"/>
		</linearGradient>
		<path class="st51" d="M162.4,471.7c0,0,2.4-1,2.5-1.3c1.3-3.2-7.5,2.3-11.4,4.3s-7.3,4.2-4,8.9c3.2,4.7,4.3,7.6,5.8,11.7
			s3,16.7,13.2,20c10.2,3.3,9.3-5.8,8.6-10.4c-0.6-4.8-6-15.9-4.3-19.3c1.6-3.2-1.7-9.2-5.9-9.5
			C161.3,475.8,162.4,471.7,162.4,471.7z"/>
		<path class="st52" d="M155.4,496.2c0,0,3.2-1.7,1.3-7.6s-4.6-11.4-1-15l1.6-1c0,0-2.5,5.2,2.3,13c4.2,7,1.9,15.8-1.6,18
			L155.4,496.2z"/>
		<path class="st53" d="M154.8,494c0,0,4,1.5,6,4.6s5,12,10.3,12.4c4.3,0.3,5.8-1.7,5.8-5.3l-0.4-3c0,0,1,4.2,1,6.8
			c0,1.2-0.2,3-0.6,3.9c-0.4,0.9-1.7,3-4.4,3.1c-2.7,0.2-11-1.9-14.5-12.1C155.5,497.2,154.8,494,154.8,494z"/>
		<path class="st49" d="M172.7,517.8c0-1.5-0.3-3.1,0.4-4.5c1.1-1.9,2.8-2.3,3.8-0.9c0.9,1.3,0.6,2.3,0.4,2.8
			S172.7,520.5,172.7,517.8z"/>
		<path class="st53" d="M170.3,497c0,0,4.4,0.2,4.4-1.1c0-1.3-1.5-4.5-1.8-6.2s-0.2-3.6,0.9-4.8c2.6-3.2,3.2-2.5,2.4-4.4
			c-0.9-1.7-4.2-3.3-5-3.2c-0.8,0.1-1.3,0.1-1.3,1.3s-2,7.8-2,9C168,488.8,169.1,495.6,170.3,497z"/>
		<path class="st52" d="M165,469.7c0,0-0.2-0.5-1-0.3c-0.8,0.3-1.5,0.4-2.2,1.6s-0.6,3.8,1.1,5c1.7,1.2,6,0.4,6.4,2.3
			c0.3,1.8-1.9,7.9-1.7,10.2c0.2,2.4,1.8,8.5,2.8,8.5s-2.2-5.2-1.9-8.8c0.2-3.7,2.6-8.7,1.7-10.4c-0.8-1.7-2.9-1.7-4.1-1.9
			c-1.2-0.2-3.6-0.6-3.3-2.5c0.2-1.8,0.5-2,0.5-2s1.3-0.5,1.5-0.8C164.9,470.4,165.2,470.3,165,469.7z"/>
		<path class="st52" d="M172,478.5c0.8,0,3,1.6,3.4,2.4s-1.2,2.5-1.4,2.8c-0.2,0.2-4-1.1-3.8-1.7C170.4,481.4,171.2,478.5,172,478.5
			z"/>
		<path class="st54" d="M169.1,479.1c0,0,2.3,3.1,5.4,5"/>
		<path class="st54" d="M175.5,482.9c-1,1-7.5-0.4-7.5-0.4s3.6,3.9,5.3,4.6c0,0-1.4,2.4-5.6,2.2c0,0,3,2.6,6,2.6"/>
		<path class="st54" d="M173.5,485.7c0,0-3.9,0.6-6.1,0c0,0,1.8,2.8,5.6,3.6c0,0-0.2,2.3-4.5,3.1c0,0,3.8,2.4,6.1,2.4"/>
		<path class="st54" d="M174.1,493.2c0,0-2.2,2.5-4.6,2.5"/>
	</g>
	<g>
		
			<linearGradient id="SVGID_25_" gradientUnits="userSpaceOnUse" x1="-1520.6753" y1="-4252.9355" x2="-1538.776" y2="-4224.0356" gradientTransform="matrix(0.6014 -0.7989 -0.7989 -0.6014 -2252.1265 -3246.2815)">
			<stop  offset="0" style="stop-color:#851C73"/>
			<stop  offset="1" style="stop-color:#582978"/>
		</linearGradient>
		<path class="st55" d="M192.5,515.9c0,0,0.6-2.5,0.4-2.8c-1.8-2.9-2.7,7.3-3.3,11.7s-1.5,8.7,4.3,9.1c5.8,0.2,9.7,1.2,14.1,1.2
			c7.7,0,19.4,1.7,21.8,0.9c10.1-3.6,3.7-9.4-1.8-11.7c-4.4-1.9-16.4-4.8-18-8.1s-8.3-4.2-11.2-1
			C195.1,519.3,192.5,515.9,192.5,515.9z"/>
		<path class="st52" d="M207.9,534.5c0,0,0.6-3.4-5.3-5.4c-5.9-1.9-12-1.7-12.6-6.8l0.4-3.3c0,0,2.4,4.8,11.4,5.8
			c8.2,0.9,13.8,5.7,13.4,9.9L207.9,534.5z"/>
		<path class="st53" d="M218.1,523.5c0,0,2.2-2.3,1.2-3c-1-0.8-4.5-1.5-6-2.3s-3-1.9-3.3-3.6c-1-4,0-4.1-2-4.5
			c-1.8-0.4-5.2,1.4-5.6,2c-0.3,0.6-0.6,1.1,0.2,1.7c0.9,0.6,5,6.3,6,7.1C209.5,521.8,216.1,523.8,218.1,523.5z"/>
		<path class="st52" d="M192.5,512.5c0,0-0.5-0.2-0.9,0.6c-0.2,0.8-0.6,1.4,0,2.7c0.5,1.2,2.6,2.8,4.6,2.2s4-4.5,5.6-3.7
			c1.7,0.9,5.1,6.3,7.1,7.5s8.9,2.6,9.6,1.7c0.6-0.8-6.5-0.3-9.3-2.7s-5.4-7.2-7.2-7.7c-1.8-0.4-3.1,1.3-4,2.2s-2.7,2.4-4,1.2
			c-1.4-1.2-1.3-1.6-1.3-1.6s0.3-1.4,0.3-1.6C193,513,193.1,512.8,192.5,512.5z"/>
		<path class="st52" d="M203.6,512.4c0.4-0.6,3.1-1.5,4-1.4s1.3,2.5,1.4,2.8c0,0.3-3.2,2.6-3.6,2C205,515.2,203.2,512.9,203.6,512.4
			z"/>
		<path class="st54" d="M202.5,515c0,0,3.9,0.1,7.2-1.3"/>
		<path class="st54" d="M209.4,512.2c0.2,1.3-4.8,5.8-4.8,5.8s5.3-0.5,6.8-1.4c0,0,1.6,2.7-1.1,5.8c0,0,3.2-1,5.1-3.3"/>
		<path class="st54" d="M210.3,515.5c0,0-1.4,3.4-3.2,5c0,0,2.8,0.2,5.7-2.4c0,0,2.6,1.4,0.6,5.3c0,0,3.2-1.4,4.6-3.3"/>
		<path class="st54" d="M216.7,519.5c0,0,1.2,2.4-0.3,4.3"/>
		<path class="st53" d="M202.5,533.5c0,0,4.4-5.5,12.3-5c7.9,0.5,13.4,2.2,15.6,0s-1.8-4.2-1.8-4.2s4.2,1.8,5.5,4
			c1.3,2.3,1.1,4.6-1.3,5.3c-2.5,0.6-8.3,1.2-11.5,0.6C218.1,533.8,208.9,533.3,202.5,533.5z"/>
		<path class="st49" d="M233.6,528c0,0,0,0.1,0.1,0.2c-0.2-0.2-0.5-0.3-0.8-0.4c-1-0.3-1.7,1.2-0.6,2.3c0.9,0.9,0.9,2.3,0.9,2.9
			c-2.7,1.4-8,2.2-14.4,1.1c-6.5-1-14.2-0.6-17-0.3c-2.7,0.3-12.3-0.2-12.7-5.7c0,0-1.5,2.9-1.2,6.4c0.2,2.5,6,3.9,13,3.4
			c7-0.4,14.7,0.1,22.7,0.9c8.1,0.8,12-1.1,13.3-3.9C238.1,531.9,233.6,528,233.6,528z"/>
		
			<linearGradient id="SVGID_26_" gradientUnits="userSpaceOnUse" x1="187.8603" y1="-1911.4226" x2="237.1035" y2="-1911.4226" gradientTransform="matrix(1 0 0 -1 0 -1378.1)">
			<stop  offset="0.1108" style="stop-color:#BFC4CC"/>
			<stop  offset="1" style="stop-color:#FFFFFF;stop-opacity:0"/>
		</linearGradient>
		<path class="st56" d="M233.6,528c0,0,0,0.1,0.1,0.2c-0.2-0.2-0.5-0.3-0.8-0.4c-1-0.3-1.7,1.2-0.6,2.3c0.9,0.9,0.9,2.3,0.9,2.9
			c-2.7,1.4-8,2.2-14.4,1.1c-6.5-1-14.2-0.6-17-0.3c-2.7,0.3-12.3-0.2-12.7-5.7c0,0-1.5,2.9-1.2,6.4c0.2,2.5,6,3.9,13,3.4
			c7-0.4,14.7,0.1,22.7,0.9c8.1,0.8,12-1.1,13.3-3.9C238.1,531.9,233.6,528,233.6,528z"/>
	</g>
	<g>
		<polygon class="st57" points="473.3,428.2 345.3,428.2 345.3,424.2 476.2,424.2 		"/>
	</g>
	<g>
		<path class="st57" d="M465.3,438.2H345.8c-1.1,0-1.9-0.8-2-1.9c0-0.9-4.2-86.3-10.5-119.7c-11-58.8-23.3-77.6-23.4-77.8l3.3-2.2
			c0.5,0.8,12.9,19.4,24,79.3c5.8,30.9,9.8,105.5,10.4,118.4h121L465.3,438.2z"/>
	</g>
	<g>
		<polygon class="st57" points="516.8,334.6 338.1,334.6 338.1,330.6 517.8,330.6 		"/>
	</g>
	<g>
		<path class="st57" d="M389.5,501.9h-33.9c-0.5,0-1-0.2-1.4-0.6c-20.1-20.1-10.7-63.7-10.3-65.5l3.9,0.9
			c-0.1,0.4-9.1,42.4,8.7,61.3h40L389.5,501.9z"/>
	</g>
	<path class="st58" d="M355.6,499.9l16.7-11.1c-15.3-15.3-9.2-52.6-9.2-52.6"/>
	<g>
		<polygon class="st57" points="407.8,490.7 372.3,490.7 372.3,486.7 413.7,486.7 		"/>
	</g>
	<line class="st59" x1="385.8" y1="499.9" x2="401.7" y2="488.7"/>
	<line class="st59" x1="343.8" y1="396.7" x2="491.8" y2="396.7"/>
	<path class="st59" d="M341.3,364.2c1.5,0,164.9,0,164.9,0"/>
	<g>
		<path class="st57" d="M380.1,506.9c1.2-0.6,2.5-1.3,3.9-2c-1-6.1-6.1-10.7-12.4-10.7c-4.2,0-7.9,2.1-10.1,5.3
			c0.2,0.3,0.3,0.7,0.3,1.1v5.8c0.5,0.1,1,0.2,1.5,0.3c0-4.6,3.8-8.4,8.4-8.4C376.1,498.3,380.3,501.9,380.1,506.9z"/>
	</g>
	<line class="st58" x1="371.6" y1="506.6" x2="371.6" y2="490.4"/>
	<g>
		<path class="st57" d="M350,519.8c0-4.7,3.4-8.5,7.8-9.4v6.5c1.3-0.5,2.7-1.1,4-1.6v-4.9c1.2,0.2,2.2,0.7,3.2,1.3
			c0.6,0.4,1.3,1,1.8,1.5c0.8-0.4,2.6-1.1,3.9-1.7c-1.8-2.3-4.5-4.1-7.4-4.8c-0.5-0.1-1-0.2-1.5-0.3v-5.9c0-0.4-0.1-0.8-0.3-1.1
			c-0.4-0.6-1-0.9-1.7-0.9c-1.1,0-2,0.9-2,2v5.8c-6.7,1-11.8,6.7-11.8,13.7c0,0.4,0,0.7,0,1.2C347.3,520.7,348.7,520.3,350,519.8z"
			/>
	</g>
	<line class="st59" x1="373.6" y1="332.6" x2="373.6" y2="426.8"/>
	<line class="st59" x1="407.6" y1="425.8" x2="407.6" y2="333.1"/>
	<line class="st59" x1="444.7" y1="425.8" x2="444.7" y2="333.1"/>
	<line class="st59" x1="484.7" y1="332.6" x2="479.2" y2="417.5"/>
	
		<linearGradient id="SVGID_27_" gradientUnits="userSpaceOnUse" x1="226.4307" y1="-1513.6981" x2="233.7668" y2="-1525.3441" gradientTransform="matrix(1 0 0 -1 0 -1378.1)">
		<stop  offset="0" style="stop-color:#98D8D3;stop-opacity:0.9649"/>
		<stop  offset="1" style="stop-color:#98D8D3;stop-opacity:0"/>
	</linearGradient>
	<path class="st60" d="M212.4,128c0,0,8.6,13.6,16.3,14.6s10-2.1,10-2.1l-6-7.2C232.6,133.3,221,136.7,212.4,128z"/>
</g>
<circle class="st61" cx="262.4" cy="273.7" r="261.7"/>
<rect x="0.7" class="st61" width="524.3" height="542"/>
</svg>
