<?xml version="1.0" encoding="utf-8"?>
<!-- Generator: Adobe Illustrator 22.0.1, SVG Export Plug-In . SVG Version: 6.00 Build 0)  -->
<svg version="1.1" id="Layer_1" xmlns="http://www.w3.org/2000/svg" xmlns:xlink="http://www.w3.org/1999/xlink" x="0px" y="0px"
	 viewBox="0 0 525 525" style="enable-background:new 0 0 525 525;" xml:space="preserve">
<style type="text/css">
	.st0{fill:none;}
	.st1{clip-path:url(#SVGID_2_);fill:url(#SVGID_3_);}
	.st2{opacity:0.27;clip-path:url(#SVGID_5_);fill:url(#SVGID_6_);enable-background:new    ;}
	.st3{opacity:0.27;clip-path:url(#SVGID_8_);fill:url(#SVGID_9_);enable-background:new    ;}
	.st4{clip-path:url(#SVGID_11_);}
	.st5{fill:none;stroke:#961E4C;stroke-width:3;stroke-miterlimit:10;}
	.st6{clip-path:url(#SVGID_13_);}
	.st7{fill:#51062A;}
	.st8{clip-path:url(#SVGID_15_);}
	.st9{fill:url(#SVGID_16_);}
	.st10{fill:url(#SVGID_17_);}
	.st11{fill:url(#SVGID_18_);}
	.st12{opacity:0.27;fill:url(#SVGID_19_);enable-background:new    ;}
	.st13{opacity:0.27;fill:url(#SVGID_20_);enable-background:new    ;}
	.st14{opacity:0.27;fill:url(#SVGID_21_);enable-background:new    ;}
	.st15{opacity:0.27;fill:url(#SVGID_22_);enable-background:new    ;}
	.st16{opacity:0.27;fill:url(#SVGID_23_);enable-background:new    ;}
	.st17{opacity:0.27;fill:url(#SVGID_24_);enable-background:new    ;}
	.st18{opacity:0.27;fill:url(#SVGID_25_);enable-background:new    ;}
	.st19{opacity:0.27;fill:url(#SVGID_26_);enable-background:new    ;}
	.st20{opacity:0.27;fill:url(#SVGID_27_);enable-background:new    ;}
	.st21{fill:url(#SVGID_28_);}
	.st22{fill:#FFC2B6;}
	.st23{clip-path:url(#SVGID_30_);fill:#F8AD84;}
	.st24{clip-path:url(#SVGID_32_);fill:url(#SVGID_33_);}
	.st25{clip-path:url(#SVGID_35_);fill:url(#SVGID_36_);}
	.st26{opacity:0.65;clip-path:url(#SVGID_38_);fill:url(#SVGID_39_);enable-background:new    ;}
	.st27{clip-path:url(#SVGID_41_);}
	.st28{fill:#502870;}
	.st29{fill:#F8AD84;}
	.st30{fill:url(#SVGID_42_);}
	.st31{clip-path:url(#SVGID_44_);}
	.st32{opacity:0.8;clip-path:url(#SVGID_46_);fill:url(#SVGID_47_);enable-background:new    ;}
	.st33{clip-path:url(#SVGID_49_);fill:url(#SVGID_50_);}
	.st34{opacity:0.43;clip-path:url(#SVGID_52_);fill:url(#SVGID_53_);enable-background:new    ;}
	.st35{clip-path:url(#SVGID_55_);fill:url(#SVGID_56_);}
	.st36{opacity:0.65;clip-path:url(#SVGID_58_);fill:url(#SVGID_59_);enable-background:new    ;}
	.st37{opacity:0.65;clip-path:url(#SVGID_61_);fill:url(#SVGID_62_);enable-background:new    ;}
	.st38{clip-path:url(#SVGID_64_);fill:#F8AD84;}
	.st39{clip-path:url(#SVGID_66_);fill:#6E0001;}
	.st40{clip-path:url(#SVGID_68_);fill:#6E0001;}
	.st41{clip-path:url(#SVGID_70_);fill:#E89972;}
	.st42{clip-path:url(#SVGID_72_);fill:#DD8C68;}
	.st43{clip-path:url(#SVGID_74_);}
	.st44{fill:#BD3624;}
	.st45{fill:#FFFFFF;}
	.st46{clip-path:url(#SVGID_76_);}
	.st47{clip-path:url(#SVGID_78_);fill:#DB7556;}
	.st48{clip-path:url(#SVGID_80_);fill:#DB7556;}
	.st49{clip-path:url(#SVGID_82_);fill:#DB7556;}
	.st50{clip-path:url(#SVGID_84_);fill:#DB7556;}
	.st51{clip-path:url(#SVGID_86_);fill:#DB7556;}
	.st52{clip-path:url(#SVGID_88_);fill:#DB7556;}
	.st53{clip-path:url(#SVGID_90_);fill:#DB7556;}
	.st54{clip-path:url(#SVGID_92_);fill:#DB7556;}
	.st55{clip-path:url(#SVGID_94_);fill:#E89972;}
	.st56{clip-path:url(#SVGID_96_);fill:#961E4C;}
	.st57{opacity:0.43;clip-path:url(#SVGID_98_);fill:url(#SVGID_99_);enable-background:new    ;}
	.st58{opacity:0.34;clip-path:url(#SVGID_101_);fill:url(#SVGID_102_);enable-background:new    ;}
	.st59{clip-path:url(#SVGID_104_);fill:url(#SVGID_105_);}
	.st60{clip-path:url(#SVGID_107_);fill:url(#SVGID_108_);}
	.st61{clip-path:url(#SVGID_110_);fill:url(#SVGID_111_);}
	.st62{opacity:0.73;clip-path:url(#SVGID_113_);fill:url(#SVGID_114_);enable-background:new    ;}
	.st63{opacity:0.75;clip-path:url(#SVGID_116_);fill:#E89972;enable-background:new    ;}
	
		.st64{clip-path:url(#SVGID_118_);fill:none;stroke:#D6805F;stroke-width:0.5;stroke-linecap:round;stroke-linejoin:round;stroke-miterlimit:10;}
	.st65{opacity:0.46;clip-path:url(#SVGID_120_);fill:url(#SVGID_121_);enable-background:new    ;}
	.st66{clip-path:url(#SVGID_123_);}
	.st67{fill:#4F0E4F;}
	.st68{clip-path:url(#SVGID_125_);fill:#F8AD84;}
	.st69{clip-path:url(#SVGID_127_);fill:url(#SVGID_128_);}
	.st70{clip-path:url(#SVGID_130_);fill:url(#SVGID_131_);}
	.st71{clip-path:url(#SVGID_133_);fill:url(#SVGID_134_);}
	.st72{clip-path:url(#SVGID_136_);fill:url(#SVGID_137_);}
	.st73{clip-path:url(#SVGID_139_);fill:url(#SVGID_140_);}
	.st74{clip-path:url(#SVGID_142_);fill:url(#SVGID_143_);}
	.st75{clip-path:url(#SVGID_145_);fill:none;}
	.st76{clip-path:url(#SVGID_147_);fill:url(#SVGID_148_);}
	.st77{clip-path:url(#SVGID_150_);fill:url(#SVGID_151_);}
	.st78{clip-path:url(#SVGID_153_);}
	.st79{fill:#81C9BD;}
	.st80{fill:#67B2AC;}
	.st81{opacity:0.96;clip-path:url(#SVGID_155_);fill:url(#SVGID_156_);enable-background:new    ;}
	.st82{clip-path:url(#SVGID_158_);fill:#6E0001;}
	.st83{clip-path:url(#SVGID_160_);fill:#6E0001;}
	.st84{clip-path:url(#SVGID_162_);fill:#6E0001;}
	.st85{clip-path:url(#SVGID_164_);fill:#6E0001;}
	.st86{clip-path:url(#SVGID_166_);}
	.st87{clip-path:url(#SVGID_168_);fill:#81C9BD;}
	.st88{clip-path:url(#SVGID_170_);}
	.st89{clip-path:url(#SVGID_172_);}
	.st90{fill:#961E4C;}
	.st91{opacity:0.43;clip-path:url(#SVGID_174_);fill:url(#SVGID_175_);enable-background:new    ;}
	.st92{clip-path:url(#SVGID_177_);}
	.st93{fill:#4C2E24;}
	.st94{clip-path:url(#SVGID_179_);}
	.st95{fill:#821657;}
	.st96{fill:#932260;}
	.st97{fill:#A82A75;}
	.st98{fill:#6D0F4C;}
	.st99{fill:#C9539E;}
	.st100{clip-path:url(#SVGID_181_);}
	.st101{clip-path:url(#SVGID_183_);fill:#C9539E;}
	.st102{clip-path:url(#SVGID_185_);fill:#FFC2B6;}
	.st103{clip-path:url(#SVGID_187_);fill:#FFC2B6;}
	.st104{clip-path:url(#SVGID_189_);fill:#E5A198;}
	.st105{clip-path:url(#SVGID_191_);fill:#E5A198;}
	.st106{clip-path:url(#SVGID_193_);fill:#FFC2B6;}
	.st107{clip-path:url(#SVGID_195_);fill:#D38E89;}
</style>
<circle class="st0" cx="262.4" cy="262.6" r="260.8"/>
<g id="Layer_1_1_">
	<g>
		<g>
			<g>
				<defs>
					<circle id="SVGID_1_" cx="262.1" cy="262.8" r="260.5"/>
				</defs>
				<clipPath id="SVGID_2_">
					<use xlink:href="#SVGID_1_"  style="overflow:visible;"/>
				</clipPath>
				
					<linearGradient id="SVGID_3_" gradientUnits="userSpaceOnUse" x1="4719.2852" y1="528.1317" x2="4693.9883" y2="494.1807" gradientTransform="matrix(0.9991 -4.200788e-02 4.200788e-02 0.9991 -4330.1685 102.6077)">
					<stop  offset="0" style="stop-color:#D18563"/>
					<stop  offset="1" style="stop-color:#F8AD84"/>
				</linearGradient>
				<path class="st1" d="M400,426.2c0.8,1.2,3.3,4.2,4.6,5.8c1.5,2.2,1.9,5.4,3.2,7.7c0,0,1.5,7.8,5.5,8.5c0,0,0.8,0.2,1.2-2.2
					s-1.2-6-0.9-8.2c0.3-2.2-5.1-14.5-7.2-16.5v-0.1c-1.7,2-3.9,3.5-6.4,4.6C399.9,426.1,400,426.2,400,426.2z"/>
			</g>
		</g>
		<g>
			<g>
				<defs>
					<circle id="SVGID_4_" cx="262.1" cy="262.8" r="260.5"/>
				</defs>
				<clipPath id="SVGID_5_">
					<use xlink:href="#SVGID_4_"  style="overflow:visible;"/>
				</clipPath>
				
					<linearGradient id="SVGID_6_" gradientUnits="userSpaceOnUse" x1="4739.4038" y1="403.9643" x2="4741.7534" y2="410.2292" gradientTransform="matrix(1 0 0 1 -4331.3433 28)">
					<stop  offset="0" style="stop-color:#BD714D"/>
					<stop  offset="1" style="stop-color:#F8AD84;stop-opacity:0"/>
				</linearGradient>
				<path class="st2" d="M407.3,438.4l5.2-1.7c0,0-0.7-6-3-6s-3.9,2.4-3.9,2.4C406.2,434.2,407.3,438.4,407.3,438.4z"/>
			</g>
		</g>
		<g>
			<g>
				<defs>
					<circle id="SVGID_7_" cx="262.1" cy="262.8" r="260.5"/>
				</defs>
				<clipPath id="SVGID_8_">
					<use xlink:href="#SVGID_7_"  style="overflow:visible;"/>
				</clipPath>
				
					<linearGradient id="SVGID_9_" gradientUnits="userSpaceOnUse" x1="4741.4189" y1="411.3957" x2="4744.1128" y2="418.5788" gradientTransform="matrix(1 0 0 1 -4331.3433 28)">
					<stop  offset="0" style="stop-color:#BD714D"/>
					<stop  offset="1" style="stop-color:#F8AD84;stop-opacity:0"/>
				</linearGradient>
				<path class="st3" d="M409.9,445.5c1.4,2.4,3.8-3,3.6-3.7c-0.2-0.7-0.4-2.7-2.2-3.6c-1.8-0.8-3.4,1.5-3.4,1.5
					C408.5,442.6,408.7,443.1,409.9,445.5z"/>
			</g>
		</g>
		<g>
			<g>
				<defs>
					<circle id="SVGID_10_" cx="262.1" cy="262.8" r="260.5"/>
				</defs>
				<clipPath id="SVGID_11_">
					<use xlink:href="#SVGID_10_"  style="overflow:visible;"/>
				</clipPath>
				<g class="st4">
					<path class="st5" d="M247.1,23.1c0,0-30.9-6.4-41.4,34.4c-10.4,40.7,7.4,64.5,7.4,64.5s-31.4,91.7,37.1,103.8
						c68.6,12.3,71.6-3.2,71.6-3.2S367,234,383.1,206s-9.8-45.6-10.5-57c-0.6-11.4,14-34.4,0.6-56c-18.6-30.3-41.9-43.9-41.9-43.9
						S295.7,11,277.8,10.4C256.2,9.8,252,19.2,247.1,23.1z"/>
				</g>
			</g>
		</g>
		<g>
			<g>
				<defs>
					<circle id="SVGID_12_" cx="262.1" cy="262.8" r="260.5"/>
				</defs>
				<clipPath id="SVGID_13_">
					<use xlink:href="#SVGID_12_"  style="overflow:visible;"/>
				</clipPath>
				<g class="st6">
					<path class="st7" d="M373.4,93.2c13.3,21.7-1.3,44.6-0.6,56c0.6,11.4,26.6,29.2,10.5,57S322,222.7,322,222.7
						s-3.1,15.4-71.6,3.2c-68.6-12.2-37.1-103.8-37.1-103.8s-17.9-23.8-7.4-64.5c10.4-40.7,41.4-34.4,41.4-34.4
						c4.9-3.9,9.1-13.4,30.8-12.8c17.9,0.5,53.7,38.9,53.7,38.9S354.7,62.8,373.4,93.2z"/>
				</g>
			</g>
		</g>
		<g>
			<g>
				<defs>
					<circle id="SVGID_14_" cx="262.1" cy="262.8" r="260.5"/>
				</defs>
				<clipPath id="SVGID_15_">
					<use xlink:href="#SVGID_14_"  style="overflow:visible;"/>
				</clipPath>
				<g class="st8">
					
						<linearGradient id="SVGID_16_" gradientUnits="userSpaceOnUse" x1="5037.3936" y1="263.8661" x2="5025.293" y2="160.7867" gradientTransform="matrix(1 0 0 1 -4694.3384 28)">
						<stop  offset="0" style="stop-color:#DB8E6B"/>
						<stop  offset="1" style="stop-color:#F8AD84"/>
					</linearGradient>
					<path class="st9" d="M329.2,295.9c2.1,12,24.4,16.7,23.5-6.5c-1.1-26,0.8-71-3.1-102.5c-2.9-23.2-21.5-22.8-23.8-22
						c-18.5,6.5-11.6,40.6-11.6,40.6C317.1,233.3,327,284.4,329.2,295.9z"/>
					
						<linearGradient id="SVGID_17_" gradientUnits="userSpaceOnUse" x1="5033.9995" y1="265.0717" x2="5068.0112" y2="361.2895" gradientTransform="matrix(1 0 0 1 -4694.3384 28)">
						<stop  offset="0" style="stop-color:#DB8E6B"/>
						<stop  offset="1" style="stop-color:#F8AD84"/>
					</linearGradient>
					<path class="st10" d="M371.7,404.6c9.1,2.1,10.2-6.1,10.2-6.1s-16.5-63.7-19.8-81c-3.4-17.2-9.1-28.2-14.6-33.7
						c-5.5-5.4-15.1-2.8-17.5,6c-2.3,8.7,1.8,23.3,1.8,23.3C338.3,333.7,365.1,403,371.7,404.6z"/>
					
						<linearGradient id="SVGID_18_" gradientUnits="userSpaceOnUse" x1="5092.0225" y1="409.1311" x2="5066.4766" y2="374.8463" gradientTransform="matrix(1 0 0 1 -4694.3384 28)">
						<stop  offset="0" style="stop-color:#DB8E6B"/>
						<stop  offset="1" style="stop-color:#F8AD84"/>
					</linearGradient>
					<path class="st11" d="M400.1,423.9c0,0-6-21.4-16.5-25.8c-10.3-4.3-15.8-1.7-15.8-1.7s-1.7,9.5,1.6,15.4
						c3.3,5.8,7.5,14.4,8.4,15.2c0.9,0.8,1.3,1.3,1.3,1.3s2.8,6.3,3.6,8.3c0.9,1.8,0.7,5.6,2.9,7.9c2.3,2.2,4.3,0.4,3.8-2
						s-2-5.5-2-6s-2.9-8.2-2.9-8.2s0.9-0.5,1.5,0.1s5.1,8.9,5.4,9.1c0.3,0.3,1.6,6.2,2.1,7.2s0.4,5.9,2,7.5s3.9,0,3.9-3.1
						s-0.3-5.2-0.3-5.5s-1.7-5.6-1.7-5.6s-0.6-2.8-1.3-4.9c-0.8-2.1-2.6-4.7-2.6-4.7s3.3,4.2,4.7,6.4c1.5,2.2,1.8,5.5,2.9,7.9
						c0,0,1.2,8,5.2,8.8c0,0,0.8,0.3,1.3-2.1c0.4-2.4-0.9-6.1-0.6-8.4s-4.6-15-6.7-17.1L400.1,423.9z"/>
					
						<linearGradient id="SVGID_19_" gradientUnits="userSpaceOnUse" x1="5079.6011" y1="409.0136" x2="5082.4023" y2="416.4831" gradientTransform="matrix(1 0 0 1 -4694.3384 28)">
						<stop  offset="0" style="stop-color:#BD714D"/>
						<stop  offset="1" style="stop-color:#F8AD84;stop-opacity:0"/>
					</linearGradient>
					<path class="st12" d="M383.2,437.3c0,0,0.3,3.6,2.4,5.7c2.1,2.2,3.9-1.1,3.7-1.7c-0.1-0.4-1.7-4.9-1.7-4.9
						c-4.2-1.5-4.4,1.1-4.4,1.1V437.3z"/>
					
						<linearGradient id="SVGID_20_" gradientUnits="userSpaceOnUse" x1="5090.4434" y1="415.9893" x2="5093.2715" y2="423.5329" gradientTransform="matrix(1 0 0 1 -4694.3384 28)">
						<stop  offset="0" style="stop-color:#BD714D"/>
						<stop  offset="1" style="stop-color:#F8AD84;stop-opacity:0"/>
					</linearGradient>
					<path class="st13" d="M399.6,449.5c0-0.9-0.2-4.9-0.2-4.9s-1.1-1.8-3.3-1.8s-2.5,2.1-2.5,2.1
						C395.4,453.3,399.6,450.4,399.6,449.5z"/>
					
						<linearGradient id="SVGID_21_" gradientUnits="userSpaceOnUse" x1="5088.0835" y1="408.1674" x2="5091.1001" y2="416.2112" gradientTransform="matrix(1 0 0 1 -4694.3384 28)">
						<stop  offset="0" style="stop-color:#BD714D"/>
						<stop  offset="1" style="stop-color:#F8AD84;stop-opacity:0"/>
					</linearGradient>
					<path class="st14" d="M393,442.7l5.9-0.3l-1.3-4.4c0,0-0.6-2.8-3.4-2.9c-2.8-0.2-2.5,2.4-2.5,2.4L393,442.7z"/>
					
						<linearGradient id="SVGID_22_" gradientUnits="userSpaceOnUse" x1="5076.313" y1="400.1324" x2="5078.8955" y2="407.02" gradientTransform="matrix(1 0 0 1 -4694.3384 28)">
						<stop  offset="0" style="stop-color:#BD714D"/>
						<stop  offset="1" style="stop-color:#F8AD84;stop-opacity:0"/>
					</linearGradient>
					<path class="st15" d="M382,434.6l4.5-1.3l-1.8-5.1c-1.9-2.4-5.4,0-5.4,0L382,434.6z"/>
					
						<linearGradient id="SVGID_23_" gradientUnits="userSpaceOnUse" x1="5084.019" y1="398.6489" x2="5087.0107" y2="406.6266" gradientTransform="matrix(1 0 0 1 -4694.3384 28)">
						<stop  offset="0" style="stop-color:#BD714D"/>
						<stop  offset="1" style="stop-color:#F8AD84;stop-opacity:0"/>
					</linearGradient>
					<path class="st16" d="M390.3,434.6l4.9-3.9c0,0-2.1-4.6-5.3-4.9c-3.3-0.3-3.6,2.5-3.6,2.5L390.3,434.6z"/>
					
						<linearGradient id="SVGID_24_" gradientUnits="userSpaceOnUse" x1="5091.0405" y1="397.1508" x2="5095.0327" y2="407.7975" gradientTransform="matrix(1 0 0 1 -4694.3384 28)">
						<stop  offset="0" style="stop-color:#BD714D"/>
						<stop  offset="1" style="stop-color:#F8AD84;stop-opacity:0"/>
					</linearGradient>
					<path class="st17" d="M398.6,434.9l4-4.1l-3.9-7.2c0,0-1.7-0.6-3.9,0.5c-2.2,1.2-0.3,5.2-0.3,5.2L398.6,434.9z"/>
					
						<linearGradient id="SVGID_25_" gradientUnits="userSpaceOnUse" x1="5095.7764" y1="406.7872" x2="5098.1489" y2="413.1135" gradientTransform="matrix(1 0 0 1 -4694.3384 28)">
						<stop  offset="0" style="stop-color:#BD714D"/>
						<stop  offset="1" style="stop-color:#F8AD84;stop-opacity:0"/>
					</linearGradient>
					<path class="st18" d="M400.6,441.2l5.3-1.8c0,0-0.7-6-3-6s-3.9,2.4-3.9,2.4C399.6,437,400.6,441.2,400.6,441.2z"/>
					
						<linearGradient id="SVGID_26_" gradientUnits="userSpaceOnUse" x1="5097.7031" y1="414.3323" x2="5100.4229" y2="421.5862" gradientTransform="matrix(1 0 0 1 -4694.3384 28)">
						<stop  offset="0" style="stop-color:#BD714D"/>
						<stop  offset="1" style="stop-color:#F8AD84;stop-opacity:0"/>
					</linearGradient>
					<path class="st19" d="M403.3,448.7c1.4,2.4,3.9-3,3.6-3.8s-0.4-2.8-2.3-3.6c-1.8-0.8-3.4,1.5-3.4,1.5
						C401.8,445.6,402,446.2,403.3,448.7z"/>
					
						<linearGradient id="SVGID_27_" gradientUnits="userSpaceOnUse" x1="5072.811" y1="378.8593" x2="5082.4893" y2="397.0709" gradientTransform="matrix(1 0 0 1 -4694.3384 28)">
						<stop  offset="0" style="stop-color:#BD714D"/>
						<stop  offset="1" style="stop-color:#F8AD84;stop-opacity:0"/>
					</linearGradient>
					<path class="st20" d="M396,419.2c0.3,1.8-3.9,5.3-8.2,6.5c-4.3,1.2-10.1,0.3-10.1,0.3l-5.1-9.4c0,0-1.9-6.5,0.3-8.2
						c2.3-1.8,5.5-1.1,5.5-1.1C386,407.9,395.7,417.2,396,419.2z"/>
					
						<linearGradient id="SVGID_28_" gradientUnits="userSpaceOnUse" x1="4929.9106" y1="-16.5735" x2="4908.8877" y2="-17.2516" gradientTransform="matrix(0.9974 7.187212e-02 -7.187212e-02 0.9974 -4506.4448 77.6995)">
						<stop  offset="0" style="stop-color:#DB8E6B"/>
						<stop  offset="1" style="stop-color:#F8AD84"/>
					</linearGradient>
					<path class="st21" d="M396.8,407c2.3,2.7,2.2,5.1,4.1,8.2s8.9,8.6,10.1,9.4s0.6,2.5-1.3,2.9c-1.8,0.3-5.4,0.4-9.8-2
						s-3.6-7-6.5-7.1c-3-0.3-8.7-3-12.8-6.3c-5.3-4.4,0.1-10.1,0.1-10.1C387.5,396.6,394.5,404.4,396.8,407z"/>
					<path class="st22" d="M409.1,422.9c0,0,1.2,0.6,2.1,1.3c0.9,0.8,0.8,1.1,0.8,1.1c-0.8-0.8-1.8,0-1.8,0l-2.3-1.8
						C407.8,422.8,409.1,422.9,409.1,422.9z"/>
				</g>
			</g>
		</g>
		<g>
			<g>
				<defs>
					<circle id="SVGID_29_" cx="262.1" cy="262.8" r="260.5"/>
				</defs>
				<clipPath id="SVGID_30_">
					<use xlink:href="#SVGID_29_"  style="overflow:visible;"/>
				</clipPath>
				<path class="st23" d="M205.9,176.8c0,0-4.4,4.3-3.4,15c0.5,6,7.5,90.9,10,97.9c2.4,6.8,4.2,19.5,14.5,19.3
					c10.2-0.2,12.8-16.9,13-27.3s-5.8-67-6.9-73.8c-1.1-6.9-1.6-25-8.9-31.5C216.7,169.5,209,173.8,205.9,176.8z"/>
			</g>
		</g>
		<g>
			<g>
				<defs>
					<circle id="SVGID_31_" cx="262.1" cy="262.8" r="260.5"/>
				</defs>
				<clipPath id="SVGID_32_">
					<use xlink:href="#SVGID_31_"  style="overflow:visible;"/>
				</clipPath>
				
					<linearGradient id="SVGID_33_" gradientUnits="userSpaceOnUse" x1="239.9152" y1="263.9231" x2="203.2372" y2="250.2446" gradientTransform="matrix(1 0 0 1 0 -16)">
					<stop  offset="0" style="stop-color:#C77F5E"/>
					<stop  offset="1" style="stop-color:#F8AD84;stop-opacity:0"/>
				</linearGradient>
				<path class="st24" d="M206.6,177.4c0,0-3.8,6.7-4.1,14.5c-0.2,6.1,7.5,90.9,10,97.9c2.4,6.8,4.2,19.5,14.5,19.3
					c10.2-0.2,13.8-15.2,13-27.3c-0.6-10.4-5.8-67-6.9-73.8c-1.1-6.9-1.6-25-8.9-31.5C216.7,169.5,209.6,174.3,206.6,177.4z"/>
			</g>
		</g>
		<g>
			<g>
				<defs>
					<circle id="SVGID_34_" cx="262.1" cy="262.8" r="260.5"/>
				</defs>
				<clipPath id="SVGID_35_">
					<use xlink:href="#SVGID_34_"  style="overflow:visible;"/>
				</clipPath>
				
					<linearGradient id="SVGID_36_" gradientUnits="userSpaceOnUse" x1="662.3754" y1="-825.1356" x2="584.9371" y2="-805.3988" gradientTransform="matrix(0.6082 0.7938 -0.7938 0.6082 -824.922 265.0687)">
					<stop  offset="0" style="stop-color:#D18662"/>
					<stop  offset="1" style="stop-color:#F8AD84"/>
				</linearGradient>
				<path class="st25" d="M232.5,283.1c-13.4-14.1-31-13.1-46.4-26c-15.4-13-29.1-35-29.1-35c0.7-5.5-1.6-11.2-6.9-18.6
					c0.3-3-3.6-19.4-3.6-19.4c-5.2-8-7.3,4.4-7,10.7c-9.2-2.9-21.2-0.6-19.4,3.8c2.5,6,1.1,7.4,5.1,15.3
					c4.1,7.8,15.3,15.6,15.3,15.6s18.1,32.8,45.7,59.2s40.2,22.9,43.7,20.2C233.3,306.4,245.9,297.2,232.5,283.1z"/>
			</g>
		</g>
		<g>
			<g>
				<defs>
					<circle id="SVGID_37_" cx="262.1" cy="262.8" r="260.5"/>
				</defs>
				<clipPath id="SVGID_38_">
					<use xlink:href="#SVGID_37_"  style="overflow:visible;"/>
				</clipPath>
				
					<linearGradient id="SVGID_39_" gradientUnits="userSpaceOnUse" x1="532.3916" y1="-802.6357" x2="563.3844" y2="-799.5094" gradientTransform="matrix(0.6082 0.7938 -0.7938 0.6082 -824.922 265.0687)">
					<stop  offset="0" style="stop-color:#BF7B5A"/>
					<stop  offset="1" style="stop-color:#F8AD84"/>
				</linearGradient>
				<path class="st26" d="M143.2,234.3c-1.8-2.9-2.7-4.6-2.7-4.6s-11.3-7.8-15.3-15.6c-4.1-7.8-2.7-9.2-5.1-15.3
					c-1.8-4.5,10.1-6.7,19.4-3.8c-0.3-6.2,1.8-18.6,7-10.7c0,0,3.9,16.4,3.6,19.4c5.2,7.4,7.6,13.1,6.9,18.6c0,0,0.7,1.2,2.2,3.3
					C154.4,232.5,148.2,234.2,143.2,234.3z"/>
			</g>
		</g>
		<g>
			<g>
				<defs>
					<circle id="SVGID_40_" cx="262.1" cy="262.8" r="260.5"/>
				</defs>
				<clipPath id="SVGID_41_">
					<use xlink:href="#SVGID_40_"  style="overflow:visible;"/>
				</clipPath>
				<g class="st27">
					<path class="st28" d="M288.6,761.4c-0.4-0.1-1-0.3-1.5-0.4c0,0-8.1-23.5-13.2-39.1l0,0c-6.3-19.4-15-49.9-20.1-64.4
						c-8.4-24.4-11.5-48.5-7.5-84.9c0,0-46.9-117.4-54.3-160.9c-5.1-30.3,5.9-57.2,15.6-69.7c0,0,47.3,33.7,126.1,16.3
						c1.9,9.8,4.5,19.2,3.8,25c0,0,9.4,55.5-14.6,128.8c0,0-17.6,65.1-17.6,73.3c0,8.1-0.5,54.8-12.4,88.9v0.1
						c0.4,2.8,0.8,5.7,1.3,8.9c4.1,27.9,11.6,69.2,11.6,75c0,0-0.4,0.4-1.4,1.1C301.9,760.7,296.4,763.2,288.6,761.4z"/>
					<path class="st29" d="M334.2,806.8c12.9,8.1,7.2,14.1-0.4,15.8c-11.8,2.5-19.9-2.6-37.4-11.3c-15.1-7.3-13.4-5.7-11.7-13.3
						c1.7-7.5,5.5-20.8,5.5-24.2c0-3.3-1.5-12-1.6-12.4c7.8,1.8,13.3-0.7,15.8-2.2c0,0,4.7,14.3,6.7,22.2
						C313.2,789.3,325.2,801.1,334.2,806.8z"/>
					<path class="st29" d="M320,307.3c0,0,9.3,27.7,13.9,50.7c-78.9,17.5-126.1-16.3-126.1-16.3c4.1-5.4,7.2-8.4,7.2-8.4l19-26
						L320,307.3L320,307.3z"/>
					
						<linearGradient id="SVGID_42_" gradientUnits="userSpaceOnUse" x1="239.8694" y1="730.1953" x2="272.1251" y2="710.1338" gradientTransform="matrix(1 0 0 1 0 -16)">
						<stop  offset="0" style="stop-color:#851C73"/>
						<stop  offset="1" style="stop-color:#582978"/>
					</linearGradient>
					<path class="st30" d="M274,722L274,722l-3.8,21.3c0,0-11.6,5.8-21.3-3.8l5-82C259,672.1,267.6,702.5,274,722z"/>
					<path class="st29" d="M270.1,743.3c-4.3,14-11,33.8-12.2,45.4c-1.2,11.7-6.7,18.8-18.9,13.5c-7.8-3.4-8.2-15.4-2.9-20.8
						c5.5-5.5,6.5-16.7,9-22.2s3.5-19.7,3.5-19.7C258.5,749.2,270.1,743.3,270.1,743.3z"/>
				</g>
			</g>
		</g>
		<g>
			<g>
				<defs>
					<circle id="SVGID_43_" cx="262.1" cy="262.8" r="260.5"/>
				</defs>
				<clipPath id="SVGID_44_">
					<use xlink:href="#SVGID_43_"  style="overflow:visible;"/>
				</clipPath>
				<g class="st31">
					<path class="st29" d="M347.8,179.2c3,7-7,27.1-9.1,31.8c-2.1,4.4-2.5,5.8-1.4,9c-2.1-4.8-5-11.4-6.4-14
						c-2.3-4.5-1.8-40.8-1.8-40.8C339.6,168,344.7,172.2,347.8,179.2z"/>
					<path class="st29" d="M330.1,258.3c-0.2,0.1-0.4,0.2-0.5,0.3c-1.8,5.8-4.9,16.2-7.2,25.2c-30.8,7.5-72.8-0.2-83.5-2.3
						c-0.4-6-1-13.5-2-20.6c-0.1-0.8-0.4-1.7-0.7-2.4c-0.7-1.8-2-3.5-3.4-5.7c-6.1-9-4.2-17.7-4.2-24.5v-1c0.8-2.8,2.1-9.1,0.4-18.8
						c-2.1-12.5-6.3-32.5-10.3-38c2.3-0.8,5.1-1.6,8-2.5c10.9-3.3,24.2-7.1,27-8.2c4.5-1.9,6.6-5.1,7.2-7.6c0.7-3.7,0.3-31,0.3-31
						s-0.4-11.2,6.6-15.2c7-3.9,15.3-1,19.1,4.7c2.1,3.1,3.1,7,3.1,14.6c0,5.7,0.8,18.7,2.7,26c0.5,2.2,1.3,5.4,3.7,6.6
						c4.2,2.3,20.1,4.6,29.9,6.8c1,0.3,1.9,0.4,2.7,0.6c0,0-0.5,36.3,1.8,40.8c1.3,2.6,4.3,9.1,6.4,14c0,0.2,0.1,0.3,0.2,0.4
						c1.3,3.5,2.8,5.6,3.9,15.3C342.2,244.1,339.7,253.3,330.1,258.3z"/>
					<path class="st29" d="M322.1,314.7c3.1,7.8-3.8,13.9-10.5,16.7c-11.6,4.9-40.9,9.9-57.8,0.9c-16.9-9.1-23.3-16.4-21.8-22.6
						c8-10.2,6.8-15.3,6.8-15.3s0.3-1.3,0.3-3.3c0-1-0.1-2.2-0.1-3.6c11.3,2.2,53.3,9.5,81.6,2.3c-0.9,4-1.5,7.4-1.5,9.4
						C319.2,303.1,319.6,308,322.1,314.7z"/>
					<path class="st29" d="M228.9,208.3c1.6,9.6,0.4,16-0.4,18.8c-0.2-7.8-2.9-12.4-2.9-12.4s-20-8.9-22.5-21.6
						c-2.6-12.7,3.8-18.1,9.8-20.9c1.2-0.5,3.1-1.3,5.6-2.1C222.6,175.8,226.7,195.7,228.9,208.3z"/>
				</g>
			</g>
		</g>
		<g>
			<g>
				<defs>
					<circle id="SVGID_45_" cx="262.1" cy="262.8" r="260.5"/>
				</defs>
				<clipPath id="SVGID_46_">
					<use xlink:href="#SVGID_45_"  style="overflow:visible;"/>
				</clipPath>
				
					<linearGradient id="SVGID_47_" gradientUnits="userSpaceOnUse" x1="228.7544" y1="326.3518" x2="251.8762" y2="339.4378" gradientTransform="matrix(1 0 0 1 0 -16)">
					<stop  offset="0" style="stop-color:#D48864"/>
					<stop  offset="1" style="stop-color:#F8AD84;stop-opacity:0"/>
				</linearGradient>
				<path class="st32" d="M209.6,339.3l10.9,7.2c0,0,7.8-18.4,19.5-24.6c10-5.3,13.1-19.3,16.5-20.7c3.4-1.3,11.6-9.4,11.6-9.4
					s-13.9-1.3-29-4.4c0,0,0.2,2.2,0,4.5c-0.1,1.5-0.3,2.6-0.4,4.2c-0.2,5.7-5.3,11.2-7.4,14.1C229.1,313.3,216.9,331.5,209.6,339.3
					z"/>
			</g>
		</g>
		<g>
			<g>
				<defs>
					<circle id="SVGID_48_" cx="262.1" cy="262.8" r="260.5"/>
				</defs>
				<clipPath id="SVGID_49_">
					<use xlink:href="#SVGID_48_"  style="overflow:visible;"/>
				</clipPath>
				
					<linearGradient id="SVGID_50_" gradientUnits="userSpaceOnUse" x1="326.0364" y1="874.9042" x2="314.1468" y2="878.7557" gradientTransform="matrix(1 0 0 1 0 -554)">
					<stop  offset="0" style="stop-color:#D48864"/>
					<stop  offset="0.5103" style="stop-color:#D9906B;stop-opacity:0.6428"/>
					<stop  offset="1" style="stop-color:#E09D77;stop-opacity:0.3"/>
				</linearGradient>
				<path class="st33" d="M320.7,289.9c0,0-4.2,1.1-11.3,2c-5.5,1.1-4.1,1.4-3.7,9c-1.6,4,4.4,23.6,6.5,27.7s6.7,25.5,4,28.1
					c-2.2,0.9-27.7,2.2-32.5,2.9c0,0,18.2-1.3,27.7-2.3c12-1.3,21.1-3.9,21.1-3.9s-5.9-26.4-7.7-31.2c-0.4-1.2-4.5-13-5-14.6
					C319.5,305.7,318.1,299.7,320.7,289.9z"/>
			</g>
		</g>
		<g>
			<g>
				<defs>
					<circle id="SVGID_51_" cx="262.1" cy="262.8" r="260.5"/>
				</defs>
				<clipPath id="SVGID_52_">
					<use xlink:href="#SVGID_51_"  style="overflow:visible;"/>
				</clipPath>
				
					<linearGradient id="SVGID_53_" gradientUnits="userSpaceOnUse" x1="311.2206" y1="184.853" x2="310.0246" y2="219.0044" gradientTransform="matrix(0.9977 6.755986e-02 -6.755986e-02 0.9977 -17.5268 95.7075)">
					<stop  offset="0" style="stop-color:#E68D6C"/>
					<stop  offset="1" style="stop-color:#F8AD84;stop-opacity:0"/>
				</linearGradient>
				<path class="st34" d="M277.8,328.5c0,0,1-2.3,0.2-10.5c-0.7-8.1-0.5-17.6,2-18.4c2.5-0.7,2.7,0.7,2.5,3.3s-3,24.1-3,25.6
					C279.3,330.1,277.9,332.7,277.8,328.5z"/>
			</g>
		</g>
		<g>
			<g>
				<defs>
					<circle id="SVGID_54_" cx="262.1" cy="262.8" r="260.5"/>
				</defs>
				<clipPath id="SVGID_55_">
					<use xlink:href="#SVGID_54_"  style="overflow:visible;"/>
				</clipPath>
				
					<linearGradient id="SVGID_56_" gradientUnits="userSpaceOnUse" x1="275.4724" y1="153.4596" x2="278.3128" y2="181.2958" gradientTransform="matrix(1 0 0 1 0 -16)">
					<stop  offset="0" style="stop-color:#C47958"/>
					<stop  offset="1" style="stop-color:#F8AD84;stop-opacity:0"/>
				</linearGradient>
				<path class="st35" d="M289.9,130.7c0,0-5.5,4.3-10.2,5.1c-4.7,0.9-7.9,0.3-10.4-0.7c-4.4-1.7-8.4-4.7-8.4-4.7l0.5,17.3
					c0,0,4.7,9.7,17.6,10.4c9.9,0.5,12.1-10.8,12.1-10.8S289.6,132.7,289.9,130.7z"/>
			</g>
		</g>
		<g>
			<g>
				<defs>
					<circle id="SVGID_57_" cx="262.1" cy="262.8" r="260.5"/>
				</defs>
				<clipPath id="SVGID_58_">
					<use xlink:href="#SVGID_57_"  style="overflow:visible;"/>
				</clipPath>
				
					<linearGradient id="SVGID_59_" gradientUnits="userSpaceOnUse" x1="127.4321" y1="304.7397" x2="133.4531" y2="293.701" gradientTransform="matrix(1.0484 -5.840858e-02 6.224136e-02 0.9983 100.2541 -114.6237)">
					<stop  offset="0" style="stop-color:#E89166"/>
					<stop  offset="1" style="stop-color:#F8AD84;stop-opacity:0"/>
				</linearGradient>
				<path class="st36" d="M244,179.1c0,0,7.3,3,21.1,5.6c9.8,1.8,3.4-4-0.4-4.9c-4.7-1.2-14.1-6.9-20.7-9.7c-2.4-1.1-5.2,0.9-5,3.9
					C239,174.8,240.2,177.3,244,179.1z"/>
			</g>
		</g>
		<g>
			<g>
				<defs>
					<circle id="SVGID_60_" cx="262.1" cy="262.8" r="260.5"/>
				</defs>
				<clipPath id="SVGID_61_">
					<use xlink:href="#SVGID_60_"  style="overflow:visible;"/>
				</clipPath>
				
					<linearGradient id="SVGID_62_" gradientUnits="userSpaceOnUse" x1="-2820.5212" y1="12.8665" x2="-2814.2449" y2="1.3596" gradientTransform="matrix(-0.9739 -0.1156 -0.1152 0.9932 -2442.9231 -157.0253)">
					<stop  offset="0" style="stop-color:#E89166"/>
					<stop  offset="1" style="stop-color:#F8AD84;stop-opacity:0"/>
				</linearGradient>
				<path class="st37" d="M311,178.8c0,0-6.3,4.7-20.3,5.4c-9.2,0.4-3-4.2,0.7-4.9c4.5-0.9,14-7,20.2-9.4c2.3-0.9,4.7,1.2,4.4,4.2
					C316,174.8,314.4,176.3,311,178.8z"/>
			</g>
		</g>
		<g>
			<g>
				<defs>
					<circle id="SVGID_63_" cx="262.1" cy="262.8" r="260.5"/>
				</defs>
				<clipPath id="SVGID_64_">
					<use xlink:href="#SVGID_63_"  style="overflow:visible;"/>
				</clipPath>
				<path class="st38" d="M230.1,83.3c0,0-3.6-4.7-7.3-1c-3.8,3.6,0.3,14.1,4.6,18c4.3,3.8,7.3,5.7,7.3,5.7s3.8,21.4,17.2,28.3
					c13.4,6.8,16.6,7.1,23.2,7c6.5-0.1,17.4-10.7,20.6-15.2c3.2-4.6,9.1-15,8.8-24.3c-0.4-9.2-7.6-38.6-8.3-40.9
					c-0.8-2.3-36.8-22.5-49.1-11.6C234.5,60.5,228.8,75.4,230.1,83.3z"/>
			</g>
		</g>
		<g>
			<g>
				<defs>
					<circle id="SVGID_65_" cx="262.1" cy="262.8" r="260.5"/>
				</defs>
				<clipPath id="SVGID_66_">
					<use xlink:href="#SVGID_65_"  style="overflow:visible;"/>
				</clipPath>
				<path class="st39" d="M240.4,85c-0.3,0.4,2.1-7.2,7.9-9.3c4.8-1.7,7.4-0.2,7.6,0.8s0.5,2.1-1.9,2.1s-4.4-0.1-6.4,0.5
					C244.1,80.3,241.4,83.7,240.4,85z"/>
			</g>
		</g>
		<g>
			<g>
				<defs>
					<circle id="SVGID_67_" cx="262.1" cy="262.8" r="260.5"/>
				</defs>
				<clipPath id="SVGID_68_">
					<use xlink:href="#SVGID_67_"  style="overflow:visible;"/>
				</clipPath>
				<path class="st40" d="M293.9,80.7c0,0-2.5,5.2-6.6,6.3c-4.1,1.1-8.5-1.4-9.5-2.2c-1-0.8,5.1,0.7,8.6-0.4
					C289.8,83.2,294.4,79.5,293.9,80.7z"/>
			</g>
		</g>
		<g>
			<g>
				<defs>
					<circle id="SVGID_69_" cx="262.1" cy="262.8" r="260.5"/>
				</defs>
				<clipPath id="SVGID_70_">
					<use xlink:href="#SVGID_69_"  style="overflow:visible;"/>
				</clipPath>
				<path class="st41" d="M240.6,54.8c0,0,2.4,9.9,13,14.6s15.3,4.6,15.3,4.6s3.2,15,15.1,19.3c12,4.3,20.8,7.5,20.3,5.2
					c-1.3-7.2-3-25.1-9.1-34.4S247.4,41.7,240.6,54.8z"/>
			</g>
		</g>
		<g>
			<g>
				<defs>
					<circle id="SVGID_71_" cx="262.1" cy="262.8" r="260.5"/>
				</defs>
				<clipPath id="SVGID_72_">
					<use xlink:href="#SVGID_71_"  style="overflow:visible;"/>
				</clipPath>
				<path class="st42" d="M266.4,107.3c0,0,1.3,1.4,3.4,1.3s4-1.9,4.6-2.6s1.2,3.8-2,5.4c-3.1,1.6-5.5-1.3-5.8-2.8
					C266.3,107.1,266.4,107.3,266.4,107.3z"/>
			</g>
		</g>
		<g>
			<g>
				<defs>
					<circle id="SVGID_73_" cx="262.1" cy="262.8" r="260.5"/>
				</defs>
				<clipPath id="SVGID_74_">
					<use xlink:href="#SVGID_73_"  style="overflow:visible;"/>
				</clipPath>
				<g class="st43">
					<path class="st44" d="M260.5,119.9c0,0,2.5,2.7,3.4,3.8c2.1,2.5,5.4,5.1,10,4c4.7-1.1,6.8-3.9,8-6.4c0.5-1.1,1.1-2,1.6-2.7
						l-1.2,0.1c0,0-3.8,2.9-6.5,4.6c-1.5,0.9-4.8,1.3-6.4,0.7c-1.6-0.5-5.4-2.6-6-3c-0.1,0-0.1,0-0.1,0l-0.3-1.4
						C262,119.8,261.1,120,260.5,119.9z"/>
					<path class="st44" d="M263.1,119.6l0.3,1.4c0,0,0,0,0.1,0c1,0.4,6.4-0.1,6.4-0.1s1.2,0.9,3.4,0.5c2.2-0.4,2.7-1.3,3.8-1.6
						c1.4-0.3,3.9-0.7,3.9-0.7l1.5-0.5l1.2-0.1c0.7-0.9,1.3-1.4,1.3-1.4s-2.8,0.2-5.2,0.1c-2.4-0.1-4.8-0.4-6.3,0.9l-0.8,0.5
						c0,0-1.3-1.1-3.2-0.9C268.5,118,265.5,119,263.1,119.6z"/>
					<path class="st45" d="M263.4,121.1c0.6,0.4,4.4,2.3,6,3c1.6,0.5,4.9,0.2,6.4-0.7c2.8-1.7,6.5-4.6,6.5-4.6l-1.5,0.5
						c0,0-2.6,0.4-3.9,0.7c-1.1,0.3-1.4,1.2-3.8,1.6c-2.1,0.4-3.4-0.5-3.4-0.5S264.4,121.4,263.4,121.1z"/>
				</g>
			</g>
		</g>
		<g>
			<g>
				<defs>
					<circle id="SVGID_75_" cx="262.1" cy="262.8" r="260.5"/>
				</defs>
				<clipPath id="SVGID_76_">
					<use xlink:href="#SVGID_75_"  style="overflow:visible;"/>
				</clipPath>
				<g class="st46">
					<path class="st7" d="M334.9,66.8c0,0,2,12.5-25.2,19.6c-27.3,7.1-38.8-15.2-38.8-15.2c-29,0.7-32.9-23.9-32.9-23.9
						s0.5-14.3,31.5-9.7C300.4,41.9,333.3,57.2,334.9,66.8z"/>
				</g>
			</g>
		</g>
		<g>
			<g>
				<defs>
					<circle id="SVGID_77_" cx="316.6" cy="247" r="260.5"/>
				</defs>
				<clipPath id="SVGID_78_">
					<use xlink:href="#SVGID_77_"  style="overflow:visible;"/>
				</clipPath>
				<ellipse class="st47" cx="245" cy="101" rx="1.3" ry="1.3"/>
			</g>
		</g>
		<g>
			<g>
				<defs>
					<circle id="SVGID_79_" cx="288.5" cy="258.6" r="260.5"/>
				</defs>
				<clipPath id="SVGID_80_">
					<use xlink:href="#SVGID_79_"  style="overflow:visible;"/>
				</clipPath>
				<ellipse class="st48" cx="250.3" cy="104.2" rx="0.8" ry="0.8"/>
			</g>
		</g>
		<g>
			<g>
				<defs>
					<circle id="SVGID_81_" cx="315.1" cy="251.5" r="260.5"/>
				</defs>
				<clipPath id="SVGID_82_">
					<use xlink:href="#SVGID_81_"  style="overflow:visible;"/>
				</clipPath>
				<ellipse class="st49" cx="255.4" cy="101" rx="0.9" ry="0.9"/>
			</g>
		</g>
		<g>
			<g>
				<defs>
					<circle id="SVGID_83_" cx="316.6" cy="253.2" r="260.5"/>
				</defs>
				<clipPath id="SVGID_84_">
					<use xlink:href="#SVGID_83_"  style="overflow:visible;"/>
				</clipPath>
				<ellipse class="st50" cx="261.2" cy="97.6" rx="0.9" ry="0.9"/>
			</g>
		</g>
		<g>
			<g>
				<defs>
					<circle id="SVGID_85_" cx="318.7" cy="257" r="260.5"/>
				</defs>
				<clipPath id="SVGID_86_">
					<use xlink:href="#SVGID_85_"  style="overflow:visible;"/>
				</clipPath>
				<ellipse class="st51" cx="273.3" cy="93.2" rx="0.6" ry="0.6"/>
			</g>
		</g>
		<g>
			<g>
				<defs>
					<circle id="SVGID_87_" cx="289.9" cy="262.9" r="260.5"/>
				</defs>
				<clipPath id="SVGID_88_">
					<use xlink:href="#SVGID_87_"  style="overflow:visible;"/>
				</clipPath>
				<ellipse class="st52" cx="277" cy="97.9" rx="1" ry="1"/>
			</g>
		</g>
		<g>
			<g>
				<defs>
					<circle id="SVGID_89_" cx="290.2" cy="264.6" r="260.5"/>
				</defs>
				<clipPath id="SVGID_90_">
					<use xlink:href="#SVGID_89_"  style="overflow:visible;"/>
				</clipPath>
				<ellipse class="st53" cx="286.8" cy="97.3" rx="1" ry="1"/>
			</g>
		</g>
		<g>
			<g>
				<defs>
					<circle id="SVGID_91_" cx="289.4" cy="265.9" r="260.5"/>
				</defs>
				<clipPath id="SVGID_92_">
					<use xlink:href="#SVGID_91_"  style="overflow:visible;"/>
				</clipPath>
				<ellipse class="st54" cx="294.5" cy="102.6" rx="1" ry="1"/>
			</g>
		</g>
		<g>
			<g>
				<defs>
					<circle id="SVGID_93_" cx="262.1" cy="262.8" r="260.5"/>
				</defs>
				<clipPath id="SVGID_94_">
					<use xlink:href="#SVGID_93_"  style="overflow:visible;"/>
				</clipPath>
				<path class="st55" d="M229.7,87.1c0,0-2.7-4.7-4.9-3.6c-2.2,1.3-1.4,5.1-1.4,5.1s0.2,1.3,2.6,1.4c3.5,0.1,6.4,7.5,6.7,9.8
					C233,102.4,230.9,89.7,229.7,87.1z"/>
			</g>
		</g>
		<g>
			<g>
				<defs>
					<circle id="SVGID_95_" cx="262.1" cy="262.8" r="260.5"/>
				</defs>
				<clipPath id="SVGID_96_">
					<use xlink:href="#SVGID_95_"  style="overflow:visible;"/>
				</clipPath>
				<path class="st56" d="M230,82.6c-0.2-4.4,0.4-8.8,1.9-13c0.6-2.1,1.6-4.1,2.7-6c0.3-0.4,0.5-1,0.9-1.4l1-1.3l0.9-1.3
					c0.3-0.4,0.5-0.9,0.8-1.3c1.1-1.8,1.9-3.8,2.6-5.8c0.6-2,1.2-4.1,1.2-6.1c0.1-1-0.1-2.1-0.4-2.9l-0.1-0.4l-0.2-0.3l-0.2-0.3
					c-0.1-0.1-0.2-0.2-0.2-0.3c-0.3-0.4-0.6-0.6-1.1-1c-0.8-0.5-1.7-1-2.5-1.2c-0.4-0.1-0.8,0-1.1,0.1s-0.4,0.3-0.4,0.5
					c-0.3,0.6-0.1,1.6,0.1,2.5c0.3,1,0.6,1.9,1.1,2.9c0.8,2,1.7,3.9,2.8,5.7c2.1,3.8,4.6,7.2,7.5,10c1.5,1.4,3.1,2.7,4.9,3.7
					c1.8,1,3.8,1.7,5.8,2.2c2.1,0.5,4.1,1,6.2,1.3s4.2,0.4,6.3,0.4h0.8l0.4,0.7c3.8,6.4,9.7,12,16.7,14.4c3.5,1.2,7.3,1.5,11.2,1.5
					c1.9,0,3.8-0.2,5.7-0.4c1.9-0.3,3.8-0.6,5.6-1.1c3.7-0.9,7.3-2.2,10.8-3.9c0.3-0.1,0.3-0.2,0.4-0.3c0.1-0.1,0.3-0.2,0.3-0.4
					c0.2-0.3,0.3-0.5,0.2-0.8c-0.1-0.5-0.7-1-1.4-0.9c-0.7,0-1.5,0.5-2.1,1c-0.5,0.5-0.9,1.3-1,2.1c-0.2,1.8,0.4,3.6,1.3,5.3
					c0.9,1.6,2.2,3,3.8,4.3c1.5,1.2,3.2,2.1,5,2.9c1.8,0.7,3.7,1.3,5.5,1.7c-3.8-0.4-7.7-1.7-11.1-4c-1.6-1.2-3-2.6-4.1-4.3
					c-1.1-1.7-1.9-3.7-1.7-5.9c0.1-1.1,0.4-2.2,1.3-3c0.2-0.2,0.4-0.4,0.6-0.5c0.2-0.2,0.4-0.4,0.7-0.4c0.3-0.1,0.4-0.3,0.8-0.4
					l0.4-0.1l0.4-0.1c1.2-0.2,2.8,0.5,3,2c0.2,0.7,0,1.4-0.4,2c-0.2,0.3-0.4,0.5-0.6,0.7c-0.3,0.2-0.5,0.4-0.7,0.5
					c-3.5,2-7.2,3.4-11.1,4.5c-3.8,1.1-7.8,1.7-11.9,1.8h-1.5c-0.5,0-1,0-1.5-0.1c-0.5,0-1,0-1.5-0.1l-1.5-0.2c-1-0.1-2-0.3-3-0.4
					c-1-0.2-2-0.5-3-0.8c-3.9-1.3-7.4-3.4-10.5-6.1c-1.5-1.3-3-2.8-4.2-4.3c-1.3-1.6-2.5-3.1-3.5-5l1.2,0.7c-2.3,0-4.5-0.2-6.7-0.4
					c-2.2-0.4-4.4-0.8-6.5-1.4s-4.2-1.4-6.4-2.5c-2.1-1.1-3.8-2.5-5.5-4c-3.3-3.1-5.8-6.9-7.9-10.9c-1.1-2-2-3.9-2.8-6
					c-0.4-1-0.8-2.1-1.1-3.2c-0.2-0.5-0.3-1.2-0.3-1.8s0-1.3,0.3-2.1s1-1.4,1.8-1.7s1.5-0.3,2.1-0.1c1.3,0.3,2.4,0.9,3.3,1.6
					c0.4,0.4,0.9,0.8,1.3,1.3c0.1,0.1,0.2,0.3,0.3,0.4l0.3,0.4c0.1,0.2,0.2,0.3,0.3,0.4l0.2,0.4c0.4,1.3,0.4,2.4,0.4,3.6
					c-0.2,2.3-0.7,4.5-1.5,6.5c-0.8,2.1-1.7,4.1-3,6c-0.3,0.4-0.6,0.9-1,1.3l-1,1.3l-1,1.3c-0.4,0.4-0.6,0.9-0.9,1.3
					c-1.2,1.8-2.1,3.7-2.9,5.7c-0.8,2-1.3,4.1-1.8,6.2C230.4,78.3,230.1,80.4,230,82.6z"/>
			</g>
		</g>
		<g>
			<g>
				<defs>
					<circle id="SVGID_97_" cx="262.1" cy="262.8" r="260.5"/>
				</defs>
				<clipPath id="SVGID_98_">
					<use xlink:href="#SVGID_97_"  style="overflow:visible;"/>
				</clipPath>
				
					<linearGradient id="SVGID_99_" gradientUnits="userSpaceOnUse" x1="259.574" y1="347.0245" x2="235.2321" y2="338.8033" gradientTransform="matrix(1 0 0 1 0 -16)">
					<stop  offset="0" style="stop-color:#E68D6C"/>
					<stop  offset="1" style="stop-color:#F8AD84;stop-opacity:0"/>
				</linearGradient>
				<path class="st57" d="M262,317.6c0,0-5.4,17-5.4,21.9c0,12.8,3.4,19.1,3.4,19.1s-14.6-2.3-22.9-5.6c0,0-2.1-1.6,0-2.1
					s5.9-1.7,7.2-5.4c1.3-3.7,5.3-9.7,7-13.4c1.7-3.8,6.9-12.6,6.1-18.1c-0.8-5.5-2.9-11.3-1.4-13.4
					C257.5,298.2,263.1,313.4,262,317.6z"/>
			</g>
		</g>
		<g>
			<g>
				<defs>
					<circle id="SVGID_100_" cx="262.1" cy="262.8" r="260.5"/>
				</defs>
				<clipPath id="SVGID_101_">
					<use xlink:href="#SVGID_100_"  style="overflow:visible;"/>
				</clipPath>
				
					<linearGradient id="SVGID_102_" gradientUnits="userSpaceOnUse" x1="226.3877" y1="236.3035" x2="237.7717" y2="234.7455" gradientTransform="matrix(1 0 0 1 0 -16)">
					<stop  offset="0.1865" style="stop-color:#507D63"/>
					<stop  offset="1" style="stop-color:#74A692;stop-opacity:0.46"/>
				</linearGradient>
				<path class="st58" d="M220.6,174.1c0,0,9.8,24.4,12.8,33.8c2.9,9.3-2.8,26,2.9,34.4c5.6,8.2,12.5,14.2,23.1,13.3
					c10.7-0.9,21.2-2.1,20.3,0c-0.9,2.1-16.4,9.6-31.5,6.6c-15.2-3-19.9-15.5-19.9-23s1.7-16.7,1.4-22.4
					C229.3,209.4,225.7,186.9,220.6,174.1z"/>
			</g>
		</g>
		<g>
			<g>
				<defs>
					<circle id="SVGID_103_" cx="262.1" cy="262.8" r="260.5"/>
				</defs>
				<clipPath id="SVGID_104_">
					<use xlink:href="#SVGID_103_"  style="overflow:visible;"/>
				</clipPath>
				
					<linearGradient id="SVGID_105_" gradientUnits="userSpaceOnUse" x1="282.9536" y1="237.5004" x2="282.7366" y2="219.0571" gradientTransform="matrix(1 0 0 1 0 -16)">
					<stop  offset="0" style="stop-color:#C7754E"/>
					<stop  offset="1" style="stop-color:#F8AD84;stop-opacity:0"/>
				</linearGradient>
				<path class="st59" d="M247.8,206.6c0,0,14.9,5.3,21.3,7.7c6.6,2.4,16.7,8.7,16.7,8.7s12.2-8,16.1-10.7
					c4.8-3.2,15.8-8.5,15.8-8.5v-2c0,0-22.4,6.8-23.9,8.7c-7.8,9.2-4-4.1-10-5.5s-2.1,13.5-10.9,6.8
					C264.6,205.7,247.8,206.6,247.8,206.6z"/>
			</g>
		</g>
		<g>
			<g>
				<defs>
					<circle id="SVGID_106_" cx="262.1" cy="262.8" r="260.5"/>
				</defs>
				<clipPath id="SVGID_107_">
					<use xlink:href="#SVGID_106_"  style="overflow:visible;"/>
				</clipPath>
				
					<linearGradient id="SVGID_108_" gradientUnits="userSpaceOnUse" x1="285.0173" y1="759.0228" x2="264.0043" y2="392.2517" gradientTransform="matrix(1 0 0 1 0 -16)">
					<stop  offset="0" style="stop-color:#851C73"/>
					<stop  offset="1" style="stop-color:#582978"/>
				</linearGradient>
				<path class="st60" d="M288.6,761.4c-0.4-0.1-1-0.3-1.5-0.4c0,0-8.1-23.5-13.2-39.1l0,0c-6.3-19.4-15-49.9-20.1-64.4
					c-8.4-24.4-11.5-48.5-7.5-84.9c0,0-46.9-117.4-54.3-160.9c-5.1-30.3,8-59.9,17.6-72.4c0,0,45.2,36.4,124.1,19
					c1.9,9.8,4.5,19.2,3.8,25c0,0,11.3,37.8-12,118c0,0-20.4,77.4-20.4,85.6c0,8.1,0.1,59.8-12.3,87.5c3.7,27.1,12.8,77.6,12.8,83.9
					c0,0-0.4,0.4-1.4,1.1C301.8,760.7,296.4,763.2,288.6,761.4z"/>
			</g>
		</g>
		<g>
			<g>
				<defs>
					<circle id="SVGID_109_" cx="262.1" cy="262.8" r="260.5"/>
				</defs>
				<clipPath id="SVGID_110_">
					<use xlink:href="#SVGID_109_"  style="overflow:visible;"/>
				</clipPath>
				
					<linearGradient id="SVGID_111_" gradientUnits="userSpaceOnUse" x1="274.7975" y1="442.2008" x2="290.5991" y2="682.9233" gradientTransform="matrix(1 0 0 1 0 -16)">
					<stop  offset="0" style="stop-color:#41185C"/>
					<stop  offset="1" style="stop-color:#591563;stop-opacity:0"/>
				</linearGradient>
				<path class="st61" d="M298.5,657.4c4.8-19.5,6.4-55.9,6.4-55.9s-15-39.8-15.9-100.9c-0.4-22.2-3-47.1-0.2-63.8
					c4.9-29.3,16.9-43.2,16.9-43.2c-19.2,16.6-26.1,19.8-26.1,19.8c-14.8-22.9-40.3-24.6-40.3-24.6c23.8,3.7,29.8,29.9,29.8,29.9
					s13.2,41.6,13.2,134.1c0,0,3.1,15,1.4,20.5s-3.4,11.6-3.4,11.6s6.8,46.2,12.7,89.3C293.1,674.2,297.5,661.6,298.5,657.4z"/>
			</g>
		</g>
		<g>
			<g>
				<defs>
					<circle id="SVGID_112_" cx="262.1" cy="262.8" r="260.5"/>
				</defs>
				<clipPath id="SVGID_113_">
					<use xlink:href="#SVGID_112_"  style="overflow:visible;"/>
				</clipPath>
				
					<linearGradient id="SVGID_114_" gradientUnits="userSpaceOnUse" x1="197.103" y1="458.9216" x2="230.8679" y2="457.6474" gradientTransform="matrix(1 0 0 1 0 -16)">
					<stop  offset="0" style="stop-color:#41185C"/>
					<stop  offset="1" style="stop-color:#591563;stop-opacity:0"/>
				</linearGradient>
				<path class="st62" d="M234.5,539.1c0,0-30.6-77.2-37.4-105.4c-6.6-28.3-8-37.9-4.7-54.8c4-21.2,13.5-33.9,13.5-33.9
					s2.2,1.8-0.4,17.5c-2,11.6-11.5,16-1.2,60.7S234.5,539.1,234.5,539.1z"/>
			</g>
		</g>
		<g>
			<g>
				<defs>
					<circle id="SVGID_115_" cx="262.1" cy="262.8" r="260.5"/>
				</defs>
				<clipPath id="SVGID_116_">
					<use xlink:href="#SVGID_115_"  style="overflow:visible;"/>
				</clipPath>
				<path class="st63" d="M279.7,335.3c0,0-1.6,1.2-1.3,3.2c0.4,2.1,3,5.5,1.3,6.6c-1.8,1.1-3.8,0.7-4.5-0.4
					C274.5,343.8,276,337.6,279.7,335.3z"/>
			</g>
		</g>
		<g>
			<g>
				<defs>
					<circle id="SVGID_117_" cx="262.1" cy="262.8" r="260.5"/>
				</defs>
				<clipPath id="SVGID_118_">
					<use xlink:href="#SVGID_117_"  style="overflow:visible;"/>
				</clipPath>
				<path class="st64" d="M278.8,336c0,0-7.1,8.1-2.1,9.5c4.9,1.3,2.9-6.4,1.4-4.3c-1.3,2-1.1,2.7-1.1,2.7"/>
			</g>
		</g>
		<g>
			<g>
				<defs>
					<circle id="SVGID_119_" cx="262.1" cy="262.8" r="260.5"/>
				</defs>
				<clipPath id="SVGID_120_">
					<use xlink:href="#SVGID_119_"  style="overflow:visible;"/>
				</clipPath>
				
					<linearGradient id="SVGID_121_" gradientUnits="userSpaceOnUse" x1="231.3166" y1="235.4602" x2="230.6994" y2="219.0444" gradientTransform="matrix(1.0008 5.257587e-02 -5.304956e-02 1.0098 57.5228 112.3009)">
					<stop  offset="0" style="stop-color:#E68D6C"/>
					<stop  offset="1" style="stop-color:#F8AD84;stop-opacity:0"/>
				</linearGradient>
				<path class="st65" d="M256.4,348.2c0,0,3.3,5.1,10,3.1s8.4-2.9,11.6-2.1c3,0.8,6.4,5.9,10.9,6.7c4.4,0.7,8.1-1.5,8.1-1.5
					s-2,7.6-3.2,8.7c-2.5,2.1-30,0.4-34.7-2.2C256.3,359.3,256.4,348.2,256.4,348.2z"/>
			</g>
		</g>
		<g>
			<g>
				<defs>
					<circle id="SVGID_122_" cx="262.1" cy="262.8" r="260.5"/>
				</defs>
				<clipPath id="SVGID_123_">
					<use xlink:href="#SVGID_122_"  style="overflow:visible;"/>
				</clipPath>
				<g class="st66">
					<path class="st67" d="M332.9,353.5l1.1,5.3c0,0-31.6,8.9-68.2,5.6S206.1,344,206.1,344l3.9-4.9c0,0,24.9,16.7,56.4,20
						C297.7,362.5,332.9,353.5,332.9,353.5z"/>
				</g>
			</g>
		</g>
		<g>
			<g>
				<defs>
					<circle id="SVGID_124_" cx="262.1" cy="262.8" r="260.5"/>
				</defs>
				<clipPath id="SVGID_125_">
					<use xlink:href="#SVGID_124_"  style="overflow:visible;"/>
				</clipPath>
				<path class="st68" d="M156.3,221.4c0,0,3.7-8.8,4-10.7c0.2-1.8-1.5-5.2-1.1-8.4c0.4-3.1,0.9-6.5-1.3-8.7
					c-2.3-2.2-8.7-8.6-9.8-10s-4.2,3.6-0.6,8.3c3.6,4.8,5.6,6.2,5.6,6.2s-4.6,6.3-5.5,12.8S152.6,228,156.3,221.4z"/>
			</g>
		</g>
		<g>
			<g>
				<defs>
					<circle id="SVGID_126_" cx="262.1" cy="262.8" r="260.5"/>
				</defs>
				<clipPath id="SVGID_127_">
					<use xlink:href="#SVGID_126_"  style="overflow:visible;"/>
				</clipPath>
				
					<linearGradient id="SVGID_128_" gradientUnits="userSpaceOnUse" x1="545.4614" y1="-804.2227" x2="529.97" y2="-811.6266" gradientTransform="matrix(0.6082 0.7938 -0.7938 0.6082 -824.922 265.0687)">
					<stop  offset="0" style="stop-color:#D18662"/>
					<stop  offset="1" style="stop-color:#F8AD84"/>
				</linearGradient>
				<path class="st69" d="M146.5,184.3c0,0,0.1-3.4-1.5-4.4s-5.1-3.5-6.5,0.5s-2.2,9.6-3,12.5c-0.9,2.8,3.9,9.6,5.3,13.4
					c1.5,3.6,5.1-0.8,4.8-3.6c-0.5-2.8-3.5-7.2-3.5-7.2S145.7,189.5,146.5,184.3z"/>
			</g>
		</g>
		<g>
			<g>
				<defs>
					<circle id="SVGID_129_" cx="262.1" cy="262.8" r="260.5"/>
				</defs>
				<clipPath id="SVGID_130_">
					<use xlink:href="#SVGID_129_"  style="overflow:visible;"/>
				</clipPath>
				
					<linearGradient id="SVGID_131_" gradientUnits="userSpaceOnUse" x1="542.6082" y1="-798.2527" x2="527.1168" y2="-805.6568" gradientTransform="matrix(0.6082 0.7938 -0.7938 0.6082 -824.922 265.0687)">
					<stop  offset="0" style="stop-color:#D18662"/>
					<stop  offset="1" style="stop-color:#F8AD84"/>
				</linearGradient>
				<path class="st70" d="M140.7,206c0,0-0.1,2.4-1.5,2.3c-1.5-0.2-9-11.9-9-11.9s-0.3-11.6,0.2-14.8s3-3.7,4.8-2.8s3,2.3,3,2.3
					L140.7,206z"/>
			</g>
		</g>
		<g>
			<g>
				<defs>
					<circle id="SVGID_132_" cx="262.1" cy="262.8" r="260.5"/>
				</defs>
				<clipPath id="SVGID_133_">
					<use xlink:href="#SVGID_132_"  style="overflow:visible;"/>
				</clipPath>
				
					<linearGradient id="SVGID_134_" gradientUnits="userSpaceOnUse" x1="540.3653" y1="-793.5598" x2="524.8738" y2="-800.9639" gradientTransform="matrix(0.6082 0.7938 -0.7938 0.6082 -824.922 265.0687)">
					<stop  offset="0" style="stop-color:#D18662"/>
					<stop  offset="1" style="stop-color:#F8AD84"/>
				</linearGradient>
				<path class="st71" d="M130.2,182.4c0,0-1.3-2.3-3.8-2c-2.4,0.5-2.6,4.9-2.9,7.1c-0.3,2.1,1.5,10,1.5,10s8.8,12.6,10.9,14.2
					c2,1.6,3.9-0.9,2.6-4.1c-1.4-3.2-7.4-11.8-7.4-11.8S131.4,184.7,130.2,182.4z"/>
			</g>
		</g>
		<g>
			<g>
				<defs>
					<circle id="SVGID_135_" cx="262.1" cy="262.8" r="260.5"/>
				</defs>
				<clipPath id="SVGID_136_">
					<use xlink:href="#SVGID_135_"  style="overflow:visible;"/>
				</clipPath>
				
					<linearGradient id="SVGID_137_" gradientUnits="userSpaceOnUse" x1="537.5251" y1="-787.6176" x2="522.0337" y2="-795.0216" gradientTransform="matrix(0.6082 0.7938 -0.7938 0.6082 -824.922 265.0687)">
					<stop  offset="0" style="stop-color:#D18662"/>
					<stop  offset="1" style="stop-color:#F8AD84"/>
				</linearGradient>
				<path class="st72" d="M123.8,185.3c0,0-3.2-0.7-4.2,1.3s-0.8,7.8-0.9,8.4c-0.1,0.5,8,9.2,9.5,10.4c1.4,1.3,2.2-0.2,2.2-0.2
					L123.8,185.3z"/>
			</g>
		</g>
		<g>
			<g>
				<defs>
					<circle id="SVGID_138_" cx="262.1" cy="262.8" r="260.5"/>
				</defs>
				<clipPath id="SVGID_139_">
					<use xlink:href="#SVGID_138_"  style="overflow:visible;"/>
				</clipPath>
				
					<linearGradient id="SVGID_140_" gradientUnits="userSpaceOnUse" x1="528.7447" y1="-807.8103" x2="523.9605" y2="-802.5704" gradientTransform="matrix(0.6082 0.7938 -0.7938 0.6082 -824.922 265.0687)">
					<stop  offset="0" style="stop-color:#C47E5C"/>
					<stop  offset="1" style="stop-color:#F8AD83"/>
				</linearGradient>
				<path class="st73" d="M140.7,206c0,0-0.1,2.4-1.5,2.3c-1.5-0.2-9-11.9-9-11.9s-0.3-11.6,0.2-14.8s3-3.7,4.8-2.8s3,2.3,3,2.3
					L140.7,206z"/>
			</g>
		</g>
		<g>
			<g>
				<defs>
					<circle id="SVGID_141_" cx="262.1" cy="262.8" r="260.5"/>
				</defs>
				<clipPath id="SVGID_142_">
					<use xlink:href="#SVGID_141_"  style="overflow:visible;"/>
				</clipPath>
				
					<linearGradient id="SVGID_143_" gradientUnits="userSpaceOnUse" x1="522.8315" y1="-797.0302" x2="518.1613" y2="-794.2394" gradientTransform="matrix(0.6082 0.7938 -0.7938 0.6082 -824.922 265.0687)">
					<stop  offset="0" style="stop-color:#D48863"/>
					<stop  offset="1" style="stop-color:#F8AD83"/>
				</linearGradient>
				<path class="st74" d="M123.8,185.3c0,0-3.2-0.7-4.2,1.3s-0.8,7.8-0.9,8.4c-0.1,0.5,8,9.2,9.5,10.4c1.4,1.3,2.2-0.2,2.2-0.2
					L123.8,185.3z"/>
			</g>
		</g>
		<g>
			<g>
				<defs>
					<circle id="SVGID_144_" cx="262.1" cy="262.8" r="260.5"/>
				</defs>
				<clipPath id="SVGID_145_">
					<use xlink:href="#SVGID_144_"  style="overflow:visible;"/>
				</clipPath>
				<path class="st75" d="M138.2,308.4c3-4,5.5-10,2.7-18.1"/>
			</g>
		</g>
		<g>
			<g>
				<defs>
					<circle id="SVGID_146_" cx="262.1" cy="262.8" r="260.5"/>
				</defs>
				<clipPath id="SVGID_147_">
					<use xlink:href="#SVGID_146_"  style="overflow:visible;"/>
				</clipPath>
				
					<linearGradient id="SVGID_148_" gradientUnits="userSpaceOnUse" x1="534.3503" y1="-813.4875" x2="527.6298" y2="-809.4437" gradientTransform="matrix(0.6082 0.7938 -0.7938 0.6082 -824.922 265.0687)">
					<stop  offset="0" style="stop-color:#D18662"/>
					<stop  offset="1" style="stop-color:#FFB287"/>
				</linearGradient>
				<path class="st76" d="M146.5,184.3c0,0,0.1-3.4-1.5-4.4s-5.1-3.5-6.5,0.5s-2.2,9.6-3,12.5c-0.9,2.8,3.9,9.6,5.3,13.4
					c1.5,3.6,5.1-0.8,4.8-3.6c-0.5-2.8-3.5-7.2-3.5-7.2S145.7,189.5,146.5,184.3z"/>
			</g>
		</g>
		<g>
			<g>
				<defs>
					<circle id="SVGID_149_" cx="262.1" cy="262.8" r="260.5"/>
				</defs>
				<clipPath id="SVGID_150_">
					<use xlink:href="#SVGID_149_"  style="overflow:visible;"/>
				</clipPath>
				
					<linearGradient id="SVGID_151_" gradientUnits="userSpaceOnUse" x1="528.7838" y1="-803.2555" x2="524.7972" y2="-798.0156" gradientTransform="matrix(0.6082 0.7938 -0.7938 0.6082 -824.922 265.0687)">
					<stop  offset="0" style="stop-color:#D48863"/>
					<stop  offset="1" style="stop-color:#F8AD83"/>
				</linearGradient>
				<path class="st77" d="M130.2,182.4c0,0-1.3-2.3-3.8-2c-2.4,0.5-2.6,4.9-2.9,7.1c-0.3,2.1,1.5,10,1.5,10s8.8,12.6,10.9,14.2
					c2,1.6,3.9-0.9,2.6-4.1c-1.4-3.2-7.4-11.8-7.4-11.8S131.4,184.7,130.2,182.4z"/>
			</g>
		</g>
		<g>
			<g>
				<defs>
					<circle id="SVGID_152_" cx="262.1" cy="262.8" r="260.5"/>
				</defs>
				<clipPath id="SVGID_153_">
					<use xlink:href="#SVGID_152_"  style="overflow:visible;"/>
				</clipPath>
				<g id="XMLID_14_" class="st78">
					<g>
						<path class="st79" d="M341.2,235.5c1,8.4-1.3,17.8-11,22.7c-0.2,0.1-0.5,0.4-0.7,0.5c-1.8,5.8-4.9,16-7.2,25
							c-30.8,7.5-72.9-0.3-83.7-2.4c-0.4-6-1-13.5-2-20.6c-0.1-0.9-0.4-1.8-0.7-2.5c-0.7-1.8-2-3.5-3.5-5.7
							c-6.1-9.1-4.2-17.7-4.2-24.5c0-0.4,0-0.7,0-1c0.8-2.8,2.1-9.1,0.4-18.8c-2.1-12.6-6.3-32.6-10.3-38c2.3-0.7,5.3-1.6,8.2-2.5
							c2.4,5.2,14.2,30.1,16.9,38.8l1.1,3.2c0,0,13.1,2.7,27,9.8c10.9,5.5,14.1,7.5,14.1,7.5s9.9-5.9,20.5-12.7
							c10.2-6.5,14.9-8.3,14.9-8.3s0-0.3,0-0.8c0.2-4.8,1-31.1,3.6-41.3c2,0.4,5.2,1.3,6.6,1.7c0,0-3.1,35.6-0.8,40
							c1.4,2.6,4.3,9.1,6.4,14c0,0.2,0.3,0.3,0.4,0.4C338.4,223.7,340.1,225.8,341.2,235.5z"/>
						<path class="st80" d="M324.8,163.9c0,0.1,0,0.2-0.1,0.3c-0.1,0-0.2,0-0.3,0c-2.6,9.8-3.2,36.4-3.3,41.3c0,0.5,0,0.8,0,0.8
							s-4.6,1.8-14.9,8.3c-10.5,6.7-20.5,12.7-20.5,12.7s-3.1-2.1-14.1-7.5c-14.1-7.2-27.3-9.7-27.3-9.7l-1.1-3.2
							c-2.7-8.6-14.4-33.7-16.8-38.9c0.6-0.2,1.2-0.4,1.8-0.5c2.5,4.3,9.8,17.5,19.4,39.4c0,0,27.3,8.4,37.7,16.3
							c0,0,17.9-12.6,32.1-19c0,0,1.2-30.3,4.1-40.5C322.8,163.5,323.8,163.7,324.8,163.9z"/>
						<path class="st80" d="M322.3,283.5c-0.5,2.1-1.2,4.6-1.6,6.4c-28.4,7.2-70.4-0.1-81.7-2.3c-0.1-1.8-0.3-4.2-0.4-6.4
							C249.3,283.4,291.5,291,322.3,283.5z"/>
					</g>
				</g>
			</g>
		</g>
		<g>
			<g>
				<defs>
					<circle id="SVGID_154_" cx="262.1" cy="262.8" r="260.5"/>
				</defs>
				<clipPath id="SVGID_155_">
					<use xlink:href="#SVGID_154_"  style="overflow:visible;"/>
				</clipPath>
				
					<linearGradient id="SVGID_156_" gradientUnits="userSpaceOnUse" x1="282.4724" y1="288.2284" x2="281.9462" y2="264.025" gradientTransform="matrix(1 0 0 1 0 -16)">
					<stop  offset="0" style="stop-color:#59BAC2;stop-opacity:0"/>
					<stop  offset="1" style="stop-color:#387E85"/>
				</linearGradient>
				<path class="st81" d="M329.6,258.9c0,0-12.2,5-25.6,1.1c-14.6-4.3-18.1-3-28.9,0.6c-10.3,3.4-30.2,5.5-40.4-4.7
					c0,0,1.7,2.5,2.1,4.4c0.3,1.9,0.9,7.1,0.9,7.1s10.8,6.8,22.5,7.5c11.8,0.7,22.6-1.1,29.6,3.2c7.1,4.3,26.6,9.1,32.2,6.7
					L329.6,258.9z"/>
			</g>
		</g>
		<g>
			<g>
				<defs>
					<circle id="SVGID_157_" cx="262.1" cy="262.8" r="260.5"/>
				</defs>
				<clipPath id="SVGID_158_">
					<use xlink:href="#SVGID_157_"  style="overflow:visible;"/>
				</clipPath>
				<path class="st82" d="M245.1,91.9c0,0,2.2-4.8,6.1-5.8c3.8-1,7.8,1.3,8.8,2s-4.7-0.6-7.9,0.4C248.8,89.6,244.5,93.1,245.1,91.9z
					"/>
			</g>
		</g>
		<g>
			<g>
				<defs>
					<circle id="SVGID_159_" cx="262.1" cy="262.8" r="260.5"/>
				</defs>
				<clipPath id="SVGID_160_">
					<use xlink:href="#SVGID_159_"  style="overflow:visible;"/>
				</clipPath>
				<path class="st83" d="M249.6,88.4c0,0-0.5,5.7,2.1,7.2c2.7,1.4,3.8-1.2,4.3-2.8c0.5-1.6-0.5-5.2-1.3-5.8
					C253.9,86.3,249.6,88.4,249.6,88.4z"/>
			</g>
		</g>
		<g>
			<g>
				<defs>
					<circle id="SVGID_161_" cx="262.1" cy="262.8" r="260.5"/>
				</defs>
				<clipPath id="SVGID_162_">
					<use xlink:href="#SVGID_161_"  style="overflow:visible;"/>
				</clipPath>
				<path class="st84" d="M293.5,86.3c0,0-3.4-4.1-7.3-4.1s-7.2,3.1-8,4c-0.7,1,4.4-1.7,7.8-1.5C289.3,85,294.3,87.3,293.5,86.3z"/>
			</g>
		</g>
		<g>
			<g>
				<defs>
					<circle id="SVGID_163_" cx="262.1" cy="262.8" r="260.5"/>
				</defs>
				<clipPath id="SVGID_164_">
					<use xlink:href="#SVGID_163_"  style="overflow:visible;"/>
				</clipPath>
				<path class="st85" d="M288.1,84.1c0,0,1.9,5.5-0.3,7.4c-2.2,2-3.9-0.2-4.8-1.6s-0.8-5.2-0.2-6S288.1,84.1,288.1,84.1z"/>
			</g>
		</g>
		<g>
			<g>
				<defs>
					<circle id="SVGID_165_" cx="262.1" cy="262.8" r="260.5"/>
				</defs>
				<clipPath id="SVGID_166_">
					<use xlink:href="#SVGID_165_"  style="overflow:visible;"/>
				</clipPath>
				<g class="st86">
					<path class="st79" d="M242.5,203.8l-13.1,8.6c-2.2-18.2-10.9-42.2-10.9-42.2l8.1-2.5C229.2,171.2,242.5,203.8,242.5,203.8z"/>
				</g>
			</g>
		</g>
		<g>
			<g>
				<defs>
					<circle id="SVGID_167_" cx="262.1" cy="262.8" r="260.5"/>
				</defs>
				<clipPath id="SVGID_168_">
					<use xlink:href="#SVGID_167_"  style="overflow:visible;"/>
				</clipPath>
				<path class="st87" d="M221.8,177.4c0,0,9.6,22.7,12.4,31.5c2.7,8.8-1.6,20.6-0.2,32.4c1.1,8.9,8.6,15.6,21.4,16.9
					c10,1.1,23-3.4,22.2-1.3s-16.6,7.6-30.9,4.7c-14.4-2.8-17.6-15.8-17.6-22.8c0-7.1,1.6-15.8,1.3-21.1
					C230,210.8,226.6,189.5,221.8,177.4z"/>
			</g>
		</g>
		<g>
			<g>
				<defs>
					<circle id="SVGID_169_" cx="262.1" cy="262.8" r="260.5"/>
				</defs>
				<clipPath id="SVGID_170_">
					<use xlink:href="#SVGID_169_"  style="overflow:visible;"/>
				</clipPath>
				<g id="XMLID_13_" class="st88">
					<g>
						<path class="st7" d="M335.1,66.8c0,0,2,12.5-25.3,19.7c-27.3,7.1-38.9-15.3-38.9-15.3c-29.1,0.7-33-24-33-24
							s0.5-14.4,31.6-9.8C300.6,41.9,333.5,57.2,335.1,66.8z"/>
					</g>
				</g>
			</g>
		</g>
		<g>
			<g>
				<defs>
					<circle id="SVGID_171_" cx="262.1" cy="262.8" r="260.5"/>
				</defs>
				<clipPath id="SVGID_172_">
					<use xlink:href="#SVGID_171_"  style="overflow:visible;"/>
				</clipPath>
				<g class="st89">
					<path class="st90" d="M230,82.7c-0.2-4.4,0.4-8.8,1.9-13.1c0.6-2.1,1.6-4.1,2.7-6.1c0.3-0.4,0.5-1,0.9-1.4l1-1.3l0.9-1.3
						c0.3-0.4,0.5-0.9,0.8-1.3c1.1-1.9,2-3.8,2.6-5.8s1.2-4.1,1.2-6.2c0.1-1-0.1-2.1-0.4-2.9l-0.1-0.4l-0.2-0.3l-0.2-0.3
						c-0.1-0.1-0.2-0.2-0.2-0.3c-0.3-0.4-0.6-0.6-1.1-1c-0.8-0.5-1.7-1-2.5-1.2c-0.4-0.1-0.8-0.1-1.1,0.1c-0.3,0.1-0.4,0.3-0.5,0.5
						c-0.3,0.6-0.1,1.6,0.1,2.5c0.3,1,0.6,1.9,1.1,3c0.8,2,1.7,3.9,2.8,5.8c2.1,3.8,4.6,7.2,7.6,10.1c1.5,1.4,3.1,2.7,5,3.7
						c1.8,1,3.8,1.7,5.8,2.2c2.1,0.5,4.1,1,6.2,1.3s4.3,0.4,6.3,0.4h0.8l0.4,0.7c3.8,6.4,9.7,12,16.8,14.4c3.5,1.2,7.3,1.5,11.3,1.5
						c1.9,0,3.8-0.2,5.7-0.4c1.9-0.3,3.8-0.6,5.6-1.1c3.8-0.9,7.3-2.2,10.8-4c0.3-0.1,0.3-0.2,0.4-0.3c0.1-0.1,0.3-0.2,0.3-0.4
						c0.2-0.3,0.3-0.5,0.2-0.8c-0.1-0.5-0.7-1-1.4-0.9c-0.7,0-1.5,0.5-2.1,1c-0.5,0.5-0.9,1.3-1,2.2c-0.2,1.8,0.4,3.7,1.3,5.3
						c0.9,1.6,2.2,3,3.8,4.3c1.5,1.2,3.2,2.1,5,2.9c1.8,0.7,3.7,1.3,5.6,1.7c-3.8-0.5-7.8-1.7-11.1-4c-1.6-1.2-3-2.6-4.2-4.3
						c-1.1-1.7-1.9-3.8-1.7-5.9c0.1-1.1,0.4-2.2,1.3-3c0.2-0.2,0.4-0.4,0.6-0.5c0.2-0.2,0.4-0.4,0.7-0.4c0.3-0.1,0.5-0.3,0.8-0.4
						l0.4-0.1l0.4-0.1c1.2-0.2,2.8,0.5,3.1,2c0.2,0.7,0,1.4-0.4,2.1c-0.2,0.4-0.4,0.5-0.6,0.8c-0.3,0.2-0.5,0.4-0.7,0.5
						c-3.5,2-7.2,3.4-11.2,4.5c-3.8,1.1-7.8,1.7-11.9,1.8h-1.5c-0.5,0-1,0-1.5-0.1c-0.5,0-1,0-1.5-0.1l-1.5-0.2c-1-0.1-2-0.3-3-0.4
						c-1-0.2-2-0.5-3-0.8c-3.9-1.3-7.4-3.4-10.7-6.1c-1.5-1.3-3-2.8-4.2-4.4c-1.3-1.6-2.5-3.1-3.5-5l1.2,0.7c-2.3,0-4.5-0.2-6.7-0.4
						c-2.2-0.4-4.4-0.8-6.5-1.4s-4.3-1.4-6.4-2.5c-2.1-1.1-3.8-2.5-5.5-4.1c-3.3-3.1-5.8-6.9-7.9-10.9c-1.1-2-2-4-2.8-6.1
						c-0.4-1-0.8-2.1-1.1-3.2c-0.2-0.5-0.3-1.2-0.3-1.8s0-1.3,0.3-2.1c0.3-0.7,1-1.4,1.8-1.7s1.5-0.3,2.1-0.1
						c1.3,0.3,2.4,0.9,3.3,1.6c0.4,0.4,0.9,0.8,1.3,1.3c0.1,0.1,0.2,0.3,0.3,0.4l0.3,0.4c0.1,0.2,0.2,0.3,0.3,0.4l0.2,0.4
						c0.4,1.3,0.4,2.4,0.4,3.6c-0.2,2.3-0.7,4.5-1.5,6.6s-1.7,4.1-3,6c-0.3,0.4-0.6,0.9-1,1.3l-1,1.3l-1,1.3
						c-0.4,0.4-0.6,0.9-0.9,1.3c-1.2,1.8-2.1,3.8-2.9,5.7c-0.8,2.1-1.3,4.1-1.8,6.3C230.3,78.4,230,80.5,230,82.7z"/>
				</g>
			</g>
		</g>
		<g>
			<g>
				<defs>
					<circle id="SVGID_173_" cx="262.1" cy="262.8" r="260.5"/>
				</defs>
				<clipPath id="SVGID_174_">
					<use xlink:href="#SVGID_173_"  style="overflow:visible;"/>
				</clipPath>
				
					<linearGradient id="SVGID_175_" gradientUnits="userSpaceOnUse" x1="297.939" y1="342.6802" x2="325.6754" y2="341.7303" gradientTransform="matrix(1 0 0 1 0 -16)">
					<stop  offset="0" style="stop-color:#E68D6C"/>
					<stop  offset="1" style="stop-color:#F8AD84;stop-opacity:0"/>
				</linearGradient>
				<path class="st91" d="M302.6,294.5c0,0-6.8,15.7-5.6,23c1.2,7.2,1,16.7,1,22.6c0,7.5-4.5,19.6-4.5,19.6s9.9-1,19.7-2.3
					c8.9-1.3-3.7-8.9-3.2-17.4c0.7-12.2-5.7-27-5.7-33.3c0-6.2,2.1-12.3,8.6-13.4L302.6,294.5z"/>
			</g>
		</g>
		<g>
			<g>
				<defs>
					<circle id="SVGID_176_" cx="262.1" cy="262.8" r="260.5"/>
				</defs>
				<clipPath id="SVGID_177_">
					<use xlink:href="#SVGID_176_"  style="overflow:visible;"/>
				</clipPath>
				<g class="st92">
					<path class="st93" d="M190.3,251.3h-90.1c-0.9,0-1.6-0.7-1.8-1.5c0-0.3-1-8.4,12.7-15.2c2.4-1.2,4.7-2.3,7-3.4
						c12.2-5.8,22.7-10.9,28.5-16.4c0.1-0.1,0.2-0.2,0.3-0.3c0,0,0,0,0.1,0c2.8-2.8,4.4-5.7,4.4-9c0-3.2-0.8-5.5-2.5-6.9
						c-2.6-2.2-5.8-1.7-5.8-1.6c0,0-0.5-0.8-1.1-1.6c-0.1-0.2,1.2-2,1.2-2c0.2,0,4.1-0.7,8,2.6c2.5,2.1,3.8,5.4,3.8,9.7
						c0,3.9-1.6,7.3-4.5,10.5c2.4,2.7,9,9.4,18,13c23.2,9.1,23.6,19.4,23.6,20.5C192,250.5,191.2,251.3,190.3,251.3z M102.2,247.7
						H188c-1.2-3-5.6-9.2-20.8-15.3c-9.5-3.8-16.5-10.8-19.3-13.9c-6.4,5.5-16.6,10.3-28.2,15.9c-2.3,1.1-4.6,2.2-7,3.4
						C104.9,241.6,102.7,245.6,102.2,247.7z"/>
				</g>
			</g>
		</g>
		<g>
			<g>
				<defs>
					<circle id="SVGID_178_" cx="262.1" cy="262.8" r="260.5"/>
				</defs>
				<clipPath id="SVGID_179_">
					<use xlink:href="#SVGID_178_"  style="overflow:visible;"/>
				</clipPath>
				<g class="st94">
					<g id="XMLID_12_">
						<g>
							<path class="st95" d="M205,448.5c5.9,27.9,14.6,80.2,7.3,113.7c-7.2,33.7-28.1,44.2-46.7,50.9c-1.8,0.7-4.1,1.2-6.7,1.6
								c6.8-4,12.9-9.6,16.2-17.2c12.2-27.6,26.4-62.1,22.6-126.1c-2.8-47.9-9.4-77.4-12.9-89.3c0,0.1,0.1,0.1,0.1,0.2
								C197.5,410.4,199,420.4,205,448.5z"/>
							<path class="st96" d="M107.4,374.6L107.4,374.6c0,0,0.2-11.6-0.9-22.3c4.1-3.7,12.2-9,26.2-12c15.5-3.1,25.5,2.3,31.3,4.7
								c6.8,2.9,15.5,12.5,19.1,16.8c-0.1,4.4-0.3,9-0.5,13.6c-0.1,1.9,1,4,1.9,5.9c3.5,11.8,10.9,41.3,13.7,89.2
								c3.8,64-11.3,98.5-23.4,126.1c-3.3,7.5-9.2,13.1-16.2,17.2c-12.1,1.9-31.4,1.5-47.9,0.7c-10.2-24.3-34.1-85.1-34.1-124.2
								C76.8,445,102.7,385.2,107.4,374.6z"/>
							<path class="st95" d="M123.1,338.2c9.5-9.5,35.7-1.7,35.7-1.7s-8.7-7.5-17.9-7.5C131.9,329,123.6,337.6,123.1,338.2z
								 M194.3,303.6c1.2,4.6,1.9,8.9,1.2,11.7c-2.2,8.7-12.1,24.2-12.1,24.2s0.1,10.5-0.3,23.4c-3.6-4.3-12.3-13.9-19.1-16.8
								c-5.8-2.5-15.9-7.9-31.3-4.7c-14.1,2.8-22.1,8.1-26.2,12c-0.7-6.7-1.8-13.2-3.8-16.4c-5.2-8.4-10.3-17.1-11.6-26
								c-0.2-1.4,0-3.1,0.4-5c0.1,0.4,2.5,11.6,16.4,15.4c14.1,3.9,18.2-2.7,32.5-2.7s25.9,8.2,36.8,3.9
								C186.5,318.7,192.7,306.8,194.3,303.6z"/>
							<path class="st96" d="M194.3,303.6c-1.6,3.2-7.8,15.2-17.2,19c-10.9,4.4-22.5-3.9-36.8-3.9s-18.4,6.5-32.5,2.7
								c-13.8-3.8-16.3-15-16.4-15.4l0,0c1.3-6.1,5.2-14,8-19.2c4,3,22.6,16.1,39.5,16.1c15.2,0,28.8-11.7,33.8-16.4
								c5.3-3.3,9.1-6,9.1-6l-1.5-45.3l5.1,3.5l0.5,43.1C186.2,281.5,191.6,293.3,194.3,303.6z"/>
							<path class="st97" d="M145.4,299.5c7.3-1.2,19.3-8,27.5-13.2c-4.9,4.8-18.6,16.4-33.8,16.4c-17,0-35.5-13.1-39.5-16.1
								c1.8-3.3,3.2-5.5,3.2-5.5l3.3-44.6l4.6-2.1l-1.3,48.6C109.3,283.1,133.3,301.5,145.4,299.5z"/>
							<path class="st98" d="M140.9,329c9.2,0,17.9,7.5,17.9,7.5s-26.1-7.8-35.7,1.7C123.6,337.6,131.9,329,140.9,329z"/>
							<path class="st95" d="M107.4,375.6L107.4,375.6c-4.7,10.7-30.6,70.4-30.6,115.7c0,39.1,23.8,99.9,34.1,124.2
								c-16.6-0.9-30-2.3-30-2.3s-8.3-58.8-10.4-76.2c-2.2-17.4-3.7-56.7,8.1-98.5C85.6,413.8,107.4,375.6,107.4,375.6z"/>
						</g>
					</g>
					<path class="st98" d="M109.3,283.1c0,0-1.7,1.8,1.6,5.1c3.2,3.2,21.8,14.4,32.2,14.4c10.4,0,37.9-18,39.4-19.4
						c1.4-1.4-0.5-3.5-0.5-3.5s-24.9,17.1-35.3,19C136.5,300.5,119.8,290.6,109.3,283.1z"/>
					<g>
						<path class="st99" d="M144.1,301.1c-0.3,0-0.6,0-1,0c-0.3,0-0.5-0.2-0.5-0.5s0.3-0.5,0.5-0.5c0.3,0,0.7,0,1,0l0,0
							c0.3,0,0.5,0.2,0.5,0.5C144.7,300.9,144.4,301.1,144.1,301.1z M147.1,300.9c-0.2,0-0.5-0.2-0.5-0.4c0-0.3,0.1-0.5,0.4-0.6
							c0.3,0,0.6-0.1,1-0.2c0.3-0.1,0.5,0.1,0.6,0.4s-0.1,0.5-0.4,0.6C147.9,300.8,147.6,300.9,147.1,300.9
							C147.2,300.9,147.2,300.9,147.1,300.9z M140.2,300.8C140.1,300.8,140.1,300.8,140.2,300.8c-0.4-0.1-0.7-0.1-1.1-0.2
							c-0.3-0.1-0.4-0.3-0.4-0.6c0.1-0.3,0.3-0.5,0.6-0.4s0.7,0.1,1,0.2c0.3,0,0.5,0.3,0.4,0.6C140.6,300.6,140.4,300.8,140.2,300.8
							z M151,299.9c-0.2,0-0.4-0.1-0.5-0.3c-0.1-0.3,0-0.5,0.3-0.6s0.6-0.2,0.9-0.4c0.3-0.1,0.5,0,0.7,0.3c0.1,0.3,0,0.5-0.3,0.7
							c-0.3,0.1-0.6,0.3-1,0.4C151.1,299.9,151.1,299.9,151,299.9z M136.3,299.9h-0.1c-0.3-0.1-0.6-0.2-1-0.3
							c-0.3-0.1-0.4-0.4-0.3-0.6c0.1-0.3,0.4-0.4,0.6-0.3c0.3,0.1,0.6,0.2,0.9,0.3c0.3,0.1,0.4,0.4,0.3,0.6
							C136.7,299.8,136.5,299.9,136.3,299.9z M132.4,298.5c-0.1,0-0.1,0-0.2,0c-0.3-0.1-0.6-0.2-0.9-0.4c-0.3-0.1-0.4-0.4-0.3-0.6
							c0.1-0.3,0.4-0.4,0.6-0.3c0.3,0.1,0.6,0.2,0.9,0.4c0.3,0.1,0.4,0.4,0.3,0.6C132.8,298.4,132.6,298.5,132.4,298.5z
							 M154.6,298.1c-0.2,0-0.3-0.1-0.4-0.3c-0.1-0.2,0-0.5,0.2-0.7c0.3-0.2,0.6-0.3,0.9-0.5c0.2-0.1,0.5-0.1,0.7,0.2
							c0.1,0.2,0.1,0.5-0.2,0.7s-0.6,0.3-0.9,0.5C154.8,298.1,154.7,298.1,154.6,298.1z M128.7,297c-0.1,0-0.1,0-0.2,0l-0.9-0.4
							c-0.3-0.1-0.4-0.4-0.2-0.7c0.1-0.2,0.4-0.4,0.7-0.2l0.9,0.4c0.3,0.1,0.4,0.4,0.2,0.7C129.1,296.9,128.9,297,128.7,297z
							 M158.2,296.1c-0.2,0-0.3-0.1-0.4-0.2c-0.1-0.2-0.1-0.5,0.2-0.7l0.9-0.5c0.2-0.1,0.5-0.1,0.7,0.2c0.1,0.2,0.1,0.5-0.2,0.7
							l-0.9,0.5C158.4,296.1,158.3,296.1,158.2,296.1z M125.1,295.2c-0.1,0-0.2,0-0.2-0.1c-0.3-0.2-0.6-0.3-0.9-0.5
							c-0.2-0.1-0.3-0.4-0.2-0.7c0.1-0.2,0.4-0.3,0.7-0.2c0.3,0.2,0.6,0.3,0.9,0.5c0.2,0.1,0.3,0.4,0.2,0.7
							C125.4,295.1,125.3,295.2,125.1,295.2z M161.6,294.1c-0.2,0-0.3-0.1-0.4-0.3c-0.1-0.2,0-0.5,0.2-0.7l0.9-0.5
							c0.2-0.1,0.5,0,0.7,0.2c0.1,0.2,0,0.5-0.2,0.7l-0.9,0.5C161.8,294.1,161.7,294.1,161.6,294.1z M121.6,293.3
							c-0.1,0-0.2,0-0.2-0.1l-0.9-0.5c-0.2-0.1-0.3-0.4-0.2-0.7c0.1-0.3,0.4-0.3,0.7-0.2l0.9,0.5c0.2,0.1,0.3,0.4,0.2,0.7
							C121.9,293.2,121.7,293.3,121.6,293.3z M165.1,292.1c-0.2,0-0.3-0.1-0.4-0.2c-0.1-0.2-0.1-0.5,0.2-0.7l0.9-0.5
							c0.2-0.1,0.5-0.1,0.7,0.2c0.1,0.2,0.1,0.5-0.2,0.7l-0.9,0.5C165.3,292.1,165.2,292.1,165.1,292.1z M118.1,291.3
							c-0.1,0-0.2,0-0.3-0.1l-0.9-0.5c-0.2-0.1-0.3-0.5-0.2-0.7c0.1-0.2,0.5-0.3,0.7-0.2l0.8,0.5c0.2,0.1,0.3,0.5,0.2,0.7
							C118.5,291.2,118.3,291.3,118.1,291.3z M168.6,290.1c-0.2,0-0.3-0.1-0.4-0.2c-0.1-0.2-0.1-0.5,0.2-0.7l0.9-0.5
							c0.2-0.1,0.5-0.1,0.7,0.2c0.1,0.2,0.1,0.5-0.2,0.7l-0.9,0.5C168.7,290.1,168.7,290.1,168.6,290.1z M114.7,289.1
							c-0.1,0-0.2,0-0.3-0.1l-0.8-0.6c-0.2-0.2-0.3-0.5-0.1-0.7s0.5-0.3,0.7-0.1l0.8,0.6c0.2,0.2,0.3,0.5,0.1,0.7
							C115.1,289,114.9,289.1,114.7,289.1z M172,288c-0.2,0-0.3-0.1-0.4-0.2c-0.1-0.2-0.1-0.5,0.2-0.7l0.8-0.5
							c0.2-0.1,0.5-0.1,0.7,0.2c0.1,0.2,0.1,0.5-0.2,0.7l-0.8,0.5C172.2,288,172.1,288,172,288z M111.4,286.8c-0.1,0-0.2,0-0.3-0.1
							c-0.5-0.4-0.8-0.6-0.8-0.6c-0.2-0.2-0.3-0.5-0.1-0.7c0.2-0.2,0.5-0.3,0.7-0.1c0,0,0.3,0.2,0.8,0.6c0.2,0.2,0.3,0.5,0.1,0.7
							C111.7,286.7,111.6,286.8,111.4,286.8z M175.4,285.8c-0.2,0-0.3-0.1-0.4-0.2c-0.1-0.2-0.1-0.5,0.2-0.7l0.8-0.5
							c0.2-0.2,0.5-0.1,0.7,0.2c0.1,0.2,0.1,0.5-0.2,0.7l-0.8,0.5C175.5,285.8,175.5,285.8,175.4,285.8z M178.8,283.7
							c-0.2,0-0.3-0.1-0.4-0.2c-0.2-0.2-0.1-0.5,0.1-0.7l0.8-0.5c0.2-0.2,0.5-0.1,0.7,0.1s0.1,0.5-0.1,0.7l-0.8,0.5
							C179,283.6,178.9,283.7,178.8,283.7z"/>
					</g>
				</g>
			</g>
		</g>
		<g>
			<g>
				<defs>
					<circle id="SVGID_180_" cx="262.1" cy="262.8" r="260.5"/>
				</defs>
				<clipPath id="SVGID_181_">
					<use xlink:href="#SVGID_180_"  style="overflow:visible;"/>
				</clipPath>
				<g class="st100">
					<path class="st98" d="M140.1,385.8c-22.4,0-32.6-7.6-33.1-7.9l0.6-0.8c0.1,0.1,12.1,9,38.3,7.5c26.3-1.5,36.6-5.5,36.7-5.6
						l0.4,0.9c-0.4,0.2-10.4,4.1-37,5.6C144,385.7,142,385.8,140.1,385.8z"/>
				</g>
			</g>
		</g>
		<g>
			<g>
				<defs>
					<circle id="SVGID_182_" cx="262.1" cy="262.8" r="260.5"/>
				</defs>
				<clipPath id="SVGID_183_">
					<use xlink:href="#SVGID_182_"  style="overflow:visible;"/>
				</clipPath>
				<path class="st101" d="M151.6,384c22.4-1.7,31.1-5.1,31.5-5.3l-0.8-1.9c-0.1,0-10.3,4-36.5,5.5c-25.9,1.5-37.8-7.3-38-7.4
					l-1.2,1.6c0.5,0.4,10.8,8,33.4,8c1.9,0,3.9-0.1,5.9-0.2c1-0.1,1.9-0.1,2.8-0.2c-1.9,2.3-6.2,8-5.1,10.3c0.3,0.7,1.1,1.1,2.2,1.1
					c1.3,0,2.3-0.5,3.1-1.4c0.8-1,1.3-2.4,1.5-3.8c0.5,4.7,0.8,11.7-0.1,20.2c-1.6,16.6,5,24.4,5.2,24.7l0.8-0.7
					c-0.1-0.1-6.6-7.8-5-24c0.9-9.6,0.5-17.3-0.1-22c0.2,1.1,0.4,2.3,0.5,3.9c0.3,3.6,1.7,6.6,3.4,8.3c1,4,1.8,8.2,2,11.9
					c0.6,11.6,1.2,13.3,1.3,13.5l0.9-0.4c0-0.1-0.7-1.8-1.2-13.1c-0.2-3.3-0.8-7-1.7-10.8c0.5,0.2,0.9,0.4,1.3,0.4c0,0,0,0,0.1,0
					c0.9,0,2.5-0.5,2.9-4C161.8,392,154.6,386.1,151.6,384z M148.3,393.5c-0.6,0.7-1.4,1-2.3,1c-1,0-1.2-0.4-1.3-0.5
					c-0.7-1.6,2.4-6.2,5-9.4C149.9,386.8,150.1,391.4,148.3,393.5z M153,392.9c0.5,1.7,1.1,3.5,1.6,5.3
					C153.8,396.8,153.2,395,153,392.9z M160,398.1c-0.2,1.2-0.6,3.2-1.9,3.2l0,0c-0.5,0-1.1-0.3-1.8-0.9c-1.2-4.7-2.7-9.2-3.9-12.5
					c-0.2-1.2-0.5-2.1-0.7-2.8C154.7,387.5,160.7,392.8,160,398.1z"/>
			</g>
		</g>
		<g>
			<g>
				<defs>
					<circle id="SVGID_184_" cx="262.1" cy="262.8" r="260.5"/>
				</defs>
				<clipPath id="SVGID_185_">
					<use xlink:href="#SVGID_184_"  style="overflow:visible;"/>
				</clipPath>
				<path class="st102" d="M139.3,211.1c0,0-1.4-2.3-2.1-2.9c-0.3-0.2-0.7-0.3-1.5,0c-0.8,0.4-1.1,1.2-1,1.7
					c0.3,0.9,2.4,2.8,2.4,2.8S138.8,212.8,139.3,211.1z"/>
			</g>
		</g>
		<g>
			<g>
				<defs>
					<circle id="SVGID_186_" cx="262.1" cy="262.8" r="260.5"/>
				</defs>
				<clipPath id="SVGID_187_">
					<use xlink:href="#SVGID_186_"  style="overflow:visible;"/>
				</clipPath>
				<path class="st103" d="M144.2,207.2c0,0-0.6-2.2-1-3s-1.5-0.9-2-0.7c-0.9,0.4-1.4,0.9-0.9,2c0.4,1.1,1.2,2.7,1.2,2.7
					S143.3,209,144.2,207.2z"/>
			</g>
		</g>
		<g>
			<g>
				<defs>
					<circle id="SVGID_188_" cx="262.1" cy="262.8" r="260.5"/>
				</defs>
				<clipPath id="SVGID_189_">
					<use xlink:href="#SVGID_188_"  style="overflow:visible;"/>
				</clipPath>
				<path class="st104" d="M140.8,207.9c0,0-0.7-1.9-1-2.7c-0.4-0.8-1.6-1-2-0.7c-0.8,0.7-0.3,1.1,0.3,2.1c0.6,1.2,0.8,2.3,0.8,2.3
					S140.2,209.2,140.8,207.9z"/>
			</g>
		</g>
		<g>
			<g>
				<defs>
					<circle id="SVGID_190_" cx="262.1" cy="262.8" r="260.5"/>
				</defs>
				<clipPath id="SVGID_191_">
					<use xlink:href="#SVGID_190_"  style="overflow:visible;"/>
				</clipPath>
				<path class="st105" d="M129.3,203.6l1.4,2c0,0-0.4,0.7-1,0.6l-1.3-1.4C128.5,204.8,128.1,204,129.3,203.6z"/>
			</g>
		</g>
		<g>
			<g>
				<defs>
					<circle id="SVGID_192_" cx="262.1" cy="262.8" r="260.5"/>
				</defs>
				<clipPath id="SVGID_193_">
					<use xlink:href="#SVGID_192_"  style="overflow:visible;"/>
				</clipPath>
				<path class="st106" d="M146.5,184.1c0,0,0.8-1.1,1.8,0.1c0.9,1.1,2.3,2.4,2.3,2.4s0-0.5-0.1-0.7c-0.5-0.9-1.9-2.9-2.7-3
					S146.5,183.4,146.5,184.1z"/>
			</g>
		</g>
		<g>
			<g>
				<defs>
					<circle id="SVGID_194_" cx="262.1" cy="262.8" r="260.5"/>
				</defs>
				<clipPath id="SVGID_195_">
					<use xlink:href="#SVGID_194_"  style="overflow:visible;"/>
				</clipPath>
				<path class="st107" d="M148.8,184.9c0.1,0.1-0.2-0.4-0.5-1s-0.4-0.9-0.9-0.8c-0.5,0-0.9,0.3-1,1.1c0,0,0.5-0.7,1.2-0.4
					C148.3,184,148.3,184.6,148.8,184.9z"/>
			</g>
		</g>
	</g>
</g>
<rect class="st0" width="525" height="525"/>
</svg>
