<?xml version="1.0" encoding="utf-8"?>
<!-- Generator: Adobe Illustrator 22.0.1, SVG Export Plug-In . SVG Version: 6.00 Build 0)  -->
<svg version="1.1" id="Layer_1" xmlns="http://www.w3.org/2000/svg" xmlns:xlink="http://www.w3.org/1999/xlink" x="0px" y="0px"
	 viewBox="0 0 525 550" style="enable-background:new 0 0 525 550;" xml:space="preserve">
<style type="text/css">
	.st0{fill:#F5E1ED;}
	.st1{fill:none;stroke:#E0BDD4;stroke-linecap:round;stroke-linejoin:round;stroke-miterlimit:10;}
	.st2{fill:none;stroke:#E0BDD4;stroke-width:2;stroke-linecap:round;stroke-linejoin:round;stroke-miterlimit:10;}
	.st3{fill:#F5E1ED;stroke:#E0BDD4;stroke-miterlimit:10;}
	.st4{fill:none;}
</style>
<circle class="st0" cx="262.6" cy="287.7" r="260.8"/>
<path class="st1" d="M392.9,216.7h-2.5c-6.8,0-12.3-5.6-12.3-12.3v-18.3c0-6.8,5.6-12.3,12.3-12.3h2.5c6.8,0,12.3,5.6,12.3,12.3
	v18.3C405.3,211.2,399.7,216.7,392.9,216.7z"/>
<path class="st2" d="M139.8,58.3h70.7c0.6,0,1.1,0.5,1.1,1.1v216.5c0,0.6-0.5,1.1-1.1,1.1H42.8c-0.6,0-1.1-0.5-1.1-1.1V150.4"/>
<line class="st2" x1="126.7" y1="277" x2="126.7" y2="66.5"/>
<line class="st2" x1="51.2" y1="183.8" x2="51.2" y2="239.1"/>
<line class="st2" x1="51.2" y1="245.4" x2="51.2" y2="263.1"/>
<line class="st2" x1="55.2" y1="267.5" x2="111.4" y2="267.5"/>
<line class="st2" x1="135.3" y1="89.6" x2="135.3" y2="72"/>
<line class="st2" x1="139.3" y1="67.6" x2="195.5" y2="67.6"/>
<path class="st2" d="M118.2,178.1h-5c-0.5,0-1-0.4-1-1v-28.6c0-0.5,0.5-1,1-1h5c0.5,0,1,0.5,1,1v28.6
	C119.2,177.7,118.7,178.1,118.2,178.1z"/>
<path class="st2" d="M140.2,178.1h-5c-0.6,0-1-0.4-1-1v-28.6c0-0.5,0.4-1,1-1h5c0.6,0,1,0.5,1,1v28.6
	C141.2,177.7,140.7,178.1,140.2,178.1z"/>
<path class="st1" d="M446,123.2H317.3c-0.5,0-1-0.5-1-1v-9.7c0-0.5,0.5-1,1-1H446c0.6,0,1,0.5,1,1v9.7
	C447,122.7,446.5,123.2,446,123.2z"/>
<path class="st1" d="M440.3,223.1h-14.6c-3.7,0-6.7-3-6.7-6.7v-37.6c0-0.6,0.5-1,1-1h26c0.6,0,1,0.4,1,1v37.6
	C447,220.1,443.9,223.1,440.3,223.1z"/>
<path class="st3" d="M435,188.7h-3.8c-0.6,0-1-0.4-1-1v-70.6c0-0.5,0.4-1,1-1h3.8c0.6,0,1,0.5,1,1v70.6
	C436,188.2,435.5,188.7,435,188.7z"/>
<path class="st3" d="M393.6,188.7h-3.8c-0.6,0-1-0.4-1-1v-70.6c0-0.5,0.4-1,1-1h3.8c0.6,0,1,0.5,1,1v70.6
	C394.6,188.2,394.1,188.7,393.6,188.7z"/>
<path class="st1" d="M426,216.7h-1.3c-0.6,0-1-0.5-1-1v-19.9c0-0.6,0.4-1,1-1h1.3c0.5,0,1,0.4,1,1v19.9
	C427,216.3,426.6,216.7,426,216.7z"/>
<path class="st1" d="M433.7,216.7h-1.3c-0.6,0-1-0.5-1-1v-19.9c0-0.6,0.4-1,1-1h1.3c0.6,0,1,0.4,1,1v19.9
	C434.7,216.3,434.3,216.7,433.7,216.7z"/>
<path class="st1" d="M441.4,216.7h-1.3c-0.5,0-1-0.5-1-1v-19.9c0-0.6,0.5-1,1-1h1.3c0.6,0,1,0.4,1,1v19.9
	C442.4,216.3,442,216.7,441.4,216.7z"/>
<path class="st1" d="M382.4,203.9c0.5,4.8,4.6,8.6,9.5,8.6l0,0c4.8,0,8.7-3.5,9.4-8.1"/>
<line class="st2" x1="66.2" y1="457.5" x2="458.8" y2="457.5"/>
<rect class="st4" width="525" height="550"/>
</svg>
