<?xml version="1.0" encoding="utf-8"?>
<!-- Generator: Adobe Illustrator 22.0.1, SVG Export Plug-In . SVG Version: 6.00 Build 0)  -->
<svg version="1.1" id="Layer_1" xmlns="http://www.w3.org/2000/svg" xmlns:xlink="http://www.w3.org/1999/xlink" x="0px" y="0px"
	 viewBox="0 0 525 553" style="enable-background:new 0 0 525 553;" xml:space="preserve">
<style type="text/css">
	.st0{fill:#F5E1ED;}
	.st1{fill:none;stroke:#E0BDD4;stroke-width:2;stroke-linecap:round;stroke-miterlimit:10;}
	.st2{fill:none;}
</style>
<circle class="st0" cx="262.8" cy="275.9" r="259.3"/>
<line class="st1" x1="43.9" y1="414.9" x2="114" y2="414.9"/>
<line class="st1" x1="175.6" y1="414.9" x2="337" y2="414.9"/>
<line class="st1" x1="443.7" y1="414.9" x2="480.3" y2="414.9"/>
<g>
	<path class="st1" d="M174.9,403.8h-60.5c-3.7,0-6.7-3-6.7-6.7v-2.8c0-3.7,3-6.7,6.7-6.7h60.5c3.7,0,6.7,3,6.7,6.7v2.8
		C181.7,400.8,178.6,403.8,174.9,403.8z"/>
	<polyline class="st1" points="112.1,403.8 119.4,444.6 170.1,444.6 177.3,403.8 	"/>
	<path class="st1" d="M129.1,356.3c8.1,10.2,12.3,31.4,12.3,31.4"/>
	<path class="st1" d="M71.7,342.8c1.9,5,4.1,9.3,6.5,12.6"/>
	<path class="st1" d="M88.8,364.2c20.8,11.3,40.3-7.9,40.3-7.9c-0.5-0.7-1.1-1.3-1.7-1.9c-9.2-9.2-67.1-64.7-67.1-64.7
		s0.9,9.3,3.1,21.2"/>
	<path class="st1" d="M68.3,332.4c-1-3.6-1.9-7.3-2.8-11"/>
	<path class="st1" d="M143.5,387.6c0,0-3.1-34.4-7.2-57.7c-5-28.4-13.2-47.6-23.5-67.2"/>
	<path class="st1" d="M92.3,320.3c0,0,0-5.7,0.4-14"/>
	<path class="st1" d="M94.8,281.9c-0.6,4.9-1.1,9.7-1.5,14.3"/>
	<path class="st1" d="M154.8,291c4.5,8.7,4.1,13.5,4.1,13.5"/>
	<path class="st1" d="M96.4,271.9c1.9-10.1,4.7-19.3,8.8-24.5c0,0,13.5,4.5,27.9,16.8"/>
	<path class="st1" d="M140.4,271.2c0.7,0.8,1.5,1.6,2.2,2.4c2.7,3.1,5,6,6.9,8.6"/>
	<path class="st1" d="M121.8,348.9c0,0,20,4.5,28.9-7"/>
	<path class="st1" d="M93.3,296.2l11.7,2.4c2.7,0.6,4.5,3.2,4,5.9c-0.5,2.4-2.6,4.1-5,4.1c-0.3,0-0.7,0-1-0.1l-10.4-2.1"/>
	<path class="st1" d="M96.4,271.9l8.6,1.7c2.7,0.6,4.5,3.2,4,5.9c-0.5,2.4-2.6,4-5,4c-0.3,0-0.7,0-1-0.1l-8.2-1.6"/>
	<path class="st1" d="M149.5,282.3l-9.8,8.6c-2.1,1.8-2.3,5-0.5,7.1c1,1.1,2.4,1.7,3.8,1.7c1.2,0,2.4-0.4,3.3-1.2l8.6-7.5"/>
	<path class="st1" d="M133.1,264.2l-5.7,5c-2.1,1.8-2.3,5-0.5,7.1c1,1.1,2.4,1.7,3.8,1.7c1.2,0,2.4-0.4,3.3-1.2l6.4-5.6"/>
	<path class="st1" d="M65.6,321.4l5.8,0.3c0.1,0,0.2,0,0.3,0c2.7,0,5-2.1,5.2-4.9s-2-5.3-4.9-5.5l-8.5-0.5"/>
	<path class="st1" d="M71.7,342.8h10.6c1.4,0,2.7-0.6,3.7-1.5c0.9-0.9,1.5-2.2,1.5-3.7c0-2.9-2.3-5.2-5.2-5.2h-14"/>
	<path class="st1" d="M88.8,364.2l9-1.5c2.5-0.4,4.3-2.6,4.3-5.1c0-0.3,0-0.6-0.1-0.8c-0.5-2.8-3.2-4.7-6-4.3l-17.9,3"/>
	<path class="st1" d="M148.2,387.6c0,0-1-21.2,0.3-35.1"/>
	<path class="st1" d="M193.7,322.2c0.3-4.3-0.2-9.5-1.4-15.1"/>
	<path class="st1" d="M181.1,273.6c-5-11.9-9.6-20.8-9.6-20.8s-19.7,83.5-22.6,97.1c-0.2,0.8-0.3,1.7-0.4,2.7
		c0,0,28.7,5.9,40.8-16.4"/>
	<path class="st1" d="M185.3,284.3c1.4,3.8,2.8,7.6,3.9,11.5"/>
	<path class="st1" d="M181.1,273.6l-7.3,5.4c-2.5,1.8-3,5.3-1.2,7.8c1.7,2.4,5.1,3,7.5,1.4c0.1-0.1,0.2-0.1,0.3-0.2l5-3.7"/>
	<path class="st1" d="M189.3,295.8l-12.6,8.2c-2.6,1.7-3.3,5.1-1.6,7.7c0.8,1.3,2.1,2.1,3.5,2.4s2.9,0.1,4.2-0.8l9.5-6.2"/>
	<path class="st1" d="M193.7,322.2l-17.8,7.7c-2.8,1.2-4.1,4.5-2.9,7.3c0.1,0.3,0.3,0.5,0.4,0.8c1.4,2.2,4.4,3.2,6.9,2.1l9-3.9"/>
</g>
<g>
	<path class="st1" d="M442.7,444.1H338c-0.5,0-1-0.4-1-1V249.5c0-6.4,5.3-11.7,11.7-11.7H432c6.4,0,11.7,5.3,11.7,11.7v193.6
		C443.7,443.6,443.2,444.1,442.7,444.1z"/>
	<path class="st1" d="M427.3,444.1h-73.9c-0.5,0-1-0.4-1-1V279.6c0-6.4,5.3-11.7,11.7-11.7h52.5c6.4,0,11.7,5.3,11.7,11.7v163.5
		C428.3,443.6,427.8,444.1,427.3,444.1z"/>
	<line class="st1" x1="352.4" y1="338.7" x2="428.3" y2="338.7"/>
	<line class="st1" x1="372.2" y1="390.6" x2="407.1" y2="390.6"/>
	<line class="st1" x1="372.2" y1="400.7" x2="407.1" y2="400.7"/>
	<line class="st1" x1="372.2" y1="410.9" x2="407.1" y2="410.9"/>
	<line class="st1" x1="372.2" y1="421.1" x2="407.1" y2="421.1"/>
	<path class="st1" d="M381.1,283.9v13.6c0,0.6-0.5,1-1,1h-4.5c-0.6,0-1-0.5-1-1v-13.6c0-0.6,0.5-1,1-1h4.5
		C380.7,282.9,381.1,283.4,381.1,283.9z"/>
	<path class="st1" d="M368.6,285.4h6v3.1h-6c-0.6,0-1-0.5-1-1v-1.1C367.6,285.9,368.1,285.4,368.6,285.4z"/>
	<path class="st1" d="M388.1,286.5v1.1c0,0.6-0.5,1-1,1h-6v-3.1h6C387.6,285.4,388.1,285.9,388.1,286.5z"/>
	<path class="st1" d="M405.5,283.9v13.6c0,0.6-0.5,1-1,1H400c-0.6,0-1-0.5-1-1v-13.6c0-0.6,0.5-1,1-1h4.5
		C405,282.9,405.5,283.4,405.5,283.9z"/>
	<path class="st1" d="M393,285.4h6v3.1h-6c-0.6,0-1-0.5-1-1v-1.1C392,285.9,392.5,285.4,393,285.4z"/>
	<path class="st1" d="M412.5,286.5v1.1c0,0.6-0.5,1-1,1h-6v-3.1h6C412,285.4,412.5,285.9,412.5,286.5z"/>
	<path class="st1" d="M379.3,263.3H373c-0.6,0-1-0.4-1-1V256c0-0.6,0.4-1,1-1h6.3c0.6,0,1,0.4,1,1v6.3
		C380.3,262.8,379.8,263.3,379.3,263.3z"/>
	<path class="st1" d="M406.3,263.3H400c-0.6,0-1-0.4-1-1V256c0-0.6,0.4-1,1-1h6.3c0.5,0,1,0.4,1,1v6.3
		C407.3,262.8,406.8,263.3,406.3,263.3z"/>
	<path class="st1" d="M405.8,237.8c0,0-1-2.2,3.7-6.9c3-3,14.4-5.1,22-6.2c4.2-0.6,7.3-4.2,7.3-8.4v-25.4c-3.1-1.4-2.7-5.9-2.7-5.9
		s0-52.3,0-56.9c0-4.6,2.7-6.6,2.7-6.6V115c0-4.3-3.5-7.8-7.8-7.8h-41h0.7h-41c-4.3,0-7.8,3.5-7.8,7.8v6.4c0,0,2.7,2,2.7,6.6
		c0,4.6,0,56.9,0,56.9s0.4,4.5-2.7,5.9v25.4c0,4.2,3.1,7.8,7.3,8.4c7.6,1.1,19,3.2,22,6.2c4.7,4.7,3.7,6.9,3.7,6.9"/>
	<line class="st1" x1="341.9" y1="190.8" x2="438.8" y2="190.8"/>
	<line class="st1" x1="341.9" y1="203.9" x2="438.8" y2="203.9"/>
	<line class="st1" x1="341.9" y1="121.4" x2="438.8" y2="121.4"/>
	<path class="st1" d="M344.6,153.2c0,0,9.6-6.5,23.7-2.5c14.1,3.9,53.6,14.7,67.8,4.6"/>
	<line class="st1" x1="359" y1="131.9" x2="359" y2="138.2"/>
	<line class="st1" x1="359" y1="143.5" x2="359" y2="165.4"/>
	<path class="st1" d="M443.7,280.9c0,0,0.5-4.4,7.2-4.4h28.6"/>
	<path class="st1" d="M476.5,313.7h-24.7c-0.5,0-1-0.4-1-1V274c0-0.5,0.5-1,1-1h24.7c0.5,0,1,0.5,1,1v38.6
		C477.5,313.2,477.1,313.7,476.5,313.7z"/>
	<polyline class="st1" points="452.8,313.7 457.7,333.4 471.3,333.4 475.7,313.7 	"/>
	<line class="st1" x1="450.9" y1="308.6" x2="477.6" y2="308.6"/>
	<line class="st1" x1="450.9" y1="304.6" x2="477.5" y2="304.6"/>
	<line class="st1" x1="450.9" y1="300.5" x2="477.6" y2="300.5"/>
	<line class="st1" x1="450.9" y1="296.5" x2="477.5" y2="296.5"/>
	<line class="st1" x1="450.9" y1="292.5" x2="477.6" y2="292.5"/>
	<line class="st1" x1="450.9" y1="288.5" x2="477.5" y2="288.5"/>
	<line class="st1" x1="450.9" y1="284.4" x2="477.5" y2="284.4"/>
	<line class="st1" x1="450.9" y1="280.4" x2="477.6" y2="280.4"/>
</g>
<rect class="st2" width="525" height="553"/>
</svg>
