<?xml version="1.0" encoding="utf-8"?>
<!-- Generator: Adobe Illustrator 22.0.1, SVG Export Plug-In . SVG Version: 6.00 Build 0)  -->
<svg version="1.1" xmlns="http://www.w3.org/2000/svg" xmlns:xlink="http://www.w3.org/1999/xlink" x="0px" y="0px"
	 viewBox="0 0 543 525" style="enable-background:new 0 0 543 525;" xml:space="preserve">
<style type="text/css">
	.st0{fill:none;}
	.st1{fill:#DDB6D3;}
	.st2{fill:url(#SVGID_1_);}
	.st3{fill:#B29B8B;}
	.st4{fill:#51062A;}
	.st5{fill:none;stroke:#961E4C;stroke-width:2;stroke-miterlimit:10;}
	.st6{fill:#F2AC81;}
	.st7{opacity:0.59;fill:url(#SVGID_2_);enable-background:new    ;}
	.st8{opacity:0.68;fill:url(#SVGID_3_);enable-background:new    ;}
	.st9{opacity:0.62;fill:url(#SVGID_4_);enable-background:new    ;}
	.st10{opacity:0.65;fill:url(#SVGID_5_);enable-background:new    ;}
	.st11{opacity:0.57;fill:url(#SVGID_6_);enable-background:new    ;}
	.st12{fill:#8FC9C6;}
	.st13{opacity:0.72;fill:url(#SVGID_7_);enable-background:new    ;}
	.st14{opacity:0.56;fill:url(#SVGID_8_);enable-background:new    ;}
	.st15{fill:#E29B74;}
	.st16{opacity:0.54;fill:url(#SVGID_9_);enable-background:new    ;}
	.st17{fill:url(#SVGID_10_);}
	.st18{fill:#F8AD84;}
	.st19{fill:#6E0001;}
	.st20{fill:#E89972;}
	.st21{fill:#DD8C68;}
	.st22{fill:#DB7556;}
	.st23{fill:#961E4C;}
	.st24{fill:#BD3624;}
	.st25{opacity:0.71;}
	.st26{fill:url(#SVGID_11_);}
	.st27{fill:url(#SVGID_12_);}
	.st28{opacity:0.64;fill:url(#SVGID_13_);enable-background:new    ;}
	.st29{fill:url(#SVGID_14_);}
	.st30{opacity:0.75;fill:url(#SVGID_15_);enable-background:new    ;}
	.st31{opacity:0.76;fill:url(#SVGID_16_);enable-background:new    ;}
	.st32{opacity:0.66;fill:url(#SVGID_17_);enable-background:new    ;}
	.st33{opacity:0.39;fill:url(#SVGID_18_);enable-background:new    ;}
	.st34{opacity:0.42;fill:url(#SVGID_19_);enable-background:new    ;}
	.st35{fill:url(#SVGID_20_);}
	.st36{fill:url(#SVGID_21_);}
	.st37{fill:url(#SVGID_22_);}
	.st38{fill:url(#SVGID_23_);}
	.st39{fill:#FFC2B6;}
	.st40{fill:#A52387;}
	.st41{fill:#8C1475;}
	.st42{fill:url(#SVGID_24_);}
	.st43{fill:url(#SVGID_25_);}
	.st44{fill:url(#SVGID_26_);}
	.st45{fill:url(#SVGID_27_);}
	.st46{fill:url(#SVGID_28_);}
</style>
<g id="Layer_1">
	<circle class="st0" cx="280.5" cy="263.5" r="260.6"/>
	<g id="Layer_1_1_">
		<g>
			<g id="XMLID_101_">
				<g id="XMLID_92_">
					<g>
						<path class="st1" d="M47.9,336.1h483.4c-7.3,25.4-18.4,49.1-32.6,70.6l-152.9-1H62.6c-12.1-18.6-21.9-38.7-29-60.2
							c5.8-3.9,10.3-6.9,12.6-8.3C47.3,336.5,47.9,336.1,47.9,336.1z"/>
						
							<linearGradient id="SVGID_1_" gradientUnits="userSpaceOnUse" x1="278.7448" y1="2471.8567" x2="280.3589" y2="2366.1199" gradientTransform="matrix(1 0 0 1 0 -1947.3)">
							<stop  offset="0" style="stop-color:#D4AEC6"/>
							<stop  offset="1" style="stop-color:#F4D7ED"/>
						</linearGradient>
						<path class="st2" d="M345.8,405.8l152.8,1.1c-1.8,2.8-3.7,5.5-5.6,8.1c-6.1,8.6-12.7,16.7-19.8,24.4
							c-47.6,52-116.2,84.7-192.3,84.7c-91.4,0-171.9-47.1-218.4-118.4h283.3V405.8z"/>
						<path class="st3" d="M50.5,241.9l-4.3,95.2c-2.3,1.5-6.8,4.4-12.6,8.3c-8.5-25.7-13.1-53.2-13.1-81.8c0-8.9,0.4-17.8,1.3-26.5
							L50.5,241.9z"/>
					</g>
				</g>
			</g>
			<g id="XMLID_91_">
				<g>
					<path class="st4" d="M209,195.5c32.1,4.1,47.5,36.2,60.2,43.2s61.7-8,83.7,26.6c8.2,12.9,13,36-12.1,70.7
						c-25,34.8-213,42-213,42s-37.9,3.3-75-35.5s-9.3-68.1-9.3-68.1c-0.9-8-4.4-13.4,9.8-37.1c20.1-33.6,77.7-23.4,77.7-23.4
						S153.4,188.4,209,195.5z"/>
				</g>
				<g>
					<path class="st5" d="M127.7,378.1c0,0-37.9,3.3-75-35.5s-9.3-68.1-9.3-68.1c-0.9-8-4.4-13.4,9.8-37.1
						c20.1-33.6,77.7-23.4,77.7-23.4s22.5-25.5,78.1-18.4c32.1,4.1,47.5,36.2,60.2,43.2s61.7-8,83.7,26.6c8.2,12.9,13,36-12.1,70.7
						C315.8,370.8,127.7,378.1,127.7,378.1z"/>
				</g>
			</g>
			<path class="st6" d="M194.7,307.2c0,0,21.4,14.9,29.8,9.3c8.8-5.9,17.1-28.5,22.5-35.2c5.5-6.9,13.6-19.1,30.4-15.4
				c16.7,3.7,43.8,24,62.9,32c25.8,10.8,35-3.9,39-3.2c5,0.9,15.7,72.4-1.4,88.8c-16.5,15.8-71.4,12.6-77.7,12.6s-80-6-87.8-9.3
				s-21.6-9.5-19.4-17.7c2.2-8.2,9.6-19-0.7-24.1c-10.1-5.1-19.9-7.4-23-10.6C165.9,331.1,165,297.9,194.7,307.2z"/>
			
				<linearGradient id="SVGID_2_" gradientUnits="userSpaceOnUse" x1="-2180.2437" y1="3231.417" x2="-2173.0044" y2="3218.1453" gradientTransform="matrix(-0.5528 0.8099 0.7896 0.5426 -3503.0898 324.6949)">
				<stop  offset="0" style="stop-color:#E89166"/>
				<stop  offset="1" style="stop-color:#F8AD84;stop-opacity:0"/>
			</linearGradient>
			<path class="st7" d="M255.3,302.1c0,0,1.3,8.9-5.7,23.5c-4.6,9.7-5.7,0.8-4.4-3.2c1.6-5,0.6-17.8,1.6-25.5
				c0.4-2.9,3.7-4.3,6.5-2.4C254.1,295,254.7,297.3,255.3,302.1z"/>
			
				<linearGradient id="SVGID_3_" gradientUnits="userSpaceOnUse" x1="313.906" y1="2231.958" x2="329.5638" y2="2230.5964" gradientTransform="matrix(1 0 0 1 0 -1947.3)">
				<stop  offset="0" style="stop-color:#C47958"/>
				<stop  offset="0.5527" style="stop-color:#E19670;stop-opacity:0.4473"/>
				<stop  offset="1" style="stop-color:#F8AD84;stop-opacity:0"/>
			</linearGradient>
			<path class="st8" d="M296,276.8l23.3,20.9c0,0,4.7-2.6,4.7-5.1s0.8-2.4,0.8-2.4l-29.9-17.4L296,276.8z"/>
			
				<linearGradient id="SVGID_4_" gradientUnits="userSpaceOnUse" x1="271.7625" y1="2303.0981" x2="268.0266" y2="2280.3096" gradientTransform="matrix(1 0 0 1 0 -1947.3)">
				<stop  offset="0" style="stop-color:#D4774D"/>
				<stop  offset="0.5527" style="stop-color:#E19670;stop-opacity:0.4473"/>
				<stop  offset="1" style="stop-color:#F8AD84;stop-opacity:0"/>
			</linearGradient>
			<path class="st9" d="M276.8,309.9c0,0,7.2,3.1,10.8,8.5c3.5,5.4,4.7,10.6,3.9,20c-0.8,9.4-6.3,20-10,23.6
				c-3.6,3.6-25-3.8-34.9-17.4c-6.2-8.5,13.9,10.9,30.3,2.7c14.5-7.2,9-21.9,6.9-27.1C281.7,315,276.8,309.9,276.8,309.9z"/>
			
				<linearGradient id="SVGID_5_" gradientUnits="userSpaceOnUse" x1="213.8771" y1="2283.1477" x2="201.4671" y2="2258.479" gradientTransform="matrix(1 0 0 1 0 -1947.3)">
				<stop  offset="0" style="stop-color:#E89166"/>
				<stop  offset="1" style="stop-color:#F8AD84;stop-opacity:0"/>
			</linearGradient>
			<path class="st10" d="M189,314.4c0,0,23.6,10.5,28.1,18.4s5.4-10.4,2.5-13.3s-30.7-14.1-30.7-14.1L189,314.4L189,314.4z"/>
			
				<linearGradient id="SVGID_6_" gradientUnits="userSpaceOnUse" x1="208.27" y1="2290.9045" x2="183.6013" y2="2285.0022" gradientTransform="matrix(1 0 0 1 0 -1947.3)">
				<stop  offset="0" style="stop-color:#E89166"/>
				<stop  offset="1" style="stop-color:#F8AD84;stop-opacity:0"/>
			</linearGradient>
			<path class="st11" d="M213.8,339.9c0,0-32.9-7.6-35.5-10.2c-2.6-2.6-4.8,7.1-4.8,7.1s15.3,5.3,17.9,6.9c2.6,1.6,5.2,4.1,5.2,4.1
				S224.9,342.5,213.8,339.9z"/>
			<g id="XMLID_90_">
				<g>
					<path class="st12" d="M375.6,295.1c0,0,12.3,77.2,1.5,88c-10.8,10.8-44.2,12.7-44.2,12.7L260,378.3l27.5-26.5
						c5.4-12.1,4-26,0-32.7s-47.8-26.8-47.8-26.8s1.3-3.7,3.9-7c0,0,44.9,26.6,68.4,15.4c12.4-5.9,9.3-12.6,9.1-12.9
						c0.6,0.4,20.4,12.2,32.8,13.4C366.4,302.4,375.6,295.1,375.6,295.1z"/>
				</g>
			</g>
			
				<linearGradient id="SVGID_7_" gradientUnits="userSpaceOnUse" x1="341.0703" y1="2286.0459" x2="355.5989" y2="2348.1965" gradientTransform="matrix(1 0 0 1 0 -1947.3)">
				<stop  offset="0" style="stop-color:#519696"/>
				<stop  offset="1" style="stop-color:#59BAC2;stop-opacity:0"/>
			</linearGradient>
			<path class="st13" d="M319,295.8c0,0,38.5,35,48.4,62.5c5.6,15.7-9.7,26.4-9.7,26.4s1.5,6-4.8,8.6s-18.5,1.5-18.5,1.5l-6.9-20.4
				L319,295.8z"/>
			
				<linearGradient id="SVGID_8_" gradientUnits="userSpaceOnUse" x1="274.5946" y1="2234.0281" x2="349.6741" y2="2322.947" gradientTransform="matrix(1 0 0 1 0 -1947.3)">
				<stop  offset="0" style="stop-color:#59BAC2;stop-opacity:0"/>
				<stop  offset="1" style="stop-color:#388585"/>
			</linearGradient>
			<path class="st14" d="M288,349.6c5.4-12.1,3.5-24.1-0.6-30.8c-4-6.7-47.7-26.6-47.7-26.6s1.3-3.6,3.8-6.8
				c0,0,43.5,24.4,67.8,15.1c13.4-5.1,9.7-12.6,9.7-12.6s19.8,12.2,32.3,13.4c12.5,1.2,21.3-5.4,21.3-5.4s12.7,78,1.9,88.8
				c-10.8,10.8-44.2,10.9-44.2,10.9L259.4,378L288,349.6z"/>
			<path class="st15" d="M202.3,385.2c0,0,36.8,9.5,62.7,14.3c21.3,3.9,69.2,3.6,75.7-3.1c12.2-12.6-4.9-24.4-14.3-22.3
				c-4.4,1-47.6,1.5-59.7,1c-12.1-0.4-68.6-2.4-68.6-2.4L202.3,385.2z"/>
			
				<linearGradient id="SVGID_9_" gradientUnits="userSpaceOnUse" x1="239.4922" y1="2320.7727" x2="339.813" y2="2344.0737" gradientTransform="matrix(1 0 0 1 0 -1947.3)">
				<stop  offset="0" style="stop-color:#C47958"/>
				<stop  offset="1" style="stop-color:#F8AD84;stop-opacity:0"/>
			</linearGradient>
			<path class="st16" d="M202.3,385.2c0,0,36.8,9.5,62.7,14.3c21.3,3.9,69.2,3.6,75.7-3.1c12.2-12.6-4.9-24.4-14.3-22.3
				c-4.4,1-47.6,1.5-59.7,1c-12.1-0.4-68.6-2.4-68.6-2.4L202.3,385.2z"/>
			
				<linearGradient id="SVGID_10_" gradientUnits="userSpaceOnUse" x1="-1790.7234" y1="3798.3394" x2="-1787.6649" y2="3828.3127" gradientTransform="matrix(0.4785 -0.8781 0.8781 0.4785 -2287.2822 -3064.4868)">
				<stop  offset="0" style="stop-color:#C47958"/>
				<stop  offset="1" style="stop-color:#F8AD84;stop-opacity:0"/>
			</linearGradient>
			<path class="st17" d="M195.5,306.9c0,0,1.1,8.2-0.4,12.9c-1.5,4.7-3.7,7.3-5.9,9.2c-3.8,3.2-15.7,8.9-15.7,8.9s13.7,4.8,17.7,6.4
				c2.2,0.9,4.7,3.5,4.7,3.5s15.7,2.6,22-13.7c3.7-9.6-5.2-17.8-5.2-17.8S202.9,312.5,195.5,306.9z"/>
			<path class="st18" d="M98.1,337.2c0,0-7.8,1.1-6.1,7.9c1.7,6.8,16.6,9.1,24,6.6s11.6-4.8,11.6-4.8s27.5,9.8,44.4-1.2
				s19.3-14.6,23.6-22.3c4.3-7.7-0.8-27.3-4-34.1c-3.2-6.8-11.3-20.6-22.3-26.4s-50-16.8-53.3-17.4c-3.2-0.6-50.7,27.9-46.1,49.6
				C74.5,316.8,88,333.5,98.1,337.2z"/>
			<path class="st19" d="M105.5,326.4c0.2,0.6-5.6-7.5-4.2-15.5c1.2-6.8,4.7-8.8,6-8.3c1.2,0.5,2.9,0.8,1.2,3.7
				c-1.7,2.9-3,5.1-3.6,7.9C103.8,319,104.7,324.4,105.5,326.4z"/>
			<path class="st19" d="M117.8,329.6c0,0-3.6-5.8-2.1-11.4s6.3-9.6,8-10.2c1.6-0.7-3.3,6.1-4.2,10.9
				C118.6,323.7,118.9,331.1,117.8,329.6z"/>
			<path class="st20" d="M71.9,306.1c0,0,13.3,3.9,25.6-5.3S113,286,113,286s19.7,6.2,32.6-4.8c12.9-11,22.6-19.2,19.6-20.2
				c-9.3-3.4-31.2-13.3-46.1-12.1C104.2,249.9,61.1,289.4,71.9,306.1z"/>
			<path class="st19" d="M146.2,264.2c0,0-7.6,1.4-10.5,6.3c-2.9,5-1.3,11.5-0.6,13.1s1-6.9,3.7-11
				C141.5,268.5,148,263.9,146.2,264.2z"/>
			<path class="st21" d="M150.3,311c0,0,2.5-0.6,3.8-3.2c1.2-2.5,0.5-6,0-7.1c-0.4-1.2,5.2,1.1,4.9,5.9c-0.2,4.8-5.2,5.7-7.1,5
				C149.9,310.8,150.3,311,150.3,311z"/>
			<g id="XMLID_89_">
				<g>
					<path class="st4" d="M128.6,217.8c0,0,35.7-7.6,25.8,28.9s-43.5,35-43.5,35c-18.5,34.3-49.8,22.4-49.8,22.4
						s-16.3-10.2,9.7-43.2C96.7,227.8,116.4,213.3,128.6,217.8z"/>
				</g>
			</g>
			
				<ellipse transform="matrix(0.1678 -0.9858 0.9858 0.1678 -220.1473 402.7753)" class="st22" cx="128.5" cy="331.8" rx="1.7" ry="1.8"/>
			<ellipse class="st22" cx="135.9" cy="327.7" rx="1.1" ry="1.1"/>
			<ellipse class="st22" cx="135.5" cy="319.5" rx="1.2" ry="1.2"/>
			<ellipse class="st22" cx="135.4" cy="310.5" rx="1.2" ry="1.2"/>
			<ellipse class="st22" cx="138.3" cy="293.5" rx="0.8" ry="0.8"/>
			<ellipse class="st22" cx="146.3" cy="292.2" rx="1.3" ry="1.3"/>
			<ellipse class="st22" cx="152" cy="280.6" rx="1.3" ry="1.3"/>
			<ellipse class="st22" cx="163.5" cy="275.1" rx="1.3" ry="1.3"/>
			<path class="st20" d="M102.3,340.4c0,0-7.4-0.1-7.5,3.4c-0.1,3.4,5,5.1,5,5.1s1.7,0.7,3.4-2.1c2.4-4,13-2.4,16-1.3
				C122.2,346.6,105.9,340.5,102.3,340.4z"/>
			<g>
				<path class="st23" d="M97.3,336.8c-5.2-2.7-9.9-6.5-13.8-10.8c-2-2.2-3.7-4.6-5.2-7.2c-0.4-0.7-0.8-1.3-1.1-2l-0.9-2l-0.9-2
					c-0.3-0.6-0.7-1.3-1-1.9c-1.4-2.5-3.1-4.8-5-7c-1.9-2.1-4-4.1-6.4-5.6c-1.2-0.7-2.4-1.3-3.7-1.5l-0.5-0.1h-0.4H58
					c-0.2,0-0.3,0-0.5,0.1c-0.6,0.1-1.3,0.3-1.9,0.6c-1.2,0.5-2.3,1.3-3.1,2.2c-0.4,0.5-0.6,1-0.7,1.4c-0.1,0.4,0.1,0.8,0.3,1.1
					c0.3,0.4,0.8,0.7,1.3,1c0.6,0.3,1.2,0.5,1.8,0.7c1.3,0.4,2.7,0.6,4.1,0.7c2.9,0.4,5.7,0.6,8.6,0.6c5.7,0.1,11.5-0.5,16.9-2.1
					c2.7-0.8,5.3-1.9,7.7-3.4c2.3-1.5,4.5-3.4,6.6-5.3c2-2,3.9-4.1,5.7-6.4c1.7-2.3,3.4-4.7,4.8-7.1l0.4-0.8h0.9
					c2.4,0,5-0.3,7.5-0.7c2.5-0.4,5-1.1,7.4-1.9c4.8-1.7,9.4-4.1,13.1-7.5c3.8-3.3,6.7-7.6,9.3-12.1c1.3-2.2,2.4-4.6,3.4-7
					c0.9-2.4,1.8-4.8,2.5-7.3c1.4-5,2.3-10.1,2.5-15.3c0-0.3,0-0.5,0-0.8c-0.1-0.2-0.1-0.5-0.2-0.7c-0.2-0.4-0.5-0.7-0.9-0.8
					c-0.8-0.2-1.8,0.2-2.2,1.2c-0.4,0.9-0.4,2.2-0.2,3.3c0.3,1.1,1,2,2,2.7c2,1.4,4.6,2,7.1,2c2.6,0,5.1-0.6,7.5-1.6
					s4.6-2.3,6.7-3.9c2.1-1.6,4-3.4,5.7-5.4c-3.2,4.2-7.2,7.9-12.1,10.1c-2.4,1.1-5.1,1.8-7.8,1.9s-5.5-0.3-7.9-1.9
					c-1.2-0.8-2.2-2-2.6-3.5c-0.1-0.4-0.2-0.7-0.2-1.1s-0.1-0.7,0-1.1c0-0.4,0-0.7,0.1-1.1l0.1-0.6l0.2-0.5c0.1-0.4,0.4-0.7,0.6-1
					c0.3-0.3,0.6-0.6,1-0.8c0.7-0.4,1.7-0.6,2.6-0.3c0.9,0.2,1.6,0.9,2,1.6c0.2,0.4,0.3,0.8,0.4,1.2c0,0.4,0.1,0.8,0.1,1.2
					c-0.1,5.4-0.9,10.7-2.2,15.8c-1.3,5.2-3.2,10.2-5.8,14.9l-1,1.8c-0.3,0.6-0.7,1.1-1.1,1.7c-0.4,0.6-0.7,1.1-1.1,1.7l-1.2,1.6
					c-0.7,1.1-1.6,2.1-2.5,3.2c-0.8,1.1-1.9,2-2.9,2.9c-4,3.7-8.9,6.4-14,8.1c-2.6,0.9-5.2,1.6-7.8,2c-2.7,0.5-5.3,0.8-8.1,0.8
					l1.4-0.8c-1.5,2.7-3.2,5.1-5,7.5s-3.8,4.6-6,6.7s-4.4,4-7.1,5.7c-2.6,1.6-5.5,2.8-8.4,3.7c-5.8,1.7-11.9,2.2-17.8,2
					c-3-0.1-5.9-0.4-8.9-0.8c-1.5-0.2-3-0.4-4.5-0.9c-0.8-0.2-1.5-0.5-2.3-0.9c-0.7-0.4-1.5-0.9-2.1-1.7s-1-2-0.8-3s0.7-1.8,1.3-2.5
					c1.1-1.3,2.5-2.2,4-2.8c0.7-0.3,1.5-0.5,2.3-0.7c0.2,0,0.4-0.1,0.6-0.1h0.7c0.2,0,0.4,0,0.7,0l0.6,0.1c1.6,0.3,3.1,1.1,4.3,1.9
					c2.6,1.7,4.7,3.8,6.7,6.1c1.9,2.3,3.6,4.7,5.1,7.4c0.4,0.7,0.7,1.3,1,2l0.9,2.1l0.8,2c0.3,0.7,0.6,1.3,1,1.9
					c1.4,2.5,2.9,5,4.8,7.2s3.9,4.3,6.1,6.2C92.4,333.6,94.7,335.4,97.3,336.8z"/>
			</g>
			<g id="XMLID_88_">
				<g>
					<path class="st24" d="M164.5,314.6c-0.6,1.3-1.4,9.8-2.9,11.9c0,0,4.2-2,6.1-2.3c4.2-0.7,8.9-3,10.7-9.2c1.9-6.2,0.5-10-1.6-13
						s-2.2-5.8-2.2-5.8s-2.3,3.1-4,5.9s-3.6,5.4-3.1,8l0.1,1.3C167.6,311.4,165.6,312.2,164.5,314.6z"/>
				</g>
			</g>
			<path class="st24" d="M161.6,326.5c0,0,5.9-6,7-8.2s3.4-3.3,4-6.1c0.6-2.8-0.2-2.4,0.4-4.9s1.8-9.1,1.7-10.9"/>
			<g id="XMLID_87_" class="st25">
				
					<linearGradient id="SVGID_11_" gradientUnits="userSpaceOnUse" x1="104.1017" y1="2318.054" x2="110.7485" y2="2321.9314" gradientTransform="matrix(0.9992 -3.874451e-02 3.874451e-02 0.9992 -23.0294 -1999.2245)">
					<stop  offset="3.513514e-02" style="stop-color:#960F0F"/>
					<stop  offset="1" style="stop-color:#BD3624"/>
				</linearGradient>
				<path class="st26" d="M178.4,315c-1.9,6.2-6.5,8.4-10.8,9.2c-1.9,0.3-6.1,2.3-6.1,2.3s5.9-6,6.9-8.2c1.1-2.3,3.4-3.3,4-6.1
					c0.6-2.8-0.2-2.4,0.4-4.9c0.6-2.5,1.8-9.1,1.7-10.9l0,0c0,0,0.1,2.8,2.2,5.8C179,305,180.3,308.8,178.4,315z"/>
			</g>
			<g id="XMLID_86_">
				<g>
					
						<linearGradient id="SVGID_12_" gradientUnits="userSpaceOnUse" x1="114.5571" y1="2296.1226" x2="129.3634" y2="2279.2383" gradientTransform="matrix(1 0 0 1 0 -1947.3)">
						<stop  offset="0.1757" style="stop-color:#FFE9F9"/>
						<stop  offset="1" style="stop-color:#F4D7ED"/>
					</linearGradient>
					<path class="st27" d="M217.1,402.5c1.7,8.1-52.6,11.3-70.8,9.9c-18.1-1.4-78,5.2-116.4-42.1C2.4,336.1,6,312.8,2.7,306.4
						s24.1-1.3,30.7,0c0,0,27.8,1.2,53.4,14.8s50.8,19.2,57.7,20.6c7,1.4,31.3,1.7,44.9,17.6C203.1,375.5,215.4,394.4,217.1,402.5z"
						/>
				</g>
			</g>
			
				<linearGradient id="SVGID_13_" gradientUnits="userSpaceOnUse" x1="149.6423" y1="2290.0859" x2="149.9452" y2="2280.5012" gradientTransform="matrix(1 0 0 1 0 -1947.3)">
				<stop  offset="0" style="stop-color:#D47C54"/>
				<stop  offset="1" style="stop-color:#F8AD84;stop-opacity:0"/>
			</linearGradient>
			<path class="st28" d="M111.8,332.4c0,0,28.3,10,36.5,10.7c8.2,0.6,27-0.5,29.7-1.6s10.1-7.8,10.1-7.8s-31,4.9-44.6,2.3
				C130,333.5,111.8,332.4,111.8,332.4z"/>
			
				<linearGradient id="SVGID_14_" gradientUnits="userSpaceOnUse" x1="109.6034" y1="2302.5586" x2="64.3853" y2="2350.54" gradientTransform="matrix(1 0 0 1 0 -1947.3)">
				<stop  offset="6.756756e-02" style="stop-color:#A87B9D;stop-opacity:0.5"/>
				<stop  offset="1" style="stop-color:#F4D7ED"/>
			</linearGradient>
			<path class="st29" d="M217,403.6c-14.4,10.1-58,9-75.4,8.6c-19.4-0.4-77.7,3-111.7-41.9C-0.6,330,5.9,313,2.6,306.5
				c0,0,4-0.2,33.4,24.3s39.4,33.2,83.1,41.4C156.7,379.3,204.2,398.3,217,403.6z"/>
			<path class="st6" d="M153.1,349.2c0,0-5.6,0.4-8.8,0s-3.4-3.1-1.5-3.5s8.6-1.9,10.9-2.9c4.8-2,9-3.6,13.8-2.6
				c4.3,0.9,12.4,1.5,13.8,2c1.4,0.5-5.6,6.7-12.1,7.2C162.7,349.9,153.1,349.2,153.1,349.2z"/>
			
				<linearGradient id="SVGID_15_" gradientUnits="userSpaceOnUse" x1="161.6527" y1="2292.9883" x2="161.0587" y2="2288.5703" gradientTransform="matrix(1 0 0 1 0 -1947.3)">
				<stop  offset="0" style="stop-color:#C47958"/>
				<stop  offset="1" style="stop-color:#F8AD84;stop-opacity:0"/>
			</linearGradient>
			<path class="st30" d="M153.1,349.2c0,0-5.6,0.4-8.8,0s-3.4-3.1-1.5-3.5s8.6-1.9,10.9-2.9c4.8-2,9-3.6,13.8-2.6
				c4.3,0.9,12.4,1.5,13.8,2c1.4,0.5-5.6,6.7-12.1,7.2C162.7,349.9,153.1,349.2,153.1,349.2z"/>
			
				<linearGradient id="SVGID_16_" gradientUnits="userSpaceOnUse" x1="293.4902" y1="2280.8037" x2="309.2569" y2="2291.8264" gradientTransform="matrix(1 0 0 1 0 -1947.3)">
				<stop  offset="0" style="stop-color:#59BAC2;stop-opacity:0"/>
				<stop  offset="1" style="stop-color:#519696"/>
			</linearGradient>
			<path class="st31" d="M290.2,343c0,0,9-6.2,6.2-14.7c-2.9-8.5-8.9-17.5-8.9-17.5l32.4,34l-31.3,3.8
				C288.5,348.6,289.6,344.8,290.2,343z"/>
			<path class="st6" d="M263.5,286c4.1,5.3,54.5,61,63,69.5c9.6,9.6,26.8,17.9,31.2,10c4.5-7.8-1.5-21.2-19-43.9
				c-17.5-22.7-42.8-60.4-65.1-59.1c-17,1-24,15.1-24,15.1L263.5,286z"/>
			
				<linearGradient id="SVGID_17_" gradientUnits="userSpaceOnUse" x1="167.3022" y1="2299.2717" x2="164.1472" y2="2311.2607" gradientTransform="matrix(1 0 0 1 0 -1947.3)">
				<stop  offset="6.756756e-02" style="stop-color:#A87B9D;stop-opacity:0.5"/>
				<stop  offset="1" style="stop-color:#F4D7ED"/>
			</linearGradient>
			<path class="st32" d="M141.6,347.3c0,0,0.1,0.7,1,1.7c0.9,0.9,1.1,2.5,3.7,3.2c2.7,0.7,8.2,0,13.1,0c4.9,0,11.7,0.5,14.6,1.5
				c2.9,1.1,7,4.8,9.3,7.1c2.3,2.3,6.9,6.5,6.9,6.5s-8.9-12.1-12.3-14.8c-3.4-2.8-4.1-2.3-7.1-2.7s-19.2,1.2-21.9,1.2
				s-5.9-3.1-5.9-3.1L141.6,347.3"/>
			<path class="st15" d="M149.5,344.3c0,0-2.5,0.6-4.2,0s-1.7-2.4-0.5-2.5c0.5-0.1,4.6-0.1,8.4-0.5c1.5-0.2,4.3,0.2,4.3,0.2
				S151.9,344.3,149.5,344.3z"/>
			
				<linearGradient id="SVGID_18_" gradientUnits="userSpaceOnUse" x1="224.9847" y1="2311.4695" x2="229.6762" y2="2292.0979" gradientTransform="matrix(1 0 0 1 0 -1947.3)">
				<stop  offset="0" style="stop-color:#C47958"/>
				<stop  offset="0.5527" style="stop-color:#E19670;stop-opacity:0.4473"/>
				<stop  offset="1" style="stop-color:#F8AD84;stop-opacity:0"/>
			</linearGradient>
			<path class="st33" d="M199.7,350.4c0,0-1.2,6.2,4.7,10.3c5.9,4.1,40.3,8.8,47.1,7.4c6.8-1.4-13.7-10.3-15.5-17.7
				C234.3,343,205.6,347,199.7,350.4z"/>
			<path class="st6" d="M347.1,347.1c0,0-24-11.9-79.3,7c-33.3,11.4-62.4,4.2-65.8,0.5c-3.4-3.7-13.9-13.1-19.3-14.2
				c-3.4-0.7-7.4,1.7-12.9,2.5c-5.5,0.7-12.5,1.7-14.6,2.8c-2,1-13.1,1.9-10.4,4.7c1.5,1.6,8,1.6,14,0.1c4.7-1.2,9.2,0.2,14.2,0
				c4.8-0.2,9.1,7.9,11.5,10.4s5.8,6.9,9.6,9.5c5.9,4,25,6.4,41.9,6.9c10.4,0.3,81,3,105.1-2.5c6.4-1.5,15.6-4.3,17-10.2
				C360.1,356.3,358.5,352.6,347.1,347.1z"/>
			
				<linearGradient id="SVGID_19_" gradientUnits="userSpaceOnUse" x1="251.6948" y1="2294.7805" x2="251.2913" y2="2327.0667" gradientTransform="matrix(1 0 0 1 0 -1947.3)">
				<stop  offset="0" style="stop-color:#F7C8AF"/>
				<stop  offset="1" style="stop-color:#F8AD84;stop-opacity:0"/>
			</linearGradient>
			<path class="st34" d="M347.1,347.1c0,0-24-11.9-79.3,7c-33.3,11.4-62.4,4.2-65.8,0.5c-3.4-3.7-13.9-13.1-19.3-14.2
				c-3.4-0.7-7.4,1.7-12.9,2.5c-5.5,0.7-12.5,1.7-14.6,2.8c-2,1-13.1,1.9-10.4,4.7c1.5,1.6,8,1.6,14,0.1c4.7-1.2,9.2,0.2,14.2,0
				c4.8-0.2,9.1,7.9,11.5,10.4s5.8,6.9,9.6,9.5c5.9,4,25,6.4,41.9,6.9c10.4,0.3,81,3,105.1-2.5c6.4-1.5,15.6-4.3,17-10.2
				C360.1,356.3,358.5,352.6,347.1,347.1z"/>
			
				<linearGradient id="SVGID_20_" gradientUnits="userSpaceOnUse" x1="375.2299" y1="2270.7727" x2="361.8315" y2="2340.3657" gradientTransform="matrix(1 0 0 1 0 -1947.3)">
				<stop  offset="0" style="stop-color:#59BAC2;stop-opacity:0"/>
				<stop  offset="0.1142" style="stop-color:#4EA7AD;stop-opacity:0.19"/>
				<stop  offset="0.2573" style="stop-color:#439799;stop-opacity:0.428"/>
				<stop  offset="0.4031" style="stop-color:#3D8C8E;stop-opacity:0.6704"/>
				<stop  offset="0.5542" style="stop-color:#3B898A;stop-opacity:0.9218"/>
				<stop  offset="1" style="stop-color:#388585"/>
			</linearGradient>
			<path class="st35" d="M362.2,391.8l-6.3,1.5c0,0,9.1-10.4,12.2-19.1c3.2-8.6,6.7-36.2,5.8-41s-1.3-12.8-1.3-12.8l1.1,7.1
				c0,0,1.1,8.2,1.1,13.4c0,5.2-0.1,15.2-1.6,23.6C371.7,373,368.8,385.2,362.2,391.8z"/>
			
				<linearGradient id="SVGID_21_" gradientUnits="userSpaceOnUse" x1="369.918" y1="2252.2627" x2="377.1068" y2="2252.5654" gradientTransform="matrix(1 0 0 1 0 -1947.3)">
				<stop  offset="0" style="stop-color:#59BAC2;stop-opacity:0"/>
				<stop  offset="0.1142" style="stop-color:#4EA7AD;stop-opacity:0.19"/>
				<stop  offset="0.2573" style="stop-color:#439799;stop-opacity:0.428"/>
				<stop  offset="0.4031" style="stop-color:#3D8C8E;stop-opacity:0.6704"/>
				<stop  offset="0.5542" style="stop-color:#3B898A;stop-opacity:0.9218"/>
				<stop  offset="1" style="stop-color:#388585"/>
			</linearGradient>
			<path class="st36" d="M375.8,313.9c0,0-0.7-11.8-1.5-13.8s-4.2-1.7-4.2-1.7l5.2-1.9c0,0,0.2,1.2,0.2,2.1S375.8,313.9,375.8,313.9
				z"/>
			
				<linearGradient id="SVGID_22_" gradientUnits="userSpaceOnUse" x1="245.5118" y1="2343.115" x2="241.8781" y2="2356.9229" gradientTransform="matrix(1 0 0 1 0 -1947.3)">
				<stop  offset="6.756756e-02" style="stop-color:#A87B9D;stop-opacity:0.5"/>
				<stop  offset="1" style="stop-color:#F4D7ED"/>
			</linearGradient>
			<path class="st37" d="M209.5,386.8c0,0,5.1,8.5,6.2,11.5c1.1,3,26.9-1.2,32.7,0.4s34,2.8,34,2.8S228.8,393.5,209.5,386.8z"/>
			
				<linearGradient id="SVGID_23_" gradientUnits="userSpaceOnUse" x1="351.3998" y1="2339.4294" x2="348.5012" y2="2350.4438" gradientTransform="matrix(1 0 0 1 0 -1947.3)">
				<stop  offset="6.756756e-02" style="stop-color:#A87B9D;stop-opacity:0.5"/>
				<stop  offset="1" style="stop-color:#F4D7ED"/>
			</linearGradient>
			<path class="st38" d="M339.3,397.5c0,0,2-1.3,2.6-2.4c0,0,12.7-1.6,15.4-2.2c2.7-0.6,4.9-1.2,4.9-1.2s-2.5,2.8-3.4,3.6
				c-0.9,0.8-3.7-0.4-5.6-0.1C351.4,395.5,339.2,397.5,339.3,397.5"/>
			<path class="st39" d="M144.1,345.4c0,0-2,0.3-2.5,0.5s-0.9,1.1-0.3,1.3c0.6,0.2,3-0.4,3-0.4S143.9,346,144.1,345.4z"/>
			<path class="st39" d="M146.4,342.8c0,0-1.7,0.4-2.6,0.1c-0.9-0.2-0.4-0.9,0.1-1.1s2.5-0.2,2.5-0.2S146,342.1,146.4,342.8z"/>
			<path class="st39" d="M147.1,347.8l-3.2,0.9c0,0-0.8,0.5-0.2,0.9s2.2,0.2,2.9,0s1.1-0.4,1.1-0.4S147.1,348.7,147.1,347.8z"/>
			<g id="XMLID_40_">
				<path class="st40" d="M541.4,264.2c0,67.2-25.5,128.6-67.3,174.9c-28.4-4.6-53.1-9.3-69.4-8.2c-37.1,2.4-60.4,40.5-60.4,40.5
					c-19.4-29.8-12-60.7,12.2-72.6c24.2-11.8,23.5-57.8,20.6-73.6c-2.2-11.9-0.8-22.6-1.5-27.8c-0.2-1.7-0.7-2.8-1.6-3.2
					c-1.6-0.7-2.5,0.1-3,1.4l0,0c0,0,0.9-7,14.2-5.4c10.3,1.2,22.8-1.7,34.6-10c2.2,4.5,22.1,14,26.2,16.4c4.4,2.6,2,17.9,1,22.7
					c-0.9,4.5,1.5,7,1.8,7.3c-2.1-2.2,3.1-20.5,1.8-29.2c-1.3-8.7-26.6-14.5-26.6-19.6c0-0.2,0-0.6,0-0.8c1.3-1.1,2.6-2.2,3.9-3.4
					l0,0c10.1,0,26.5,1.3,40.3,10.1c18,12.1,25.3,27.8,30.4,33c5.1,5.1,22.4-6.7-14.7-29.1s-55.1-14.9-55.1-14.9
					c12.8-13.1,65.2-41.8,111.8-15.9c0.3,0.2,0.6,0.3,0.8,0.5C541.4,259.5,541.4,261.8,541.4,264.2z"/>
				<path class="st41" d="M498.6,316.6c-5.2-5.1-12.6-20.9-30.6-33c-12.2-8.2-31-10-40.1-10.4c0.3-0.3,0.6-0.6,1-0.9
					c0,0,18-7.4,55.1,14.9C521,309.6,504,321.8,498.6,316.6z"/>
				<path class="st41" d="M448.9,326.6c-0.4-0.3-2.8-2.9-1.9-7.4c0.9-4.7,3.3-20.1-1-22.7c-4.1-2.4-24-11.9-26.2-16.4
					c1.4-1,2.8-2.1,4.2-3.2c0,0.2,0,0.4,0,0.7c0,5.1,25.5,11.1,26.8,19.8C452.1,306.2,446.9,324.5,448.9,326.6z"/>
				<path class="st40" d="M427.8,273.2c-1.3,1.2-2.6,2.6-3.9,3.7C424.2,272.5,427.8,273.2,427.8,273.2z"/>
				<path class="st41" d="M375.5,296.5l-5.5,2c0,0,0.2-1.5,0.9-3.1c0.5-1.2,1.4-2.1,3-1.4C374.7,294.4,375.2,294.9,375.5,296.5z"/>
			</g>
			
				<linearGradient id="SVGID_24_" gradientUnits="userSpaceOnUse" x1="412.9691" y1="2379.6003" x2="413.3727" y2="2334.8035" gradientTransform="matrix(1 0 0 1 0 -1947.3)">
				<stop  offset="8.378378e-02" style="stop-color:#8F1472"/>
				<stop  offset="0.9649" style="stop-color:#A52387;stop-opacity:0"/>
			</linearGradient>
			<path class="st42" d="M493.1,415c-6.1,8.6-12.7,16.7-19.8,24.4c-26-4.4-44.6-8.8-61.8-8.8c-30.5,0-53.6,20.8-67.2,40.6
				c0,0-14.8-21.9-10.6-41c4.2-19.1,11.3-23.3,11.3-23.3s11.7-0.6,28.3-0.9c17.4-0.4,40.1-0.5,60.4,0.4l0,0
				c16.3,0.8,31.1,2.3,40.2,5C479.2,412.9,485.7,414.1,493.1,415z"/>
			
				<linearGradient id="SVGID_25_" gradientUnits="userSpaceOnUse" x1="484.6847" y1="2211.5066" x2="509.0416" y2="2265.9775" gradientTransform="matrix(1 0 0 1 0 -1947.3)">
				<stop  offset="8.378378e-02" style="stop-color:#B33996"/>
				<stop  offset="0.9649" style="stop-color:#A52387;stop-opacity:0"/>
			</linearGradient>
			<path class="st43" d="M428.7,272.3c0,0,20.1-18,43.1-22.3c20.2-3.8,44.6-5,60.5,2.8c3.8,1.9,8.9,4.5,8.9,4.5s0.1,9.2-0.5,25.4
				c-0.4,9.1-4.5,33.5-5,35.8C514,307.8,471.8,266.7,428.7,272.3z"/>
			
				<linearGradient id="SVGID_26_" gradientUnits="userSpaceOnUse" x1="389.3692" y1="2248.9346" x2="408.4898" y2="2291.6953" gradientTransform="matrix(1 0 0 1 0 -1947.3)">
				<stop  offset="8.378378e-02" style="stop-color:#B33996"/>
				<stop  offset="0.9649" style="stop-color:#A52387;stop-opacity:0"/>
			</linearGradient>
			<path class="st44" d="M373,292c0,0,2.9-2.7,9.2-2.3s12.8,1.3,20.1-1.4c7.3-2.7,9.2-3.7,12.1-5.9c2.9-2.2,1.4,19.5-6.8,26.1
				c-8.2,6.7-6.1,42.5-14.1,49s-12.4,13.8-13.6-8.8s-5.3-37.7-4.1-45.4C377,295.6,377.4,293.3,373,292z"/>
			
				<linearGradient id="SVGID_27_" gradientUnits="userSpaceOnUse" x1="451.636" y1="2227.1489" x2="471.5844" y2="2271.7607" gradientTransform="matrix(1 0 0 1 0 -1947.3)">
				<stop  offset="8.378378e-02" style="stop-color:#B33996"/>
				<stop  offset="0.9649" style="stop-color:#A52387;stop-opacity:0"/>
			</linearGradient>
			<path class="st45" d="M427.8,273.2c0,0-3.2-0.3-3.6,1.9c-0.3,2.2-0.7,4,3.6,6.2c4.3,2.2,16.1,3.5,21,8.4s6.5,7.9,5.2,17.5
				s-4,21.6,1.9,23c6,1.4,12.6-10.3,21.8-9c9.2,1.3,17.4,5.4,18.4,0.3c0.9-5.1-15.3-25.3-23.5-32.7
				C464.5,281.5,443.5,273.2,427.8,273.2z"/>
		</g>
		
			<linearGradient id="SVGID_28_" gradientUnits="userSpaceOnUse" x1="344.2" y1="2398.3137" x2="445.9" y2="2398.3137" gradientTransform="matrix(1 0 0 1 0 -1947.3)">
			<stop  offset="6.756756e-02" style="stop-color:#A87B9D;stop-opacity:0.5"/>
			<stop  offset="1" style="stop-color:#F4D7ED"/>
		</linearGradient>
		<path class="st46" d="M344.2,471.3c0,0,35.7-27.5,55.4-32.8c19.7-5.3,35.7-5.8,46.3-3.9c0,0-37.8-9.1-58.7,0.6
			C366.2,445,354.1,456.7,344.2,471.3z"/>
	</g>
</g>
<g id="Layer_2">
	<rect class="st0" width="543" height="525"/>
</g>
</svg>
