<?xml version="1.0" encoding="utf-8"?>
<!-- Generator: Adobe Illustrator 22.0.1, SVG Export Plug-In . SVG Version: 6.00 Build 0)  -->
<svg version="1.1" id="Layer_1" xmlns="http://www.w3.org/2000/svg" xmlns:xlink="http://www.w3.org/1999/xlink" x="0px" y="0px"
	 viewBox="0 0 525 525" style="enable-background:new 0 0 525 525;" xml:space="preserve">
<style type="text/css">
	.st0{fill:#F5E1ED;}
	.st1{fill:#F5E1ED;stroke:#E0BDD4;stroke-width:2;stroke-miterlimit:10;}
	.st2{fill:none;stroke:#E0BDD4;stroke-linecap:round;stroke-linejoin:round;stroke-miterlimit:10;}
	.st3{fill:none;stroke:#E0BDD4;stroke-miterlimit:10;}
	.st4{fill:none;stroke:#E0BDD4;stroke-width:2;stroke-linecap:round;stroke-linejoin:round;stroke-miterlimit:10;}
	.st5{fill:none;stroke:#E0BDD4;stroke-width:2;stroke-miterlimit:10;}
	.st6{fill:#F5E1ED;stroke:#E0BDD4;stroke-width:2;stroke-linecap:round;stroke-linejoin:round;stroke-miterlimit:10;}
	.st7{fill:none;stroke:#E0BDD4;stroke-width:2;stroke-linecap:round;stroke-miterlimit:10;}
	.st8{fill:#E0BDD4;}
	.st9{fill:#DB2846;}
	.st10{fill:#E8435B;}
	.st11{fill:#B50835;}
	.st12{fill:#C9C9C9;}
	.st13{fill:#52A36D;}
	.st14{fill:#437C5B;}
	.st15{fill:#C61A40;}
	.st16{fill:#6CBA84;}
	.st17{fill:#89CC9C;}
	.st18{fill:none;}
</style>
<g>
	<ellipse class="st0" cx="262.9" cy="262.2" rx="261.5" ry="261.6"/>
	<g>
		<path class="st1" d="M434.4,181.5c-0.4,5.4-4.1,9.9-15.2,9.9c-8.4,0-15.2-4.4-15.2-9.9c0-10.3,6.8-9.9,15.2-9.9
			C427.6,171.7,435.1,171.7,434.4,181.5z"/>
		<line class="st2" x1="410.1" y1="177.9" x2="410.8" y2="176.8"/>
		<line class="st2" x1="417.6" y1="186.6" x2="418.5" y2="187.5"/>
		<path class="st2" d="M426.6,180.5"/>
		<line class="st2" x1="427" y1="178.9" x2="428.1" y2="177.9"/>
	</g>
	<g>
		<g>
			<path class="st1" d="M450.4,94.2c-0.9-0.8-1.9-1.4-3-1.6h-0.1c-1.1-0.2-2.2,0-3.1,0.6c-4.4,2.9-9.5,10.6-11.1,13
				c-2.2,3.2-10.1,13.6-11.5,17.6c-0.2,0.7-0.3,1.3-0.4,2c0,0.2,0,0.5,0,0.7c0.1,1.6,0.9,2.9,1.8,3.6c4.6,5.9,11.5-3.1,14.6-8.3
				c0.2-0.3,12.5-17,14-20.7c1-2.3,0.8-4.1-0.5-5.8C451,94.8,450.7,94.5,450.4,94.2z"/>
		</g>
		<line class="st2" x1="423.7" y1="125.7" x2="424.3" y2="124.4"/>
		<line class="st2" x1="427.5" y1="123.2" x2="427.8" y2="122.4"/>
		<line class="st2" x1="428.3" y1="119" x2="428.7" y2="118.4"/>
		<line class="st2" x1="428.1" y1="128.6" x2="429.2" y2="127.7"/>
		<line class="st2" x1="430.9" y1="125" x2="431.3" y2="124.5"/>
		<line class="st2" x1="431.5" y1="119.8" x2="432.7" y2="118.7"/>
		<line class="st2" x1="435.3" y1="119.2" x2="436.2" y2="118.1"/>
		<line class="st2" x1="430.2" y1="114.9" x2="430.4" y2="114.4"/>
		<line class="st2" x1="432.6" y1="109.8" x2="432.9" y2="109.1"/>
		<line class="st2" x1="434.8" y1="114.8" x2="435" y2="114"/>
		<line class="st2" x1="438.7" y1="115.9" x2="439.1" y2="115.1"/>
		<line class="st2" x1="437.5" y1="111.3" x2="437.6" y2="110.9"/>
		<line class="st2" x1="436.4" y1="107.9" x2="436.7" y2="107.1"/>
		<line class="st2" x1="441.8" y1="110.8" x2="442.2" y2="110.3"/>
		<line class="st2" x1="445.1" y1="108" x2="445.5" y2="107.3"/>
		<line class="st2" x1="441.1" y1="105.6" x2="441.6" y2="104.5"/>
		<line class="st2" x1="438.1" y1="103.1" x2="438.1" y2="102.6"/>
		<line class="st2" x1="441.4" y1="100.9" x2="441.6" y2="100.1"/>
		<line class="st2" x1="444.8" y1="102.6" x2="444.9" y2="102.3"/>
		<line class="st2" x1="446.5" y1="97.7" x2="446.6" y2="97.5"/>
		<line class="st2" x1="443.4" y1="96.4" x2="443.9" y2="95.9"/>
		<line class="st2" x1="448.2" y1="102.9" x2="448.5" y2="102.4"/>
		<line class="st2" x1="449.8" y1="97.6" x2="450" y2="96.6"/>
	</g>
	<g>
		<g>
			<path class="st1" d="M457.5,121c-0.5-1.4-1.5-2.5-2.6-3.3c0,0-0.1,0-0.1-0.1c-1.3-0.8-2.8-1.3-4.4-1.2c-7.7,0.3-20,4.9-23.8,6.3
				c-5.2,1.9-23,7.6-27.6,10.7c-0.8,0.5-1.4,1.1-1.9,1.7c-0.2,0.2-0.3,0.4-0.5,0.7c-1,1.7-1,3.4-0.4,4.6c1.5,8.5,16.9,3.7,24.8,0.3
				c0.5-0.2,28.5-9.6,33.1-12.2c3-1.7,4-3.6,3.7-6.1C457.8,122,457.7,121.4,457.5,121z"/>
		</g>
		<line class="st2" x1="400.2" y1="136.5" x2="402" y2="135.6"/>
		<line class="st2" x1="406.9" y1="136.3" x2="407.9" y2="135.7"/>
		<line class="st2" x1="411" y1="132.6" x2="412" y2="132.3"/>
		<line class="st2" x1="403.7" y1="142" x2="405.7" y2="141.7"/>
		<line class="st2" x1="409.9" y1="140" x2="410.8" y2="139.8"/>
		<line class="st2" x1="414.6" y1="135.3" x2="416.9" y2="134.9"/>
		<line class="st2" x1="419.9" y1="136.9" x2="421.8" y2="136.3"/>
		<line class="st2" x1="416.5" y1="129.7" x2="417.1" y2="129.3"/>
		<line class="st2" x1="423.3" y1="126" x2="424.1" y2="125.5"/>
		<line class="st2" x1="422.4" y1="132.2" x2="423.3" y2="131.6"/>
		<line class="st2" x1="426.5" y1="135.6" x2="427.7" y2="135.1"/>
		<line class="st2" x1="428.5" y1="130.4" x2="428.9" y2="130"/>
		<line class="st2" x1="429.6" y1="126.4" x2="430.5" y2="125.8"/>
		<line class="st2" x1="434.3" y1="132.4" x2="435.2" y2="132.1"/>
		<line class="st2" x1="440.6" y1="131.5" x2="441.6" y2="131.1"/>
		<line class="st2" x1="437.3" y1="126.8" x2="438.7" y2="126.1"/>
		<line class="st2" x1="435.2" y1="122.6" x2="435.6" y2="122.2"/>
		<line class="st2" x1="441.1" y1="122.4" x2="441.9" y2="121.7"/>
		<line class="st2" x1="444.1" y1="126.1" x2="444.5" y2="125.8"/>
		<line class="st2" x1="449.9" y1="122.2" x2="450.2" y2="122"/>
		<line class="st2" x1="447" y1="119.1" x2="447.9" y2="118.9"/>
		<line class="st2" x1="448.3" y1="128.3" x2="449" y2="128"/>
		<line class="st2" x1="454.3" y1="124" x2="455.3" y2="123.2"/>
	</g>
	<g>
		<g>
			<path class="st1" d="M467.3,100.8c-0.4-1.1-1.1-2-1.9-2.7c0,0,0,0-0.1,0c-0.9-0.7-2.1-1-3.2-1c-5.7,0.2-14.8,4-17.6,5.2
				c-3.8,1.5-17,6.2-20.5,8.7c-0.6,0.4-1.1,0.9-1.4,1.4c-0.1,0.2-0.2,0.4-0.3,0.6c-0.7,1.4-0.7,2.8-0.3,3.8c1.1,7,12.5,3,18.4,0.3
				c0.4-0.2,21.1-7.8,24.6-10c2.2-1.4,3-3,2.7-5C467.5,101.6,467.4,101.2,467.3,100.8z"/>
		</g>
		<line class="st2" x1="424.8" y1="113.5" x2="426.1" y2="112.8"/>
		<line class="st2" x1="429.8" y1="113.3" x2="430.5" y2="112.8"/>
		<line class="st2" x1="432.8" y1="110.3" x2="433.5" y2="110"/>
		<line class="st2" x1="427.4" y1="118" x2="428.9" y2="117.7"/>
		<line class="st2" x1="432" y1="116.3" x2="432.6" y2="116.2"/>
		<line class="st2" x1="435.4" y1="112.5" x2="437.1" y2="112.2"/>
		<line class="st2" x1="439.4" y1="113.8" x2="440.8" y2="113.3"/>
		<line class="st2" x1="436.9" y1="107.9" x2="437.3" y2="107.6"/>
		<line class="st2" x1="441.9" y1="104.9" x2="442.5" y2="104.5"/>
		<line class="st2" x1="441.2" y1="110" x2="441.9" y2="109.4"/>
		<line class="st2" x1="444.3" y1="112.8" x2="445.2" y2="112.3"/>
		<line class="st2" x1="445.7" y1="108.5" x2="446.1" y2="108.2"/>
		<line class="st2" x1="446.6" y1="105.2" x2="447.2" y2="104.7"/>
		<line class="st2" x1="450.1" y1="110.1" x2="450.7" y2="109.9"/>
		<line class="st2" x1="454.7" y1="109.4" x2="455.5" y2="109"/>
		<line class="st2" x1="452.3" y1="105.6" x2="453.3" y2="105"/>
		<line class="st2" x1="450.7" y1="102.1" x2="451" y2="101.8"/>
		<line class="st2" x1="455.1" y1="102" x2="455.7" y2="101.4"/>
		<line class="st2" x1="457.4" y1="105" x2="457.6" y2="104.7"/>
		<line class="st2" x1="461.6" y1="101.8" x2="461.8" y2="101.7"/>
		<line class="st2" x1="459.5" y1="99.3" x2="460.2" y2="99.1"/>
		<line class="st2" x1="460.4" y1="106.8" x2="461" y2="106.5"/>
		<line class="st2" x1="464.9" y1="103.3" x2="465.6" y2="102.6"/>
	</g>
	<g>
		<g>
			<path class="st1" d="M401.7,109c-0.4-1.2-1.2-2.1-2.2-2.8c0,0-0.1,0-0.1-0.1c-1.1-0.7-2.4-1.1-3.7-1c-6.5,0.2-17,4.2-20.3,5.4
				c-4.4,1.6-19.6,6.5-23.5,9.1c-0.7,0.5-1.2,1-1.6,1.5c-0.1,0.2-0.3,0.4-0.4,0.6c-0.9,1.4-0.8,2.9-0.4,3.9
				c1.3,7.3,14.4,3.1,21.1,0.3c0.4-0.2,24.2-8.1,28.2-10.4c2.5-1.4,3.4-3.1,3.1-5.2C401.9,109.9,401.8,109.4,401.7,109z"/>
		</g>
		<line class="st2" x1="352.9" y1="122.2" x2="354.4" y2="121.5"/>
		<line class="st2" x1="358.6" y1="122" x2="359.4" y2="121.5"/>
		<line class="st2" x1="362" y1="118.9" x2="362.9" y2="118.6"/>
		<line class="st2" x1="355.8" y1="126.9" x2="357.5" y2="126.7"/>
		<line class="st2" x1="361.1" y1="125.2" x2="361.9" y2="125.1"/>
		<line class="st2" x1="365.1" y1="121.2" x2="367.1" y2="120.9"/>
		<line class="st2" x1="369.6" y1="122.6" x2="371.2" y2="122"/>
		<line class="st2" x1="366.7" y1="116.5" x2="367.2" y2="116.1"/>
		<line class="st2" x1="372.5" y1="113.3" x2="373.2" y2="112.9"/>
		<line class="st2" x1="371.8" y1="118.6" x2="372.5" y2="118"/>
		<line class="st2" x1="375.3" y1="121.5" x2="376.3" y2="121.1"/>
		<line class="st2" x1="376.9" y1="117" x2="377.3" y2="116.7"/>
		<line class="st2" x1="377.9" y1="113.6" x2="378.6" y2="113.1"/>
		<line class="st2" x1="381.9" y1="118.8" x2="382.6" y2="118.5"/>
		<line class="st2" x1="387.3" y1="118" x2="388.1" y2="117.6"/>
		<line class="st2" x1="384.4" y1="114" x2="385.6" y2="113.4"/>
		<line class="st2" x1="382.7" y1="110.4" x2="383" y2="110.1"/>
		<line class="st2" x1="387.7" y1="110.2" x2="388.4" y2="109.6"/>
		<line class="st2" x1="390.3" y1="113.4" x2="390.5" y2="113.1"/>
		<line class="st2" x1="395.2" y1="110.1" x2="395.4" y2="109.9"/>
		<line class="st2" x1="392.7" y1="107.4" x2="393.5" y2="107.3"/>
		<line class="st2" x1="393.8" y1="115.2" x2="394.4" y2="115"/>
		<line class="st2" x1="398.9" y1="111.6" x2="399.8" y2="110.9"/>
	</g>
	<g>
		<g>
			<path class="st1" d="M414,113.5c-0.8-0.8-1.9-1.3-3-1.4h-0.1c-1.2-0.2-2.4,0-3.6,0.6c-5.4,2.7-12.7,9.9-15,12.1
				c-3.1,3-14,12.7-16.3,16.4c-0.4,0.6-0.7,1.2-0.8,1.8c0,0.2-0.1,0.4-0.1,0.6c-0.2,1.5,0.4,2.7,1.2,3.4c3.9,5.4,13.4-2.9,18-7.8
				c0.3-0.3,17.3-15.9,19.8-19.2c1.6-2.1,1.7-3.8,0.6-5.4C414.5,114,414.3,113.7,414,113.5z"/>
		</g>
		<line class="st2" x1="377.9" y1="142.8" x2="378.9" y2="141.6"/>
		<line class="st2" x1="382.6" y1="140.5" x2="383.1" y2="139.7"/>
		<line class="st2" x1="384.3" y1="136.6" x2="384.9" y2="136.1"/>
		<line class="st2" x1="382.2" y1="145.5" x2="383.6" y2="144.6"/>
		<line class="st2" x1="386" y1="142.1" x2="386.6" y2="141.7"/>
		<line class="st2" x1="387.8" y1="137.3" x2="389.4" y2="136.3"/>
		<line class="st2" x1="392.2" y1="136.7" x2="393.3" y2="135.7"/>
		<line class="st2" x1="387.3" y1="132.8" x2="387.7" y2="132.4"/>
		<line class="st2" x1="391" y1="128.1" x2="391.4" y2="127.4"/>
		<line class="st2" x1="392.4" y1="132.7" x2="392.9" y2="131.9"/>
		<line class="st2" x1="396.6" y1="133.7" x2="397.2" y2="133"/>
		<line class="st2" x1="396.2" y1="129.4" x2="396.4" y2="129"/>
		<line class="st2" x1="395.7" y1="126.3" x2="396.1" y2="125.6"/>
		<line class="st2" x1="401.1" y1="129" x2="401.6" y2="128.4"/>
		<line class="st2" x1="405.3" y1="126.3" x2="405.9" y2="125.7"/>
		<line class="st2" x1="401.3" y1="124.1" x2="402.1" y2="123.1"/>
		<line class="st2" x1="398.5" y1="121.9" x2="398.6" y2="121.4"/>
		<line class="st2" x1="402.6" y1="119.8" x2="403" y2="119"/>
		<line class="st2" x1="406" y1="121.4" x2="406.2" y2="121"/>
		<line class="st2" x1="408.9" y1="116.8" x2="409.1" y2="116.6"/>
		<line class="st2" x1="405.8" y1="115.6" x2="406.4" y2="115.1"/>
		<line class="st2" x1="409.8" y1="121.6" x2="410.2" y2="121.1"/>
		<line class="st2" x1="412.7" y1="116.6" x2="413.1" y2="115.7"/>
	</g>
	<g>
		<g>
			<path class="st1" d="M400.9,101.5c-0.9-0.6-2.1-0.9-3.2-0.9h-0.1c-1.2,0-2.4,0.4-3.4,1.1c-4.9,3.5-11,11.8-12.9,14.3
				c-2.6,3.4-11.8,14.7-13.5,18.7c-0.3,0.7-0.4,1.3-0.5,1.9c0,0.2,0,0.4,0,0.6c0.1,1.5,0.9,2.6,1.7,3.1c4.7,4.8,12.8-5,16.5-10.5
				c0.2-0.4,14.6-18.4,16.5-22.1c1.2-2.4,1.1-4.1-0.2-5.4C401.5,102,401.2,101.7,400.9,101.5z"/>
		</g>
		<line class="st2" x1="369.8" y1="136.1" x2="370.6" y2="134.8"/>
		<line class="st2" x1="374.1" y1="133.1" x2="374.5" y2="132.3"/>
		<line class="st2" x1="375.2" y1="129" x2="375.7" y2="128.4"/>
		<line class="st2" x1="374.5" y1="138.1" x2="375.7" y2="137"/>
		<line class="st2" x1="377.8" y1="134.2" x2="378.3" y2="133.7"/>
		<line class="st2" x1="378.8" y1="129.2" x2="380.1" y2="127.9"/>
		<line class="st2" x1="383" y1="127.9" x2="384" y2="126.7"/>
		<line class="st2" x1="377.6" y1="124.8" x2="377.8" y2="124.3"/>
		<line class="st2" x1="380.5" y1="119.5" x2="380.8" y2="118.8"/>
		<line class="st2" x1="382.6" y1="123.8" x2="382.9" y2="123"/>
		<line class="st2" x1="386.8" y1="124.2" x2="387.4" y2="123.4"/>
		<line class="st2" x1="385.8" y1="120" x2="386" y2="119.6"/>
		<line class="st2" x1="384.8" y1="117" x2="385.1" y2="116.2"/>
		<line class="st2" x1="390.5" y1="118.8" x2="391" y2="118.2"/>
		<line class="st2" x1="394.3" y1="115.5" x2="394.8" y2="114.8"/>
		<line class="st2" x1="390" y1="113.9" x2="390.7" y2="112.9"/>
		<line class="st2" x1="386.8" y1="112.2" x2="386.9" y2="111.7"/>
		<line class="st2" x1="390.6" y1="109.5" x2="390.9" y2="108.7"/>
		<line class="st2" x1="394.3" y1="110.5" x2="394.4" y2="110.2"/>
		<line class="st2" x1="396.4" y1="105.6" x2="396.5" y2="105.3"/>
		<line class="st2" x1="393.1" y1="104.9" x2="393.6" y2="104.3"/>
		<line class="st2" x1="398" y1="110.1" x2="398.3" y2="109.6"/>
		<line class="st2" x1="400.1" y1="104.8" x2="400.4" y2="103.8"/>
	</g>
	<g>
		<g>
			<path class="st1" d="M430.8,85.6c-1.2-0.6-2.4-0.7-3.6-0.3c-5.8,1.7-12.3,7.8-14.9,9.9c-3.5,2.8-15.7,11.6-18.5,15.4
				c-0.5,0.7-0.8,1.3-1,2c-0.1,0.2-0.1,0.5-0.2,0.7c-0.4,1.8,0.1,3.4,0.8,4.5c3.2,7.8,13.7,0.3,19-4.4c0.3-0.3,19.4-14.5,22.3-17.9
				c1.9-2.2,2.2-4.2,1.4-6.5C435.9,88.5,430.9,85.6,430.8,85.6z"/>
		</g>
		<line class="st2" x1="395.5" y1="113.3" x2="396.6" y2="112.1"/>
		<line class="st2" x1="400.5" y1="111.8" x2="401.1" y2="111"/>
		<line class="st2" x1="402.7" y1="107.5" x2="403.4" y2="107"/>
		<line class="st2" x1="399.4" y1="117.9" x2="400.9" y2="117.2"/>
		<line class="st2" x1="403.7" y1="114.8" x2="404.3" y2="114.5"/>
		<line class="st2" x1="406.1" y1="109.4" x2="407.8" y2="108.7"/>
		<line class="st2" x1="410.5" y1="110" x2="411.8" y2="109"/>
		<line class="st2" x1="406.3" y1="103.8" x2="406.6" y2="103.3"/>
		<line class="st2" x1="410.6" y1="99" x2="411.1" y2="98.3"/>
		<line class="st2" x1="411.4" y1="105" x2="411.9" y2="104.2"/>
		<line class="st2" x1="415.3" y1="107.5" x2="416.1" y2="106.8"/>
		<line class="st2" x1="415.5" y1="102.1" x2="415.8" y2="101.7"/>
		<line class="st2" x1="415.5" y1="98.1" x2="416" y2="97.4"/>
		<line class="st2" x1="420.5" y1="102.9" x2="421" y2="102.4"/>
		<line class="st2" x1="425.1" y1="100.9" x2="425.7" y2="100.3"/>
		<line class="st2" x1="421.4" y1="97" x2="422.3" y2="96.1"/>
		<line class="st2" x1="418.8" y1="93.5" x2="419" y2="93"/>
		<line class="st2" x1="423.3" y1="92.1" x2="423.7" y2="91.3"/>
		<line class="st2" x1="426.4" y1="95" x2="426.6" y2="94.7"/>
		<line class="st2" x1="429.9" y1="90.3" x2="430.1" y2="90.1"/>
		<line class="st2" x1="426.9" y1="87.9" x2="427.6" y2="87.5"/>
		<line class="st2" x1="430.1" y1="96.3" x2="430.6" y2="95.9"/>
		<line class="st2" x1="433.7" y1="91.1" x2="434.2" y2="90.1"/>
	</g>
	<g>
		<g>
			<path class="st1" d="M403.6,133c-0.5-1.1-1.2-2-2.1-2.6c0,0,0,0-0.1,0c-0.9-0.6-2-0.9-3.1-0.7c-5.1,0.9-12.9,6-15.3,7.6
				c-3.3,2.1-14.6,8.6-17.4,11.7c-0.5,0.5-0.8,1.1-1.1,1.7c-0.1,0.2-0.2,0.4-0.2,0.6c-0.5,1.5-0.3,3.1,0.2,4
				c1.9,7.2,11.8,1.7,16.7-1.9c0.3-0.2,18.1-10.8,21-13.5c1.8-1.7,2.3-3.5,1.8-5.6C403.9,133.8,403.8,133.4,403.6,133z"/>
		</g>
		<line class="st2" x1="366.7" y1="151.5" x2="367.8" y2="150.6"/>
		<line class="st2" x1="371.2" y1="150.7" x2="371.8" y2="150.1"/>
		<line class="st2" x1="373.5" y1="147.2" x2="374.1" y2="146.8"/>
		<line class="st2" x1="369.6" y1="155.9" x2="370.9" y2="155.5"/>
		<line class="st2" x1="373.6" y1="153.7" x2="374.2" y2="153.4"/>
		<line class="st2" x1="376.2" y1="149.2" x2="377.7" y2="148.7"/>
		<line class="st2" x1="380" y1="150.1" x2="381.2" y2="149.4"/>
		<line class="st2" x1="376.9" y1="144.2" x2="377.3" y2="143.8"/>
		<line class="st2" x1="381.1" y1="140.4" x2="381.6" y2="139.9"/>
		<line class="st2" x1="381.2" y1="145.8" x2="381.7" y2="145.2"/>
		<line class="st2" x1="384.3" y1="148.4" x2="385" y2="147.9"/>
		<line class="st2" x1="385" y1="143.7" x2="385.3" y2="143.3"/>
		<line class="st2" x1="385.4" y1="140.1" x2="385.9" y2="139.5"/>
		<line class="st2" x1="389.2" y1="144.9" x2="389.7" y2="144.6"/>
		<line class="st2" x1="393.3" y1="143.6" x2="394" y2="143.1"/>
		<line class="st2" x1="390.6" y1="139.8" x2="391.5" y2="139.1"/>
		<line class="st2" x1="388.7" y1="136.4" x2="389" y2="136"/>
		<line class="st2" x1="392.7" y1="135.7" x2="393.2" y2="135"/>
		<line class="st2" x1="395.1" y1="138.6" x2="395.3" y2="138.3"/>
		<line class="st2" x1="398.6" y1="134.7" x2="398.8" y2="134.6"/>
		<line class="st2" x1="396.3" y1="132.3" x2="396.9" y2="132.1"/>
		<line class="st2" x1="398.1" y1="140.1" x2="398.6" y2="139.8"/>
		<line class="st2" x1="401.8" y1="135.9" x2="402.3" y2="135.1"/>
	</g>
	<g>
		<path class="st1" d="M456.3,172.5c2.8,3.6,1,9.7-5.2,14.5s-15.8,6.4-18.5,2.8c-1.4-1.8-3.1-4.5-2.8-7.4c0.6-5.1,5.9-5.3,9-7.7
			c3.4-2.6,5.9-5.7,9-5.3C451.7,169.8,453.7,169.1,456.3,172.5z"/>
		<line class="st2" x1="434.4" y1="182.8" x2="435.6" y2="183.2"/>
		<line class="st2" x1="440.8" y1="187.7" x2="441.6" y2="186.4"/>
		<line class="st2" x1="445.8" y1="175.3" x2="448.1" y2="175.9"/>
		<line class="st2" x1="451.9" y1="181.7" x2="452.1" y2="180"/>
		<line class="st2" x1="452.8" y1="175.3" x2="453.4" y2="174.8"/>
		<line class="st2" x1="440.2" y1="177.9" x2="440.6" y2="178.7"/>
		<line class="st2" x1="446.3" y1="183" x2="446.6" y2="183.3"/>
	</g>
	<g>
		<g>
			<path class="st1" d="M413.6,151.3c-0.5-1.4-1.5-2.5-2.6-3.3c0,0-0.1,0-0.1-0.1c-1.3-0.8-2.8-1.3-4.4-1.2
				c-7.7,0.3-20,4.9-23.8,6.3c-5.2,1.9-23,7.6-27.6,10.7c-0.8,0.5-1.4,1.1-1.9,1.7c-0.2,0.2-0.3,0.4-0.5,0.7c-1,1.7-1,3.4-0.4,4.6
				c1.5,8.5,16.9,3.7,24.8,0.3c0.5-0.2,28.5-9.6,33.1-12.2c3-1.7,4-3.6,3.7-6.1C414,152.3,413.8,151.8,413.6,151.3z"/>
		</g>
		<line class="st2" x1="356.3" y1="166.8" x2="358.1" y2="165.9"/>
		<line class="st2" x1="363" y1="166.6" x2="364" y2="166"/>
		<line class="st2" x1="367.1" y1="162.9" x2="368.1" y2="162.6"/>
		<line class="st2" x1="359.8" y1="172.3" x2="361.8" y2="172"/>
		<line class="st2" x1="366" y1="170.3" x2="366.9" y2="170.2"/>
		<line class="st2" x1="370.7" y1="165.6" x2="373" y2="165.3"/>
		<line class="st2" x1="376" y1="167.2" x2="377.9" y2="166.6"/>
		<line class="st2" x1="372.6" y1="160" x2="373.2" y2="159.7"/>
		<line class="st2" x1="379.4" y1="156.4" x2="380.3" y2="155.8"/>
		<line class="st2" x1="378.5" y1="162.5" x2="379.4" y2="161.9"/>
		<line class="st2" x1="382.6" y1="165.9" x2="383.8" y2="165.4"/>
		<line class="st2" x1="384.6" y1="160.7" x2="385.1" y2="160.3"/>
		<line class="st2" x1="385.7" y1="156.7" x2="386.6" y2="156.1"/>
		<line class="st2" x1="390.4" y1="162.7" x2="391.3" y2="162.4"/>
		<line class="st2" x1="396.7" y1="161.9" x2="397.7" y2="161.4"/>
		<line class="st2" x1="393.4" y1="157.1" x2="394.8" y2="156.4"/>
		<line class="st2" x1="391.3" y1="153" x2="391.7" y2="152.5"/>
		<line class="st2" x1="397.2" y1="152.7" x2="398" y2="152"/>
		<line class="st2" x1="400.2" y1="156.4" x2="400.6" y2="156.1"/>
		<line class="st2" x1="406" y1="152.5" x2="406.3" y2="152.4"/>
		<line class="st2" x1="403.1" y1="149.4" x2="404.1" y2="149.2"/>
		<line class="st2" x1="404.4" y1="158.6" x2="405.1" y2="158.3"/>
		<line class="st2" x1="410.4" y1="154.3" x2="411.4" y2="153.5"/>
	</g>
	<path class="st1" d="M479.2,173.3c3.2,4.2-0.2,12.1-7.6,17.8s-15.9,6.9-19.1,2.7s-8.8-12,3.2-21.6
		C469.5,161.2,476,169.1,479.2,173.3z"/>
	<g>
		<g>
			<path class="st1" d="M357.8,139.3c-0.4-1.2-1.2-2.1-2.2-2.8c0,0-0.1,0-0.1-0.1c-1.1-0.7-2.4-1.1-3.7-1c-6.5,0.2-17,4.2-20.3,5.4
				c-4.4,1.6-19.6,6.5-23.5,9.1c-0.7,0.5-1.2,1-1.6,1.5c-0.1,0.2-0.3,0.4-0.4,0.6c-0.9,1.4-0.8,2.9-0.4,3.9
				c1.3,7.3,14.4,3.1,21.1,0.3c0.4-0.2,24.2-8.1,28.2-10.4c2.5-1.4,3.4-3.1,3.1-5.2C358.1,140.2,357.9,139.8,357.8,139.3z"/>
		</g>
		<line class="st2" x1="309" y1="152.6" x2="310.5" y2="151.8"/>
		<line class="st2" x1="314.7" y1="152.4" x2="315.5" y2="151.9"/>
		<line class="st2" x1="318.1" y1="149.2" x2="319" y2="149"/>
		<line class="st2" x1="312" y1="157.2" x2="313.7" y2="157"/>
		<line class="st2" x1="317.2" y1="155.6" x2="318" y2="155.4"/>
		<line class="st2" x1="321.2" y1="151.5" x2="323.2" y2="151.2"/>
		<line class="st2" x1="325.7" y1="152.9" x2="327.3" y2="152.4"/>
		<line class="st2" x1="322.8" y1="146.8" x2="323.4" y2="146.5"/>
		<line class="st2" x1="328.6" y1="143.7" x2="329.4" y2="143.2"/>
		<line class="st2" x1="327.9" y1="148.9" x2="328.6" y2="148.4"/>
		<line class="st2" x1="331.4" y1="151.8" x2="332.4" y2="151.4"/>
		<line class="st2" x1="333" y1="147.4" x2="333.4" y2="147.1"/>
		<line class="st2" x1="334" y1="144" x2="334.7" y2="143.4"/>
		<line class="st2" x1="338" y1="149.1" x2="338.7" y2="148.8"/>
		<line class="st2" x1="343.4" y1="148.3" x2="344.2" y2="148"/>
		<line class="st2" x1="340.5" y1="144.3" x2="341.7" y2="143.7"/>
		<line class="st2" x1="338.8" y1="140.8" x2="339.1" y2="140.4"/>
		<line class="st2" x1="343.8" y1="140.6" x2="344.5" y2="140"/>
		<line class="st2" x1="346.4" y1="143.7" x2="346.7" y2="143.4"/>
		<line class="st2" x1="351.3" y1="140.4" x2="351.5" y2="140.3"/>
		<line class="st2" x1="348.8" y1="137.8" x2="349.6" y2="137.6"/>
		<line class="st2" x1="349.9" y1="145.6" x2="350.5" y2="145.3"/>
		<line class="st2" x1="355" y1="141.9" x2="355.9" y2="141.2"/>
	</g>
	<g>
		<g>
			<path class="st1" d="M370.1,143.8c-0.8-0.8-1.9-1.3-3-1.4H367c-1.2-0.2-2.4,0-3.6,0.6c-5.4,2.7-12.7,9.9-15,12.1
				c-3.1,3-14,12.7-16.3,16.4c-0.4,0.6-0.7,1.2-0.8,1.8c0,0.2-0.1,0.4-0.1,0.6c-0.2,1.5,0.4,2.7,1.2,3.4c3.9,5.4,13.4-2.9,18-7.8
				c0.3-0.3,17.3-15.9,19.8-19.2c1.6-2.1,1.7-3.8,0.6-5.4C370.7,144.4,370.4,144.1,370.1,143.8z"/>
		</g>
		<line class="st2" x1="334" y1="173.1" x2="335" y2="172"/>
		<line class="st2" x1="338.8" y1="170.8" x2="339.3" y2="170.1"/>
		<line class="st2" x1="340.4" y1="166.9" x2="341" y2="166.4"/>
		<line class="st2" x1="338.4" y1="175.8" x2="339.7" y2="175"/>
		<line class="st2" x1="342.2" y1="172.4" x2="342.7" y2="172"/>
		<line class="st2" x1="343.9" y1="167.6" x2="345.5" y2="166.7"/>
		<line class="st2" x1="348.3" y1="167.1" x2="349.5" y2="166"/>
		<line class="st2" x1="343.5" y1="163.2" x2="343.8" y2="162.7"/>
		<line class="st2" x1="347.1" y1="158.4" x2="347.6" y2="157.8"/>
		<line class="st2" x1="348.6" y1="163" x2="349" y2="162.3"/>
		<line class="st2" x1="352.7" y1="164" x2="353.3" y2="163.3"/>
		<line class="st2" x1="352.3" y1="159.8" x2="352.5" y2="159.3"/>
		<line class="st2" x1="351.8" y1="156.6" x2="352.2" y2="155.9"/>
		<line class="st2" x1="357.2" y1="159.3" x2="357.7" y2="158.7"/>
		<line class="st2" x1="361.5" y1="156.6" x2="362" y2="156"/>
		<line class="st2" x1="357.5" y1="154.4" x2="358.2" y2="153.4"/>
		<line class="st2" x1="354.6" y1="152.2" x2="354.7" y2="151.7"/>
		<line class="st2" x1="358.7" y1="150.1" x2="359.1" y2="149.3"/>
		<line class="st2" x1="362.2" y1="151.7" x2="362.3" y2="151.4"/>
		<line class="st2" x1="365" y1="147.1" x2="365.2" y2="146.9"/>
		<line class="st2" x1="361.9" y1="145.9" x2="362.5" y2="145.5"/>
		<line class="st2" x1="365.9" y1="151.9" x2="366.3" y2="151.4"/>
		<line class="st2" x1="368.8" y1="146.9" x2="369.2" y2="146"/>
	</g>
	<g>
		<g>
			<path class="st1" d="M358.7,129.9c-0.8-0.8-1.9-1.3-3-1.4h-0.1c-1.2-0.2-2.4,0-3.6,0.6c-5.4,2.7-12.7,9.9-15,12.1
				c-3.1,3-14,12.7-16.3,16.4c-0.4,0.6-0.7,1.2-0.8,1.8c0,0.2-0.1,0.4-0.1,0.6c-0.2,1.5,0.4,2.7,1.2,3.4c3.9,5.4,13.4-2.9,18-7.8
				c0.3-0.3,17.3-15.9,19.8-19.2c1.6-2.1,1.7-3.8,0.6-5.4C359.3,130.5,359,130.2,358.7,129.9z"/>
		</g>
		<line class="st2" x1="322.6" y1="159.3" x2="323.6" y2="158.1"/>
		<line class="st2" x1="327.4" y1="156.9" x2="327.9" y2="156.2"/>
		<line class="st2" x1="329.1" y1="153.1" x2="329.7" y2="152.5"/>
		<line class="st2" x1="327" y1="161.9" x2="328.3" y2="161.1"/>
		<line class="st2" x1="330.8" y1="158.6" x2="331.3" y2="158.2"/>
		<line class="st2" x1="332.6" y1="153.8" x2="334.1" y2="152.8"/>
		<line class="st2" x1="336.9" y1="153.2" x2="338.1" y2="152.1"/>
		<line class="st2" x1="332.1" y1="149.3" x2="332.4" y2="148.8"/>
		<line class="st2" x1="335.7" y1="144.5" x2="336.2" y2="143.9"/>
		<line class="st2" x1="337.2" y1="149.1" x2="337.6" y2="148.4"/>
		<line class="st2" x1="341.3" y1="150.1" x2="342" y2="149.4"/>
		<line class="st2" x1="340.9" y1="145.9" x2="341.2" y2="145.5"/>
		<line class="st2" x1="340.4" y1="142.7" x2="340.8" y2="142"/>
		<line class="st2" x1="345.8" y1="145.4" x2="346.3" y2="144.9"/>
		<line class="st2" x1="350.1" y1="142.7" x2="350.6" y2="142.1"/>
		<line class="st2" x1="346.1" y1="140.5" x2="346.9" y2="139.6"/>
		<line class="st2" x1="343.2" y1="138.3" x2="343.3" y2="137.8"/>
		<line class="st2" x1="347.4" y1="136.2" x2="347.7" y2="135.5"/>
		<line class="st2" x1="350.8" y1="137.8" x2="350.9" y2="137.5"/>
		<line class="st2" x1="353.6" y1="133.3" x2="353.8" y2="133"/>
		<line class="st2" x1="350.5" y1="132" x2="351.1" y2="131.6"/>
		<line class="st2" x1="354.5" y1="138" x2="354.9" y2="137.5"/>
		<line class="st2" x1="357.4" y1="133.1" x2="357.9" y2="132.2"/>
	</g>
	<path class="st1" d="M367.6,176.8l102.8-72.2c0,0,7.3,8,15.8,23.2l-81.8,57.4L367.6,176.8z"/>
	<polygon class="st1" points="292.4,159.7 367.6,176.8 366.8,204.8 292.4,186.5 	"/>
	<g>
		<path class="st1" d="M218.5,236.5c0-0.2,0-0.3,0-0.5c0-0.4,0-0.7,0-1c0-0.1,0-0.3,0-0.4c0-0.3,0-0.5,0-0.8c0-0.1,0-0.2,0-0.4
			s0-0.5,0.1-0.7c0-0.2,0-0.3,0.1-0.5c0-0.2,0-0.3,0.1-0.5c0-0.1,0-0.3,0.1-0.4c0.1-0.5,0.2-1.1,0.3-1.6c0-0.2,0.1-0.3,0.1-0.5
			s0.1-0.3,0.1-0.5c0.1-0.3,0.2-0.6,0.3-0.9c0-0.2,0.1-0.3,0.2-0.4c0.1-0.1,0.1-0.3,0.2-0.4c0.1-0.1,0.1-0.3,0.2-0.4
			c0.1-0.1,0.1-0.3,0.2-0.4l0,0c0.1-0.2,0.2-0.5,0.3-0.7c0,0,0-0.1,0.1-0.1c0.1-0.1,0.1-0.3,0.2-0.4c0.1-0.1,0.1-0.3,0.2-0.4
			c0.4-0.8,0.9-1.5,1.4-2.2c0.1-0.1,0.1-0.2,0.2-0.3c0.1-0.1,0.2-0.2,0.3-0.3s0.2-0.2,0.3-0.3c0.6-0.7,1.3-1.4,2-2
			c0.1-0.1,0.2-0.2,0.3-0.3s0.1-0.1,0.2-0.2c0.1-0.1,0.2-0.1,0.2-0.2c0.1-0.1,0.2-0.2,0.4-0.3c0.1-0.1,0.3-0.2,0.4-0.3
			c0.1-0.1,0.2-0.1,0.4-0.2c0.3-0.2,0.5-0.3,0.8-0.4c0.1,0,0.1-0.1,0.2-0.1c0.1-0.1,0.2-0.1,0.3-0.2c0.1-0.1,0.3-0.1,0.4-0.2
			c0.1-0.1,0.2-0.1,0.4-0.1l0,0c0.1-0.2,0.3-0.4,0.4-0.6c0.2-0.3,0.4-0.5,0.7-0.8c1.4-1.6,3.2-1.9,5.2-2c0.2-0.2,0.3-0.4,0.5-0.5
			c1.1-0.9,2.5-1.3,3.8-1.4l0.1-0.6c1-8.2-5.3-10.7-5.3-10.7l0.1-1.9l1.6-0.5c5.4,0.7,7.5,6.7,9.1,10.8c0.4,1.1,1,2,1.6,2.7
			c0.6-0.5,1.4-0.8,2.7-0.6c0.4,0.1,0.6,0.2,0.8,0.3l0,0c0.3-0.1,0.7-0.2,1.1-0.3c1.3-0.2,2.4-0.1,3.4,0c0.5,0.1,0.9,0.2,1.2,0.3
			c0.1,0,0.3,0,0.4-0.1c2.5-0.3,5.4,0,8.7,1.7c2,1,4.2,3.1,6,5.7l0,0c0.9,1.3,1.7,2.7,2.4,4.1c0.2,0.4,0.4,0.9,0.6,1.3
			c0.7,1.8,1.1,3.6,1.4,5.4c0.5,3.5,0.3,7.1-0.5,10.4c-1.3,4.9-4,9.3-8.2,12.3c-1.3,1-2.8,1.8-4.4,2.4c-0.8,0.3-1.7,0.6-2.6,0.9
			c-1.5,1-2.7,1.5-3.6,1.7c-0.6,0.1-1.1,0.2-1.4,0.1c-0.2,0-0.4,0-0.4-0.1c-0.2,0.1-0.4,0.2-0.6,0.2l0,0c-0.2,0.1-0.3,0.1-0.5,0.2
			c-0.1,0-0.1,0-0.2,0.1c-0.1,0.1-0.3,0.1-0.4,0.1c-0.1,0-0.1,0-0.2,0.1c-0.1,0-0.2,0.1-0.3,0.1h-0.1c-0.4,0.1-0.7,0.2-1.1,0.3l0,0
			c-0.3,0-0.5,0.1-0.8,0.1c0,0,0-0.1,0.1-0.1l0,0c-0.1,0-0.1,0-0.2,0.1h-0.1l0,0c-0.2,0.1-0.4,0.2-0.6,0.3c-0.1,0.1-0.3,0.1-0.4,0.1
			c-0.1,0-0.3,0-0.4,0c-0.3,0-0.6-0.1-0.9-0.3c-0.1,0.1-0.3,0.1-0.4,0.1c-0.2,0.1-0.5,0.1-0.7,0.2H247l0,0c-0.9,0.2-1.7,0.2-2.5,0
			c-0.1,0-0.1,0-0.2,0c-1.8,0.3-4.5-0.2-7.4-1.5c-0.2,0-0.5,0-0.7,0c-1.2-0.1-2.5-0.4-3.7-0.8c-2.7-0.9-5.3-2.4-7.4-4.6
			c-2.2-2.3-3.9-5.2-4.8-8.7c-0.1-0.6-0.3-1.2-0.4-1.8c0-0.1,0-0.1,0-0.2c0-0.2-0.1-0.4-0.1-0.6
			C218.7,239.3,218.6,237.9,218.5,236.5z"/>
		<path class="st3" d="M246.9,211.7l-1.3,2.5l-3.7,0.7c0,0,0-2.3-2.2-3"/>
		<path class="st3" d="M259.9,255.5c0,0,11.9-10.8,7.9-25.4C265,220,262,214,250.4,211.4"/>
		<path class="st3" d="M254.9,257.4c0,0,15.1-32.7-9.3-43.1c0,0-3.1-13.2-11-15.5"/>
		<path class="st3" d="M241.9,214.9c0,0-2.5,23,5.6,43.7"/>
		<path class="st3" d="M244.2,214.5c0,0,12,22.9,6.8,44"/>
		<path class="st3" d="M235.5,213.8c0,0-9.6,25.2,8,45.2"/>
		<path class="st3" d="M229.2,217.2c0,0-13.3,21.4,7,40.4"/>
	</g>
	<g>
		<path class="st1" d="M483.1,189.4c-0.4,5.4-4.1,9.9-15.2,9.9c-8.4,0-15.2-4.4-15.2-9.9c0-10.3,6.8-9.9,15.2-9.9
			S483.7,179.5,483.1,189.4z"/>
		<line class="st2" x1="458.7" y1="185.7" x2="459.4" y2="184.7"/>
		<line class="st2" x1="466.2" y1="194.4" x2="467.1" y2="195.3"/>
		<path class="st2" d="M475.3,188.3"/>
		<line class="st2" x1="475.7" y1="186.7" x2="476.7" y2="185.7"/>
	</g>
	<polygon class="st4" points="292.4,159.7 474.8,201.2 340.1,297.4 185,234.7 	"/>
	<g>
		<g id="XMLID_9_">
			<g>
				<path class="st0" d="M328.9,168.5c2.5,0.1,5.4,0.8,8.4,2.8c1.8,1.3,3.8,3.7,5.2,6.6c0.7,1.4,1.4,2.9,1.8,4.4
					c0.1,0.5,0.3,1,0.4,1.4c0.4,1.8,0.6,3.7,0.6,5.5c0,3.6-0.6,7.1-1.9,10.3c-1.9,4.7-5.3,8.7-9.8,11.1c-1.5,0.8-3,1.4-4.7,1.8
					c-0.9,0.2-1.7,0.4-2.7,0.5c0,0,13.4-9.1,11.3-24.2c-1.4-10.5-3.6-16.9-14.8-21.1c0.4-0.1,0.7-0.1,1.1-0.1c1.3,0,2.5,0.2,3.4,0.5
					c0.5,0.1,0.9,0.3,1.2,0.4C328.6,168.5,328.7,168.5,328.9,168.5z"/>
				<path class="st0" d="M326.1,213c-1.6,0.8-2.9,1.1-3.8,1.2c-0.6,0.1-1.1,0-1.4,0c0,0,19.5-30.6-3.3-44.3l1.6-2.3
					c0.6-0.4,1.5-0.6,2.8-0.2c0.4,0.1,0.6,0.2,0.7,0.4c11.2,4.2,13.4,10.6,14.8,21.1C339.5,203.9,326.1,213,326.1,213z"/>
				<path class="st0" d="M320.5,214c-0.2,0.1-0.4,0.1-0.6,0.2l0,0c-0.2,0-0.3,0.1-0.5,0.1c-0.1,0-0.1,0-0.2,0s-0.3,0.1-0.4,0.1
					s-0.1,0-0.2,0s-0.2,0-0.4,0.1h-0.1c-0.4,0.1-0.8,0.1-1.1,0.1l0,0c8.1-20.2-0.7-44.8-0.7-44.8l1.4-0.1
					c22.8,13.7,3.3,44.3,3.3,44.3C320.7,214.1,320.5,214,320.5,214z"/>
				<path class="st0" d="M317.6,169.9c0,0-1.3-13.6-8.9-17l1.6-0.2c5.3,1.5,6.6,7.7,7.6,12c0.3,1.1,0.7,2.1,1.3,2.9L317.6,169.9z"/>
				<path class="st0" d="M314.2,214.8c-0.3-0.1-0.6-0.2-0.9-0.4c-5.3-21.7,0.4-44.3,0.4-44.3l2.4-0.1c0,0,8.8,24.5,0.7,44.8
					c-0.3,0-0.5,0-0.8-0.1c0,0,0,0,0.1-0.1c-0.1,0-0.1,0-0.2,0h-0.1l0,0c-0.2,0.1-0.4,0.1-0.7,0.2c-0.1,0-0.3,0-0.5,0
					C314.5,214.8,314.4,214.8,314.2,214.8z"/>
				<path class="st0" d="M312.9,214.4c-0.2,0-0.5,0.1-0.7,0.1c-0.1,0-0.1,0-0.1,0l0,0c-0.9,0-1.7-0.1-2.5-0.3c-0.1,0-0.1,0-0.2,0
					c-14.9-22.3-1.8-46.1-1.8-46.1c0.2-0.2,0.4-0.3,0.6-0.4c1.2-0.8,2.7-0.9,4-0.9c2.1,1,1.7,3.3,1.7,3.3s-5.7,22.6-0.4,44.3
					C313.2,214.4,313.1,214.4,312.9,214.4z"/>
				<path class="st0" d="M308.7,152.9c7.6,3.4,8.9,17,8.9,17l-1.4,0.1l-2.4,0.1c0,0,0.3-2.2-1.7-3.3l0.2-0.5
					c2.1-8-3.8-11.4-3.8-11.4L308.7,152.9z"/>
				<path class="st0" d="M307.5,168.1c0,0-13.1,23.8,1.8,46.1c-1.8,0.1-4.4-0.8-7.1-2.5c-17.6-21.7-1.4-41.2-1.4-41.2
					c0.1-0.2,0.3-0.4,0.5-0.5c0.2-0.2,0.5-0.5,0.8-0.7C303.6,167.9,305.5,167.8,307.5,168.1z"/>
				<path class="st0" d="M300.8,170.5c0,0-16.2,19.5,1.4,41.2c-0.2,0-0.5-0.1-0.7-0.1c-1.2-0.3-2.4-0.7-3.6-1.3
					c-2.6-1.2-4.9-3.1-6.8-5.6s-3.2-5.7-3.6-9.4c-0.1-0.6-0.1-1.2-0.1-1.8c0-0.1,0-0.1,0-0.2c0-0.2,0-0.4,0-0.7c0-1.5,0-2.9,0.2-4.2
					c0-0.2,0-0.3,0.1-0.5c0-0.3,0.1-0.7,0.1-1c0-0.1,0-0.3,0.1-0.4c0.1-0.3,0.1-0.5,0.1-0.8c0-0.1,0.1-0.2,0.1-0.3
					c0.1-0.2,0.1-0.5,0.2-0.7c0-0.1,0.1-0.3,0.1-0.5s0.1-0.3,0.1-0.5c0-0.1,0.1-0.3,0.1-0.4c0.2-0.5,0.3-1,0.5-1.5
					c0.1-0.1,0.1-0.3,0.2-0.4c0.1-0.1,0.1-0.3,0.2-0.4c0.1-0.3,0.3-0.6,0.4-0.9c0.1-0.1,0.1-0.3,0.2-0.4c0.1-0.1,0.1-0.3,0.2-0.4
					c0.1-0.1,0.1-0.3,0.2-0.4c0.1-0.1,0.2-0.3,0.2-0.4l0,0c0.1-0.2,0.3-0.4,0.4-0.6c0,0,0-0.1,0.1-0.1c0.1-0.1,0.2-0.2,0.2-0.4
					c0.1-0.1,0.2-0.2,0.3-0.4c0.5-0.7,1.1-1.4,1.7-2c0.1-0.1,0.1-0.2,0.2-0.2c0.1-0.1,0.2-0.2,0.3-0.3c0.1-0.1,0.2-0.2,0.3-0.3
					c0.7-0.6,1.5-1.2,2.2-1.7c0.1-0.1,0.2-0.1,0.4-0.2c0.1-0.1,0.1-0.1,0.2-0.1c0.1-0.1,0.2-0.1,0.3-0.1c0.1-0.1,0.3-0.1,0.4-0.2
					c0.1-0.1,0.3-0.1,0.4-0.2c0.1-0.1,0.3-0.1,0.4-0.2c0.3-0.1,0.5-0.2,0.8-0.3c0.1,0,0.1,0,0.2-0.1c0.1,0,0.2-0.1,0.3-0.1
					c0.1,0,0.3-0.1,0.5-0.1C300.5,170.6,300.6,170.6,300.8,170.5z"/>
			</g>
			<g>
				<path class="st5" d="M316.1,214.6L316.1,214.6c-0.1,0-0.1,0-0.2,0h-0.1l0,0c-0.2,0.1-0.4,0.1-0.7,0.2c-0.1,0-0.3,0-0.5,0
					c-0.1,0-0.3,0-0.4-0.1c-0.3-0.1-0.6-0.2-0.9-0.4c-0.1,0-0.3,0.1-0.4,0.1c-0.2,0-0.5,0.1-0.7,0.1c-0.1,0-0.1,0-0.1,0l0,0
					c-0.9,0-1.7-0.1-2.5-0.3c-0.1,0-0.1,0-0.2,0c-1.8,0.1-4.4-0.8-7.1-2.5c-0.2,0-0.5-0.1-0.7-0.1c-1.2-0.3-2.4-0.7-3.6-1.3
					c-2.6-1.2-4.9-3.1-6.8-5.6s-3.2-5.7-3.6-9.4c-0.1-0.6-0.1-1.2-0.1-1.8c0-0.1,0-0.1,0-0.2c0-0.2,0-0.4,0-0.7c0-1.5,0-2.9,0.2-4.2
					c0-0.2,0-0.3,0.1-0.5c0-0.3,0.1-0.7,0.1-1c0-0.1,0-0.3,0.1-0.4c0.1-0.3,0.1-0.5,0.1-0.8c0-0.1,0.1-0.2,0.1-0.3
					c0.1-0.2,0.1-0.5,0.2-0.7c0-0.1,0.1-0.3,0.1-0.5s0.1-0.3,0.1-0.5c0-0.1,0.1-0.3,0.1-0.4c0.2-0.5,0.3-1,0.5-1.5
					c0.1-0.1,0.1-0.3,0.2-0.4c0.1-0.1,0.1-0.3,0.2-0.4c0.1-0.3,0.3-0.6,0.4-0.9c0.1-0.1,0.1-0.3,0.2-0.4c0.1-0.1,0.1-0.3,0.2-0.4
					c0.1-0.1,0.1-0.3,0.2-0.4c0.1-0.1,0.2-0.3,0.2-0.4l0,0c0.1-0.2,0.3-0.4,0.4-0.6c0,0,0-0.1,0.1-0.1c0.1-0.1,0.2-0.2,0.2-0.4
					c0.1-0.1,0.2-0.2,0.3-0.4c0.5-0.7,1.1-1.4,1.7-2c0.1-0.1,0.1-0.2,0.2-0.2c0.1-0.1,0.2-0.2,0.3-0.3c0.1-0.1,0.2-0.2,0.3-0.3
					c0.7-0.6,1.5-1.2,2.2-1.7c0.1-0.1,0.2-0.1,0.4-0.2c0.1-0.1,0.1-0.1,0.2-0.1c0.1-0.1,0.2-0.1,0.3-0.1c0.1-0.1,0.3-0.1,0.4-0.2
					c0.1-0.1,0.3-0.1,0.4-0.2c0.1-0.1,0.3-0.1,0.4-0.2c0.3-0.1,0.5-0.2,0.8-0.3c0.1,0,0.1,0,0.2-0.1c0.1,0,0.2-0.1,0.3-0.1
					c0.1,0,0.3-0.1,0.5-0.1c0.1,0,0.3-0.1,0.4-0.1c0.1-0.2,0.3-0.4,0.5-0.5c0.2-0.2,0.5-0.5,0.8-0.7c1.6-1.4,3.5-1.5,5.5-1.2
					c0.2-0.2,0.4-0.3,0.6-0.4c1.2-0.8,2.7-0.9,4-0.9l0.2-0.5c2.1-8-3.8-11.4-3.8-11.4l0.3-1.9l1.6-0.2c5.3,1.5,6.6,7.7,7.6,12
					c0.3,1.1,0.7,2.1,1.3,2.9c0.6-0.4,1.5-0.6,2.8-0.2c0.4,0.1,0.6,0.2,0.7,0.4c0.4-0.1,0.7-0.1,1.1-0.1c1.3,0,2.5,0.2,3.4,0.5
					c0.5,0.1,0.9,0.3,1.2,0.4c0.1,0,0.3,0,0.4,0c2.5,0.1,5.4,0.8,8.4,2.8c1.8,1.3,3.8,3.7,5.2,6.6c0.7,1.4,1.4,2.9,1.8,4.4
					c0.1,0.5,0.3,1,0.4,1.4c0.4,1.8,0.6,3.7,0.6,5.5c0,3.6-0.6,7.1-1.9,10.3c-1.9,4.7-5.3,8.7-9.8,11.1c-1.5,0.8-3,1.4-4.7,1.8
					c-0.9,0.2-1.7,0.4-2.7,0.5c-1.6,0.8-2.9,1.1-3.8,1.2c-0.6,0.1-1.1,0-1.4,0c-0.2,0-0.4-0.1-0.4-0.1c-0.2,0.1-0.4,0.1-0.6,0.2l0,0
					c-0.2,0-0.3,0.1-0.5,0.1c-0.1,0-0.1,0-0.2,0s-0.3,0.1-0.4,0.1s-0.1,0-0.2,0s-0.2,0-0.4,0.1h-0.1c-0.4,0.1-0.8,0.1-1.1,0.1l0,0
					C316.6,214.7,316.3,214.7,316.1,214.6L316.1,214.6"/>
				<path class="st3" d="M319.2,167.6l-1.6,2.3l-1.4,0.1l-2.4,0.1c0,0,0.3-2.2-1.7-3.3"/>
				<path class="st3" d="M326.1,213c0,0,13.4-9.1,11.3-24.2c-1.4-10.5-3.6-16.9-14.8-21.1"/>
				<path class="st3" d="M320.9,214.1c0,0,19.5-30.6-3.3-44.3c0,0-1.3-13.6-8.9-17"/>
				<path class="st3" d="M313.7,170c0,0-5.7,22.6-0.4,44.3"/>
				<path class="st3" d="M316.1,169.9c0,0,8.8,24.5,0.7,44.8"/>
				<path class="st3" d="M307.5,168.1c0,0-13.1,23.8,1.8,46.1"/>
				<path class="st3" d="M300.8,170.5c0,0-16.2,19.5,1.4,41.2"/>
			</g>
		</g>
	</g>
	<g>
		<path class="st1" d="M305.5,203.9c-0.1-0.2-0.1-0.3-0.2-0.5c-0.1-0.4-0.3-0.7-0.4-1.1c-0.1-0.1-0.1-0.3-0.2-0.4
			c-0.1-0.3-0.2-0.5-0.4-0.8c-0.1-0.1-0.1-0.2-0.2-0.3c-0.1-0.2-0.2-0.5-0.4-0.7c-0.1-0.2-0.2-0.3-0.3-0.5c-0.1-0.2-0.2-0.3-0.3-0.5
			c-0.1-0.1-0.2-0.3-0.2-0.4c-0.3-0.5-0.6-1-1-1.4c-0.1-0.1-0.2-0.3-0.3-0.4c-0.1-0.1-0.2-0.3-0.3-0.4c-0.2-0.3-0.4-0.5-0.7-0.8
			c-0.1-0.1-0.2-0.3-0.3-0.4s-0.2-0.3-0.3-0.4c-0.1-0.1-0.2-0.2-0.3-0.4c-0.1-0.1-0.2-0.2-0.4-0.4l0,0c-0.2-0.2-0.4-0.4-0.6-0.6
			l-0.1-0.1c-0.1-0.1-0.2-0.2-0.4-0.3c-0.1-0.1-0.2-0.2-0.4-0.3c-0.7-0.6-1.5-1.1-2.3-1.6c-0.1-0.1-0.2-0.1-0.3-0.2
			c-0.1-0.1-0.3-0.2-0.4-0.2c-0.1-0.1-0.3-0.2-0.4-0.2c-0.9-0.5-1.9-0.9-2.8-1.2c-0.1,0-0.3-0.1-0.4-0.1s-0.2,0-0.3-0.1
			c-0.1,0-0.2-0.1-0.3-0.1c-0.2,0-0.3-0.1-0.5-0.1s-0.4-0.1-0.5-0.1c-0.2,0-0.3-0.1-0.5-0.1c-0.3,0-0.6-0.1-0.9-0.1
			c-0.1,0-0.1,0-0.2,0s-0.3,0-0.4,0c-0.2,0-0.4,0-0.5,0s-0.3,0-0.4,0l0,0c-0.2-0.1-0.4-0.3-0.7-0.4c-0.3-0.2-0.6-0.4-1-0.5
			c-2-1-4.1-0.6-6.1,0.2c-0.2-0.1-0.5-0.2-0.7-0.3c-1.5-0.5-3.1-0.3-4.4,0.2l-0.4-0.5c-4.4-7.9,1-13,1-13l-0.9-1.9l-1.8,0.2
			c-5.2,3-4.8,9.9-4.8,14.7c0,1.3-0.2,2.4-0.5,3.4c-0.8-0.3-1.8-0.2-3,0.5c-0.3,0.2-0.5,0.4-0.6,0.6l0,0c-0.4,0-0.8,0.1-1.2,0.2
			c-1.4,0.3-2.5,0.9-3.4,1.4c-0.4,0.3-0.8,0.5-1.2,0.8c-0.2,0-0.3,0.1-0.5,0.1c-2.6,0.7-5.5,2.3-8.1,5.3c-1.6,1.8-2.9,4.9-3.7,8.3
			l0,0c-0.4,1.7-0.6,3.5-0.7,5.2c0,0.5,0,1.1,0,1.6c0.1,2,0.3,4.1,0.8,6c0.9,3.8,2.6,7.3,4.8,10.2c3.3,4.4,7.9,7.7,13.3,9
			c1.7,0.4,3.6,0.6,5.5,0.6c1,0,1.9-0.1,2.9-0.2c1.9,0.4,3.3,0.4,4.3,0.2c0.7-0.1,1.2-0.3,1.5-0.4c0.2-0.1,0.4-0.2,0.4-0.2
			c0.2,0,0.4,0,0.7,0l0,0c0.2,0,0.4,0,0.6,0c0.1,0,0.1,0,0.2,0c0.2,0,0.3,0,0.5,0c0.1,0,0.1,0,0.2,0s0.3,0,0.4,0h0.1
			c0.4,0,0.8-0.1,1.2-0.2l0,0c0.3-0.1,0.6-0.1,0.8-0.3c0,0-0.1,0-0.1-0.1l0,0c0.1,0,0.2,0,0.2,0h0.1l0,0c0.2,0,0.5,0,0.8,0
			c0.2,0,0.3,0,0.5-0.1c0.2,0,0.3-0.1,0.4-0.2c0.3-0.2,0.6-0.4,0.8-0.7c0.2,0,0.3,0,0.5,0c0.3,0,0.5-0.1,0.8-0.1h0.1l0,0
			c0.9-0.2,1.8-0.5,2.6-1c0.1,0,0.1,0,0.2,0c1.9-0.4,4.5-2,6.8-4.5c0.2-0.1,0.5-0.2,0.7-0.3c1.2-0.6,2.4-1.4,3.5-2.3
			c2.4-2,4.3-4.6,5.6-7.7c1.3-3.2,1.8-6.8,1.2-10.8c-0.1-0.7-0.2-1.3-0.3-2c0-0.1,0-0.2,0-0.2c0-0.2-0.1-0.5-0.1-0.7
			C306.5,206.7,306,205.3,305.5,203.9z"/>
		<path class="st3" d="M266.6,190.6l2.3,2l4.1-0.9c0,0-1-2.3,0.9-3.9"/>
		<path class="st3" d="M271.5,240.1c0,0-16.5-5.9-18.4-22.4c-1.3-11.4-0.8-18.7,9.9-26.1"/>
		<path class="st3" d="M277.3,239.9c0,0-28.7-26.8-8.4-47.4c0,0-2.3-14.6,4.7-20.2"/>
		<path class="st3" d="M273,191.7c0,0,12.1,22.2,12.3,46.4"/>
		<path class="st3" d="M270.5,192.2c0,0-2.7,28.1,11.3,47.2"/>
		<path class="st3" d="M279,187.9c0,0,20.1,21.5,10.5,49"/>
		<path class="st3" d="M286.8,188.7c0,0,22.2,16.1,9.6,43.6"/>
	</g>
	<line class="st4" x1="476.6" y1="411.1" x2="474.8" y2="253.7"/>
	<polyline class="st4" points="248,260.2 367.1,178.1 367.1,210.6 	"/>
	<line class="st4" x1="367.1" y1="178.1" x2="470.1" y2="104.9"/>
	<polygon class="st1" points="367.2,176.2 474.4,200.9 447.7,219.6 366,199.3 	"/>
	<polygon class="st6" points="249.6,258.8 367.6,176.8 367.1,199.2 274.8,271.2 247.4,260.2 	"/>
	<path class="st1" d="M410.1,214.4c1.7,9.7-4.8,18.8-14.5,20.5s-18.8-4.8-20.5-14.5s5.4-15.6,15-17.2S408.5,204.7,410.1,214.4z"/>
	<path class="st1" d="M385.8,202.5c1.4,8.2-4.1,16-12.3,17.4c-8.2,1.4-16-4.1-17.4-12.3s4.6-13.2,12.8-14.6S384.3,194.3,385.8,202.5
		z"/>
	<g>
		<path class="st1" d="M370.9,214.8c0,7.3-7.2,13.2-16.2,13.2s-16.2-8.2-16.2-15.5s8.2-12.6,17.1-12.6
			C364.7,199.9,370.9,207.5,370.9,214.8z"/>
		<path class="st7" d="M346.7,214c0.4-5.8,6.5-4.4,6.5-4.4s-3.1-5.5,0.6-7.5"/>
		<path class="st7" d="M362.2,208c-3.7-2.2-9,1.6-9,1.6s5.4,1.2,7.2,4.8"/>
		<path class="st7" d="M353.2,209.6c0,0,1.1,5.7-1.2,8"/>
	</g>
	<path class="st1" d="M380.7,226.4c-0.3,8.8-7,15.6-14.9,15.3s-14.1-7.6-13.8-16.4c0.3-8.8,6.9-12.6,14.8-12.4
		C374.8,213.3,381.1,217.7,380.7,226.4z"/>
	<g>
		<path class="st1" d="M384.9,252.9c0,7.7-7.6,13.9-17,13.9s-17-8.7-17-16.3c0-7.7,8.6-13.2,18-13.2
			C378.3,237.3,384.9,245.3,384.9,252.9z"/>
		<path class="st7" d="M359.3,252c0.5-6.1,6.8-4.6,6.8-4.6s-3.3-5.8,0.7-7.9"/>
		<path class="st7" d="M375.7,245.8c-3.9-2.3-9.5,1.7-9.5,1.7s5.6,1.3,7.6,5"/>
		<path class="st7" d="M366.2,247.4c0,0,1.2,6-1.2,8.4"/>
	</g>
	<g>
		<path class="st1" d="M434.1,218.5c0,7.7-7.6,13.9-17,13.9s-17-8.7-17-16.3s8.6-13.2,18-13.2C427.6,202.8,434.1,210.8,434.1,218.5z
			"/>
		<path class="st7" d="M408.6,217.6c0.5-6.1,6.8-4.6,6.8-4.6s-3.3-5.8,0.7-7.9"/>
		<path class="st7" d="M424.9,211.3c-3.9-2.3-9.5,1.7-9.5,1.7s5.6,1.3,7.6,5"/>
		<path class="st7" d="M415.5,213c0,0,1.2,6-1.2,8.4"/>
	</g>
	<g>
		<path class="st8" d="M279.4,170.1c-0.3,0-0.7-0.2-0.9-0.4c-0.3-0.5-0.2-1.1,0.2-1.5l124.4-88.9c0.2-0.2,0.5-0.2,0.8-0.2l56.2,11.5
			c0.1,0.1,2.4,2.7,2.2,2.7l-58.4-12l-124,88.7C279.8,170.1,279.6,170.1,279.4,170.1z"/>
	</g>
	<g>
		<path class="st1" d="M302.6,245.1c4.7,6,16.2,8.3,23.1,2.9c6.9-5.4,6.1-17.1,1.4-23s-11.5-4-18.4,1.4
			C301.8,231.8,297.9,239.1,302.6,245.1z"/>
		<path class="st7" d="M301.6,221.4c4.8-1.1,7.1,5,7.1,5s1.4-4.4,4.3-5.2c1.4-0.4,2.7,0.2,2.7,0.2"/>
		<path class="st7" d="M302.1,229c2.9-2.6,6.6-2.6,6.6-2.6s-2.8,4.8-0.4,7.9"/>
		<path class="st7" d="M308.5,226.1c0,0,4.9-2.6,8.2,1.6"/>
	</g>
	<g>
		<path class="st9" d="M353.9,239.9c0,0.4-0.1,0.9-0.2,1.3c-0.1,0.7-0.3,1.5-0.6,2.1c-0.2,0.7-0.5,1.3-0.9,2
			c-1.8,3.4-5.1,5.7-8.7,6.7c-0.1,0-0.2,0.1-0.3,0.1c-1.3,0.3-2.6,0.4-3.9,0.4c-0.2,0-0.3,0-0.5,0c-6.7-0.4-13.7-4.6-14.9-11.6
			c0-0.1,0-0.2,0-0.3c-0.1-0.4-0.1-0.9-0.1-1.3c-0.4-5.7,2.8-9.7,7.2-11.9c0.5-0.3,1.1-0.5,1.7-0.7c2.6-0.9,5.4-1.3,8.2-1.2
			c0.9,0.1,1.8,0.2,2.7,0.4c0.5,0.1,1.1,0.2,1.6,0.4c3.2,0.9,5.7,3.1,7.2,5.8C353.6,234.3,354.2,237,353.9,239.9z"/>
		<path class="st10" d="M339.2,233.7c2-0.4,3.3-2.1,5.5-1.5c5,1.4,1.8,6.8-1.7,7.7c-2.3,0.5-6.7,0.3-6.9-2.8
			C335.9,235,337.5,234,339.2,233.7z"/>
		<path class="st11" d="M336,232.7c-0.1,0-0.1,0-0.2,0c-1.4-0.1-3.1,0.2-3.6-1.4c-0.5-1.6,0.8-2.8,2.2-3.4c1.4-0.6,2.8-1.1,4.3-1.1
			c0.9,0,1.8,0.3,2.4,0.9c0.6,0.6,0.8,1.7,0.3,2.4c-0.7,1.1-1.5,2.2-2.8,2.5C337.7,232.8,336.8,232.8,336,232.7z"/>
		<path class="st12" d="M347.6,233.4c-0.8-0.5-1.6-1.1-2.4-1.4c-1.2-0.4-2.6-0.6-3.9-0.8s-2.5-0.3-3.6,0.6c-0.7,0.6-0.9,1.5-1.3,2.3
			c-1,1.8-1.7,3.7-2.1,5.8c0.1-0.4-0.1-0.9-0.2-1.3c0-0.5,0-1,0-1.4c0-0.7,0.1-1.3,0.5-1.9c0.5-0.8,1.4-1.5,1.6-2.4
			s-0.1-2.3-1.2-2.5c-0.8-0.1-1.4,0.4-2.1,0.7c-1.3,0.6-2.6,1-3.8,1.8c-1.8,1.2-2.8,1.5-2.8,1.5c0.6-0.9,1-1.8,1.7-2.5
			s1.5-1.3,2.4-1.6c1.5-0.5,5-0.2,6.4,0.7c-0.6-0.4-5-3.5-5-3.5s-0.4-0.1-1-0.2c0.5-0.3,1.1-0.5,1.7-0.7c2.2,1.3,4.7,3.3,5.5,4.5
			c-0.2-0.3,0.2-1.7,0.3-2.1c0.2-0.8,0.4-1.5,0.8-2.2s1-1.1,1.7-1.3c0.9,0.1,1.8,0.2,2.7,0.4c-0.7,0.3-1.5,0.5-2.1,0.9
			c-1.1,0.7-1.8,2-2.2,3.3c1.5-0.1,3.5,0,4.8,0.5c0.8,0.3,1.7,0.8,2.4,1.3C346.9,232.2,347.1,233.1,347.6,233.4z"/>
		<path class="st13" d="M348.3,233c-0.3-0.2-0.6-0.4-1-0.5c-1.3-0.7-2.7-1.3-4.2-1.5c-1.1-0.2-2.2-0.2-3.3,0
			c-0.4,0.1-0.8,0.2-1.1,0.3c-0.2,0.1-0.4,0.2-0.6,0.3c-0.1,0.1-0.2,0.1-0.3,0.2c-0.7,0.6-1.1,1.5-1.7,2.3c-1.1,1.5-2.7,3.7-2.6,5.7
			c0-0.1-0.1-0.2-0.1-0.3c-0.9-3,2.6-7.2,2.8-7.7c0.1-0.3,0.1-0.6-0.1-0.9c-0.4-0.4-0.8-0.6-1.3-0.7c-0.9-0.2-2,0.2-2.8,0.6
			c-0.2,0.1-0.5,0.3-0.7,0.4c-2.6,1.5-4,1.8-4,1.8s-0.1,0-0.1-0.1c0.9-1.5,2.7-2.8,4.4-3.4c0.8-0.3,2-0.5,3.2-0.2
			c0.8,0.2,1.6,0.4,2.1,0.8c-0.1-0.1-0.3-0.3-0.7-0.5c-0.3-0.3-0.7-0.6-1.1-0.9c-1-0.8-2.1-1.7-2.1-1.7s-0.3-0.2-0.9-0.4
			c-0.8-0.3-2.2-0.5-4,0.2c-0.2,0.1-0.4,0.2-0.6,0.3s2.6-1.7,4.1-1.7c0.9,0,2.9,1.2,4.4,2.5c0.9,0.8,1.7,1.6,2.1,2.3
			c-0.2-0.3,0.3-1.6,0.4-2c0.1-0.5,0.3-0.9,0.5-1.4c0.1-0.2,0.2-0.4,0.4-0.6c0.8-1.1,2-1.4,3.2-1.7c0.5-0.1,1.2-0.2,1.8-0.2
			c0.4,0,0.7-0.1,1.1-0.1c-1.6,0.2-4,0.8-5.2,3c-0.1,0.2-0.2,0.4-0.3,0.6c-0.2,0.4-0.5,0.9-0.6,1.3c0.4,0,0.9,0,1.3,0
			c1.2,0,2.5,0.2,3.5,0.5c0.9,0.3,1.9,0.8,2.7,1.4C347.3,231.6,347.6,232.6,348.3,233z"/>
		<path class="st14" d="M339,229.2c0.1-0.4,0.3-0.8,0.5-1.2l0,0c-0.3-0.3-0.6-0.6-0.9-0.9c-0.2,0.4-0.3,0.7-0.4,1.1
			c-0.1,0.4-0.6,1.7-0.4,2c-0.3-0.6-1.1-1.5-2.1-2.3c-0.3,0.3-0.6,0.5-0.8,0.8c0.8,0.6,1.6,1.3,1.8,1.4c-0.5-0.4-1.3-0.6-2.1-0.8
			c-0.1,0.3-0.1,0.5-0.1,0.8c0.5,0.1,0.9,0.3,1.3,0.7c0.2,0.3,0.2,0.6,0.1,0.9l0,0c0.5,0.1,1,0.1,1.4,0c0.1,0,0.1,0,0.2,0
			c0.3-0.2,0.6-0.4,0.9-0.6c0.4-0.1,0.8-0.3,1.1-0.3c0.3-0.4,0.4-0.8,0.5-1.3c0-0.1,0.1-0.3,0.1-0.4
			C339.9,229.2,339.5,229.2,339,229.2z"/>
		<path class="st13" d="M339.3,230.3c-0.1,0.2-0.2,0.4-0.5,0.6c-0.3,0.2-0.6,0.2-0.8,0.2c-0.1,0-0.1,0-0.2,0c-0.2,0-0.3-0.1-0.4-0.2
			c-0.2-0.1-0.3-0.3-0.4-0.6c-0.3-0.6-0.2-1.3-0.2-2c0-1.1-0.5-2.1-1.1-3s-1.8-1.4-2.5-2.3l-0.1-0.1v-0.1c0.4-0.6,0.9-1,1.5-1.3
			c0.7,0.3,1.5,1.3,2,1.8c1.3,1.5,2.1,3.4,2.5,5.4c0,0.1,0.1,0.2,0.1,0.3C339.4,229.4,339.5,229.9,339.3,230.3z"/>
		<path class="st15" d="M353.9,239.9c0,0.4-0.1,0.9-0.2,1.3c-0.1,0.7-0.3,1.5-0.6,2.1c-0.1,0.4-0.3,0.8-0.5,1.1
			c-0.1,0.3-0.3,0.6-0.4,0.8c-1.8,3.4-5.1,5.7-8.7,6.7c-0.1,0-0.2,0.1-0.3,0.1c-1.3,0.3-2.6,0.4-3.9,0.4c-0.2,0-0.3,0-0.5,0
			c-6.3-0.4-12.8-4-14.6-10.3c-0.1-0.4-0.2-0.9-0.3-1.3c0-0.1,0-0.2,0-0.3c-0.1-0.4-0.1-0.9-0.1-1.3c0,0.5,2,1.8,2.4,2.2
			c1,1,2,1.9,3.2,2.6c7.8,4.9,21,2.2,22.8-7.8c0.3-1.4,0.3-2.9,0.3-4.3C353.6,234.3,354.2,237,353.9,239.9z"/>
		<path class="st14" d="M339.3,230.3c-0.1,0.2-0.2,0.4-0.5,0.6c-0.3,0.2-0.6,0.2-0.8,0.2c-0.1,0-0.1,0-0.2,0
			c-0.2-0.1-0.3-0.1-0.4-0.2c-0.2-0.1-0.3-0.3-0.4-0.6c-0.3-0.6-0.2-1.3-0.2-2c0-1.1-0.5-2.1-1.1-3s-1.8-1.4-2.5-2.3
			c0.6,0,1.3,0.3,1.9,0.7c1.2,0.8,1.5,2,1.7,3.3c0.1,0.6,0.2,1.3,0.4,1.9c0.2,0.7,0.3,1.4,1,1.6C338.6,230.6,339,230.6,339.3,230.3z
			"/>
		<path class="st11" d="M352.6,244.5c-0.1,0.3-0.3,0.6-0.4,0.8c-1.8,3.4-5.1,5.7-8.7,6.7c-0.1,0-0.2,0.1-0.3,0.1
			c-1.3,0.3-2.6,0.4-3.9,0.4c-0.2,0-0.3,0-0.5,0c-6.3-0.4-12.8-4-14.6-10.3c2.8,4.1,7.4,7.1,12.3,7.9
			C342.4,250.9,348.6,248.7,352.6,244.5z"/>
		<path class="st16" d="M333.6,222.9c0.6-0.1,1.2-0.7,1.1-1.3c0-0.4-0.6-0.2-0.8-0.1c-0.3,0.2-0.5,0.4-0.7,0.7s-0.3,0.8,0.2,0.8
			C333.4,223,333.5,222.9,333.6,222.9z"/>
		<path class="st16" d="M339,229.5c-0.1-0.8-0.6-1.4-0.8-2.1c-0.3-0.8-0.4-1.6-0.8-2.4c-0.4-0.8-0.9-1.6-1.6-2.2
			c-0.2-0.2-1-0.7-0.9-0.1c0,0.3,0.4,0.4,0.6,0.5c0.3,0.2,0.5,0.5,0.7,0.8c0.5,0.6,0.8,1.3,1,2c0.3,1.1,0.3,2.2,0.7,3.3
			c0.1,0.2,0.2,0.4,0.3,0.5c0.2,0.1,0.4,0.2,0.6,0.1C339,230,339,229.7,339,229.5z"/>
		<path class="st14" d="M335.6,232.7c-0.7,1.2-1.4,2.4-1.9,3.7c-0.3,1-0.6,2-0.5,3c-0.9-3,2.6-7.2,2.8-7.7c0.1-0.3,0.1-0.6-0.1-0.9
			c-0.4-0.4-0.8-0.6-1.3-0.7c-0.9-0.2-2,0.2-2.8,0.6c-0.2,0.1-0.5,0.3-0.7,0.4c0.1-0.1,0.3-0.2,0.4-0.3c0.9-0.7,2-1.1,3.1-1
			c0.7,0.1,1.4,0.5,1.5,1.2S335.9,232.3,335.6,232.7z"/>
		<path class="st14" d="M336.9,230.3c-0.1,0-0.7-0.6-0.8-0.7c-0.3-0.3-0.7-0.6-1.1-0.9c-1-0.8-2.1-1.7-2.1-1.7s-0.3-0.2-0.9-0.4
			c-0.8-0.3-2.2-0.5-4,0.2c0.2-0.1,0.4-0.3,0.6-0.4c0.6-0.3,1.4-0.6,2-0.6C332.4,225.9,336.6,229.9,336.9,230.3z"/>
		<path class="st16" d="M345.2,224.2c-1.6,0.2-4,0.8-5.2,3c-0.1,0.2-0.2,0.4-0.3,0.6c0.1-0.7,0.5-1.4,1-1.9c0.6-0.6,1.5-1.1,2.3-1.3
			c0.4-0.1,0.7-0.2,1.1-0.3C344.5,224.3,344.9,224.3,345.2,224.2z"/>
		<path class="st14" d="M347.3,232.4c-1.3-0.7-2.7-1.3-4.2-1.5c-1.1-0.2-2.2-0.2-3.3,0c-0.4,0.1-0.8,0.2-1.1,0.3
			c-0.2,0.1-0.4,0.2-0.6,0.3c0.4-0.5,1.5-0.7,2-0.8C342.5,230.2,345.2,230.9,347.3,232.4z"/>
		<path class="st16" d="M330.3,230.4c1.1-0.6,2.3-0.8,3.5-0.7c-1.2,0.4-2.4,0.7-3.5,1.4c-0.9,0.6-1.8,1.2-2.8,1.6
			C328.4,231.8,329.3,231,330.3,230.4z"/>
		<path class="st16" d="M335,234.5c0.3-0.5,1.3-2.4,1.9-2.3c-1,1.6-2,3.1-3,4.7C334.3,236.2,334.5,235.3,335,234.5z"/>
		<path class="st16" d="M342.7,230.3c1.2,0.1,2.7,0.5,3.8,1c-1.8-1.4-4.2-1.9-6.4-1.3c-0.1,0.5,0.8,0.3,1,0.3
			C341.7,230.2,342.2,230.2,342.7,230.3z"/>
		<path class="st17" d="M338.6,229.3c-0.4-0.7-0.4-1.5-0.7-2.2c-0.2-0.6-0.5-1.2-0.8-1.7c-0.5-0.9-1-2.1-1.9-2.5l0,0
			c0.9,0.8,1.4,1.7,1.9,2.8c0.3,0.6,0.6,1.3,0.7,2c0.1,0.6,0.1,1.2,0.3,1.8C338.3,229.9,338.8,229.7,338.6,229.3z"/>
		<path class="st17" d="M334.5,222.2c0-0.1-0.3-0.2-0.4-0.1c-0.1,0-0.2,0.1-0.3,0.1l0,0c-0.1,0-0.2,0.1-0.3,0.2
			c-0.1,0.1,0,0.3,0.1,0.3c0.2,0,0.4,0,0.6-0.1l0.1-0.1v-0.1C334.5,222.3,334.5,222.3,334.5,222.2z"/>
		<path class="st10" d="M348.7,229.3c0,1.3,2.3,2.8,2.8,4.1c0.7,1.6,0.9,3.3,1.3,5c0,0.2,0.3,0.1,0.3,0c0.2-1.8-0.3-3.7-1-5.3
			C351.5,231.9,350.1,229.5,348.7,229.3z"/>
	</g>
	<path class="st1" d="M286.3,255.1c1.4,8-4,15.5-11.9,16.9s-15.5-4-16.9-11.9c-1.4-8,4.4-12.8,12.4-14.2
		C277.9,244.5,285,247.1,286.3,255.1z"/>
	<path class="st1" d="M339.4,252.8c1.4,8-4,15.5-11.9,16.9c-7.9,1.4-15.5-4-16.9-11.9c-1.4-8,4.4-12.8,12.4-14.2
		C330.9,242.2,338,244.8,339.4,252.8z"/>
	<path class="st1" d="M379.2,271.8c-0.3,8.9-7.1,15.9-15.2,15.6s-14.3-7.7-14-16.6s7-12.9,15.1-12.6
		C373.1,258.4,379.5,262.9,379.2,271.8z"/>
	<path class="st1" d="M334.2,270.6c1.4,8-4,15.5-11.9,16.9s-15.5-4-16.9-11.9c-1.4-8,4.4-12.8,12.4-14.2
		C325.7,260,332.8,262.7,334.2,270.6z"/>
	<path class="st1" d="M315,257.5c-3.6,7.2-12.3,10.2-19.6,6.6c-7.2-3.6-10.2-12.3-6.6-19.6c3.6-7.2,11.1-7.7,18.4-4.2
		C314.4,244,318.6,250.3,315,257.5z"/>
	<g>
		<path class="st1" d="M311.3,267c0,7.6-7.6,16.6-16.3,16.6c-8.7,0-15.3-9.7-15.3-17.3c0-7.6,6.6-10.3,15.3-10.3
			C303.7,256.1,311.3,259.4,311.3,267z"/>
		<path class="st7" d="M297.5,247.7c-4.5,2.1-2.5,8.3-2.5,8.3s-3.8-2.6-6.6-1.4c-1.3,0.6-2,1.9-2,1.9"/>
		<path class="st7" d="M301.8,254c-3.9-0.3-6.8,2-6.8,2s5.2,2,5.2,5.9"/>
		<path class="st7" d="M294.9,255.7c0,0-5.5,1-5.5,6.3"/>
	</g>
	<g>
		<path class="st1" d="M404.5,240.4c0,7.6-7.6,16.6-16.3,16.6c-8.7,0-15.3-9.7-15.3-17.3s6.6-10.3,15.3-10.3
			C397,229.4,404.5,232.8,404.5,240.4z"/>
		<path class="st7" d="M390.7,221.1c-4.5,2.1-2.5,8.3-2.5,8.3s-3.8-2.6-6.6-1.4c-1.3,0.6-2,1.9-2,1.9"/>
		<path class="st7" d="M395,227.4c-3.9-0.3-6.8,2-6.8,2s5.2,2,5.2,5.9"/>
		<path class="st7" d="M388.1,229.1c0,0-5.5,1-5.5,6.3"/>
	</g>
	<g>
		<path class="st1" d="M329.1,272.3c3.5,6.7,14.3,11.2,22.1,7.2s9.2-15.6,5.7-22.4s-10.5-6.1-18.3-2.1
			C330.8,259.1,325.6,265.6,329.1,272.3z"/>
		<path class="st7" d="M332.5,248.8c4.9-0.2,6,6.3,6,6.3s2.2-4,5.2-4.3c1.4-0.1,2.6,0.7,2.6,0.7"/>
		<path class="st7" d="M331.6,256.4c3.3-2.1,7-1.3,7-1.3s-3.7,4.1-1.9,7.7"/>
		<path class="st7" d="M338.5,254.7c0,0,5.3-1.7,7.7,3.1"/>
	</g>
	<g>
		<path class="st1" d="M427.3,210.6c-3.4,6.8-0.5,18.2,7.3,22.1s18-1.9,21.4-8.7s-1.4-12.1-9.2-16S430.7,203.8,427.3,210.6z"/>
		<path class="st7" d="M448.3,199.4c3.1,3.8-1.5,8.6-1.5,8.6s4.6-0.6,6.5,1.7c1,1.1,1,2.6,1,2.6"/>
		<path class="st7" d="M441.6,203.2c3.6,1.4,5.2,4.8,5.2,4.8s-5.5-0.5-7.3,3"/>
		<path class="st7" d="M447,207.7c0,0,4.5,3.3,2.1,8.1"/>
	</g>
	<path class="st1" d="M355.9,284.4c1.7,9.7-4.8,18.8-14.5,20.5s-18.8-4.8-20.5-14.5s5.4-15.6,15-17.2
		C345.6,271.5,354.2,274.7,355.9,284.4z"/>
	<path class="st1" d="M427.7,238.1c1.3,7.7-3.8,15-11.5,16.3s-15-3.8-16.3-11.5s4.3-12.4,11.9-13.7
		C419.6,227.9,426.4,230.5,427.7,238.1z"/>
	<polygon class="st1" points="248,260.5 339.7,297 474.8,201.5 474.8,253.7 340.1,351.9 248,312 	"/>
	<g>
		<polygon class="st8" points="340.8,352.8 339.5,351 520.8,219.3 521.2,221.6 		"/>
	</g>
	<g>
		<polygon class="st8" points="340.3,297.9 339.1,296.2 509.3,174.7 510.1,176.8 		"/>
	</g>
	<line class="st4" x1="340.1" y1="297.4" x2="340.1" y2="506.3"/>
	<polyline class="st4" points="331.6,348.2 331.6,504.1 340.1,507.7 348.1,503.2 348.1,346.1 	"/>
	<polyline class="st4" points="482.4,248.8 482.4,402.5 474.2,414.5 467.3,411.1 467.3,259.2 	"/>
	<polyline class="st4" points="13.4,186.6 102.6,186.6 102.6,389.9 	"/>
	<line class="st4" x1="22.3" y1="197.6" x2="80.1" y2="197.6"/>
	<line class="st4" x1="91.7" y1="216.1" x2="91.7" y2="279.5"/>
	<line class="st4" x1="91.7" y1="290.9" x2="91.7" y2="309.3"/>
	<polyline class="st4" points="348.7,336 348.7,303.2 376.9,283.1 	"/>
	<line class="st5" x1="384.9" y1="278.1" x2="399.8" y2="267.3"/>
	<path class="st4" d="M96.5,186.5H20.7c-0.6,0-1-0.4-1-1V174c0-5.3,4.3-9.6,9.6-9.6H88c5.3,0,9.6,4.3,9.6,9.6v11.5
		C97.5,186,97.1,186.5,96.5,186.5z"/>
	<g>
		<path class="st8" d="M38.6,165.7l-0.6-2l1-0.3c0.3-0.1,6.5-2,5.9-7.1c-0.3-2.6-2.8-4.4-5.6-6.6c-2.9-2.2-6.2-4.7-7.6-8.6
			c-0.2-0.5-0.3-1-0.3-1l1.5-2.8l0.3,1.4c0.2,0.6,0.3,1.2,0.5,1.6c1.1,3.3,4,5.5,6.8,7.6c3.1,2.3,6,4.5,6.4,8
			c0.7,5.5-4.6,8.6-7.4,9.4L38.6,165.7z"/>
	</g>
	<g>
		<path class="st8" d="M77.5,165.7l-1-0.3c-2.9-0.9-8.1-3.9-7.4-9.4c0.4-3.5,3.3-5.7,6.4-8c2.8-2.1,5.7-4.3,6.8-7.6
			c2.5-7.2,7.2-38.9,7.2-41.7c0-2.9,0-4.1-7.3-6.7c-4.4-1.6-9.3-2.7-14.2-3.4l-0.7-0.1l1.7-1.9l1,0.1c5.1,0.7,8.4,1.6,12.9,3.2
			c7.9,2.8,8.7,4.7,8.7,8.7c0,3.3-4.7,35-7.3,42.4c-1.4,3.9-4.6,6.4-7.6,8.6c-2.8,2.1-5.2,4-5.6,6.6c-0.6,5.1,5.8,7.1,5.9,7.1l1,0.3
			L77.5,165.7z"/>
	</g>
	<g>
		<path class="st8" d="M58.2,137.3H58c-8.4,0-18.7-0.4-20.1-2.3c-0.3-0.4-1.2-4.3-1.2-4.3l1.6-2.7l0.3,1.5c0.6,3.1,0.9,4,1,4.2
			c1.3,0.9,10.5,1.4,18.3,1.4h0.2c7.8,0,17-0.5,18.3-1.4c1.2-2.5,5-28.7,5-31v-0.2c0-1.6,0-2.5-4.8-4.1c-3.1-1-8.8-1.7-15.2-2h-1.1
			l1.8-2.1h1.1c6.7,0.2,10.7,0.9,14.1,2c5.9,1.9,6.3,3.6,6.3,6.1v0.2c0,1.5-3.9,30-5.4,32.2C76.9,136.9,66.6,137.3,58.2,137.3z"/>
	</g>
	<line class="st4" x1="61.9" y1="96.5" x2="61.9" y2="99.4"/>
	<line class="st4" x1="66.9" y1="95.8" x2="66.7" y2="99.5"/>
	<line class="st4" x1="72.2" y1="96.4" x2="71.5" y2="100"/>
	<line class="st4" x1="77.2" y1="97.5" x2="76.1" y2="101"/>
	<line class="st4" x1="81.5" y1="99.5" x2="80.1" y2="102.3"/>
	<line class="st4" x1="81.4" y1="99.7" x2="80.1" y2="102.5"/>
	<line class="st4" x1="58.2" y1="136.2" x2="61.9" y2="108.2"/>
	<polyline class="st4" points="58.2,110.7 62.8,105.3 64.3,112.3 	"/>
	<line class="st4" x1="32.6" y1="172.3" x2="44" y2="172.3"/>
	<line class="st4" x1="50.6" y1="172.3" x2="55.1" y2="172.3"/>
	<line class="st4" x1="60.4" y1="172.3" x2="64.5" y2="172.3"/>
	<g>
		<g>
			<path class="st1" d="M380.7,138.1c-0.4-1.3-1.1-2.4-2.1-3.2c0,0,0,0-0.1-0.1c-1-0.8-2.2-1.3-3.4-1.2c-6,0.3-15.7,4.8-18.7,6.2
				c-4,1.9-18,7.4-21.6,10.5c-0.6,0.5-1.1,1.1-1.5,1.7c-0.1,0.2-0.3,0.4-0.4,0.7c-0.8,1.7-0.8,3.4-0.3,4.5
				c1.2,8.4,13.3,3.6,19.5,0.3c0.4-0.2,22.3-9.4,26-12c2.3-1.7,3.2-3.6,2.9-5.9C380.9,139,380.8,138.6,380.7,138.1z"/>
		</g>
		<line class="st2" x1="335.7" y1="153.3" x2="337.1" y2="152.4"/>
		<line class="st2" x1="341" y1="153.1" x2="341.8" y2="152.5"/>
		<line class="st2" x1="344.2" y1="149.5" x2="344.9" y2="149.1"/>
		<line class="st2" x1="338.5" y1="158.7" x2="340" y2="158.4"/>
		<line class="st2" x1="343.3" y1="156.7" x2="344" y2="156.6"/>
		<line class="st2" x1="347" y1="152.1" x2="348.8" y2="151.8"/>
		<line class="st2" x1="351.1" y1="153.7" x2="352.6" y2="153.1"/>
		<line class="st2" x1="348.5" y1="146.7" x2="349" y2="146.3"/>
		<line class="st2" x1="353.8" y1="143.1" x2="354.5" y2="142.5"/>
		<line class="st2" x1="353.1" y1="149.1" x2="353.8" y2="148.5"/>
		<line class="st2" x1="356.4" y1="152.4" x2="357.3" y2="151.9"/>
		<line class="st2" x1="357.9" y1="147.3" x2="358.3" y2="146.9"/>
		<line class="st2" x1="358.8" y1="143.4" x2="359.4" y2="142.8"/>
		<line class="st2" x1="362.4" y1="149.3" x2="363.1" y2="149"/>
		<line class="st2" x1="367.4" y1="148.4" x2="368.2" y2="148"/>
		<line class="st2" x1="364.8" y1="143.8" x2="365.9" y2="143.1"/>
		<line class="st2" x1="363.2" y1="139.7" x2="363.5" y2="139.3"/>
		<line class="st2" x1="367.8" y1="139.5" x2="368.4" y2="138.8"/>
		<line class="st2" x1="370.2" y1="143.1" x2="370.4" y2="142.8"/>
		<line class="st2" x1="374.7" y1="139.3" x2="374.9" y2="139.1"/>
		<line class="st2" x1="372.4" y1="136.3" x2="373.2" y2="136.1"/>
		<line class="st2" x1="373.4" y1="145.2" x2="374" y2="144.9"/>
		<line class="st2" x1="378.2" y1="141.1" x2="378.9" y2="140.2"/>
	</g>
	<g>
		<g>
			<path class="st1" d="M437.2,105.5c-0.4-1.3-1.1-2.4-2.1-3.2c0,0,0,0-0.1-0.1c-1-0.8-2.2-1.3-3.4-1.2c-6,0.3-15.7,4.8-18.7,6.2
				c-4,1.9-18,7.4-21.6,10.5c-0.6,0.5-1.1,1.1-1.5,1.7c-0.1,0.2-0.3,0.4-0.4,0.7c-0.8,1.7-0.8,3.4-0.3,4.5
				c1.2,8.4,13.3,3.6,19.5,0.3c0.4-0.2,22.3-9.4,26-12c2.3-1.7,3.2-3.6,2.9-5.9C437.4,106.5,437.3,106,437.2,105.5z"/>
		</g>
		<line class="st2" x1="392.2" y1="120.7" x2="393.6" y2="119.9"/>
		<line class="st2" x1="397.5" y1="120.5" x2="398.3" y2="119.9"/>
		<line class="st2" x1="400.7" y1="116.9" x2="401.4" y2="116.6"/>
		<line class="st2" x1="395" y1="126.1" x2="396.5" y2="125.8"/>
		<line class="st2" x1="399.8" y1="124.2" x2="400.5" y2="124"/>
		<line class="st2" x1="403.5" y1="119.5" x2="405.3" y2="119.2"/>
		<line class="st2" x1="407.6" y1="121.1" x2="409.1" y2="120.5"/>
		<line class="st2" x1="405" y1="114.1" x2="405.5" y2="113.7"/>
		<line class="st2" x1="410.3" y1="110.5" x2="411" y2="110"/>
		<line class="st2" x1="409.6" y1="116.5" x2="410.3" y2="115.9"/>
		<line class="st2" x1="412.9" y1="119.9" x2="413.8" y2="119.4"/>
		<line class="st2" x1="414.4" y1="114.8" x2="414.8" y2="114.4"/>
		<line class="st2" x1="415.3" y1="110.8" x2="416" y2="110.2"/>
		<line class="st2" x1="419" y1="116.7" x2="419.6" y2="116.4"/>
		<line class="st2" x1="423.9" y1="115.9" x2="424.7" y2="115.4"/>
		<line class="st2" x1="421.3" y1="111.2" x2="422.4" y2="110.5"/>
		<line class="st2" x1="419.7" y1="107.2" x2="420" y2="106.7"/>
		<line class="st2" x1="424.3" y1="106.9" x2="425" y2="106.2"/>
		<line class="st2" x1="426.7" y1="110.5" x2="426.9" y2="110.2"/>
		<line class="st2" x1="431.2" y1="106.8" x2="431.4" y2="106.6"/>
		<line class="st2" x1="428.9" y1="103.7" x2="429.7" y2="103.5"/>
		<line class="st2" x1="429.9" y1="112.7" x2="430.5" y2="112.4"/>
		<line class="st2" x1="434.7" y1="108.5" x2="435.4" y2="107.7"/>
	</g>
	<g>
		<g>
			<path class="st1" d="M419.6,80.8c-0.6-1.1-1.5-1.8-2.5-2.3c0,0,0,0-0.1,0c-1-0.5-2.2-0.6-3.2-0.3c-5.1,1.5-12.5,7.5-14.8,9.4
				c-3.1,2.5-13.9,10.3-16.4,13.7c-0.4,0.6-0.7,1.2-0.9,1.8c-0.1,0.2-0.1,0.4-0.2,0.6c-0.3,1.6,0.1,3.1,0.7,4
				c2.8,7,12.2,0.3,16.9-3.9c0.3-0.3,17.2-12.9,19.9-16c1.7-1.9,2-3.8,1.2-5.7C420,81.6,419.8,81.2,419.6,80.8z"/>
		</g>
		<line class="st2" x1="382" y1="104.8" x2="383.1" y2="103.6"/>
		<line class="st2" x1="387" y1="103.3" x2="387.7" y2="102.5"/>
		<line class="st2" x1="389.3" y1="99" x2="389.9" y2="98.5"/>
		<line class="st2" x1="386" y1="109.3" x2="387.4" y2="108.7"/>
		<line class="st2" x1="390.2" y1="106.3" x2="390.8" y2="105.9"/>
		<line class="st2" x1="392.6" y1="100.9" x2="394.3" y2="100.1"/>
		<line class="st2" x1="397.1" y1="101.4" x2="398.3" y2="100.5"/>
		<line class="st2" x1="392.8" y1="95.2" x2="393.1" y2="94.8"/>
		<line class="st2" x1="397.1" y1="90.5" x2="397.6" y2="89.8"/>
		<line class="st2" x1="397.9" y1="96.5" x2="398.4" y2="95.7"/>
		<line class="st2" x1="401.8" y1="98.9" x2="402.6" y2="98.2"/>
		<line class="st2" x1="402" y1="93.6" x2="402.3" y2="93.1"/>
		<line class="st2" x1="402" y1="89.6" x2="402.5" y2="88.8"/>
		<line class="st2" x1="407" y1="94.4" x2="407.5" y2="93.9"/>
		<line class="st2" x1="411.6" y1="92.4" x2="412.2" y2="91.7"/>
		<line class="st2" x1="407.9" y1="88.5" x2="408.8" y2="87.6"/>
		<line class="st2" x1="405.3" y1="84.9" x2="405.5" y2="84.4"/>
		<line class="st2" x1="409.8" y1="83.6" x2="410.2" y2="82.8"/>
		<line class="st2" x1="412.9" y1="86.5" x2="413.1" y2="86.2"/>
		<line class="st2" x1="416.4" y1="81.7" x2="416.6" y2="81.5"/>
		<line class="st2" x1="413.4" y1="79.4" x2="414.2" y2="79"/>
		<line class="st2" x1="416.6" y1="87.8" x2="417.1" y2="87.4"/>
		<line class="st2" x1="420.2" y1="82.6" x2="420.7" y2="81.6"/>
	</g>
	<path class="st1" d="M466.6,140.9c3.2,4.2-0.2,12.1-7.6,17.8s-15.9,6.9-19.1,2.7s-8.8-12,3.2-21.6
		C456.9,128.8,463.4,136.7,466.6,140.9z"/>
	<path class="st1" d="M504.6,167.6c3.2,4.2-0.2,12.1-7.6,17.8s-15.9,6.9-19.1,2.7s-8.8-12,3.2-21.6
		C494.9,155.5,501.4,163.5,504.6,167.6z"/>
	<path class="st1" d="M498.3,153.8c2.4,4.7-2.4,11.9-10.7,16.1c-8.3,4.2-16.9,3.9-19.3-0.8s-6.5-13.4,7.1-20.6
		C491,140.2,495.9,149.1,498.3,153.8z"/>
	<path class="st1" d="M476.6,127.5c0.8,4.3-4.8,8.8-12.3,10.2c-7.6,1.3-14.3-1-15.1-5.3s-1.9-12.2,10.6-14.6
		C474.2,114.9,475.9,123.2,476.6,127.5z"/>
	<g>
		<path class="st1" d="M444,152.3c2.8,3.6,1,9.7-5.2,14.5s-15.8,6.4-18.5,2.8c-1.4-1.8-3.1-4.5-2.8-7.4c0.6-5.1,5.9-5.3,9-7.7
			c3.4-2.6,5.9-5.7,9-5.3C439.4,149.6,441.4,148.9,444,152.3z"/>
		<line class="st2" x1="422.1" y1="162.5" x2="423.2" y2="163"/>
		<line class="st2" x1="428.5" y1="167.4" x2="429.3" y2="166.2"/>
		<line class="st2" x1="433.4" y1="155.1" x2="435.8" y2="155.7"/>
		<line class="st2" x1="439.6" y1="161.5" x2="439.8" y2="159.7"/>
		<line class="st2" x1="440.5" y1="155" x2="441" y2="154.6"/>
		<line class="st2" x1="427.9" y1="157.6" x2="428.3" y2="158.4"/>
		<line class="st2" x1="434" y1="162.7" x2="434.2" y2="163.1"/>
	</g>
	<g>
		<path class="st1" d="M478.5,153.7c2.8,3.6,1,9.7-5.2,14.5s-15.8,6.4-18.5,2.8c-1.4-1.8-3.1-4.5-2.8-7.4c0.6-5.1,5.9-5.3,9-7.7
			c3.4-2.6,5.9-5.7,9-5.3C473.8,151.1,475.8,150.4,478.5,153.7z"/>
		<line class="st2" x1="456.6" y1="164" x2="457.7" y2="164.4"/>
		<line class="st2" x1="463" y1="168.9" x2="463.8" y2="167.7"/>
		<line class="st2" x1="467.9" y1="156.5" x2="470.3" y2="157.1"/>
		<line class="st2" x1="474.1" y1="162.9" x2="474.3" y2="161.2"/>
		<line class="st2" x1="475" y1="156.5" x2="475.5" y2="156.1"/>
		<line class="st2" x1="462.4" y1="159.1" x2="462.7" y2="159.9"/>
		<line class="st2" x1="468.5" y1="164.2" x2="468.7" y2="164.6"/>
	</g>
	<g>
		<path class="st1" d="M498.4,159c3.9,2.3,4.5,8.6,0.5,15.4c-4,6.8-12.3,11.8-16.2,9.5c-1.9-1.1-4.6-3-5.3-5.9
			c-1.3-4.9,3.5-7.1,5.5-10.5c2.1-3.7,3.4-7.4,6.4-8.2C493.1,158.2,494.7,156.8,498.4,159z"/>
		<line class="st2" x1="481.9" y1="176.6" x2="483.1" y2="176.6"/>
		<line class="st2" x1="489.6" y1="178.8" x2="490" y2="177.4"/>
		<line class="st2" x1="489.7" y1="165.5" x2="492.1" y2="165.2"/>
		<line class="st2" x1="497.7" y1="169.2" x2="497.3" y2="167.4"/>
		<line class="st2" x1="496.2" y1="162.8" x2="496.5" y2="162.2"/>
		<line class="st2" x1="485.5" y1="169.9" x2="486.1" y2="170.5"/>
		<line class="st2" x1="493" y1="172.4" x2="493.4" y2="172.6"/>
	</g>
	<g>
		<path class="st1" d="M489.7,139.4c-0.4,5.4-4.1,9.9-15.2,9.9c-8.4,0-15.2-4.4-15.2-9.9c0-10.3,6.8-9.9,15.2-9.9
			S490.4,129.6,489.7,139.4z"/>
		<line class="st2" x1="465.4" y1="135.8" x2="466" y2="134.7"/>
		<line class="st2" x1="472.9" y1="144.5" x2="473.8" y2="145.4"/>
		<path class="st2" d="M481.9,138.4"/>
		<line class="st2" x1="482.3" y1="136.8" x2="483.4" y2="135.8"/>
	</g>
	<path class="st1" d="M434.1,171.2c0,5.3-7.5,9.5-16.8,9.5s-16.8-4.3-16.8-9.5s0.3-14.8,15.7-15.1
		C433.8,155.7,434.1,166,434.1,171.2z"/>
	<g>
		<path class="st1" d="M417.8,175.9c-0.3,4.6-3.5,8.3-12.7,8.3c-7,0-12.7-3.7-12.7-8.3c0-8.6,5.7-8.3,12.7-8.3
			C412.2,167.6,418.4,167.6,417.8,175.9z"/>
		<line class="st2" x1="397.5" y1="172.8" x2="398.1" y2="172"/>
		<line class="st2" x1="403.8" y1="180.1" x2="404.5" y2="180.9"/>
		<path class="st2" d="M411.4,175"/>
		<line class="st2" x1="411.7" y1="173.7" x2="412.6" y2="172.8"/>
	</g>
</g>
<polygon class="st1" points="185,234.7 248,260.5 248,312 185,286 "/>
<polyline class="st4" points="185,286 185,431 190.7,436 190.7,288.7 "/>
<polyline class="st4" points="190.7,436 199.1,433.5 199.1,291.8 "/>
<line class="st4" x1="36.1" y1="389.9" x2="185" y2="389.9"/>
<line class="st4" x1="200.1" y1="389.9" x2="331.3" y2="389.9"/>
<line class="st4" x1="349.1" y1="389.9" x2="467.3" y2="389.9"/>
<line class="st4" x1="482.4" y1="389.9" x2="490.1" y2="389.9"/>
<rect class="st18" width="525" height="525"/>
</svg>
