<?xml version="1.0" encoding="utf-8"?>
<!-- Generator: Adobe Illustrator 22.0.1, SVG Export Plug-In . SVG Version: 6.00 Build 0)  -->
<svg version="1.1" id="Layer_2_1_" xmlns="http://www.w3.org/2000/svg" xmlns:xlink="http://www.w3.org/1999/xlink" x="0px" y="0px"
	 viewBox="0 0 525 525" style="enable-background:new 0 0 525 525;" xml:space="preserve">
<style type="text/css">
	.st0{fill:#F8AD84;}
	.st1{fill:#E5966E;}
	.st2{fill:#81C9BD;}
	.st3{opacity:0.73;fill:url(#SVGID_1_);enable-background:new    ;}
	.st4{opacity:0.52;fill:url(#SVGID_2_);enable-background:new    ;}
	.st5{fill:url(#SVGID_3_);}
	.st6{opacity:0.73;fill:url(#SVGID_4_);enable-background:new    ;}
	.st7{opacity:0.52;fill:url(#SVGID_5_);enable-background:new    ;}
	.st8{fill:url(#SVGID_6_);}
	.st9{fill:#51062A;}
	.st10{fill:none;stroke:#961E4C;stroke-width:3;stroke-miterlimit:10;}
	.st11{fill:#571672;}
	.st12{fill:#78367F;}
	.st13{fill:url(#SVGID_7_);}
	.st14{fill:#67B2AC;}
	.st15{fill:url(#SVGID_8_);}
	.st16{opacity:0.65;fill:url(#SVGID_9_);enable-background:new    ;}
	.st17{opacity:0.65;fill:url(#SVGID_10_);enable-background:new    ;}
	.st18{fill:#6E0001;}
	.st19{fill:#E89972;}
	.st20{fill:#DD8C68;}
	.st21{fill:#DB7556;}
	.st22{fill:#961E4C;}
	.st23{fill:url(#SVGID_11_);}
	.st24{opacity:0.8;fill:url(#SVGID_12_);enable-background:new    ;}
	.st25{fill:#BD3624;}
	.st26{opacity:0.71;}
	.st27{fill:url(#SVGID_13_);}
	.st28{opacity:0.73;fill:url(#SVGID_14_);enable-background:new    ;}
	.st29{fill:url(#SVGID_15_);}
	.st30{fill:url(#SVGID_16_);}
	.st31{fill:url(#SVGID_17_);}
	.st32{fill:url(#SVGID_18_);}
	.st33{fill:#F4F2F3;}
	.st34{opacity:0.29;}
	.st35{fill:url(#SVGID_19_);}
	.st36{opacity:0.63;}
	.st37{fill:url(#SVGID_20_);}
	.st38{fill:#5FB2A2;}
	.st39{fill:url(#SVGID_21_);}
	.st40{fill:url(#SVGID_22_);}
	.st41{fill:#FFFFFF;}
	.st42{fill:#D1C7CB;}
	.st43{fill:#EAE4E6;}
	.st44{fill:#D8278D;}
	.st45{fill:#FCB692;}
	.st46{fill:url(#SVGID_23_);}
	.st47{fill:url(#SVGID_24_);}
	.st48{fill:url(#SVGID_25_);}
	.st49{fill:url(#SVGID_26_);}
	.st50{fill:#FFC2B6;}
	.st51{fill:url(#SVGID_27_);}
	.st52{fill:url(#SVGID_28_);}
	.st53{fill:url(#SVGID_29_);}
	.st54{fill:url(#SVGID_30_);}
	.st55{fill:url(#SVGID_31_);}
	.st56{fill:url(#SVGID_32_);}
	.st57{fill:none;}
	.st58{fill:#AA9FA1;}
	.st59{opacity:0.8;fill:url(#SVGID_33_);enable-background:new    ;}
	.st60{fill:url(#SVGID_34_);}
	.st61{opacity:0.8;fill:url(#SVGID_35_);enable-background:new    ;}
	.st62{opacity:0.69;fill:url(#SVGID_36_);enable-background:new    ;}
	.st63{fill:url(#SVGID_37_);}
	.st64{opacity:0.68;fill:url(#SVGID_38_);enable-background:new    ;}
	.st65{fill:url(#SVGID_39_);}
	.st66{opacity:0.67;fill:url(#SVGID_40_);enable-background:new    ;}
	.st67{fill:url(#SVGID_41_);}
	.st68{opacity:0.22;fill:#FFF4B6;enable-background:new    ;}
</style>
<g id="Layer_1_1_">
	<g>
		<g id="XMLID_99_">
			<g>
				<path class="st0" d="M249.3,476.9l10.3,18.5c0,0-8.5,2.8-13.1,5.1c-4,2-7.4,2.1-9.5,2.1c-2.8-5.4-2.5-17.1-2.4-20
					c0.1,0,0.2-0.1,0.2-0.1c4.4-1.7,6.3,0.5,8.6,0C245.7,481.9,249.3,476.9,249.3,476.9z"/>
				<path class="st1" d="M234.7,482.6c-0.1,2.9-0.5,14.6,2.4,20c-1,0-1.6,0-2,0.1c-4.4-10.2-2.6-17.3-1.6-19.7
					C233.8,482.9,234.2,482.8,234.7,482.6z"/>
				<path class="st2" d="M233.3,483c-0.9,2.5-2.7,9.4,1.6,19.7c-1.2,0.4-21.2,1.6-26.4,2.6c-5.2,0.9-15.1,1-16.3,1.1
					c-1.3,0.1-4.2-0.1-7.9,0.1s-7.2-2.5-10.2-5.8s-1.5-11.2-0.7-15c0.8-3.7,3.7-4.7,5.4-5.6c1.6-0.8,1.4-0.6,5.6-2.4
					c4.2-1.7,9.4,0.2,15.6,1.9c6.2,1.7,14.8,1.4,21.1,2.4C226.4,483,230.4,483.6,233.3,483z"/>
			</g>
		</g>
		
			<linearGradient id="SVGID_1_" gradientUnits="userSpaceOnUse" x1="242.9994" y1="-1427.7734" x2="241.7449" y2="-1421.2499" gradientTransform="matrix(0.9989 -4.712608e-02 -4.712608e-02 -0.9989 -65.7697 -914.5117)">
			<stop  offset="0" style="stop-color:#D17F56"/>
			<stop  offset="1" style="stop-color:#F8AD84;stop-opacity:0"/>
		</linearGradient>
		<path class="st3" d="M234.2,495.5c0,0,8.2,0.1,14.5-3.6s2.9,6.6,2.9,6.6l-4.1,1.5c0,0-3.7,1.7-5.8,2.2c-2.6,0.5-6.9,0.5-6.9,0.5
			L234.2,495.5z"/>
		
			<linearGradient id="SVGID_2_" gradientUnits="userSpaceOnUse" x1="169.8696" y1="-1415.1685" x2="208.1835" y2="-1416.5231" gradientTransform="matrix(0.9989 -4.712608e-02 -4.712608e-02 -0.9989 -65.7697 -914.5117)">
			<stop  offset="0" style="stop-color:#59BAC2;stop-opacity:0"/>
			<stop  offset="1" style="stop-color:#387E85"/>
		</linearGradient>
		<path class="st4" d="M194.3,503.2c0,0-4.6-2.7-5.3-6.9c-0.8-4.7,0.7-12.3,3.2-13.3c4.6-1.8,22.1,0.3,21.5-0.3
			c-0.2-0.2,1.8-1.6-3.4-1.6c-4.7,0-12.7-1.6-17.5-2.6c-3.5-0.7-7.9,1-10.2,1.6c-7.4,2.1-8.8,14.7-6.2,19
			C178.8,503.6,185,503.7,194.3,503.2z"/>
		
			<linearGradient id="SVGID_3_" gradientUnits="userSpaceOnUse" x1="221.6796" y1="-1419.4866" x2="229.3467" y2="-1419.7576" gradientTransform="matrix(0.9989 -4.712608e-02 -4.712608e-02 -0.9989 -65.7697 -914.5117)">
			<stop  offset="0" style="stop-color:#59BAC2;stop-opacity:0"/>
			<stop  offset="1" style="stop-color:#387E85"/>
		</linearGradient>
		<path class="st5" d="M229.2,482.8c0,0-3.3-0.3-5-0.3c-2.6,0,1.6,5,1.8,10c0.1,3.3-0.5,6.1-0.4,8.1c0.2,3.7,3,2.6,3,2.6l2.8-0.2
			L229.2,482.8z"/>
		<path class="st2" d="M236.3,503.2c-4-10-1.3-20.4-2-22c-0.4-0.7-1.7-0.3-3.1-0.2c-1.4,0.1-3.3,0.3-2.9,1.9
			c0.3,1.7,1.5,10.7,1.2,13.6c-0.3,2.8-1.2,7.7,2.2,7.9C234.9,504.7,237,505,236.3,503.2z"/>
	</g>
	<g>
		<g id="XMLID_100_">
			<g>
				<path class="st0" d="M281.7,467.2l-10.6,18.4c0,0,9,4,13.7,6c0.9,0.4,1.8,0.6,2.7,0.9c3.7-6.3,8.3-19.2,8.6-20
					c-0.4-0.2-0.6-0.4-0.9-0.5c-2.6-2-4.8-0.4-7.2-1C285.7,470.3,281.7,467.2,281.7,467.2z"/>
				<path class="st1" d="M287.7,492.5c3.6,0.8,7,0.4,8,0.7c5-11.2,2.5-18.5,1.7-20.3c-0.4-0.1-0.8-0.3-1.1-0.5
					C295.9,473.4,291.3,486.1,287.7,492.5z"/>
				<path class="st2" d="M297.3,473c0.7,1.7,3.3,9-1.7,20.3c1.2,0.5,21.2,1.9,26.4,2.9c5.2,1,18.8,1.3,20,1.4c1.3,0.1,2.7,0,6.5,0.3
					c3.7,0.2,7.9-2.4,11-5.7c3.1-3.3,1.6-11.2,0.9-15s-6.2-4.7-7.9-5.5c-1.6-0.8-2.4-0.7-6.6-2.5c-4.1-1.7-8.8-0.1-15,1.6
					c-6.2,1.6-14.8,1.2-21.1,2.1C304.8,473.5,300.4,473.8,297.3,473z"/>
			</g>
		</g>
		
			<linearGradient id="SVGID_4_" gradientUnits="userSpaceOnUse" x1="-2231.7542" y1="-1313.3406" x2="-2233.0593" y2="-1306.5532" gradientTransform="matrix(-0.9981 -6.157888e-02 6.157888e-02 -0.9981 -1860.4661 -957.3672)">
			<stop  offset="0" style="stop-color:#D17F56"/>
			<stop  offset="1" style="stop-color:#F8AD84;stop-opacity:0"/>
		</linearGradient>
		<path class="st6" d="M296.4,486c0,0-8.2,0-14.5-3.7c-6.2-3.7-3,6.6-3,6.6l4.3,2.3c0,0,3.7,1.7,5.8,1.8c2.2,0.2,6.6,0.3,6.6,0.3
			L296.4,486z"/>
		
			<linearGradient id="SVGID_5_" gradientUnits="userSpaceOnUse" x1="-2305.0056" y1="-1300.5498" x2="-2266.925" y2="-1301.8961" gradientTransform="matrix(-0.9981 -6.157888e-02 6.157888e-02 -0.9981 -1860.4661 -957.3672)">
			<stop  offset="0" style="stop-color:#59BAC2;stop-opacity:0"/>
			<stop  offset="1" style="stop-color:#387E85"/>
		</linearGradient>
		<path class="st7" d="M336.3,494.4c0,0,4.6-2.6,5.4-6.9c0.8-4.6-0.5-12.3-2.9-13.3c-4.6-1.9-22.1-0.1-21.5-0.5
			c0.2-0.2,1-1.6,3.4-1.5c4.7,0.3,12.7-1.5,17.5-2.4c3.6-0.6,7.9,1.1,10.2,1.8c7.3,2.2,8.5,14.9,5.9,19.1
			C351.8,494.9,345.7,494.9,336.3,494.4z"/>
		
			<linearGradient id="SVGID_6_" gradientUnits="userSpaceOnUse" x1="-2253.2207" y1="-1304.809" x2="-2245.5537" y2="-1305.0801" gradientTransform="matrix(-0.9981 -6.157888e-02 6.157888e-02 -0.9981 -1860.4661 -957.3672)">
			<stop  offset="0" style="stop-color:#59BAC2;stop-opacity:0"/>
			<stop  offset="1" style="stop-color:#387E85"/>
		</linearGradient>
		<path class="st8" d="M301.7,473.4c0,0,3.3-0.2,5-0.2c2.6,0.1-1.7,5-1.9,10c-0.2,3.3,0.4,6.1,0.3,8.1c-0.3,3.7-3,2.6-3,2.6
			l-2.8-0.3L301.7,473.4z"/>
		<path class="st2" d="M294.3,493.8c4.2-10,1.6-20.4,2.4-21.9c0.4-0.7,1.7-0.3,3.1-0.2c1.4,0.1,3.3,0.3,2.9,2s-1.6,10.7-1.4,13.5
			c0.3,2.9,1,7.7-2.3,7.9C295.7,495.3,293.6,495.5,294.3,493.8z"/>
	</g>
	<g id="XMLID_98_">
		<g>
			<path class="st9" d="M384.2,169.5c9.2,23.1-8.6,43-9.9,54.1s20.9,32.6,0.8,56.9s-73.6,7.2-73.6,7.2S296,302,231.7,279
				s-18.8-106.5-18.8-106.5s-13.4-26,3.4-63.8C233,71,262,82.2,262,82.2c5.5-3,11.1-11.4,32-7.2c17.3,3.5,50.6,48,50.6,48
				S371.2,137,384.2,169.5z"/>
		</g>
		<g>
			<path class="st10" d="M261.9,82.2c0,0-28.9-11.2-45.7,26.5c-16.7,37.7-3.4,63.8-3.4,63.8s-45.6,83.6,18.8,106.6
				s69.9,8.7,69.9,8.7s53.5,17.1,73.6-7.2c20.1-24.3-2.1-45.9-0.8-56.9c1.3-11.1,19.1-31,9.9-54.1c-13-32.4-39.8-46.5-39.8-46.5
				S311,78.5,293.8,75C272.9,70.8,267.3,79.2,261.9,82.2z"/>
		</g>
	</g>
	<g id="XMLID_97_">
		<g>
			<path class="st11" d="M366.9,399.5c5.2,16.4-58.6,68.1-93.1,59.5s-75.7-40.6-68.8-53.1c7-12.5,23.1-22.7,23.1-22.7
				c16.5-10.8,81.7-2.6,97.8-3.8C342.3,378.1,361.8,383,366.9,399.5z"/>
		</g>
	</g>
	<g id="XMLID_96_">
		<g>
			<path class="st12" d="M367,399.4c5.2,16.4-58.6,68.1-93.1,59.5s-75.7-40.6-68.8-53.1c7-12.5,23.1-22.7,23.1-22.7
				c16.5-10.8,81.7-2.6,97.8-3.8C342.4,378,361.8,382.8,367,399.4z"/>
		</g>
	</g>
	<path class="st0" d="M333.5,225.5c0,0,14.4,2.9,20.6,17.8s11.4,92.2,6.1,105.7s-10,13.1-16.4,13.1s-9-60.9-9-87.6
		C334.9,247.7,333.5,225.5,333.5,225.5z"/>
	
		<linearGradient id="SVGID_7_" gradientUnits="userSpaceOnUse" x1="322.2885" y1="-1167.5334" x2="356.7648" y2="-1155.9395" gradientTransform="matrix(1 0 0 -1 0 -866.3)">
		<stop  offset="0" style="stop-color:#E89166"/>
		<stop  offset="1" style="stop-color:#F8AD84;stop-opacity:0"/>
	</linearGradient>
	<path class="st13" d="M333.9,226.5c0,0,14.4,2.9,20.6,17.8s11,92.2,5.7,105.7s-9.6,13.1-16,13.1s-9-60.9-9-87.6
		S333.9,226.5,333.9,226.5z"/>
	<g id="XMLID_94_">
		<g id="XMLID_95_">
			<g>
				<path class="st0" d="M350.5,239.3c3.1,7.4-7.4,28.6-9.6,33.3c-2.1,4.6-2.6,6.2-1.6,9.6c-2.3-5.1-5.3-12-6.8-14.7
					c-2.5-4.7-1.8-42.9-1.8-42.9C342,227.6,347.4,231.9,350.5,239.3z"/>
				<path class="st2" d="M241.8,271.8c0,0,14,2.7,28.8,10.2c11.5,5.8,14.8,8,14.8,8s10.5-6.2,21.6-13.3c10.8-6.9,15.6-8.8,15.6-8.8
					s-0.5-33.1,2.6-44.5c2.1,0.5,3.9,0.9,5.6,1.3c0,0-0.6,38.3,1.8,42.9c1.5,2.7,4.5,9.6,6.8,14.7c0,0.2,0.1,0.3,0.2,0.5
					c1.3,3.7,2.9,5.9,4.1,16.1c1,8.8-1.6,18.5-11.4,23.7c-0.8,2.6-4.9,16.9-4.9,21.1c0,4.6,0.9,14.6,3,18.2s-1.1,4,0,5.1
					s2.7-0.2,3.3,1.4c1.4,3.9-0.8,5.6,0,6.4s5.5,2.3,4.6,5c-0.4,1.1-5.4,4.4-13.8,7.7c-12.1,4.7-31.3,9.7-53.3,8.5
					c-17.8-0.9-28.9-4-35.4-7.2c-7.1-3.5-8.8-7-7.8-8c1.7-1.7,2.5-1.4,2.6-1.3c-0.3-0.3-2.6-3,0.2-6.7c2.9-3.7,5.8-8.8,6.5-15
					c0.5-3.9-2-22.1-3.4-32.3c-0.2-1-0.4-1.8-0.7-2.6c-0.7-1.9-2-3.7-3.7-6c-6.5-9.6-4.4-18.7-4.4-25.9c0-0.4,0-0.7,0-1
					c0.8-2.9,2.2-9.7,0.5-19.7c-2.3-13.2-6.7-34.3-10.9-40c2.5-0.8,5.4-1.7,8.5-2.6c2.6,5.5,14.9,32,17.7,41L241.8,271.8z"/>
				<path class="st0" d="M285.3,285.5c-11-8.2-40-17.3-40-17.3c-9.8-22.3-17.4-36.1-20.2-41c-0.1-0.2-0.2-0.3-0.3-0.5
					c11.1-3.3,23.7-6.9,26.6-8.1c4.7-2,7-5.4,7.6-8c0.8-3.8,0.3-32.7,0.3-32.7s-0.4-11.8,7-16s16.1-1.1,20,5
					c2.2,3.4,3.3,7.4,3.3,15.3c0,6,0.9,19.7,2.8,27.5c0.6,2.4,1.5,5.7,3.8,6.9c3.7,2,15.6,4,25.6,5.9c-0.2,0.6-0.4,1.4-0.5,2.2
					c-0.2,1-0.4,2.1-0.5,3.4c-0.1,0.7-0.2,1.5-0.3,2.3c0,0.3-0.1,0.5-0.1,0.8c-0.1,0.5-0.1,1.1-0.2,1.6c0,0.3-0.1,0.5-0.1,0.8
					c-0.1,0.5-0.1,1.1-0.2,1.7c0,0.3-0.1,0.5-0.1,0.8c-0.1,0.5-0.1,1.2-0.2,1.7s-0.1,1.2-0.1,1.7c-0.1,0.9-0.1,1.7-0.2,2.6
					c0,0.6-0.1,1.2-0.1,1.7c0,0.6-0.1,1.2-0.1,1.7c0,0.3,0,0.5,0,0.9c0,0.5-0.1,1.2-0.1,1.7c-0.1,1.5-0.1,2.8-0.2,4.2
					c0,0.5,0,1.1-0.1,1.6c-0.2,6.4-0.2,11.1-0.2,11.1C303.7,272,285.3,285.5,285.3,285.5z"/>
				<path class="st2" d="M236,353.4L236,353.4L236,353.4c0,0.3,0,0.5,0,0.8C236.1,354,236,353.7,236,353.4z"/>
				<path class="st0" d="M214.5,230c4.2,5.8,8.6,26.8,10.9,40c1.7,10.1,0.4,16.9-0.5,19.7c-0.2-8.2-3-13-3-13s-21-9.4-23.7-22.7
					s3.9-19,10.3-21.9C209.7,231.7,211.8,230.8,214.5,230z"/>
				<path class="st0" d="M224.8,226.7c0.1,0.2,0.2,0.3,0.3,0.5C225,227.1,224.9,226.9,224.8,226.7L224.8,226.7z"/>
				<path class="st14" d="M245.3,268.2c0,0,29,9,40,17.3c0,0,18.5-13.4,33.5-20.2c0,0,0-4.7,0.2-11.1c0-0.5,0-1,0.1-1.6
					c0-1.4,0.1-2.7,0.2-4.2c0-0.5,0.1-1.2,0.1-1.7c0-0.3,0-0.5,0-0.9c0-0.6,0.1-1.2,0.1-1.7s0.1-1.2,0.1-1.7
					c0.1-0.9,0.1-1.8,0.2-2.6c0-0.6,0.1-1.2,0.1-1.7c0.1-0.5,0.1-1.2,0.2-1.7c0-0.3,0.1-0.5,0.1-0.8c0.1-0.5,0.1-1.1,0.2-1.7
					c0-0.3,0.1-0.5,0.1-0.8c0.1-0.5,0.1-1.1,0.2-1.6c0-0.3,0.1-0.5,0.1-0.8c0.1-0.8,0.2-1.6,0.3-2.3c0.2-1.2,0.4-2.3,0.5-3.4
					c0.2-0.8,0.4-1.6,0.5-2.2c1.1,0.3,2.2,0.5,3.3,0.7c-3.1,11.4-2.6,44.5-2.6,44.5s-4.8,1.9-15.6,8.8
					c-11.1,7.1-21.6,13.3-21.6,13.3s-3.3-2.2-14.8-8c-14.8-7.5-28.8-10.2-28.8-10.2l-1.1-3.5c-2.8-9-15.2-35.5-17.7-41
					c0.6-0.2,1.3-0.4,1.8-0.5l0,0c0.1,0.2,0.2,0.3,0.3,0.5C227.9,232.2,235.5,245.9,245.3,268.2z"/>
			</g>
		</g>
	</g>
	
		<linearGradient id="SVGID_8_" gradientUnits="userSpaceOnUse" x1="274.8005" y1="-1064.2151" x2="277.1768" y2="-1087.502" gradientTransform="matrix(1 0 0 -1 0 -866.3)">
		<stop  offset="0" style="stop-color:#DE8A5F"/>
		<stop  offset="1" style="stop-color:#F8AD84;stop-opacity:0"/>
	</linearGradient>
	<path class="st15" d="M290.4,192.3c0,0-5.9,4.7-10.9,5.8c-4.9,0.9-8.3,0.3-11.1-0.7c-4.7-1.8-8.9-4.9-8.9-4.9l-0.2,12
		c0,0,5.1,10,18.7,10.8c10.5,0.5,13.2-11.4,13.2-11.4S289.9,194.4,290.4,192.3z"/>
	
		<linearGradient id="SVGID_9_" gradientUnits="userSpaceOnUse" x1="29.439" y1="-1248.3237" x2="35.78" y2="-1236.6987" gradientTransform="matrix(1.0484 -5.840858e-02 -6.224136e-02 -0.9983 142.0177 -1001.9008)">
		<stop  offset="0" style="stop-color:#E89166"/>
		<stop  offset="1" style="stop-color:#F8AD84;stop-opacity:0"/>
	</linearGradient>
	<path class="st16" d="M241.3,239.2c0,0,7.8,3.3,22.3,5.9c10.3,1.9,3.6-4.2-0.5-5.2c-5-1.2-14.8-7.3-21.7-10.2
		c-2.6-1.1-5.5,0.9-5.3,4.2C236,234.7,237.2,237.4,241.3,239.2z"/>
	
		<linearGradient id="SVGID_10_" gradientUnits="userSpaceOnUse" x1="-4213.0146" y1="-842.0016" x2="-4206.4048" y2="-829.8837" gradientTransform="matrix(-0.9739 -0.1156 0.1152 -0.9932 -3703.1067 -1081.1342)">
		<stop  offset="0" style="stop-color:#E89166"/>
		<stop  offset="1" style="stop-color:#F8AD84;stop-opacity:0"/>
	</linearGradient>
	<path class="st17" d="M311.9,239c0,0-6.7,5-21.4,5.7c-9.8,0.5-3.1-4.4,0.7-5.2c4.7-0.9,14.7-7.4,21.3-10c2.5-1,5,1.2,4.7,4.5
		C317.1,234.8,315.3,236.3,311.9,239z"/>
	<path class="st0" d="M235.6,133.8c0,0-3-5.6-7.7-2.5c-4.7,3.2-2.3,15,1.6,19.8c3.9,4.8,6.9,7.4,6.9,7.4s0.2,23.4,13.2,33.1
		c13,9.7,16.3,10.5,23.3,11.6c6.9,1.1,20.3-8.1,24.6-12.4c4.3-4.3,12.4-14.2,13.7-24.1c1.3-9.9-1.2-42.3-1.6-44.9s-35-30.4-50.1-21
		C244.4,110.2,235.6,125.2,235.6,133.8z"/>
	<path class="st18" d="M244.1,140c-0.4,0.4,5.3-6.8,11.7-7.9c5.4-1,7.9,1.1,7.9,2.2c0,1.1,0.2,2.4-2.5,1.9c-2.6-0.5-4.7-0.9-6.9-0.5
		C250.4,136.2,245.4,138.9,244.1,140z"/>
	<path class="st18" d="M246.4,145.8c0,0,3.6,5.1,8.1,5.5c4.6,0.5,8.8-2.9,9.8-4c0.9-1-5.3,1.6-9.2,1
		C251.1,147.7,245.5,144.5,246.4,145.8z"/>
	<path class="st19" d="M251.8,105.5c0,0,0.7,11.1,11.1,17.8c10.4,6.7,15.4,7.6,15.4,7.6s0.7,16.5,12.6,23.2s20.6,11.7,20.6,9.2
		c0-7.9,1.4-27.1-3.6-38C303.1,114.5,261.3,92.8,251.8,105.5z"/>
	<path class="st18" d="M303.5,145.3c0,0-3.4,5.2-8,5.8c-4.6,0.5-8.9-2.7-9.9-3.7s5.4,1.5,9.3,0.7C298.8,147.4,304.2,144,303.5,145.3
		z"/>
	<path class="st20" d="M268.8,165.9c0,0,1.2,1.7,3.4,1.9s4.7-1.3,5.4-1.9c0.7-0.6,0.5,4.2-3.1,5.4c-3.7,1.2-5.7-2.3-5.7-4
		S268.8,165.9,268.8,165.9z"/>
	<g id="XMLID_93_">
		<g>
			<path class="st9" d="M349.6,135c0,0-0.2,13.6-30.3,16.3c-30.1,2.6-38.4-23.1-38.4-23.1c-31-4.5-30.6-31.3-30.6-31.3
				s3.2-15.1,35.3-4.7S349.6,124.6,349.6,135z"/>
		</g>
	</g>
	
		<ellipse transform="matrix(0.9834 -0.1813 0.1813 0.9834 -24.5136 47.6144)" class="st21" cx="248.2" cy="157.9" rx="1.4" ry="1.5"/>
	<circle class="st21" cx="253.2" cy="162.2" r="0.9"/>
	<circle class="st21" cx="259.2" cy="159.8" r="1"/>
	<circle class="st21" cx="266" cy="157.1" r="1"/>
	<circle class="st21" cx="279.6" cy="154.7" r="0.6"/>
	<circle class="st21" cx="282.7" cy="160.3" r="1.1"/>
	<circle class="st21" cx="293.1" cy="161.4" r="1.1"/>
	<circle class="st21" cx="300.4" cy="168.5" r="1.1"/>
	<g>
		<path class="st22" d="M235.7,133.1c0.6-4.7,2.1-9.2,4.3-13.4c1.1-2.1,2.5-4.1,3.9-5.9c0.4-0.5,0.7-0.9,1.2-1.4l1.3-1.3l1.2-1.2
			c0.4-0.5,0.7-0.8,1.1-1.3c1.5-1.7,2.7-3.7,3.8-5.8c1.1-2,1.9-4.2,2.4-6.3c0.3-1.1,0.3-2.2,0.2-3.1L255,93l-0.1-0.3l-0.1-0.3
			c-0.1-0.1-0.1-0.2-0.2-0.4c-0.3-0.5-0.5-0.8-0.9-1.2c-0.7-0.7-1.6-1.4-2.5-1.6c-0.5-0.2-0.9-0.2-1.2-0.2c-0.3,0.1-0.5,0.2-0.6,0.5
			c-0.4,0.6-0.5,1.7-0.4,2.7c0.1,1.1,0.4,2.2,0.5,3.3c0.5,2.3,1.1,4.5,1.9,6.7c1.5,4.4,3.6,8.5,6.2,12.1c1.4,1.8,2.9,3.5,4.7,4.8
			s3.7,2.5,5.8,3.5s4.2,1.8,6.4,2.5s4.5,1.3,6.6,1.6l0.8,0.1l0.3,0.8c0.6,1.8,1.6,3.7,2.6,5.5c1,1.7,2.2,3.5,3.5,5
			c2.6,3.1,5.7,5.9,9.2,7.8c3.6,1.9,7.6,2.9,11.6,3.7c2,0.4,4.1,0.5,6.1,0.6c2.1,0,4.1,0.1,6.2-0.1c4.1-0.3,8.2-1.1,12.1-2.3
			c0.3-0.1,0.4-0.2,0.5-0.3s0.3-0.2,0.4-0.4c0.2-0.3,0.4-0.5,0.4-0.8c0-0.6-0.5-1.2-1.4-1.3c-0.8-0.1-1.7,0.3-2.6,0.7
			c-0.7,0.5-1.2,1.3-1.5,2.2c-0.5,1.8-0.3,3.9,0.5,5.8c0.7,1.9,1.8,3.7,3.2,5.2s3,2.8,4.8,3.9c1.7,1.1,3.7,2,5.7,2.7
			c-4-1.2-7.9-3.2-11-6.3c-1.5-1.6-2.8-3.3-3.7-5.3c-0.8-2-1.3-4.3-0.7-6.6c0.3-1.1,0.8-2.3,1.9-3c0.3-0.2,0.5-0.4,0.8-0.5
			s0.5-0.3,0.8-0.4c0.3-0.1,0.5-0.2,0.9-0.2l0.5-0.1h0.5c0.6,0,1.4,0.3,1.9,0.7s0.9,1.2,1,1.9s-0.2,1.6-0.7,2
			c-0.2,0.3-0.5,0.5-0.8,0.7c-0.3,0.1-0.6,0.4-0.9,0.4c-4.1,1.5-8.3,2.3-12.5,2.7c-4.3,0.5-8.6,0.4-12.9-0.3l-1.6-0.3
			c-0.5-0.1-1.1-0.2-1.6-0.4c-0.5-0.1-1.1-0.2-1.6-0.4l-1.6-0.5c-1-0.3-2.1-0.6-3.1-1c-1.1-0.4-2-0.9-3-1.4c-3.9-2-7.3-5-10-8.3
			c-1.4-1.7-2.6-3.5-3.7-5.4s-2-3.8-2.8-5.9l1.1,0.9c-2.5-0.4-4.7-1-7-1.7s-4.6-1.6-6.7-2.6c-2.2-1.1-4.3-2.3-6.3-3.7
			c-1.9-1.6-3.7-3.4-5.1-5.3c-2.9-3.9-4.9-8.4-6.5-12.9c-0.7-2.3-1.4-4.6-1.8-6.9c-0.3-1.2-0.5-2.4-0.5-3.7c0-0.6,0-1.3,0.1-2
			c0.1-0.6,0.3-1.4,0.7-2.1s1.3-1.4,2.1-1.5c0.8-0.2,1.6,0,2.3,0.3c1.3,0.5,2.4,1.4,3.3,2.3c0.5,0.5,0.8,1,1.2,1.6
			c0.1,0.2,0.2,0.3,0.3,0.5l0.2,0.5c0.1,0.2,0.1,0.4,0.2,0.5l0.1,0.5c0.2,1.4,0,2.6-0.3,3.8c-0.5,2.5-1.6,4.7-2.7,6.8
			c-1.2,2.1-2.6,4-4.2,5.8c-0.4,0.5-0.8,0.9-1.3,1.3l-1.3,1.2l-1.3,1.2c-0.5,0.4-0.8,0.8-1.2,1.3c-1.6,1.7-2.9,3.6-4.1,5.6
			s-2.2,4.1-3,6.3C236.8,128.5,236,130.8,235.7,133.1z"/>
	</g>
	
		<linearGradient id="SVGID_11_" gradientUnits="userSpaceOnUse" x1="282.2654" y1="-1150.3037" x2="282.0368" y2="-1130.8807" gradientTransform="matrix(1 0 0 -1 0 -866.3)">
		<stop  offset="0" style="stop-color:#C7754E"/>
		<stop  offset="1" style="stop-color:#F8AD84;stop-opacity:0"/>
	</linearGradient>
	<path class="st23" d="M245.3,268.2c0,0,15.6,5.6,22.4,8.1c6.9,2.6,17.5,9.1,17.5,9.1s12.7-8.4,17-11.2c5.1-3.4,16.6-9,16.6-9v-2
		c0,0-23.6,7.2-25.2,9.1c-8.2,9.7-4.2-4.3-10.6-5.8s-2.2,14.2-11.4,7.2C262.9,267.3,245.3,268.2,245.3,268.2z"/>
	
		<linearGradient id="SVGID_12_" gradientUnits="userSpaceOnUse" x1="280.0847" y1="-1208.4729" x2="282.5145" y2="-1170.0819" gradientTransform="matrix(1 0 0 -1 0 -866.3)">
		<stop  offset="0" style="stop-color:#59BAC2;stop-opacity:0"/>
		<stop  offset="1" style="stop-color:#387E85"/>
	</linearGradient>
	<path class="st24" d="M332.2,322.3c0,0-12.9,5.6-27.3,1.2c-15.4-4.7-19.3-3.4-30.7,0.6c-11.1,3.8-32.7,6.1-43.5-5.2
		c0,0,2.4,2.8,2.7,4.9s0.9,7.9,0.9,7.9s11.4,7.6,23.9,8.4c12.5,0.8,24-1.2,31.6,3.6c7.6,4.7,28.7,10.5,34.6,7.7L332.2,322.3z"/>
	<path class="st18" d="M253.2,148.8c0,0-1.4,3,0.9,4.6c2.3,1.6,3.7-0.4,4.4-1.7c0.7-1.4,0.3-2.2-0.4-2.8
		C257.5,148.3,253.2,148.8,253.2,148.8z"/>
	<path class="st18" d="M297,148.7c0,0,0.7,3.6-1.5,4.9c-2.2,1.4-3.3-0.7-3.8-2.1c-0.5-1.4-0.5-2.1,0.1-2.6
		C292.3,148.3,297,148.7,297,148.7z"/>
	<g id="XMLID_82_">
		<g>
			<path class="st25" d="M270.1,177.8c-1.1,0-7.4,2-9.4,1.6c0,0,2.7,2.4,3.6,3.7c1.8,2.8,4.9,5.4,9.9,4.8c5-0.5,7.3-2.7,8.8-5.1
				c1.5-2.4,3.5-3.4,3.5-3.4s-2.9-0.7-5.5-1c-2.6-0.4-5-0.9-6.7,0.3l-0.8,0.5C273.4,179,272.2,177.8,270.1,177.8z"/>
		</g>
	</g>
	<g id="XMLID_50_" class="st26">
		
			<linearGradient id="SVGID_13_" gradientUnits="userSpaceOnUse" x1="999.9423" y1="1354.3289" x2="1005.0082" y2="1351.3737" gradientTransform="matrix(0.4345 0.9007 0.9007 -0.4345 -1380.5548 -130.3327)">
			<stop  offset="3.513514e-02" style="stop-color:#960F0F"/>
			<stop  offset="1" style="stop-color:#BD3624"/>
		</linearGradient>
		<path class="st27" d="M274.6,187.8c-4.9,0.5-7.9-2-9.7-4.7c-0.8-1.2-3.5-3.6-3.5-3.6s5.9,2.3,7.9,2.4s3.4,1.4,5.5,0.9
			c2.2-0.5,1.6-0.8,3.6-1.2c1.9-0.4,6.9-1.6,8.1-2.1l0,0c0,0-1.9,0.9-3.4,3.3C281.7,185.1,279.4,187.2,274.6,187.8z"/>
	</g>
	<path class="st0" d="M212.8,230.6c0,0-14,1.5-18.2,25.9c-4.1,24.5-13.9,92.9-17.5,102.6s-3.7,30.3,5.8,34.7
		c9.4,4.4,21.3,0.7,25.7-17.4s11.5-73,16.5-85.6C230,278.2,212.8,230.6,212.8,230.6z"/>
	
		<linearGradient id="SVGID_14_" gradientUnits="userSpaceOnUse" x1="211.8835" y1="-1193.7739" x2="185.0341" y2="-1164.1787" gradientTransform="matrix(1 0 0 -1 0 -866.3)">
		<stop  offset="0" style="stop-color:#D17F56"/>
		<stop  offset="1" style="stop-color:#F8AD84;stop-opacity:0"/>
	</linearGradient>
	<path class="st28" d="M213.2,230.3c0,0-14,1.5-18.2,25.9s-13.9,92.8-17.5,102.6c-3.7,9.7-3.7,30.3,5.8,34.7
		c9.4,4.4,21.3,0.7,25.7-17.4s11.5-73,16.5-85.6S213.2,230.3,213.2,230.3z"/>
	<path class="st0" d="M176.5,311.4c0,0,4.1,1.5,0.9,11.5c-3.2,10-12.3,52,0.2,66c15.2,17,27.2-1.3,28.7-8c3.2-14.4-5.5-39.9-7-53.9
		s-13.1-40.5-13.1-40.5l-4.8,0.9L176.5,311.4z"/>
	
		<linearGradient id="SVGID_15_" gradientUnits="userSpaceOnUse" x1="197.4707" y1="-1248.4657" x2="166.9377" y2="-1161.9984" gradientTransform="matrix(1 0 0 -1 0 -866.3)">
		<stop  offset="0" style="stop-color:#E89166"/>
		<stop  offset="1" style="stop-color:#F8AD84;stop-opacity:0"/>
	</linearGradient>
	<path class="st29" d="M176.7,311.6c0,0,4.1,1.5,0.9,11.5c-3.2,10-12.3,52,0.2,66c15.2,17,27.2-1.3,28.7-8c3.2-14.4-5.5-39.9-7-53.9
		s-13.7-43.6-13.7-43.6l-8.5,4.5L176.7,311.6z"/>
	
		<linearGradient id="SVGID_16_" gradientUnits="userSpaceOnUse" x1="178.8008" y1="-1166.7068" x2="190.5766" y2="-1210.9541" gradientTransform="matrix(1 0 0 -1 0 -866.3)">
		<stop  offset="0" style="stop-color:#AB603E"/>
		<stop  offset="1" style="stop-color:#F8AD84;stop-opacity:0"/>
	</linearGradient>
	<path class="st30" d="M200.8,335c-8.1,7.4-21.2,3.7-26.4,0.9c0.5-2.2,2.6-12,2.9-13.2c3.2-10-0.9-11.5-0.9-11.5l0.5-23.4l8.5-4.5
		c0,0,12.1,29.6,13.7,43.6C199.1,326.9,200.7,334.8,200.8,335z"/>
	<path class="st0" d="M342.6,361.9c-1.6-2.7-3.2-6.8,1.7-11.8c4.9-4.9,14.6-10.5,24-4.7c11.6,7,26.1,21.5,29.3,26.7
		c3.2,5.1-9.4,11.2-23.8,7.4C359.5,375.6,346.1,367.9,342.6,361.9z"/>
	
		<linearGradient id="SVGID_17_" gradientUnits="userSpaceOnUse" x1="341.1124" y1="-1228.209" x2="398.3747" y2="-1228.209" gradientTransform="matrix(1 0 0 -1 0 -866.3)">
		<stop  offset="0" style="stop-color:#E89166"/>
		<stop  offset="1" style="stop-color:#F8AD84;stop-opacity:0"/>
	</linearGradient>
	<path class="st31" d="M342.7,362c-1.6-2.7-3.2-6.8,1.7-11.8c4.9-4.9,14.6-10.5,24-4.7c11.6,7,26.1,21.5,29.3,26.7
		c3.2,5.1-9.4,11.2-23.8,7.4C359.7,375.8,346.2,367.9,342.7,362z"/>
	<g id="XMLID_49_">
		<g>
			
				<linearGradient id="SVGID_18_" gradientUnits="userSpaceOnUse" x1="124.8812" y1="-1305.8394" x2="293" y2="-1305.8394" gradientTransform="matrix(1 0 0 -1 0 -866.3)">
				<stop  offset="6.216216e-02" style="stop-color:#51256E"/>
				<stop  offset="1" style="stop-color:#78367F"/>
			</linearGradient>
			<path class="st32" d="M293,466.1l-25,24.4c0,0-6.2-4.6-29-9.8c-25.5-5.8-82.4-25.9-97.6-41.2c-15.3-15.3-21.3-34.7-12.3-43.6
				c13.5-13.5,38.6-4.9,49.8-1.2C189.9,398.4,293,466.1,293,466.1z"/>
		</g>
	</g>
	<g id="XMLID_44_">
		<g>
			<path class="st33" d="M182.2,269.9l-0.5-5.1c16.6-3.9,41.4,0.2,41.4,0.2l-7.7,54c-14.7,3.8-28.2-0.9-28.2-0.9l-3.1-30
				c-1.8,1.5-5.4,1.6-5.4,1.6c-15.9-1.2-11.1-16-11.1-16s2.3-4.3,8.3-4.8C178.8,268.7,180.9,269.2,182.2,269.9z M180.3,282.9
				c2.4-1,3.3-5.7,0.5-7.4c-2.9-1.8-4.4-0.6-4.4-0.6s-6.7,2.9,1,8.6C177.5,283.4,177.9,283.8,180.3,282.9z"/>
		</g>
	</g>
	<g id="XMLID_43_" class="st34">
		<g>
			
				<linearGradient id="SVGID_19_" gradientUnits="userSpaceOnUse" x1="217.173" y1="-1158.9735" x2="186.3572" y2="-1157.1429" gradientTransform="matrix(1 0 0 -1 0 -866.3)">
				<stop  offset="0" style="stop-color:#BFA2AC"/>
				<stop  offset="1" style="stop-color:#FFFFFF;stop-opacity:0.1"/>
			</linearGradient>
			<path class="st35" d="M182.2,269.9l-0.5-5.1c16.6-3.9,41.4,0.2,41.4,0.2l-7.7,54c-14.7,3.8-28.2-0.9-28.2-0.9l-3.1-30
				c-1.8,1.5-5.4,1.6-5.4,1.6c-15.9-1.2-11.1-16-11.1-16s2.3-4.3,8.3-4.8C178.8,268.7,180.9,269.2,182.2,269.9z M180.3,282.9
				c2.4-1,3.3-5.7,0.5-7.4c-2.9-1.8-4.4-0.6-4.4-0.6s-6.7,2.9,1,8.6C177.5,283.4,177.9,283.8,180.3,282.9z"/>
		</g>
	</g>
	<g id="XMLID_42_" class="st36">
		
			<linearGradient id="SVGID_20_" gradientUnits="userSpaceOnUse" x1="184.1264" y1="-1160.8059" x2="197.2365" y2="-1158.3423" gradientTransform="matrix(1 0 0 -1 0 -866.3)">
			<stop  offset="0" style="stop-color:#BFA2AC"/>
			<stop  offset="1" style="stop-color:#FFFFFF;stop-opacity:0.1"/>
		</linearGradient>
		<path class="st37" d="M202,308.8c-8.8-4.9-7.6-37.6-8.5-45.5c-4.3,0.5-9.8,0.8-11.9,1.4l0.5,5.1c-1.4-0.7-3.4-1.3-6.5-1
			c-6,0.5-8.3,4.8-8.3,4.8s-4.7,14.8,11.1,16c0,0,3.7-0.2,5.4-1.6l3.1,30c0,0,13.5,4.7,28.2,0.9l1.2-8.2
			C212.3,311.5,206.9,311.6,202,308.8z M180.3,282.6c-2.4,1-2.8,0.5-2.8,0.5c-7.7-5.6-1-8.6-1-8.6s1.5-1.3,4.4,0.6
			C183.6,277,182.7,281.7,180.3,282.6z"/>
	</g>
	<path class="st38" d="M229.5,374.7c0,0-1.4,3,8.6,4.4s16.4,3.7,21.4,3.7c4.8,0-2.3,1.2-9.2,0s-13.3-0.8-19.7-3.3
		C230.4,379.5,228.3,377.5,229.5,374.7z"/>
	<path class="st38" d="M333.7,368.6c0,0,0.5,3.6-2.2,5s-18.6,8.5-27.2,9.7s-18.5,3-18.5,3s4.7,0,9.9-0.5c5.2-0.5,17.4-2.8,21.8-3.8
		c4.5-1.1,15-6,16.1-7.1C334.7,373.6,334.2,370.2,333.7,368.6z"/>
	
		<linearGradient id="SVGID_21_" gradientUnits="userSpaceOnUse" x1="362.1129" y1="-1235.6349" x2="357.6886" y2="-1225.9479" gradientTransform="matrix(1 0 0 -1 0 -866.3)">
		<stop  offset="0" style="stop-color:#E89166"/>
		<stop  offset="1" style="stop-color:#F8AD84;stop-opacity:0"/>
	</linearGradient>
	<path class="st39" d="M362.6,374.3c0,0,4.7-7.7,5.7-10.6s2.9-5,2.9-5s-6.9,0.8-12.9,0.4c-5.8-0.5-12.9,4.9-11.6,7
		C347.9,368,361.6,374.3,362.6,374.3z"/>
	<path class="st38" d="M330.7,362.6c0,0-1.2,3.1-4.4,4.9c-3.1,1.8-7.2,3.3-7.2,3.3s3.3-0.2,5.5-1s5.1-3.1,5.6-3.8
		C330.7,365.2,331.4,363.9,330.7,362.6z"/>
	
		<linearGradient id="SVGID_22_" gradientUnits="userSpaceOnUse" x1="315.2583" y1="-1274.6906" x2="321.9347" y2="-1283.8707" gradientTransform="matrix(1 0 0 -1 0 -866.3)">
		<stop  offset="0" style="stop-color:#FFFFFF"/>
		<stop  offset="1" style="stop-color:#C4C3C4"/>
	</linearGradient>
	<path class="st40" d="M361.6,373.3c0,0-9.8-10.7-13.7-11.4c0,0,1.4,11.1-2.3,19.2c-3.7,8-13.5,14.7-24.7,18.5
		c-11.1,3.7-39.6,22-43.9,38c-4.4,15.9-0.8,15.7-0.8,15.7s13.2-14.2,30.4-25.7c17.3-11.4,57.8-40.4,57.8-40.4S368,379.6,361.6,373.3
		z"/>
	<g id="XMLID_41_">
		<g>
			<polygon class="st41" points="368,386.3 369.6,385.3 371.7,387.1 275.9,449.1 275,448 276.1,447.2 			"/>
			<polygon class="st42" points="367.3,385.3 368,386.3 276.1,447.2 275.2,446.5 			"/>
			<path class="st43" d="M286.8,445c20.4-13.2,78.6-51.2,87.6-56.7c0.8-0.5,1.3-0.7,1.3-0.7c0,0.5,1.3,1.3,1.5,1.4L286.8,445z"/>
			<polygon class="st42" points="275.2,446.5 274.1,447.2 200.5,392.4 202,389 			"/>
			<path class="st44" d="M277,453.2l-11-7.3l9.1,5.5l0.1,0.1l0.7,0.5l10.8-6.7c0.1,0,0.1-0.1,0.2-0.1l90.4-56.2l2.2-1.4l3.2,3.1
				c-4.8,2-92.5,56.4-104.9,64L277,453.2z"/>
			<polygon class="st43" points="275.9,451.9 275,451.3 274.8,451.2 			"/>
			<polygon class="st43" points="275,448 274.1,447.2 275.2,446.5 276.1,447.2 			"/>
			<polygon class="st43" points="274.8,451.2 275,451.3 266,445.9 260.6,442.4 			"/>
			<path class="st42" d="M274.8,451.2l-0.6-0.5l0.8-1.1l0.8-0.5l95.8-61.9l0.8-0.5l1.9,1.7c-9,5.5-67.2,43.5-87.6,56.7
				c-0.1,0-0.1,0.1-0.2,0.1l-10.8,6.7L274.8,451.2z"/>
			<polygon class="st41" points="275,449.6 197,393.2 198.9,391.2 200.5,392.4 274.1,447.2 275,448 275.9,449.1 			"/>
			<polygon class="st42" points="197,393.2 275,449.6 274.2,450.8 194.2,395.2 195.9,392.4 			"/>
			<polygon class="st41" points="260.6,442.4 266,445.9 186.6,398.2 187.7,397.1 189.3,397.9 			"/>
			<polygon class="st42" points="190.6,396 260.6,442.4 189.3,397.9 189,397.7 			"/>
			<polygon class="st41" points="274.2,450.8 274.8,451.2 260.6,442.4 190.6,396 192.5,394 194.2,395.2 			"/>
			<path class="st44" d="M277,453.2l0.8,1.6c-0.9,0.5-1.5,0.9-1.5,0.9l-92-56.4l1.2-1.6l1,0.6l79.4,47.7L277,453.2z"/>
		</g>
	</g>
	<path class="st45" d="M380.3,363.3c0,0-5.1,9.4-6.7,11.8c-1.6,2.5-7.8,9.5-11.2,10.4c-3.5,0.9-5.4-1.4-3.7-4.8
		c1.6-3.5,6.2-10,8.1-14.1c1.9-4,3.5-9.6,8.1-10.4c4.7-0.8,6.1,0.9,6.6,2C382.4,360.1,380.3,363.3,380.3,363.3z"/>
	
		<linearGradient id="SVGID_23_" gradientUnits="userSpaceOnUse" x1="369.0719" y1="-1248.0461" x2="371.017" y2="-1223.1036" gradientTransform="matrix(1 0 0 -1 0 -866.3)">
		<stop  offset="0" style="stop-color:#E89166"/>
		<stop  offset="1" style="stop-color:#F8AD84;stop-opacity:0"/>
	</linearGradient>
	<path class="st46" d="M380.3,363.3c0,0-5.1,9.4-6.7,11.8c-1.6,2.5-7.8,9.5-11.2,10.4c-3.5,0.9-5.4-1.4-3.7-4.8
		c1.6-3.5,6.2-10,8.1-14.1c1.9-4,3.5-9.6,8.1-10.4c4.7-0.8,6.1,0.9,6.6,2C382.4,360.1,380.3,363.3,380.3,363.3z"/>
	<path class="st45" d="M391.2,366c0,0,2.7-0.7,4.5,2.2c1.7,2.9,0.3,5.7-0.5,6.3c-0.7,0.7-14.5,9.8-17.4,9.3
		C374.8,383.5,388.2,366.4,391.2,366z"/>
	
		<linearGradient id="SVGID_24_" gradientUnits="userSpaceOnUse" x1="373.9193" y1="-1253.48" x2="402.6402" y2="-1227.8555" gradientTransform="matrix(1 0 0 -1 0 -866.3)">
		<stop  offset="0" style="stop-color:#DE865B"/>
		<stop  offset="1" style="stop-color:#F8AD84;stop-opacity:0"/>
	</linearGradient>
	<path class="st47" d="M391.2,366c0,0,2.7-0.7,4.5,2.2c1.7,2.9,0.3,5.7-0.5,6.3c-0.7,0.7-17.3,12.4-20.2,12
		C372.1,386.1,388.2,366.4,391.2,366z"/>
	<path class="st45" d="M366.6,383c0,0-2.7,4.8-1.1,6.5c1.6,1.6,2.8,1.6,6.9-0.4c3.3-1.6,7-9,10-13s8.4-10,8.4-12.9s-0.5-5.3-3.3-5.8
		s-5.8,1.4-5.8,1.4"/>
	
		<linearGradient id="SVGID_25_" gradientUnits="userSpaceOnUse" x1="368.694" y1="-1240.5017" x2="394.5417" y2="-1240.5017" gradientTransform="matrix(1 0 0 -1 0 -866.3)">
		<stop  offset="0" style="stop-color:#E89166"/>
		<stop  offset="1" style="stop-color:#F8AD84;stop-opacity:0"/>
	</linearGradient>
	<path class="st48" d="M381.7,358.9c0,0,3-1.8,5.8-1.4c2.8,0.5,3.3,3,3.3,5.9s-5.2,8.7-8.2,12.6s-6.8,11.1-10.2,13.1
		c-3.2,1.8-5.2,2.6-6.9,1s1.1-7.1,1.1-7.1L381.7,358.9z"/>
	<path class="st45" d="M394.9,382.5c0,0-3.2,2.6-6.6,3.8c-3.4,1.3-8.9,2.8-8.9-0.4s4.2-6.2,7.3-7.4c3.1-1.2,6.6-5.3,9.3-6.5
		c2.7-1.2,5.8-0.5,6.9,1.9s-0.7,4.9-2.7,5.8C398.3,380.7,394.9,382.5,394.9,382.5z"/>
	
		<linearGradient id="SVGID_26_" gradientUnits="userSpaceOnUse" x1="388.8084" y1="-1243.5093" x2="392.9274" y2="-1248.6963" gradientTransform="matrix(1 0 0 -1 0 -866.3)">
		<stop  offset="0" style="stop-color:#E89166"/>
		<stop  offset="1" style="stop-color:#F8AD84;stop-opacity:0"/>
	</linearGradient>
	<path class="st49" d="M394.9,382.5c0,0-3.2,2.6-6.6,3.8c-3.4,1.3-8.9,2.8-8.9-0.4s4.2-6.2,7.3-7.4c3.1-1.2,6.6-5.3,9.3-6.5
		c2.7-1.2,5.8-0.5,6.9,1.9s-0.7,4.9-2.7,5.8C398.3,380.7,394.9,382.5,394.9,382.5z"/>
	<path class="st50" d="M361.1,381.1c0.9-0.3,2,0.5,2.7,1.8c0.5,0.8-2.7,3.7-3.2,3.8c-0.3,0.1-2.9-1.6-2.4-2.5
		C358.9,383.1,360.1,381.5,361.1,381.1z"/>
	<path class="st50" d="M368,385.9c0.9-0.3,2.1,0.5,2.7,1.9c0.5,0.9-2.8,3.7-3.3,3.9c-0.3,0.2-3-1.6-2.5-2.6
		C365.8,388,366.9,386.2,368,385.9z"/>
	<path class="st50" d="M381.9,383.2c0.8-0.1,1.7,0.7,2.1,2.1c0.2,0.8-3.1,2.7-3.6,2.8c-0.3,0.1-2.3-1.9-1.6-2.6
		C379.6,384.6,380.9,383.3,381.9,383.2z"/>
	<path class="st0" d="M172.4,280.6c0,0-6.8,2.4-10.7,8.5l-7,6.3c0,0-5.6-2.6-4-5.8c1.6-3.2,6.7-9.5,10.5-12.5s6-3.5,10.4-3.5
		s7.9,2.2,9,4.4c1.2,2.2-1.2,4.1-4.1,3.8s-5.5-1.9-5.5-1.9"/>
	<path class="st0" d="M178.6,280.6c2.2,1.6,1.8,3.7,0.7,4.8c-1.1,1.1-15.8,16-19.5,17.7c-3.7,1.6-6.9-1.8-6.9-4.4s2.2-3.7,3.2-4.7
		C161.1,289.7,171.2,275.2,178.6,280.6z"/>
	<path class="st0" d="M176.9,287.9c1.3-1.1,3.2-0.3,5.1,1.6c1.9,1.9,0.9,5-0.4,6.3c-1.4,1.4-10.4,10-11.6,11.2c-1.2,1.2-6.2,2.7-8,0
		c-1.9-2.7,0-5.5,0-5.5L176.9,287.9z"/>
	<path class="st0" d="M182.5,294.8c3.3,0.6,3.6,4.2,2.1,5.8c-1.5,1.5-6.9,11.7-9.2,12.1c-2.4,0.4-4.4-0.5-4.8-2.1
		c-0.5-1.6,1.3-4.9,1.3-4.9S180.5,294.4,182.5,294.8z"/>
	
		<linearGradient id="SVGID_27_" gradientUnits="userSpaceOnUse" x1="150.2724" y1="-1150.8" x2="180.8843" y2="-1150.8" gradientTransform="matrix(1 0 0 -1 0 -866.3)">
		<stop  offset="0" style="stop-color:#E89166"/>
		<stop  offset="1" style="stop-color:#F8AD84;stop-opacity:0"/>
	</linearGradient>
	<path class="st51" d="M172.4,280.6c0,0-5.8,2.6-10.7,8.5l-7,6.3c0,0-5.6-2.6-4-5.8c1.6-3.2,6.7-9.5,10.5-12.5s6-3.5,10.4-3.5
		s7.9,2.2,9,4.4c1.2,2.2-1.2,4.1-4.1,3.8s-5.5-1.9-5.5-1.9"/>
	
		<linearGradient id="SVGID_28_" gradientUnits="userSpaceOnUse" x1="159.7299" y1="-1155.5164" x2="173.9173" y2="-1160.0358" gradientTransform="matrix(1 0 0 -1 0 -866.3)">
		<stop  offset="0" style="stop-color:#E89166"/>
		<stop  offset="1" style="stop-color:#F8AD84;stop-opacity:0"/>
	</linearGradient>
	<path class="st52" d="M178.8,280.6c2.2,1.6,1.8,3.7,0.7,4.8c-1.1,1.1-15.8,16-19.5,17.7c-3.7,1.6-6.9-1.8-6.9-4.4s2.1-4,3.2-4.9
		C161.1,289.5,171.4,275.2,178.8,280.6z"/>
	
		<linearGradient id="SVGID_29_" gradientUnits="userSpaceOnUse" x1="161.1782" y1="-1164.2571" x2="183.1479" y2="-1164.2571" gradientTransform="matrix(1 0 0 -1 0 -866.3)">
		<stop  offset="0" style="stop-color:#E89166"/>
		<stop  offset="1" style="stop-color:#F8AD84;stop-opacity:0"/>
	</linearGradient>
	<path class="st53" d="M176.9,287.9c1.3-1.1,3.2-0.3,5.1,1.6c1.9,1.9,0.9,5-0.4,6.3c-1.4,1.4-10.4,10-11.6,11.2
		c-1.2,1.2-6.2,2.7-8,0c-1.9-2.7,0-5.5,0-5.5L176.9,287.9z"/>
	
		<linearGradient id="SVGID_30_" gradientUnits="userSpaceOnUse" x1="170.3814" y1="-1170.0922" x2="185.4251" y2="-1170.0922" gradientTransform="matrix(1 0 0 -1 0 -866.3)">
		<stop  offset="0" style="stop-color:#E89166"/>
		<stop  offset="1" style="stop-color:#F8AD84;stop-opacity:0"/>
	</linearGradient>
	<path class="st54" d="M182.5,294.8c3.3,0.6,3.6,4.2,2.1,5.8c-1.5,1.5-6.9,11.7-9.2,12.1c-2.4,0.4-4.4-0.5-4.8-2.1
		c-0.5-1.6,1.3-4.9,1.3-4.9S180.5,294.4,182.5,294.8z"/>
	
		<linearGradient id="SVGID_31_" gradientUnits="userSpaceOnUse" x1="168.7302" y1="-1142.5347" x2="176.7392" y2="-1143.3737" gradientTransform="matrix(1 0 0 -1 0 -866.3)">
		<stop  offset="0" style="stop-color:#FFB38C"/>
		<stop  offset="1" style="stop-color:#F8AD84;stop-opacity:0"/>
	</linearGradient>
	<path class="st55" d="M165.6,274.3c0,0-2.6,3.8,1.7,4.7c4.3,0.8,10-0.2,11.2,0.5c1.3,0.5,1.6-0.3,1.6-1.1c0-0.8-2.7-3.4-4.9-4.1
		C173,273.5,169.4,273.1,165.6,274.3z"/>
	
		<linearGradient id="SVGID_32_" gradientUnits="userSpaceOnUse" x1="171.3879" y1="-1149.5433" x2="177.5914" y2="-1150.1932" gradientTransform="matrix(1 0 0 -1 0 -866.3)">
		<stop  offset="0" style="stop-color:#FFB38C"/>
		<stop  offset="1" style="stop-color:#F8AD84;stop-opacity:0"/>
	</linearGradient>
	<path class="st56" d="M178.3,280.5c0,0-5.6-1.6-8.7,0.9c-3.1,2.6,0.2,4.8,3.2,5.6c3.1,0.7,7-1.6,7.3-2.4
		C180.5,283.8,180.7,282,178.3,280.5z"/>
	<path class="st57" d="M175.9,327.8c5.1,2.8,15.2,6.7,23.3-0.7"/>
	<path class="st50" d="M181.1,278.5c0,0-0.7-1.8-1.2-1.4c-0.5,0.5-0.3,2.4,0,2.9s0.7,0.5,1.1,0.2C181.3,280,181.1,279.2,181.1,278.5
		z"/>
	<polygon class="st41" points="203.2,389.9 206.3,386.6 275.4,445.3 275.2,446.6 	"/>
	<polygon class="st42" points="207.4,387.6 209.6,385.3 275.5,444.8 275.4,445.3 	"/>
	<path class="st58" d="M175.7,289.1c0,0,3.5-3.3,3.9-3.9c0.5-0.6,0.8-1.8,0.5-2.4c0,0,0.9-0.4,1.4-1c0,0,0.5,3-1.1,5.2
		c0,0,2.5,1.3,2.7,1.5l-1.6,0.6c0,0-0.8-0.9-2.4-1.5c-1.6-0.5-3.3,1.6-3.3,1.6L175.7,289.1z"/>
	<path class="st58" d="M176.5,274.6c-3.7-1.7-9.2-0.7-9.2-0.7h-0.1l0.4-0.5c0,0,3.4-0.6,6.1-0.1s3,1.2,3,1.2L176.5,274.6z"/>
	<path class="st58" d="M361.8,385.8c0,0,1.4-0.3,2.3-0.9s1.3-0.9,1.3-0.9s-0.2,1.4-0.4,1.7c-0.1,0.4-3.3,0.5-3.3,0.5
		s-1.3,0.5-1.4,0.5C360.5,386.7,361.4,386.3,361.8,385.8z"/>
	<path class="st58" d="M367.6,391.7l1-0.8c0,0,1.8-0.5,2.7-1.1c0.9-0.5,2.7-1.8,2.7-1.8l0.5,0.5l-4.8,2.8L367.6,391.7z"/>
	
		<linearGradient id="SVGID_33_" gradientUnits="userSpaceOnUse" x1="161.9601" y1="-1154.8982" x2="160.105" y2="-1152.77" gradientTransform="matrix(1 0 0 -1 0 -866.3)">
		<stop  offset="0" style="stop-color:#AB603E"/>
		<stop  offset="1" style="stop-color:#F8AD84;stop-opacity:0"/>
	</linearGradient>
	<path class="st59" d="M154.6,295.4l10.3-10.3c0,0,3.7-3.2,4.4-3.6s-1.8,0.2-3.2,1.6S153.8,295,153.8,295L154.6,295.4z"/>
	
		<linearGradient id="SVGID_34_" gradientUnits="userSpaceOnUse" x1="169.1228" y1="-1161.1614" x2="170.0121" y2="-1162.1155" gradientTransform="matrix(1 0 0 -1 0 -866.3)">
		<stop  offset="0" style="stop-color:#AB603E"/>
		<stop  offset="1" style="stop-color:#F8AD84;stop-opacity:0"/>
	</linearGradient>
	<path class="st60" d="M162.1,301.6l13-11.9l1.8-1.6c0,0,1.4-0.9,1.6-0.6c0.3,0.3-16.2,14.9-16.5,15.3c-0.4,0.4-0.6,1.2-0.6,1.2
		S161.5,302.2,162.1,301.6z"/>
	
		<linearGradient id="SVGID_35_" gradientUnits="userSpaceOnUse" x1="176.0328" y1="-1166.9855" x2="177.2866" y2="-1168.1404" gradientTransform="matrix(1 0 0 -1 0 -866.3)">
		<stop  offset="0" style="stop-color:#AB603E"/>
		<stop  offset="1" style="stop-color:#F8AD84;stop-opacity:0"/>
	</linearGradient>
	<path class="st61" d="M171.7,305.6c0,0,6.4-7.7,7.9-9s2.6-2.1,2.9-1.8c0.3,0.3,0.7,0.6-0.5,1.9c-1.3,1.3-11.1,11.1-11.1,11.1
		L171.7,305.6z"/>
	
		<linearGradient id="SVGID_36_" gradientUnits="userSpaceOnUse" x1="373.6951" y1="-1238.4366" x2="371.8422" y2="-1237.1298" gradientTransform="matrix(1 0 0 -1 0 -866.3)">
		<stop  offset="0" style="stop-color:#AB603E"/>
		<stop  offset="1" style="stop-color:#F8AD84;stop-opacity:0"/>
	</linearGradient>
	<path class="st62" d="M366.6,383l15.2-24.1c0,0,0-0.5-0.4-1.1c-0.4-0.5-17.5,27.2-17.5,27.2S366.1,383.5,366.6,383z"/>
	
		<linearGradient id="SVGID_37_" gradientUnits="userSpaceOnUse" x1="324.1399" y1="-1441.4734" x2="321.6042" y2="-1432.3058" gradientTransform="matrix(0.9976 -6.914298e-02 -6.914298e-02 -0.9976 -96.3118 -928.8297)">
		<stop  offset="0" style="stop-color:#59BAC2;stop-opacity:0"/>
		<stop  offset="1" style="stop-color:#387E85"/>
	</linearGradient>
	<path class="st63" d="M295.1,491.6c0,0-1.5,2.9-0.2,2.8c1.7-0.2,3.3-2.6,6.8-3.3c0.4-0.1,0.4-0.9,1.6-1.2c9.3-2.2,23.5-2.4,32-5.2
		c14.6-4.8,21.6-11.3,21.6-11.3l-14.3-5.5l-46.1,11.2C296.4,479.1,295.7,490.9,295.1,491.6z"/>
	
		<linearGradient id="SVGID_38_" gradientUnits="userSpaceOnUse" x1="382.9354" y1="-1241.5914" x2="385.3275" y2="-1243.1449" gradientTransform="matrix(1 0 0 -1 0 -866.3)">
		<stop  offset="0" style="stop-color:#AB603E"/>
		<stop  offset="1" style="stop-color:#F8AD84;stop-opacity:0"/>
	</linearGradient>
	<path class="st64" d="M375.2,386.6l6.6-9.4c0,0,6.3-8.1,7-9.2c0.7-1.2,1.3-1.9,1.4-2.3c0.2-0.4,0.5-1.7,0.5-1.7s1.7,1.7,2.1,2.3
		c0.4,0.5-13.8,19-14.5,19.3S375.7,387,375.2,386.6z"/>
	
		<linearGradient id="SVGID_39_" gradientUnits="userSpaceOnUse" x1="251.1578" y1="-1341.3989" x2="237.7506" y2="-1322.572" gradientTransform="matrix(1 0 0 -1 0 -866.3)">
		<stop  offset="0" style="stop-color:#542263"/>
		<stop  offset="1" style="stop-color:#78367F;stop-opacity:0"/>
	</linearGradient>
	<path class="st65" d="M276.3,455.5l-35.8,25.6c0,0-20.9-4.1-29.4-8.3c-8.5-4.1,18.5-8.7,29.2-12.9c10.8-4.2,18.8-14.1,20.7-13.2
		C263,447.4,276.3,455.5,276.3,455.5z"/>
	<path class="st19" d="M233.9,138c0,0-1.7-4.8-4-4.1s-2.2,4.6-2.2,4.6s0,1.3,2.2,1.7c3.2,0.6,4.7,7.9,4.7,10.1
		S234.7,140.4,233.9,138z"/>
	
		<linearGradient id="SVGID_40_" gradientUnits="userSpaceOnUse" x1="199.3015" y1="-1079.1196" x2="197.4228" y2="-1145.0847" gradientTransform="matrix(1 0 0 -1 0 -866.3)">
		<stop  offset="0" style="stop-color:#FFFFFF"/>
		<stop  offset="1" style="stop-color:#FFFFFF;stop-opacity:0"/>
	</linearGradient>
	<path class="st66" d="M195.6,263.4c0,0-12.5-5.2-8.6-17.4s-4.6-4.8-4.6-2.3s-2.1-8.6,5.2-6.7c7.3,1.9,4.4,5.7,5.8,8.8
		c1.5,3.1,5.2-4.6,3.4-9c-1.9-4.4-7.8-10.9-1.6-20c6-9.2,9-9.8,9-9.8s-5,7.3-3.4,10.6s8.8,13.6,7.9,20c-0.8,6.5-7.5,14.2-4.6,17.1
		c2.9,2.9,4.7-0.6,4.7-3.6c0-2.9,1.6-9.4,1.6-9.4s-0.5,6.4,2.3,9.2s1.7,9.3,0,11.1C210.9,263.9,195.6,263.4,195.6,263.4z"/>
	
		<linearGradient id="SVGID_41_" gradientUnits="userSpaceOnUse" x1="350.0092" y1="-1340.051" x2="319.3458" y2="-1290.0812" gradientTransform="matrix(1 0 0 -1 0 -866.3)">
		<stop  offset="6.216216e-02" style="stop-color:#51256E"/>
		<stop  offset="1" style="stop-color:#78367F"/>
	</linearGradient>
	<path class="st67" d="M424.5,419.6c-7.2,15.5-30.8,27.8-59.5,43c-21.5,11.3-67.2,24.4-67.2,24.4c-1.6,0.5-56.4,18.4-56.9,17.1
		c-6.4-15.3-4.7-24.2-4-24.6c3.4-2.3,121-83.6,149.3-94.1c28.4-10.6,35-1,39.2,3.5C430.3,394,430.8,405.9,424.5,419.6z"/>
	<polygon class="st68" points="220.9,412.9 447.4,121 473.5,144.5 358.4,396.9 275.2,458.9 	"/>
</g>
<circle class="st57" cx="262.8" cy="261.8" r="260.9"/>
<rect class="st57" width="525" height="525"/>
</svg>
