<?xml version="1.0" encoding="utf-8"?>
<!-- Generator: Adobe Illustrator 22.0.1, SVG Export Plug-In . SVG Version: 6.00 Build 0)  -->
<svg version="1.1" id="Layer_1" xmlns="http://www.w3.org/2000/svg" xmlns:xlink="http://www.w3.org/1999/xlink" x="0px" y="0px"
	 viewBox="0 0 525 579" style="enable-background:new 0 0 525 579;" xml:space="preserve">
<style type="text/css">
	.st0{fill:#F5E1ED;}
	.st1{clip-path:url(#SVGID_2_);}
	.st2{fill:none;stroke:#E0BDD4;stroke-width:2;stroke-miterlimit:10;}
	.st3{clip-path:url(#SVGID_4_);}
	.st4{clip-path:url(#SVGID_6_);}
	.st5{clip-path:url(#SVGID_8_);}
	.st6{clip-path:url(#SVGID_10_);}
	.st7{clip-path:url(#SVGID_12_);}
	.st8{fill:none;}
</style>
<circle class="st0" cx="262.6" cy="289.6" r="262.4"/>
<g>
	<g>
		<g>
			<g>
				<defs>
					<circle id="SVGID_1_" cx="263.5" cy="289.6" r="262.4"/>
				</defs>
				<clipPath id="SVGID_2_">
					<use xlink:href="#SVGID_1_"  style="overflow:visible;"/>
				</clipPath>
				<g class="st1">
					<rect x="270.8" y="117.7" class="st2" width="95.1" height="355.1"/>
					<rect x="281.2" y="145.9" class="st2" width="72.2" height="19.3"/>
					<line class="st2" x1="293.7" y1="198.6" x2="340.9" y2="198.6"/>
					<line class="st2" x1="293.7" y1="212.3" x2="340.9" y2="212.3"/>
					<line class="st2" x1="293.7" y1="226" x2="340.9" y2="226"/>
				</g>
			</g>
		</g>
	</g>
	<g>
		<g>
			<g>
				<defs>
					<circle id="SVGID_3_" cx="263.5" cy="289.6" r="262.4"/>
				</defs>
				<clipPath id="SVGID_4_">
					<use xlink:href="#SVGID_3_"  style="overflow:visible;"/>
				</clipPath>
				<g class="st3">
					<rect x="365.8" y="117.7" class="st2" width="95.1" height="355.1"/>
					<rect x="376.2" y="145.9" class="st2" width="72.2" height="19.3"/>
					<line class="st2" x1="388.7" y1="198.6" x2="435.9" y2="198.6"/>
					<line class="st2" x1="388.7" y1="212.3" x2="435.9" y2="212.3"/>
					<line class="st2" x1="388.7" y1="226" x2="435.9" y2="226"/>
				</g>
			</g>
		</g>
	</g>
	<g>
		<g>
			<g>
				<defs>
					<circle id="SVGID_5_" cx="263.5" cy="289.6" r="262.4"/>
				</defs>
				<clipPath id="SVGID_6_">
					<use xlink:href="#SVGID_5_"  style="overflow:visible;"/>
				</clipPath>
				<g class="st4">
					<rect x="460.9" y="117.7" class="st2" width="95.1" height="355.1"/>
					<rect x="471.2" y="145.9" class="st2" width="72.2" height="19.3"/>
					<line class="st2" x1="483.7" y1="198.6" x2="531" y2="198.6"/>
					<line class="st2" x1="483.7" y1="212.3" x2="531" y2="212.3"/>
					<line class="st2" x1="483.7" y1="226" x2="531" y2="226"/>
				</g>
			</g>
		</g>
	</g>
	<g>
		<g>
			<g>
				<defs>
					<circle id="SVGID_7_" cx="263.5" cy="289.6" r="262.4"/>
				</defs>
				<clipPath id="SVGID_8_">
					<use xlink:href="#SVGID_7_"  style="overflow:visible;"/>
				</clipPath>
				<g class="st5">
					<rect x="-14.2" y="117.7" class="st2" width="95.1" height="355.1"/>
					<rect x="-3.9" y="145.9" class="st2" width="72.2" height="19.3"/>
					<line class="st2" x1="8.6" y1="198.6" x2="55.8" y2="198.6"/>
					<line class="st2" x1="8.6" y1="212.3" x2="55.8" y2="212.3"/>
					<line class="st2" x1="8.6" y1="226" x2="55.8" y2="226"/>
				</g>
			</g>
		</g>
	</g>
	<g>
		<g>
			<g>
				<defs>
					<circle id="SVGID_9_" cx="263.5" cy="289.6" r="262.4"/>
				</defs>
				<clipPath id="SVGID_10_">
					<use xlink:href="#SVGID_9_"  style="overflow:visible;"/>
				</clipPath>
				<g class="st6">
					<rect x="80.8" y="117.7" class="st2" width="95.1" height="355.1"/>
					<rect x="91.2" y="145.9" class="st2" width="72.2" height="19.3"/>
					<line class="st2" x1="103.7" y1="198.6" x2="150.9" y2="198.6"/>
					<line class="st2" x1="103.7" y1="212.3" x2="150.9" y2="212.3"/>
					<line class="st2" x1="103.7" y1="226" x2="150.9" y2="226"/>
				</g>
			</g>
		</g>
	</g>
	<g>
		<g>
			<g>
				<defs>
					<circle id="SVGID_11_" cx="263.5" cy="289.6" r="262.4"/>
				</defs>
				<clipPath id="SVGID_12_">
					<use xlink:href="#SVGID_11_"  style="overflow:visible;"/>
				</clipPath>
				<g class="st7">
					<rect x="175.8" y="117.7" class="st2" width="95.1" height="355.1"/>
					<rect x="186.1" y="145.9" class="st2" width="72.2" height="19.3"/>
					<line class="st2" x1="198.6" y1="198.6" x2="245.9" y2="198.6"/>
					<line class="st2" x1="198.6" y1="212.3" x2="245.9" y2="212.3"/>
					<line class="st2" x1="198.6" y1="226" x2="245.9" y2="226"/>
				</g>
			</g>
		</g>
	</g>
</g>
<path class="st2" d="M142.6,513L142.6,513c-4.2,0-7.7-3.4-7.7-7.7v-15.8c0-4.2,3.4-7.7,7.7-7.7l0,0c4.2,0,7.7,3.4,7.7,7.7v15.8
	C150.3,509.5,146.9,513,142.6,513z"/>
<path class="st2" d="M188.1,513L188.1,513c-4.2,0-7.7-3.4-7.7-7.7v-15.8c0-4.2,3.4-7.7,7.7-7.7l0,0c4.2,0,7.7,3.4,7.7,7.7v15.8
	C195.8,509.5,192.3,513,188.1,513z"/>
<path class="st2" d="M179.3,502.1h-27.9c-0.7,0-1.1-0.4-1.1-1.1v-7.3c0-0.7,0.4-1.1,1.1-1.1h27.9c0.6,0,1.1,0.4,1.1,1.1v7.3
	C180.4,501.7,179.9,502.1,179.3,502.1z"/>
<line class="st2" x1="138.3" y1="488.6" x2="138.3" y2="504.7"/>
<path class="st2" d="M184,488.2c0,0.3,0,16.9,0,16.9"/>
<rect class="st8" width="525" height="579"/>
</svg>
