<?xml version="1.0" encoding="utf-8"?>
<!-- Generator: Adobe Illustrator 22.0.1, SVG Export Plug-In . SVG Version: 6.00 Build 0)  -->
<svg version="1.1" id="Layer_1" xmlns="http://www.w3.org/2000/svg" xmlns:xlink="http://www.w3.org/1999/xlink" x="0px" y="0px"
	 viewBox="0 0 543 525" style="enable-background:new 0 0 543 525;" xml:space="preserve">
<style type="text/css">
	.st0{fill:#F5E1ED;}
	.st1{fill:none;stroke:#E0BDD4;stroke-width:2;stroke-linecap:round;stroke-linejoin:round;stroke-miterlimit:10;}
	.st2{fill:none;}
</style>
<circle class="st0" cx="280.9" cy="263.5" r="260.5"/>
<path class="st1" d="M65.2,121.2v150.3V321h88.7l0.7-49.5c0-62.6-43.5-108.9-43.5-108.9s78.6-40.5,85.5-143.3"/>
<path class="st1" d="M65.2,157.3c13.8,13.8,45.9,5.3,45.9,5.3s-25.8,15.6-45.9,1.2"/>
<path class="st1" d="M79.7,164.3c0,0,0.1-9.7,7.3-18.3c7.2-8.7,21-28.3,17.1-51.2s5,3.4,5,12.3s-8.2,32.3-18,42
	c-9.7,9.7-4.1,16.1-4.1,16.1"/>
<path class="st1" d="M95.1,165.2c0,0-0.7-6.6,7.6-12.9c4.6-3.5,21.2-11.3,24.2-19.7s0.9-13.4,3.2-13.4c2.3,0,3.8,8.8,1.5,15.8
	s-13.8,14.2-20.5,19s-8.6,6.9-8.6,10.1"/>
<path class="st1" d="M95,169.9c0,0,3.2,26.6,0,36.1s-8.7,24.6-5.9,31.9c0,0-4.9-5.1,0-19.9c4.9-14.8,2.4-48.1,2.4-48.1"/>
<path class="st1" d="M101.3,167c0,0,9.8,23.6,9.8,33.8s3.9,21.9,4.5,22.5s-1.3-12.2-0.8-20.5c0.9-15.2-9.8-37.2-9.8-37.2"/>
<path class="st1" d="M72.7,167.8c0,0,6.1,11.5,3.5,18.8s-2.1,17.3-2.1,17.3s2.6-12,5-16.3s-1.2-17.8-2-18.6"/>
<path class="st1" d="M366.4,19.3c0,0,1.6,84.2,64.4,141.3c0,0-29.4,81.2-29.4,129.7l0.9,30.6h83.2l-0.7-48.7V103.5"/>
<path class="st1" d="M484.8,160.6c-24.6,9.4-54,0-54,0s19.7,15.8,54,8.5"/>
<path class="st1" d="M446.7,163.9c0,0-31.7-46.3-31.7-102.5c0,0,6.4,46.8,25,70.5c0,0,15.2,29.2,22.2,33"/>
<path class="st1" d="M470.8,164.1c0,0-13-14.8-13-29.1s12.1,25.6,17.5,28.4"/>
<path class="st1" d="M465.3,81.4c3.6,21.3,9.1,48,19.5,76.8"/>
<path class="st1" d="M481.7,160.6c0,0-16.8-47.6-21.5-84"/>
<path class="st1" d="M438.6,165c0,0-17.4,41.8-13.1,50.6s14.8-50.6,14.8-50.6"/>
<path class="st1" d="M451.1,169.3c0,0-4,12-2,27.2s0.8-21.1,6.1-26.5"/>
<path class="st1" d="M464,171c0,0,6.9,48.9,0,71.3s5.2-1.1,5.9-7.8s2.4-52.2-1.1-63.4"/>
<polyline class="st1" points="284.6,3.8 284.6,165.8 428.8,165.8 424.1,180.4 284.6,180.4 284.6,321 270.5,321 270.5,180.4 
	124.7,180.4 113.9,165.8 270.5,165.8 270.5,4.2 "/>
<path class="st1" d="M357.4,65.4c-5,6.2-13.7,8.7-21.4,5.5c-9.4-3.9-13.9-14.7-10-24.1c1.5-3.7,4.2-6.6,7.3-8.6
	c-12.4-1.8-24.8,5-29.8,17c-5.9,14.3,0.9,30.7,15.2,36.6c14.3,5.9,30.7-0.9,36.6-15.2C356.8,73,357.5,69.1,357.4,65.4z"/>
<circle class="st1" cx="225.9" cy="88.3" r="2.7"/>
<circle class="st1" cx="323.2" cy="137.1" r="2.2"/>
<circle class="st1" cx="161" cy="138.6" r="3.6"/>
<circle class="st1" cx="222.5" cy="151.4" r="3.4"/>
<circle class="st1" cx="180.1" cy="203.9" r="3.5"/>
<circle class="st1" cx="343.9" cy="215.3" r="3.7"/>
<circle class="st1" cx="304.1" cy="197.4" r="2.9"/>
<circle class="st2" cx="280.9" cy="263.5" r="260.5"/>
<line class="st1" x1="27.8" y1="321" x2="533.5" y2="321"/>
<rect class="st2" width="543" height="525"/>
</svg>
