<?xml version="1.0" encoding="UTF-8"?> <!-- Generator: Adobe Illustrator 21.1.0, SVG Export Plug-In . SVG Version: 6.00 Build 0) --> <svg xmlns="http://www.w3.org/2000/svg" xmlns:xlink="http://www.w3.org/1999/xlink" id="Layer_1" x="0px" y="0px" viewBox="0 0 607.8 608" style="enable-background:new 0 0 607.8 608;" xml:space="preserve"> <style type="text/css"> .st0{fill:#F5E1ED;} .st1{fill:#E0BDD4;} .st2{fill:#51062A;} .st3{fill:none;stroke:#961E4C;stroke-width:2;stroke-miterlimit:10;} .st4{fill:#F8AD84;} .st5{fill:url(#SVGID_1_);} .st6{fill:#BA3175;} .st7{fill:url(#SVGID_2_);} .st8{fill:url(#SVGID_3_);} .st9{fill:url(#SVGID_4_);} .st10{fill:url(#SVGID_5_);} .st11{fill:#DD8C68;} .st12{fill:#DB7556;} .st13{fill:#E89972;} .st14{fill:none;} .st15{fill:url(#SVGID_6_);} .st16{fill:url(#SVGID_7_);} .st17{fill:#961E4C;} .st18{fill:url(#SVGID_8_);} .st19{opacity:0.65;fill:url(#SVGID_9_);enable-background:new ;} .st20{fill:url(#SVGID_10_);} .st21{fill:url(#SVGID_11_);} .st22{fill:url(#SVGID_12_);} .st23{fill:url(#SVGID_13_);} .st24{opacity:0.41;fill:url(#SVGID_14_);enable-background:new ;} .st25{fill:url(#SVGID_15_);} .st26{opacity:0.66;fill:url(#SVGID_16_);enable-background:new ;} .st27{opacity:0.57;fill:url(#SVGID_17_);enable-background:new ;} .st28{fill:#51175B;} .st29{opacity:0.41;fill:url(#SVGID_18_);enable-background:new ;} .st30{fill:url(#SVGID_19_);} .st31{opacity:0.64;fill:url(#SVGID_20_);enable-background:new ;} .st32{opacity:0.93;fill:url(#SVGID_21_);enable-background:new ;} .st33{opacity:0.93;fill:url(#SVGID_22_);enable-background:new ;} .st34{opacity:0.6;fill:url(#SVGID_23_);enable-background:new ;} .st35{opacity:0.5;fill:url(#SVGID_24_);enable-background:new ;} .st36{fill:url(#SVGID_25_);} .st37{fill:url(#SVGID_26_);} .st38{fill:#991F62;} .st39{opacity:0.32;fill:url(#SVGID_27_);enable-background:new ;} .st40{fill:url(#SVGID_28_);} .st41{fill:url(#SVGID_29_);} .st42{fill:#BD3624;} .st43{fill:#FFFFFF;} .st44{opacity:0.47;fill:url(#SVGID_30_);enable-background:new ;} .st45{fill:url(#SVGID_31_);} .st46{fill:url(#SVGID_32_);} .st47{fill:#682D13;} .st48{fill:#210707;} .st49{fill:#D88460;} .st50{fill:#A0411C;} .st51{fill:#490206;} .st52{fill:#6E0001;} .st53{fill:url(#SVGID_33_);} .st54{opacity:0.12;fill:#FFFFFF;enable-background:new ;} .st55{fill:url(#SVGID_34_);} .st56{fill:#4F0E4F;} .st57{opacity:0.5;fill:url(#SVGID_35_);enable-background:new ;} .st58{fill:url(#SVGID_36_);} .st59{fill:url(#SVGID_37_);} .st60{fill:url(#SVGID_38_);} .st61{fill:url(#SVGID_39_);} .st62{fill:url(#SVGID_40_);} .st63{fill:url(#SVGID_41_);} .st64{fill:url(#SVGID_42_);} .st65{fill:url(#SVGID_43_);} .st66{fill:url(#SVGID_44_);} .st67{fill:url(#SVGID_45_);} </style> <circle class="st0" cx="303.9" cy="304" r="302.3"></circle> <g> <path class="st1" d="M83.5,367.7C83.5,367.7,83.5,367.7,83.5,367.7c-0.6,0-1.1-0.3-1.4-0.9c-1.5-3.1-2.8-6.5-4.1-9.8 c-2.9-7.3-5.8-14.9-10.9-20c-4.9-5-12.1-7.7-19.6-10.6c-3.3-1.3-6.7-2.6-9.8-4c-0.5-0.2-0.9-0.8-0.9-1.4c0-0.6,0.3-1.1,0.9-1.4 c3.2-1.5,6.6-2.8,9.9-4c7.6-2.9,14.8-5.6,19.7-10.6c5-5.1,7.8-12.3,10.8-20c1.3-3.4,2.6-6.8,4.2-10.1c0.2-0.5,0.8-0.9,1.4-0.9 c0,0,0,0,0,0c0.6,0,1.1,0.3,1.4,0.9c1.4,3.1,2.6,6.4,3.8,9.6c2.7,7.2,5.4,14.7,10.4,19.7c5,5.1,12.2,8,19.8,11.1 c3.4,1.4,6.8,2.8,10.1,4.4c0.5,0.3,0.8,0.8,0.8,1.4s-0.3,1.1-0.9,1.3c-2.9,1.4-6.2,2.7-9.3,3.9c-7.2,2.8-14.7,5.8-19.8,10.8 c-5.1,5-8,12.6-10.9,19.8c-1.3,3.3-2.6,6.6-4.1,9.7C84.6,367.3,84,367.7,83.5,367.7z M42,321.1c2.2,0.9,4.4,1.8,6.5,2.6 c7.5,2.9,15.3,5.9,20.7,11.3c5.5,5.5,8.6,13.4,11.6,21c0.9,2.2,1.7,4.4,2.7,6.6c0.9-2.2,1.8-4.4,2.7-6.6c3-7.5,6.1-15.4,11.6-20.8 c5.5-5.5,13.3-8.6,20.8-11.5c2.1-0.8,4.2-1.6,6.2-2.5c-2.3-1-4.7-2-7-2.9c-7.6-3.1-15.4-6.3-20.8-11.8c-5.4-5.5-8.2-13.3-11-20.8 c-0.8-2.1-1.6-4.2-2.4-6.2c-0.9,2.2-1.8,4.5-2.7,6.8c-2.9,7.6-6,15.5-11.4,21c-5.4,5.4-13.2,8.4-20.8,11.3 C46.4,319.3,44.2,320.2,42,321.1z"></path> </g> <g> <path class="st1" d="M488.5,489.2C488.5,489.2,488.5,489.2,488.5,489.2c-0.6,0-1.1-0.3-1.4-0.9c-1.5-3.1-2.8-6.5-4.1-9.8 c-2.9-7.3-5.8-14.9-10.9-20c-4.9-5-12.1-7.7-19.6-10.6c-3.3-1.3-6.7-2.6-9.8-4c-0.5-0.2-0.9-0.8-0.9-1.4c0-0.6,0.3-1.1,0.9-1.4 c3.2-1.5,6.6-2.8,9.9-4c7.6-2.9,14.8-5.6,19.7-10.6c5-5.1,7.8-12.3,10.8-20c1.3-3.4,2.6-6.8,4.2-10.1c0.2-0.5,0.8-0.9,1.4-0.9 c0,0,0,0,0,0c0.6,0,1.1,0.3,1.4,0.9c1.4,3.1,2.6,6.4,3.8,9.6c2.7,7.2,5.4,14.7,10.4,19.7c5,5.1,12.2,8,19.8,11.1 c3.4,1.4,6.8,2.8,10.1,4.4c0.5,0.3,0.8,0.8,0.8,1.4s-0.3,1.1-0.9,1.3c-2.9,1.4-6.2,2.7-9.3,3.9c-7.2,2.8-14.7,5.8-19.8,10.8 c-5.1,5-8,12.6-10.9,19.8c-1.3,3.3-2.6,6.6-4.1,9.7C489.6,488.9,489,489.2,488.5,489.2z M447,442.6c2.2,0.9,4.4,1.8,6.5,2.6 c7.5,2.9,15.3,5.9,20.7,11.3c5.5,5.5,8.6,13.4,11.6,21c0.9,2.2,1.7,4.4,2.7,6.6c0.9-2.2,1.8-4.4,2.7-6.6c3-7.5,6.1-15.4,11.6-20.8 c5.5-5.5,13.3-8.6,20.8-11.5c2.1-0.8,4.2-1.6,6.2-2.5c-2.3-1-4.7-2-7-2.9c-7.6-3.1-15.4-6.3-20.8-11.8c-5.4-5.5-8.2-13.3-11-20.8 c-0.8-2.1-1.6-4.2-2.4-6.2c-0.9,2.2-1.8,4.5-2.7,6.8c-2.9,7.6-6,15.5-11.4,21c-5.4,5.4-13.2,8.4-20.8,11.3 C451.4,440.8,449.2,441.7,447,442.6z"></path> </g> <g> <path class="st1" d="M132.6,412.3C132.6,412.3,132.6,412.3,132.6,412.3c-0.6,0-1.1-0.3-1.4-0.9c-0.9-1.8-1.6-3.7-2.3-5.5 c-1.6-4.1-3.2-8.3-6-11c-2.7-2.7-6.6-4.2-10.8-5.8c-1.9-0.7-3.8-1.4-5.6-2.3c-0.5-0.2-0.9-0.8-0.9-1.4s0.3-1.1,0.9-1.4 c1.8-0.8,3.7-1.6,5.6-2.3c4.2-1.6,8.2-3.1,10.9-5.8c2.7-2.7,4.3-6.8,5.9-11c0.7-1.9,1.5-3.9,2.4-5.7c0.2-0.5,0.8-0.9,1.4-0.9 c0,0,0,0,0,0c0.6,0,1.1,0.3,1.4,0.9c0.8,1.7,1.5,3.6,2.2,5.4c1.5,4,3,8.1,5.7,10.9c2.7,2.8,6.7,4.4,10.9,6.1 c1.9,0.8,3.9,1.6,5.7,2.5c0.5,0.3,0.8,0.8,0.8,1.4c0,0.6-0.3,1.1-0.9,1.3c-1.7,0.8-3.5,1.5-5.3,2.2c-4,1.6-8.2,3.2-10.9,6 c-2.7,2.7-4.3,6.7-6,10.9c-0.7,1.8-1.5,3.7-2.3,5.5C133.7,412,133.1,412.3,132.6,412.3z M111,385.4c0.7,0.3,1.5,0.6,2.2,0.8 c4.3,1.6,8.7,3.4,11.9,6.5c3.2,3.2,5,7.7,6.7,12c0.3,0.7,0.6,1.5,0.9,2.3c0.3-0.7,0.6-1.5,0.9-2.2c1.7-4.3,3.5-8.8,6.7-11.9 c3.2-3.2,7.6-4.9,11.9-6.6c0.7-0.3,1.4-0.5,2-0.8c-0.8-0.4-1.7-0.7-2.5-1c-4.3-1.8-8.8-3.6-11.9-6.8c-3.1-3.2-4.8-7.6-6.4-11.9 c-0.3-0.7-0.5-1.3-0.7-2c-0.3,0.8-0.6,1.5-0.9,2.3c-1.7,4.4-3.4,8.9-6.6,12.1c-3.1,3.2-7.6,4.9-11.9,6.5 C112.4,384.8,111.7,385.1,111,385.4z"></path> </g> <g> <path class="st1" d="M166,353.5C166,353.5,166,353.5,166,353.5c-0.6,0-1.1-0.3-1.4-0.9c-0.5-1-0.9-2.1-1.3-3.1 c-0.9-2.3-1.7-4.4-3.2-5.9c-1.4-1.4-3.5-2.2-5.7-3.1c-1-0.4-2.1-0.8-3.1-1.3c-0.5-0.2-0.9-0.8-0.9-1.4s0.3-1.1,0.9-1.4 c1-0.5,2.1-0.9,3.1-1.3c2.3-0.9,4.4-1.7,5.8-3.1c1.4-1.4,2.2-3.6,3.1-5.9c0.4-1.1,0.8-2.2,1.3-3.2c0.2-0.5,0.8-0.9,1.4-0.9 c0.6,0,1.1,0.3,1.4,0.9c0.5,1,0.8,2,1.2,3.1c0.8,2.2,1.6,4.4,3,5.8c1.4,1.4,3.5,2.3,5.8,3.2c1.1,0.4,2.2,0.9,3.2,1.4 c0.5,0.3,0.8,0.8,0.8,1.4s-0.3,1.1-0.9,1.3c-1,0.5-2,0.9-3,1.2c-2.1,0.8-4.4,1.7-5.8,3.1c-1.4,1.4-2.3,3.6-3.2,5.8 c-0.4,1-0.8,2.1-1.3,3.1C167.1,353.1,166.5,353.5,166,353.5z M155.9,337.9c2.3,0.9,4.7,1.9,6.4,3.6c1.8,1.8,2.8,4.2,3.7,6.6 c0.9-2.3,1.9-4.7,3.7-6.5c1.8-1.8,4.1-2.7,6.4-3.6c-2.4-1-4.9-2-6.7-3.8c-1.7-1.7-2.6-4-3.5-6.3c-0.9,2.4-1.9,4.8-3.6,6.5 C160.6,336.1,158.2,337.1,155.9,337.9z"></path> </g> <g> <path class="st1" d="M512.4,209C512.4,209,512.4,209,512.4,209c-0.6,0-1.2-0.4-1.5-0.9c-0.9-1.8-1.6-3.7-2.3-5.6 c-1.6-4.1-3.2-8.2-6-11c-2.7-2.7-6.6-4.2-10.8-5.8c-1.9-0.7-3.8-1.5-5.6-2.3c-0.6-0.3-0.9-0.8-0.9-1.5c0-0.6,0.4-1.2,0.9-1.5 c1.8-0.9,3.7-1.6,5.6-2.3c4.2-1.6,8.2-3.1,10.8-5.8c2.7-2.7,4.3-6.8,5.9-11c0.7-1.9,1.5-3.9,2.4-5.7c0.3-0.6,0.8-0.9,1.5-0.9 c0,0,0,0,0,0c0.6,0,1.2,0.4,1.5,0.9c0.8,1.8,1.5,3.6,2.2,5.5c1.5,4,3,8.1,5.7,10.9c2.7,2.7,6.7,4.4,10.9,6.1 c1.9,0.8,3.9,1.6,5.8,2.5c0.6,0.3,0.9,0.8,0.9,1.5c0,0.6-0.4,1.2-0.9,1.5c-1.7,0.8-3.5,1.5-5.3,2.2c-4,1.6-8.1,3.2-10.9,5.9 c-2.7,2.7-4.3,6.7-6,10.9c-0.7,1.8-1.5,3.8-2.4,5.5C513.6,208.7,513,209,512.4,209z M491.1,182c0.6,0.3,1.3,0.5,1.9,0.7 c4.3,1.7,8.8,3.4,11.9,6.5c3.2,3.2,5,7.8,6.7,12.1c0.3,0.7,0.5,1.3,0.8,2c0.3-0.7,0.5-1.3,0.8-2c1.7-4.3,3.5-8.8,6.7-12 c3.2-3.2,7.7-5,12-6.7c0.6-0.2,1.2-0.5,1.8-0.7c-0.8-0.3-1.5-0.6-2.3-0.9c-4.3-1.8-8.8-3.6-12-6.8c-3.1-3.2-4.8-7.7-6.4-12 c-0.2-0.6-0.4-1.1-0.6-1.7c-0.3,0.7-0.5,1.3-0.8,2c-1.7,4.4-3.4,8.9-6.6,12.1c-3.2,3.2-7.6,4.9-12,6.5 C492.4,181.5,491.7,181.7,491.1,182z"></path> </g> <g> <path class="st1" d="M480.9,153.7C480.9,153.7,480.9,153.7,480.9,153.7c-0.6,0-1.1-0.3-1.4-0.9c-0.4-0.9-0.8-1.9-1.2-2.9 c-0.8-2.1-1.6-4.1-2.9-5.4c-1.3-1.3-3.2-2-5.3-2.8c-1-0.4-2-0.8-2.9-1.2c-0.5-0.2-0.9-0.8-0.9-1.4c0-0.6,0.3-1.1,0.9-1.4 c1-0.4,2-0.8,2.9-1.2c2.1-0.8,4-1.5,5.3-2.8c1.3-1.3,2.1-3.3,2.9-5.4c0.4-1,0.8-2,1.2-3c0.2-0.5,0.8-0.8,1.4-0.9 c0.6,0,1.1,0.3,1.4,0.9c0.4,0.9,0.8,1.9,1.1,2.8c0.8,2.1,1.5,4,2.8,5.3c1.3,1.3,3.3,2.1,5.3,3c1,0.4,2,0.8,3,1.3 c0.5,0.3,0.8,0.8,0.8,1.4c0,0.6-0.3,1.1-0.9,1.3c-0.9,0.4-1.8,0.8-2.8,1.2c-2,0.8-4,1.6-5.3,2.9c-1.3,1.3-2.1,3.3-2.9,5.4 c-0.4,1-0.8,1.9-1.2,2.9C482,153.4,481.5,153.7,480.9,153.7z M471.8,139.2c2.1,0.8,4.1,1.7,5.7,3.3c1.6,1.6,2.5,3.8,3.4,5.9 c0.8-2.1,1.8-4.2,3.4-5.8c1.6-1.6,3.7-2.5,5.7-3.3c-2.2-0.9-4.4-1.8-6-3.5c-1.5-1.5-2.4-3.6-3.1-5.6c-0.8,2.1-1.7,4.2-3.3,5.8 C476,137.5,473.9,138.4,471.8,139.2z"></path> </g> <g> <g id="XMLID_4_"> <g> <path class="st2" d="M438.4,153.3c11.6,28.8-10.6,53.5-12.2,67.3c-1.6,13.9,26.1,40.6,1,70.9c-25.1,30.3-91.6,9-91.6,9 s-6.8,17.9-87-10.8S225.3,157,225.3,157s-16.6-32.4,4.1-79.4s56.9-32.9,56.9-32.9c6.8-3.7,13.9-14.2,39.8-9.1 c21.5,4.4,62.9,59.6,62.9,59.6S422.3,113,438.4,153.3z"></path> </g> <g> <path class="st3" d="M286.2,44.9c0,0-36-14-56.9,32.9s-4.1,79.4-4.1,79.4s-56.7,104,23.3,132.7c80.2,28.7,87,10.8,87,10.8 s66.7,21.2,91.6-9c24.9-30.1-2.6-57-1-70.9c1.6-13.9,23.8-38.5,12.2-67.3c-16.1-40.4-49.5-57.9-49.5-57.9S347.5,40.2,326,36 C299.9,30.6,292.9,41.2,286.2,44.9z"></path> </g> </g> <path class="st4" d="M363,359.3c0,0-6.2,54.8-4.2,74.3c2,19.6,4.4,31.1,8.8,37.2c4.4,6,9.9,11.1,13.9,2.1 c-7.3,17.1,13.9-93.9,13.7-103.5C394.4,331.4,363,359.3,363,359.3z"></path> <path class="st4" d="M356.5,205.9c0,0,10.4,4.4,16.9,26.9c6.5,22.5,19.1,114.6,19.1,130.2c0,15.6-18.6,17.8-25.3,8.3 c-4.9-6.8-26.7-102.8-26.7-102.8S320.8,204.3,356.5,205.9z"></path> <path class="st4" d="M356.5,205.9c0,0,10.4,4.4,16.9,26.9c6.5,22.5,18.4,114.9,21.5,130.2c3.7,18.1-21,17.8-27.9,8.3 c-4.9-6.8-26.7-102.8-26.7-102.8S320.8,204.3,356.5,205.9z"></path> <linearGradient id="SVGID_1_" gradientUnits="userSpaceOnUse" x1="365.3611" y1="-56.2713" x2="387.1493" y2="-32.8387" gradientTransform="matrix(1 0 0 1 0 338)"> <stop offset="0" style="stop-color:#D48864"></stop> <stop offset="1" style="stop-color:#F8AD84;stop-opacity:0"></stop> </linearGradient> <path class="st5" d="M385.8,301.4c-12.9,7.7-23.1,27.9-27.9,39.1c-7.8-30.1-16.9-70.4-16.9-70.4s-19.7-64,16.1-62.6 c0,0,10.4,4.4,16.9,26.9C377.2,245.5,381.9,273.9,385.8,301.4z"></path> <path class="st4" d="M380.7,559.6c0,6.4,0.3,20.4,0.8,36.2c-12.4,3.4-24.9,5.9-37.8,7.7c-8.1,1.1-16.5,2-24.9,2.3 c-4.6-27.9-9.5-58-10.6-70.6l-4.1,2.6l-11.1,6.8l-7.3,61.1c-4.4-0.3-9-0.7-13.4-1.1c-18.4-2-36.3-5.4-53.6-10.6 c-3.6-1.1-7.3-2.1-10.9-3.4c-1.6-40.1-2.8-86-1.1-108.4c0.2-1.8,0.2-3.4,0.3-4.7c0.2-1.1,0.2-2.1,0.3-3.1 c1.3-8.6,3.4-16.6,5.7-23.3c1-2.9,2-5.7,2.9-8.1c5.4-13.7,11.1-21.5,11.1-21.5s3.4-16,7.2-28.4c0.8-2.6,1.3-54.4-1-66.2 c0,0-28.4-7.3-21-38.1c0,0,2.3-2.9,12.1-16.5c9.9-13.7-2.6-40.9-0.2-66.7c2.4-25.9,52.3-15.6,52.3-15.6s12.1-15,4.6-28.7 c0,0-12.4-27.1,3.7-33.2c16-6.2,27.1,7.3,28.4,16.1c0,0,3.7,29.7,13.7,41.9c9.9,12.4,32.1,19.7,35.9,23.3 c3.7,3.7,8.6,19.7,6.2,33.2c-2.4,13.7-2.4,22.2-2.4,22.2s-3.7,33.4-12.4,49.4c-8.6,16.1-15.8,48.6-15.8,60.9 c0,11.9,5.4,28.8,15.6,40.1c0.3,0.3,0.7,0.7,0.8,1l0.2,0.2l0.2,0.2c0.3,0.3,0.7,0.7,0.8,0.8c0.8,0.8,1.6,1.8,2.6,2.8 c0.3,0.3,0.7,0.7,1,1.1c9.5,10.9,18.4,26.1,27.1,47.4c9.9,24.6,0.3,50.4-5.7,62.7C380.9,531,380.7,541.1,380.7,559.6z"></path> <path class="st6" d="M234.7,339.2c0,0,23.3-9.5,54.1-10.9c26.1-1.3,55.9-1.3,57.5,5.5c0,0.2,6.4-17.1,13.5-37.8 c7.2-20.7,8.3-53.5,8.3-53.5s-6-32.9-12.2-40.3l-4.9-2.4c0,0,8.6,14.8,11.1,32.1c2.4,17.3-3.1,39.1-3.1,39.1s-13.4,5.1-31.8,2 c-8.6-1.5-23.8-10.4-23.8-10.4s-6.4-34.2-16.3-52.8c-9.9-18.6-19.2-21.7-19.2-21.7s-6.8-1.5-8.6-0.8c0,0,15.5,8.3,20.4,35.4 c3.9,22,8.1,40.3-0.7,48.9c-8.6,8.6-35.2,12.1-36.3,2.1c-1.3-9.9-3.6-29.3-3.6-29.3s-14.8,19.4-21.2,27.9 c-6.2,8.6-7.8,14.2-8.1,21.8c-0.3,6.4,2.9,20.5,9.1,25.1c9,6.5,14.8,7.2,14.8,7.2L234.7,339.2z"></path> <linearGradient id="SVGID_2_" gradientUnits="userSpaceOnUse" x1="363.021" y1="-67.3534" x2="311.2227" y2="-74.4448" gradientTransform="matrix(1 0 0 1 0 338)"> <stop offset="4.594590e-02" style="stop-color:#9E1C5C"></stop> <stop offset="1" style="stop-color:#BA3175;stop-opacity:0"></stop> </linearGradient> <path class="st7" d="M368.4,243.1c0,0-1.1,32.6-8.3,53.5c-7.2,20.7-13.9,37.3-14,37.3c-1.6-6.8-28.8-5.5-52.8-7.8 c-0.8-0.2-5.9,2.6-6.7,2.6l0,0l0,0c32.9-10.1,43.2-35.2,46.1-53.9c15.3,2.1,25.9-3.3,25.9-3.3s6.2-21.5,3.6-38.8 c-2.4-17.3-11.1-32.1-11.1-32.1l4.9,2.4C362.5,210.3,368.4,243.1,368.4,243.1z"></path> <linearGradient id="SVGID_3_" gradientUnits="userSpaceOnUse" x1="306.4492" y1="270.1141" x2="284.2096" y2="84.7828" gradientTransform="matrix(1 0 0 1 0 338)"> <stop offset="0.2897" style="stop-color:#732175"></stop> <stop offset="1" style="stop-color:#582978"></stop> </linearGradient> <path class="st8" d="M388.4,535.3c0,2.4,0.5,29.7,1.1,58.3c-2.6,0.8-5.2,1.5-7.8,2.3c-12.4,3.4-24.9,5.9-37.8,7.7 c-8.1,1.1-16.5,2-24.9,2.3c-1,0.2-2,0.2-2.9,0.2c-0.3,0-0.7,0-0.8,0c-3.1-17.1-6.2-34.1-8.1-46.6v-0.2c-2.1-12.1-3.3-20.2-3.3-20.2 l0,0l-10.6,5.7l-4.9,61.1c-0.8,0-1.6-0.2-2.4-0.2c-4.4-0.3-9-0.7-13.4-1.1c-18.4-2-36.3-5.4-53.6-10.6c-3.6-1.1-7.3-2.1-10.9-3.4 c-0.7-0.2-1.3-0.5-2.1-0.7c-0.7-0.2-1.3-0.5-2-0.7c-0.8-21-0.8-40.7-0.8-57.4c0.2-9.9,0.2-18.9,0.3-25.9c0.2-9.5,1.3-17.1,3.3-23.8 c4.1-14.3,11.6-23.3,18.4-33.1c9.9-14.3,34.9-24.8,58.7-23.3c19.2,1.1,43.5,5.4,57.2,2.9c13.7-2.4,12.1-14.2,12.1-14.2 c0.7,0.7,1.3,1.3,2,2l0.2,0.2c0.3,0.3,0.7,0.7,0.8,0.8c33.7,33.9,36.5,63.1,36.5,78.2C392.5,510.3,388.4,521.1,388.4,535.3z"></path> <linearGradient id="SVGID_4_" gradientUnits="userSpaceOnUse" x1="308.3724" y1="-185.496" x2="275.0735" y2="-142.0223" gradientTransform="matrix(1 0 0 1 0 338)"> <stop offset="0" style="stop-color:#C47958"></stop> <stop offset="1" style="stop-color:#F8AD84;stop-opacity:0"></stop> </linearGradient> <path class="st9" d="M281.3,160.8c0,0,2.4,3.9,2.4,9.9c0,6-7.2,18.7-7.2,18.7s24.1-1.1,32.1-10.4c8-9.3,5.4-36.7,5.4-36.7 L281.3,160.8z"></path> <g> <path class="st4" d="M240.3,145.1c5.1,16,9.3,20.4,22.3,20.4c24.6,0,37.3-5.7,47.1-13.4c5.4-4.1,7.3-22.3,7.3-22.3 s2.1,0.3,5.5-1.5c7.2-3.4,8.6-16.6,6.2-21.2c-4.6-8.3-10.9-0.3-11.7,0c13.4-33.9-4.2-54.4-31.6-55.4c-0.7,0-1.3,0-2,0.2 C257.5,52.7,252,88.8,252,88.8s-6.4,15.3-15.8,24.1C236.2,113.4,233.4,126.4,240.3,145.1z"></path> <path class="st4" d="M236.2,115.2c0.8-0.7,1.5-1.5,2.4-2.4c9.5-8.8,13.9-24,13.9-24s5.5-36.2,31.5-36.8c-5.9-1-14.8-1.1-22.3,3.9 c-12.5,8.6-18.9,29.8-22.2,39.8C237.5,101.5,236.5,109.3,236.2,115.2z"></path> <linearGradient id="SVGID_5_" gradientUnits="userSpaceOnUse" x1="266.5129" y1="-252.9664" x2="272.0627" y2="-226.1422" gradientTransform="matrix(1 0 0 1 0 338)"> <stop offset="0" style="stop-color:#CC805C"></stop> <stop offset="1" style="stop-color:#F8AD84;stop-opacity:0"></stop> </linearGradient> <path class="st10" d="M299.6,57.6c0,0-2.6,12.5-13.7,17.4c-4.9,2.1-11.4,3.1-13.7,5.4c-1.1,1.1-6.5,10.8-11.1,14 c0,0-3.7,11.6-5.9,14c-8.1,8.8-15.6,10.9-19.9,13.4l0.8-8.8c0,0,2-17.9,4.4-21.7l32.6-22.8C273.4,68.4,298.4,53.2,299.6,57.6z"></path> <path class="st2" d="M317.2,106.8c0,0,4.6-25.1-8.3-34.9c-14.8-11.4-10.1-18.3-10.1-18.3s-4.9,23.3-30,23.3 c0,0-2.3,17.9-35.9,14.8c-9.1-0.8-5.7,13.7-7.7,11.6c-1.8-2-9.1-20-8.6-29.2c1.1-19.7,8.3-29.3,11.6-33.1 c12.9-15.3,39.3-32.6,65.8-20.7c26.6,11.9,24,17.3,24,17.3s31.5-0.8,38.8,31.5c3.4,15.5-23.3,29-34.1,34.5 C319.6,105.2,317.2,106.8,317.2,106.8z"></path> <path class="st11" d="M263.1,122c0,0-2.1,1.6-4.9,1.1c-2.9-0.7-5.1-3.4-5.7-4.6c-0.7-1.1-2.4,4.9,1.6,7.7c4.1,2.9,7.8-0.7,8.6-2.6 C263.2,121.5,263.1,122,263.1,122z"></path> <ellipse transform="matrix(0.3851 -0.9229 0.9229 0.3851 43.7568 293.6787)" class="st12" cx="242.3" cy="114" rx="2.1" ry="2"></ellipse> <ellipse transform="matrix(0.2115 -0.9774 0.9774 0.2115 109.0161 376.1915)" class="st12" cx="287.7" cy="120.5" rx="1.3" ry="1.3"></ellipse> <ellipse transform="matrix(0.2115 -0.9774 0.9774 0.2115 106.5958 388.1111)" class="st12" cx="293.8" cy="128" rx="1.3" ry="1.3"></ellipse> <ellipse transform="matrix(0.2116 -0.9774 0.9774 0.2116 99.0509 366.9326)" class="st12" cx="277" cy="122.1" rx="1.5" ry="1.5"></ellipse> <ellipse transform="matrix(0.2114 -0.9774 0.9774 0.2114 102.8248 355.6187)" class="st12" cx="271.8" cy="114.1" rx="1.5" ry="1.5"></ellipse> <ellipse transform="matrix(0.2624 -0.965 0.965 0.2624 82.1554 325.825)" class="st12" cx="254.2" cy="109.2" rx="0.5" ry="0.5"></ellipse> <ellipse transform="matrix(0.2622 -0.965 0.965 0.2622 74.9445 325.2781)" class="st12" cx="250.2" cy="113.6" rx="1.1" ry="0.8"></ellipse> <ellipse transform="matrix(0.2623 -0.965 0.965 0.2623 70.8194 309.5368)" class="st12" cx="237.9" cy="108.4" rx="1.1" ry="1"></ellipse> </g> <path class="st13" d="M318,113.4c0,0,3.9-9.3,7.7-6.8c3.6,2.4,3.1,7.7,1.6,6.8c-1.3-0.7-3.4-2.6-5.1-1.1c-1.6,1.6-3.6,4.6-4.4,7.7 C317.5,122.2,316.4,119.9,318,113.4z"></path> <path class="st14" d="M209.8,296.9c1.3,1.3,6.2,19.4,23.8,16.3c17.8-3.1,39.3-27.9,39.3-27.9l16.5-11.2c0,0,8.6,20.2,21.2,24.1 c12.5,4.1,39.9,6.4,44.2,12.4"></path> <linearGradient id="SVGID_6_" gradientUnits="userSpaceOnUse" x1="272.5374" y1="-74.258" x2="287.1617" y2="-3.0857" gradientTransform="matrix(1 0 0 1 0 338)"> <stop offset="4.594590e-02" style="stop-color:#9E1C5C"></stop> <stop offset="1" style="stop-color:#BA3175;stop-opacity:0"></stop> </linearGradient> <path class="st15" d="M353,314.1c-6.2,15.2-4.9,18.6-6.2,19.9c-1.6-6.8-26.6-8.3-50.5-7.2c-36.7,2-61.3,12.5-61.3,12.5l-1.3-12.5 c0,0-5.9-0.7-14.8-7.2c-5.7-4.1-9.1-15.8-9.1-22.8c1.1,9.6,7.2,19.1,23.8,16.1c15.2-2.6,30.5-33.7,35.4-39.1 c4.9-0.2,8.3-0.2,10.4-3.1c4.1-5.5,3.9-10.4,4.1-12.9c0.3,0.7,9.8,42.7,22.2,46.8C317.5,308.6,346.4,308.9,353,314.1z"></path> <linearGradient id="SVGID_7_" gradientUnits="userSpaceOnUse" x1="237.1995" y1="-12.6818" x2="235.5037" y2="-23.3188" gradientTransform="matrix(1 0 0 1 0 338)"> <stop offset="4.594590e-02" style="stop-color:#9E1C5C"></stop> <stop offset="1" style="stop-color:#BA3175;stop-opacity:0"></stop> </linearGradient> <path class="st16" d="M234.2,326.8c0,0,11.9-7.2,17.6-7.2c5.7,0,2.9-9,2.9-9s-11.2,9.6-23.3,8.6c-12.1-0.8-15.8-3.4-15.8-3.4 S221.7,324.9,234.2,326.8z"></path> <g> <path class="st17" d="M317.2,86.6c-0.2-2.3-1.1-4.4-2.1-6.2c-1.1-2-2.4-3.7-3.9-5.4c-1.3-1.6-3.1-3.1-4.7-4.6l-2.6-2.1 c-0.8-0.8-1.6-1.6-2.4-2.4c-2.8-3.6-4.9-7.7-6.4-11.9c-0.3-1.1-0.7-2.1-1-3.4c-0.2-1.1-0.5-2.3-0.2-3.7c0.2-0.3,0.3-0.8,0.5-1.1 c0.2-0.3,0.3-0.7,0.7-0.8c0.3-0.5,0.8-0.8,1.3-1.3c1-0.7,2.1-1.3,3.9-1.3c0.3,0,0.8,0.2,1.3,0.3c0.3,0.2,0.8,0.7,1,0.8 c0.5,0.7,0.7,1.5,0.7,2.1c0.2,1.3-0.2,2.6-0.3,3.6c-0.5,2.1-1,4.4-1.8,6.7c-1.3,4.4-3.7,8.6-7,11.9c-1.6,1.6-3.4,3.1-5.4,4.4 l-1.5,0.8c-0.5,0.3-1.1,0.7-1.6,0.8l-1.6,0.7l-1.6,0.7c-2.3,0.7-4.6,1.1-6.8,1.3c-2.3,0.3-4.6,0.3-6.8,0.2l1.5-1.1 c-0.3,0.8-0.7,1.6-0.8,2.4c-0.3,0.8-0.7,1.5-1.1,2.1c-0.8,1.3-2,2.8-2.9,3.9c-2.3,2.4-4.9,4.4-8,5.7c-1.5,0.7-3.1,1.1-4.6,1.6 c-1.5,0.3-3.1,0.8-4.6,1.1c-3.1,0.7-6.4,1-9.6,0.7c-0.8-0.2-1.6-0.2-2.4-0.5c-0.8-0.2-1.6-0.5-2.3-0.8l-1-0.3 c-0.5-0.2-0.8-0.5-1.3-0.8c-0.3-0.3-0.7-1.1-0.5-1.8c0.2-0.7,0.3-1.1,0.8-1.6c0.8-0.7,2-0.8,2.9-0.7c1,0.2,1.6,0.5,2.4,1.1 c0.8,0.7,1.1,1.5,1.3,2.4c0.2,0.8,0.2,1.8,0.2,2.6c-0.3,1.6-1,3.1-2,4.4c-0.8,1.3-2.1,2.4-3.4,3.4c-2.6,2-5.5,3.1-8.5,3.9 c2.9-1,5.7-2.4,8.1-4.4c1.1-1,2.1-2.1,2.9-3.4c0.8-1.3,1.3-2.6,1.5-4.1c0.2-1.3-0.2-2.9-1.1-3.6c-0.3-0.3-1.1-0.7-1.8-0.7 s-1.1,0-1.5,0.3c-0.3,0.3-0.3,0.7-0.2,0.8c0.2,0.2,0.3,0.3,0.7,0.3l1.1,0.3c1.5,0.5,2.8,0.8,4.2,0.8c2.9,0.2,5.9-0.3,8.8-1.1 c1.5-0.3,2.9-0.7,4.4-1.1c1.5-0.3,2.8-0.8,4.1-1.6c2.6-1.3,5.1-2.9,7-5.1c1-1.1,2-2.3,2.6-3.4c0.3-0.7,0.7-1.3,1-2 c0.3-0.7,0.7-1.3,0.7-2l0.3-1.1h1.1c4.2,0.2,8.6-0.2,12.7-1.5l1.5-0.5l1.5-0.7c0.5-0.2,0.8-0.5,1.3-0.7l1.3-0.8 c1.8-1.1,3.4-2.4,4.9-3.9c2.9-2.9,5.1-6.7,6.7-10.9c0.7-2.1,1.3-4.1,1.8-6.4c0.3-1.1,0.5-2.1,0.3-2.9c0-0.3-0.2-0.8-0.3-1 c-0.2-0.2-0.2-0.3-0.7-0.3c-1.3-0.2-3.6,1.5-4.1,2.8c-0.2,0.7-0.2,2,0.2,2.9c0.2,1.1,0.3,2.1,0.8,3.1c0.7,2.1,1.5,4.1,2.4,6.2 c1,2,2,3.9,3.3,5.7c0.7,0.8,1.3,1.8,2.1,2.4s1.6,1.5,2.4,2.1c1.6,1.6,3.3,3.1,4.6,4.9c1.3,1.8,2.6,3.6,3.6,5.7 C316.2,82.4,317,84.5,317.2,86.6z"></path> </g> <linearGradient id="SVGID_8_" gradientUnits="userSpaceOnUse" x1="304.5072" y1="171.3291" x2="233.2996" y2="187.975" gradientTransform="matrix(1 0 0 1 0 338)"> <stop offset="0" style="stop-color:#582061"></stop> <stop offset="1" style="stop-color:#701862;stop-opacity:0"></stop> </linearGradient> <path class="st18" d="M234.7,533.3c0,0,17.3,16.6,53.5,3.3c38-14,34.9-66.2,34.9-66.2s4.9,14.7,2.3,33.4 c-2.4,18.1-14.5,30.1-24.6,36.3c-17.1,10.6-42.4,17.8-71.1,8.6C190.9,536.4,210.9,519.3,234.7,533.3z"></path> <linearGradient id="SVGID_9_" gradientUnits="userSpaceOnUse" x1="364.9395" y1="-100.8543" x2="328.26" y2="-101.4759" gradientTransform="matrix(1 0 0 1 0 338)"> <stop offset="0" style="stop-color:#D48864"></stop> <stop offset="1" style="stop-color:#F8AD84;stop-opacity:0"></stop> </linearGradient> <path class="st19" d="M320.4,198.8c0,0,14.3,22,14.3,40.7s-2.9,34.7-2.9,34.7s13.2,0.5,23.5-1.6c9.9-2,2.8-35,2.8-44.8 C358.3,217.8,320.4,198.8,320.4,198.8z"></path> <linearGradient id="SVGID_10_" gradientUnits="userSpaceOnUse" x1="286.9597" y1="-96.5629" x2="326.2119" y2="-105.7702" gradientTransform="matrix(1 0 0 1 0 338)"> <stop offset="0" style="stop-color:#D48864"></stop> <stop offset="1" style="stop-color:#F8AD84;stop-opacity:0"></stop> </linearGradient> <path class="st20" d="M281.7,201.5c0,0,22.5,9.8,36.3,23.8c13.9,13.9,8.1,48.1,8.1,48.1s-6.7-2-10.4-3.9 c-2.6-1.5-12.9-6.7-12.9-6.7s-3.4-16.3-8.3-33.1C290.8,216.4,281.7,201.5,281.7,201.5z"></path> <linearGradient id="SVGID_11_" gradientUnits="userSpaceOnUse" x1="245.1689" y1="58.6579" x2="312.7737" y2="32.7717" gradientTransform="matrix(1 0 0 1 0 338)"> <stop offset="0" style="stop-color:#D48864"></stop> <stop offset="1" style="stop-color:#F8AD84;stop-opacity:0"></stop> </linearGradient> <path class="st21" d="M234.7,339.2l5.4-2.8l61.9-6.7c0,0,2.6,9.6,5.9,32.4c3.1,22.7,13.7,42.4,15.5,47.7c2,5.4,5.1,16.9,5.1,16.9 s-24.6,2-36.8-0.7c-20-4.1-56.1,9.6-56.1,9.6L234.7,339.2z"></path> <linearGradient id="SVGID_12_" gradientUnits="userSpaceOnUse" x1="221.1475" y1="-61.0089" x2="228.4834" y2="-36.6896" gradientTransform="matrix(1 0 0 1 0 338)"> <stop offset="4.594590e-02" style="stop-color:#CC3C84"></stop> <stop offset="1" style="stop-color:#BA3175;stop-opacity:0"></stop> </linearGradient> <path class="st22" d="M210,293.8c0-9.9,3.6-13.4,11.4-23.6c7.8-10.3,9.8-14.2,12.5-8.1c2.9,5.9-9.5,19.1-7.3,30.8 C228.9,304.5,210,314.3,210,293.8z"></path> <linearGradient id="SVGID_13_" gradientUnits="userSpaceOnUse" x1="335.7857" y1="182.1037" x2="350.2867" y2="261.9556" gradientTransform="matrix(1 0 0 1 0 338)"> <stop offset="0" style="stop-color:#581A61"></stop> <stop offset="1" style="stop-color:#701862;stop-opacity:0"></stop> </linearGradient> <path class="st23" d="M347.3,536.7c-14.2,4.6-10.1,37.8-3.6,66.7c-8.1,1.1-16.5,2-24.9,2.3c-1,0.2-2,0.2-2.9,0.2 c-3.3-16.1-6.7-33.1-9.1-46.6v-0.2c-1.5-8.1-2.6-15.3-3.4-20.2c0-0.2,0-0.3-0.2-0.5c0,0,0.2-0.2,0.7-0.7c3.1-2.9,16.9-16.6,20-28.8 c0,0,6.4,20.9,34.4,18.4c0,0,10.6-2,13.2-4.6C374.7,520,369.2,529.6,347.3,536.7z"></path> <linearGradient id="SVGID_14_" gradientUnits="userSpaceOnUse" x1="330.452" y1="109.1518" x2="255.1825" y2="184.1167" gradientTransform="matrix(1 0 0 1 0 338)"> <stop offset="2.051282e-02" style="stop-color:#6A277D;stop-opacity:0.7"></stop> <stop offset="1" style="stop-color:#FFFFFF;stop-opacity:0"></stop> </linearGradient> <path class="st24" d="M232,533.3c9.8,9.8,57.5,10.9,72.5-8.5c15.2-19.4,22.7-37.5,9.9-59.8c-14.8-25.9-46-24.4-51.5,7 C254.1,520.8,206,507.4,232,533.3z"></path> <linearGradient id="SVGID_15_" gradientUnits="userSpaceOnUse" x1="254.5107" y1="52.9769" x2="302.3008" y2="37.8689" gradientTransform="matrix(1 0 0 1 0 338)"> <stop offset="0" style="stop-color:#D1805A"></stop> <stop offset="1" style="stop-color:#E69A6E;stop-opacity:0"></stop> </linearGradient> <path class="st25" d="M265.5,329c0,0,19.6-2.6,27.4-0.8s-1,46.8,1.1,66.8c1.6,14.7,8.6,20.9,11.4,22.8c9.1,6.5,6.5-17.4,6.5-26.2 c0-6.2,3.9-14.2,9.6,2.4c2.3,6.5,7,4.4,7,4.4s5.1,19.6,11.6,22c6.5,2.4-19.9,7.2-34.1,6.2c-20.9-1.5-39.3-3.6-60.8,4.4 c-14.3,5.4-14.5,2.4-14.5,2.4S281.5,371.7,265.5,329z"></path> <linearGradient id="SVGID_16_" gradientUnits="userSpaceOnUse" x1="316.5647" y1="-8.7983" x2="312.5996" y2="16.5785" gradientTransform="matrix(1 0 0 1 0 338)"> <stop offset="0" style="stop-color:#E68D6C"></stop> <stop offset="1" style="stop-color:#F8AD84;stop-opacity:0"></stop> </linearGradient> <path class="st26" d="M298.4,331.4c0,0,11.6,2.6,12.4,10.3c0.7,5.7,2.4,13.7,5.2,13.4c4.4-0.7,0.7-5.5,8.1-15.3 c3.1-4.2,9.6-7.2,9.6-7.2S306.1,330.6,298.4,331.4z"></path> <linearGradient id="SVGID_17_" gradientUnits="userSpaceOnUse" x1="341.9209" y1="38.1099" x2="328.3521" y2="39.3433" gradientTransform="matrix(1 0 0 1 0 338)"> <stop offset="0" style="stop-color:#D1805A"></stop> <stop offset="1" style="stop-color:#E69A6E;stop-opacity:0"></stop> </linearGradient> <path class="st27" d="M346.2,333.9c0,0-6.7,20-7.7,35.4s2.4,23.6,4.9,29c2.4,5.4,5.7,11.9,9.5,15.6c0,0-3.6,5.1-7.8,6.8 c-31,12.5-2.1-2.1-7.8-16c-3.3-8-6-24.1-4.6-34.5c1.3-10.4-4.1-16.1-4.2-24.3c0-4.9,0.3-9.1,2.1-16.9 C330.9,327.7,346.2,330.4,346.2,333.9z"></path> <path class="st28" d="M243.9,546.5c0,0,23.5,5.7,41.9-1.6c18.4-7.3,29-21.2,32.9-30.6c3.9-9.5,5.7-21,5.7-21s0,21.5-10.1,34.4 C303.8,541.1,276.6,560.1,243.9,546.5z"></path> <path class="st28" d="M312.1,527.3c0,0,19.4,12.5,37.5,6.7c18.1-5.9,24.8-13.7,24.8-13.7s-3.9,8.3-25.3,16.1 c-21.3,7.7-40.1-5.1-40.1-5.1L312.1,527.3z"></path> <linearGradient id="SVGID_18_" gradientUnits="userSpaceOnUse" x1="333.429" y1="158.4962" x2="414.1326" y2="118.1444" gradientTransform="matrix(1 0 0 1 0 338)"> <stop offset="2.051282e-02" style="stop-color:#6A277D;stop-opacity:0.7"></stop> <stop offset="1" style="stop-color:#FFFFFF;stop-opacity:0"></stop> </linearGradient> <path class="st29" d="M345.7,448.9c8.6-8.6,12.5-7.7,20-5.7c7.2,2,18.6,10.9,22.7,30.6c4.1,19.6-0.2,39.9-19.9,48.6 c-19.7,8.6-41.6-9.6-40.1-22.5C332.2,467.6,338.2,456.4,345.7,448.9z"></path> <linearGradient id="SVGID_19_" gradientUnits="userSpaceOnUse" x1="279.2435" y1="217.1523" x2="288.1614" y2="266.2596" gradientTransform="matrix(1 0 0 1 0 338)"> <stop offset="0" style="stop-color:#581A61"></stop> <stop offset="1" style="stop-color:#701862;stop-opacity:0"></stop> </linearGradient> <path class="st30" d="M293.1,544.4l-4.9,61.1c-0.8,0-1.6-0.2-2.4-0.2c-4.4-0.3-9-0.7-13.4-1.1c0.2-12.7,0.3-24.1-0.2-29.8 c-1.1-17.9-8.3-23.5-8.3-23.5C286.9,550.8,293.1,544.4,293.1,544.4z"></path> <linearGradient id="SVGID_20_" gradientUnits="userSpaceOnUse" x1="315.4954" y1="33.438" x2="296.7904" y2="41.0434" gradientTransform="matrix(1 0 0 1 0 338)"> <stop offset="0" style="stop-color:#E68D6C"></stop> <stop offset="1" style="stop-color:#F8AD84;stop-opacity:0"></stop> </linearGradient> <path class="st31" d="M312.5,374.6c1.3,13.4,2.6,28.5,4.7,32.9c2.1,4.4,5.1,12.1,4.1-2.4c-1.1-14.5-4.1-46.4-1.1-57.2 c3.9-14,10.1-19.4,10.1-19.4l-15.8-0.8C314.3,327.7,311.2,361.1,312.5,374.6z"></path> <linearGradient id="SVGID_21_" gradientUnits="userSpaceOnUse" x1="304.8041" y1="86.929" x2="286.6068" y2="72.198" gradientTransform="matrix(1 0 0 1 0 338)"> <stop offset="0" style="stop-color:#D1805A"></stop> <stop offset="1" style="stop-color:#E69A6E;stop-opacity:0"></stop> </linearGradient> <path class="st32" d="M309.4,425.8c0,0-8.8-15.2-19.7-18.6c-9.1-2.8-12.1,0.2-12.1,2.6c0,2.4,6.8-0.3,12.1,3.1 c6.4,4.2,6,11.7,6,11.7L309.4,425.8z"></path> <linearGradient id="SVGID_22_" gradientUnits="userSpaceOnUse" x1="337.1325" y1="86.1551" x2="336.6477" y2="69.1893" gradientTransform="matrix(1 0 0 1 0 338)"> <stop offset="0" style="stop-color:#D1805A"></stop> <stop offset="1" style="stop-color:#E69A6E;stop-opacity:0"></stop> </linearGradient> <path class="st33" d="M332.2,424.5c0,0,0.5-6.7,2.9-12.7c2.4-6,6.5-4.2,6.5-3.6c0,0.7-2.4,0.7-2.9,5.1c-0.5,4.4,2,8.8,2,8.8 S335.4,424,332.2,424.5z"></path> <linearGradient id="SVGID_23_" gradientUnits="userSpaceOnUse" x1="287.3109" y1="-11.5171" x2="292.8607" y2="31.0315" gradientTransform="matrix(1 0 0 1 0 338)"> <stop offset="0" style="stop-color:#D1805A"></stop> <stop offset="1" style="stop-color:#E69A6E;stop-opacity:0"></stop> </linearGradient> <path class="st34" d="M274.7,329.8c0,0,16.1-2.6,24.6-2.3c1.1,0,7.3,0,6.8,0.2c-6.8,2.8-14.2,10.6-16.3,19.4 c-2.4,10.1,1.1,36.2,2.8,42c1.6,5.9-9.6-0.8-17.3-21.7C268,346.6,274.7,329.8,274.7,329.8z"></path> <linearGradient id="SVGID_24_" gradientUnits="userSpaceOnUse" x1="379.0432" y1="32.2684" x2="368.8151" y2="94.9571" gradientTransform="matrix(1 0 0 1 0 338)"> <stop offset="0" style="stop-color:#D48864"></stop> <stop offset="1" style="stop-color:#F8AD84;stop-opacity:0"></stop> </linearGradient> <path class="st35" d="M381.4,470.1c-3.9,8-9.5,2.9-13.7-2.9c-4.4-6-7-17.6-8.8-37.2c-2-19.6,3.9-70.9,3.9-70.9 c-0.8-4.2-1.3-0.2,12.5,13.7c12.4,12.4,20-2.3,19.9-7.8C390.8,398.4,376.5,479.7,381.4,470.1z"></path> <linearGradient id="SVGID_25_" gradientUnits="userSpaceOnUse" x1="298.9728" y1="39.1767" x2="308.2225" y2="53.8218" gradientTransform="matrix(1 0 0 1 0 338)"> <stop offset="0" style="stop-color:#F8AD84"></stop> <stop offset="1" style="stop-color:#FFB996"></stop> </linearGradient> <path class="st36" d="M314.9,419.4c2.3-2.3-4.9-17.1-4.9-30.3c0-8.6-0.2-25.4-2.1-26.9c-4.9-3.7-11.6,11.4-9.9,32.1 C298.4,403.3,306.6,427.6,314.9,419.4z"></path> <linearGradient id="SVGID_26_" gradientUnits="userSpaceOnUse" x1="326.3091" y1="29.9348" x2="327.873" y2="66.2191" gradientTransform="matrix(1 0 0 1 0 338)"> <stop offset="0" style="stop-color:#F8AD84"></stop> <stop offset="1" style="stop-color:#FFB996"></stop> </linearGradient> <path class="st37" d="M324.5,411.8c-3.4-10.6-3.9-34.1-3.9-44.2s4.6-3.1,6.8,2.9c2.1,5.9,7,34.4,6.5,37.2 C333.2,411.8,328.3,423.2,324.5,411.8z"></path> <path class="st38" d="M234.4,337.1l0.2,4.6c0,0,31.3-10.3,60.1-10.3c28.8,0,42.4,0.7,46.1,2.4c3.7,1.6,4.4,2.6,4.4,2.6l2.4-6.7 c0,0-2.6-2.8-16.9-3.9c-14.2-1.3-43.8-1.6-63.2,1.8C248.1,331.1,234.4,337.1,234.4,337.1z"></path> <linearGradient id="SVGID_27_" gradientUnits="userSpaceOnUse" x1="280.0086" y1="88.866" x2="288.025" y2="79.6936" gradientTransform="matrix(1 0 0 1 0 338)"> <stop offset="0" style="stop-color:#F8AD84"></stop> <stop offset="1" style="stop-color:#E6A483"></stop> </linearGradient> <path class="st39" d="M295.7,425c0,0,0.3-3.3-1.6-7.3s-6.7-6.4-11.4-7.8c-4.7-1.5-5.9,13-4.2,14C279.9,424.8,295.7,425,295.7,425z"></path> <linearGradient id="SVGID_28_" gradientUnits="userSpaceOnUse" x1="348.7256" y1="-66.1046" x2="322.6209" y2="-104.9534" gradientTransform="matrix(1 0 0 1 0 338)"> <stop offset="0" style="stop-color:#BF7A5A"></stop> <stop offset="1" style="stop-color:#E69A6E;stop-opacity:0"></stop> </linearGradient> <path class="st40" d="M320.9,267c0,0,3.9-11.1,3.9-22s-3.9-19.9-3.9-19.9s2.9-8.3,9.8-9.6c6.8-1.3,30.5,40.1,30.5,40.1l-3.6,14 C357.4,269.6,338.4,273.4,320.9,267z"></path> <g> <path class="st2" d="M314.4,143.8c0,0-2.8,11.6,3.6,44.2c6.4,32.6,14.2,32.1,23.6,37.8c9.5,5.7-13.2,18.9,15.6,31.3 c28.8,12.4,57.9,2,60.3-0.5"></path> <path class="st17" d="M314.4,143.8c-0.3,2-0.3,4.1-0.3,6c0,2,0.2,4.1,0.2,6c0.2,4.1,0.7,8,1.3,12.1c1.1,8,2.6,15.8,4.4,23.6 c0.8,3.9,2,7.8,3.1,11.6c1.3,3.7,2.8,7.3,4.9,10.6c1.1,1.6,2.3,3.1,3.6,4.4c1.3,1.3,2.9,2.3,4.7,3.3c1.6,1,3.6,2,5.4,2.9 c0.8,0.5,2,1.1,2.8,2.3c0.8,1.1,1.1,2.6,1.1,3.7c-0.2,2.4-0.8,4.4-1.3,6.4c-0.5,2-0.8,3.7-0.8,5.5c0.2,1.8,0.7,3.4,1.6,4.9 c1,1.5,2.4,2.9,3.9,3.9c3.1,2.4,6.7,4.1,10.3,5.7c3.6,1.5,7.5,2.6,11.4,3.6c3.9,0.8,7.8,1.5,11.7,1.8c3.9,0.3,8,0.3,11.9,0.2 c3.9-0.2,8-0.8,11.9-1.6c2-0.3,3.9-0.8,5.9-1.5c1-0.3,2-0.7,2.9-1c0.8-0.3,2-0.7,2.6-1.3c-0.8,0.7-1.6,1.1-2.6,1.6 c-0.8,0.3-2,0.8-2.8,1.1c-2,0.7-3.9,1.3-5.9,2c-3.9,1.1-7.8,1.8-11.9,2.3c-8.1,0.8-16.3,0.7-24.4-1c-4.1-0.8-8-2-11.9-3.4 c-3.9-1.5-7.7-3.3-11.1-5.9c-1.6-1.3-3.3-2.8-4.6-4.6c-1.3-2-2.1-4.1-2.1-6.4s0.3-4.4,0.8-6.4c0.5-2,1.1-3.9,1.1-5.5 s-0.7-2.4-2.4-3.4c-1.6-1-3.4-2-5.4-2.9c-1.8-1-3.6-2.1-5.2-3.6c-1.6-1.5-2.9-3.1-4.1-4.9c-2.3-3.6-3.7-7.5-5.1-11.4 c-1.3-3.9-2.1-7.8-2.9-11.9c-1.6-8-2.8-16-3.6-24.1c-0.3-4.1-0.7-8.1-0.7-12.1C313.4,151.8,313.6,147.9,314.4,143.8z"></path> </g> <linearGradient id="SVGID_29_" gradientUnits="userSpaceOnUse" x1="331.0079" y1="-70.6351" x2="328.4999" y2="-98.2226" gradientTransform="matrix(1 0 0 1 0 338)"> <stop offset="0" style="stop-color:#BF7A5A"></stop> <stop offset="1" style="stop-color:#E69A6E;stop-opacity:0"></stop> </linearGradient> <path class="st41" d="M325.8,268.7c0,0,3.9-7.7,3.9-13.9c0-6.2,0.7-19.4,2.6-17.4c3.9,3.9,1.3,32.9,1.3,32.9L325.8,268.7z"></path> <path class="st38" d="M265,187.8c0,0,10.4,5.1,18.3,17.9c7.8,13,15.2,41.7,16.1,49.5c0.7,5.2,1.6,10.8,1.6,10.8s16.1,6.7,29.3,8.1 c13.2,1.6,26.7-0.8,28.2-2.3c1.5-1.5,2.9-11.6,2.9-11.6l-3.1-0.7c0,0-1.3,8.1-2.1,8.8s-16.5,2.1-28.7,0c-13.4-2.3-22.3-6.7-23.1-8 s-5.1-28.4-13.4-45.1s-19.1-24.9-22.8-27.2L265,187.8z"></path> <g> <path class="st42" d="M272.4,141.1c-3.6,0.3-8.1-1.6-11.6-4.4c-5.1-3.9-7.8-0.3-7.8-0.3s-0.7-1.1-1.1-1.8c-1-0.8-2.8-0.7-3.7,0.5 c-2,2.3-0.8,2.4-0.8,2.4s-1.1,6.4,2.4,9.1c4.2,3.4,9.6,1.8,12.1,0.8C264.2,146.6,272.4,141.1,272.4,141.1z"></path> <path class="st43" d="M269.4,141.6c0,0-4.6,0.3-7.7-0.3c-4.6-1-2.9-1.5-5.2-1c-2.3,0.5-5.5-0.5-6.4-1.6c-0.8-1.1-2.1-1-2.1-1 s-0.2,2,1.3,3.6C251.2,143.7,253.6,145.6,269.4,141.6z"></path> </g> <linearGradient id="SVGID_30_" gradientUnits="userSpaceOnUse" x1="1324.0858" y1="-144.2713" x2="1289.2982" y2="-136.2581" gradientTransform="matrix(-0.9841 0.1774 0.1774 0.9841 1602.66 2.9242)"> <stop offset="0" style="stop-color:#D48864"></stop> <stop offset="1" style="stop-color:#F8AD84;stop-opacity:0"></stop> </linearGradient> <path class="st44" d="M294.9,105.1c0.7,0.8,1.1-8.8-2.1-12.2c-4.1-4.2-13.4-7.7-16.9-5.1c-4.2,3.1-7.2,15.8-5.5,17.1 C276.1,101.1,284.3,94.9,294.9,105.1z"></path> <linearGradient id="SVGID_31_" gradientUnits="userSpaceOnUse" x1="253.8534" y1="-243.5512" x2="237.461" y2="-233.9419" gradientTransform="matrix(1 0 0 1 0 338)"> <stop offset="0" style="stop-color:#C77C5A"></stop> <stop offset="1" style="stop-color:#F8AD84;stop-opacity:0"></stop> </linearGradient> <path class="st45" d="M239,93.3c0,0,2.6,9.9,2.9,9.9c0.2,0,2.6-4.4,6.7-3.6c4.1,0.8,7.3,3.4,7.3,3.4s0.5-4.1,0.2-7.8 c-0.2-2-1-3.9-1-3.9S242.9,94.8,239,93.3z"></path> <g> <g> <linearGradient id="SVGID_32_" gradientUnits="userSpaceOnUse" x1="133.1984" y1="787.3964" x2="132.8143" y2="802.2814" gradientTransform="matrix(0.9115 0.2634 0.2896 -1.0019 -67.0679 856.8318)"> <stop offset="0" style="stop-color:#D48864"></stop> <stop offset="1" style="stop-color:#F8AD84;stop-opacity:0"></stop> </linearGradient> <path class="st46" d="M293.2,105.4c-1.6-2-7.2-10.4-15.3-6.7c-2.6,1.1-3.7,3.7-7.2,4.6c-1.5,0.2,1.3,1.1,2,1.5 c2.4,1.6,1.8,3.9,8.8,5.2C288.3,111.4,294.9,107.2,293.2,105.4z"></path> <path class="st43" d="M283,97.9c-4.4-0.8-9.3,4.9-10.3,5.5c0.7,1.3,4.2,4.1,8.6,4.9s8.8-1,9.5-3.6 C291.1,102.1,287.2,98.7,283,97.9z"></path> <g> <ellipse transform="matrix(0.2777 -0.9607 0.9607 0.2777 105.9726 346.6988)" class="st47" cx="283.5" cy="102.9" rx="4.9" ry="4.9"></ellipse> <path class="st48" d="M282,108c-2.9-0.8-4.4-3.7-3.6-6.7s3.7-4.4,6.7-3.6c2.9,0.8,4.4,3.7,3.6,6.7 C287.9,107.2,284.8,108.8,282,108z M284.8,98.7c-2.3-0.7-4.7,0.7-5.4,2.9c-0.7,2.3,0.7,4.7,2.9,5.4c2.3,0.7,4.7-0.7,5.4-2.9 C288.3,101.8,286.9,99.3,284.8,98.7z"></path> </g> <path class="st49" d="M294.7,105.4c-2.1-2-2.1-3.7-3.6-5.5c-4.1-5.2-13.4-6.4-16.9-2c-2.6,2.6-3.6,4.6-2.4,4.6 c3.4-1.3,2.1-7.2,10.3-6.2c7.7,1,8,6.4,10.1,8C295.5,106.8,295.7,106.4,294.7,105.4z"></path> <path class="st50" d="M284.1,104.6c-2.8,0.7-4.4-1.6-4.1,0.2c0.5,2,2.4,2.9,4.6,2.4c2.1-0.5,3.4-2.4,2.9-4.4 C287,101,286.7,103.9,284.1,104.6z"></path> <ellipse transform="matrix(0.2777 -0.9607 0.9607 0.2777 105.9079 346.7751)" class="st48" cx="283.6" cy="103" rx="2.4" ry="2.4"></ellipse> <path class="st51" d="M277.8,98c-2.9,2-4.1,4.4-5.5,5.7c0,0,0.8-0.2,4.4-3.6c2.8-2.8,7.3-1.6,10.1,0.7c1,0.8,3.4,2.9,3.7,4.6 c0.8,0.3,2.8,0.7,4.1,0.8c-1.5-0.8-2.9-2.4-4.2-4.2C288.2,98.9,283,95.3,277.8,98z"></path> <path class="st51" d="M281,108.1c-4.9-0.8-7.8-3.9-7.8-3.9c1.1,2,6.2,7.3,15.8,3.7c0.8-0.2,2.1-0.7,2.8-0.7l-2-1.1 C289.8,106.2,286.9,109.1,281,108.1z"></path> </g> <ellipse transform="matrix(0.2777 -0.9607 0.9607 0.2777 106.5187 343.3618)" class="st43" cx="281.6" cy="100.8" rx="1.3" ry="1.3"></ellipse> </g> <path class="st52" d="M296.7,98.7c0.3,0.7-0.7-9.6-9.1-13.4c-7.3-3.1-11.6-1.3-11.9,0.2c-0.3,1.3-1,2.9,2.9,3.4 c3.7,0.3,6.8,0.3,9.9,1.8C293.7,92.7,295.2,96.9,296.7,98.7z"></path> <linearGradient id="SVGID_33_" gradientUnits="userSpaceOnUse" x1="247.4211" y1="-233.4983" x2="247.2076" y2="-225.2263" gradientTransform="matrix(1 0 0 1 0 338)"> <stop offset="0" style="stop-color:#D48864"></stop> <stop offset="1" style="stop-color:#F8AD84;stop-opacity:0"></stop> </linearGradient> <path class="st53" d="M239.6,101c0,0-1.3,1.5,0,2.6c1.3,1.1,2.6,3.1,6.5,3.6c4.9,0.5,8.5-2.1,9.1-2.8c0.7-0.7,0.7-2.1,0.7-2.1 s-15.2-2.4-15.8-1.8C239.5,101.3,239.6,101,239.6,101z"></path> <g> <path class="st43" d="M239.1,100.2c0,0,0.8,0.2,2.1,2.1c1.3,2.1,6.4,4.4,9.8,3.1c3.6-1.3,4.2-2.4,4.2-2.4s-0.8-4.9-3.3-6 C247,94.3,242.7,95.9,239.1,100.2z"></path> <g> <path class="st47" d="M249.4,96.4c2.3,0.7,3.6,3.1,2.9,5.5s-3.1,3.7-5.4,3.1c-2.3-0.7-3.6-3.1-2.9-5.5 C244.8,96.9,247.3,95.6,249.4,96.4z"></path> <path class="st48" d="M247,105.4c-2.6-0.8-4.1-3.6-3.3-6.2c0.7-2.6,3.4-4.1,5.9-3.4c2.6,0.8,4.1,3.6,3.3,6.2 C252.2,104.6,249.4,106,247,105.4z M249.4,96.7c-2.1-0.7-4.2,0.7-4.9,2.8s0.7,4.4,2.6,4.9c2.1,0.7,4.2-0.7,4.9-2.8 C252.7,99.7,251.5,97.4,249.4,96.7z"></path> </g> <path class="st50" d="M248.9,102.1c-2.4,0.7-4.1-1.5-3.6,0.2c0.3,1.6,2.3,2.6,4.1,2.1c2-0.5,2.9-2.3,2.6-3.9 C251.5,98.9,251.2,101.5,248.9,102.1z"></path> <path class="st48" d="M248.9,98.4c1.1,0.3,2,1.6,1.5,2.9c-0.3,1.1-1.6,2-2.8,1.6c-1.1-0.3-2-1.6-1.5-2.9 C246.5,98.7,247.8,98,248.9,98.4z"></path> <path class="st51" d="M255.3,102.9c0,0-1.1-2.9-3.4-5.4c-2.6-2.8-9-1.6-11.1,2c-2.1,3.4-5.1,1-5.1,1s2.3-0.8,4.6-3.1 c2.6-2.8,6.2-3.6,9.9-2.1C254.8,97.1,255.3,102.9,255.3,102.9z"></path> <path class="st51" d="M255.3,102.9c0,0-2.4,1.8-6.2,2.1c-3.9,0.3-6.5-1.1-9-4.4c0,0,2.4,4.6,6,5.1S253.6,104.7,255.3,102.9z"></path> <path class="st43" d="M246.6,97.9c0.5,0.2,0.8,0.7,0.7,1.3c-0.2,0.5-0.7,0.8-1.1,0.7c-0.5-0.2-0.8-0.7-0.7-1.3 C245.6,98,246.1,97.7,246.6,97.9z"></path> </g> <path class="st54" d="M284.3,453.1c0,0,5.5-3.3,15.2,3.9s17.9,18.6,16.1,33.7c-0.8,7.8,0.2-10.1-14.3-16.5 C281.2,465.4,274.8,459.2,284.3,453.1z"></path> <path class="st54" d="M359.1,455.1c-4.6-2.4-5.1-8.6,0.8-9.5c5.9-0.8,16.9,5.5,21.2,14.7c4.1,9.1,4.2,15.2,2.8,15.2 c-2.1,0-1.1-4.1-7.7-11.9C370.5,456.6,362.5,457.1,359.1,455.1z"></path> <linearGradient id="SVGID_34_" gradientUnits="userSpaceOnUse" x1="281.2694" y1="111.4754" x2="279.9497" y2="276.4464" gradientTransform="matrix(1 0 0 1 0 338)"> <stop offset="0" style="stop-color:#522469"></stop> <stop offset="1" style="stop-color:#701862;stop-opacity:0"></stop> </linearGradient> <path class="st55" d="M359.6,420.9L359.6,420.9c-0.7,1.3-9.9,20.2-37.3,20.2c-28.4,0-48.4-6.4-62.3,12.2 c-13.9,18.6-29,29.2-29,48.7s-14.7,54.4-12.7,83.6c0.2,2.6,0.3,5.4,0.7,8.1c-3.6-1.1-7.3-2.1-10.9-3.4c-0.7-0.2-1.3-0.5-2.1-0.7 c-1.1-19.9-2.1-40.6-2.6-58c-0.7-20.9-0.8-37,0.3-40.9c1.1-3.4,2.3-8.3,3.6-13.7c2.3-9.1,4.6-19.7,6-26.6c1-4.4,1.6-7.2,1.6-7.2 s0.5-0.3,1.5-0.8c7.2-4.2,40.1-22.2,83.4-17.1c15.5,2,26.6-0.2,35.9-2.4c6.4-1.6,13.9-5.4,16.8-9.9l1.6,1.6l0.8,1l0.2,0.2l0.2,0.2 l3.4,3.6L359.6,420.9z"></path> <path class="st56" d="M352.6,413.5c0,0-1.6,5.1-15.3,9.9c-13.9,4.7-37.3,1.6-47.4,0.8c-9.9-0.8-34.9-0.3-56.4,9 c-21.3,9.3-25.6,10.4-25.6,10.4v6.8c0,0,36.3-16.1,57.4-19.1c21-2.9,38.6,0.7,49.7,0.7s26.4-3.1,31.9-6.4c5.7-3.3,9.6-8.1,9.6-8.1 L352.6,413.5z"></path> <path class="st4" d="M250.4,189.8c0,0-17.6-5.9-26.2,12.5c-8.6,18.4-3.1,50.7,5.7,87.7c8.8,37,10.1,73,10.1,73 s-39.6,79.4-55.4,112.4c0,0-5.7,16.7,0.9,18.7c13.5,4.1,12.8-4.2,27.8-23.1c15.6-19.7,58.3-81.2,63.5-91.6 c9.6-19.9-4.2-92.6-3.9-106.4C273,259.1,279.9,231.7,250.4,189.8z"></path> <linearGradient id="SVGID_35_" gradientUnits="userSpaceOnUse" x1="271.402" y1="39.0954" x2="230.2597" y2="86.4845" gradientTransform="matrix(1 0 0 1 0 338)"> <stop offset="0" style="stop-color:#D48864"></stop> <stop offset="1" style="stop-color:#F8AD84;stop-opacity:0"></stop> </linearGradient> <path class="st57" d="M278.2,375.6c0,0-7.8,17.8-19.1,7.7c-5.7-5.1-4.4-6.8-9.1-2.3c-4.2,4.2-21.7,29.8-24.9,43.3 c-3.3,13.7,19.4,4.6,19.4,4.6S275.3,383.9,278.2,375.6"></path> <linearGradient id="SVGID_36_" gradientUnits="userSpaceOnUse" x1="273.4214" y1="-64.0724" x2="280.8213" y2="-79.3344" gradientTransform="matrix(1 0 0 1 0 338)"> <stop offset="0" style="stop-color:#D98B66"></stop> <stop offset="1" style="stop-color:#E69A6E;stop-opacity:0"></stop> </linearGradient> <path class="st58" d="M272.7,273.7c0,0-1.6-6.2,2.6-14.5c4.1-8.3,8.3,0,8.3,0S283,274.9,272.7,273.7z"></path> <linearGradient id="SVGID_37_" gradientUnits="userSpaceOnUse" x1="164.8846" y1="32.1" x2="125.4764" y2="92.8438" gradientTransform="matrix(0.9474 0.3201 -0.3201 0.9474 126.9734 -55.0412)"> <stop offset="0" style="stop-color:#6D133C"></stop> <stop offset="1" style="stop-color:#51062A;stop-opacity:0"></stop> </linearGradient> <path class="st59" d="M230,83.4c0,0,9.6-14.3,18.4-21.8s24.9-12.7,27.7-15.8c2.8-3.1,8.3-10.8,2-14.3c-6.4-3.7,9.5,1.5,9.5,1.5 s2.3-4.1-8.8-9.8c-11.2-5.7-35.7,2-46,18.3c-8.8,14.2,19.9-9.3,33.1-3.6C267.3,38.4,231.8,52.9,230,83.4z"></path> <linearGradient id="SVGID_38_" gradientUnits="userSpaceOnUse" x1="359.846" y1="-123.2251" x2="312.6263" y2="-227.8838" gradientTransform="matrix(1 0 0 1 0 338)"> <stop offset="0" style="stop-color:#51062A"></stop> <stop offset="1" style="stop-color:#400320"></stop> </linearGradient> <path class="st60" d="M329.6,109.6c0,0,18.4,11.7,25.1,32.8c4.9,15.5-5.1,39.8,12.5,57.4c9,9-9.8,25.9-31.8,11.9 c-15-9.5-24.3-49.9-21.7-64c2.6-14.3,3.1-17.6,3.1-17.6S329.9,129.3,329.6,109.6z"></path> <linearGradient id="SVGID_39_" gradientUnits="userSpaceOnUse" x1="422.9245" y1="-71.7043" x2="383.6648" y2="-55.0548" gradientTransform="matrix(1 0 0 1 0 338)"> <stop offset="0" style="stop-color:#51062A"></stop> <stop offset="1" style="stop-color:#400320"></stop> </linearGradient> <path class="st61" d="M379.9,264.1c0,0,22,1,36.8-6.8c5.4-2.9,10.4,34.7-31.1,44.2L379.9,264.1z"></path> <g> <linearGradient id="SVGID_40_" gradientUnits="userSpaceOnUse" x1="185.4118" y1="531.8177" x2="200.5935" y2="494.5537"> <stop offset="0" style="stop-color:#D98B66"></stop> <stop offset="1" style="stop-color:#E69A6E"></stop> </linearGradient> <path class="st62" d="M208.1,476.9c-1.8,2.9-3.6,5.5-3.6,11.5c0,8.7-4.5,20.8-7.8,24c-2.3,2.3-5.5,4.7-7.3,6.8 c0.6-0.1,3.9-0.5,3.9,2.6c0,3.4,1.1,8.4-3.7,12.7c-5.2,4.6-8.9,1-9.7,0c0-0.1,0-0.1,0-0.2c0.8,0,5,0,5-4.7 c0-5.2,0.9-12.3,0.9-14.7c0-2.4,6.6-5,10.4-14.4C199.9,491.2,198,485.6,208.1,476.9z"></path> <path class="st4" d="M185.7,473.6c0,0-3.9,8.7-10.3,15.1c-6.4,6.4-10.7,13.3-13.4,15.3c-2,1.5-3.5,2.8-4.3,6.4 c-0.5,2.6-0.3,11.6-0.4,17c0,0,0,0,0,0.1v0.1c0,1.1,0.2,5.6,2.7,4.7c1.8-0.6,2.4-6.9,2.6-11.3c-0.1,3.5,0,8.3,0.3,11.9 c0.1,0.3,0.8,2.4,3.9,2.4c3.2,0,3.2-18,3.2-19.7c0,1.6,0.6,12.9,0.9,18.4c0,0,1.8,2.9,5.2,0.9c1.8-1.1,2.4-4.9,2.6-8.3 c-0.2-1.8,0-3.5,0-5.6c0,0-0.2,2.1,0,5.6c0.3,3,0.9,5.7,1,7.7c0.8,0,5,0,5-4.7c0-5.2,0.9-12.3,0.9-14.7c0-2.4,6.6-5,10.4-14.4 c3.8-9.4,1.9-15.1,11.9-23.7c0,0,0,0,0,0c0.8-1.3,1.7-2.6,2.4-4.4C212.7,466.8,194.6,450,185.7,473.6z M162.8,521.1 c0-2.6,0.1-4.4,0.1-4.4S162.9,518.6,162.8,521.1z"></path> <linearGradient id="SVGID_41_" gradientUnits="userSpaceOnUse" x1="159.4471" y1="537.0685" x2="161.1723" y2="529.0176"> <stop offset="0" style="stop-color:#D98B66"></stop> <stop offset="1" style="stop-color:#E69A6E"></stop> </linearGradient> <path class="st63" d="M163.7,536.4c-3.7,0.6-6.3-0.8-6.3-4.1c0-0.4-0.1-2.5,0-4.6c0,1.1,0.2,5.6,2.7,4.7c1.8-0.6,2.4-6.9,2.6-11.3 c-0.1,3.5,0,8.3,0.3,11.9C163.2,534.3,163.4,535.5,163.7,536.4z"></path> <linearGradient id="SVGID_42_" gradientUnits="userSpaceOnUse" x1="188.1753" y1="523.908" x2="194.6735" y2="524.3968"> <stop offset="0" style="stop-color:#BF7450"></stop> <stop offset="1" style="stop-color:#E69A6E;stop-opacity:0"></stop> </linearGradient> <path class="st64" d="M189.6,519.6c0,0-1.3,1.8-1.3,2.6c0,2.5-1.5,6.6,0.9,6.6c1.7,0,2-0.1,2-0.1s2.1-3.6,2.1-6 S192.4,518.5,189.6,519.6z"></path> <linearGradient id="SVGID_43_" gradientUnits="userSpaceOnUse" x1="173.8776" y1="538.6527" x2="176.3312" y2="532.8254"> <stop offset="0" style="stop-color:#D98B66"></stop> <stop offset="1" style="stop-color:#E69A6E"></stop> </linearGradient> <path class="st65" d="M179.9,534.7c0,2.4-1.8,3.8-4.6,3.8c-4.5,0-4-2-4.1-2.7c0-0.1,0-0.1,0-0.2c0-0.4,0-0.9-0.1-1.4 c0,0,1.8,2.9,5.2,0.9c1.8-1.1,2.4-4.9,2.6-8.3c0.3,3,0.9,5.7,1,7.7c-0.1,0-0.1,0-0.1,0S179.8,534.5,179.9,534.7z"></path> <linearGradient id="SVGID_44_" gradientUnits="userSpaceOnUse" x1="165.8616" y1="539.3948" x2="167.2035" y2="534.9476"> <stop offset="0" style="stop-color:#D98B66"></stop> <stop offset="1" style="stop-color:#E69A6E"></stop> </linearGradient> <path class="st66" d="M171.3,537.1c-0.7,2.9-6.1,2.6-7,0.6c-0.1-0.3-0.4-0.7-0.6-1.3c-0.2-0.9-0.4-2.1-0.6-3.4 c0.1,0.3,0.8,2.4,3.9,2.4c3.2,0,3.2-18,3.2-19.7c0,1.6,0.6,12.9,0.9,18.4c0,0.5,0,1,0.1,1.4c0,0.1,0,0.1,0,0.2 C171.2,536.6,171.3,537.1,171.3,537.1z"></path> <linearGradient id="SVGID_45_" gradientUnits="userSpaceOnUse" x1="182.7414" y1="495.4972" x2="175.2272" y2="507.7652"> <stop offset="0" style="stop-color:#F8AD84"></stop> <stop offset="1" style="stop-color:#FFB996"></stop> </linearGradient> <path class="st67" d="M157.9,510c0,0-0.1,1.8,1.7,2.3c1.8,0.4,4.4-0.9,4.4-0.9s-0.2,3.1,3.2,3.7c3.4,0.6,3.2-1.5,3.2-1.5 s1,2.2,4.4,1.8c3.3-0.3,3.6-1.3,3.6-1.3s2,1.6,5.4,0.9s10.4-10.1,11.5-13s-3-10.1-8.9-10.5c-5.9-0.4-11.7,0.1-13.5,1.9 c-1.8,1.8-9.9,10-9.9,10S158.3,505.7,157.9,510z"></path> </g> </g> </svg> 