<?xml version="1.0" encoding="utf-8"?>
<!-- Generator: Adobe Illustrator 22.0.1, SVG Export Plug-In . SVG Version: 6.00 Build 0)  -->
<svg version="1.1" id="Layer_1" xmlns="http://www.w3.org/2000/svg" xmlns:xlink="http://www.w3.org/1999/xlink" x="0px" y="0px"
	 viewBox="0 0 608 608" style="enable-background:new 0 0 608 608;" xml:space="preserve">
<style type="text/css">
	.st0{fill:none;}
	.st1{fill:url(#SVGID_1_);}
	.st2{fill:url(#SVGID_2_);}
	.st3{fill:none;stroke:#F9B9DE;stroke-miterlimit:10;}
	.st4{fill:#51062A;}
	.st5{fill:none;stroke:#961E4C;stroke-width:3;stroke-miterlimit:10;}
	.st6{fill:url(#SVGID_3_);}
	.st7{fill:url(#SVGID_4_);}
	.st8{fill:#F8AD84;}
	.st9{fill:url(#SVGID_5_);}
	.st10{fill:#BA3175;}
	.st11{fill:url(#SVGID_6_);}
	.st12{fill:url(#SVGID_7_);}
	.st13{fill:url(#SVGID_8_);}
	.st14{opacity:0.57;fill:url(#SVGID_9_);enable-background:new    ;}
	.st15{opacity:0.57;fill:url(#SVGID_10_);enable-background:new    ;}
	.st16{fill:url(#SVGID_11_);}
	.st17{fill:url(#SVGID_12_);}
	.st18{opacity:0.64;fill:url(#SVGID_13_);enable-background:new    ;}
	.st19{fill:url(#SVGID_14_);}
	.st20{opacity:0.39;fill:url(#SVGID_15_);enable-background:new    ;}
	.st21{fill:url(#SVGID_16_);}
	.st22{opacity:0.29;fill:url(#SVGID_17_);enable-background:new    ;}
	.st23{fill:url(#SVGID_18_);}
	.st24{opacity:0.3;fill:url(#SVGID_19_);enable-background:new    ;}
	.st25{fill:url(#SVGID_20_);}
	.st26{fill:url(#SVGID_21_);}
	.st27{fill:url(#SVGID_22_);}
	.st28{fill:url(#SVGID_23_);}
	.st29{fill:url(#SVGID_24_);}
	.st30{fill:#A01C64;}
	.st31{fill:url(#SVGID_25_);}
	.st32{opacity:0.69;fill:url(#SVGID_26_);enable-background:new    ;}
	.st33{fill:url(#SVGID_27_);}
	.st34{opacity:0.61;fill:url(#SVGID_28_);enable-background:new    ;}
	.st35{fill:url(#SVGID_29_);}
	.st36{fill:#E89972;}
	.st37{fill:#6E0001;}
	.st38{fill:#DD8C68;}
	.st39{fill:#BD3624;}
	.st40{fill:#FFFFFF;}
	.st41{fill:#DB7556;}
	.st42{fill:#961E4C;}
	.st43{fill:url(#SVGID_30_);}
	.st44{fill:url(#SVGID_31_);}
	.st45{opacity:0.68;fill:url(#SVGID_32_);enable-background:new    ;}
	.st46{opacity:0.68;fill:url(#SVGID_33_);enable-background:new    ;}
	.st47{opacity:0.44;fill:url(#SVGID_34_);enable-background:new    ;}
	.st48{opacity:0.44;fill:url(#SVGID_35_);enable-background:new    ;}
	.st49{opacity:0.44;fill:url(#SVGID_36_);enable-background:new    ;}
	.st50{fill:#FFC2B6;}
	.st51{opacity:0.44;fill:url(#SVGID_37_);enable-background:new    ;}
	.st52{opacity:0.27;fill:url(#SVGID_38_);enable-background:new    ;}
	.st53{opacity:0.27;fill:url(#SVGID_39_);enable-background:new    ;}
	.st54{opacity:0.27;fill:url(#SVGID_40_);enable-background:new    ;}
	.st55{opacity:0.27;fill:url(#SVGID_41_);enable-background:new    ;}
	.st56{opacity:0.27;fill:url(#SVGID_42_);enable-background:new    ;}
	.st57{opacity:0.27;fill:url(#SVGID_43_);enable-background:new    ;}
	.st58{opacity:0.27;fill:url(#SVGID_44_);enable-background:new    ;}
	.st59{opacity:0.27;fill:url(#SVGID_45_);enable-background:new    ;}
	.st60{opacity:0.27;fill:url(#SVGID_46_);enable-background:new    ;}
	.st61{fill:url(#SVGID_47_);}
	.st62{opacity:0.56;fill:url(#SVGID_48_);enable-background:new    ;}
	.st63{fill:url(#SVGID_49_);}
	.st64{fill:#4F0E4F;}
	.st65{opacity:0.44;fill:url(#SVGID_50_);enable-background:new    ;}
	.st66{opacity:0.44;fill:url(#SVGID_51_);enable-background:new    ;}
	.st67{fill:url(#SVGID_52_);}
	.st68{opacity:0.27;fill:url(#SVGID_53_);enable-background:new    ;}
	.st69{opacity:0.27;fill:url(#SVGID_54_);enable-background:new    ;}
	.st70{fill:url(#SVGID_55_);}
	.st71{fill:url(#SVGID_56_);}
</style>
<g id="Layer_1_1_">
	<circle class="st0" cx="304" cy="304" r="302.3"/>
</g>
<g id="Layer_2_1_">
	
		<linearGradient id="SVGID_1_" gradientUnits="userSpaceOnUse" x1="3106.5369" y1="481.4199" x2="3076.218" y2="440.7288" gradientTransform="matrix(-0.9991 -4.200788e-02 -4.200788e-02 0.9991 3282.0083 186.8525)">
		<stop  offset="0" style="stop-color:#D18563"/>
		<stop  offset="1" style="stop-color:#F8AD84"/>
	</linearGradient>
	<path class="st1" d="M166.5,529.9c-3-1.3-5.6-3.1-7.7-5.5v0.1c-2.6,2.4-9.1,17.2-8.7,19.8c0.3,2.7-1.6,7-1.1,9.9s1.5,2.6,1.5,2.6
		c4.8-0.8,6.6-10.2,6.6-10.2c1.5-2.8,2-6.7,3.8-9.3c1.5-2,4.5-5.6,5.5-7C166.4,530.3,166.5,530.2,166.5,529.9z"/>
	
		<linearGradient id="SVGID_2_" gradientUnits="userSpaceOnUse" x1="481.0211" y1="99.0332" x2="500.5441" y2="99.0332" gradientTransform="matrix(1 0 0 1 0 112)">
		<stop  offset="0" style="stop-color:#D18662"/>
		<stop  offset="1" style="stop-color:#EDA076"/>
	</linearGradient>
	<path class="st2" d="M499.8,206.2c0,0-12.1,4.6-17.6,8c-5.5,3.5,10.5,0.4,10.5,0.4S503.5,209.9,499.8,206.2z"/>
	<path class="st3" d="M444.5,571L444.5,571"/>
	<g>
		<g id="XMLID_45_">
			<g>
				<path class="st4" d="M383.8,153.2c0,0,17.6-34.1-4.4-83.5s-59.9-34.6-59.9-34.6c-7.2-3.9-14.6-15-41.8-9.5
					c-22.6,4.4-66.2,62.9-66.2,62.9s-35.2,18.4-52.1,60.9c-12.1,30.3,11.2,56.3,12.9,70.8c1.7,14.6-27.5,42.7-1.1,74.5
					s96.5,9.5,96.5,9.5s7.3,18.8,91.6-11.3C437.1,265,384.1,154.3,383.8,153.2z"/>
			</g>
			<g>
				<path class="st5" d="M383.7,153.2L383.7,153.2"/>
				<path class="st5" d="M383.8,153.2c0.3,1,53.5,111.7-24.7,139.7c-84.3,30.2-91.6,11.3-91.6,11.3s-70.1,22.3-96.5-9.5
					c-26.3-31.8,2.8-60,1.1-74.5s-25-40.6-12.9-70.8c17-42.5,52.1-60.9,52.1-60.9s43.6-58.3,66.3-62.9c27.2-5.5,34.8,5.5,41.8,9.5
					c0,0,37.9-14.7,59.9,34.6S383.8,153.2,383.8,153.2z"/>
			</g>
		</g>
		
			<linearGradient id="SVGID_3_" gradientUnits="userSpaceOnUse" x1="325.8132" y1="-1248.922" x2="365.1316" y2="-1248.5889" gradientTransform="matrix(1 0 0 -1 0 -716)">
			<stop  offset="0" style="stop-color:#441454"/>
			<stop  offset="0.8838" style="stop-color:#5D2777"/>
		</linearGradient>
		<path class="st6" d="M353.8,602.2c-0.6,0.1-7.8,1.2-11.1,1.6c-0.8,0.1-3.3,0.3-3.5,0.4c-1.6,0.2-6.3,0.7-7,0.7
			c-4.5-24-10.1-48.4-15.9-58.7c-12.7-22.6,0.1-42.9,4.6-53.5c0.2-0.5,0.4-1,0.6-1.4c1.9-5.2,10.3-14.8,18.6-21.9
			c5-4.3,10.1-7.6,13.7-8.5c1.3-0.3,2.5-0.4,3.4,0c0.3,0.1,0.7,0.4,0.9,0.6c0,0,0.1,0.8,0.2,2.4l0,0
			C359.1,476.3,361.9,536.5,353.8,602.2z"/>
		
			<linearGradient id="SVGID_4_" gradientUnits="userSpaceOnUse" x1="2908.1194" y1="242.6239" x2="2776.647" y2="103.6387" gradientTransform="matrix(-1 0 0 1 3281.759 112)">
			<stop  offset="5.405406e-03" style="stop-color:#BF7856"/>
			<stop  offset="1" style="stop-color:#F8AD84"/>
		</linearGradient>
		<path class="st7" d="M470.2,261.2c0,0-13,13.1-21.5,25.9s-44.1,84.1-74.5,90.9c-30.5,7-16.1-46.9,4.6-61.2
			c20.7-14.3,73.7-68.9,78.5-73.8c6.4-6.4,12.3-5.9,16.9-1.3C478.3,246,477.4,257.1,470.2,261.2z"/>
		<path class="st8" d="M249.8,422.5c0,0.2,0.2,5.7,26,22.5c26.2,17,50.4,23,70,24.8c7,0.7,8.3-10.2,8.3-10.2
			c5.7-12.7,8.5-16.5,9-29.7c0.8-25.6,7.4-35.4,7.4-35.4c8-17.8,11.7-28.4,12.7-31.5c0.1-0.3,1.6-5.8,1.6-5.8S346.6,343,275.3,357
			c0,0,8,22.4-2.2,41.9C269.4,405.9,259.6,414.9,249.8,422.5z"/>
		<path class="st8" d="M266.5,219.4c25.8,12,31.7,43.6,31.7,43.6c7.2,0.6,26,3.1,33.6,5.5c19.7,6.1,32.1,17.5,32.1,17.5
			c8.2-11.4,5.3-26.5,5.3-26.5c-8.5-22-19.8-43.2-19.8-43.2c-3.6-0.9-12.4-1.5-13.7-2.6c-8.7-8.7-11.3-25.6-9.8-37.8
			c0,0,6.1-23.1-17.9-23.1s-24.3,8-19.8,34.5c0,0,3.8,21.4-0.2,25.6C285.1,215.8,274.8,218.2,266.5,219.4z"/>
		
			<linearGradient id="SVGID_5_" gradientUnits="userSpaceOnUse" x1="2908.5249" y1="123.8324" x2="2899.8149" y2="109.1449" gradientTransform="matrix(-1 0 0 1 3281.759 112)">
			<stop  offset="0" style="stop-color:#D18662"/>
			<stop  offset="1" style="stop-color:#F8AD84"/>
		</linearGradient>
		<path class="st9" d="M382.9,261.3c0,0,3.7-27.9-0.2-34.5c-4-6.6-8.5-8.3-15.9-8.3c-2.1,0-4.8-0.2-7.7-0.6L382.9,261.3z"/>
		<path class="st10" d="M252.2,307.3c2.8,13.7,19.8,39.5,21.3,43.8c3.9,11.8,3.5,13.9,3.5,13.9c40-10.4,71.6-9,89.6-6.2
			c17,2.7,16.6,4.5,16.6,4.5c4.9-15.7,5.6-33.1,5.6-33.1c9.4-4.5,16.3-14.2,17.8-26c0.2-1.8,0.1-4.4-0.2-6.3
			c-3-20.6-23.4-36.4-23.4-36.4c-0.7-1.6-5.2-10.4-5.8-12c-11.7-24.7-17.6-30.8-18.2-31.4l0,0c-3.1-0.3-6.6-0.9-9.5-1.7
			c0,0,11.3,21.2,19.8,43.2c0,0,2.8,15-5.3,26.5c0,0-11.3-10.8-31.1-16.8c-7.6-2.4-25.7-4.3-30.7-4.7c0,0-10-33.1-35.6-45.1
			c-3.6,0.6-7,0.8-9.1,0.8c-0.6,0-1.1,0-1.8,0c2.8,2.2,22.8,13.2,27.6,50.7C288,310.1,252.2,307.3,252.2,307.3z"/>
		
			<linearGradient id="SVGID_6_" gradientUnits="userSpaceOnUse" x1="2994.8494" y1="171.3941" x2="3022.0999" y2="155.2019" gradientTransform="matrix(-1 0 0 1 3281.759 112)">
			<stop  offset="0" style="stop-color:#D18662"/>
			<stop  offset="8.466328e-02" style="stop-color:#D48965"/>
			<stop  offset="1" style="stop-color:#F8AD84"/>
		</linearGradient>
		<path class="st11" d="M252.2,307.3c0,0,35.9,0.3,30.9-38.8c-4.7-37.6-24.8-46-27.6-48.3l0,0c-8.3,0.2-22.6-1.2-26.5,25.1
			C226.2,266.2,252.2,307.3,252.2,307.3z"/>
		
			<linearGradient id="SVGID_7_" gradientUnits="userSpaceOnUse" x1="2798.522" y1="124.9701" x2="2823.2007" y2="147.298" gradientTransform="matrix(-1 0 0 1 3281.759 112)">
			<stop  offset="0" style="stop-color:#D18662"/>
			<stop  offset="1" style="stop-color:#EDA076"/>
		</linearGradient>
		<path class="st12" d="M468.4,262c0,0,8.5-4.1,14.7-6.1c7.2-2.1,19.7-6.2,21.3-13c1.6-6.7,1-15.6-2.8-20.7
			c-3.8-5.2-11.4-12-16.1-10.5c-4.8,1.5-24.3,16-27.1,23C455.5,241.6,448.3,256.2,468.4,262z"/>
		
			<linearGradient id="SVGID_8_" gradientUnits="userSpaceOnUse" x1="2933.0935" y1="175.6682" x2="2939.4133" y2="159.6407" gradientTransform="matrix(-1 0 0 1 3281.759 112)">
			<stop  offset="0" style="stop-color:#C46C41"/>
			<stop  offset="1" style="stop-color:#F8AD84;stop-opacity:0"/>
		</linearGradient>
		<path class="st13" d="M362.4,284c0,0,9.6-7.7,6.8-24.4l-7.4-16.4c0,0,3.5,13.3-1.6,25.3c-1.8,4.3-10.4,1.3-16.1-0.7
			c-13.9-4.9-32.1-5.4-37-5.4C307.1,262.3,343.6,270.5,362.4,284z"/>
		
			<linearGradient id="SVGID_9_" gradientUnits="userSpaceOnUse" x1="-5547.5327" y1="-690.9081" x2="-5539.4106" y2="-705.7991" gradientTransform="matrix(1.1438 -0.182 0.1769 0.985 6768.5229 -89.6656)">
			<stop  offset="0" style="stop-color:#E89166"/>
			<stop  offset="1" style="stop-color:#F8AD84;stop-opacity:0"/>
		</linearGradient>
		<path class="st14" d="M290.8,237c7.2,3.1,12.9,4.7,29.3,4.8c9.3,0.1,3.7-4.5-1.9-5.2c-7-0.8-18.2-1-30.6-11.3
			c-2.9-2.5-6.3-0.9-5.6,3.1C282.2,229.5,282,233.2,290.8,237z"/>
		
			<linearGradient id="SVGID_10_" gradientUnits="userSpaceOnUse" x1="3225.1768" y1="686.1403" x2="3233.6875" y2="677.4969" gradientTransform="matrix(-0.9893 -0.1456 -0.1456 0.9893 3639.3347 27.7702)">
			<stop  offset="0" style="stop-color:#E89166"/>
			<stop  offset="1" style="stop-color:#F8AD84;stop-opacity:0"/>
		</linearGradient>
		<path class="st15" d="M335.7,235.8c0.6-0.4,9-3.1,11.5-9c2.6-5.8,8.3-4,7.2-1.9s-2.6,12.7-11.3,14.3
			C334.3,240.9,332.9,237.9,335.7,235.8z"/>
		
			<linearGradient id="SVGID_11_" gradientUnits="userSpaceOnUse" x1="476.7714" y1="124.332" x2="465.186" y2="114.3724" gradientTransform="matrix(1 0 0 1 0 112)">
			<stop  offset="0" style="stop-color:#D18662"/>
			<stop  offset="1" style="stop-color:#EDA076"/>
		</linearGradient>
		<path class="st16" d="M468.5,244.1c3.6-1.6,9.9-5,9.9-13.5s-2.4-15.8-2.8-16.1s-3.6-5.6-8.2-4.3c-2.2,0.7-6.7,12.3-8.5,17.5
			s-1.8,12.9,1.2,15.7S468.5,244.1,468.5,244.1z"/>
		<path class="st8" d="M258.3,414.8c6.5,8.3,25.4,20.7,37,25.8c46.3,19.8,65.9,12.1,65.5,12.7c2.8-7.2-2.1-14.6,0.1-22.9
			c3.7-13.8,6.4-26.8,7.2-31.1c1.5-8.3-48.1-29.9-90-25.7c0,0,3,21.9-13.7,36.3C262.3,411.6,260.2,413.3,258.3,414.8z"/>
		
			<linearGradient id="SVGID_12_" gradientUnits="userSpaceOnUse" x1="336.8281" y1="-1416.3907" x2="293.2061" y2="-1223.7633" gradientTransform="matrix(1 0 0 -1 0 -716)">
			<stop  offset="0" style="stop-color:#851C73"/>
			<stop  offset="1" style="stop-color:#582978"/>
		</linearGradient>
		<path class="st17" d="M361.8,451.2c-0.1,0.2-0.1,0.3-0.2,0.5l0,0c-0.4,1.2-0.7,2.6-1.1,4v0.1c-0.6,2.7-1.1,5.5-2,7.6
			c0,0.1,0,0.1-0.1,0.2l0,0c-0.2,0.5-0.4,0.9-0.6,1.3c-4.4,8.1-9.4,15.9-14.4,22.9c-0.6,0.9-1.2,1.7-1.8,2.5c0,0.1-0.1,0.1-0.1,0.1
			c-6.8,9.4-12.7,16.5-15,19.1c0,0,0,0,0,0.1l0,0c-0.6,0.7-0.9,1-0.9,1c6.4,24.1,10.9,59.2,13.6,93.6c-1.4,0.2-15.8,1.7-37,2.1
			c-11.4,0.2-35.9-2.3-36.7-2.4c-4.4-0.5-17.3-2.7-17.4-2.7c-0.2-0.6-0.3-1.3-0.5-1.9c-0.3-1.3-0.7-2.6-1-3.9
			c-0.2-0.9-0.4-1.8-0.7-2.6c-6.7-24.9-11.1-43.4-11.8-46.3c0-0.1-0.1-0.2-0.1-0.3s0-0.1,0-0.1s-1.3-1.2-3.3-3.6
			c-0.1-0.1-0.3-0.3-0.4-0.5c-0.2-0.2-0.4-0.5-0.7-0.8c-0.2-0.3-0.4-0.5-0.6-0.8s-0.4-0.5-0.6-0.8c-3.2-4-7.3-9.8-10.8-17
			c-0.2-0.4-0.5-0.9-0.7-1.3c-2.1-4.6-4.1-9.8-5.5-15.4c-0.7-2.7-1.1-5.5-1.4-8.2c0-0.3-0.1-0.6-0.1-0.9l0,0
			c-0.1-1.1-0.3-2.2-0.3-3.2c-0.1-1-0.1-2.1-0.1-3.1l0,0c0-0.3,0-0.7,0-1c0-1.4,0-2.9,0.2-4.3c0.3-5.6,1.3-11.1,2.8-16.3
			c3-10.4,8-19.6,14-26.3c0.7-0.8,0.2-1,0.9-1.7l0.8-0.8c1.3-1.1,2.6-2.1,3.7-3.1c1.5-1.2,2.8-2.4,4.1-3.5l0,0
			c6.2-5.3,11-9.6,19.1-16c0.1,0,0.1-0.1,0.2-0.1c0.3-0.3,0.7-0.6,1.1-0.8l0.1-0.1c0.5-0.4,1.2-1,1.8-1.4l0,0l0,0
			c0.1,0.1,0.2,0.1,0.2,0.3l0,0l0,0c0,0,0,0.1,0.1,0.1c0,0,0,0,0.1,0.1c0.1,0.2,0.3,0.5,0.6,0.7c0.2,0.2,0.4,0.4,0.7,0.8
			c0.2,0.2,0.4,0.5,0.7,0.7c0.2,0.2,0.3,0.4,0.5,0.6l0,0c0.1,0.1,0.1,0.1,0.2,0.2c0.7,0.7,1.5,1.4,2.2,2c0.1,0.1,0.3,0.3,0.5,0.4
			c0.3,0.3,0.7,0.6,1,0.9c0.3,0.2,0.7,0.6,1,0.8c0.2,0.2,0.5,0.4,0.7,0.6l0,0l0,0l0,0c0,0,0.1,0,0.1,0.1l0,0l0,0l0,0c0,0,0,0,0.1,0
			c0,0.1,0.1,0.1,0.1,0.1c0,0.1,0.1,0.1,0.1,0.1c0.2,0.1,0.3,0.3,0.5,0.4l0,0c0,0,0,0,0.1,0s0.1,0.1,0.2,0.1l0.1,0.1l0,0
			c0.1,0.1,0.2,0.2,0.3,0.2l0.1,0.1c0.2,0.1,0.3,0.2,0.5,0.3c0.2,0.2,0.5,0.3,0.8,0.6c0.3,0.3,0.8,0.6,1.1,0.9
			c0.9,0.6,1.7,1.2,2.6,1.8l0.1,0.1c0.3,0.2,0.7,0.5,1.1,0.8c0.3,0.2,0.4,0.3,0.7,0.5l0,0c0.1,0.1,0.1,0.1,0.2,0.1s0.1,0.1,0.2,0.1
			c0.1,0.1,0.2,0.1,0.3,0.2c0,0,0.1,0,0.1,0.1c0.2,0.1,0.3,0.2,0.6,0.3c0.2,0.2,0.6,0.3,0.8,0.6c0.1,0.1,0.2,0.1,0.2,0.2
			c0.1,0.1,0.2,0.1,0.3,0.2c0,0,0,0,0.1,0l0,0l0,0c0.3,0.2,0.6,0.4,0.9,0.5c0.3,0.2,0.6,0.4,0.9,0.6c0.4,0.2,0.7,0.4,1,0.7l0,0
			c0.1,0.1,0.2,0.1,0.3,0.2s0.2,0.1,0.3,0.2l0,0c0,0,0,0,0.1,0c0,0,0,0,0.1,0l0,0l0,0c0,0,0.1,0,0.1,0.1l0,0
			c0.2,0.1,0.3,0.2,0.5,0.3c0.1,0.1,0.3,0.2,0.5,0.3c0.4,0.2,0.8,0.5,1.2,0.7c1.6,0.9,3.1,1.8,4.7,2.6l0,0c0.2,0.1,0.3,0.2,0.5,0.2
			c0.2,0.1,0.3,0.2,0.5,0.3c0.2,0.1,0.3,0.2,0.5,0.3c0.1,0,0.1,0.1,0.2,0.1c0.2,0.1,0.3,0.2,0.5,0.3c0.5,0.3,1,0.5,1.5,0.8h0.1
			c0.4,0.2,0.8,0.4,1.2,0.6l0,0l0,0l0,0l0,0c0.1,0,0.1,0.1,0.2,0.1h0.1c0,0,0.1,0,0.1,0.1l0,0c0.1,0,0.1,0.1,0.2,0.1
			c0.1,0.1,0.2,0.1,0.3,0.1s0.2,0.1,0.3,0.1c0.2,0.1,0.4,0.2,0.6,0.3c0.1,0,0.2,0.1,0.2,0.1c0.1,0,0.2,0.1,0.3,0.2
			c0.4,0.1,0.7,0.3,1.1,0.4c0.8,0.3,1.5,0.6,2.2,0.9c0.1,0,0.3,0.1,0.4,0.2c4.8,2,9.4,3.6,13.5,4.9c0.1,0.1,0.3,0.1,0.4,0.1
			c4.7,1.5,9.1,2.7,13.1,3.5l0,0c0.2,0,0.3,0.1,0.5,0.1c3.1,0.7,6,1.2,8.7,1.5s5.1,0.5,7.2,0.6c0.2,0,0.5,0,0.7,0l0,0
			c0.7,0,1.4,0,2.1,0c4.5,0,7.9-0.4,10.4-0.8c0.2,0,0.4-0.1,0.6-0.1c0.5-0.1,0.8-0.2,1.2-0.3l0,0c0.5-0.1,0.9-0.3,1.3-0.4
			s0.7-0.3,1-0.3c0.1,0,0.2-0.1,0.3-0.1l0,0l0,0v-0.1C361.6,451.2,361.7,451.2,361.8,451.2C361.7,451.2,361.8,451.2,361.8,451.2z"/>
		
			<linearGradient id="SVGID_13_" gradientUnits="userSpaceOnUse" x1="259.5781" y1="-1300.2062" x2="193.2283" y2="-1167.5067" gradientTransform="matrix(1 0 0 -1 0 -716)">
			<stop  offset="0" style="stop-color:#441454"/>
			<stop  offset="0.8838" style="stop-color:#702777;stop-opacity:0.3"/>
		</linearGradient>
		<path class="st18" d="M265.4,603.8c-4.4-0.5-15.9-2.5-16.9-2.7c-0.2-0.7-0.4-1.2-0.6-1.9c-0.3-1.3-0.7-2.6-1-3.9
			c-0.2-0.9-0.5-1.8-0.7-2.6c-7.2-26.8-11.7-46.1-11.7-46.1s-0.1-0.1-0.2-0.2c-0.1,0-0.1-0.1-0.2-0.2c-0.6-0.6-1.8-1.8-3.4-3.7
			c-0.1-0.1-0.3-0.3-0.4-0.5c-0.2-0.2-0.4-0.5-0.7-0.8c-0.2-0.3-0.4-0.5-0.6-0.8s-0.4-0.5-0.6-0.8c-3.2-4.1-7.2-9.9-10.7-17.1
			c-0.2-0.5-0.5-0.9-0.7-1.3c-2-4.5-3.9-9.3-5.2-14.7c-0.7-2.5-1.2-5.2-1.5-7.9l0,0c-0.1-0.4-0.1-0.8-0.2-1.3
			c-0.2-1.2-0.3-2.5-0.5-3.7c-0.1-1-0.2-2.1-0.3-3.1v-0.1c0-0.3-0.1-0.6-0.1-0.9c-0.1-1.2-0.1-2.4-0.1-3.6c0-1.5,0-3,0.1-4.5
			c0-0.1,0-0.2,0-0.3c0.2-3.9,0.7-7.7,1.5-11.2c0-0.2,0.1-0.4,0.1-0.5l1.5-0.7l5.6-2.7l1.7-0.8c-0.2,0.9-0.3,1.7-0.5,2.5l0,0
			c-0.8,4.7-1.1,9.1-1.1,13.4c0,18.6,6.7,33.2,14.1,44.5l0,0c6.3,9.5,13.1,16.7,17,21.8C251,549.8,257.5,574.1,265.4,603.8z"/>
		
			<linearGradient id="SVGID_14_" gradientUnits="userSpaceOnUse" x1="3005.9304" y1="271.2711" x2="2963.2678" y2="289.9503" gradientTransform="matrix(-1 0 0 1 3281.759 112)">
			<stop  offset="0" style="stop-color:#C7754E"/>
			<stop  offset="1" style="stop-color:#F8AD84;stop-opacity:0"/>
		</linearGradient>
		<path class="st19" d="M330.6,358.5c0,0-16.7,0.4-30.7,2.4c-14,1.9-22.6,6.6-22.6,6.6s6.5,31.3-18.9,47.3c0,0,8.9,11.2,31.3,23
			c22.3,11.9,8.5-4,5.5-12.8c-3-8.7,8.7-25.6,18.4-35.2C323,380.1,330.6,365.6,330.6,358.5z"/>
		
			<linearGradient id="SVGID_15_" gradientUnits="userSpaceOnUse" x1="2952.1824" y1="289.8526" x2="2936.2991" y2="295.4023" gradientTransform="matrix(-1 0 0 1 3281.759 112)">
			<stop  offset="4.054054e-02" style="stop-color:#C7754E;stop-opacity:0.8"/>
			<stop  offset="0.4378" style="stop-color:#C7754E"/>
			<stop  offset="1" style="stop-color:#E08E60;stop-opacity:0.3"/>
		</linearGradient>
		<path class="st20" d="M356.5,359.4c0,0-4.3,29.7-10.5,35.1s-10.6,20.3-11.9,24.6c-1.2,4.3-2.9,22.3-5.4,31.8
			c-0.4,1.6-14.9-2.7-14.9-2.7s9.9-19.1,10.5-29.5c0.4-8.5,0.6-14.8,7.4-24.1c5-6.7,11.8-21.3,13.7-36.3L356.5,359.4z"/>
		
			<linearGradient id="SVGID_16_" gradientUnits="userSpaceOnUse" x1="2907.9656" y1="298.3396" x2="2952.7712" y2="289.2023" gradientTransform="matrix(-1 0 0 1 3281.759 112)">
			<stop  offset="0" style="stop-color:#9C5636"/>
			<stop  offset="1" style="stop-color:#F8A172;stop-opacity:0"/>
		</linearGradient>
		<path class="st21" d="M345.4,358.3c0,0-3.1,20.9-10.2,30.8c-4.3,5.9-3.9,22-3.9,26.1s-0.8,23.5-11.1,30.6
			c-1,0.7,30.2,13.5,40.6,5.4c1.7-1.3,0.4-6.1,1-8.5c2.4-12,1.5-31.2,7.7-46c2.8-6.5,7.7-17.5,10.2-24.2c3.7-9.9,4-9.4-0.7-10.3
			C374.6,361.4,347.1,358.5,345.4,358.3z"/>
		
			<linearGradient id="SVGID_17_" gradientUnits="userSpaceOnUse" x1="2931.6028" y1="308.3701" x2="2925.2483" y2="309.5563" gradientTransform="matrix(-1 0 0 1 3281.759 112)">
			<stop  offset="0" style="stop-color:#B3633D"/>
			<stop  offset="1" style="stop-color:#F8AD84;stop-opacity:0"/>
		</linearGradient>
		<path class="st22" d="M358.9,408.3c0,0-0.7,6.7-3.3,11.3c-2.6,4.6,0.2,8.5-3.1,15.2c-1.3,2.7-2.2,5.5-2.2-1.2s-0.6-9.1,0.9-13.8
			c1.5-4.7,3.4-12.3,5.3-13.9C360.9,402.2,358.9,408.3,358.9,408.3z"/>
		
			<linearGradient id="SVGID_18_" gradientUnits="userSpaceOnUse" x1="3061.1841" y1="337.8963" x2="3030.0332" y2="365.2549" gradientTransform="matrix(-1 0 0 1 3281.759 112)">
			<stop  offset="0" style="stop-color:#441454"/>
			<stop  offset="0.8838" style="stop-color:#5E2777;stop-opacity:0"/>
		</linearGradient>
		<path class="st23" d="M274.7,428.8c0,0-13.5,4.4-25.4,11s-22.9,21.5-26.5,37.1c-4.4,19.4,8.3,46.6,12,54c0,0-25.7-19.8-25.7-40.7
			c0-20.9,3.9-38.3,21.4-52.5c17.5-14.1,27.7-23.1,27.7-23.1L274.7,428.8z"/>
		
			<linearGradient id="SVGID_19_" gradientUnits="userSpaceOnUse" x1="2914.8203" y1="276.1635" x2="2938.2241" y2="274.2132" gradientTransform="matrix(-1 0 0 1 3281.759 112)">
			<stop  offset="0" style="stop-color:#9C5636"/>
			<stop  offset="1" style="stop-color:#F8A172;stop-opacity:0"/>
		</linearGradient>
		<path class="st24" d="M352.8,413.7c0,0,7-16.4,8.2-24.4c1.2-8.1,1.7-26.2,1.7-28.7c0,0,5.3,1,5.9,1.2c0.9,0.2,1.6,9.2,1.7,10.4
			c0.8,8.1-4.4,22.1-6.1,26.6C360.7,407.7,357.8,416.9,352.8,413.7z"/>
		
			<linearGradient id="SVGID_20_" gradientUnits="userSpaceOnUse" x1="2968.9026" y1="204.2609" x2="2935.1208" y2="257.4177" gradientTransform="matrix(-1 0 0 1 3281.759 112)">
			<stop  offset="0" style="stop-color:#9B2466"/>
			<stop  offset="1" style="stop-color:#BA3175;stop-opacity:0"/>
		</linearGradient>
		<path class="st25" d="M388.7,330.1c0,0-3.1,3.1-13.2,0.9c0,0-7.5-10.1-15.2-6.5c-14,6.5-42.9,17.4-62.4-6.2
			c-10.6-12.9-12.1-16.1-14.6-50.6c0,0-1.6,19.2-12.6,30.3c-11,11-18.4,9.1-18.4,9.1s7.3,20.9,16.1,34.1c7.8,11.7,8.7,24.3,8.7,24.3
			s16.8-9.1,36.1-14.7c31.8-9.1,42.2-4.7,56.5,0.8c14.5,5.5,15.5,3.6,15.5,3.6S388.3,342.6,388.7,330.1z"/>
		
			<linearGradient id="SVGID_21_" gradientUnits="userSpaceOnUse" x1="2937.7695" y1="215.6004" x2="2938.7378" y2="241.5465" gradientTransform="matrix(-1 0 0 1 3281.759 112)">
			<stop  offset="0" style="stop-color:#9B2466"/>
			<stop  offset="1" style="stop-color:#BA3175;stop-opacity:0"/>
		</linearGradient>
		<path class="st26" d="M302.8,355.1c3.3-1.7,6.7-3.1,10.3-4.1c31.8-9.1,42.2-4.7,56.5,0.8c14.5,5.5,14.8,6.6,14.8,6.6
			s3.7-15.5,4.1-28.4c0,0-2.6,1.7-11.3-0.2c-6.8-1.5-9.4-7.1-13.7-4.8c-12.7,6.5-44.2,17-64-0.4
			C299.3,333.8,299.6,345.3,302.8,355.1z"/>
		
			<linearGradient id="SVGID_22_" gradientUnits="userSpaceOnUse" x1="3048.5859" y1="259.3477" x2="3034.2241" y2="137.0087" gradientTransform="matrix(-1 0 0 1 3281.759 112)">
			<stop  offset="0" style="stop-color:#DB8E6B"/>
			<stop  offset="1" style="stop-color:#F8AD84"/>
		</linearGradient>
		<path class="st27" d="M267.4,268.9c0,0,8.3-40.5-13.7-48.2c-2.8-1-24.9-1.5-28.3,26.1c-4.6,37.3-2.4,90.7-3.7,121.6
			c-1.1,27.6,25.4,22,27.9,7.8C252.2,362.5,264,301.9,267.4,268.9z"/>
		
			<linearGradient id="SVGID_23_" gradientUnits="userSpaceOnUse" x1="3044.647" y1="260.7626" x2="3085.0137" y2="374.9582" gradientTransform="matrix(-1 0 0 1 3281.759 112)">
			<stop  offset="0" style="stop-color:#DB8E6B"/>
			<stop  offset="1" style="stop-color:#F8AD84"/>
		</linearGradient>
		<path class="st28" d="M246.4,396.6c0,0,4.9-17.3,2.1-27.7c-2.8-10.4-14.2-13.5-20.7-7.1s-13.3,19.5-17.3,39.9
			c-4,20.5-23.5,96.1-23.5,96.1s1.3,9.8,12.2,7.3C207,503.3,238.8,421,246.4,396.6z"/>
		
			<linearGradient id="SVGID_24_" gradientUnits="userSpaceOnUse" x1="3113.4202" y1="431.7966" x2="3083.1013" y2="391.1057" gradientTransform="matrix(-1 0 0 1 3281.759 112)">
			<stop  offset="0" style="stop-color:#DB8E6B"/>
			<stop  offset="1" style="stop-color:#F8AD84"/>
		</linearGradient>
		<path class="st29" d="M165,528.2c-2.5,2.5-8.4,17.6-8,20.3s-1.2,7.1-0.7,10c0.6,2.9,1.6,2.5,1.6,2.5c4.8-1,6.2-10.5,6.2-10.5
			c1.3-2.9,1.7-6.8,3.5-9.4c1.7-2.6,5.6-7.6,5.6-7.6s-2.2,3.1-3.1,5.6c-0.9,2.5-1.6,5.8-1.6,5.8s-2,6.4-2,6.7s-0.4,2.8-0.4,6.5
			s2.8,5.6,4.7,3.7c1.9-1.9,1.8-7.7,2.4-8.9c0.6-1.2,2.1-8.3,2.5-8.6c0.3-0.3,5.7-10.2,6.4-10.9s1.8-0.1,1.8-0.1s-3.5,9.2-3.5,9.8
			s-1.8,4.3-2.4,7.2c-0.6,2.9,1.8,5,4.5,2.4c2.7-2.7,2.4-7.2,3.5-9.4c1-2.4,4.3-9.9,4.3-9.9s0.4-0.6,1.5-1.6c1-1,6.1-11,10-18
			s1.9-18.3,1.9-18.3s-6.4-3.1-18.7,2c-12.3,5.2-19.5,30.6-19.5,30.6L165,528.2z"/>
		<path class="st30" d="M299.5,261.5c-19.4-37-35.1-41.9-35.1-41.9l4.6-0.7c17.9,9.4,36.5,41.4,36.5,41.4s10.6,3.4,23.3,7.2
			c17.6,5.3,34,15.8,34,15.8c4.5-6.6,6.7-18.6,5.5-23.3c-0.7-2.7-3.5-9-4.8-12.7c-5.7-15.1-16.8-31.6-16.8-31.6l4.3,1.1
			c0,0,4.8,8.2,9.6,16.5c5.7,10,9.9,21.2,11.7,24.9c1.8,3.7,1.5,13,0.1,19.2c-1.3,6.2-7.4,14.3-7.4,14.3s-16.1-14.3-38-19.8
			c-22.2-5.6-25.7-6.3-25.7-6.3L299.5,261.5z"/>
		
			<linearGradient id="SVGID_25_" gradientUnits="userSpaceOnUse" x1="2923.543" y1="199.352" x2="2958.25" y2="237.5163" gradientTransform="matrix(-1 0 0 1 3281.759 112)">
			<stop  offset="0" style="stop-color:#9B2466"/>
			<stop  offset="1" style="stop-color:#BA3175;stop-opacity:0"/>
		</linearGradient>
		<path class="st31" d="M366.6,301.1c0.6,0.6,6.6,23-10.8,29.9c-17.5,7.1-35,1.5-35,1.5s21.1,1.6,33.5-6.6
			C369.3,315.9,366.6,301.1,366.6,301.1z"/>
		
			<linearGradient id="SVGID_26_" gradientUnits="userSpaceOnUse" x1="2896.1919" y1="218.1611" x2="2897.0337" y2="196.6014" gradientTransform="matrix(-1 0 0 1 3281.759 112)">
			<stop  offset="0" style="stop-color:#9C1E61;stop-opacity:0.9"/>
			<stop  offset="0.2973" style="stop-color:#9B2164"/>
			<stop  offset="1" style="stop-color:#BA3175;stop-opacity:0"/>
		</linearGradient>
		<path class="st32" d="M405.9,294.9c0,0,3.7,15.2-12.1,19.8s-24.9-5.2-24.9-5.2l-5.8,17.6c0,0,6.8,7.8,20.5,4.6
			C400.9,327.7,409.7,308.3,405.9,294.9z"/>
		
			<linearGradient id="SVGID_27_" gradientUnits="userSpaceOnUse" x1="2991.1243" y1="200.2329" x2="2969.7717" y2="189.9127" gradientTransform="matrix(-1 0 0 1 3281.759 112)">
			<stop  offset="0" style="stop-color:#9C1E61;stop-opacity:0.9"/>
			<stop  offset="1" style="stop-color:#BA3175;stop-opacity:0"/>
		</linearGradient>
		<path class="st33" d="M364.9,313.9c0,0-7.6,11.9-28.7,8.3c-21.2-3.6-30.8-14.9-34.3-22s-1.2-16.4-3.8-21.2
			c-2.7-4.8-8.5-11.7-11.9-9.5c-3.4,2-4.5,41.6,19.3,56.8C325,338.7,355.2,333.7,364.9,313.9z"/>
		
			<linearGradient id="SVGID_28_" gradientUnits="userSpaceOnUse" x1="2967.2319" y1="375.1234" x2="2938.686" y2="323.8828" gradientTransform="matrix(-1 0 0 1 3281.759 112)">
			<stop  offset="0" style="stop-color:#441454"/>
			<stop  offset="0.8838" style="stop-color:#5D2777;stop-opacity:0"/>
		</linearGradient>
		<path class="st34" d="M325.7,510.6c0,0-5.3-28.3-16.5-42.3c-11.7-14.8-5.5-18.9,5.5-18.9s22.3,7.6,38.3,5.2
			C369.2,452,338.3,498,325.7,510.6z"/>
		
			<linearGradient id="SVGID_29_" gradientUnits="userSpaceOnUse" x1="2973.4785" y1="78.2697" x2="2976.4927" y2="107.809" gradientTransform="matrix(-1 0 0 1 3281.759 112)">
			<stop  offset="0" style="stop-color:#C47958"/>
			<stop  offset="1" style="stop-color:#F8AD84;stop-opacity:0"/>
		</linearGradient>
		<path class="st35" d="M286.9,179.4c0,0,9.5,7,15.8,8.1c6.3,1.2,8.4,0.3,11.9-1c5.9-2.4,10.8-5.9,10.8-5.9s0.6,9.6,1.1,12.7
			c1,5.8,2.9,10.4,2.9,10.4s-2.8,12.9-20.2,14.5c-15.6,1.3-19.3-11.5-19.3-11.5s0.2-4.1-0.3-10.2
			C288.7,189.6,287.1,180.7,286.9,179.4z"/>
		<path class="st8" d="M353.8,107c0,0,3.6-6.7,9.2-2.9c5.6,3.8,2.7,17.9-1.9,23.8c-4.7,5.8-8.2,8.9-8.2,8.9s-0.2,28-15.7,39.6
			s-19.5,12.6-27.8,13.9c-8.3,1.3-24.3-9.6-29.4-14.8c-5.2-5.2-14.8-17-16.4-28.8s1.3-50.6,1.9-53.7s41.9-36.6,60-25.3
			C343.6,79,353.8,96.6,353.8,107z"/>
		<path class="st36" d="M334.5,73.1c0,0-0.9,13.2-13.2,21.2c-12.3,8-18.4,9.1-18.4,9.1s-0.9,19.7-15,27.8s-24.7,14-24.7,11
			c0-9.4-1.7-32.4,4.3-45.5C273.2,83.6,323.1,58,334.5,73.1z"/>
		<path class="st37" d="M273,124.4c0,0,3.7-6.4,9.2-7.4c5.4-1,10.8,2.7,12,3.8c1.2,1.1-6.5-1.3-11.1-0.2
			C278.5,121.7,272.1,126.1,273,124.4z"/>
		<path class="st37" d="M279.9,120.1c0,0-1.3,8,2.1,10.2c3.5,2.2,5.4-1.1,6.3-3.4c0.9-2.2-0.1-7.4-1.1-8.3
			C286.1,117.6,279.9,120.1,279.9,120.1z"/>
		<path class="st38" d="M313,145.3c0,0-1.3,2-4,2.4c-2.7,0.2-5.5-1.6-6.4-2.4s-0.7,5,3.7,6.4c4.4,1.3,6.8-2.8,6.8-4.8
			C313,144.8,313,145.3,313,145.3z"/>
		<g id="XMLID_40_">
			<g>
				<path class="st39" d="M323.1,159.9c0,0-2.6,4-3.5,5.6c-2,3.6-5.7,7.6-11.9,7.3c-6.2-0.3-9.5-3.6-11.5-6.5
					c-0.9-1.2-1.8-2.2-2.7-3l1.5-0.1c0,0,5.4,2.9,9.3,4.4c2.1,0.9,6.5,0.6,8.4-0.4s6.3-4.5,7.1-5c0.1,0,0.1-0.1,0.1-0.1l0.1-1.9
					C321.3,160.1,322.5,160.1,323.1,159.9z"/>
				<path class="st40" d="M297.2,163.5c0,0,3.4,0,5.2,0c1.3,0.1,2.1,1.2,5,1.2c2.8,0,4.1-1.5,4.1-1.5s7.1-0.7,8.2-1.3
					c-0.7,0.6-5.2,3.9-7.1,5c-1.9,1-6.3,1.3-8.4,0.4c-3.9-1.6-9.3-4.4-9.3-4.4L297.2,163.5z"/>
				<path class="st39" d="M319.9,162L319.9,162c-1.2,0.8-8.3,1.3-8.3,1.3s-1.3,1.5-4.1,1.5c-2.9,0-3.7-1.2-5-1.2
					c-1.8-0.1-5.2,0-5.2,0l-2.1-0.3l-1.5,0.1c-1-1-1.9-1.5-1.9-1.5s3.6-0.3,6.7-1c3-0.6,6.1-1.5,8.2-0.2l1.1,0.4
					c0,0,1.3-1.6,3.9-1.8c1-0.1,5.2,0.6,8.3,0.8L319.9,162z"/>
			</g>
		</g>
		<g id="XMLID_38_">
			<g>
				<path class="st4" d="M217.5,108.4c0,0,0.2,16.3,36.3,19.4s45.9-27.6,45.9-27.6c37-5.4,36.5-37.4,36.5-37.4s-3.8-18-42.2-5.6
					C255.9,69.7,217.5,96,217.5,108.4z"/>
			</g>
		</g>
		
			<ellipse transform="matrix(0.1813 -0.9834 0.9834 0.1813 146.8343 441.9075)" class="st41" cx="338.8" cy="132.8" rx="1.7" ry="1.6"/>
		<circle class="st41" cx="332.9" cy="137.9" r="1"/>
		<circle class="st41" cx="325.6" cy="134.9" r="1.2"/>
		<circle class="st41" cx="317.5" cy="131.7" r="1.2"/>
		<circle class="st41" cx="301.3" cy="128.8" r="0.8"/>
		<circle class="st41" cx="297.5" cy="135.5" r="1.2"/>
		<circle class="st41" cx="285.1" cy="136.8" r="1.2"/>
		<circle class="st41" cx="276.4" cy="145.3" r="1.2"/>
		<path class="st36" d="M355.3,111.8c0,0,2.4-6.6,5.5-5.6s2.9,6.3,2.9,6.3s0,1.8-2.9,2.4c-4.4,0.8-6.4,11-6.4,14
			C354.4,131.8,354.3,115.1,355.3,111.8z"/>
		<g>
			<path class="st42" d="M353.8,106.1c-0.6-2.8-1.3-5.5-2.4-8.1c-1-2.6-2.2-5.2-3.6-7.5c-1.3-2.4-3-4.6-4.9-6.7
				c-0.4-0.4-0.9-1-1.5-1.5l-1.6-1.3l-1.6-1.5c-0.4-0.6-1-1-1.5-1.6c-1.9-2.1-3.6-4.5-5-7s-2.7-5.2-3.4-8.1c-0.3-1.5-0.6-3-0.3-4.6
				l0.1-0.6c0.1-0.2,0.1-0.4,0.2-0.7l0.2-0.6c0.1-0.2,0.2-0.3,0.3-0.6c0.4-0.7,0.9-1.3,1.5-1.9c1.1-1.1,2.4-2.1,3.9-2.7
				c0.8-0.3,1.7-0.4,2.7-0.3c1,0.1,2,0.9,2.6,1.8c0.6,0.9,0.7,1.7,0.8,2.6c0.1,0.8,0.1,1.6,0.1,2.4c-0.1,1.6-0.3,3-0.7,4.4
				c-0.6,2.8-1.3,5.6-2.2,8.3c-1.8,5.4-4.3,10.8-7.7,15.5c-1.8,2.4-3.8,4.5-6.1,6.4c-2.4,1.8-4.9,3.3-7.5,4.5s-5.3,2.4-8.1,3.3
				c-2.8,0.9-5.5,1.6-8.4,2l1.3-1.1c-0.9,2.6-2.1,4.8-3.4,7.1c-1.3,2.2-2.8,4.4-4.5,6.4c-3.4,4-7.3,7.6-12,10
				c-1.2,0.6-2.4,1.2-3.6,1.6s-2.5,0.9-3.7,1.2l-1.9,0.6c-0.7,0.1-1.2,0.2-1.9,0.4c-0.7,0.1-1.2,0.2-1.9,0.3l-1.9,0.3
				c-5.2,0.8-10.3,0.8-15.4,0.2c-5.2-0.6-10.2-1.6-15-3.3c-0.3-0.1-0.7-0.3-1-0.4c-0.3-0.2-0.7-0.4-1-0.8c-0.6-0.7-0.9-1.6-0.8-2.5
				c0.1-0.9,0.6-1.8,1.2-2.2c0.7-0.6,1.5-0.8,2.2-0.9h0.6l0.6,0.1c0.3,0,0.7,0.1,1,0.2s0.7,0.2,1,0.4c0.3,0.1,0.7,0.3,0.9,0.6
				c1.2,0.9,2,2.2,2.2,3.6c0.7,2.7,0.1,5.4-0.9,7.8c-1,2.4-2.6,4.6-4.4,6.4c-3.6,3.7-8.3,6.1-13.1,7.5c2.4-0.9,4.6-2,6.7-3.4
				c2.1-1.3,4-2.9,5.7-4.7s3-3.9,3.8-6.3c0.8-2.2,1.1-4.8,0.6-7c-0.3-1.1-0.9-2-1.8-2.6c-0.9-0.6-2-0.9-3-0.8c-1,0-1.6,0.8-1.7,1.5
				c0,0.3,0.1,0.7,0.4,1c0.1,0.1,0.3,0.2,0.4,0.3c0.2,0.1,0.3,0.2,0.7,0.2c4.7,1.5,9.6,2.4,14.6,2.8c2.5,0.2,4.9,0.2,7.4,0.1
				s4.9-0.3,7.3-0.8c4.8-0.8,9.6-2.1,13.9-4.4c4.3-2.2,7.8-5.6,11-9.3c1.6-1.9,2.9-3.9,4.1-6.1c1.2-2.1,2.4-4.4,3-6.5l0.3-1l1-0.1
				c2.6-0.4,5.3-1.1,7.8-2c2.6-0.8,5.2-1.8,7.6-3s4.8-2.6,7-4.1c2.1-1.6,3.9-3.6,5.5-5.7c3.3-4.3,5.6-9.3,7.4-14.5
				c0.9-2.6,1.7-5.3,2.2-8c0.3-1.3,0.6-2.7,0.7-3.9s0-2.6-0.4-3.3c-0.2-0.3-0.4-0.6-0.8-0.6c-0.3-0.1-0.9,0-1.3,0.1
				c-1,0.3-2.1,1.1-2.9,2c-0.4,0.4-0.8,0.9-1.1,1.5c-0.1,0.1-0.1,0.2-0.2,0.3l-0.1,0.3l-0.1,0.3l-0.1,0.4c-0.2,1.1-0.1,2.5,0.2,3.7
				c0.4,2.6,1.6,5.2,2.8,7.5c1.2,2.5,2.8,4.7,4.6,6.8c0.4,0.6,0.9,1,1.3,1.6l1.5,1.5l1.5,1.6c0.4,0.6,0.9,1.1,1.5,1.6
				c1.8,2.2,3.4,4.6,4.7,7.1C351.3,95.1,353.1,100.6,353.8,106.1z"/>
		</g>
		
			<linearGradient id="SVGID_30_" gradientUnits="userSpaceOnUse" x1="2939.9585" y1="168.3054" x2="2951.3936" y2="179.741" gradientTransform="matrix(-1 0 0 1 3281.759 112)">
			<stop  offset="6.216216e-02" style="stop-color:#C24281"/>
			<stop  offset="1" style="stop-color:#BA3175;stop-opacity:0"/>
		</linearGradient>
		<path class="st43" d="M364.3,307.3c2.2-4.1,0.7-11.7-7.5-19.4c-8.2-7.7-26.2-14.3-38.8-15.8s-18.5,0-18.5,0s32.4,12.6,39.6,18.9
			C352.2,302.3,357.3,320.5,364.3,307.3z"/>
		
			<linearGradient id="SVGID_31_" gradientUnits="userSpaceOnUse" x1="2885.187" y1="171.0779" x2="2895.6094" y2="181.5003" gradientTransform="matrix(-1 0 0 1 3281.759 112)">
			<stop  offset="6.216216e-02" style="stop-color:#C24281"/>
			<stop  offset="1" style="stop-color:#BA3175;stop-opacity:0"/>
		</linearGradient>
		<path class="st44" d="M403.8,307.3c0,0,3.7-11.7-3.7-23.3c-7.5-11.7-15.2-20.6-16.5-19.4c-1.2,1.2,10.8,21.2,7.2,30.6
			C387.3,304.6,392.4,318.7,403.8,307.3z"/>
		<path class="st30" d="M382.5,365.2l2-6.6c0,0-11.4-4.8-41-6.2c-15.7-0.7-31.6,0.4-43.9,2.7c-11.5,2-20.9,5.4-23.5,6.7
			c0,0,1,2.9,1,5.6c0,0,7.6-3.8,20.7-6.3c11.2-2.1,26.3-3,44.1-2.5C367.6,359.4,382.5,365.2,382.5,365.2z"/>
		
			<linearGradient id="SVGID_32_" gradientUnits="userSpaceOnUse" x1="2909.1702" y1="263.8394" x2="2903.8362" y2="263.3164" gradientTransform="matrix(-1 0 0 1 3281.759 112)">
			<stop  offset="5.675676e-02" style="stop-color:#DE8C5F"/>
			<stop  offset="1" style="stop-color:#F8AD84;stop-opacity:0"/>
		</linearGradient>
		<path class="st45" d="M372.1,388.8c0,0,2.2-5,3.5-11.5c1.3-6.8,0.8-13.9,0.8-13.9l-7.7-1.6c0,0,2.6,5.8,2,15.6
			C370.1,387,370.3,393.6,372.1,388.8z"/>
		
			<linearGradient id="SVGID_33_" gradientUnits="userSpaceOnUse" x1="2919.5898" y1="312.5988" x2="2925.9673" y2="312.2395" gradientTransform="matrix(-1 0 0 1 3281.759 112)">
			<stop  offset="5.675676e-02" style="stop-color:#DE8C5F"/>
			<stop  offset="1" style="stop-color:#F8AD84;stop-opacity:0"/>
		</linearGradient>
		<path class="st46" d="M363.6,404c0,0-2.1,5.6-1.3,20.5c0.3,7-5.4,21.4-5.4,21.4l-3.9-1.8c0,0,5.2-10.3,5.7-20.1
			C359.3,414.3,362.5,399.1,363.6,404z"/>
		<g>
			<path class="st8" d="M498.5,236.1c0,0,4.7-3.7,7.4-1.7c2.7,2,2.2,4.9,1.5,6.5s-10.1,5.6-13.1,6.5c-2.9,0.9-5.6,1.8-7.4,0.6
				c-1.8-1.3-1.7-3.8,0.1-4.9C488.8,242.1,494.6,238.6,498.5,236.1z"/>
			<path class="st8" d="M486.6,240.2c2.9-0.3,7.8-1.9,10.5-3.1c2.7-1.2,10.5-3.6,10.9-6.1c0.3-2.5-0.4-4.3-1.5-5.3
				c-1-1-6.7,1.5-6.8,1.6c0,0-9.8,5.3-13.1,6.8S483.7,240.5,486.6,240.2z"/>
			<path class="st8" d="M483.3,224.2c1.5,0,5.4-1.6,7.3-2.7c1.9-1.2,7.8-4.6,7.8-4.6s6.6-5.3,5.9-7.7s-2.9-4-5.3-3.5
				c-2.4,0.7-5.8,3.7-8.5,7c-2.7,3.1-10.4,5.6-10.9,8.5C479.3,224,481.9,224.2,483.3,224.2z"/>
			
				<linearGradient id="SVGID_34_" gradientUnits="userSpaceOnUse" x1="2784.9116" y1="122.5214" x2="2794.416" y2="122.5214" gradientTransform="matrix(-1 0 0 1 3281.759 112)">
				<stop  offset="0" style="stop-color:#BD714D"/>
				<stop  offset="1" style="stop-color:#F8AD84;stop-opacity:0"/>
			</linearGradient>
			<path class="st47" d="M496.9,237.1c0,0-5.3-3-2.4-7.1l-5.3,2.6c0,0-3,3.5-1.3,5.3c1.7,1.7,4,1,4,1L496.9,237.1z"/>
			<path class="st8" d="M486.4,233.5c3.4-0.9,8.9-3.6,11.8-5.5s10.2-4.7,10.2-7.5s-2.8-4.7-4.1-5.6c-1.3-0.9-4.6,1.6-4.7,1.8
				c0,0-10.5,7.6-14.1,10C481.8,229,483,234.4,486.4,233.5z"/>
			
				<linearGradient id="SVGID_35_" gradientUnits="userSpaceOnUse" x1="2387.6003" y1="-451.6531" x2="2398.9084" y2="-451.6531" gradientTransform="matrix(-0.9875 0.1577 0.1577 0.9875 2926.4226 294.8075)">
				<stop  offset="0" style="stop-color:#BD714D"/>
				<stop  offset="1" style="stop-color:#F8AD84;stop-opacity:0"/>
			</linearGradient>
			<path class="st48" d="M498,228.1c0,0-6.7-2.2-4-7.3l-5.8,3.8c0,0-2.9,4.5-0.7,6.1c2.4,1.6,4.9,0.3,4.9,0.3L498,228.1z"/>
			
				<linearGradient id="SVGID_36_" gradientUnits="userSpaceOnUse" x1="2787.3718" y1="105.4297" x2="2799.6169" y2="107.3858" gradientTransform="matrix(-1 0 0 1 3281.759 112)">
				<stop  offset="0" style="stop-color:#BD714D"/>
				<stop  offset="1" style="stop-color:#F8AD84;stop-opacity:0"/>
			</linearGradient>
			<path class="st49" d="M494.6,219.1c0,0-3,0.7-4.6-1.5c-1.6-2-0.8-3.8-0.8-3.8l-6.4,4c0,0-1.8,2.9,0.6,4.1
				c2.4,1.2,3.4,1.2,3.4,1.2S491.5,221.4,494.6,219.1z"/>
			<path class="st50" d="M485.5,245.8c0,0,2.7-1.9,3.4-1.9s2,1.9,1.6,3s-3.8,1.8-3.8,1.8S484.7,248.3,485.5,245.8z"/>
			<path class="st50" d="M483.4,237.2c0,0,2.9-1.6,4-1.7c0.4-0.1,1,0.1,1.6,0.9c0.6,0.9,0.4,2,0,2.4c-0.9,0.8-4.3,1.5-4.3,1.5
				S482.9,239.2,483.4,237.2z"/>
			<path class="st50" d="M486.7,248.8c0,0-2.2-0.4-1.5-2.8c0,0,3-1.9,3.7-1.9L486.7,248.8z"/>
			<path class="st50" d="M479.6,221.3c0,0,2.6-1.2,3.4-1.6c0.8-0.4,2,2,1.8,2.6s-3.4,1.9-3.8,1.9
				C480.5,224.2,479.2,223.3,479.6,221.3z"/>
			
				<linearGradient id="SVGID_37_" gradientUnits="userSpaceOnUse" x1="2786.2424" y1="130.7542" x2="2796.5149" y2="135.5944" gradientTransform="matrix(-1 0 0 1 3281.759 112)">
				<stop  offset="0" style="stop-color:#BD714D"/>
				<stop  offset="1" style="stop-color:#F8AD84;stop-opacity:0"/>
			</linearGradient>
			<path class="st51" d="M499.7,245.4c0,0-3.3,0.3-4.4-1.7c-1.5-2.6-0.4-4.1,0.7-5.9l-8.6,4.6c0,0-2.5,2-1.8,4.5
				c0.6,2.4,3,2.2,3,2.2S497.6,247,499.7,245.4z"/>
		</g>
		
			<linearGradient id="SVGID_38_" gradientUnits="userSpaceOnUse" x1="3098.7605" y1="431.6019" x2="3102.0852" y2="440.4669" gradientTransform="matrix(-1 0 0 1 3281.759 112)">
			<stop  offset="0" style="stop-color:#BD714D"/>
			<stop  offset="1" style="stop-color:#F8AD84;stop-opacity:0"/>
		</linearGradient>
		<path class="st52" d="M185.4,544.2c0,0-0.2-3.1-5.2-1.3c0,0-1.9,5.3-2,5.8c-0.2,0.7,1.9,4.6,4.4,2c2.5-2.5,2.9-6.8,2.9-6.8
			L185.4,544.2z"/>
		
			<linearGradient id="SVGID_39_" gradientUnits="userSpaceOnUse" x1="3111.6199" y1="439.8839" x2="3114.9768" y2="448.8369" gradientTransform="matrix(-1 0 0 1 3281.759 112)">
			<stop  offset="0" style="stop-color:#BD714D"/>
			<stop  offset="1" style="stop-color:#F8AD84;stop-opacity:0"/>
		</linearGradient>
		<path class="st53" d="M173.1,553c0,0-0.4-2.5-3-2.5s-3.9,2.1-3.9,2.1s-0.2,4.7-0.2,5.8S171.1,562.9,173.1,553z"/>
		
			<linearGradient id="SVGID_40_" gradientUnits="userSpaceOnUse" x1="3108.7156" y1="430.6395" x2="3112.2957" y2="440.1862" gradientTransform="matrix(-1 0 0 1 3281.759 112)">
			<stop  offset="0" style="stop-color:#BD714D"/>
			<stop  offset="1" style="stop-color:#F8AD84;stop-opacity:0"/>
		</linearGradient>
		<path class="st54" d="M175.5,544.2c0,0,0.3-3.1-3-2.9c-3.3,0.2-4,3.5-4,3.5l-1.6,5.2l7,0.4L175.5,544.2z"/>
		
			<linearGradient id="SVGID_41_" gradientUnits="userSpaceOnUse" x1="3094.8462" y1="421.0655" x2="3097.9116" y2="429.2398" gradientTransform="matrix(-1 0 0 1 3281.759 112)">
			<stop  offset="0" style="stop-color:#BD714D"/>
			<stop  offset="1" style="stop-color:#F8AD84;stop-opacity:0"/>
		</linearGradient>
		<path class="st55" d="M190.1,533.1c0,0-4.1-2.9-6.4,0l-2.2,6.1l5.4,1.5L190.1,533.1z"/>
		
			<linearGradient id="SVGID_42_" gradientUnits="userSpaceOnUse" x1="3103.8989" y1="419.3399" x2="3107.4497" y2="428.8082" gradientTransform="matrix(-1 0 0 1 3281.759 112)">
			<stop  offset="0" style="stop-color:#BD714D"/>
			<stop  offset="1" style="stop-color:#F8AD84;stop-opacity:0"/>
		</linearGradient>
		<path class="st56" d="M181.9,533.3c0,0-0.4-3.4-4.3-3c-3.8,0.3-6.3,5.8-6.3,5.8l5.8,4.6L181.9,533.3z"/>
		
			<linearGradient id="SVGID_43_" gradientUnits="userSpaceOnUse" x1="3112.2908" y1="417.5401" x2="3117.0295" y2="430.176" gradientTransform="matrix(-1 0 0 1 3281.759 112)">
			<stop  offset="0" style="stop-color:#BD714D"/>
			<stop  offset="1" style="stop-color:#F8AD84;stop-opacity:0"/>
		</linearGradient>
		<path class="st57" d="M172.2,534.4c0,0,2.2-4.8-0.4-6.2c-2.7-1.3-4.7-0.6-4.7-0.6l-4.7,8.6l4.8,4.9L172.2,534.4z"/>
		
			<linearGradient id="SVGID_44_" gradientUnits="userSpaceOnUse" x1="3117.8655" y1="428.9943" x2="3120.6814" y2="436.5026" gradientTransform="matrix(-1 0 0 1 3281.759 112)">
			<stop  offset="0" style="stop-color:#BD714D"/>
			<stop  offset="1" style="stop-color:#F8AD84;stop-opacity:0"/>
		</linearGradient>
		<path class="st58" d="M166.9,542.2c0,0-1.9-2.9-4.7-2.9s-3.6,7.2-3.6,7.2l6.3,2.1C164.8,548.6,166.1,543.6,166.9,542.2z"/>
		
			<linearGradient id="SVGID_45_" gradientUnits="userSpaceOnUse" x1="3120.2517" y1="437.9115" x2="3123.4802" y2="446.5206" gradientTransform="matrix(-1 0 0 1 3281.759 112)">
			<stop  offset="0" style="stop-color:#BD714D"/>
			<stop  offset="1" style="stop-color:#F8AD84;stop-opacity:0"/>
		</linearGradient>
		<path class="st59" d="M164.1,550.4c0,0-1.9-2.8-4.1-1.8c-2.2,1-2.4,3.4-2.7,4.3c-0.3,0.9,2.6,7.4,4.3,4.5
			C163.2,554.5,163.4,553.8,164.1,550.4z"/>
		
			<linearGradient id="SVGID_46_" gradientUnits="userSpaceOnUse" x1="3090.561" y1="395.8852" x2="3102.0483" y2="417.4994" gradientTransform="matrix(-1 0 0 1 3281.759 112)">
			<stop  offset="0" style="stop-color:#BD714D"/>
			<stop  offset="1" style="stop-color:#F8AD84;stop-opacity:0"/>
		</linearGradient>
		<path class="st60" d="M191.3,508.3c0,0,3.9-0.8,6.6,1.3c2.7,2,0.4,9.8,0.4,9.8l-6.1,11.2c0,0-7,1.1-12.1-0.3
			c-5.2-1.5-10.2-5.6-9.8-7.8C170.7,520.1,182.1,509,191.3,508.3z"/>
		
			<linearGradient id="SVGID_47_" gradientUnits="userSpaceOnUse" x1="2958.0071" y1="144.3968" x2="2933.0564" y2="143.592" gradientTransform="matrix(-0.9974 7.187212e-02 7.187212e-02 0.9974 3091.4087 161.4213)">
			<stop  offset="0" style="stop-color:#DB8E6B"/>
			<stop  offset="1" style="stop-color:#F8AD84"/>
		</linearGradient>
		<path class="st61" d="M188.4,501.9c0,0,6.4,6.7,0.1,12c-4.7,3.9-11.5,7.2-15.1,7.5c-3.5,0.2-2.5,5.6-7.8,8.5s-9.5,2.8-11.7,2.4
			s-2.9-2.4-1.5-3.4c1.5-1,9.8-7.5,12.1-11.2s2.2-6.6,4.9-9.8C172.1,504.8,180.4,495.7,188.4,501.9z"/>
		<path class="st50" d="M156.3,527.7l-2.8,2.1c0,0-1.2-1-2.2,0c0,0-0.2-0.4,0.9-1.3c1.1-0.9,2.5-1.6,2.5-1.6
			S156.3,526.8,156.3,527.7z"/>
		
			<linearGradient id="SVGID_48_" gradientUnits="userSpaceOnUse" x1="2469.7344" y1="1018.775" x2="2467.0469" y2="1019.279" gradientTransform="matrix(-1.2068 -9.044725e-02 -0.1324 1.2669 3466.1165 -646.5811)">
			<stop  offset="0" style="stop-color:#AB5E39"/>
			<stop  offset="1" style="stop-color:#F8AD84;stop-opacity:0"/>
		</linearGradient>
		<path class="st62" d="M350.8,420.6c-0.9,2.4-0.7,4.6,0.3,4.9s2.6-1.2,3.4-3.6c0.9-2.4,0.7-4.6-0.3-4.9S351.6,418.3,350.8,420.6z"
			/>
		
			<linearGradient id="SVGID_49_" gradientUnits="userSpaceOnUse" x1="2921.9619" y1="325.3656" x2="2933.5757" y2="316.8551" gradientTransform="matrix(-1 0 0 1 3281.759 112)">
			<stop  offset="0" style="stop-color:#9C5636"/>
			<stop  offset="1" style="stop-color:#F8A172;stop-opacity:0"/>
		</linearGradient>
		<path class="st63" d="M337.5,449.8c0,0,12.4-9.6,12.6-17.9s3.7-8.2,3.7-8.2l7.1-14.3c0,0-0.9,16.3-3,22.5
			c-2.1,6.3-5.5,18.7-6.4,19.3C350.6,451.7,341.1,451,337.5,449.8z"/>
		<path class="st64" d="M360.7,455.8c0,0-13.5,1.9-31.3-1.5s-37.1-11.3-49.5-18.8c-12.4-7.4-23.7-19.4-23.7-19.4l5.2-3.7
			c0,0,14.3,14.6,32.5,22.9c18,8.3,32.7,13.5,45.7,14.6c13,1.2,22.5-0.6,22.5-0.6L360.7,455.8z"/>
	</g>
	<path class="st8" d="M482.6,225.6c1.5,0,5.4-1.6,7.3-2.7c1.9-1.2,7.8-4.6,7.8-4.6s6.6-5.3,5.9-7.7s-2.9-4-5.3-3.5
		c-2.4,0.7-5.8,3.7-8.5,7c-2.7,3.1-10.4,5.6-10.9,8.5C478.6,225.5,481.2,225.6,482.6,225.6z"/>
	<path class="st8" d="M485.7,235.1c3.4-0.9,8.9-3.6,11.8-5.5s10.2-4.7,10.2-7.5s-2.8-4.7-4.1-5.6c-1.3-0.9-4.6,1.6-4.7,1.8
		c0,0-10.5,7.6-14.1,10C481,230.6,482.2,236,485.7,235.1z"/>
	
		<linearGradient id="SVGID_50_" gradientUnits="userSpaceOnUse" x1="2388.5129" y1="-450.1993" x2="2399.8206" y2="-450.1993" gradientTransform="matrix(-0.9875 0.1577 0.1577 0.9875 2926.4226 294.8075)">
		<stop  offset="0" style="stop-color:#BD714D"/>
		<stop  offset="1" style="stop-color:#F8AD84;stop-opacity:0"/>
	</linearGradient>
	<path class="st65" d="M497.2,229.7c0,0-6.7-2.2-4-7.3l-5.8,3.8c0,0-2.9,4.5-0.7,6.1c2.4,1.6,4.9,0.3,4.9,0.3L497.2,229.7z"/>
	
		<linearGradient id="SVGID_51_" gradientUnits="userSpaceOnUse" x1="2788.0088" y1="107.0356" x2="2800.2539" y2="108.9917" gradientTransform="matrix(-1 0 0 1 3281.759 112)">
		<stop  offset="0" style="stop-color:#BD714D"/>
		<stop  offset="1" style="stop-color:#F8AD84;stop-opacity:0"/>
	</linearGradient>
	<path class="st66" d="M494,220.7c0,0-3,0.7-4.6-1.5c-1.6-2-0.8-3.8-0.8-3.8l-6.4,4c0,0-1.8,2.9,0.6,4.1s3.4,1.2,3.4,1.2
		S490.8,223,494,220.7z"/>
	<path class="st50" d="M481.6,232.1c0,0,2.2-1.6,3.3-2.1c1-0.4,2.1,0.3,2.5,0.9c0.6,1,0.6,1.9-0.7,2.6c-1.2,0.7-3.1,1.6-3.1,1.6
		S481.1,234.4,481.6,232.1z"/>
	<path class="st50" d="M478.8,223.1c0,0,2.5-1.6,3.4-1.9s2,2,1.8,2.6s-3.4,1.9-3.8,1.9C479.8,225.8,478.4,225.1,478.8,223.1z"/>
	<path class="st8" d="M475.9,214c-0.2-1.1-0.7-8.6-0.7-8.6s1.9-8.2,0.3-11.8c-2.5-5.8-6.6-3.1-6.6-0.6c0,1.8-0.6,5.2-1.2,7.2
		c-0.3,0.9-1.6,2.1-1.2,7.1c0.2,4.7-1.2,6.3-1.7,8.5C463.4,222.6,477.8,223.7,475.9,214z"/>
	
		<linearGradient id="SVGID_52_" gradientUnits="userSpaceOnUse" x1="478.5309" y1="94.272" x2="470.3078" y2="94.0498" gradientTransform="matrix(1 0 0 1 0 112)">
		<stop  offset="0" style="stop-color:#D18662"/>
		<stop  offset="1" style="stop-color:#EDA076"/>
	</linearGradient>
	<path class="st67" d="M476.3,215.8c-0.2-1.1-1-10.4-1-10.4s1.9-8.2,0.3-11.8c-2.5-5.8-6.6-3.1-6.6-0.6c0,1.8-0.6,5.2-1.2,7.2
		c-0.3,0.9-1.6,2.1-1.2,7.1c0.2,4.7-1.2,6.3-1.7,8.5C463.4,222.6,478.2,225.5,476.3,215.8z"/>
	<path class="st50" d="M468.9,194.9c0,0,0.2-2.2,0.2-2.6c0-0.3,0.6-1.6,1.5-1.9c0,0-0.8-0.1-1.5,0.6c-0.6,0.6-0.4,2-0.4,2
		S468.6,194.4,468.9,194.9z"/>
	
		<linearGradient id="SVGID_53_" gradientUnits="userSpaceOnUse" x1="3125.002" y1="425.224" x2="3127.8174" y2="432.7326" gradientTransform="matrix(-1 0 0 1 3281.759 112)">
		<stop  offset="0" style="stop-color:#BD714D"/>
		<stop  offset="1" style="stop-color:#F8AD84;stop-opacity:0"/>
	</linearGradient>
	<path class="st68" d="M159.7,538.6c0,0-1.9-2.9-4.7-2.9s-3.6,7.2-3.6,7.2l6.3,2.1C157.7,545,159,539.9,159.7,538.6z"/>
	
		<linearGradient id="SVGID_54_" gradientUnits="userSpaceOnUse" x1="3127.3931" y1="434.1394" x2="3130.6221" y2="442.7486" gradientTransform="matrix(-1 0 0 1 3281.759 112)">
		<stop  offset="0" style="stop-color:#BD714D"/>
		<stop  offset="1" style="stop-color:#F8AD84;stop-opacity:0"/>
	</linearGradient>
	<path class="st69" d="M157,546.6c0,0-1.9-2.8-4.1-1.8c-2.2,1-2.4,3.4-2.7,4.3c-0.3,0.9,2.6,7.4,4.3,4.5
		C156,550.7,156.2,550.1,157,546.6z"/>
	
		<linearGradient id="SVGID_55_" gradientUnits="userSpaceOnUse" x1="475.123" y1="95.3999" x2="472.7856" y2="87.9811" gradientTransform="matrix(1 0 0 1 0 112)">
		<stop  offset="0" style="stop-color:#D18662"/>
		<stop  offset="1" style="stop-color:#EDA076;stop-opacity:0"/>
	</linearGradient>
	<path class="st70" d="M475.2,205.4c0,0-2.5,1.9-4.4,0s1-14,3.1-12.8C476.1,193.9,475.2,205.4,475.2,205.4z"/>
	
		<linearGradient id="SVGID_56_" gradientUnits="userSpaceOnUse" x1="326.8362" y1="-6.5063" x2="332.581" y2="9.7456" gradientTransform="matrix(1 0 0 1 0 112)">
		<stop  offset="0" style="stop-color:#DB8E6B"/>
		<stop  offset="1" style="stop-color:#F8AD84"/>
	</linearGradient>
	<path class="st71" d="M319.8,119.6c0,0-2.4-13.1,2.5-14.6s15.7,2.1,18.4,6.3c2.7,4.3,0.6,10.1,0.6,10.1S326.7,113.7,319.8,119.6z"
		/>
	<path class="st37" d="M340.8,112.1c0.4,0.4-4.4-8.7-12-10.2c-6.5-1.1-9.5,1.3-9.5,2.7s-0.2,2.8,2.9,2.4c3.1-0.6,5.6-1,8.3-0.7
		C335.2,106.9,339.3,110.8,340.8,112.1z"/>
	<path class="st37" d="M340.7,121.6c0,0-4.3-6.1-9.8-6.6c-5.5-0.4-10.5,3.6-11.7,4.8c-1.1,1.2,6.4-1.9,11.1-1.2
		C335,119.3,341.6,123.1,340.7,121.6z"/>
	<path class="st37" d="M333.5,117.9c0,0,2,7.8-1.3,10.3c-3.4,2.5-5.5-0.7-6.6-2.8c-1.1-2.1-0.4-7.4,0.4-8.4
		C326.9,115.9,333.5,117.9,333.5,117.9z"/>
</g>
<rect class="st0" width="608" height="608"/>
</svg>
