<?xml version="1.0" encoding="utf-8"?>
<!-- Generator: Adobe Illustrator 22.1.0, SVG Export Plug-In . SVG Version: 6.00 Build 0)  -->
<svg version="1.1" id="Layer_1" xmlns="http://www.w3.org/2000/svg" xmlns:xlink="http://www.w3.org/1999/xlink" x="0px" y="0px"
	 viewBox="0 0 34 29" style="enable-background:new 0 0 34 29;" xml:space="preserve">
<style type="text/css">
	.st0{fill:url(#SVGID_1_);}
</style>
<g>
	<linearGradient id="SVGID_1_" gradientUnits="userSpaceOnUse" x1="8.8319" y1="13.8661" x2="21.597" y2="13.8661">
		<stop  offset="0" style="stop-color:#F0409C"/>
		<stop  offset="1" style="stop-color:#BF4097"/>
	</linearGradient>
	<path class="st0" d="M14.8,15.4c0.2-0.5,0.5-1,0.8-1.3s0.8-0.8,1.3-1.3c0.7-0.6,1.2-1.1,1.5-1.6c0.3-0.4,0.5-1,0.5-1.6
		c0-0.8-0.3-1.5-1-2c-0.7-0.5-1.6-0.8-2.7-0.8c-2,0-3.5,0.7-4.6,2L8.8,7.6c0.7-0.9,1.6-1.6,2.8-2.1c1.1-0.5,2.4-0.7,3.9-0.7
		c1.9,0,3.4,0.4,4.5,1.2c1.1,0.8,1.6,1.9,1.6,3.4c0,0.7-0.1,1.3-0.3,1.9c-0.2,0.5-0.5,1-0.8,1.4c-0.3,0.4-0.8,0.8-1.3,1.3
		c-0.7,0.6-1.2,1.2-1.6,1.7c-0.3,0.5-0.5,1.1-0.5,1.8h-2.6C14.5,16.5,14.6,15.9,14.8,15.4z M14.6,22.6c-0.3-0.3-0.5-0.7-0.5-1.2
		s0.2-0.9,0.5-1.2c0.3-0.3,0.7-0.5,1.2-0.5c0.5,0,0.9,0.2,1.2,0.5c0.3,0.3,0.5,0.7,0.5,1.2s-0.2,0.9-0.5,1.2
		c-0.3,0.3-0.7,0.5-1.2,0.5C15.3,23.1,14.9,22.9,14.6,22.6z"/>
</g>
</svg>
