<svg xmlns="http://www.w3.org/2000/svg" xmlns:xlink="http://www.w3.org/1999/xlink" viewBox="0 0 180.622 157.733" height="28" width="28"><defs><linearGradient id="a"><stop offset="0" stop-color="#934399"/><stop offset="1" stop-color="#f4409a"/></linearGradient><linearGradient y2="242.844" x2="1" y1="242.844" x1="511" gradientUnits="userSpaceOnUse" id="b" xlink:href="#a"/><linearGradient y2="242.844" x2="1" y1="242.844" x1="511" gradientUnits="userSpaceOnUse" id="c" xlink:href="#a"/><linearGradient y2="242.844" x2="1" y1="242.844" x1="511" gradientUnits="userSpaceOnUse" id="d" xlink:href="#a"/><linearGradient y2="242.844" x2="1" y1="242.844" x1="511" gradientUnits="userSpaceOnUse" id="e" xlink:href="#a"/></defs><g transform="scale(.35278)" fill="url(#b)"><path d="M496.016 447.117H15.988a15.99 15.99 0 0 1-13.851-7.992 16.029 16.029 0 0 1 0-15.988L242.152 7.426c5.711-9.903 21.985-9.903 27.696 0l240.015 415.71a16.029 16.029 0 0 1 0 15.989 15.984 15.984 0 0 1-13.847 7.992zM43.68 415.141h424.64L256 47.398zm0 0" fill="url(#c)"/><path d="M256 383.164c-4.316 0-8.313-1.61-11.352-4.637-3.043-3.043-4.636-7.043-4.636-11.351 0-4.156 1.758-8.324 4.636-11.356a18.53 18.53 0 0 1 5.27-3.355c5.918-2.563 12.953-1.125 17.434 3.355 2.875 3.032 4.636 7.2 4.636 11.356 0 4.308-1.597 8.304-4.636 11.351-3.036 3.028-7.036 4.637-11.352 4.637zm0 0" fill="url(#d)"/><path d="M256 319.207c-8.828 0-15.988-7.152-15.988-15.988v-175.88c0-8.835 7.16-15.987 15.988-15.987 8.832 0 15.988 7.152 15.988 15.988v175.879c0 8.836-7.156 15.988-15.988 15.988zm0 0" fill="url(#e)"/></g></svg>