<svg xmlns="http://www.w3.org/2000/svg" xmlns:xlink="http://www.w3.org/1999/xlink" id="Layer_1" x="0px" y="0px" viewBox="0 0 64 64" xml:space="preserve"><g> <path class="st0" d="M51.4,54.7c-0.2-2.1-1.1-6-1.6-6.6c-0.1-0.2-0.2-1.5-0.3-2.7c0-0.6-0.1-1.2-0.1-1.8c-0.1-0.8-0.1-1.5-0.2-2.3 c-0.1-0.7-0.2-1.4-0.4-1.9c-0.7-2.3-1.1-4.8-0.9-7.2c0.1-2.2-1.1-4.4-3.4-6.2c-0.9-0.7-1.3-0.8-1.7-0.9c-0.3,0-0.7-0.1-1.6-0.6 c-1.1-0.6-3.8-2.3-4-2.5c-0.4-0.4-0.5-1.1-0.5-2.2c0.6-0.3,1.1-0.7,1.1-1.1c0-0.3,0.3-2,0.6-3.4c0.3-1.5,0.4-2.4,0.4-2.6 c0-0.4-0.4-1.4-0.4-1.7l0-0.1l0.1-0.2c0.2-0.4,0.6-1.3,0.7-5.4c0-2.3-1.2-2.7-1.8-2.9c0.3-0.5,0.2-1.1,0.2-1.1 c0-0.1-0.1-0.2-0.2-0.2c-0.1,0-0.2,0-0.3,0.1c-0.5,0.5-2-0.1-3.1-0.5l-0.2-0.1C31.8-0.1,30.3,1,29,1.9c-0.5,0.4-1,0.7-1.5,1 c-2,1-2.8,2.3-2.7,3.1c0.1,0.6,0.8,4.4,1,5.5c-0.1,0-0.2,0.1-0.3,0.1c-0.3,0.2-0.4,0.5-0.4,1c-0.1,1,1,2,1.3,2.3 c0.2,0.6,1.1,3.5,2.2,4.6c0,0.8-0.2,2-0.6,2.3c-0.5,0.5-2.4,0.9-4.1,1.3c-0.9,0.2-1.5,0.6-2.2,0.9c-0.8,0.4-1.5,0.8-2.8,1.1 c-3.2,0.7-5.4,3.8-5.4,5.2c0,0.6-0.3,1.6-0.6,3c-0.4,1.6-0.9,3.8-1.5,6.9c-0.4,2.2-0.3,6.7-0.3,7.2c-0.1,0.5-1,5.5-0.8,7.6 c0.2,1.3,1.2,4.8,2,7.5c0.1,0.5,0.3,0.9,0.4,1.3h0.6c-0.1-0.5-0.3-1-0.4-1.5c-0.8-2.7-1.8-6.2-2-7.4c-0.2-2.1,0.8-7.4,0.8-7.5 c0,0,0,0,0-0.1c0,0,0-0.6,0-1.5c0.7,0,3.1,0.2,7.1,1.4c-0.5,1.8-0.9,2.9-1.2,3.6c-0.2,0.6-0.3,1-0.4,1.2c0,0.2,0,0.5,0.2,1.1 c0.2,1,0.4,2.5,0.4,3.6c0,0.4-0.1,1-0.1,1.6c-0.2,2.4-0.3,4.5-0.2,5.5h0.6c-0.1-0.9,0.1-3.7,0.2-5.4c0-0.6,0.1-1.2,0.1-1.6 c0.1-1.2-0.2-2.7-0.4-3.7c-0.1-0.5-0.2-0.9-0.1-1c0-0.2,0.1-0.5,0.3-1c0.3-0.8,0.7-2,1.3-3.9c0-0.2,0.1-0.3,0.1-0.5 c0.1-0.5,0.3-1.4,0.5-2.2c0.1,0.4,0.2,0.8,0.4,1.1c0.5,0.9,1.5,3.5,1.6,4.1c0.1,0.6,0.1,2.3,0,3.4c0,0.2-0.1,0.8-0.2,1.4 c-0.1,0.7-0.2,1.5-0.3,1.8c0,0.1-0.2,0.7-0.4,1.2c-0.5,1.4-1.3,3.6-1.4,5.5c0,0.3,0,0.6-0.1,0.9h0.6c0-0.3,0-0.6,0.1-0.9 c0.1-1.3,0.5-2.8,0.9-4c1.3,0.4,7.2,1.9,12.7,1.9c3,0,5.9-0.5,7.9-1.8c0.1,0.2,0.2,0.4,0.3,0.7c0.5,1.4,1.1,3.1,1.3,4.1v0h0.6 c0,0,0-0.1,0-0.1c-0.2-1-0.8-2.8-1.4-4.2c-0.3-0.9-0.7-1.9-0.7-2.1l0-0.2c0.3-6.4,0.6-7.4,0.7-7.6c0.2-0.4,0.4-1.7,0.6-2.9 c0.5,0.9,1.1,2.3,1,2.8c-0.1,1,0.8,7.2,1.9,10c0.5,1.2,1.1,2.4,1.6,3.6c0.1,0.2,0.2,0.3,0.2,0.5h0.6c-0.1-0.2-0.2-0.5-0.4-0.8 c-0.6-1.2-1.2-2.4-1.6-3.6c-1.1-2.8-1.9-8.9-1.8-9.8c0-0.9-1.1-3-1.4-3.7c0.4-0.4,2.1-1.9,5.4-2.3c0,0.5,0.1,1,0.1,1.5 c0.1,2.1,0.2,2.8,0.4,3.1c0.3,0.4,1.3,4,1.5,6.2c0.1,1.4,0.4,5.8,0.6,9.2h0.6C51.9,60.4,51.6,55.9,51.4,54.7z M26.9,14.7 c0-0.1,0-0.1-0.1-0.1c-0.3-0.3-1.2-1.1-1.2-1.9c0-0.3,0.1-0.5,0.2-0.5c0.1,0,0.1-0.1,0.2-0.1c0,0,0.1,0,0.1,0c0.1,0,0.2,0,0.3-0.1 c0.1-0.1,0.1-0.2,0.1-0.3c0,0-0.9-5.2-1-5.9c-0.1-0.5,0.5-1.6,2.4-2.5c0.5-0.3,1.1-0.7,1.6-1c1.3-0.9,2.5-1.8,4.1-1.2l0.2,0.1 c1.1,0.4,2.4,0.9,3.2,0.7c0,0.2-0.1,0.4-0.2,0.5c-0.1,0.1-0.2,0.3-0.1,0.4C36.6,3,36.8,3,37,3.1c0.5,0.1,1.5,0.3,1.5,2.4 c0,0.9,0,1.7-0.1,2.3c-0.1-0.3-0.1-0.7-0.2-1c-0.2-0.8-0.6-1.1-0.9-1.2c-0.5-0.2-1.2,0-1.8,0.4L35.4,6c-0.8,0.6-0.9,0.7-2.4-0.1 c-2-1-5-0.3-5.5,0.5c-0.3,0.4-0.3,1.8-0.2,4.5c0,0.1,0,0.2,0,0.2c0,0.2,0.1,0.3,0.3,0.3c0.2,0,0.3-0.1,0.3-0.3c0,0,0-0.1,0-0.3 c-0.2-3.3,0-4,0.1-4.1c0.3-0.5,3-1.2,4.8-0.3c1.7,0.9,2,0.7,2.9,0l0.1-0.1c0.5-0.3,1-0.5,1.3-0.3c0.3,0.1,0.5,0.4,0.6,0.8 c0.2,0.9,0.4,1.9,0.5,2.4c0,0-0.1-0.1-0.2-0.1c-0.2,0-1.5,0-1.8,0.8c-0.3,0.7,0.6,3.1,1,4.1c0.1,0.2,0.3,0.6,0.2,0.8 c0,0-0.1,0.1-0.2,0.1c-0.4,0.1-1.3,0.2-1.5,0.1c-0.2,0-0.3,0.1-0.3,0.3c0,0.2,0.1,0.3,0.3,0.3c0,0,0.1,0,0.2,0c0.3,0,1.1,0,1.6-0.2 c0.2-0.1,0.4-0.2,0.6-0.4c0.1-0.3,0-0.7-0.2-1.2c-0.7-1.8-1.1-3.4-1-3.7c0.1-0.3,0.8-0.4,1.3-0.4c0.1,0,0.2-0.1,0.3-0.2 c0,0,0,0,0,0c0,0,0,0,0,0c-0.1,0.6-0.3,0.9-0.3,1c0,0,0,0,0,0l-0.1,0.3c0,0,0,0.1,0,0.1l0.1,0.2c0,0,0,0,0,0 c0.2,0.5,0.4,1.2,0.4,1.5c0,0.2-0.2,1.4-0.4,2.5c-0.3,1.8-0.6,3.2-0.6,3.5c-0.1,0.2-1,0.8-2,1.2c-0.6,0.1-3.2-0.1-5.9-0.6 c-0.1,0-0.2-0.1-0.3-0.2c0,0,0,0,0,0C28.3,18.5,27.4,16.2,26.9,14.7z M28.5,22.3c0.5-0.4,0.7-1.7,0.7-2.4c0.1,0,0.1,0,0.2,0.1 c2,0.4,4.2,0.6,5.4,0.6c0.3,0,0.6,0,0.8-0.1c0,0,0,0,0,0c0.2-0.1,0.4-0.2,0.7-0.3c0,0.8,0.1,1.7,0.6,2.2c0.2,0.2,0.6,0.6,1.1,0.9 c-0.1,0.7-0.4,2.1-1.5,3.2c-0.9,0.9-2.2,1.3-3.9,1.2c-4.7-0.3-5.9-3.6-6.1-4.6C27.4,22.9,28.1,22.6,28.5,22.3z M43.5,45.4 c0-0.4,0.1-0.7,0.1-0.8c0.1-0.3,0.7-2.2,0.8-3.6c0.1-1.5-0.9-6.2-0.9-6.4c0-0.1-0.2-0.2-0.3-0.2c-0.1,0-0.2,0.2-0.2,0.3 c0,0,1,4.8,0.9,6.2c0,0,0,0.1,0,0.1c0,0-0.1,0.1-0.1,0.2c-0.1,0.9-3.1,1.6-5.2,1.9c-0.2,0-0.3,0.2-0.2,0.3c0,0.1,0.1,0.2,0.3,0.2 c0,0,0,0,0,0c0.7-0.1,3.8-0.5,5.1-1.5c-0.2,1.1-0.6,2.3-0.6,2.3c0,0,0,0,0,0.1c0,0.4-0.1,1-0.2,1.6c0,0,0,0,0,0 c-0.2,1.4-0.5,3.1-0.7,3.6c-0.3,0.7-0.6,4.6-0.8,7.8l0,0.1c0,0.1,0.1,0.4,0.3,1.1c-5.2,3.8-18.2,0.5-20.2-0.1 c0.1-0.3,0.2-0.6,0.3-0.8c0.3-0.8,0.4-1.2,0.4-1.4c0-0.3,0.1-1.1,0.2-1.7c0.1-0.7,0.2-1.3,0.2-1.5c0-0.7,0.1-2.8,0-3.5 c-0.1-0.7-1.1-3.2-1.7-4.2c-0.5-0.9-0.5-2.7-0.4-2.7c0-0.1-0.1-0.3-0.2-0.3c-0.1,0-0.3,0.1-0.3,0.2c0,0-0.6,2.9-0.9,4 c0,0.1,0,0.1-0.1,0.2c-4.1-1.3-6.5-1.4-7.3-1.4c0-1.6,0.1-3.7,0.3-5c0.6-3.1,1.1-5.3,1.5-6.9c0.4-1.5,0.6-2.4,0.6-3.1 c0.1-1.3,2.1-4.1,5-4.7c1.3-0.3,2.1-0.7,2.9-1.1c0.6-0.3,1.2-0.7,2-0.9c0.6-0.2,1.2-0.3,1.8-0.5c0.3,1.1,1.6,4.7,6.6,5 c0.2,0,0.3,0,0.5,0c1.6,0,2.9-0.5,3.8-1.4c1.1-1.1,1.5-2.4,1.6-3.3c0.8,0.5,1.7,1,2.5,1.4c0.9,0.5,1.4,0.6,1.7,0.6 c0.4,0.1,0.6,0.1,1.5,0.8c1.5,1.2,3.3,3.2,3.2,5.8c-0.1,2.5,0.2,5.1,1,7.4c0.3,0.9,0.5,2.3,0.6,3.7C46.1,43.6,44.4,44.7,43.5,45.4z "></path> <path class="st0" d="M31.2,43.4c0,0-2,0.4-4.3,0.3c-2.5-0.1-2.5-0.7-2.5-0.9c0-0.2-0.1-0.3-0.3-0.3c-0.2,0-0.3,0.1-0.3,0.3 c0,0.9,0.9,1.4,3,1.5c0.3,0,0.6,0,0.9,0c2,0,3.4-0.3,3.5-0.3c0.1,0,0.2-0.2,0.2-0.3C31.5,43.5,31.4,43.4,31.2,43.4z"></path> </g> </svg>