<svg xmlns="http://www.w3.org/2000/svg" xmlns:xlink="http://www.w3.org/1999/xlink" id="Layer_1" x="0px" y="0px" viewBox="0 0 64 64" xml:space="preserve"> <g> <path class="st0" d="M46.1,59.3c0-2.7-1.1-10.8-1.2-11.2c0,0-0.3-2.9-0.4-7.4c-0.1-4.4-1.4-13.3-3.5-14.5c-1-0.5-4.2-1.7-6.8-2.4 c-0.5-0.1-0.9-0.6-1.2-1.4c-0.5-1.4-0.4-3.3-0.2-4.1c0.4,1.7,1.4,3.7,2.2,4.6c1.3,1.3,3.9,1.5,5.7,1.3c2.6-0.3,4.2-3.2,4.3-3.4 c0.1-0.1,0-0.3-0.1-0.4c-0.1-0.1-0.3-0.1-0.4,0c-0.5,0.5-1.1,0.6-1.7,0.4c-0.6-0.2-1.1-0.8-1.2-1.4c-0.1-0.8,0.3-1.6,1.2-2.2 c2.6-2,0.7-5.2-1.3-8.6c-0.5-0.9-1.1-1.9-1.6-2.8c-1.2-2.4-2.6-3-3.6-3.1c-1.1-0.1-2,0.5-2.3,1c-0.1,0.2-0.2,0.3-0.3,0.5 c0-0.1-0.1-0.3-0.1-0.6C33.4,3,33,2.4,32.2,1.8c-1.8-1.2-4.7-2-6.4-1.6c-2.6,0.6-4.5,2.1-6.1,4.8c-0.4,0.7-0.2,1.4,0,2 c0.1,0.4,0.2,0.7,0.2,1c-0.5,1.5,0.2,3,0.4,3.4c-0.1,0.4-0.5,2.1-0.8,3c-0.1,0.3-0.1,0.6,0.1,0.8c0.3,0.4,0.8,0.5,1.2,0.6 c0,0,0,0,0.1,0c0,0.1,0,0.2,0,0.3c0,0.5,0,1.3,0.6,1.7c0.1,0,0.1,0.4,0.2,0.5c0.1,0.6,0.4,1.6,1.5,1.6c1.2,0,2.5-0.6,3-0.8 c0.3,0.5,1.1,2-0.1,4.1c-0.3,0.6-1.9,1.1-3.2,1.6c-0.9,0.3-1.7,0.6-2.2,0.9c-0.1,0-2.3,1.1-2.7,4.3c-0.4,3.4-0.2,5.9-0.1,6.5 c-0.3,0.4-1.6,2-1.5,3.7c0.1,1,0.5,1.7,1,2.3c0.1,1.1,0.5,10.2-0.1,12c-0.7,2.1-0.6,6.2-0.3,9.4h0.6c-0.2-3.1-0.3-7.2,0.3-9.2 c0.5-1.8,0.2-9.3,0.1-11.6c0.6,0.5,1.1,0.7,1.4,0.9c-0.1,1-0.5,5-0.3,6.6c0.1,0.8-0.1,2.8-0.4,5c-0.3,2.5-0.7,5.6-0.7,8.3h0.6 c0-2.1,0.3-4.4,0.5-6.6c0.8,0.2,3.1,0.7,6.3,0.7c3,0,6.8-0.5,10.7-2.1c1.3,2,2.8,4.8,3.1,7.2c0,0.2,0.1,0.5,0.1,0.7h0.6 c0-0.3,0-0.5-0.1-0.8c-0.4-3-2.4-6.2-4.2-8.9c-0.5-0.8-1.1-2.2-1.3-3.9c0,0,0-0.1,0-0.1c-0.1-1.1,0.1-2.3,0.7-3.5 c2.1-3.8,2.7-6.7,2.9-8.4c0.9,2.9,2.4,8.5,2.5,10c0,0.6,0,1.4,0,2.3c0,2.5,0,5.9,0.3,7.6c0.1,0.4,0.4,1.3,0.7,2.5 c0.3,0.8,0.6,2,0.9,3.2h0.6c-0.3-0.9-0.6-2-1-3.3c-0.3-1.1-0.6-2.1-0.7-2.4c-0.3-1.6-0.3-5-0.3-7.5c0-0.9,0-1.7,0-2.3 c-0.1-2.1-2.9-11.6-3-12c0-0.1-0.2-0.2-0.3-0.2c-0.1,0-0.2,0.2-0.2,0.3c0,0,0.1,0.6,0,1.7c-0.6-0.9-1.6-2.8-1.4-4.5 c0.4-3,1.7-7.5,2-8.2c1.2,0.4,2.3,0.9,2.8,1.1c1.7,0.9,3.1,9.1,3.2,14c0.1,4.5,0.4,7.4,0.4,7.4c0,0.1,1.1,8.5,1.2,11.1 c0,1.2,0,3-0.1,4.7H46C46,62.3,46.1,60.5,46.1,59.3z M26.5,23.5c1.2-2.3,0.5-4,0.1-4.7c0.8-0.3,2.6-1.1,3-1.6 c0.1-0.1,0.1-0.3,0-0.4c-0.1-0.1-0.3-0.1-0.4,0c-0.3,0.3-2.1,1.1-3.2,1.6c0,0,0,0,0,0c0,0,0,0,0,0c0,0-1.6,0.9-2.9,0.9 c-0.7,0-0.8-0.5-1-1.2c-0.1-0.4-0.2-0.7-0.4-0.9c-0.3-0.2-0.3-0.8-0.3-1.2c0-0.4,0-0.7-0.3-0.8c-0.1,0-0.1,0-0.3-0.1 c-0.2,0-0.7-0.1-0.8-0.3c-0.1-0.1-0.1-0.2,0-0.4c0.3-1,0.8-3,0.8-3.1c0-0.1,0-0.1,0-0.2c0,0-0.9-1.6-0.4-3.1c0-0.1,0-0.2,0.1-0.2 C21,7.9,22,8,22.6,7.4c0.7-0.7,3.2-1.7,4.7-1.3c1.2,0.3,1.3,3.5,1.2,4.5c0,0.1,0.1,0.2,0.2,0.3c0.1,0.1,0.2,0,0.3,0 c0.3-0.3,1-0.6,1.3-0.5c0.1,0,0.2,0.1,0.3,0.4c0.1,0.5,0,1-0.2,1.5c-0.2,0.7-0.5,1.7,0.6,2.2c0,0,0.1,0,0.1,0 c0.1,0,0.2-0.1,0.2-0.2c0.1-0.1,0-0.3-0.1-0.4c-0.7-0.3-0.6-0.7-0.3-1.5c0.2-0.5,0.4-1.2,0.2-1.8C31,10,30.7,9.9,30.5,9.8 c-0.5-0.1-1,0.1-1.4,0.3c0-1.3-0.1-4.2-1.6-4.5C25.7,5.1,23,6.2,22.2,7c-0.4,0.4-1.4,0.4-1.8,0.3c0-0.2-0.1-0.3-0.2-0.5 c-0.2-0.5-0.4-1-0.1-1.5c1.5-2.6,3.3-4,5.8-4.5c1.5-0.3,4.3,0.4,5.9,1.5c0.7,0.5,1,0.9,1.1,1.4c0.1,1,0.2,1.3,0.5,1.4 c0.3,0.1,0.4-0.2,0.6-0.5c0.1-0.1,0.2-0.3,0.2-0.4c0.2-0.3,0.9-0.8,1.8-0.7c0.8,0.1,2,0.6,3.2,2.8c0.5,0.9,1,1.9,1.6,2.8 c1.9,3.2,3.7,6.2,1.4,7.9c-1.4,1.1-1.5,2.2-1.4,2.8c0.1,0.9,0.8,1.6,1.6,1.9c0.4,0.1,0.8,0.1,1.1,0.1c-0.7,0.8-1.8,2-3.2,2.1 c-1.8,0.2-4.1,0-5.2-1.1c-0.8-0.8-1.8-2.8-2.1-4.3c-0.1-0.2-0.2-0.8-0.5-0.8h0c-0.1,0-0.5,0-0.6,1.6c-0.1,1.7,0.1,5,2,5.4 c0.7,0.2,1.5,0.4,2.2,0.6c-0.4,0.9-2.3,5.6-2.6,8.9c-0.2,0.2-1,0.4-1.8,0.6c-2,0.5-5,1.2-6.5,2.9c-0.6-0.7-2.1-2.7-2.7-3.3 c-0.4-0.5,0.6-5.1,1.7-9c0-0.1,0-0.2,0-0.2C25.3,24.5,26.2,24.1,26.5,23.5z M18.4,30.1c0.3-2.9,2.3-3.8,2.4-3.9 c0.2-0.1,0.5-0.3,0.9-0.4l-2.2,7.4c-0.3,1.3-0.9,2.2-1.3,2.7C18.2,34.9,18.1,32.8,18.4,30.1z M35,54.6c0.2,0.3,0.4,0.6,0.6,1 c-7.9,3.2-15.2,1.6-16.6,1.3c0-0.4,0.1-0.7,0.1-1.1c0.2-1.9,0.4-3.4,0.4-4.4c0.7,0.6,2.2,1.4,5,1.4c2.2,0,5.1-0.5,9-2 C33.9,52.4,34.5,53.8,35,54.6z M35.4,33.8c-0.3,2.3,1.4,4.8,1.8,5.4c-0.3,1.7-1,4.2-2.8,7.5c-0.6,1.2-0.9,2.4-0.8,3.6 c-10.5,4-13.7,0.8-14.1,0.3c-0.2-1.8,0.3-6.6,0.3-6.6c0-0.1-0.1-0.2-0.2-0.3c0,0-2.7-1.1-2.9-3.4c-0.1-1.7,1.3-3.3,1.4-3.4 c0.1-0.1,1.3-1.2,1.8-3.5l2.3-7.8c0.2-0.1,0.4-0.1,0.6-0.2c0.2-0.1,0.5-0.2,0.7-0.2c-0.6,2.2-2.4,8.6-1.6,9.4 c0.8,0.8,2.9,3.6,2.9,3.6c0.1,0.1,0.1,0.1,0.2,0.1c0,0,0,0,0,0c0.1,0,0.2,0,0.2-0.1c1.3-1.7,4.4-2.5,6.4-3c1.5-0.4,2.2-0.5,2.2-1 c0.3-3.3,2.3-8.2,2.6-8.9c0.2,0.1,0.4,0.1,0.6,0.2C37.2,26.1,35.9,30.7,35.4,33.8z"></path> <path class="st0" d="M35.8,8c-0.5-0.7-0.8-1-1.1-0.9c-0.4,0.1-0.4,0.8-0.4,1.4c0,0,0,0.1,0,0.1c0,1.3-0.8,3.5-0.8,3.5 c0,0.1,0,0.2,0.1,0.3c0.1,0.1,0.1,0.1,0.2,0.1c0,0,0,0,0.1,0c0.1,0,0.6-0.2,1-1.2c0.1-0.3,0.3-0.5,0.6-0.8 C35.9,9.9,36.6,9.2,35.8,8z M35,10.1c-0.2,0.2-0.3,0.3-0.4,0.5c0.2-0.7,0.3-1.4,0.3-2c0,0,0-0.1,0-0.1c0-0.5,0-0.7,0-0.8 c0.1,0.1,0.2,0.2,0.5,0.6C35.9,9.2,35.5,9.6,35,10.1z"></path> <path class="st0" d="M30.7,43.5c-4,1.6-5.7-0.2-5.8-0.3c-0.1-0.1-0.3-0.1-0.4,0c-0.1,0.1-0.1,0.3,0,0.4c0.1,0.1,1.1,1.1,3.2,1.1 c0.9,0,1.9-0.2,3.2-0.7c0.1-0.1,0.2-0.2,0.2-0.4C31,43.5,30.9,43.4,30.7,43.5z"></path> </g> </svg>