<?xml version="1.0" encoding="UTF-8"?> <!-- Generator: Adobe Illustrator 21.1.0, SVG Export Plug-In . SVG Version: 6.00 Build 0) --> <svg xmlns="http://www.w3.org/2000/svg" xmlns:xlink="http://www.w3.org/1999/xlink" id="Layer_1" x="0px" y="0px" viewBox="0 0 26 25" style="enable-background:new 0 0 26 25;" xml:space="preserve"> <style type="text/css"> .st0{fill:url(#SVGID_1_);} .st1{fill:url(#SVGID_2_);} .st2{fill:url(#SVGID_3_);} .st3{fill:url(#SVGID_4_);} .st4{fill:url(#SVGID_5_);} .st5{fill:url(#SVGID_6_);} .st6{fill:url(#SVGID_7_);} .st7{fill:url(#SVGID_8_);} .st8{fill:url(#SVGID_9_);} .st9{fill:url(#SVGID_10_);} .st10{fill:url(#SVGID_11_);} .st11{fill:url(#SVGID_12_);} .st12{fill:url(#SVGID_13_);} .st13{fill:url(#SVGID_14_);} .st14{fill:url(#SVGID_15_);} .st15{fill:url(#SVGID_16_);} .st16{fill:url(#SVGID_17_);} </style> <linearGradient id="SVGID_1_" gradientUnits="userSpaceOnUse" x1="6.1992" y1="1.7297" x2="8.9598" y2="1.7297"> <stop offset="0" style="stop-color:#F0409C"></stop> <stop offset="1" style="stop-color:#BF4097"></stop> </linearGradient> <path class="st0" d="M8,3.5L7.2,3.1l0.7-1.7L6.2,0.8L6.6,0l2.1,0.8C8.9,0.9,9,1.2,8.9,1.4L8,3.5z"></path> <linearGradient id="SVGID_2_" gradientUnits="userSpaceOnUse" x1="0.1191" y1="12.5003" x2="25.1397" y2="12.5003"> <stop offset="0" style="stop-color:#F0409C"></stop> <stop offset="1" style="stop-color:#BF4097"></stop> </linearGradient> <path class="st1" d="M12.6,25c-2.4,0-4.8-0.7-6.9-2c-2.8-1.8-4.7-4.6-5.4-7.9C-0.9,9.1,2.3,3.2,7.9,1l0.3,0.8 C3,3.9,0.1,9.4,1.2,14.9c0.7,3.1,2.4,5.7,5,7.4C8.9,24,12,24.5,15,24c3.1-0.7,5.7-2.4,7.4-5c1.7-2.6,2.3-5.7,1.7-8.7 c-0.7-3.1-2.4-5.7-5-7.4c-2.6-1.7-5.7-2.3-8.8-1.7l-0.2-0.8c3.3-0.7,6.6-0.1,9.4,1.8c2.8,1.8,4.7,4.6,5.4,7.9 c0.7,3.3,0.1,6.6-1.8,9.4c-1.9,2.9-4.7,4.8-8,5.4C14.3,24.9,13.5,25,12.6,25z"></path> <linearGradient id="SVGID_3_" gradientUnits="userSpaceOnUse" x1="12.2749" y1="3.7201" x2="13.1234" y2="3.7201"> <stop offset="0" style="stop-color:#F0409C"></stop> <stop offset="1" style="stop-color:#BF4097"></stop> </linearGradient> <path class="st2" d="M13.1,2.9h-0.8v1.7h0.8V2.9z"></path> <linearGradient id="SVGID_4_" gradientUnits="userSpaceOnUse" x1="12.2749" y1="21.3436" x2="13.1234" y2="21.3436"> <stop offset="0" style="stop-color:#F0409C"></stop> <stop offset="1" style="stop-color:#BF4097"></stop> </linearGradient> <path class="st3" d="M13.1,20.5h-0.8v1.7h0.8V20.5z"></path> <linearGradient id="SVGID_5_" gradientUnits="userSpaceOnUse" x1="7.5176" y1="4.8817" x2="9.1007" y2="4.8817"> <stop offset="0" style="stop-color:#F0409C"></stop> <stop offset="1" style="stop-color:#BF4097"></stop> </linearGradient> <path class="st4" d="M8.3,3.9L7.5,4.4l0.8,1.5l0.7-0.4L8.3,3.9z"></path> <linearGradient id="SVGID_6_" gradientUnits="userSpaceOnUse" x1="16.3047" y1="20.1688" x2="17.888" y2="20.1688"> <stop offset="0" style="stop-color:#F0409C"></stop> <stop offset="1" style="stop-color:#BF4097"></stop> </linearGradient> <path class="st5" d="M17,19.2l-0.7,0.4l0.8,1.5l0.7-0.4L17,19.2z"></path> <linearGradient id="SVGID_7_" gradientUnits="userSpaceOnUse" x1="4.1435" y1="8.1567" x2="6.0391" y2="8.1567"> <stop offset="0" style="stop-color:#F0409C"></stop> <stop offset="1" style="stop-color:#BF4097"></stop> </linearGradient> <path class="st6" d="M4.6,7.4L4.1,8.1l1.5,0.8L6,8.2L4.6,7.4z"></path> <linearGradient id="SVGID_8_" gradientUnits="userSpaceOnUse" x1="19.3643" y1="16.8786" x2="21.2598" y2="16.8786"> <stop offset="0" style="stop-color:#F0409C"></stop> <stop offset="1" style="stop-color:#BF4097"></stop> </linearGradient> <path class="st7" d="M19.8,16.1l-0.4,0.7l1.5,0.8l0.4-0.7L19.8,16.1z"></path> <linearGradient id="SVGID_9_" gradientUnits="userSpaceOnUse" x1="3.0635" y1="12.4995" x2="4.7619" y2="12.4995"> <stop offset="0" style="stop-color:#F0409C"></stop> <stop offset="1" style="stop-color:#BF4097"></stop> </linearGradient> <path class="st8" d="M4.8,12.1H3.1v0.8h1.7V12.1z"></path> <linearGradient id="SVGID_10_" gradientUnits="userSpaceOnUse" x1="20.6362" y1="12.4995" x2="22.3346" y2="12.4995"> <stop offset="0" style="stop-color:#F0409C"></stop> <stop offset="1" style="stop-color:#BF4097"></stop> </linearGradient> <path class="st9" d="M22.3,12.1h-1.7v0.8h1.7V12.1z"></path> <linearGradient id="SVGID_11_" gradientUnits="userSpaceOnUse" x1="4.1499" y1="16.928" x2="6.0455" y2="16.928"> <stop offset="0" style="stop-color:#F0409C"></stop> <stop offset="1" style="stop-color:#BF4097"></stop> </linearGradient> <path class="st10" d="M5.6,16.1L4.1,17l0.4,0.7L6,16.9L5.6,16.1z"></path> <linearGradient id="SVGID_12_" gradientUnits="userSpaceOnUse" x1="19.3608" y1="8.1242" x2="21.2564" y2="8.1242"> <stop offset="0" style="stop-color:#F0409C"></stop> <stop offset="1" style="stop-color:#BF4097"></stop> </linearGradient> <path class="st11" d="M20.8,7.3l-1.5,0.8l0.4,0.7l1.5-0.8L20.8,7.3z"></path> <linearGradient id="SVGID_13_" gradientUnits="userSpaceOnUse" x1="7.5024" y1="20.1338" x2="9.0855" y2="20.1338"> <stop offset="0" style="stop-color:#F0409C"></stop> <stop offset="1" style="stop-color:#BF4097"></stop> </linearGradient> <path class="st12" d="M8.4,19.2l-0.8,1.5l0.7,0.4l0.8-1.5L8.4,19.2z"></path> <linearGradient id="SVGID_14_" gradientUnits="userSpaceOnUse" x1="16.3184" y1="4.9012" x2="17.902" y2="4.9012"> <stop offset="0" style="stop-color:#F0409C"></stop> <stop offset="1" style="stop-color:#BF4097"></stop> </linearGradient> <path class="st13" d="M17.2,4l-0.8,1.5l0.7,0.4l0.8-1.5L17.2,4z"></path> <linearGradient id="SVGID_15_" gradientUnits="userSpaceOnUse" x1="8.0288" y1="12.1079" x2="11.8829" y2="12.1079"> <stop offset="0" style="stop-color:#F0409C"></stop> <stop offset="1" style="stop-color:#BF4097"></stop> </linearGradient> <path class="st14" d="M11.9,16.3H8.6c-0.1,0-0.2-0.1-0.3-0.1c-0.1-0.1-0.1-0.2-0.1-0.3c0-0.9,0.3-1.8,0.8-2.5l1.5-2 c0.3-0.5,0.5-1,0.5-1.6c0-0.6-0.5-1-1-1c-0.6,0-1,0.5-1,1v0.7H8V9.8c0-1,0.8-1.9,1.9-1.9c1,0,2,0.8,2,1.9c0,0.8-0.3,1.5-0.7,2.2 l-1.5,2c-0.3,0.5-0.6,1-0.7,1.6h2.9V16.3z"></path> <linearGradient id="SVGID_16_" gradientUnits="userSpaceOnUse" x1="12.2476" y1="11.1938" x2="16.9127" y2="11.1938"> <stop offset="0" style="stop-color:#F0409C"></stop> <stop offset="1" style="stop-color:#BF4097"></stop> </linearGradient> <path class="st15" d="M16.8,14.6h-4.2c-0.1,0-0.3-0.1-0.3-0.2c-0.1-0.1-0.1-0.3-0.1-0.4L14,7.8L14.8,8l-1.5,5.7h3.7L16.8,14.6z"></path> <linearGradient id="SVGID_17_" gradientUnits="userSpaceOnUse" x1="15.2144" y1="14.4248" x2="16.0629" y2="14.4248"> <stop offset="0" style="stop-color:#F0409C"></stop> <stop offset="1" style="stop-color:#BF4097"></stop> </linearGradient> <path class="st16" d="M16.1,12.5h-0.8v3.8h0.8V12.5z"></path> </svg> 