<?xml version="1.0" encoding="UTF-8"?> <!-- Generator: Adobe Illustrator 21.1.0, SVG Export Plug-In . SVG Version: 6.00 Build 0) --> <svg xmlns="http://www.w3.org/2000/svg" xmlns:xlink="http://www.w3.org/1999/xlink" id="Layer_1" x="0px" y="0px" viewBox="0 0 26 25" style="enable-background:new 0 0 26 25;" xml:space="preserve"> <style type="text/css"> .st0{fill:url(#SVGID_1_);} </style> <linearGradient id="SVGID_1_" gradientUnits="userSpaceOnUse" x1="0.2451" y1="12.5" x2="25.2657" y2="12.5"> <stop offset="0" style="stop-color:#F0409C"></stop> <stop offset="1" style="stop-color:#BF4097"></stop> </linearGradient> <path class="st0" d="M24,8.9c0,0,0.7-0.7,0.7-1.8c0-0.7-0.2-1.3-0.7-1.7L23.6,5L24,4.6c1-1,1-2.5,0-3.4c-1-1-2.5-1-3.4,0l-0.4,0.4 l-0.4-0.4c-1-1-2.5-1-3.4,0l-0.1,0.1l-0.7-0.7c-0.7-0.7-2-0.7-2.8,0c-0.7,0.7-0.7,2,0,2.8l2.8,2.8l-9.2,9.4l-2.8-2.8 c-0.7-0.7-2-0.7-2.8,0c-0.7,0.7-0.7,2,0,2.8l0.7,0.7l-0.1,0.1c-1,1-1,2.5,0,3.4L1.8,20l-0.4,0.4c-1,1-1,2.5,0,3.4c1,1,2.5,1,3.4,0 l0.4-0.4l0.4,0.4c1,1,2.5,1,3.4,0l0.1-0.1l0.7,0.7c0.7,0.7,2,0.7,2.8,0c0.7-0.7,0.7-2,0-2.8l-2.8-2.8l9.4-9.4l2.8,2.8 c0.7,0.7,2,0.7,2.8,0c0.7-0.7,0.7-2,0-2.8L24,8.9z M21.3,1.9c0.6-0.6,1.5-0.6,2.1,0s0.6,1.5,0,2.1L23,4.4l-2-2.1L21.3,1.9z M17.1,1.9c0.6-0.6,1.5-0.6,2.1,0L23.4,6c0.6,0.6,0.6,1.5,0,2.1l-0.1,0.1L17.1,1.9z M4.3,23.1c-0.6,0.6-1.5,0.6-2.1,0 c-0.6-0.6-0.6-1.5,0-2.1l0.4-0.3l2.1,2.1L4.3,23.1z M8.4,23.1c-0.6,0.6-1.5,0.6-2.1,0L2.2,19c-0.6-0.6-0.6-1.5,0-2.1l0.1-0.1 L8.4,23.1z M11.9,23.7c-0.4,0.4-1,0.4-1.3,0c-0.4-0.4-8.5-8.5-9-9c-0.4-0.4-0.4-1,0-1.3c0.4-0.4,1-0.4,1.3,0l9,9 C12.3,22.7,12.3,23.3,11.9,23.7z M9.1,18.2L7,16.1l9.4-9.4l2.1,2.1L9.1,18.2z M24,11.6c-0.4,0.4-1,0.4-1.3,0l-9-9 c-0.4-0.4-0.4-1,0-1.3c0.4-0.4,1-0.4,1.3,0c0.4,0.4,8.5,8.5,9,9C24.4,10.7,24.4,11.3,24,11.6z"></path> </svg> 