<?xml version="1.0" encoding="UTF-8"?> <!-- Generator: Adobe Illustrator 21.1.0, SVG Export Plug-In . SVG Version: 6.00 Build 0) --> <svg xmlns="http://www.w3.org/2000/svg" xmlns:xlink="http://www.w3.org/1999/xlink" id="Layer_1" x="0px" y="0px" viewBox="0 0 26 28" style="enable-background:new 0 0 26 28;" xml:space="preserve"> <style type="text/css"> .st0{fill:url(#SVGID_1_);} .st1{fill:url(#SVGID_2_);} .st2{fill:url(#SVGID_3_);} .st3{fill:url(#SVGID_4_);} .st4{fill:url(#SVGID_5_);} </style> <linearGradient id="SVGID_1_" gradientUnits="userSpaceOnUse" x1="447.4122" y1="-153.898" x2="448.4122" y2="-153.898" gradientTransform="matrix(0.6063 2.123120e-02 4.133980e-02 -1.8072 -1822.8696 -319.8445)"> <stop offset="0" style="stop-color:#F0409C"></stop> <stop offset="1" style="stop-color:#BF4097"></stop> </linearGradient> <path class="st0" d="M25,26.7v-1.3c0-3.9-2.9-6.8-6.7-6.8h-2.9l-3,3l-3-3H6.7c-3.9,0-6.7,2.9-6.7,6.8v1.3h0.9v-1.3 c0-3.4,2.5-5.8,5.8-5.8h2.5l3.3,3.3l3.3-3.3h2.5c3.3,0,5.8,2.5,5.8,5.8v1.3H25z"></path> <linearGradient id="SVGID_2_" gradientUnits="userSpaceOnUse" x1="447.4122" y1="-146.0664" x2="448.4122" y2="-146.0664" gradientTransform="matrix(0.6063 2.123120e-02 4.133980e-02 -1.8072 -1822.8696 -319.8445)"> <stop offset="0" style="stop-color:#F0409C"></stop> <stop offset="1" style="stop-color:#BF4097"></stop> </linearGradient> <path class="st1" d="M5.7,17c0.2,0,0.5,0,0.7-0.1c0.3-0.1,0.4-0.3,0.3-0.6C6.6,16,6.4,15.9,6.1,16c-1,0.1-1.9-0.2-2.7-0.8 c0.3-0.1,0.5-0.3,0.8-0.4c1-0.6,1.3-1.6,1.1-3C4.9,9.6,4.7,5.2,6.9,3.4c0,0,0,0,0.1-0.1c0,0,2.2-2.5,5.4-2.5c3.2,0,5.4,2.5,5.4,2.5 s0,0,0.1,0.1c2.2,1.8,2,6.2,1.6,8.5c-0.3,1.3,0.2,2.4,1.1,3c0.3,0.1,0.5,0.3,0.8,0.4c-0.8,0.6-1.7,0.9-2.7,0.8 c-0.3-0.1-0.5,0.1-0.6,0.3c-0.1,0.3,0.1,0.5,0.3,0.6c0.2,0,0.4,0.1,0.7,0.1c1.2,0,2.5-0.6,3.3-1.5c0.2-0.2,0.2-0.5,0-0.7 c-0.1-0.1-0.1-0.1-0.2-0.1c-0.5-0.2-0.9-0.4-1.2-0.6c-0.8-0.5-0.8-1.3-0.7-2c0.1-0.7,1.1-6.7-1.9-9.4C16.9,1,14.6,0,12.3,0 C10,0.1,7.8,1,6.2,2.8c-3.1,2.6-2,8.7-1.9,9.4c0.3,0.5,0.4,1.5-0.5,2c-0.4,0.3-0.9,0.5-1.3,0.6c-0.2,0.1-0.4,0.3-0.3,0.6 c0,0.1,0.1,0.1,0.1,0.2C3.3,16.4,4.5,16.9,5.7,17z"></path> <linearGradient id="SVGID_3_" gradientUnits="userSpaceOnUse" x1="447.4122" y1="-148.0219" x2="448.4122" y2="-148.0219" gradientTransform="matrix(0.6063 2.123120e-02 4.133980e-02 -1.8072 -1822.8696 -319.8445)"> <stop offset="0" style="stop-color:#F0409C"></stop> <stop offset="1" style="stop-color:#BF4097"></stop> </linearGradient> <path class="st2" d="M8.5,5.7C8.2,5.7,8,5.9,8,6.2V8H6.3C6,7.9,5.8,8.2,5.8,8.4L6,12.1c0.2,3.9,2.8,6.6,6.4,6.6h0.1 c3.6,0,6.2-2.7,6.4-6.6l0.2-3.7c0-0.3-0.2-0.5-0.4-0.5h-1.8V6.2c0-0.3-0.2-0.5-0.5-0.5c-0.3,0-0.5,0.2-0.5,0.5V8h-1.8V6.2 c0-0.3-0.2-0.5-0.5-0.5c-0.3,0-0.5,0.2-0.5,0.5V8h-1.8V6.2c0-0.3-0.2-0.5-0.5-0.5s-0.5,0.2-0.5,0.5V8H9V6.2C9,5.9,8.8,5.7,8.5,5.7z M18.2,12.1c-0.2,3.4-2.4,5.7-5.5,5.7h-0.1c-3.2,0-5.3-2.3-5.5-5.7L6.8,8.9h11.6L18.2,12.1z"></path> <linearGradient id="SVGID_4_" gradientUnits="userSpaceOnUse" x1="447.4122" y1="-154.6277" x2="448.4122" y2="-154.6277" gradientTransform="matrix(0.6063 2.123120e-02 4.133980e-02 -1.8072 -1822.8696 -319.8445)"> <stop offset="0" style="stop-color:#F0409C"></stop> <stop offset="1" style="stop-color:#BF4097"></stop> </linearGradient> <path class="st3" d="M22.4,27.2c-0.3,0-0.5-0.2-0.5-0.5c0-2.2-0.5-3.6-1.6-4.2c-0.2-0.1-0.3-0.4-0.2-0.7c0.1-0.2,0.4-0.3,0.7-0.2 c1.4,0.9,2.1,2.5,2.1,5.1C22.8,27,22.7,27.2,22.4,27.2z"></path> <linearGradient id="SVGID_5_" gradientUnits="userSpaceOnUse" x1="447.4122" y1="-153.0155" x2="448.4122" y2="-153.0155" gradientTransform="matrix(0.6063 2.123120e-02 4.133980e-02 -1.8072 -1822.8696 -319.8445)"> <stop offset="0" style="stop-color:#F0409C"></stop> <stop offset="1" style="stop-color:#BF4097"></stop> </linearGradient> <path class="st4" d="M18.8,21.9c-0.1,0-0.1,0-0.2,0c0,0-0.6-0.3-1.2-0.2c-0.3,0-0.5-0.2-0.5-0.5c0-0.3,0.2-0.5,0.5-0.5 c0.8,0,1.5,0.3,1.6,0.3c0.3,0.1,0.4,0.4,0.3,0.6C19.2,21.9,19,21.9,18.8,21.9z"></path> </svg> 