<?xml version="1.0" encoding="UTF-8"?> <!-- Generator: Adobe Illustrator 21.1.0, SVG Export Plug-In . SVG Version: 6.00 Build 0) --> <svg xmlns="http://www.w3.org/2000/svg" xmlns:xlink="http://www.w3.org/1999/xlink" id="Layer_1" x="0px" y="0px" viewBox="0 0 26 22" style="enable-background:new 0 0 26 22;" xml:space="preserve"> <style type="text/css"> .st0{fill:url(#SVGID_1_);} </style> <linearGradient id="SVGID_1_" gradientUnits="userSpaceOnUse" x1="0.5703" y1="10.6807" x2="25.5909" y2="10.6807"> <stop offset="0" style="stop-color:#F0409C"></stop> <stop offset="1" style="stop-color:#BF4097"></stop> </linearGradient> <path class="st0" d="M25,3.8h-5.3c0.8-1.8,1.8-2.9,1.8-2.9c0.1-0.2,0.1-0.5,0-0.7C21.2,0,21,0,20.8,0.1c0,0.1-1.3,1.4-2.1,3.5H9.7 c-0.2,0-0.5,0.2-0.5,0.5v6c0,0.2,0.2,0.5,0.5,0.5h8.5c0.4,1.3,0.8,2.5,1.6,3.6c0.1,0.2,0.4,0.6,0.6,0.9c-2.2,0.9-4.8,1.4-7.5,1.4 c-2.7,0-5.4-0.6-7.8-1.5c0.2-0.4,0.4-0.6,0.5-0.8C10.4,6.7,4.6,0.1,4.6,0C4.3,0,4,0,3.9,0.1c-0.2,0.1-0.2,0.5,0,0.7 c0.2,0.2,5.4,6.1,1.1,13c-0.9,1.4-2.6,4-2.3,7c0,0.2,0.2,0.5,0.5,0.5c0.2,0,0.5-0.2,0.5-0.5c-0.1-1.8,0.5-3.5,1.2-4.8 c2.5,1.1,5.3,1.6,8.2,1.6c2.8,0,5.5-0.6,8-1.5c0.7,1.3,1.3,2.9,1.2,4.7c0,0.2,0.1,0.5,0.5,0.5c0.2,0,0.5-0.2,0.5-0.5 c0.2-3.1-1.4-5.6-2.3-7c-0.7-1.1-1.2-2.1-1.4-3.2h5.9c0.2,0,0.5-0.2,0.5-0.5v-6C25.5,4,25.2,3.8,25,3.8z M24.5,9.7h-0.9V7.9 c0-0.2-0.2-0.5-0.5-0.5c-0.2,0-0.5,0.2-0.5,0.5v1.9h-1.3V7.9c0-0.2-0.2-0.5-0.5-0.5c-0.2,0-0.5,0.2-0.5,0.5v1.9h-1.3V7.9 c0-0.2-0.2-0.5-0.5-0.5s-0.5,0.2-0.5,0.5v1.9h-1.3V7.9c0-0.2-0.2-0.5-0.5-0.5c-0.2,0-0.5,0.2-0.5,0.5v1.9h-1.3V7.9 c0-0.2-0.2-0.5-0.5-0.5c-0.2,0-0.5,0.2-0.5,0.5v1.9h-1.5V7.9c0-0.2-0.2-0.5-0.5-0.5c-0.2,0-0.5,0.2-0.5,0.5v1.9h-1.2v-5h14.3v5H24.5 z M12.7,14.6c-0.6,0-0.9-0.5-0.9-0.9c0-0.5,0.5-0.9,0.9-0.9c0.6,0,0.9,0.5,0.9,0.9C13.6,14.1,13.3,14.6,12.7,14.6z M2.2,8.5V7.5H0.6 V4.9h1.6V4l2.2,2.2L2.2,8.5z"></path> </svg> 