<?xml version="1.0" encoding="UTF-8"?> <!-- Generator: Adobe Illustrator 21.1.0, SVG Export Plug-In . SVG Version: 6.00 Build 0) --> <svg xmlns="http://www.w3.org/2000/svg" xmlns:xlink="http://www.w3.org/1999/xlink" id="Layer_1" x="0px" y="0px" viewBox="0 0 26 19" style="enable-background:new 0 0 26 19;" xml:space="preserve"> <style type="text/css"> .st0{fill:url(#SVGID_1_);} .st1{fill:url(#SVGID_2_);} .st2{fill:url(#SVGID_3_);} .st3{fill:url(#SVGID_4_);} .st4{fill:url(#SVGID_5_);} </style> <linearGradient id="SVGID_1_" gradientUnits="userSpaceOnUse" x1="0.9121" y1="9.2273" x2="25.9327" y2="9.2273"> <stop offset="0" style="stop-color:#F0409C"></stop> <stop offset="1" style="stop-color:#BF4097"></stop> </linearGradient> <path class="st0" d="M25.9,8.1c0-2.3-1-4.4-2.9-5.8C21,0.8,18,0,14.4,0c-3.2,0-6.5,0.6-8.8,1.8C2.5,3.2,0.9,5.3,0.9,8 c0,0,0,2.4,0,2.4c0,1.4,0.5,2.7,1.5,3.6c1,1,2.5,1.5,4.2,1.5c0.4,0,0.7,0,1-0.1c1.9-0.3,3.8,0.2,5.4,1.4c1.4,1.1,3.1,1.7,4.9,1.7 c4.4,0,8-3.6,8-8C25.9,10.5,25.9,8.2,25.9,8.1z M6,2.7C8.2,1.6,11.3,1,14.4,1c3.4,0,6.2,0.8,8.1,2.2c1.6,1.3,2.5,3,2.5,5 c0,3.9-3.1,7-7,7c-1.5,0-3-0.5-4.3-1.5c-1.5-1.1-3.2-1.7-5-1.7c-0.4,0-0.8,0-1.2,0.1c-0.3,0-0.6,0.1-0.9,0.1C3.4,12.1,2,10,2,8 C1.9,5.2,4.1,3.5,6,2.7z M17.9,17.5c-1.5,0-3-0.5-4.3-1.5c-1.8-1.4-4-2-6.2-1.6c-0.3,0-0.6,0.1-0.9,0.1c-2.8,0-4.3-1.5-4.6-3.3 c0.1,0.1,0.3,0.3,0.4,0.5c1,1,2.5,1.5,4.2,1.5c0.4,0,0.7,0,1-0.1c1.9-0.3,3.8,0.2,5.4,1.4c1.4,1.1,3.1,1.7,4.9,1.7 c2.8,0,5.2-1.5,6.7-3.6C23.7,15.4,21.1,17.5,17.9,17.5z"></path> <linearGradient id="SVGID_2_" gradientUnits="userSpaceOnUse" x1="14.7412" y1="7.7273" x2="19.8818" y2="7.7273"> <stop offset="0" style="stop-color:#F0409C"></stop> <stop offset="1" style="stop-color:#BF4097"></stop> </linearGradient> <path class="st1" d="M15.6,9.2c0.5,0.4,1.1,0.5,1.8,0.5c0.1,0,0.1,0,0.2,0c0.3,0,0.5-0.3,0.5-0.5c0-0.3-0.3-0.5-0.5-0.5 c-0.5,0-1-0.1-1.3-0.4c-0.3-0.2-0.4-0.5-0.4-0.7c0-0.3,0.1-0.5,0.4-0.7c0.6-0.5,1.6-0.5,2.3,0c0.3,0.2,0.4,0.5,0.4,0.7 c0,0.3,0.2,0.5,0.5,0.5c0.3,0,0.5-0.2,0.5-0.5c0-0.6-0.3-1.1-0.8-1.5c-1-0.7-2.5-0.7-3.5,0c-0.5,0.4-0.8,1-0.8,1.5 C14.8,8.3,15.1,8.9,15.6,9.2z"></path> <linearGradient id="SVGID_3_" gradientUnits="userSpaceOnUse" x1="18.2686" y1="8.8075" x2="19.3112" y2="8.8075"> <stop offset="0" style="stop-color:#F0409C"></stop> <stop offset="1" style="stop-color:#BF4097"></stop> </linearGradient> <path class="st2" d="M18.5,8.4c-0.2,0.2-0.3,0.5-0.1,0.7c0.1,0.1,0.3,0.2,0.4,0.2c0.1,0,0.2,0,0.3-0.1c0.2-0.2,0.3-0.5,0.1-0.7 C19,8.3,18.7,8.2,18.5,8.4z"></path> <linearGradient id="SVGID_4_" gradientUnits="userSpaceOnUse" x1="3.0952" y1="5.7016" x2="13.0638" y2="5.7016"> <stop offset="0" style="stop-color:#F0409C"></stop> <stop offset="1" style="stop-color:#BF4097"></stop> </linearGradient> <path class="st3" d="M3.6,8.9c0.3,0,0.5-0.2,0.5-0.5c0-3.1,4.5-4.5,8.5-4.8c0.3,0,0.5-0.3,0.5-0.5c0-0.3-0.3-0.5-0.5-0.5 C10.1,2.7,7.9,3.2,6.2,4c-2,1-3.1,2.5-3.1,4.3C3.1,8.6,3.3,8.9,3.6,8.9z"></path> <linearGradient id="SVGID_5_" gradientUnits="userSpaceOnUse" x1="13.6953" y1="2.9546" x2="14.6953" y2="2.9546"> <stop offset="0" style="stop-color:#F0409C"></stop> <stop offset="1" style="stop-color:#BF4097"></stop> </linearGradient> <path class="st4" d="M14.2,3.5c0.3,0,0.5-0.2,0.5-0.5s-0.2-0.5-0.5-0.5c-0.3,0-0.5,0.2-0.5,0.5S13.9,3.5,14.2,3.5z"></path> </svg> 