<?xml version="1.0" encoding="UTF-8"?> <!-- Generator: Adobe Illustrator 21.1.0, SVG Export Plug-In . SVG Version: 6.00 Build 0) --> <svg xmlns="http://www.w3.org/2000/svg" xmlns:xlink="http://www.w3.org/1999/xlink" id="Layer_1" x="0px" y="0px" viewBox="0 0 26 32" style="enable-background:new 0 0 26 32;" xml:space="preserve"> <style type="text/css"> .st0{fill:url(#SVGID_1_);} .st1{fill:url(#SVGID_2_);} .st2{fill:url(#SVGID_3_);} .st3{fill:url(#SVGID_4_);} .st4{fill:url(#SVGID_5_);} .st5{fill:url(#SVGID_6_);} .st6{fill:url(#SVGID_7_);} .st7{fill:url(#SVGID_8_);} </style> <linearGradient id="SVGID_1_" gradientUnits="userSpaceOnUse" x1="17.3213" y1="12.4995" x2="22.3583" y2="12.4995"> <stop offset="0" style="stop-color:#F0409C"></stop> <stop offset="1" style="stop-color:#BF4097"></stop> </linearGradient> <path class="st0" d="M17.7,14c0.1,0,0.1,0,0.2,0c0.2,0,0.4-0.1,0.6-0.3c0.2-0.5,0.7-0.8,1.3-0.6c1.1,0.3,2.3-0.2,2.6-1.3 c0.1-0.3-0.1-0.6-0.3-0.7c-0.3-0.1-0.6,0.1-0.7,0.3c-0.2,0.5-0.8,0.8-1.3,0.6c-1.1-0.3-2.3,0.2-2.6,1.3C17.2,13.6,17.4,13.9,17.7,14 z"></path> <linearGradient id="SVGID_2_" gradientUnits="userSpaceOnUse" x1="18.6416" y1="8.6799" x2="23.6786" y2="8.6799"> <stop offset="0" style="stop-color:#F0409C"></stop> <stop offset="1" style="stop-color:#BF4097"></stop> </linearGradient> <path class="st1" d="M19,10.2c0.1,0,0.1,0,0.2,0c0.2,0,0.4-0.1,0.6-0.3c0.1-0.3,0.3-0.4,0.5-0.6c0.2-0.1,0.5-0.1,0.8-0.1 c1.1,0.3,2.3-0.2,2.6-1.3c0.1-0.3-0.1-0.6-0.3-0.7c-0.3-0.1-0.6,0.1-0.7,0.3c-0.2,0.5-0.7,0.8-1.3,0.6C20.8,8,20.3,8,19.8,8.3 c-0.5,0.3-0.9,0.7-1,1.2C18.5,9.8,18.7,10,19,10.2z"></path> <linearGradient id="SVGID_3_" gradientUnits="userSpaceOnUse" x1="19.9624" y1="4.9645" x2="24.3044" y2="4.9645"> <stop offset="0" style="stop-color:#F0409C"></stop> <stop offset="1" style="stop-color:#BF4097"></stop> </linearGradient> <path class="st2" d="M20.3,6.3c0.1,0,0.1,0,0.2,0c0.2,0,0.4-0.1,0.6-0.3c0.1-0.3,0.6-0.6,0.9-0.5c0.5,0.1,1,0.1,1.4-0.1 c0.4-0.2,0.8-0.6,0.9-1c0.1-0.3-0.1-0.6-0.3-0.7c-0.3-0.1-0.6,0.1-0.7,0.3c-0.1,0.2-0.2,0.3-0.3,0.4c-0.1,0.1-0.3,0.1-0.6,0 c-1-0.3-2,0.2-2.3,1.2C19.8,5.9,20,6.2,20.3,6.3z"></path> <linearGradient id="SVGID_4_" gradientUnits="userSpaceOnUse" x1="0.7949" y1="15.7507" x2="25.8155" y2="15.7507"> <stop offset="0" style="stop-color:#F0409C"></stop> <stop offset="1" style="stop-color:#BF4097"></stop> </linearGradient> <path class="st3" d="M24.4,14c-0.1-0.1-0.2-0.1-0.3-0.1c1.1-3.6,1.7-7.1,1.8-10.4c0-1-0.5-2.4-1.5-3.1c-0.5-0.3-1.3-0.6-2.4,0 c-1.7,0.8-2.8,3.4-3.8,5.4C18,5.9,18,5.9,18,6.1c-0.2-1-0.8-1.8-1.7-2.2c-0.2-1-1-1.8-2.1-2c0-0.1,0-0.1-0.1-0.1 c-0.2-0.7-0.8-1.3-1.6-1.4c-0.4-0.1-0.8,0.1-1.2,0.3c-0.3-0.1-0.6-0.3-1-0.3c-1,0-1.8,0.7-2,1.6C7.3,2.1,6.5,3,6.5,4.1 C5.3,4.4,4.4,5.5,4.4,6.8c0,0.3,0.1,0.7,0.2,1C4.3,8.2,4.1,8.7,4.1,9.2c0,0.3,0.1,0.6,0.2,0.9C3.8,9.5,3,9,2.1,9.1 c-0.3,0-0.6,0.3-0.6,0.6c0,0.3,0.3,0.6,0.6,0.6h0.1c0.6,0,1,0.3,1.4,0.8c-0.9,0.3-1.9,0.7-2.4,1.6c-0.3,0.6-0.3,1.3-0.1,2 c-0.1,0.1-0.2,0.3-0.2,0.6l1,13.4c0.1,1.7,1.5,3,3.2,3h15.6c1.7,0,3.1-1.3,3.2-3l1-13.9C24.6,14.3,24.6,14.1,24.4,14z M18.4,7.6 c0.2-0.4,0.5-0.9,0.7-1.5c0.8-1.8,2-4.2,3.3-4.9c0.5-0.3,0.9-0.3,1.3,0c0.6,0.4,1,1.5,1,2.2c-0.1,3.3-0.7,6.7-1.8,10.3 c-0.1,0.1-0.1,0.3-0.2,0.7l-1,0.4h-0.1c-0.3,0.1-0.6,0.3-0.9,0.3c-0.3,0-0.6-0.1-0.9-0.3l-0.4-0.2c-0.5-0.3-1-0.4-1.5-0.4 s-1,0.1-1.5,0.4l-0.4,0.2C15.7,15,15.5,15,15.3,15c0-0.1,0-0.1,0.1-0.1c0.1-0.5,0.3-1,0.5-1.5c0.1-0.2,0.1-0.4,0.2-0.6 c0.1-0.4,0.3-0.8,0.4-1.2c0.1-0.2,0.1-0.3,0.2-0.6C17.3,9.8,17.8,8.7,18.4,7.6z M11.3,8.9c0.1-0.1,0.1-0.1,0.2-0.2 c0.1-0.1,0.1-0.1,0.1-0.2c0.1-0.3,0.1-0.6,0.1-0.8l2.3-0.5c0,0.1,0,0.1,0.1,0.2c0.1,0.3,0.3,0.5,0.6,0.6c0.1,0.1,0.1,0.1,0.3,0.1 c0.1,0.1,0.1,0.1,0.2,0.1c0,0,0.1,0.1,0.1,0.1c0.1,0.1,0.1,0.1,0.2,0.1c0.1,0,0.1,0.1,0.1,0.1c0.1,0.1,0.1,0.1,0.2,0.1 c0.1,0.1,0.1,0.1,0.1,0.1c0.1,0.1,0.1,0.1,0.1,0.1c0.1,0.1,0.1,0.2,0.2,0.3c-0.2,0.6-0.5,1-0.7,1.6c0,0.1-0.1,0.1-0.1,0.3 c-0.6,0.1-1.2,0.4-1.9,1c-0.9,0.6-1.6,0.8-2.7,0.7l-0.3-1.5C10.3,10.2,10.9,9.6,11.3,8.9z M14.1,5.5c0.1,0,0.3,0.1,0.3,0.1 c0,0.1,0,0.1,0,0.2c0,0-0.1,0.1-0.1,0.1l-3.1,0.7c-0.1,0-0.3-0.1-0.3-0.2c0-0.1,0.1-0.3,0.2-0.3l1.5-0.3L14.1,5.5z M12.3,14.1 c-0.1,0-0.1,0-0.1,0c-0.3,0-0.6,0.1-0.9,0.2l-0.1-0.5c0.1,0,0.3,0,0.5,0c1,0,1.7-0.3,2.6-0.9c0.3-0.2,0.6-0.3,0.8-0.5 c-0.1,0.1-0.1,0.3-0.1,0.4c-0.1,0.1-0.1,0.2-0.1,0.3c-0.1,0.5-0.3,1-0.5,1.5l-0.3-0.2c-0.5-0.3-1-0.4-1.5-0.4 C12.4,14.1,12.3,14.1,12.3,14.1z M5.7,8.4L6,8.1L5.8,7.7C5.7,7.4,5.6,7.1,5.6,6.8c0-0.9,0.7-1.7,1.6-1.7h0.7L7.7,4.5 c0-0.1-0.1-0.2-0.1-0.3c0-0.7,0.6-1.3,1.3-1.4l0.5-0.1V2.2c0-0.5,0.4-0.9,0.9-0.9c0.3,0,0.5,0.1,0.6,0.2l0.4,0.3l0.3-0.3 c0.1-0.1,0.4-0.3,0.6-0.2c0.3,0.1,0.6,0.3,0.6,0.6c0,0.1,0.1,0.2,0,0.3l-0.1,0.6h0.6c0.8,0,1.5,0.6,1.5,1.4v0.3l0.3,0.1 c0.8,0.3,1.5,1.1,1.4,2c0,0.4-0.1,0.8-0.3,1.1c-0.3-0.3-0.8-0.6-1.1-0.7C15.2,7,15.1,7,15,6.9l-0.1-0.1c0-0.1,0-0.2,0.1-0.3 c0.2-0.3,0.3-0.7,0.3-1l0.1-0.2c-0.1-0.3-0.3-0.6-0.5-0.8c-0.3-0.1-0.6-0.2-0.9-0.1l-0.1,0.1l-1.6,0.3l-1.6,0.3 C10.3,5.3,10,5.4,9.8,5.7C9.7,5.9,9.6,6.2,9.7,6.6v0.1l0.1,0.1c0.1,0.3,0.3,0.7,0.7,0.8c0.1,0.1,0.1,0.1,0.2,0.2c0,0.1,0,0.1,0,0.1 c-0.1,0.1-0.1,0.1-0.2,0.2c-0.1,0.1-0.1,0.1-0.2,0.2l-0.1,0.1c-0.1,0.1-0.1,0.1-0.1,0.2C10,8.8,10,8.8,10,8.9C9.9,8.9,9.9,9,9.8,9.1 c0,0.1-0.1,0.1-0.1,0.1C9.7,9.3,9.7,9.3,9.6,9.5c0,0.1,0,0.1-0.1,0.1C9.5,9.8,9.5,9.9,9.4,10v0.1c0,0.1-0.1,0.2-0.1,0.3 c0,0.1,0,0.1,0,0.1c0,0.1,0,0.1,0,0.2c-0.1-0.1-0.2-0.3-0.3-0.3L9,10.4c-0.1-0.1-0.1-0.1-0.3-0.3L8.6,10C8.6,10,8.4,9.8,8.3,9.8 L8.2,9.7C8.2,9.6,8.1,9.6,8,9.6C8,9.6,8,9.5,7.9,9.5C7.8,9.4,7.7,9.4,7.6,9.4H7.5c-0.1,0-0.2-0.1-0.3-0.1H7.2c-0.1,0-0.1,0-0.2,0 s-0.1,0-0.1,0c0,0,0,0-0.1,0s-0.1,0-0.3,0c-0.1,0-0.1,0-0.1,0C6.2,9.3,6.1,9.4,6,9.4c0,0,0,0-0.1,0C5.7,9.5,5.4,9.6,5.2,9.8 C5.1,9.7,5.1,9.6,5.1,9.4C5.2,8.9,5.4,8.6,5.7,8.4z M2,13c0.2-0.4,0.8-0.8,1.8-1c0.5-0.1,0.9-0.3,1.3-0.7c0.1-0.1,0.3-0.3,0.4-0.4 c0.4-0.3,0.8-0.6,1.2-0.6c0.1,0,0.2,0,0.3,0h0.1c0.1,0,0.1,0,0.1,0.1c0.1,0,0.1,0,0.1,0.1c0.1,0,0.1,0.1,0.1,0.1 c0.1,0,0.1,0.1,0.1,0.1s0.1,0.1,0.1,0.1s0.1,0.1,0.1,0.1C8,10.8,8,10.8,8,10.9c0.1,0.1,0.1,0.1,0.1,0.1c0.1,0.1,0.1,0.1,0.1,0.1 c0.1,0.1,0.1,0.1,0.1,0.2c0.1,0.1,0.1,0.1,0.1,0.1c0.1,0.1,0.1,0.2,0.2,0.3c0,0.1,0.1,0.1,0.1,0.1c0.1,0.1,0.2,0.3,0.3,0.4 C9.5,13,9.6,14.1,9.4,15H9.3C9.1,15,8.9,15,8.7,14.8l-0.4-0.2c-0.5-0.3-1-0.4-1.5-0.4s-1,0.1-1.5,0.4l-0.2,0.1C4.8,15,4.4,15,4,15 c-0.3,0-0.8-0.1-1.1-0.3l-0.8-0.4c-0.1-0.1-0.2-0.1-0.3-0.1C1.9,13.7,1.9,13.3,2,13z M22.5,28.4c-0.1,1.1-1,1.9-2.1,1.9H4.9 c-1.1,0-2-0.8-2.1-1.9L1.9,15.3l0.5,0.3c0.6,0.3,1.1,0.5,1.7,0.5c0.6,0,1.2-0.1,1.7-0.5l0.2-0.1c0.3-0.1,0.6-0.3,0.9-0.3 c0.3,0,0.6,0.1,0.9,0.3l0.4,0.2c0.5,0.3,1,0.4,1.6,0.4c0.1,0,0.1,0,0.1,0c0.3-0.1,0.8-0.1,1.1-0.3h0.1l0.4-0.2 c0.3-0.1,0.6-0.3,0.9-0.3c0.3,0,0.6,0.1,0.9,0.3l0.4,0.2c0.4,0.3,0.9,0.3,1.4,0.4c0.1,0,0.3,0,0.5,0c0.1,0,0.2,0,0.3-0.1 c0.1,0,0.1,0,0.1,0c0.3-0.1,0.5-0.1,0.7-0.3l0.4-0.2c0.3-0.1,0.6-0.3,0.9-0.3c0.3,0,0.6,0.1,0.9,0.3l0.4,0.2c0.5,0.3,1,0.4,1.5,0.4 c0.5,0,1-0.1,1.5-0.4l1.1-0.5c0,0,0.1,0,0.1-0.1l0.1-0.1L22.5,28.4z"></path> <linearGradient id="SVGID_5_" gradientUnits="userSpaceOnUse" x1="3.5752" y1="23.3071" x2="8.5793" y2="23.3071"> <stop offset="0" style="stop-color:#F0409C"></stop> <stop offset="1" style="stop-color:#BF4097"></stop> </linearGradient> <path class="st4" d="M4.1,23.9H8c0.3,0,0.6-0.3,0.6-0.6S8.3,22.8,8,22.8H4.1c-0.3,0-0.6,0.2-0.6,0.6C3.6,23.6,3.9,23.9,4.1,23.9z"></path> <linearGradient id="SVGID_6_" gradientUnits="userSpaceOnUse" x1="3.5752" y1="25.5292" x2="9.6913" y2="25.5292"> <stop offset="0" style="stop-color:#F0409C"></stop> <stop offset="1" style="stop-color:#BF4097"></stop> </linearGradient> <path class="st5" d="M4.1,26.1h5c0.3,0,0.6-0.3,0.6-0.6c0-0.3-0.3-0.6-0.6-0.6h-5c-0.3,0-0.6,0.3-0.6,0.6 C3.6,25.8,3.9,26.1,4.1,26.1z"></path> <linearGradient id="SVGID_7_" gradientUnits="userSpaceOnUse" x1="3.5752" y1="27.7514" x2="10.8034" y2="27.7514"> <stop offset="0" style="stop-color:#F0409C"></stop> <stop offset="1" style="stop-color:#BF4097"></stop> </linearGradient> <path class="st6" d="M10.2,27.2H4.1c-0.3,0-0.6,0.3-0.6,0.6c0,0.3,0.3,0.6,0.6,0.6h6.1c0.3,0,0.6-0.3,0.6-0.6 C10.8,27.4,10.5,27.2,10.2,27.2z"></path> <linearGradient id="SVGID_8_" gradientUnits="userSpaceOnUse" x1="11.9155" y1="27.7514" x2="14.1395" y2="27.7514"> <stop offset="0" style="stop-color:#F0409C"></stop> <stop offset="1" style="stop-color:#BF4097"></stop> </linearGradient> <path class="st7" d="M13.6,27.2h-1.1c-0.3,0-0.6,0.3-0.6,0.6c0,0.3,0.3,0.6,0.6,0.6h1.1c0.3,0,0.6-0.3,0.6-0.6 C14.1,27.4,13.9,27.2,13.6,27.2z"></path> </svg> 