<?xml version="1.0" encoding="UTF-8"?> <!-- Generator: Adobe Illustrator 21.1.0, SVG Export Plug-In . SVG Version: 6.00 Build 0) --> <svg xmlns="http://www.w3.org/2000/svg" xmlns:xlink="http://www.w3.org/1999/xlink" id="Layer_1" x="0px" y="0px" viewBox="0 0 26 24" style="enable-background:new 0 0 26 24;" xml:space="preserve"> <style type="text/css"> .st0{fill:url(#SVGID_1_);} .st1{fill:url(#SVGID_2_);} .st2{fill:url(#SVGID_3_);} .st3{fill:url(#SVGID_4_);} </style> <linearGradient id="SVGID_1_" gradientUnits="userSpaceOnUse" x1="11.1772" y1="5.8864" x2="15.3893" y2="5.8864"> <stop offset="0" style="stop-color:#F0409C"></stop> <stop offset="1" style="stop-color:#BF4097"></stop> </linearGradient> <path class="st0" d="M13,5.4l-0.6,0.7l-0.7,0.7c-0.3,0.3-0.4,0.5-0.5,0.5c-0.2,0.2-0.1,0.5,0.1,0.7c0.1,0.1,0.3,0.1,0.5,0.1h3 c0.1,0,0.3,0,0.4-0.1c0.1-0.1,0.1-0.2,0.1-0.3c0-0.1-0.1-0.3-0.1-0.3c-0.1-0.1-0.3-0.1-0.4-0.1h-2.2l2-2.3l0.2-0.2l0.1-0.1 c0.1-0.1,0.1-0.1,0.1-0.1c0-0.1,0.1-0.1,0.1-0.2c0-0.1-0.1-0.3-0.2-0.4c-0.2-0.1-0.3-0.1-0.5-0.1h-2.6c-0.1,0-0.3,0-0.4,0.1 c-0.1,0.1-0.1,0.2-0.1,0.3c0,0.2,0.1,0.3,0.2,0.3c0.2,0.1,0.3,0.1,0.5,0.1h1.6c-0.1,0.1-0.1,0.2-0.3,0.3L13,5.4z"></path> <linearGradient id="SVGID_2_" gradientUnits="userSpaceOnUse" x1="16.6177" y1="8.8213" x2="20.0761" y2="8.8213"> <stop offset="0" style="stop-color:#F0409C"></stop> <stop offset="1" style="stop-color:#BF4097"></stop> </linearGradient> <path class="st1" d="M18.1,8.4L17.6,9l-0.5,0.6c-0.2,0.2-0.3,0.3-0.4,0.4c-0.1,0.1-0.1,0.4,0.1,0.5c0.1,0.1,0.3,0.1,0.4,0.1h2.4 c0.1,0,0.3,0,0.3-0.1c0.1-0.1,0.1-0.1,0.1-0.3c0-0.1-0.1-0.2-0.1-0.3c-0.1-0.1-0.2-0.1-0.3-0.1h-1.8L19.5,8l0.1-0.2l0.1-0.1 c0-0.1,0.1-0.1,0.1-0.1c0-0.1,0-0.1,0-0.1c0-0.1-0.1-0.3-0.1-0.3C19.5,7,19.4,7,19.2,7h-2C17,7,17,7,16.8,7.1 c-0.1,0.1-0.1,0.1-0.1,0.3c0,0.1,0.1,0.2,0.1,0.3c0.1,0.1,0.3,0.1,0.4,0.1h1.3c-0.1,0.1-0.1,0.2-0.2,0.3L18.1,8.4z"></path> <linearGradient id="SVGID_3_" gradientUnits="userSpaceOnUse" x1="21.2769" y1="5.6555" x2="25.489" y2="5.6555"> <stop offset="0" style="stop-color:#F0409C"></stop> <stop offset="1" style="stop-color:#BF4097"></stop> </linearGradient> <path class="st2" d="M25.4,7.7c0.1-0.1,0.1-0.2,0.1-0.3c0-0.1-0.1-0.3-0.1-0.3C25.2,7,25.1,6.9,25,6.9h-2.2l2.1-2.2L25,4.5l0.1-0.1 c0.1-0.1,0.1-0.1,0.1-0.1c0-0.1,0.1-0.1,0.1-0.2c0-0.1-0.1-0.3-0.2-0.4c-0.2-0.1-0.3-0.1-0.5-0.1H22c-0.1,0-0.3,0-0.4,0.1 c-0.1,0.1-0.1,0.2-0.1,0.3c0,0.2,0.1,0.3,0.2,0.3c0.2,0.1,0.3,0.1,0.5,0.1h1.7c-0.1,0.1-0.1,0.2-0.3,0.3l-0.5,0.5l-0.6,0.7l-0.7,0.7 C21.6,6.8,21.5,7,21.4,7c-0.2,0.2-0.1,0.5,0.1,0.7c0.1,0.1,0.3,0.1,0.5,0.1h3C25.1,7.8,25.3,7.8,25.4,7.7z"></path> <linearGradient id="SVGID_4_" gradientUnits="userSpaceOnUse" x1="0.4683" y1="11.7333" x2="23.7126" y2="11.7333"> <stop offset="0" style="stop-color:#F0409C"></stop> <stop offset="1" style="stop-color:#BF4097"></stop> </linearGradient> <path class="st3" d="M23.6,15.9c-0.1-0.1-0.4-0.2-0.6-0.1c-5.7,2.4-12.1-0.3-14.5-6c-1.2-2.9-1.1-6.1,0.2-9c0.1-0.3,0-0.6-0.3-0.7 C8.3,0,8.1,0,8,0C1.8,2.6-1.2,9.7,1.4,15.9c2.6,6.2,9.6,9.2,15.8,6.6c2.8-1.2,5.1-3.4,6.4-6.1C23.8,16.3,23.7,16,23.6,15.9z M12.6,22.5c-6.1,0-11.1-5-11.1-11.1c0-4,2.2-7.7,5.7-9.7C6.8,2.9,6.5,4.1,6.5,5.5c0,6.7,5.5,12.1,12.1,12.1c1.1,0,2.2-0.1,3.3-0.5 C20.1,20.4,16.5,22.4,12.6,22.5z"></path> </svg> 