<?xml version="1.0" encoding="UTF-8"?> <!-- Generator: Adobe Illustrator 21.1.0, SVG Export Plug-In . SVG Version: 6.00 Build 0) --> <svg xmlns="http://www.w3.org/2000/svg" xmlns:xlink="http://www.w3.org/1999/xlink" id="Layer_1" x="0px" y="0px" viewBox="0 0 26 25" style="enable-background:new 0 0 26 25;" xml:space="preserve"> <style type="text/css"> .st0{fill:url(#SVGID_1_);} .st1{fill:url(#SVGID_2_);} .st2{fill:url(#SVGID_3_);} .st3{fill:url(#SVGID_4_);} </style> <linearGradient id="SVGID_1_" gradientUnits="userSpaceOnUse" x1="10.4307" y1="4.3539" x2="16.1816" y2="4.3539"> <stop offset="0" style="stop-color:#F0409C"></stop> <stop offset="1" style="stop-color:#BF4097"></stop> </linearGradient> <path class="st0" d="M11.1,5.3c0.4-0.9,1.2-1.4,2.2-1.4c0.9,0,1.8,0.5,2.2,1.4c0.1,0.1,0.2,0.2,0.4,0.2c0.1,0,0.1,0,0.1,0 c0.2-0.1,0.3-0.3,0.1-0.5c-0.5-1.1-1.7-1.8-2.8-1.8c-1.2,0-2.3,0.7-2.8,1.8c-0.1,0.2,0,0.4,0.1,0.5C10.8,5.6,11,5.5,11.1,5.3z"></path> <linearGradient id="SVGID_2_" gradientUnits="userSpaceOnUse" x1="17.4094" y1="9.0707" x2="21.5467" y2="9.0707"> <stop offset="0" style="stop-color:#F0409C"></stop> <stop offset="1" style="stop-color:#BF4097"></stop> </linearGradient> <path class="st1" d="M20.7,11.4c0.1,0,0.1,0.1,0.1,0.1c0.1,0,0.3-0.1,0.4-0.2c0.5-1.1,0.4-2.4-0.4-3.3c-0.7-0.9-2-1.4-3.2-1.1 c-0.2,0.1-0.3,0.2-0.3,0.4c0.1,0.2,0.2,0.3,0.4,0.3c0.9-0.2,1.9,0.1,2.5,0.9c0.6,0.7,0.7,1.7,0.3,2.6C20.5,11,20.6,11.2,20.7,11.4z"></path> <linearGradient id="SVGID_3_" gradientUnits="userSpaceOnUse" x1="5.0181" y1="8.9984" x2="9.1742" y2="8.9984"> <stop offset="0" style="stop-color:#F0409C"></stop> <stop offset="1" style="stop-color:#BF4097"></stop> </linearGradient> <path class="st2" d="M8.7,7.5c0.2,0.1,0.4-0.1,0.4-0.3c0.1-0.2-0.1-0.4-0.3-0.4C7.7,6.4,6.5,6.9,5.7,7.8C5,8.8,4.8,10.1,5.3,11.1 c0.1,0.1,0.2,0.2,0.4,0.2c0.1,0,0.1,0,0.1-0.1C6,11.2,6.1,11,6,10.8C5.5,9.9,5.7,9,6.3,8.2C6.8,7.5,7.9,7.2,8.7,7.5z"></path> <linearGradient id="SVGID_4_" gradientUnits="userSpaceOnUse" x1="0.6848" y1="12.1895" x2="25.7054" y2="12.1895"> <stop offset="0" style="stop-color:#F0409C"></stop> <stop offset="1" style="stop-color:#BF4097"></stop> </linearGradient> <path class="st3" d="M23,6.9c0-0.2,0.1-0.4,0.1-0.7c0-2.3-2-4.2-4.5-4.2c-0.4,0-0.9,0.1-1.3,0.2C16.5,0.9,15,0,13.3,0 c-1.7,0-3.2,0.9-3.9,2.2C8.9,2.1,8.5,2,8.1,2C7.2,2.1,6.3,2.3,5.7,2.7C5.5,2.8,5.4,3,5.5,3.2C5.6,3.3,5.9,3.4,6,3.3 C6.6,3,7.3,2.8,8,2.8c0.5,0,0.9,0.1,1.4,0.2c0.2,0.1,0.4,0,0.4-0.2c0.7-1.2,2-2.1,3.5-2.1c1.5,0,2.8,0.9,3.4,2.1 C16.8,3,17,3.1,17.1,3c0.4-0.1,0.9-0.2,1.4-0.2c2,0,3.7,1.5,3.7,3.4c0,0.3,0,0.5-0.1,0.8c-0.1,0.2,0.1,0.4,0.3,0.4 c1.6,0.4,2.7,1.7,2.7,3.3c0,1.9-1.7,3.4-3.7,3.4c-0.1,0-0.1,0-0.2,0c-0.5,0-0.9,0-1.3-0.1c-0.1,0-0.3-0.1-0.4-0.1l-0.4-0.4 c0,0,0,0-0.1-0.1l-0.1-0.1c0,0,0,0-0.1,0c0,0-0.1,0-0.1-0.1c0,0-0.1,0-0.1-0.1c-0.5-0.3-1.1-0.3-1.7-0.1c-0.9,0.4-1.7,0.6-2.6,0.7 c-0.1,0-0.3,0-0.4,0c-0.1,0-0.1,0-0.2,0c-0.1,0-0.1,0-0.2,0h-0.7c-0.1,0-0.1,0-0.1,0h-0.1c0,0,0,0-0.1,0c-0.1,0-0.1,0-0.2,0 c-0.9-0.1-1.7-0.3-2.6-0.7c-0.4-0.2-1-0.2-1.4-0.1c-0.1,0-0.1,0.1-0.1,0.1c-0.1,0-0.1,0.1-0.1,0.1c0,0,0,0-0.1,0c0,0,0,0-0.1,0 c0,0,0,0-0.1,0c0,0-0.1,0-0.1,0.1c0,0-0.1,0-0.1,0.1l-0.3,0.3c0,0,0,0-0.1,0l-0.1,0.1H7.1c0,0-0.1,0-0.1,0.1c0,0,0,0-0.1,0H6.8 C6.5,14,6,14,5.5,14c-0.1,0-0.1,0-0.3,0c-2,0-3.7-1.5-3.7-3.4c0-1.5,1.1-2.9,2.7-3.3C4.3,7.5,4.4,7.2,4.4,7C4.3,6.8,4.3,6.5,4.3,6.2 c0-0.7,0.2-1.3,0.6-1.8C5,4.3,5,4,4.8,3.9C4.6,3.8,4.4,3.8,4.2,4C3.8,4.6,3.5,5.4,3.5,6.2c0.1,0.2,0.1,0.4,0.1,0.7 C1.8,7.5,0.7,9,0.7,10.8c0,2.3,2,4.2,4.5,4.2c0.1,0,0.1,0,0.2,0s0.1,0,0.2,0c0.4,0,0.7,0,1.1-0.1c3.2,3.2,3.5,5.8,3.5,6.7v1.4 c0,0.3,0.1,0.7,1,1c0.6,0.2,1.2,0.3,2,0.3c0.8,0,1.4-0.1,2-0.3c0.9-0.3,1-0.7,1-1v-1.4c0-1.2,0.4-2.5,1.2-3.8 c0.1-0.1,0.1-0.4-0.1-0.5c-0.1-0.1-0.4-0.1-0.5,0.1c-0.9,1.5-1.4,2.9-1.4,4.3v1.4c0,0-0.1,0.2-0.6,0.4c-0.4,0.1-1.1,0.2-1.7,0.2 s-1.2-0.1-1.7-0.2c-0.4-0.1-0.6-0.3-0.6-0.4v-1.4c0-2.9-2.2-5.6-3.5-7c0.1-0.1,0.1-0.1,0.2-0.1L8,14.1c0,0,0,0,0.1,0c0,0,0,0,0.1,0 c1,0.9,2.2,2.3,3,4.1c0.1,0.2,0.4,0.4,0.7,0.4c0.3-0.1,0.4-0.3,0.4-0.5l0.2-3.2c0.1,0,0.1,0,0.1,0h0.9c0.1,0,0.1,0,0.2,0L14,18 c0,0.3,0.2,0.5,0.4,0.5c0.3,0.1,0.5-0.1,0.7-0.4c0.8-1.7,2-3.1,3-4.1l0.4,0.4c0.1,0.1,0.2,0.2,0.4,0.2c-0.3,0.4-0.7,0.8-1.1,1.2 c-0.1,0.1-0.1,0.4,0.1,0.5c0.1,0.1,0.4,0.1,0.5-0.1c0.5-0.6,0.9-1.1,1.3-1.4C20.1,15,20.5,15,21,15c0.1,0,0.1,0,0.2,0 c2.5,0,4.5-1.9,4.5-4.2C26,9,24.7,7.5,23,6.9z M11.8,17c-0.7-1.3-1.7-2.5-2.5-3.3c0.1,0,0.1,0,0.1,0.1c0.9,0.4,1.7,0.6,2.5,0.7 L11.8,17z M14.9,17l-0.2-2.5c0.8-0.1,1.6-0.4,2.5-0.7c0.1,0,0.1-0.1,0.2-0.1C16.5,14.5,15.6,15.6,14.9,17z"></path> </svg> 