<?xml version="1.0" encoding="UTF-8"?> <!-- Generator: Adobe Illustrator 21.1.0, SVG Export Plug-In . SVG Version: 6.00 Build 0) --> <svg xmlns="http://www.w3.org/2000/svg" xmlns:xlink="http://www.w3.org/1999/xlink" id="Layer_1" x="0px" y="0px" viewBox="0 0 26 26" style="enable-background:new 0 0 26 26;" xml:space="preserve"> <style type="text/css"> .st0{fill:url(#SVGID_1_);} .st1{fill:url(#SVGID_2_);} .st2{fill:url(#SVGID_3_);} </style> <linearGradient id="SVGID_1_" gradientUnits="userSpaceOnUse" x1="17.9897" y1="10.9749" x2="19.0366" y2="10.9749"> <stop offset="0" style="stop-color:#F0409C"></stop> <stop offset="1" style="stop-color:#BF4097"></stop> </linearGradient> <path class="st0" d="M18.9,11.3c0.2-0.2,0.2-0.5,0-0.7c-0.2-0.2-0.5-0.2-0.7,0c-0.2,0.2-0.2,0.5,0,0.7 C18.4,11.6,18.7,11.6,18.9,11.3z"></path> <linearGradient id="SVGID_2_" gradientUnits="userSpaceOnUse" x1="0.3579" y1="12.509" x2="25.3785" y2="12.509"> <stop offset="0" style="stop-color:#F0409C"></stop> <stop offset="1" style="stop-color:#BF4097"></stop> </linearGradient> <path class="st1" d="M1.4,20.6L4.9,24c1.3,1.3,3.5,1.3,4.8,0l2-1.9c0.6-0.6,0.8-1.4,0.7-2.1c0.8,0.1,1.5-0.1,2.1-0.7 c0.6-0.6,0.8-1.4,0.7-2.1c0.7,0.1,1.5-0.1,2.1-0.7c0.6-0.6,0.8-1.4,0.7-2.1c0.8,0.1,1.5-0.1,2.1-0.7l0.9-0.9 c0.7-0.6,1.1-1.4,1.2-2.3l0.7-4c0.5,0.1,1,0,1.4-0.4l0.7-0.9c0.6-0.6,0.6-1.5,0-2.1l-2.7-2.7c-0.6-0.6-1.5-0.6-2.1,0l-0.9,0.9 c-0.4,0.4-0.5,0.9-0.4,1.4l-4,0.7C14,3.5,13.2,4,12.6,4.6l-0.9,0.9c-0.6,0.6-0.8,1.4-0.7,2.1c-0.7-0.1-1.5,0.1-2.1,0.7 c-0.6,0.6-0.8,1.3-0.7,2.1c-0.7-0.1-1.5,0.1-2.1,0.7c-0.5,0.4-0.8,1.2-0.7,1.9c-0.7-0.1-1.5,0.1-2.1,0.7l-2,1.9 C0,17,0,19.2,1.4,20.6z M20,2l0.9-0.9c0.2-0.2,0.5-0.2,0.7,0l2.7,2.7c0.2,0.2,0.2,0.5,0,0.7l-0.9,0.9c-0.2,0.2-0.5,0.2-0.7,0L20,2.7 C19.7,2.5,19.7,2.2,20,2z M12.3,6.1l0.9-0.9c0.5-0.5,1.2-0.8,1.8-0.9l4.4-0.8l2.4,2.4L21,10.3c-0.1,0.7-0.4,1.3-0.9,1.8L19.2,13 c-0.6,0.6-1.5,0.6-2.1,0l-4.8-4.8C11.7,7.7,11.7,6.7,12.3,6.1z M9.6,8.9c0.6-0.6,1.5-0.6,2.1,0l4.8,4.8c0.6,0.6,0.6,1.5,0,2.1 c-0.6,0.6-1.5,0.6-2.1,0L9.6,11C9,10.4,9,9.5,9.6,8.9z M6.8,11.7c0.6-0.6,1.5-0.6,2.1,0l4.8,4.8c0.6,0.6,0.6,1.5,0,2.1 c-0.6,0.6-1.5,0.6-2.1,0l-4.8-4.9C6.2,13.1,6.2,12.3,6.8,11.7z M4.1,14.4c0.6-0.6,1.5-0.6,2.1,0l4.8,4.8c0.6,0.6,0.6,1.5,0,2.1 l-2,1.9c-0.9,0.9-2.5,0.9-3.5,0l-3.5-3.5c-1-0.9-1-2.5-0.1-3.5L4.1,14.4z"></path> <linearGradient id="SVGID_3_" gradientUnits="userSpaceOnUse" x1="14.2324" y1="8.4116" x2="17.6648" y2="8.4116"> <stop offset="0" style="stop-color:#F0409C"></stop> <stop offset="1" style="stop-color:#BF4097"></stop> </linearGradient> <path class="st2" d="M17.5,9.2l-2.4-2.4c-0.2-0.2-0.5-0.2-0.7,0c-0.2,0.2-0.2,0.5,0,0.7l2.4,2.4c0.2,0.2,0.5,0.2,0.7,0 C17.7,9.7,17.7,9.5,17.5,9.2z"></path> </svg> 