<svg xmlns="http://www.w3.org/2000/svg" width="45" height="38" viewBox="0 0 45 38" fill="none"> <path d="M44.7032 11.5897C42.858 4.41411 38.0401 5.74672 30.147 7.79689C28.9169 8.10442 27.2767 8.30943 25.6366 8.51445C24.9422 8.61365 24.2238 8.68885 23.4931 8.77488C22.0078 8.94975 20.4435 8.53581 19.4861 7.38686C17.3334 5.02916 14.8732 2.46644 12.3105 1.13383C8.31262 -0.916343 5.13485 -0.198783 2.1621 3.38902C-1.36236 7.69669 -0.492236 14.6224 4.14737 20.3263C4.55566 20.8282 4.77924 21.5204 4.62231 22.1481C4.10977 25.4284 5.44238 28.8112 8.31262 31.5789C11.0804 34.2441 15.0782 36.0893 19.4861 36.8068C20.6137 37.0119 21.7413 37.0119 22.8688 37.0119C26.0466 37.0119 29.1219 36.2943 31.6846 34.9617C35.2724 33.1165 37.4251 30.3488 37.9376 26.966C38.1005 25.6632 38.7724 24.3727 39.7865 23.5387C43.8444 20.2016 45.7877 15.6566 44.7032 11.5897ZM5.44238 19.2779C1.34203 14.2549 0.419456 8.10442 3.39221 4.41411C4.92984 2.46644 6.46747 1.54386 8.21011 1.54386C9.2352 1.54386 10.3628 1.85139 11.4904 2.46644C13.8481 3.69655 16.1033 6.15675 18.256 8.41194C18.662 8.81797 18.4688 9.50945 17.9202 9.67916C17.2314 9.89228 16.6257 10.1356 16.1033 10.4621C13.8842 11.5716 12.5584 12.9789 11.9306 14.7816C11.9122 14.8342 11.8628 14.87 11.8071 14.87C11.801 14.87 11.7949 14.8704 11.7888 14.8713C11.0919 14.9709 10.3953 15.0708 9.79314 15.2651C9.763 15.2749 9.76901 15.28 9.73734 15.28C9.70118 15.28 9.62777 15.2867 9.59409 15.2999C8.3022 15.8048 7.30153 16.506 6.49699 17.4985C6.47783 17.5222 6.46747 17.5147 6.46747 17.5451C6.46747 17.5806 6.45315 17.6517 6.42885 17.6776C6.25821 17.8596 6.15762 18.0469 5.98447 18.3106C5.96534 18.3398 5.95957 18.3474 5.95128 18.3812C5.93537 18.4462 5.83352 18.4956 5.80361 18.5554C5.7151 18.7324 5.61513 18.9324 5.44238 19.2779C5.44238 19.1754 5.44238 19.1754 5.44238 19.2779ZM36.2975 26.761C35.8874 29.5287 33.9398 31.8864 30.8645 33.5266C27.6868 35.1667 23.7914 35.6792 19.6911 35.1667C15.5907 34.5517 12.0029 32.9115 9.44022 30.4513C6.98001 28.0936 5.85241 25.2234 6.26245 22.4556C6.36496 22.0456 6.46747 21.5331 6.56997 21.123C6.66708 20.8317 6.76419 20.5404 6.86129 20.2491C6.87203 20.2169 6.8775 20.1831 6.8775 20.1492C6.8775 20.1152 6.88289 20.0814 6.89399 20.0493C6.98495 19.7864 7.08022 19.5952 7.25078 19.3336C7.27455 19.2971 7.28753 19.2546 7.28753 19.2111C7.28753 19.1874 7.2912 19.1638 7.29935 19.1416C7.40525 18.8526 7.60266 18.6552 7.80008 18.4578C8.0051 18.2528 8.21011 18.0478 8.41513 17.8427C8.61121 17.6467 8.8073 17.5443 9.09307 17.4461C9.11923 17.4371 9.14679 17.4327 9.17445 17.4327C9.2144 17.4327 9.25365 17.4232 9.28992 17.4064C9.48106 17.3181 9.74185 17.2297 10.0066 17.1414C10.0388 17.1306 10.0726 17.1252 10.1065 17.1252C10.1405 17.1252 10.1742 17.1197 10.2064 17.109C10.4977 17.0121 10.789 16.9202 11.0804 16.9202C11.1482 16.9202 11.2154 16.9082 11.2812 16.8916C11.574 16.8177 11.9322 16.8177 12.2079 16.8177C12.413 16.8177 12.618 16.8177 12.7205 16.8177C12.9255 16.8177 13.1305 16.8177 13.3355 16.8177C13.4666 16.8177 13.5976 16.8177 13.7553 16.8444C13.9561 16.8784 14.1569 16.9202 14.3606 16.9202C14.4631 16.9202 14.5656 16.9202 14.5656 16.9202C14.5656 16.9202 14.5656 16.9202 14.5656 16.9202C14.7707 16.9202 14.9757 17.0227 15.2832 17.0227C15.5604 17.0227 15.8468 17.1464 16.1179 17.2043C16.1814 17.2179 16.2448 17.2277 16.3083 17.2277C16.5892 17.2277 16.8543 17.378 17.1313 17.4246C17.2833 17.4502 17.4353 17.4732 17.5873 17.5184C17.623 17.5289 17.6599 17.5352 17.6971 17.5352C17.7278 17.5352 17.7585 17.5393 17.7882 17.5474C18.8982 17.8509 19.9097 18.1543 20.9212 18.4578C22.6638 18.9703 24.304 19.4829 25.6366 19.5854C29.9419 20.2004 32.6072 20.713 34.2473 21.6356C35.4774 22.3531 36.0925 23.2757 36.195 24.7108C36.195 24.9734 36.3223 25.2257 36.3737 25.4831C36.4398 25.8139 36.3687 26.2627 36.2975 26.761ZM37.8586 23.0535C37.8489 23.0606 37.8351 23.0615 37.8351 23.0495C37.8351 23.034 37.8152 23.0285 37.8093 23.0142C37.7414 22.8518 37.7264 22.6954 37.6611 22.5966C37.6437 22.5701 37.6334 22.5389 37.6206 22.5099C37.6062 22.477 37.5781 22.4578 37.5566 22.432C37.5203 22.3887 37.5149 22.3265 37.4873 22.2771C37.4334 22.1811 37.3835 22.1104 37.353 22.0495C37.321 21.9855 37.2941 21.9147 37.2435 21.8641C37.2279 21.8485 37.2143 21.831 37.2028 21.8122C36.9091 21.3322 36.5242 20.9417 36.048 20.5548C36.0106 20.5243 35.9895 20.5169 35.9451 20.4981C35.8932 20.4761 35.8663 20.381 35.8192 20.3501C35.7394 20.2979 35.6597 20.2802 35.5799 20.2004C35.4055 20.026 35.1669 19.9284 34.9479 19.8148C34.5629 19.6151 34.1067 19.4242 33.6375 19.2711C33.4312 19.2038 33.2342 19.0728 33.0172 19.0728C32.8005 19.0728 32.6056 18.9313 32.3936 18.8869C32.2483 18.8565 32.1108 18.8339 31.9451 18.7831C31.9082 18.7718 31.8699 18.7653 31.8313 18.7653C31.802 18.7653 31.7729 18.7617 31.7443 18.7547C30.2943 18.3949 28.6062 18.114 26.7501 17.842C26.2819 17.7733 25.806 17.74 25.3482 17.6201C25.246 17.5934 25.1379 17.5643 25.0215 17.5352C23.9964 17.3302 22.7663 16.9202 21.5362 16.6126C19.1785 15.8951 16.5133 15.1775 14.1556 14.9725C14.0116 14.9725 13.9164 14.8239 13.9847 14.6971C14.533 13.6788 15.5203 12.7609 17.0259 12.1023C19.3836 10.9747 22.7663 10.5646 25.7391 10.1546C27.4817 9.94957 29.2244 9.74456 30.557 9.43703C39.1677 7.18184 41.7304 6.77181 43.1656 12.1023C44.0864 15.7857 42.0456 19.9798 37.8586 23.0535Z" fill="url(#paint0_linear)"></path> <path d="M11.4906 22.6608C11.3881 22.2508 10.978 21.9432 10.4655 22.0457C10.0555 22.1483 9.74793 22.5583 9.85043 23.0708L10.6705 26.3511C10.773 26.7611 11.0805 26.9662 11.4906 26.9662C11.6267 26.9662 11.7663 26.9568 11.8864 26.8925C12.1949 26.7274 12.3965 26.3702 12.3106 25.9411L11.4906 22.6608Z" fill="url(#paint1_linear)"></path> <path d="M29.5316 11.9997C29.4291 11.5896 29.019 11.2821 28.5065 11.3846C28.0965 11.4871 27.7889 11.8972 27.8915 12.4097L28.7115 15.69C28.814 16.1 29.1216 16.305 29.5316 16.305C29.6678 16.305 29.8074 16.2956 29.9274 16.2314C30.2359 16.0663 30.4375 15.709 30.3517 15.2799L29.5316 11.9997Z" fill="url(#paint2_linear)"></path> <path d="M24.9191 30.144L22.1514 31.9891C21.956 32.0868 21.8305 32.2543 21.7858 32.4473C21.6792 32.9083 22.062 33.4118 22.5244 33.512C22.5686 33.5215 22.615 33.5267 22.6639 33.5267C22.9542 33.5267 23.1956 33.3431 23.4371 33.1822L25.8417 31.5791C26.6234 31.1883 25.7251 29.7559 24.9377 30.1349C24.9315 30.1378 24.9253 30.1409 24.9191 30.144Z" fill="url(#paint3_linear)"></path> <path d="M8.20996 8.10459C8.5002 8.10459 8.74163 7.921 8.98312 7.76001L11.3877 6.15693C11.5199 6.09083 11.6202 5.99275 11.685 5.87646C11.9771 5.35246 11.4317 4.5532 10.8408 4.65717C10.7137 4.67955 10.585 4.73441 10.4652 4.82432L8.64694 5.96912C8.01591 6.36644 7.14951 6.91274 7.44108 7.59907C7.45533 7.6326 7.4724 7.66455 7.4924 7.69456C7.69742 8.00208 7.90244 8.10459 8.20996 8.10459Z" fill="url(#paint4_linear)"></path> <path d="M24.8164 25.1211C25.2264 25.1211 25.534 24.916 25.6365 24.506C25.739 24.096 25.534 23.5834 25.0214 23.4809L21.7411 22.5583C21.3311 22.4558 20.8186 22.6609 20.7161 23.1734C20.6135 23.5834 20.8186 24.096 21.3311 24.1985L24.3903 25.0589C24.5269 25.0973 24.6746 25.1211 24.8164 25.1211Z" fill="url(#paint5_linear)"></path> <path d="M7.80017 14.05C8.1077 14.05 8.31272 13.9475 8.51774 13.64C8.72275 13.2299 8.62024 12.7174 8.21021 12.5124L5.33997 10.6672C4.92993 10.4622 4.41739 10.5647 4.21237 10.9747C4.00735 11.3848 4.10986 11.8973 4.5199 12.1023L7.03194 13.7172C7.2658 13.8676 7.52216 14.05 7.80017 14.05Z" fill="url(#paint6_linear)"></path> <path d="M39.6805 14.8701L37.2203 17.1253C36.9128 17.4328 36.8103 17.9453 37.1178 18.2529C37.3228 18.4579 37.5278 18.5604 37.7329 18.5604C37.9379 18.5604 38.1429 18.4579 38.2454 18.3554L40.7056 16.1002C40.8354 15.9704 40.9286 15.8041 40.97 15.6322C41.0806 15.1721 40.6764 14.6529 40.2032 14.6509C40.0121 14.6501 39.824 14.7266 39.6805 14.8701Z" fill="url(#paint7_linear)"></path> <defs> <linearGradient id="paint0_linear" x2="1" gradientUnits="userSpaceOnUse" gradientTransform="translate(2030.85 -1055.5) scale(1.82775 12.2893) rotate(180)"> <stop stop-color="#4FE8A0"></stop> <stop offset="1" stop-color="#2EE2DE"></stop> </linearGradient> <linearGradient id="paint1_linear" x2="1" gradientUnits="userSpaceOnUse" gradientTransform="translate(2030.85 -1055.5) scale(1.82775 12.2893) rotate(180)"> <stop stop-color="#4FE8A0"></stop> <stop offset="1" stop-color="#2EE2DE"></stop> </linearGradient> <linearGradient id="paint2_linear" x2="1" gradientUnits="userSpaceOnUse" gradientTransform="translate(2030.85 -1055.5) scale(1.82775 12.2893) rotate(180)"> <stop stop-color="#4FE8A0"></stop> <stop offset="1" stop-color="#2EE2DE"></stop> </linearGradient> <linearGradient id="paint3_linear" x2="1" gradientUnits="userSpaceOnUse" gradientTransform="translate(2030.85 -1055.5) scale(1.82775 12.2893) rotate(180)"> <stop stop-color="#4FE8A0"></stop> <stop offset="1" stop-color="#2EE2DE"></stop> </linearGradient> <linearGradient id="paint4_linear" x2="1" gradientUnits="userSpaceOnUse" gradientTransform="translate(2030.85 -1055.5) scale(1.82775 12.2893) rotate(180)"> <stop stop-color="#4FE8A0"></stop> <stop offset="1" stop-color="#2EE2DE"></stop> </linearGradient> <linearGradient id="paint5_linear" x2="1" gradientUnits="userSpaceOnUse" gradientTransform="translate(2030.85 -1055.5) scale(1.82775 12.2893) rotate(180)"> <stop stop-color="#4FE8A0"></stop> <stop offset="1" stop-color="#2EE2DE"></stop> </linearGradient> <linearGradient id="paint6_linear" x2="1" gradientUnits="userSpaceOnUse" gradientTransform="translate(2030.85 -1055.5) scale(1.82775 12.2893) rotate(180)"> <stop stop-color="#4FE8A0"></stop> <stop offset="1" stop-color="#2EE2DE"></stop> </linearGradient> <linearGradient id="paint7_linear" x2="1" gradientUnits="userSpaceOnUse" gradientTransform="translate(2030.85 -1055.5) scale(1.82775 12.2893) rotate(180)"> <stop stop-color="#4FE8A0"></stop> <stop offset="1" stop-color="#2EE2DE"></stop> </linearGradient> </defs> </svg>